<svg xml:space="preserve" width="234px" height="76px" xmlns="http://www.w3.org/2000/svg" xmlns:xlink="http://www.w3.org/1999/xlink">

<desc><!-- copyright (c) 2001 Philippe Elsass --></desc>

<title><!-- [beez] animation generated by [beez::svg bezier editor] --></title>

<g transform="translate(2,2) scale(0.45)">
<desc><!-- [beez] animation - frame #1 --></desc>
<path id="beez" style="stroke:none;fill:#FF9900" d="
M18,131C18,131 10,23 10,23C10,23 41,19 41,19C41,19 43,37 43,37
C43,37 35,39 35,39C35,39 36,52 36,52C74,29 96,51 96,89
C96,127 69,126 45,119C45,119 45,130 45,130C45,130 18,131 18,131z
M73,93C77,73 66,56 39,69C39,69 41,98 41,98C41,98 69,113 73,93z
M184,106C184,106 189,126 189,126C98,163 83,46 133,30C183,14 191,60 185,78
C179,96 155,98 135,94C139,119 184,106 184,106z
M129,78C150,82 175,74 164,56C153,38 121,46 129,78z
M282,101C282,101 283,120 283,120C192,157 183,40 231,25C279,10 291,62 283,77
C275,92 251,94 231,90C235,115 282,101 282,101z
M226,74C249,80 273,68 261,52C249,36 218,42 226,74z
M298,36C298,36 369,30 369,30C369,30 374,58 374,58C374,58 338,97 338,97
C338,97 374,94 374,94C374,94 377,117 377,117C377,117 309,124 309,124
C309,124 303,96 303,96C303,96 340,59 340,59C340,59 301,60 301,60
C301,60 298,36 298,36z
M397,46C397,46 397,70 397,70C397,70 420,69 420,69C420,69 419,44 419,44
C419,44 397,46 397,46z
M398,83C398,83 421,83 421,83C421,83 421,108 421,108C421,108 397,106 397,106
C397,106 398,83 398,83z
M438,28C438,28 439,53 439,53C439,53 461,53 461,53C461,53 460,29 460,29
C460,29 438,28 438,28z
M439,98C439,98 439,121 439,121C439,121 461,121 461,121C461,121 461,97 461,97
C461,97 439,98 439,98z"
  />
<desc><!-- [beez] animation - from #1 to #2 --></desc>
<animate id="beez_frame1" xlink:href="#beez" begin="0s;beez_frame4.end" dur="0.3s"
  attributeName="d" attributeType="XML" fill="freeze"
  from="
M18,131C18,131 10,23 10,23C10,23 41,19 41,19C41,19 43,37 43,37
C43,37 35,39 35,39C35,39 36,52 36,52C74,29 96,51 96,89
C96,127 69,126 45,119C45,119 45,130 45,130C45,130 18,131 18,131z
M73,93C77,73 66,56 39,69C39,69 41,98 41,98C41,98 69,113 73,93z
M184,106C184,106 189,126 189,126C98,163 83,46 133,30C183,14 191,60 185,78
C179,96 155,98 135,94C139,119 184,106 184,106z
M129,78C150,82 175,74 164,56C153,38 121,46 129,78z
M282,101C282,101 283,120 283,120C192,157 183,40 231,25C279,10 291,62 283,77
C275,92 251,94 231,90C235,115 282,101 282,101z
M226,74C249,80 273,68 261,52C249,36 218,42 226,74z
M298,36C298,36 369,30 369,30C369,30 374,58 374,58C374,58 338,97 338,97
C338,97 374,94 374,94C374,94 377,117 377,117C377,117 309,124 309,124
C309,124 303,96 303,96C303,96 340,59 340,59C340,59 301,60 301,60
C301,60 298,36 298,36z
M397,46C397,46 397,70 397,70C397,70 420,69 420,69C420,69 419,44 419,44
C419,44 397,46 397,46z
M398,83C398,83 421,83 421,83C421,83 421,108 421,108C421,108 397,106 397,106
C397,106 398,83 398,83z
M438,28C438,28 439,53 439,53C439,53 461,53 461,53C461,53 460,29 460,29
C460,29 438,28 438,28z
M439,98C439,98 439,121 439,121C439,121 461,121 461,121C461,121 461,97 461,97
C461,97 439,98 439,98z"
  to="
M19,143C19,143 11,6 11,6C11,6 41,1 41,1C41,1 42,23 42,23
C42,23 35,26 35,26C35,26 36,43 36,43C72,14 93,42 93,91
C93,140 67,137 44,129C44,129 44,142 44,142C44,142 19,143 19,143z
M73,99C77,70 66,45 39,64C39,64 41,106 41,106C41,106 69,128 73,99z
M191,101C191,101 197,119 197,119C95,153 76,46 133,32C190,18 198,58 192,75
C186,92 157,94 135,90C139,113 191,101 191,101z
M129,76C154,80 183,71 170,57C157,43 119,50 129,76z
M278,107C278,107 279,128 279,128C197,170 189,36 232,19C275,2 287,61 279,78
C271,95 250,97 232,93C236,121 278,107 278,107z
M227,79C249,87 271,69 260,48C249,27 219,37 227,79z
M290,47C290,47 380,42 380,42C380,42 385,66 385,66C385,66 340,95 340,95
C340,95 385,92 385,92C385,92 390,112 390,112C390,112 303,118 303,118
C303,118 296,94 296,94C296,94 342,67 342,67C342,67 294,68 294,68
C294,68 290,47 290,47z
M398,30C398,30 398,54 398,54C398,54 421,53 421,53C421,53 420,28 420,28
C420,28 398,30 398,30z
M399,97C399,97 422,97 422,97C422,97 422,122 422,122C422,122 398,120 398,120
C398,120 399,97 399,97z
M438,46C438,46 439,71 439,71C439,71 461,71 461,71C461,71 460,47 460,47
C460,47 438,46 438,46z
M440,78C440,78 440,101 440,101C440,101 462,101 462,101C462,101 462,77 462,77
C462,77 440,78 440,78z"
  />
<desc><!-- [beez] animation - from #2 to #3 --></desc>
<animate id="beez_frame2" xlink:href="#beez" begin="beez_frame1.end" dur="0.4s"
  attributeName="d" attributeType="XML" fill="freeze"
  from="
M19,143C19,143 11,6 11,6C11,6 41,1 41,1C41,1 42,23 42,23
C42,23 35,26 35,26C35,26 36,43 36,43C72,14 93,42 93,91
C93,140 67,137 44,129C44,129 44,142 44,142C44,142 19,143 19,143z
M73,99C77,70 66,45 39,64C39,64 41,106 41,106C41,106 69,128 73,99z
M191,101C191,101 197,119 197,119C95,153 76,46 133,32C190,18 198,58 192,75
C186,92 157,94 135,90C139,113 191,101 191,101z
M129,76C154,80 183,71 170,57C157,43 119,50 129,76z
M278,107C278,107 279,128 279,128C197,170 189,36 232,19C275,2 287,61 279,78
C271,95 250,97 232,93C236,121 278,107 278,107z
M227,79C249,87 271,69 260,48C249,27 219,37 227,79z
M290,47C290,47 380,42 380,42C380,42 385,66 385,66C385,66 340,95 340,95
C340,95 385,92 385,92C385,92 390,112 390,112C390,112 303,118 303,118
C303,118 296,94 296,94C296,94 342,67 342,67C342,67 294,68 294,68
C294,68 290,47 290,47z
M398,30C398,30 398,54 398,54C398,54 421,53 421,53C421,53 420,28 420,28
C420,28 398,30 398,30z
M399,97C399,97 422,97 422,97C422,97 422,122 422,122C422,122 398,120 398,120
C398,120 399,97 399,97z
M438,46C438,46 439,71 439,71C439,71 461,71 461,71C461,71 460,47 460,47
C460,47 438,46 438,46z
M440,78C440,78 440,101 440,101C440,101 462,101 462,101C462,101 462,77 462,77
C462,77 440,78 440,78z"
  to="
M12,132C12,132 2,23 2,23C2,23 39,18 39,18C39,18 41,37 41,37
C41,37 32,39 32,39C32,39 33,51 33,51C78,27 104,52 104,90
C104,128 70,126 43,120C43,120 43,131 43,131C43,131 12,132 12,132z
M81,94C86,74 72,56 37,69C37,69 39,99 39,99C39,99 76,114 81,94z
M187,107C187,107 192,131 192,131C103,173 87,38 137,19C187,0 194,54 188,75
C182,96 159,100 139,94C143,123 187,107 187,107z
M133,78C154,84 181,72 170,50C159,28 125,38 133,78z
M290,102C290,102 291,119 291,119C183,153 173,46 230,32C287,18 300,66 291,80
C282,94 254,96 230,92C235,115 290,102 290,102z
M226,76C252,81 279,71 265,58C251,45 217,50 226,76z
M305,28C305,28 373,20 373,20C373,20 377,54 377,54C377,54 343,99 343,99
C343,99 377,95 377,95C377,95 381,122 381,122C381,122 316,132 316,132
C316,132 309,98 309,98C309,98 345,56 345,56C345,56 308,57 308,57
C308,57 305,28 305,28z
M397,46C397,46 397,70 397,70C397,70 420,69 420,69C420,69 419,44 419,44
C419,44 397,46 397,46z
M398,82C398,82 421,82 421,82C421,82 421,107 421,107C421,107 397,105 397,105
C397,105 398,82 398,82z
M438,29C438,29 439,54 439,54C439,54 461,54 461,54C461,54 460,30 460,30
C460,30 438,29 438,29z
M440,97C440,97 440,120 440,120C440,120 462,120 462,120C462,120 462,96 462,96
C462,96 440,97 440,97z"
  />
<desc><!-- [beez] animation - from #3 to #2 --></desc>
<animate id="beez_frame3" xlink:href="#beez" begin="beez_frame2.end" dur="0.4s"
  attributeName="d" attributeType="XML" fill="freeze"
  from="
M12,132C12,132 2,23 2,23C2,23 39,18 39,18C39,18 41,37 41,37
C41,37 32,39 32,39C32,39 33,51 33,51C78,27 104,52 104,90
C104,128 70,126 43,120C43,120 43,131 43,131C43,131 12,132 12,132z
M81,94C86,74 72,56 37,69C37,69 39,99 39,99C39,99 76,114 81,94z
M187,107C187,107 192,131 192,131C103,173 87,38 137,19C187,0 194,54 188,75
C182,96 159,100 139,94C143,123 187,107 187,107z
M133,78C154,84 181,72 170,50C159,28 125,38 133,78z
M290,102C290,102 291,119 291,119C183,153 173,46 230,32C287,18 300,66 291,80
C282,94 254,96 230,92C235,115 290,102 290,102z
M226,76C252,81 279,71 265,58C251,45 217,50 226,76z
M305,28C305,28 373,20 373,20C373,20 377,54 377,54C377,54 343,99 343,99
C343,99 377,95 377,95C377,95 381,122 381,122C381,122 316,132 316,132
C316,132 309,98 309,98C309,98 345,56 345,56C345,56 308,57 308,57
C308,57 305,28 305,28z
M397,46C397,46 397,70 397,70C397,70 420,69 420,69C420,69 419,44 419,44
C419,44 397,46 397,46z
M398,82C398,82 421,82 421,82C421,82 421,107 421,107C421,107 397,105 397,105
C397,105 398,82 398,82z
M438,29C438,29 439,54 439,54C439,54 461,54 461,54C461,54 460,30 460,30
C460,30 438,29 438,29z
M440,97C440,97 440,120 440,120C440,120 462,120 462,120C462,120 462,96 462,96
C462,96 440,97 440,97z"
  to="
M19,143C19,143 11,6 11,6C11,6 41,1 41,1C41,1 42,23 42,23
C42,23 35,26 35,26C35,26 36,43 36,43C72,14 93,42 93,91
C93,140 67,137 44,129C44,129 44,142 44,142C44,142 19,143 19,143z
M73,99C77,70 66,45 39,64C39,64 41,106 41,106C41,106 69,128 73,99z
M191,101C191,101 197,119 197,119C95,153 76,46 133,32C190,18 198,58 192,75
C186,92 157,94 135,90C139,113 191,101 191,101z
M129,76C154,80 183,71 170,57C157,43 119,50 129,76z
M278,107C278,107 279,128 279,128C197,170 189,36 232,19C275,2 287,61 279,78
C271,95 250,97 232,93C236,121 278,107 278,107z
M227,79C249,87 271,69 260,48C249,27 219,37 227,79z
M290,47C290,47 380,42 380,42C380,42 385,66 385,66C385,66 340,95 340,95
C340,95 385,92 385,92C385,92 390,112 390,112C390,112 303,118 303,118
C303,118 296,94 296,94C296,94 342,67 342,67C342,67 294,68 294,68
C294,68 290,47 290,47z
M398,30C398,30 398,54 398,54C398,54 421,53 421,53C421,53 420,28 420,28
C420,28 398,30 398,30z
M399,97C399,97 422,97 422,97C422,97 422,122 422,122C422,122 398,120 398,120
C398,120 399,97 399,97z
M438,46C438,46 439,71 439,71C439,71 461,71 461,71C461,71 460,47 460,47
C460,47 438,46 438,46z
M440,78C440,78 440,101 440,101C440,101 462,101 462,101C462,101 462,77 462,77
C462,77 440,78 440,78z"
  />
<desc><!-- [beez] animation - from #2 to #1 --></desc>
<animate id="beez_frame4" xlink:href="#beez" begin="beez_frame3.end" dur="0.4s"
  attributeName="d" attributeType="XML" fill="freeze"
  from="
M19,143C19,143 11,6 11,6C11,6 41,1 41,1C41,1 42,23 42,23
C42,23 35,26 35,26C35,26 36,43 36,43C72,14 93,42 93,91
C93,140 67,137 44,129C44,129 44,142 44,142C44,142 19,143 19,143z
M73,99C77,70 66,45 39,64C39,64 41,106 41,106C41,106 69,128 73,99z
M191,101C191,101 197,119 197,119C95,153 76,46 133,32C190,18 198,58 192,75
C186,92 157,94 135,90C139,113 191,101 191,101z
M129,76C154,80 183,71 170,57C157,43 119,50 129,76z
M278,107C278,107 279,128 279,128C197,170 189,36 232,19C275,2 287,61 279,78
C271,95 250,97 232,93C236,121 278,107 278,107z
M227,79C249,87 271,69 260,48C249,27 219,37 227,79z
M290,47C290,47 380,42 380,42C380,42 385,66 385,66C385,66 340,95 340,95
C340,95 385,92 385,92C385,92 390,112 390,112C390,112 303,118 303,118
C303,118 296,94 296,94C296,94 342,67 342,67C342,67 294,68 294,68
C294,68 290,47 290,47z
M398,30C398,30 398,54 398,54C398,54 421,53 421,53C421,53 420,28 420,28
C420,28 398,30 398,30z
M399,97C399,97 422,97 422,97C422,97 422,122 422,122C422,122 398,120 398,120
C398,120 399,97 399,97z
M438,46C438,46 439,71 439,71C439,71 461,71 461,71C461,71 460,47 460,47
C460,47 438,46 438,46z
M440,78C440,78 440,101 440,101C440,101 462,101 462,101C462,101 462,77 462,77
C462,77 440,78 440,78z"
  to="
M18,131C18,131 10,23 10,23C10,23 41,19 41,19C41,19 43,37 43,37
C43,37 35,39 35,39C35,39 36,52 36,52C74,29 96,51 96,89
C96,127 69,126 45,119C45,119 45,130 45,130C45,130 18,131 18,131z
M73,93C77,73 66,56 39,69C39,69 41,98 41,98C41,98 69,113 73,93z
M184,106C184,106 189,126 189,126C98,163 83,46 133,30C183,14 191,60 185,78
C179,96 155,98 135,94C139,119 184,106 184,106z
M129,78C150,82 175,74 164,56C153,38 121,46 129,78z
M282,101C282,101 283,120 283,120C192,157 183,40 231,25C279,10 291,62 283,77
C275,92 251,94 231,90C235,115 282,101 282,101z
M226,74C249,80 273,68 261,52C249,36 218,42 226,74z
M298,36C298,36 369,30 369,30C369,30 374,58 374,58C374,58 338,97 338,97
C338,97 374,94 374,94C374,94 377,117 377,117C377,117 309,124 309,124
C309,124 303,96 303,96C303,96 340,59 340,59C340,59 301,60 301,60
C301,60 298,36 298,36z
M397,46C397,46 397,70 397,70C397,70 420,69 420,69C420,69 419,44 419,44
C419,44 397,46 397,46z
M398,83C398,83 421,83 421,83C421,83 421,108 421,108C421,108 397,106 397,106
C397,106 398,83 398,83z
M438,28C438,28 439,53 439,53C439,53 461,53 461,53C461,53 460,29 460,29
C460,29 438,28 438,28z
M439,98C439,98 439,121 439,121C439,121 461,121 461,121C461,121 461,97 461,97
C461,97 439,98 439,98z"
  />
</g><desc><!-- [beez] /animation generated by [beez::svg bezier editor] --></desc>
<image xlink:href="http://www.google-analytics.com/__utm.gif?utmwv=4.7.1&amp;utmn=21830374&amp;utmhn=svg.kvalitne.cz&amp;utmcs=UTF-8&amp;utmsr=1920x1080&amp;utmsc=24-bit&amp;utmul=en-us&amp;utmje=1&amp;utmfl=10.0%20r45&amp;utmdt=SVG%C2%A0%E2%80%94%C2%A0It%27s%20in%20your%20hands...&amp;utmhid=1377849700&amp;utmr=-&amp;utmp=%2Findex2.htm&amp;utmac=UA-11950721-1&amp;utmcc=__utma%3D251371972.1884550355.1260220320.1272562824.1272576758.56%3B%2B__utmz%3D251371972.1263752798.41.3.utmcsr%3Dgoogle%7Cutmccn%3D(organic)%7Cutmcmd%3Dorganic%7Cutmctr%3Dsvg%2520smil%2520demo%3B" width="1" height="1"/>
</svg>
