<svg xmlns="http://www.w3.org/2000/svg" xmlns:xlink="http://www.w3.org/1999/xlink" width="500" height="400">
<title>Car in Run, by Marek Raida, marek.raida@gmail.com</title>
<desc>based on heavily modified cliparts from http://www.openclipart.org/detail/8865 and http://www.clker.com/clipart-blonde-dancer.html</desc>
<script type="text/ecmascript" xlink:href="../fakesmile/smil.user.js"/>

<g id="wholeCar" transform="translate(20 0)">
<g>
<g transform="scale(0.7) translate(310 30) rotate(10)">
<path d="M87.9,31.4c-17.2-2.8-21.9,16.7-27.2,32.6-4.4-4.4-8.5-9-12.7-13.6-3-3.3-3.6-9.2-2.2-14,1-3.5,6.4-5.2,6.3-8.6-0.2-5.3-9-3.9-11.9-2.1-3.1,2-3.1,5.3-6.4,4.6-3.9-0.9-8.7-8.8-11.7-11.5-1.7-1.7-9.7-8.1-11-3.7-0.926,3.23,3.08,5.76,4.4,8.38-2.53-0.659-13.5-7.61-15.4-3.05-1.15,2.76,7.12,7.88,8.63,9.48-1.91,0.137-6.11-0.416-7.62,1.02-2.48,2.36-0.209,4.99,2.88,5.5,10.9,1.81,17.2,9.98,26.7,14.5,10.6,4.98,14.5,18,20.9,27.4,2.68,3.89-12.9,9.19-15.6,9.33-6.6,0.4-12.2-2.3-16.9-6.5,3.4,10.6,12.2,16.2,22.3,19.9-3.63,1.63-7.96,1.76-11.7,0.338,5.08,14.5,23.3,30.8,38.4,20.3,0.031,3.4-3.72,5.92-5.75,8.29,3.53,1.7,7.18,3.01,11,3.89,3.9,0.899,7.68-0.294,7.02,4.32-0.293,2.06-0.793,5.1,0.17,7.02,1.32,2.64,6.61,3.73,9.33,5.82,5.03,3.87,9.99,16.1,0.654,18.2-3.64,0.806-7.04-1.26-10.6-1.61-2.52,29.9,27.4,34.4,49.6,23.4-3-2-4-6-4-11,0.076-1.84,0.303-4.68,1.35-6.26,1.89-2.84,2.89-1.75,5.75-3.55,9.4-5.92,0.424-14.8,3.56-20.6,1.64-3.05,5.68-5.25,8.71-6.6,4.16-1.85,0.732-2.46-0.762-4.74-0.689-1.05-1.93-1.64-2.37-3.04-0.211-0.681,2.29-1.61,1.27-3.3-1.23-2.05-3.24-3.39-2.79-6,9.68,6.06,19.8,2.37,27.9-4.4-2.67-2.91-6.23-4.96-8.46-8.29,11,1.38,22.5-0.958,28.9-10.8-6.22,1.62-12.9,0.559-18.6-2.3-3.1-1.55-14-8.2-12.9-12.6,3.17-12.3,6.69-24.6,11.1-36.5,5-13.6,9.42-22.3,23.3-28.4,2.35-1.03,14.5-4.52,14.2-6.26-0.26-1.74-4.62-2.59-5.92-2.88,1.2-1.31,6.07-3.4,3.81-5.67-2.39-2.4-7.21,0.423-10.2-0.085,3.44-3.55,4.14-5.89-2.03-5.92-5.51-0.03-10.4,3.03-15.1,5.58-6.58,3.6-8.15-0.427-14.5-3.3-5.52-2.51-11.6,1.14-6.35,6.34,4.74,4.74,8.89,13.7,7.11,20.5-3.13,11.8-11,22.2-16.6,33-2.88-5.46-6.84-10.4-11.2-14.7-1.84-1.83-5.95-3.68-7.25-5.73-1.59-2.5-12.1-8.45-22.3-5.57-4.1,1.16-5.87-1.49-10.8-2.88"/>
<path fill="#ffd4aa" d="M172,11.2c-2-1.22-15-12-16-6.12-0.008,0.078,3.84,3.44,4.23,4.15,1.26,2.3,1.52,4.6,2.37,7.02,0.799,2.29,1.54,4.86,3.38,6.52,1.65,1.48-0.6,5.23-1.35,7.19-3.67,9.53-9.13,18.3-13.7,27.4-2.66,5.32-3.8,7.5-1.54,13.1,1.65,4.09,3.42,8.25,5.75,12,5.9-13.1,7.79-27.5,13.2-40.8,6.44-15.8,19.4-23.5,35.9-26.4-5.95-3.52-12.7,1.23-19,0.846,5.16-2.87,13.1-4.04,16.8-8.8-6.27-1.45-14.7,2-20.6,4.23,2.1-2.13,15.7-8.57,11.5-9.98-4.64-1.55-18.2,7.27-21.5,9.64"/>
<path d="m171,19.8c1.74-0.295,6.75-3,10.2-3.38-3-2.5-8,0.2-10,3.4"/>
<path fill="#ffd4aa" d="M23,29.1c-7.2-1.8-12.6-7.7-20.4-7.9,2.4,2.94,6.46,7.54,9.48,9.65,2.13,1.49,5.19,1.75,7.45,3.38-5.9-0.4-11.2-3-17.3-2.2,4.11,4.55,10.7,4.72,15.6,8.12,2.81,1.98,4.96,4.48,8.12,6.09,2.67,1.36,7.21,1.59,9.47,3.22,4.62,3.32,8.54,12.4,11.5,17.3,3.58,5.85,7,11.8,10.7,17.6,2.18-2.93,3.94-6.06,5.75-9.22,2.3-4.2-6.5-12-9.3-15.2-3.9-4.3-10-9.5-10.5-14.7-0.352-3.57-0.066-9.99,2.03-13,1.19-1.72,4.4-2.47,4.4-4.91,0-5.48-11.1,1.85-12.5,3.13-2.83,2.47-2.48,2.67-5.58,1.1-2.23-1.13-4.24-4.45-5.92-6.26-4.02-4.33-7.86-7.88-13.5-9.82,2.34,5.05,7.39,9.74,10.5,13.7"/>
<path fill="#FF0" d="m74.6,39.8c-4.72,4.64-7.25,11.1-9.09,17.4-1.72,5.87-3.92,8.05-0.049,12.9,0.547-0.841,1.61-1.47,2.03-2.37-0.389,5.68-4.1,10.5-6.09,15.7,11.8-5.66,18-18.3,25-28.6,2.71,2.82,0.545,7.52,2.03,11,3.5-6.68,6.86-13.3,10.7-19.8,14.9,11.2,26.9,25.1,31.9,43.7,0.656-5.89-0.424-12.1,0.17-17.8,0.711-6.76,6.96-5.14,9.98,0,1.97,3.34,0.875,7.25,2.54,9.82,1.82,2.81,5.16,3.89,6.09,7.61,1.7,6.82-4.02,7.91-8.8,4.57,0.938,9.02-5.37,14.2-7.11,22.2-1.79,8.27-2.92,13.5-12.4,14.6,3.44,4.58,9.97,3.77,14.8,2.46,5.88-1.6,0.184-5.6,1.44-9.98,1.33-4.64,9.06,1.3,12.5,1.78,5.84,0.806,11-1.27,15.1-5.42-4.37-1.78-10.4-6.71-8.97-12,9.99,3.76,19.1,3.01,27.6-3.72-13.4,0-22.8-5.2-29.7-17-6-11-9-24.7-17-34.2-7-8.9-18-18.3-31-14.8-4,1.2-11.3-3.7-16.4-4.2-5.9-0.7-11.4,1.9-15,6"/>
<path fill="#ffd4aa" d="m25,36c3.51,1.66,7.61,3.43,9.14,7.28,0.402-4.93-5.09-7-9.14-7.28"/>
<path fill="#ffd4aa" d="M99.3,50.1c-4.8,5.7-6.7,13-11.5,18.6-1.6-2.6-1.8-5.8-2.4-8.8-3.88,4.9-6.52,10.8-10.7,15.5-3.15,3.54,2.62,12.3,4.99,15,1.76,2.01,0.604,8.25,1.51,11.1,1.41,4.38,3.29,8.1,5.77,12,3.52,5.49,11.2,10.4,17.7,11,8.54,0.826,17.7,8.05,24.8-0.39,3.36-4.04,4.43-13.2,6.14-18.4,2.35-7.04,3.72-14.6,0.371-21.6,9.23-1.36,5.17-14.4-2.37-15.2-0.732,8.22,1.64,16.9-2.88,24.4-3-10.3-6-18.4-12-25.9-5-7.7-14-12.4-19.7-18.6"/>
<path d="m96.9,61.1c3.68-0.97,6.7,1.23,9.81,2.88-1.89-2.8-7.63-7.06-9.81-2.88"/>
<path d="m103,70.4c-12.2,1.62-1.34,19.7,5.94,21.7,10.6,2.81,6.09-10.7,3.7-15.2-2.26-4.26-1.58-5.01-1.35-9.65-0.387,1.13-2.13,4.38-3.72,4.06-1.53-0.304-0.906-3.36-1.35-4.74-0.676,1.68-1.95,3.3-3.21,3.89"/>
<path d="m79.1,79.5c0.244-3.11-0.064-6.7,3.22-8.29-5.28-2.16-4.74,5.49-3.22,8.29"/>
<path fill="#FFF" d="m99.9,73.4c3.24,1.46,7.11,4.24,7.11,8.29,0,2.53-3.26,4.24-2.71,6.26,0.287,1.05,4.09,2.71,5.08,2.88,15.4,2.67-6.5-27.9-9.48-17.4"/>
<path d="m134,77.3c-0.176,0.777-0.256,1.49,0.168,2.2,1.35-1.01,1.94-1.51,3.72-1.35-2.96-0.854-3.15-3.13-1.01-5.42-2.2,0.426-2.8,2.85-2.88,4.57"/>
<path fill="#00F" d="m98.9,76c-0.068,3.47,4.81,14,6.43,6.26,0.642-3.09-3.5-8.22-6.43-6.26"/>
<path fill="#ffd4aa" d="m60,86.5c2.32,3.66,2.83,7.9,4.74,11.7,2.18,4.31,6.33,6.72,9.58,10.2,6.35,6.84,11.6,15.2,16.3,23.3,1.08-2.46,1.59-4.91,2.12-7.53,0.541-2.69-9.41-11.4-11.1-15.1-2.71-6.04-2.2-13.1-4.4-18.8-1.53-3.92-3.96-7.97-5.75-11.8-3.56,2.84-7.76,6.57-11.5,8.12"/>
<path d="m82,84.8c-0.703-0.031-1.54,0.169-2.2,0.169,2.98,1.67,2.47,3.62-0.678,3.21,2.9,2.21,3.65,2.66,6.26,5.92,1.56,1.94,3.15,4.06,5.42,5.25,3.1,1.62,5.39-0.208,7.95,0.507,2.25,0.628,1.41,4.04,5.24,2.12,2.23-1.12,3.36-3.64,3.72-6.01-0.775,1.53-2.38,4.51-4.23,4.91-3.58,0.763-2.58-1.87-3.38-4.4-2.02-6.4-11.6-23.2-18.1-11.7"/>
<path fill="#FF0" d="M23.6,86.1c5.5,7.7,13.9,11.7,22.9,13.9-2.95,3.95-8.81,3.8-13.2,4.91,5.29,6.82,12.5,14.5,21.1,16.8,7,1.84,10.7-1.07,16.6-4.28,1.55,4.39-3.22,8.35-4.91,12,5.31,0.509,13.3,6.45,15.9-0.086,2.7-7-4.9-16-9.2-21-3.3-3-7.4-5-9.7-9.2-2.3-4.3-3.4-7.9-6.3-11.5-0.096-0.12-1.27,1.06-1.69,0.507-0.553-0.735,0.695-1.39,0.508-1.69-0.383-0.629-1.06-3.65-2.2-5.24-7.2,8.14-20.8,10.8-29.8,4.23"/>
<path fill="#FF0" d="m142,82.7c0.689,1,4.89,5.43,3.72,6.6-1.97,1.96-5.01-4.01-5.58-5.25-2.69,2.79,2.3,11.1,6.6,10.3,6.59-1.26-1.53-12.6-4.74-11.7"/>
<path fill="#FFF" d="m87.8,82.6c2.69,2.05,4.71,5.32,3.89,8.8-0.914,3.88-4.62,5.14,1.01,7.28,11.3,4.3,1.9-14.2-4.9-16.1"/>
<path d="m121,95.4c-1.09,3.59-3.05,4.62-6.26,5.75-1.91,0.673-3.8,0.335-5.5,1.69-0.826,0.66-1.65,1.42-1.94,2.45-0.383,1.34-1.4-0.035-2.37,0.422-1.21,0.567-2.94,0.93-4.23,1.52-1.45,0.667-1.64,2.2-3.55,2.2-2.61,0-7.15-2.91-9.14-4.4,4.16,5.28,12.5,8.16,17.9,12,3.96,2.8,13.8,11,18.8,6.09,7.48-7.36-0.813-30.2,0.17-39.6-3,3.7-4,9.1-5,12"/>
<path fill="#00F" d="m83.7,85.1c-0.1,3.46,4.34,13.6,6.6,6.09,1.1-3.65-3.99-9.94-6.6-6.09"/>
<path fill="#F00" d="m122,118c-5.71,4.05-12.1-1.72-17.6-3.22,5.03,3.11,16.7,14.1,19.8,3.39,2.04-7.13-0.572-15-1.52-22.2-1.32,7.31,1.85,14.8-0.676,22"/>
<path fill="#F00" d="m108,108c-2.74-1.79-5.81-0.414-7.61,2.03,7.1,1.02,15.7-0.092,18.1-8.29-4,0.373-9.73,1.54-10.5,6.26"/>
<path fill="#FFF" d="m106,113c2.45,2.05,7.92,5.48,11.3,4.91,6.94-1.17,4.1-9.92,3.04-14.6-2.67,5.56-8.19,9.31-14.4,9.64"/>
<path fill="#F00" d="m86.4,147c5.95,2.58,11.7,8.32,11.7,15.2,0,9.02-11.3,11.1-17.9,7.47-1.38,4.91,1.48,16.9,8.29,11.8,4.2-3.14-3.56-8.6-4.91-3.13-0.705-1.35-1.87-4.21-0.592-5.5,1.75-1.76,9.31,6.22,10.9,7.53,9.65,7.89,19.8,12.9,32.3,10.2-1.81-4.41-2.44-8.47-1.86-13.2,0.219-1.78,0.387-5.07,1.35-6.6,1.67-2.63,3.02-2.01,6.07-3.54,8.37-4.19,2.72-17-3.53-20,1.62-0.437,3.05,0.238,4.4,1.52,2.55-4.16,7.15-6.86,11.3-9.14-4.62-4.45-4.83-4.29-10.7-3.21-3.79,0.694-7.62,1.06-11.4,0.168,0.904,6.1,4.76,14.6,1.01,20.3-2.7-5.72-5.82-11.5-9.81-16.4-0.354,1.79-0.414,3.65-1.52,5.08,1.47-9.5-7.27-19.4-16.4-20.8-1.92,7.44-2.47,17.4-8.63,22.3"/>
<path fill="#ff4000" d="m82,144c3.97,2.16,8.2-5.63,7.78-8.97-0.277-2.21-3.59-6.01-5.08-7.61-2.33,5.07-3.36,11.3-2.71,16.6"/>
<path fill="#ffd9e7" d="m111,131c2,7.89,8.16,13.8,11.7,21,1.12-5.19-2.82-28.5-11.7-21"/>
<path d="m102,156c-0.66,5.84,0.111,12,7.02,12.9,5.59,0.796,9.24-3.8,14.1-3.3-3.71-2.58-9.01,2.52-13.6,0.678-6.14-2.45-6.17-7.05-6.17-12.9-0.655,0.774-1.04,1.63-1.36,2.54"/>
</g>
<animateTransform id="j1" attributeName="transform" type="translate" from="0 0" to="0 -10" dur="0.65s" begin="0s;j2.end" repeatCount="1" fill="freeze"/>
<animateTransform id="j2" attributeName="transform" type="translate" from="0 -10" to="0 0" dur="0.65s" begin="j1.end" repeatCount="1" fill="freeze"/>
</g>

<g>
<path d="m94.7,136c-21-1.07-42.9-3.42-63.3,2.63-12-4.82,15.7-9.31-3.49-13.8-13.4-3.7-12.2,6.02-8.35,13.5-16.3,9.85-8.64,34.6-11.1,51.2,5.81,20.1-15.8,32.8-5.91,52.9,5.86,17.6,29.4,20.5,43.4,15.2,9.89,10,12.9,41.6,35.4,45.3,21,6.91,40.3-8.66,48.9-26.7,36.5,6.75,74,4.57,111,3.8,16.1-7.6,7.03,20.3,24.5,22.5,16.5,11.2,41.6,10.5,53.3-7.39,7.6-11.1,7.32-24.5,24.3-17.5,11.6-1.16,37.1,17.4,28.3-3.26,10.2-12-8.96-6.63-7.13-11,10.6-10,23.2-36.6,2.75-42.5-9.81-1.69-17.3,1.31-11.2-10.7-6.58-20.5,20.4-33,10-54.1-9.74-11.7-37.1-1.79-34.8-18.9-18-10.7-37.1,7.15-56.4,3.59-17.6,5.68-37.3,2.42-56.7,3.08-20-1-40-1-60-1-14-16-8-34-3-53.5,5-17.2-29-5.8-32,6.2-10,12.3-19,26.3-28.3,39.3z"/>
<path fill="#d0ccc8" d="m152,84.7c-19.7-3.29-29.8,15.9-40.1,28.9-12.3,12-17.7,29.2,5.91,27.3,5.77-21.4,21-39,34.2-56.2z"/>
<path fill="#d0ccc8" d="m124,140c13,0.876,8.71,4.35-0.828,3.38l0.828-3.38z"/>
<path fill="#c0c0c0" d="m144,133c-7.91,10.7-26.7,6.31-15-8.32,3.63-7.51,13.4-33,19.5-26.7,0.361,17.8-7.76,27-18,38.7,3.18,3.52,13.8-16.8,13.5-3.6z"/>
<path fill="#128080" d="m270,145c14.4-1.67,30-3.72,44.5-8.02,14.1-6.69,21,14.2,3.41,10.7-15.7-3.87-33.4,3.9-47.9-2.7z"/>
<path fill="#2cb0cf" d="m97,138c-22.1,0.0799-44.3-2.21-66.3,1.33-2.13,14.8,23.7,13.5,18.5,31.5,6.61-2.98,28.8-17.6,44.3-12.1,8.14-0.679,20,10.7,4.71,4-23.9-7.54-48.3,9.23-57.5,31.1-6.9,10.4-8.97,19.8,6.14,20.6,11.2,11.1,3.45,33,1.81,41.7,19.8-2.13,7.39-30.2,14-43.3,4.98-17,30.8-28.7,43.7-13.6,6.17,19.4,8.56,40.3,12.7,60.3,6.31,21.9,34.3,15,51.5,18,26.5,1.43,53.2,1.82,79.5-1.53,21.6-6.23,20.2-32.7,27.1-50,1.1-16.7,23.6-37.5,36-18.2,10.5,16.7,2.67,38.5,11.5,55.6,9.09,5.06,12.3,2.62,2.67-4.15-6.73-15.2,0.555-34.7,17.8-38.3,14.8-9.73,3.8-34.3,7.39-50.1,5.24-28.1-25.6-20.4-42.1-21.6-16.4,0.618-32.9,2.3-48.9-2.39-69.2-0.21-139-2.22-208,1.57-8.72,2.62-17.1,0.0274-2.77-1.68,21.5-2.31,43.1-3.6,64.7-2.96-6.29-1.91-12.6-3.82-18.9-5.76z"/>
<path fill="#2cb0cf" d="m35,195c0.502,9.84-9.49,24.8-8.29,6.68-4.86-6.09,6.91-0.292,8.29-6.68z"/>
<path fill="#c0c0c0" d="m18.8,210c16.8,0.995-5.4-33.7-1.66-8.59,0.325,2.9,0.925,5.77,1.66,8.59z"/>
<path fill="#c0c0c0" d="m32.6,194c17.9-7.13,16-45.3,0.324-41.3,3.3,13.5,3.3,27.9-0.324,41.3z"/>
<path fill="#c0c0c0" d="m22.9,149c5.96,12.6-0.397,41.2,6.71,45.5,1.2-14.1,10.5-39.9-6.37-46.5l-0.3,1z"/>
<path fill="#f7f619" d="m21,151c-7.48,9.27-9.91,42.1,2.66,39.6,0.3-14,2.5-28-2.7-40z"/>
<path fill="#c0c0c0" d="m21.3,139c-4.24,12.3,17.1,5.91,4.21-0.494l-4.21,0.494z"/>
<path fill="#c0c0c0" d="M13.9,212c-18.3,7-10.8,43,8.7,44,23.6,11,36.8-30,17.6-40-8.3-4-17.4-4-26.3-4z"/>
<path fill="#c0c0c0" d="m339,227c-17.7,11.3-9.73,45,14.1,37.7,17.5-0.952,32-39.3,8.01-40.6-7.25-0.328-16-2.49-22.1,2.84z"/>
<path fill="#c0c0c0" d="m329,268c11.9,2.39,32.6-2.41,38.8,2.18-1.85,9.75,5.73,13.4-6.74,8.57-8.1-5.68-36.1,0.481-32-10.7z"/>
<path fill="#404040" d="m54.8,258c0.999,19.1,12.6,40.2,33,43.6,17.5,3.88,52-21.6,30.2-34.9-6.68-18.9-5.27-40.5-11.9-59.9-9.01-24.6-43.5-5.71-42,15.6-2.68,11.4,4.02,29.5-9.22,35.7z"/>
<path fill="#404040" d="m255,278c-2.01,20.7,24.8,32.1,42.6,28.3,17.4-3.87,27.5-22.9,27.1-39.8-12.3-10.8-4.69-30.7-8.76-45.2,1.31-25.5-32.7-22.8-34.2-0.0673-7.42,15.7-4.49,35.6-17.6,48.6-2.77,3.01-5.11,6.94-9.25,8.26z"/>
<path d="m145,113c-13.7-2.05-14.6,17.7-13,25.1,18.5,7.06,10.7-14.7,13-25.1z"/>
<path fill="#e2b79c" d="m133,133c5.86,3.26,15,4.54,1.44,5.04-3.33,0.647-5.91-6.14-1.44-5.04z"/>
<path fill="#e2b79c" d="m138,115c-6.79,10.7,9.12,16,4.61,1.3-0.737-1.76-3.12-1.75-4.61-1.3z"/>
<path fill="#e2b79c" d="m135,124c9.84,6.01,3.59,13.2-2.31,2.26-1.5-1.6,1-3.32,2.31-2.26z"/>

<path d="m168,82.1c-8.08,20,17.7,49.5,28.2,20.5,1.05-13,10-27.8,7.65-38.7-13.1-0.0288,12.5-8.16-2.35-6.78,5.96-3.73,9.7-6.55-0.288-6.16,21.2-3.6-17.4-1.47,1.7-4.46,9.58,0.141-7.22-1.18,3.77-2.71-11.5-4.17-25.8-11.3-35.1,0.99-7.22,9.74-2.05,16.2-5.73,25,3.19,3.75,2.2,7.68,2.16,12.3z"/>
<path fill="#e2b79c" d="m170,75.1c-3.44,20.3,26.9-1.62,24.5-1.17-0.809,10.6-5.63,44.8-18.1,21.9-11.2-29.4-8.65,26.1,10.6,14.9,13.1-8.56,10.8-30.5,17-44-5.92-3.52-12-4.32-17,3.35-7.42,1.19-9.72-11-11.8,1.56-9.58,10.2,16.4-3.27,4.44,6.62-6.07,6.97-7.49-3.01-9.57-3.14z"/>
<path fill="#FFF" d="m175,86.9c0.546,13.1,14.4,19.7,14.4,2.3,4.21-12.3,0.749-10.9-7.93-3.74l-3.73,1.45-2.75-0.0086z"/>
<path fill="#e2b79c" d="m172,60.6c8.3,3.89,14.7-7.07,24-0.576-0.216-11.3-11.1-11.9-21.8-10.8-4.46,3.84-7.46,4.64-2.16,11.3z"/>
<path fill="brown" d="m170,50.8c5.1-5.15,26.1-16.9,6.88-9.61-2.85,2.48-6.53,5.56-6.88,9.61z"/>
<path fill="brown" d="m176,48.2c3.53-11.8,34.6-5.91,10.8-5.44-4.73,0.39-5.96,6.72-10.8,5.44z"/>
<path fill="brown" d="m183,47.4c6.63-7.18,30.4-4.32,10.5,0.666-1.81,3.55-7.29-1.03-10.5-0.666z"/>
<path fill="brown" d="m196,53.6c8.31-2.27,7.76-1.86,3.28,4.14,8.13,1.6-7.77,7.12-3.28-4.14z"/>
<path fill="#a16121" d="m181,61.2c0.0326,17.7,19.4-3.78,3.89-2.02l-2.35,0.738-1.54,1.28z"/>
<path fill="#a16121" d="m173,62.8c-15,3.87,5.73,17.1,2.99,0.576l-1.33-0.626-1.66,0.0495z"/>
<path fill="#fb0f0c" d="m355,170c-1.01,20.1,12.8,8.16,8.33-4.89-2.6-15.6-9.25-3.52-8.33,4.89z"/>

 <path transform="scale(5) translate(30 28)" d="m13.08,14.47c-0.1748,0.3824-0.2354,1.404,0.3605,0.6087,0.3008-0.3106,0.09509-1.084-0.3605-0.6087zm-2.045-1.227c0.8947,0.838-0.3287-1.148-0.000034-0.000004l0.000034,0.000004zm-0.3784,0.9619c0.552-0.1171,0.508,0.6422,1.139,0.1577-0.04402-1.114-1.451-0.2835-2.102-0.4358-0.5535-0.4133-1.318,0.5787-0.5497,0.722-0.2855-0.5455,0.559-0.3898,0.7294-0.352,0.3488,0.4345,0.4618-0.3078,0.783-0.09192zm-0.07268,0.3062zm-1.346,0.9994c0.2571,1.101,0.7822-1.276,0.04168-0.3031l-0.05594,0.179,0.01426,0.1241-0.000002-0.000015zm-0.9044,0.3389c-0.8048,0.2018-1.001,1.3-0.4141,1.778,0.4004-0.3664,0.1909-1.347,0.896-1.431,0.2379-0.4008,0.4883-0.7202-0.2035-0.4571l-0.1383,0.054-0.1401,0.05579,0.000006-0.000004zm-0.7497-5.26c-0.5657-0.3216-2.056,0.1692-1.343,0.8604,0.213-0.07999,1.462-0.5957,0.7312-0.01854-0.7596,0.07272-1.134,1.366-0.169,0.858,0.4763,0.1475,0.7857,0.02547,0.2356-0.1181,0.1426-0.7524,1.037,0.3638,1.109-0.6021,0.5182,0.1664,1.081,0.2983,1.195-0.41-0.141-0.98-1.166-0.49-1.766-0.57zm-1.404-1.508c1.57-1.099,3.614-0.93,5.421-0.7293,0.9193,0.1605,1.877,0.4042,2.652,0.934,0.3501,0.3297,1.011,2.226,0.04388,1.4-0.6767-0.9322-1.624-0.3969-2.544-0.3211-1.125-0.1964-1.44,0.9859-1.186,1.812-0.3916,1.167,0.8612,0.04449,0.4924-0.4162,0.4546-0.07573,0.7616-0.5081,1.022,0.02182,0.4107,0.2373,0.9823-0.6636,0.7004,0.105-0.4082,0.06402-1.01,0.02233-0.2796,0.2118,0.6734-0.3021,1.522,0.3987,2.053,0.3294-0.07816-0.5706,0.439,0.6112-0.0024,0.8437-0.7443,0.6674-1.067,1.442-0.4195,2.328-0.2105,0.5435-0.9032-0.2713-1.07,0.4154-0.6198-0.533-1.54-0.553-2.191-1.074-0.764,0.3161,0.03991,0.9619,0.5272,1.06-0.976-0.2035-1.844-0.02045-2.643,0.5991-0.4702,0.5037,0.8783-0.112,1.196-0.01204,0.7994-0.01401,1.823-0.07706,2.454,0.1493,0.2297,0.9104-1.052-0.1445-1.523,0.3278-0.4998,0.2694-1.611-0.06838-1.787,0.2353,0.6381,0.753,1.769,0.2412,2.591,0.5757,1.216-0.5322,0.5815,0.8685-0.09308,1.094-0.86,0.47-2.093,0.73-3.034,0.22-0.514-0.29-0.596-1.42-1.041-0.36-0.695-0.4,0.172-1.62-0.779-1.95-0.843-0.76-0.774-1.99-1.211-2.96-0.239-1.21,0.271-2.4,0.246-3.6-0.882,0.03,0.202-1.018,0.405-1.248zm-1.293,11.84c-0.1058,1.052,1.011,1.602,1.848,1.898,0.626,0.3563,2.3,0.5946,1.118-0.3964,0.9602-0.1501,1.952-0.1372,2.692,0.5776,0.3043-0.01599-0.02038-1.288,0.4997-0.4278,0.3117,0.9379,1.11,1.652,2.079,1.856,0.9678,0.4482,2.332,0.2477,2.882-0.7334-0.2766-1.031,0.6807-0.6391,1.314-0.776-0.9366-0.05948-1.577-1.707-0.9234-2.189,0.7279-0.2554,0.1575-1.005-0.1464-1.154,0.4762-0.08779,0.948,0.377,1.246,0.3962,0.02832,0.4311-0.7179,0.8832,0.06651,0.53,0.6728-0.0073,0.452-1.878,0.7997-1.121,0.04719-1.017,0.07029-1.965,0.5641-2.893,0.3061-0.886-0.3696-1.919,0.06778-2.721,0.5433-0.05889,1.378,1.353,0.7386,0.2891-0.3975-0.338-0.7931-0.9528-0.07106-0.3679-0.1598-0.7325-1.38-0.3707-1.178-1.275-0.08908,1.288-1.469-1.299-0.4223-0.2734,0.378,0.927,0.1427-0.547-0.225-0.5834,0.4228-0.3441,1.921-0.08385,0.6759-0.3508-0.9123,0.07787-0.04893-1.306-0.5974-1.827-0.14-1.169-1.3-1.724-1.66-2.795-0.91-0.997-2.28-1.228-3.51-1.587-0.94-0.616-2.03-0.598-3.109-0.736-1.33,0.144-2.759,0.377-3.843,1.233-0.734,0.598-1.393,1.246-1.698,2.157,0.14,0.944-0.667,1.809-0.01,2.705,0.4999,0.8152-0.4327,1.833-1.175,2.197-0.6918,0.3398-1.372,0.6859-2.102,0.8886,0.675,0.1173,1.686-0.6621,1.961,0.4261,0.00974,0.7375-0.7653-0.6115-0.3617,0.3544-0.1213,0.264-0.8635-0.5129-0.3029,0.1368,0.8665,0.2757,0.5569,1.5,0.4721,2.168-0.2928,0.5996-1.151,0.07871-0.7404-0.4648-1.081,0.792,0.752,1.64,1.385,0.8557,0.9674,0.1683,0.4822,1.865-0.3403,1.113-0.3567-0.3192,0.04477-1.161-0.4664-0.3986-0.3777,0.6769,0.8124,1.307,0.8126,1.406-0.4951,0.1832-1.326-0.8349-0.81,0.03096-0.02627,0.9187,1.197,0.6316,1.398,0.8426-0.2312,0.5069-0.6165,1.296,0.2573,0.7493,0.7053-0.2784,0.4053-1.024,0.8162,0.241zm13-2.89c0.593-0.7838,0.3646,1.414,0.1024,0.2196-0.2427,0.02187-0.3368,0.08378-0.1024-0.2196zm-8.957-11.31c0.307-0.452-0.873-0.593,0.005-0.673,0.085-0.581,0.148-0.512,0.445-0.072,1.007-0.165-0.473,0.24,0.171,0.688-0.166,0.181-0.349-0.465-0.621,0.057zm0.1332,9.082c-0.2312-0.374-1.768,0.3697-1.49,1.177-0.033,0.4964,0.6276,0.9973,0.5843,0.1468-0.01058-0.8503,0.6712-0.6415,0.9055-1.323zm0.5687-0.2852c0.3216-1.067-0.7969-0.1674-0.2832,0.3115,0.1746,0.03202,0.2638-0.1729,0.2832-0.3115zm1.282-0.9194zm0.911-0.3181c-0.3046-1.071-1.539-0.0693-2.252-0.3816-0.5609-0.3123-1.13,0.6778-0.4327,0.7587-0.2855-0.5455,0.559-0.3898,0.7294-0.352,0.3742,0.2859,0.8715-0.4477,1.239,0.01321-0.2479,0.3091,0.7603,0.2504,0.7164-0.03826zm1.252,0.198c-0.1748,0.3824-0.2354,1.404,0.3605,0.6087,0.3008-0.3106,0.09509-1.084-0.3605-0.6087zm-2.15-1.483c0.0083,0.4256,0.8285,0.724,0.3094,0.08831-0.1224-0.1181-0.1794-0.4344-0.3094-0.08831zm-2.154-1.23c0.7887,0.01576,0.6502-1.536-0.2933-1.176-0.7635,0.1666-1.824-0.442-2.399,0.355-0.2386,0.9377,0.7566,0.1491,1.18,0.2309-0.3969,0.267-1.762,1.226-0.6575,1.202,0.3615-0.1276,1.165,0.08262,0.432-0.1999,0.1426-0.7524,1.037,0.3638,1.109-0.6021,0.2093-0.0625,0.4645,0.05986,0.6289,0.1898zm1.934,2.625zm2.5-0.03167c-0.3732,0.2638-0.3848,1.603,0.2308,0.7268,0.1852-0.2325,0.2525-0.8856-0.2308-0.7268zm-2.219-1.487c-0.3014,0.4241,0.851,0.9415,0.2487,0.2101-0.1334-0.0014-0.08628-0.3587-0.2487-0.2101zm-1.46,2.098c-0.7131,0.2821,0.02748,1.41,0.1235,0.4128-0.00586-0.09565,0.08876-0.5089-0.1235-0.4128zm-0.4605-4.303c-0.7667-0.2579-1.639,0.03765-2.49-0.1401-0.7487,0.08882-0.6215,1.396,0.04723,0.7523,0.4713-0.2591,0.8837-0.07054,0.2335,0.2242-0.9177,0.2386-0.7985,1.246,0.08501,0.8211,0.7271,0.07848,0.2187,0.0066,0.1272-0.2045,0.2016-0.5948,1.013,0.3257,1.145-0.5672,0.6025,0.5113,1.618-0.1936,0.8522-0.8856zm-0.4581,5.08c-0.8644,0.1224-1.34,1.122-0.8164,1.779,0.6381,0.2746,0.1488-1.412,1.024-1.269-0.03843-0.4391,0.8235-0.7725-0.2078-0.5103zm0.326-1.149c-0.4506-1.199,1.273-0.3604,1.806-0.7997,0.8628-0.4758,1.606,1.029,0.342,0.6684,0.09067-0.5218-0.8292-0.1931-1.069-0.05721-0.236-0.3836-0.6315,0.0058-0.9163-0.07282-0.02517,0.1571,0.1799,0.5201-0.163,0.2614z" stroke="none" fill="#000"/>

<g stroke="#000" stroke-width="2.5">

  <path d="m153,132c12.5,4.57-3.89,18.9-1.01,3.02l1.01-3.02z" fill="#e2b79c"/>
  <path d="m159,143c3.75-14.8,4.3-37,22-37.5,11.8-8.21,24-28.9,33.6-12.5-8.42,14.9-6.51,38.3-16.2,49.7-13.1,0.372-26.2,0.397-39.3,0.329z" fill="#f7f619"/>
  <path d="m208,116c-7.63,5.52,1.76-7.48-5.58-4.46,5.29-5.55,3.34-4.48,2.85-12.3,9.67-0.866,2.61,11.9,2.73,16.7z" fill="#fb0f0c"/>
  <path d="m190,121c-3.3-8.14,9.36-10.9,2.45-1.4,10.3-2.72,1.23,7.42,1.22,12-1.71-6.15-13,6.24-5.69-5.22-8.8-3.06-5.82-13.9,2.02-5.33z" fill="#fb0f0c"/>
  <path d="m172,124c-4.53,10.9-6.59,1.15-4.46,0.482-5.19-4.65,3.89-5.93,5.25-10.1-0.766,5.93,12.4-1.23,2.66,6.12,5.88,5.49-0.222,13.1-3.46,3.53z" fill="#fb0f0c"/>
  <path d="m162,144c-8.09-9.08,7.59-0.902,2.92-9.29,7.03,6.13,4.49,3.04,12.5,0.58,2.72,11.6-8.5,8.24-15.4,8.71z" fill="#fb0f0c"/>
  <path d="m200,135c2.14,8.46-10,11.2-12.8,5.62,8.46,0.769-3.96-11,6.3-5.76-1.14-7.98,4.97-4.85,6.48,0.144z" fill="#fb0f0c"/>
  
  <g transform="translate(90,242)">
  <g id="wheel">
    <path transform="translate(-95,-242)" d="m84.3,242c-5.58,27.1,34.7,15,22.5-6.53-6-21-24.9-12-22.7,7z" fill="#c0c0c0"/>
    <animateTransform attributeName="transform" type="rotate" from="0" to="360" dur="1.5s" begin="0s" repeatCount="indefinite" additive="sum"/>
  </g>
  <use xlink:href="#wheel" transform="translate(206,0)"/>
  </g>

  <g transform="translate(200 100)">
    <g>
      <path transform="translate(-200 -100)" d="m204,84.4c0.756,1.01,1.76,1.73,3.02,2.45,1.22,0.576,2.7,1.15,4.43,1.44,0.432-4.43,1.44-9.22,3.31-14.4,1.8-5.36,4.93-11.7,7.45-16.7,2.38-5.11,4.86-10.2,6.91-13,1.8-2.77,2.95-2.63,4.86-3.74,1.94-1.26,5.58-2.41,6.88-3.6,1.19-1.3,1.19-3.28,0.576-3.85-0.756-0.648-2.56,0-4.43,0.432-2.02,0.432-6.41,2.81-6.77,2.12-0.396-0.792,3.31-4.61,4.9-6.73,1.51-2.27,4.1-4.97,4.46-6.3,0.252-1.48-0.936-2.38-2.45-1.73-1.55,0.684-4.82,3.56-6.34,5.72-1.62,1.98-2.2,6.08-2.84,6.48-0.72,0.324-1.66-1.62-1.15-4.32,0.468-2.84,2.92-9.18,3.85-12.3,0.864-3.35,1.3-6.16,1.15-7.02-0.288-0.9-1.33-0.18-2.56,1.87-1.26,2.02-3.82,8.78-4.9,10-1.15,1.01-1.55-0.144-1.73-3.02-0.36-2.92,0.756-12.1,0.288-14.1-0.576-1.91-2.41-0.36-3.17,2.3-0.792,2.56-1.12,7.74-1.55,12.8-0.54,4.86-0.972,10.4-1.44,16.6-1.44-2.23-2.74-3.82-3.74-5.29-1.04-1.51-1.91-2.84-2.59-3.17-0.828-0.36-2.2-0.072-2.3,1.3-0.144,1.33,0.288,4.5,1.44,6.44,1.15,1.84,2.74,3.28,5.18,4.46-0.468,3.1-1.48,8.32-3.31,15.8-1.8,7.52-4.28,17-7.45,29z" fill="#e2b79c"/>
      <animateTransform id="cx1" attributeName="transform" type="rotate" from="5" to="20" dur="0.5s" begin="0s;cx2.end" repeatCount="1" fill="freeze"/>
      <animateTransform id="cx2" attributeName="transform" type="rotate" from="20" to="5" dur="0.5s" begin="cx1.end" repeatCount="1" fill="freeze"/>
    </g>
  </g>

  <g transform="translate(440,238)">
    <g>
    <path transform="translate(-440,-238)" d="m440,238c-12.1-1.41-7.15-10.7,2.09-10.5-4.45-8.09,2.76-14.6,8.46-5.98-7.75-14.5,12.4-16,9.47-0.827-2.69,10.6-1.71,25.7-12.9,28.1-4.31,12-17.9-4.07-7.09-10.7z" fill="#c0c0c0"/>
    <animateTransform id="bub1" attributeName="transform" type="scale" from="0.5" to="1.2" dur="0.5s" begin="0s;bub2.end" repeatCount="1" fill="freeze"/>
    <animateTransform id="bub2" attributeName="transform" type="scale" from="1.2" to="0.5" dur="0.5s" begin="bub1.end" repeatCount="1" fill="freeze"/>
    </g>
  </g>
  
  <g transform="translate(449,266)">
    <g>
    <path transform="translate(-449,-266)" d="m449,266c-1.36-17.6,26.7-2.75,13.2,9.62-0.873,1.64-10.6,19.8-11.9,4.75,1.34-5.57-15.8-5.17-4.6-12.2l3.26-2.2z" fill="#c0c0c0"/>
    <animateTransform id="bub3" attributeName="transform" type="scale" from="0.5" to="1.3" dur="0.8s" begin="0s;bub4.end" repeatCount="1" fill="freeze"/>
    <animateTransform id="bub4" attributeName="transform" type="scale" from="1.3" to="0.5" dur="0.8s" begin="bub3.end" repeatCount="1" fill="freeze"/>
    </g>
  </g>
  
  <g transform="translate(396,258)">
    <g>
    <path transform="translate(-396,-258)" d="m396,258c-10-5.38-20.8,8.11-5.94,10.5-12.8,8.78-1.12,17.3,9.68,12.7,14.6,13.3,9.67-9.66,20.8-12.7,9.83-13.3-18-2.6-4.32-13.2,5.34-19.6-15.8-0.276-25.3-8.27-5.29,3.49,2.41,8.72,5.09,10.9z" fill="#c0c0c0"/>
    <animateTransform id="bub5" attributeName="transform" type="scale" from="0.5" to="1.2" dur="0.65s" begin="0s;bub6.end" repeatCount="1" fill="freeze"/>
    <animateTransform id="bub6" attributeName="transform" type="scale" from="1.2" to="0.5" dur="0.65s" begin="bub5.end" repeatCount="1" fill="freeze"/>
    </g>
  </g>
</g>

  <animateTransform id="bub7" attributeName="transform" type="translate" from="0 0" to="0 5" dur="0.4s" begin="0s;bub8.end" repeatCount="1" fill="freeze"/>
  <animateTransform id="bub8" attributeName="transform" type="translate" from="0 5" to="0 0" dur="0.4s" begin="bub7.end" repeatCount="1" fill="freeze"/>

</g>

</g>

</svg>