<svg xmlns="http://www.w3.org/2000/svg" xmlns:xlink="http://www.w3.org/1999/xlink" width="440" height="400">
<title>Colibri in Flight, by Marek Raida, marek.raida@gmail.com</title>
<desc>based on heavily modified clipart from http://www.openclipart.org/detail/73573</desc>
<script type="text/ecmascript" xlink:href="../fakesmile/smil.user.js"/>

<linearGradient id="gr1" gradientUnits="objectBoundingBox" x1="0" y1="0.4" x2="1" y2="0.3">
  <stop offset="0" stop-color="#f00"/>
  <stop offset="0.5" stop-color="#ffca00"/>
  <stop offset="1" stop-color="#f00"/>
</linearGradient>

<linearGradient id="gr2" gradientUnits="objectBoundingBox" x1="0" y1="0.4" x2="1" y2="0.3">
  <stop offset="0.2" stop-color="#84fc00"/>
  <stop offset="1" stop-color="#0a8800"/>
</linearGradient>

<linearGradient id="gr3" gradientUnits="objectBoundingBox" x1="0" y1="0.4" x2="1" y2="0.3">
  <stop offset="0" stop-color="#31cbd7"/>
  <stop offset="1" stop-color="#0aaa00"/>
</linearGradient> 

<g id="colibri" transform="translate(-300 -340)">

  <g transform="translate(404,173) rotate(-20)">
    <g>
      <g transform="translate(-320,-300) rotate(20)">
        <path id="rearWing" fill="#ffe300" d="m503.9,456.7c17.98,9.777,24.6-16.07,36-24.86,25.34-28.04,58.8-50.42,73.73-86.48,0.325,29.01-24.29,50.05-44.67,67.27-7.268,5.786-21,14.98-5.028,4.879,19-12.47,36.57-27.85,48.86-47.15-2.97,20.95-23.44,33.19-39.26,44.51-6.347,4.419-27.12,15.41-8.862,6.198,15.67-6.258,38.15-28.63,45.2-29.5-12.44,18.7-34.99,27.12-54.4,36.77,18.44-8.381,36.88-17.16,53.53-28.8-7.501,18.02-28.6,24.15-45.41,30.44-17.13,4.861,13.38-2.965,19.19-3.541,7.836-1.769,24.96-5.199,9.076,3.074-11.29,5.226-23.95,6.443-36.24,6.708,11.73,3.166,31.29-1.877,37.91,3.174-4.24,13.6-39.13,5.155-34.8,7.009,7.963,2.698,42.18,4.918,24.75,13.8-7.465,2.941-32.25-7.137-28.02-4.959,6.943,3.788,27.39,12.02,23.97,15.35-9.099-0.3614-39.67-21.98-18.57-7.022,9.206,4.12,24.86,25.13,5.928,11.8-7.806-5.405-24.29-22.21-8.566-6.379,6.426,5.264,22.18,27.58,6.133,13.86-6.896-5.314-24.52-23.41-9.019-7.513,6.434,4.291,19.46,28.01,4.082,13.57-6.563-5.79-21.67-23.18-8.036-7.864,7.274,6.34,16.96,24.67,2.008,10.68-5.807-4.804-20.64-21.32-6.899-6.873,6.137,5.831,18.09,25.92,4.008,12.44-5.19-4.277-22.09-24.07-8.689-9.048,5.878,5.07,19.16,27.24,4.539,13.09-13.48-15.48-25.16-32.97-42.45-44.64z"/>
      </g>
      <animateTransform id="rw1" begin="0s;rw2.end" repeatCount="1" attributeName="transform" from="1 1" to="-1 1" dur="0.02s" type="scale"/>
      <animateTransform id="rw2" begin="rw1.end" repeatCount="1" attributeName="transform" from="-1 1" to="1 1" dur="0.02s" type="scale"/>
    </g>
  </g>

  <use xlink:href="#claw" transform="translate(45,130) rotate(-6) scale(0.85)"/>
  <path id="claw" transform="translate(455,530) rotate(-20)" fill="#800f10" d="m20,53c2.4-0.8,9.3-2.9,8.8-4.2-3,1.3-6.7,1.5-8.8,4.2zm12-4.7c-1.6-2.9,1.6-9.7-2.9-10,0.024,3.5-0.47,8,2.9,10zm-29,8.6c1.5-6.1,2.9-12,4.4-18,2.6,5.2-1,10-2.5,15-0.69,0.74-0.34,6.5-1.9,3zm4-17c7.9-1.5,16-3.1,24-4.6-0.23,5.9-7.8,4.6-12,4.6-3.6-0.028-9.8,4-12,0.05zm-6.3,15c1.5-6.1,2.9-12,4.4-18,2.6,5.2-1,10-2.5,15-0.69,0.74-0.34,6.5-1.9,3zm4-17c7.9-1.5,16-3.1,24-4.6-0.23,5.9-7.8,4.5-12,4.6-3.6-0.027-9.7,4-12,0.042zm21-2.7c16-21,11-14,27-34,6,0.87,12-0.59,7,2-10,10-4,5.2-14,16-5.3,6-11,12-16,18-1.4-0.84-2.7-1.7-4.1-2.5z"/>
  <rect width="40" height="3" transform="translate(400,444) rotate(-20)" fill="black"/>
  <path id="tail" fill="url(#gr2)" d="m542.1,547.1c13.58-19.34-13.76-43.48-21.94-61.57-10.75-13.65-22.37-59.58-5.974-57.51,13.48,3.13,54.75,65.33,56.78,74.34,18.56,61.59,17.76,126.7,18.37,190.5,0.0148,13.06-1.33-15.7-2.124-21.72-3.604-33.42-4.922-68.1-18.19-99.42-5.17-11.95-17.22-17.13-26.92-24.57z"/>
  <path id="belly" fill="url(#gr1)" d="m470.7,393.7c22.83,0.688,38.75,20.3,50.1,37.98,6.565,23.72-2.782,20.04,7.327,46.9,10.36,16.13,32.07,39.57,23.27,62.7-5.885,20.07-25.48-10.7-36.67-16.22-24.01-20.37-42.85-45.99-57.47-73.74-3.051-15.39-29.3-11.31-30.93-16.48-1.714-9.465,0.6441-18.65,11.03-25.62,8.947-8.613,20.56-15.62,33.34-15.52z"/>
  <path id="lowerStripe" fill="url(#gr3)" d="m517.6,527.9c-25.1-20.79-45.46-46.78-60.44-75.67,2.324-8.316,29.89,1.936,33.68,14.06,11.03,19.58,13.76,42.94,26.76,61.61z"/>
  <path id="upperStripe" fill="url(#gr2)" d="m470.7,393.2c22.83,0.688,38.75,20.3,50.1,37.98-14.93-20.33-39.46-40.08-66.22-32.43-19.8,8.391,4.025-6.012,12.49-5.375l3.634-0.1652z"/>
  <path id="beak" transform="translate(65,-55) rotate(8)" fill="#ffe300" d="m425.9,421.7c8.925,10.77-6.599,16.93-13.94,22.36-18.02,13.62-34.58,29.07-50.25,45.31,19.58-24.19,41.39-46.52,64.19-67.67z"/>
  <circle cx="450" cy="420" r="5" stroke-width="3" fill="white" stroke="#222"/>
  <circle cx="448" cy="422" r="3" fill="#222"/>
  
  <g transform="translate(404,173) rotate(-20)">
    <g>
      <path transform="translate(-320,-300) rotate(20)" id="frontWing" fill="#ffe300" d="m726.1,350.5c-7.028,21.6-30.5,30.97-49.28,40.2-22.89,9.943-46.79,17.44-70.99,23.46,38.33-7.785,76.8-18.89,110.4-39.39-10.23,16.65-31.34,21.22-48.58,27.54-20.04,6.108-40.53,10.69-61.16,14.31,34.3-4.401,67.83-13.58,100.5-24.76-15.34,14.82-39.04,15.7-58.8,20.9-8.476,1.801-34.65,5.69-34.31,5.586,28.45-3.759,56.91-7.655,85.12-12.98-16.58,13.08-39.55,12.61-59.58,15.65-7.478,1.088-42.62,2.467-20.31,1.865,19.82-0.298,39.65-0.8826,59.47-0.2712-23.58,10.56-50.61,6.568-75.6,4.555,19.99,3.841,40.12,7.42,60.49,8.447-12.25,13.58-34.37,5.043-50.49,3.72-7.892-1.43-20.34-4.561-5.655-0.7997,14.98,4.054,29.99,8.154,44.54,13.61-15.58,10.68-36.1-2.738-51.96-7.57,10.44,5.294,30.97,14.01,31.85,21.65-13.39-1.972-33.3-14.95-40.33-18.71,8.564,6.573,33.33,20.46,28.34,26.98-9.588-1.633-30.98-21.45-28.58-18.74,6.439,6.092,23.72,22.26,18.45,24.92-7.273-3.468-26.79-21.97-23.38-18.32,8.571,5.339,25.18,33.19,6.204,17.92-6.476-4.947-22.48-22.17-9.246-7.574,7.105,6.125,15.55,24.05,0.7374,10.77-5.991-4.54-16.69-16.5-6.41-3.823,4.644,5.628,11.58,19.5,0.0574,9.134-7.023-5.185-19.4-19.57-7.604-4.726,8.723,10.02,4.219,13.73-4.837,3.619-6.033-5.303-13.17-15.3-4.705-2.806,4.774,6.504,7.834,16.87-1.442,6.712-12.62-10.96-23.96-24.79-27.58-41.48-0.4453-10.27,54.11-32.38,60.51-35.17,45.7-19.24,92.94-36.22,134.1-64.43z"/>
      <animateTransform begin="rw1.begin" repeatCount="1" attributeName="transform" from="1 1" to="-1 1" dur="0.02s" type="scale"/>
      <animateTransform begin="rw2.begin" repeatCount="1" attributeName="transform" from="-1 1" to="1 1" dur="0.02s" type="scale"/>
    </g>
  </g>

</g>
<image xlink:href="http://www.google-analytics.com/__utm.gif?utmwv=4.7.1&amp;utmn=21830374&amp;utmhn=svg.kvalitne.cz&amp;utmcs=UTF-8&amp;utmsr=1920x1080&amp;utmsc=24-bit&amp;utmul=en-us&amp;utmje=1&amp;utmfl=10.0%20r45&amp;utmdt=SVG%C2%A0%E2%80%94%C2%A0It%27s%20in%20your%20hands...&amp;utmhid=1377849700&amp;utmr=-&amp;utmp=%2Findex2.htm&amp;utmac=UA-11950721-1&amp;utmcc=__utma%3D251371972.1884550355.1260220320.1272562824.1272576758.56%3B%2B__utmz%3D251371972.1263752798.41.3.utmcsr%3Dgoogle%7Cutmccn%3D(organic)%7Cutmcmd%3Dorganic%7Cutmctr%3Dsvg%2520smil%2520demo%3B" width="1" height="1"/>
</svg>