<svg xmlns="http://www.w3.org/2000/svg" xmlns:xlink="http://www.w3.org/1999/xlink" width="816" height="460">

<g>
    <image x="-815" y="-20" width="816" height="425" xlink:href="skydiff.jpg"/>
    <image x="0" y="-20" width="816" height="425" xlink:href="skydiff.jpg"/>
    <animateTransform attributeName="transform" type="translate" dur="30s" from="0 0" to="816 0" repeatCount="indefinite" begin="0s"/>
</g>

<linearGradient id="grass" gradientUnits="objectBoundingBox" x1="0" y1="0" x2="0" y2="1">
    <stop offset="0" stop-color="#040"/>
    <stop offset="1" stop-color="green"/>
</linearGradient>

<linearGradient id="track" gradientUnits="objectBoundingBox" x1="0" y1="0" x2="0" y2="1">
    <stop offset="0" stop-color="#995141"/>
    <stop offset="1" stop-color="#5d1909"/>
</linearGradient>

<g>
    <rect x="-816" y="323" width="1632" height="50" fill="url(#grass)"/>
    <rect x="-816" y="373" width="1632" height="95" fill="url(#track)"/>
    <line x1="-816" y1="373" x2="816" y2="373" stroke="white" stroke-width="1"/>
    <line x1="-816" y1="379" x2="816" y2="379" stroke="white" stroke-width="1"/>
    <line x1="-816" y1="388" x2="816" y2="388" stroke="white" stroke-width="1"/>
    <line x1="-816" y1="405" x2="816" y2="405" stroke="white" stroke-width="1"/>
    <line x1="-816" y1="440" x2="816" y2="440" stroke="white" stroke-width="1"/>
</g>

<g>
    <g id="trees1" transform="translate(0 -48)">
        <image x="-50" y="135" width="256" height="256" xlink:href="tree8.png"/>
        <image x="50" y="150" width="256" height="256" xlink:href="tree8.png"/>
        <image x="150" y="160" width="256" height="256" xlink:href="tree8.png"/>
        <image x="300" y="140" width="256" height="256" xlink:href="tree8.png"/>
        <image x="420" y="155" width="256" height="256" xlink:href="tree8.png"/>
        <image x="520" y="160" width="256" height="256" xlink:href="tree8.png"/>
        <image x="600" y="145" width="256" height="256" xlink:href="tree8.png"/>
    </g>
    <g transform="translate(-815 -48)">
        <image x="-50" y="135" width="256" height="256" xlink:href="tree8.png"/>
        <image x="50" y="150" width="256" height="256" xlink:href="tree8.png"/>
        <image x="150" y="160" width="256" height="256" xlink:href="tree8.png"/>
        <image x="300" y="140" width="256" height="256" xlink:href="tree8.png"/>
        <image x="420" y="155" width="256" height="256" xlink:href="tree8.png"/>
        <image x="520" y="160" width="256" height="256" xlink:href="tree8.png"/>
        <image x="600" y="145" width="256" height="256" xlink:href="tree8.png"/>
    </g>
    <animateTransform attributeName="transform" type="translate" dur="5s" from="0 0" to="220 0" begin="0s;runnersOut.end" repeatCount="1" keySplines="0 .75 .5 1" calcMode="spline" fill="freeze"/>
</g>

<g>
    <line x1="285" y1="373" x2="72" y2="461" stroke="white" stroke-width="2.5"/>
    <line x1="600" y1="373" x2="570" y2="461" stroke="white" stroke-width="2.8"/>
    <image x="10" y="230" width="274" height="219" xlink:href="runners8.png"/>
    <animateTransform attributeName="transform" type="translate" dur="5s" begin="0s;runnersOut.end" from="-290 0" to="50 0" repeatCount="1" fill="freeze" id="runnersIn" keySplines="0 .75 .5 1" calcMode="spline"/>
</g>

    <g stroke="white" stroke-width="2" transform="translate(400 -100)">
      <path d="m 1.501115,3.0150871 11.445312,0 c 2.265609,2.87e-5 3.95506,0.09443 5.06836,0.2832032 1.113261,0.1888302 2.109353,0.58271 2.988281,1.1816406 0.878883,0.5989849 1.611304,1.3965101 2.197266,2.3925781 0.585912,0.9961175 0.87888,2.1126529 0.878906,3.349609 -2.6e-5,1.341166 -0.361353,2.571634 -1.083984,3.691407 -0.72268,1.119808 -1.702497,1.959651 -2.939454,2.519531 1.744769,0.507827 3.085913,1.373712 4.023438,2.597656 0.937474,1.22397 1.406223,2.66277 1.40625,4.316406 -2.7e-5,1.302091 -0.302761,2.568365 -0.908203,3.798829 -0.605494,1.230472 -1.432316,2.213543 -2.480469,2.949218 -1.048199,0.735678 -2.340516,1.188152 -3.876953,1.357422 -0.96356,0.104167 -3.287777,0.169271 -6.972656,0.195313 l -9.746094,0 z m 5.78125,4.765625 0,6.6210939 3.789062,0 c 2.25259,1.7e-5 3.652328,-0.03254 4.199219,-0.09766 0.989566,-0.11717 1.76756,-0.458967 2.333985,-1.025391 0.566386,-0.566387 0.849589,-1.311829 0.849609,-2.236328 -2e-5,-0.885395 -0.24416,-1.6047956 -0.732422,-2.1582032 -0.4883,-0.5533621 -1.214211,-0.8886483 -2.177734,-1.0058594 -0.572933,-0.06508 -2.220067,-0.097632 -4.941407,-0.097656 z m 0,11.3867189 0,7.65625 5.351562,0 c 2.083318,5e-6 3.404931,-0.05859 3.964844,-0.175781 0.859356,-0.156245 1.559225,-0.537104 2.09961,-1.142578 0.540344,-0.605462 0.810526,-1.416009 0.810546,-2.431641 -2e-5,-0.859366 -0.208354,-1.588532 -0.625,-2.1875 -0.416686,-0.598947 -1.018899,-1.035145 -1.80664,-1.308594 -0.787778,-0.273425 -2.496761,-0.410144 -5.126953,-0.410156 z"/>
      <path d="m 56.208146,31.6479 -6.289062,0 -2.5,-6.503907 -11.445313,0 -2.363281,6.503907 -6.132813,0 11.152344,-28.6328129 6.113281,0 z M 45.563615,20.319775 41.618302,9.6947746 37.751115,20.319775 z"/>
      <path d="m 59.352677,31.6479 0,-28.6328129 5.625,0 11.71875,19.1210939 0,-19.1210939 5.371094,0 0,28.6328129 -5.800781,0 -11.542969,-18.671875 0,18.671875 z"/>
      <path d="m 88.258927,31.6479 0,-28.6328129 5.625,0 11.718753,19.1210939 0,-19.1210939 5.37109,0 0,28.6328129 -5.80078,0 -11.542969,-18.671875 0,18.671875 z"/>
      <path d="m 117.10658,31.6479 0,-28.6328129 21.23047,0 0,4.84375 -15.44922,0 0,6.3476559 14.375,0 0,4.824219 -14.375,0 0,7.792969 15.9961,0 0,4.824219 z"/>
      <path d="m 143.84486,31.6479 0,-28.6328129 12.16797,0 c 3.05988,2.87e-5 5.28319,0.2571899 6.66993,0.7714844 1.38669,0.5143503 2.49672,1.4290629 3.33007,2.7441406 0.83331,1.315128 1.24998,2.8190327 1.25,4.5117189 -2e-5,2.148456 -0.63153,3.922543 -1.89453,5.322266 -1.26304,1.399753 -3.15106,2.281914 -5.66406,2.646484 1.24998,0.729178 2.28188,1.529959 3.0957,2.402344 0.81378,0.872405 1.91079,2.421882 3.29102,4.648437 l 3.49609,5.585938 -6.91406,0 -4.17969,-6.230469 c -1.48439,-2.226554 -2.50001,-3.629548 -3.04687,-4.208984 -0.54689,-0.579417 -1.12632,-0.976552 -1.73828,-1.191407 -0.612,-0.214832 -1.58205,-0.322253 -2.91016,-0.322265 l -1.17188,0 0,11.953125 z m 5.78125,-16.523438 4.27735,0 c 2.77342,1.7e-5 4.50519,-0.117171 5.19531,-0.351562 0.69009,-0.234358 1.23045,-0.638004 1.62109,-1.210938 0.39061,-0.572898 0.58592,-1.289043 0.58594,-2.148437 -2e-5,-0.963521 -0.25718,-1.7415149 -0.77148,-2.3339847 -0.51434,-0.5924248 -1.24025,-0.9667734 -2.17774,-1.1230469 -0.46876,-0.06508 -1.87501,-0.097633 -4.21875,-0.097656 l -4.51172,0 z"/>
      <path d="m 183.8058,3.0150871 10.56641,0 c 2.3828,2.87e-5 4.1992,0.1823201 5.44922,0.546875 1.67966,0.4948193 3.11847,1.3737247 4.3164,2.6367188 1.1979,1.263045 2.10935,2.8092674 2.73438,4.6386721 0.62497,1.829446 0.93747,4.085303 0.9375,6.767578 -3e-5,2.356782 -0.293,4.38803 -0.87891,6.09375 -0.71617,2.083339 -1.7383,3.769535 -3.0664,5.058594 -1.00263,0.976564 -2.3568,1.738282 -4.0625,2.285156 -1.27606,0.403646 -2.98179,0.605469 -5.11719,0.605469 l -10.87891,0 z m 5.78125,4.84375 0,18.9648439 4.31641,0 c 1.61457,5e-6 2.77993,-0.09114 3.49609,-0.273438 0.93749,-0.234369 1.71548,-0.631504 2.33399,-1.191406 0.61847,-0.559889 1.12302,-1.481112 1.51367,-2.763672 0.3906,-1.282541 0.58592,-3.030587 0.58594,-5.24414 -2e-5,-2.213526 -0.19534,-3.912743 -0.58594,-5.097657 -0.39065,-1.184875 -0.93752,-2.109353 -1.64063,-2.7734371 -0.70314,-0.6640397 -1.59507,-1.113258 -2.67578,-1.3476563 -0.8073,-0.1822679 -2.38933,-0.2734137 -4.74609,-0.2734375 z"/>
      <path d="m 212.73158,31.6479 0,-28.6328129 21.23047,0 0,4.84375 -15.44922,0 0,6.3476559 14.375,0 0,4.824219 -14.375,0 0,7.792969 15.9961,0 0,4.824219 z"/>
      <path d="m 239.37221,31.6479 0,-28.6328129 8.65234,0 5.19531,19.5312499 5.13672,-19.5312499 8.67188,0 0,28.6328129 -5.3711,0 0,-22.5390629 -5.68359,22.5390629 -5.56641,0 -5.66406,-22.5390629 0,22.5390629 z"/>
      <path d="m 271.63783,17.507275 c 0,-2.91665 0.4362,-5.364564 1.3086,-7.34375 0.65104,-1.4583108 1.53971,-2.7669032 2.66601,-3.9257816 1.1263,-1.1588276 2.36002,-2.0182018 3.70117,-2.578125 1.78385,-0.7551796 3.84114,-1.1327834 6.17188,-1.1328125 4.21873,2.91e-5 7.59438,1.3086215 10.12695,3.9257812 2.53253,2.6172101 3.7988,6.2565289 3.79883,10.9179689 -3e-5,4.622405 -1.25654,8.238938 -3.76953,10.849609 -2.51304,2.610678 -5.87242,3.916015 -10.07813,3.916016 -4.25782,-10e-7 -7.64323,-1.298827 -10.15625,-3.896484 -2.51302,-2.597651 -3.76953,-6.175121 -3.76953,-10.732422 z m 5.95703,-0.195313 c 0,3.242199 0.74869,5.699879 2.2461,7.373047 1.49738,1.673182 3.39842,2.50977 5.70312,2.509766 2.30467,4e-6 4.19595,-0.830073 5.67383,-2.490235 1.47784,-1.660147 2.21678,-4.150379 2.2168,-7.470703 -2e-5,-3.281232 -0.71943,-5.729146 -2.1582,-7.3437499 -1.43883,-1.6145599 -3.34963,-2.4218508 -5.73243,-2.421875 -2.38282,2.42e-5 -4.30339,0.8170807 -5.76172,2.4511719 -1.45834,1.634135 -2.1875,4.098325 -2.1875,7.392578 z"/>
      <path d="m 303.8644,31.6479 0,-5.488282 5.48828,0 0,5.488282 z"/>
      <path d="m 314.95815,31.6479 0,-5.488282 5.48828,0 0,5.488282 z"/>
      <path d="m 326.0519,31.6479 0,-5.488282 5.48828,0 0,5.488282 z"/>
      <animateTransform attributeName="transform" type="translate" dur="0.25s" begin="runnersIn.end" from="400 -100" to="400 240" repeatCount="1" fill="freeze"/>
      <animateTransform attributeName="transform" type="translate" dur="0.25s" begin="runnersOut.begin" from="400 240" to="400 -100" repeatCount="1" fill="freeze"/>
    </g>

<rect x="0" y="0" width="816" height="460" fill="white" fill-opacity="0" stroke="none" stroke-width="0">
    <animate attributeName="fill-opacity" dur="0.5s" begin="runnersIn.end+3s" from="0" to="1" repeatCount="1" id="runnersOut"/>
</rect>

</svg>