<svg xmlns="http://www.w3.org/2000/svg" xmlns:xlink="http://www.w3.org/1999/xlink" viewBox="0 0 600 400" width="100%" height="100%" xmlns:html="http://www.w3.org/1999/xhtml">
  <title>Starwars Intro in SVG/SMIL Experiment ver. 1.01, by Marek Raida</title>
  <script type="text/ecmascript" xlink:href="../fakesmile/smil.user.js"/>
  <pattern id="starfield" patternUnits="userSpaceOnUse" x="0" y="0" width="100" height="100">
    <circle cx="40" cy="33" r="0.6" fill="#777"/>
    <circle cx="30" cy="6" r="0.5" fill="#888"/>
    <circle cx="80" cy="22" r="0.8" fill="#666"/>
    <circle cx="61" cy="93" r="0.9" fill="#888"/>
    <circle cx="77" cy="77" r="0.8" fill="#777"/>
    <circle cx="14" cy="60" r="0.7" fill="#666"/>
    <circle cx="90" cy="50" r="0.8" fill="#666"/>
  </pattern>

  <linearGradient id="toMoon" gradientUnits="objectBoundingBox" x1="0" y1="0" x2="1" y2="0.8">
    <stop offset="0" stop-color="#97825f"/>
    <stop offset="0.7" stop-color="#3b220d"/>
    <stop offset="1" stop-color="#000"/>
  </linearGradient>

  <radialGradient id="toPlanet" gradientUnits="objectBoundingBox" cx="0.5" cy="0.5">
    <stop offset="0" stop-color="navy"/>
    <stop offset="0.92" stop-color="#24492e"/>
    <stop offset="0.93" stop-color="#eee"/>
    <stop offset="0.98" stop-color="#333"/>
    <stop offset="1" stop-color="#000"/>
  </radialGradient>

  <radialGradient id="toCont" gradientUnits="objectBoundingBox" cx="0.5" cy="0.5">
    <stop offset="0" stop-color="#24492e"/>
    <stop offset="0.8" stop-color="#14291e"/>
  </radialGradient>

  <!-- background -->
  <rect width="100%" height="100%"/>
  <g>
    <rect width="100%" height="200%" fill="url(#starfield)"/>
    <g display="none">
      <set attributeName="display" to="block" begin="showPlanet.begin"/>
      <circle cx="0" cy="720" r="250" fill="url(#toPlanet)"/>
      <circle cx="200" cy="490" r="20" fill="url(#toMoon)"/>
      <path  stroke="none" transform="translate(-110 270) scale(1.3)" stroke-width="0" fill="url(#toCont)" d="m106,226c4-1,7-3,11-4,0-2,3-4,2-3,0-1,6-2,7-1,3,2,8,2,7-3,3-3,6-4,10-5,6-1,3,9,7,9,2,2,7,2,9,5,1,4,3,8,5,12,2,5-5,5-6,9-2,2-2,6-5,5-2,1-5,1-5,5,0,5,0,9-5,11s-8,6-11,10c-3,2-2,5-2,8v8c-3,0-2,4-6,3h-8c-2-4-4-8-7-12s-5-9-7-13c-4.2-7-6-15-6.8-22-0.8-5-1.6-11,2-15,1.9-3,3.8-8,8.8-7z"/>
    </g>
    <animateTransform id="showPlanet" attributeName="transform" type="translate" from="0 0" to="0 -200" dur="5s" begin="textFadeOff.end" repeatCount="1" fill="freeze"/>
  </g>

  <text font-size="34px" font-family="sans-serif" stroke-width="0" stroke="none" fill="rgb(55,203,218)" y="50%" x="20">
    A long time ago in a galaxy far,<tspan x="20" dy="33">far away...</tspan>
   <animate id="faraway" attributeName="fill-opacity" begin="0s" dur="6" values="0;1;1;1;0" repeatCount="1" fill="freeze"/>
  </text>

  <g id="logo" transform="translate(317 200)" display="none">
      <g>
        <g>
          <g>
            <g id="logo" fill="#FFE81F" transform="translate(-370 -210)">
              <path d="M148.72,221.21l8.67,25.461c4.691,13.768,8.879,24.779,9.425,24.779,0.009,0,0.017-0.004,0.024-0.01,0.6-0.53,17.57-49.811,17.57-49.811h32.89l-39.68,115.62h-22.86s-24.4-70.471-24.3-70.739l-25.47,69.851h-22.63l-39.18-115.15,32.73,0.021s17.929,50.821,18.168,50.821c0.001,0,0.001-0.001,0.002-0.002l17.89-50.841h36.748m-116.72-8.01l3.601,10.584,39.18,115.15,1.845,5.424h33.957l1.918-5.26,17.685-48.5c1.524,4.434,3.171,9.213,4.818,13.988,6.089,17.655,12.191,35.277,12.191,35.277l1.864,5.383h34.268l1.854-5.403,39.68-115.62,3.637-10.598h-49.8l-1.858,5.396c-2.974,8.635-6.921,20.031-10.296,29.676-0.509-1.463-1.039-3.001-1.587-4.611l-8.669-25.46-1.846-5.421h-48.143l-1.881,5.345-10.453,29.706c-3.453-9.706-7.456-21.017-10.516-29.691l-1.882-5.334-5.657-0.004-32.73-0.021-11.169-0.03z"/>
              <path d="M655.26,220.76l-0.075,30.305s-32.643-0.109-49.239-0.109c-5.521,0-9.266,0.013-9.444,0.045-2.86,0.521-4.681,6.602-3.87,9.271,0.399,1.35,3.391,5.76,6.63,9.81,3.229,4.051,8.54,10.681,11.78,14.729,8.319,10.381,9.46,12.43,10.229,18.391,1.25,9.681-3.329,20.16-11.829,27.07-8.518,6.93-8.145,6.979-71.383,6.979h-2.777c-38.46-0.01-58.8-0.329-61.761-0.989-5.26-1.19-13.64-8.03-35.79-29.28-7.967-7.636-15.309-14.322-15.686-14.324-0.01,0-0.015,0.006-0.015,0.016l-0.261,44.579-35.899-0.159-0.221-114.98h80.061c24.13,0.871,40.46,24.91,37.21,40.24-0.74,3.479-2.62,8.521-4.181,11.2-3.21,5.5-11.38,12.56-18.011,15.591-2.449,1.108-4.449,2.398-4.449,2.858,0,1.71,8.061,9.649,11.08,10.91,2.579,1.079,10.09,1.319,43.21,1.319,3.882,0,7.408,0.002,10.608,0.002,33.293,0,31.618-0.24,34.19-5.741,1.801-3.83,0.431-6.12-12.239-20.39-16.051-15.971-14.37-23.621-14.48-29.271-0.229-6.77,5.102-28.069,32.812-28.069l73.81-0.01m-215.07,53.12c15.37,0,18.49-0.239,21.761-1.66,11.04-4.8,11.63-18.979,1.04-25.271-2.319-1.381-5.3-1.609-21.96-1.7l-19.279-0.101c0.159,0.15-0.061,27.57-0.061,27.57s4.83,1.16,18.5,1.16m223.09-61.12h-81.821c-16.032,0-25.515,6.328-30.646,11.637-8.347,8.633-10.313,19.504-10.162,24.629,0.008,0.427,0.003,0.865-0.002,1.322-0.073,8.329,1.154,17.758,16.659,33.246,3.065,3.452,8.193,9.239,10.131,12.115-4.238,0.521-14.98,0.521-26.262,0.521h-4.792l-5.816-0.002c-19.904,0-36.688-0.057-40.128-0.736-0.481-0.314-1.156-0.854-1.898-1.498,6.877-4.235,13.83-10.799,17.104-16.412,1.987-3.413,4.178-9.243,5.098-13.568,2.04-9.625-1.325-21.236-9.001-31.068-8.956-11.471-21.985-18.334-35.746-18.83l-0.145-0.006h-88.222l0.016,8.017,0.221,114.98,0.016,7.949,7.949,0.035,35.899,0.159,7.988,0.035,0.047-7.988,0.155-26.706c0.733,0.696,1.491,1.419,2.269,2.165,24.227,23.24,32.359,29.679,39.562,31.308,1.979,0.441,5.253,1.172,63.523,1.188h2.779c31.546,0,47.38,0,56.799-0.91,10.789-1.043,14.259-3.49,19.461-7.725l0.173-0.141c10.685-8.687,16.323-21.83,14.715-34.3-1.048-8.11-3.194-11.479-11.922-22.368l-2.594-3.24c-3.04-3.799-6.713-8.387-9.175-11.475-1.986-2.484-3.546-4.689-4.487-6.133,1.236-0.003,2.841-0.005,4.918-0.005,16.395,0,48.887,0.108,49.213,0.11l8.008,0.026,0.02-8.008,0.075-30.306,0.02-8.02zm-233.54,52.83c0.013-2.021,0.025-4.287,0.038-6.557,0.01-2,0.019-4.004,0.022-5.84l11.187,0.058c6.429,0.035,16.103,0.088,17.989,0.623,2.407,1.461,3.75,3.72,3.604,6.06-0.08,1.264-0.682,3.588-3.821,4.951-1.75,0.76-4.54,0.997-18.57,0.997-4.45,0-7.89-0.13-10.45-0.29z"/>
              <path d="M312.91,220.29l40.29,115.92-32.83,0.15-5.45-17.41-58.7-0.471-5.18,17.431-32.5-0.341,39.78-115.23,54.59-0.05m-26.4,16.99c-0.083,0.333-5.144,14.219-10.222,28.104-5.12,14-10.257,28-10.328,28.109,0,0.001-0.001,0.001,0,0.001v-0.001c0.136-0.04,18.316-0.08,29.968-0.08,5.453,0,9.475,0.009,9.55,0.029,0.001,0.004,0.001,0.005,0.001,0.005s0-0.001,0-0.003l-0.001-0.002c-0.21-0.52-18.91-55.48-18.97-56.16,0.001-0.004,0.001-0.006,0.001-0.006v0.01m32.09-25l-5.693,0.005-54.59,0.051-5.696,0.005-1.859,5.386-39.78,115.23-3.623,10.494,11.102,0.115,32.5,0.341,6.033,0.063,1.719-5.782,3.466-11.662,46.854,0.375,3.708,11.848,1.765,5.638,5.907-0.026,32.829-0.15,11.195-0.052-3.676-10.574-40.29-115.92-1.87-5.39zm-41.13,73.14c1.515-4.129,3.556-9.71,6.327-17.289,0.869-2.376,1.664-4.551,2.393-6.545,0.663,1.956,1.385,4.084,2.169,6.398,0.646,1.906,3.485,10.27,5.92,17.428-7.24,0.01-12.69,0.01-16.81,0.01z"/>
              <path d="M326.49,81.928v28.6h-57.28v87.47h-34.15v-87.54l-66.86,0.19c-8.06,0-9.14,6.42-9.14,8.88,0,3.02,1.97,6.04,12.79,19.74,7.02,8.9,13.47,17.78,14.32,19.72,4.64,10.68-1.36,27.32-12.29,34.08-7.79,4.813-6.459,4.931-64.308,4.931h-9.392-62.27v-32.13h97.9l2.89-2.01c1.95-1.36,3.08-3.23,3.51-5.79,0.6-3.68,0.29-4.16-11.8-17.78-14.29-16.1-15.8-19.04-15.06-29.32,0.84-11.73,11.3-28.77,29.58-28.77l181.56-0.272m8-8.012l-8.013,0.012-181.56,0.27c-10.458,0-20.171,4.518-27.342,12.722-5.814,6.652-9.63,15.429-10.206,23.477-0.973,13.511,2.137,18.393,17.056,35.202,4.33,4.877,8.447,9.516,9.821,11.486-0.022,0.079-0.042,0.13-0.054,0.159-0.015,0.012-0.038,0.03-0.07,0.052l-0.822,0.572h-103.4v48.13h79.662c28.522,0,42.6-0.027,50.894-0.635,9.49-0.695,12.518-2.323,17.054-5.14l0.566-0.351c14.262-8.821,21.612-29.827,15.422-44.074-1.91-4.358-14.003-19.746-15.376-21.486-3.796-4.807-10.062-12.74-11.054-15.036,0.024-0.193,0.071-0.393,0.121-0.532,0.165-0.042,0.481-0.098,1.001-0.098l58.86-0.167v87.517h50.15v-87.47h57.28v-44.604z"/>
              <path d="M419.55,82.857l40.18,116.22-32.77-0.18-5.32-17.41-58.439-0.26-5.221,16.77h-33.369l39.739-115.14h55.198m-46.808,73.62l39.801-0.05c0.001,0,0.001,0.001,0.001,0.001,0.136,0-19.342-57.201-19.472-57.241-0.15-0.006-20.78,57.291-20.33,57.291m52.51-81.623h-66.6l-1.86,5.39-39.74,115.14-3.662,10.61h50.484l1.75-5.623,3.461-11.121,46.632,0.207,3.599,11.774,1.721,5.629,5.887,0.033,32.77,0.18,11.297,0.062-3.691-10.676-40.18-116.22-1.88-5.383zm-41.4,73.603c2.468-7.027,5.904-16.657,9.014-25.312,2.948,8.644,6.209,18.245,8.588,25.29l-17.6,0.02z"/>
              <path d="M532.4,82.857c25.921,0,43.91,0.37,47.37,0.97,8,1.39,15.23,5.66,20.65,12.22,5.67,6.86,6.97,10.14,7.71,19.54,1.061,13.27-5.25,24.72-17.7,32.15-3.63,2.17-7.359,4.28-8.29,4.7-1.43,0.65-1.239,1.27,1.32,4.27,1.649,1.93,4.51,4.68,6.35,6.11l3.36,2.61,62.08,0.89,0.609,31.68h-38.061c-29.439,0-38.86-0.27-41.62-1.2-4.13-1.4-14.069-9.82-34.271-29.04l-14.42-13.72,0.152,43.96h-37.043v-115.14h41.796m-5.456,51.773h19.671c19.141,0,19.739-0.06,22.47-2.11,4.881-3.66,6.609-7.43,6.091-13.22-0.53-5.97-2.83-9.08-8.601-11.58-3.25-1.42-6.381-1.65-21.721-1.65h-17.91v28.557m5.46-59.77h-49.8v131.14h53.071l-0.028-8.028-0.088-25.216,0.84,0.799c24.986,23.773,32.356,29.173,37.218,30.821,3.733,1.259,9.982,1.624,44.188,1.624h46.215l-0.156-8.154-0.609-31.68-0.148-7.734-7.734-0.111-59.402-0.851-1.245-0.967c-0.396-0.309-0.876-0.717-1.389-1.179,0.446-0.264,0.854-0.507,1.207-0.717,15.003-8.953,22.866-23.407,21.569-39.653-0.863-10.959-2.82-15.896-9.52-24-6.584-7.969-15.621-13.298-25.447-15.005-5.46-0.946-32.88-1.088-48.74-1.088zm2.54,39.213h9.91c14.027,0,16.806,0.233,18.518,0.981,3.25,1.408,3.58,2.091,3.835,4.957,0.256,2.848-0.097,3.994-2.922,6.112-0.093,0.069-0.164,0.123-0.223,0.166-1.865,0.345-8.786,0.345-17.447,0.345h-11.67v-12.57z"/>
              <animate attributeName="fill" begin="titleAgain.end" dur="5s" values="#FFE81F;#F00;#FFE81F" repeatCount="indefinite"/>
            </g>
            <animateTransform id="title" attributeName="transform" type="scale" values="2;0.001" dur="10s" begin="faraway.end" repeatCount="1" additive="sum"/>
          </g>
          <animateTransform id="titleAgain" attributeName="transform" type="scale" values="0.001;0.6" dur="3s" begin="showPlanet.end" repeatCount="1" fill="freeze" additive="sum"/>
        </g>
        <animateTransform attributeName="transform" type="rotate" by="360" dur="1.5s" begin="titleAgain.begin" repeatCount="2"/>
      </g>
    <set attributeName="display" to="block" begin="title.begin;titleAgain.begin"/>
    <set attributeName="display" to="none" begin="title.end"/>
  </g>

  <g id="scrollingText" font-size="44px" font-family="sans-serif" font-weight="bold" stroke-width="0" stroke="none" fill="rgb(252,223,43)" text-anchor="middle" transform="skewX(26)">

    <g>
      <text x="300" y="450">Episode Z: Again?<animateTransform id="ln1" attributeName="transform" type="scale" values="1 1;0.4 0.05" dur="20s" begin="title.end" repeatCount="1" fill="freeze"/></text>
      <set attributeName="display" to="none" begin="ln1.end"/>
    </g>
    
    <g>
      <text x="290" y="450">Starwars intro SVG experiment<animateTransform id="ln2" attributeName="transform" type="scale" values="1 1;0.4 0.05" dur="20s" begin="ln1.begin+3s" repeatCount="1" fill="freeze"/></text>
      <animateTransform attributeName="transform" type="translate" by="0 -40" dur="20s" begin="ln2.begin" repeatCount="1" fill="freeze"/>
      <set attributeName="display" to="none" begin="ln2.end"/>
    </g>

    <g>
      <text x="280" y="450">using pure 2D to create 2.5D<animateTransform id="ln3" attributeName="transform" type="scale" values="1 1;0.4 0.05" dur="20s" begin="ln2.begin+2s" repeatCount="1" fill="freeze"/></text>
      <animateTransform attributeName="transform" type="translate" by="0 -86" dur="20s" begin="ln3.begin" repeatCount="1" fill="freeze"/>
      <set attributeName="display" to="none" begin="ln3.end"/>
    </g>

    <g>
      <text x="260" y="450">and SMIL to animate it...<animateTransform id="ln4" attributeName="transform" type="scale" values="1 1;0.4 0.05" dur="20s" begin="ln3.begin+2s" repeatCount="1" fill="freeze"/></text>
      <animateTransform attributeName="transform" type="translate" by="0 -139" dur="20s" begin="ln4.begin" repeatCount="1" fill="freeze"/>
      <set attributeName="display" to="none" begin="ln4.end"/>
    </g>

    <g>
      <text x="230" y="450">How do you like it?<animateTransform id="ln5" attributeName="transform" type="scale" values="1 1;0.4 0.05" dur="20s" begin="ln4.begin+2.5s" repeatCount="1" fill="freeze"/></text>
      <animateTransform attributeName="transform" type="translate" by="0 -186" dur="20s" begin="ln5.begin" repeatCount="1" fill="freeze"/>
      <set attributeName="display" to="none" begin="ln5.end"/>
    </g>

    <animate id="textFadeOff" attributeName="fill-opacity" begin="ln5.begin+11.5s" dur="1" values="1;0" repeatCount="1" fill="freeze"/>
  </g>

  <rect width="400" height="800" x="-400" fill="white"/>
  <rect width="400" height="800" x="600" fill="white"/>

  <html:audio preload="true" id="music">
    <html:source src="starwars.ogg" type="audio/ogg"/>
    <html:source src="starwars.mp3" type="audio/mpeg"/>
  </html:audio>

  <script type="text/javascript">window.setTimeout('document.getElementById("music").play()', 6000);</script>
<image xlink:href="http://www.google-analytics.com/__utm.gif?utmwv=4.7.1&amp;utmn=21830374&amp;utmhn=svg.kvalitne.cz&amp;utmcs=UTF-8&amp;utmsr=1920x1080&amp;utmsc=24-bit&amp;utmul=en-us&amp;utmje=1&amp;utmfl=10.0%20r45&amp;utmdt=SVG%C2%A0%E2%80%94%C2%A0It%27s%20in%20your%20hands...&amp;utmhid=1377849700&amp;utmr=-&amp;utmp=%2Findex2.htm&amp;utmac=UA-11950721-1&amp;utmcc=__utma%3D251371972.1884550355.1260220320.1272562824.1272576758.56%3B%2B__utmz%3D251371972.1263752798.41.3.utmcsr%3Dgoogle%7Cutmccn%3D(organic)%7Cutmcmd%3Dorganic%7Cutmctr%3Dsvg%2520smil%2520demo%3B" width="1" height="1"/>
</svg>