<svg xmlns="http://www.w3.org/2000/svg" xmlns:xlink="http://www.w3.org/1999/xlink">
<title>Fancy SVG Menu 1.0, by Marek Raida, cliparts taken from openclipart.org</title>
<script type="text/ecmascript" xlink:href="../fakesmile/smil.user.js"/>
<defs>
  <linearGradient id="grad" gradientUnits="objectBoundingBox" x1="0" y1="0" x2="1" y2="0">
    <stop offset="0.15" stop-color="white"/>
    <stop offset="1" stop-color="black"/>
  </linearGradient>

  <mask id="fadeOffMask" maskUnits="userSpaceOnUse">
      <rect width="50%" height="100%" fill="url(#grad)"/>
  </mask>

  <filter id="glow" height="150%" y="-25%">
      <feFlood flood-color="#0cf" />
      <feComposite in2="SourceAlpha" operator="in" />
      <feGaussianBlur stdDeviation="7" />
      <feMerge>
          <feMergeNode />
          <feMergeNode in="SourceGraphic" />
      </feMerge>
  </filter>

  <path id="track" d="m 610,225.36218 a 304.5,221 0 1 1 -609,0 304.5,221 0 1 1 609,0 z" fill="none" stroke="none"/>

<g id="rotatingCircle">
  <use xlink:href="#glowingCircle" transform="translate(0 15)" opacity="0.1">
  <set attributeName="display" to="block" begin="butReflectOn.click"/>
  <set attributeName="display" to="none" begin="butReflectOff.click"/>
  </use>
  <g transform="translate(400 200) scale(4 1.5)" id="glowingCircle">
    <g>
      <g id="quarter">
        <rect x="-3" y="0" width="6" height="25" rx="2" fill="white" id="rod" stroke="#0cf" stroke-width="2.1" stroke-opacity="0.5"/>
        <use xlink:href="#rod" transform="rotate(22.5 0 50)"/>
        <use xlink:href="#rod" transform="rotate(45 0 50)"/>
        <use xlink:href="#rod" transform="rotate(67.5 0 50)"/>
      </g>
      <use xlink:href="#quarter" transform="rotate(90 0 50)"/>
      <use xlink:href="#quarter" transform="rotate(180 0 50)"/>
      <use xlink:href="#quarter" transform="rotate(270 0 50)"/>
  
      <animateTransform attributeName="transform" type="rotate" dur="30s" from="0 0 50" to="360 0 50" repeatCount="indefinite"/>
    </g>
  </g>
</g>

</defs>

<rect x="0" y="0" width="100%" height="100%" fill="black"/>

<g>
<g>
  <animateTransform attributeName="transform" type="scale" begin="0s" dur="30s" values="1;0.5;1" repeatCount="indefinite"/>

  <use xlink:href="#rotatingCircle"/>
  <g transform="translate(270 90) scale(0.8)" filter="url(#glow)">
    <set attributeName="filter" to="url(#glow)" begin="butGlowOn.click"/>
    <set attributeName="filter" to="none" begin="butGlowOff.click"/>
    <path d="M246.643,55.497c-22.229-22.015-51.845-34.145-83.389-34.145c-31.514,0-61.027,12.13-83.124,34.155  c-22.107,22.036-34.278,51.519-34.278,83.001c0,31.534,12.171,61.149,34.268,83.39c22.138,22.28,51.662,34.543,83.134,34.543  c31.503,0,61.118-12.263,83.389-34.543c22.281-22.271,34.543-51.887,34.543-83.39C281.186,107.056,268.913,77.573,246.643,55.497z   M163.336,216.204c-21.353,0-41.583-9.028-55.987-24.893l130.215-68.881c0.285,0.745,0.459,1.357,0.602,2.081  c1.061,5.356,1.602,10.926,1.602,16.537C239.767,183.191,206.192,216.204,163.336,216.204z M163.131,62.791  c20.68,0.071,41.246,9.049,56.916,24.739L89.016,156.575c-1.02-5.458-1.949-11.119-1.765-17.313v-0.081  C87.251,97.058,121.284,62.791,163.131,62.791z"/>
    <path fill="#FF0000" d="M163.258,23.902c-63.723,0-114.858,50.887-114.858,114.609c0,63.724,51.134,115.38,114.858,115.38  c63.721,0,115.379-51.656,115.379-115.38C278.637,74.788,226.979,23.902,163.258,23.902z M163.339,218.756  c-24.619,0-46.473-11.413-60.855-29.195c-6.86-8.482-12.368-18.208-15.317-29.04c-1.254-6.694-2.699-13.538-2.465-21.339  c0-43.666,34.76-78.936,78.425-78.936c25.036,0.085,46.546,12.242,61.125,27.97c7.032,8.632,11.564,19.216,14.58,30.732  c1.021,2.21,1.51,3.423,1.836,5.065c1.083,5.453,1.653,11.146,1.653,17.035C242.32,184.715,207.003,218.756,163.339,218.756z"/>
    <path fill="#FFFFFF" d="M165.465,217.48c-28.32,0.452-50.642-15.52-49.614-16.206c3.094-2.064,8.56-5.794,10.932-8.362  c1.526-1.645,3.763-3.619,5.016-5.356c0.785-1.088,2.68-3.424,3.23-4.08c-0.479-1.186-10.272-7.56-10.272-7.56  c-17.792-12.263-19.718-26.504-21.311-29.594l-1.201-3.505c-0.949,0.124-7.553,1.286-8.618,1.656  c-2.738,0.956-5.293,2.951-9.691,5.547c-9.692,6.121-19.256,6.695-19.256,6.695s2.592,7.508,2.582,8.225  c-0.007,0.855,0.009,3.269-3.97,3.292c-4.148,0-7.796-3.535-10.472-7.117c-1.929-2.58-4.008-5.061-6.695-6.567  c-1.984,0.913-8.488-1.672-12.752-4.081c-2.772-1.566-3.312-2.156-3.89-2.55c-1.212-0.828-4.774,0.299-5.472,0.472  c-3.124,0.77-5.186,1.275-6.874,1.275c-1.763,0-3.089-1.411-3.074-2.097c0.029-1.201,0.342-3.178,2.66-5.33  c1.13-1.05,2.95-1.935,3.706-2.864c0.021-0.055,1.549-3.069,1.58-3.138c-0.007-0.001,0.223-0.889-0.114-1.135  c-1.037-0.755-4.976-0.49-9.812-0.49c-0.682,0-1.339,0.008-1.951,0.015c-0.531,0.006-1.027,0.012-1.468,0.012  c-2.506,0-2.081-1.244-2.263-1.959c-0.459-1.784,1.176-4.154,2.55-4.91c0.69-0.388,2.66-1.622,5.101-3.061  c2.408-1.419,6.036-3.391,6.695-3.762c0.233-0.689-2.372-3.333-4.629-4.701c-0.834-0.506-2.032-1.026-3.297-1.576  c-3.21-1.398-5.814-2.738-5.719-4.817c0.083-1.804,1.053-2.806,5.271-2.806l2.784,0.173c7.639,0.115,26.514,12.398,27.502,13.047  c3.329,2.191,14.352,7.725,14.352,7.725s2.704-1.688,7.857-5.387c1.895-1.359,6.31-3.915,7.651-5.037  c2.825-2.347,10.887-8.925,13.772-13.199c3.571-6.503,10.362-10.122,13.262-11.477c-0.112-0.268-7-12.264-6.121-19.064  c1.195-9.287,5.469-14.398,11.286-20.148c1.67-1.649,4.195-4.605,5.802-6.376c3.2-3.54,5.885-8.662,7.843-12.943  c2.466-5.388,4.96-10.289,9.883-14.346c4.255-3.45,7.087-4.398,11.35-4.973c0.992-0.125,5.636-0.764,7.523-1.084  c-0.323-0.296,0.957-2.933,3.571-4.081c7.906-4.336,14.082-5.037,14.282-5.037c5.659,0,7.41,1.519,8.672,4.591  c0.649,1.585,1.621,5.181,3.06,6.886c1.867,2.215,2.711,3.156,3.953,3.061c0.829-0.064,1.952-1.338,2.232-1.403  c1.912-0.446,5.428-1.354,5.865-0.638c0.907,1.487-0.817,6.848-3.634,8.098c-2.082,0.928-6.483,0.765-9.692,0.765  c0,0-4.515,1.77-5.27,2.933c-0.447,0.685,1.27,3.786,1.402,7.502c0.073,2.164-0.552,4.842-0.787,6.365  c-0.245,1.593-0.588,2.24-0.638,5.579c-0.09,5.593,5.306,16.69,7.46,21.296c2.385,5.092,1.881,10.138,1.881,10.138  s15.489,0.23,22.965,4.217c6.126,3.277,9.364,4.661,12.009,7.77c2.644,3.109,8.422,19.388,8.422,19.388l13.325,8.032  c0.671,0.348,3.312,3.27,3.991,5.735c2.646-0.138,4.878-1.538,6.63-0.762c2.407,1.066,4.332,1.853,4.592,1.783  c1.997-0.54,7.19-2.37,11.902-4.676c3.041-1.487,6.677-3.078,7.906-3.57c3.375-1.35,9.813-3.23,12.883-3.23  c0.137,0,3.865,1.369,3.865,3.995c0,2.063-2.753,3.089-8.076,6.716c-2.451,1.669-5.777,3.792-7.227,5.186  c-4.07,3.924-5.018,5.527-4.799,7.588c0.128,1.145,3.011,1.537,4.97,2.273c1.368,0.513,3.877,1.152,6.29,1.786  c3.479,0.912,8.1,2.351,10.117,3.315c1.14,0.545,5.957,3.75,5.695,6.545c-0.293,3.372-2.859,4.251-5.865,4.251  c-2.988,0-6.828-1.412-9.267-2.04c-1.861-0.48-5.526-0.426-5.526-0.426c-2.441,0.049-5.183-0.39-4.525,1.561  c0.082,0.242,0,0,0.13,0.214c1.376,2.298,5.287,5.854,6.956,7.375c0.293,0.268,0.53,0.482,0.691,0.633  c0.856,0.805,2.296,3.965,1.679,5.521c-0.255,0.649-2.226,2.041-4.336,2.041c-2.999,0-10.229-5.556-11.392-6.461  c-3.363-2.627-7.448-6.7-11.817-6.801c-0.137-0.003-13.262,3.401-13.262,3.401c-0.215,0.697-3.82,12.874-11.393,23.889  C216.729,200.223,193.784,217.028,165.465,217.48z"/>
    <path d="M237.098,161.115c-8.723,32.096-38.001,55.089-73.762,55.089c-21.353,0-41.583-9.028-55.987-24.893l131.175-69.374  l0.113-3.704c-3.015-11.238-7.5-21.565-14.386-30.018c-12.531-13.519-30.182-24.399-50.793-27.243c-0.003,0-0.007,0-0.01-0.001  l1.299,2.79c16.62,2.713,32.574,11.028,45.3,23.77L89.016,156.575c-0.536-2.871-1.048-5.8-1.385-8.831  c0-0.004-0.001-0.009-0.001-0.013l-2.394,1.483c0.001,0.008,0.001,0.015,0.002,0.022c0.495,3.895,1.24,7.611,1.928,11.283  c2.949,10.832,8.457,20.558,15.317,29.04c14.382,17.782,36.237,29.195,60.855,29.195c36.696,0,67.488-24.047,76.384-57.641H237.098z  "/>
    <path d="M139.28,83.242c0.006,2.955-1.416,6.729-3.996,6.78c-1.849,0.002-4.011-2.888-3.868-6.62  c0.145-3.731,1.764-6.621,3.953-6.621C137.771,76.78,139.272,79.946,139.28,83.242z"/>
    <path d="M133.525,100.335c-1.419-0.048-2.615-1.406-3.571-1.642c-0.159,0.127,2.55,3.778,5.787,3.778  c3.698,0,5.276-3.794,4.559-4.703c-0.391-0.495-0.582,0.784-1.626,1.626c-0.749,0.604-1.96,0.925-3.465,1.004  C134.545,100.44,134.179,100.383,133.525,100.335z"/>
    <path d="M134.322,62.684c-0.191,0.208,1.689,4.049,4.495,4.049c2.885,0,4.368-3.507,3.586-4.559  c-0.891-0.716-0.521,2.005-3.857,2.279C136.028,64.661,134.609,62.397,134.322,62.684z"/>
    <path d="M135.938,38.742c-0.382-1.047-1.404-1.787-2.417-1.77c-1.871,0.033-3.834,1.719-3.815,4.718  c0,1.881,0.889,4.067,2.245,4.202c2.287,0.227,2.758-0.821,2.828-2.305c0.033-0.695-0.229-1.328-0.465-1.897  c-0.264-0.633-0.704-1.524-0.601-1.871c0.074-0.25,0.419-0.19,0.872-0.092c0.669,0.146,1.514,0.904,1.637,0.857  C136.342,40.539,136.32,39.789,135.938,38.742z"/>
    <path d="M153.594,41.92c-0.198-0.517-0.705-2.149-2.072-2.232c-1.578-0.096-3.491,1.546-3.905,4.559  c-0.416,3.022,0.208,3.714,1.929,4.049c1.386,0.27,2.238-0.126,2.248-1.355s0.071-2.839,0.223-3.092  c0.151-0.254,0.521-0.363,0.766-0.303c0.245,0.06,0.461,0.517,0.956,0.485C154.235,43.999,153.792,42.436,153.594,41.92z"/>
    <path d="M129.508,33.625c2.216,0.653,1.387-2.391,3.427-4.065c0.924-0.988,2.264-1.546,2.439-2.231  c0.175-0.686-2.487,0.59-3.443,1.514C130.656,29.975,127.962,33.291,129.508,33.625z"/>
    <path d="M151.347,28.827c-0.702,0.622-0.147,1.156,0.494,1.53c0.577,0.175,1.678,0.888,2.662,1.993  c1.495,1.566,2.247,3.013,2.614,2.853c0.295-0.111-0.574-2.024-1.371-3.586C154.901,29.943,152.797,27.664,151.347,28.827z"/>
    <path d="M13.575,105.962c-4.12,0-7.302,0.846-7.428,3.507c-0.127,2.933,4.354,5.098,7.737,6.503  c1.269,0.527,4.919,3.106,5.653,4.293c-2.754,1.72-11.637,6.96-13.263,8.459c-1.625,1.499-1.509,3.295-0.924,4.654  c0.584,1.36,1.855,2.604,5.033,2.604c0.447,0,2.744-0.018,3.426-0.018c5.8,0,6.098,0.105,6.599,0.291  c-0.005,1.475-0.299,2.314-0.935,2.956c-0.565,0.571-1.68,1.139-2.327,1.785c-2.681,2.677-4.233,4.591-4.272,6.249  c-0.026,1.142,0.97,2.193,1.658,2.71c0.688,0.516,2.285,0.903,4.285,0.903c2.333,0,5.36-1.192,10.11-2.307  c0.458,0.185,1.652,0.729,4.474,2.328c5.099,2.885,8.893,5.445,12.17,5.445c0.31,0,1.106-0.229,1.361-0.44  c3.512,3.156,5.681,6.849,6.61,7.778c0.887,1.132,3.05,2.973,4.123,3.783c2.757,2.402,5.386,2.003,6.015,1.934  c0.629-0.068,2.545-0.257,3.571-1.084c0.811-0.653,1.165-1.811,1.211-2.806c0.085-1.763-1.23-4.01-1.998-5.844  c-0.362-0.863-0.531-1.721-0.531-1.721s2.544-0.36,5.058-1.063c2.515-0.702,7.884-2.05,14.346-6.546  c8.448-5.876,13.424-6.22,15.785-6.465c0.498,1.386,2.437,6.771,2.71,7.318c0.314,0.629,2.426-1.766,2.426-1.766l-2.706-6.061  c1.249-0.133,2.173-0.164,3.448-0.085c1.259-0.318,1.352-1.015,1.036-1.195c-0.626-0.357-3.859-0.475-7.44-0.068  c-2.023,0.229-4.282,0.64-5.934,1.232c-2.66,0.927-5.532,2.431-10.138,5.148c-2.712,1.6-5.646,3.223-8.475,4.385  c-4.957,2.037-9.357,3.102-10.223,3.102c-1.36,0,0.808-2.358,0.808-2.358s0.233-1.105,0.063-1.53  c-0.143-0.117-0.354-0.236-0.616-0.128c-0.459,0.189-1.056,0.827-1.578,1.6c-0.523,0.771-1.098,1.7-1.036,3.14  c0.063,1.754,1.089,3.637,1.849,5.452c0.562,1.344,0.93,2.582,0.923,3.111c-0.007,0.614,0.015,1.025-0.652,1.447  c-0.479,0.303-1.362,0.715-2.63,0.722c-1.274,0.008-2.537-0.31-3.73-1.216c-2.233-1.699-4.299-4.821-6.28-7.221  c-2.386-2.89-4.923-4.839-5.181-5.054c-0.586-0.488-2.036-1.733-3.125-2.391c-0.354-0.214-0.712-0.418-0.988-0.479  c-0.281-0.063-0.476,0.02-0.51,0.048c-0.208,0.176-0.063,0.438,0.016,0.59c0.175,0.335,0.624,0.873,0.733,1.195  c0.209,0.617-0.031,0.896-0.335,0.845c-0.301-0.051-2.157-0.563-4.495-1.626c-1.254-0.569-2.566-1.354-4.033-2.184  c-1.294-0.8-2.39-1.59-3.124-2.151c-1.184-0.907-1.75-1.426-2.359-1.85c-0.988-0.686-2.423-1.402-3.459-1.514  c-0.469-0.051-0.645,0.117-0.829,0.286c-0.222,0.206-0.333,0.489-0.063,0.733c0.17,0.178,0.78,0.479,1.307,0.861  c0.447,0.323,0.79,0.688,0.77,0.823c-0.053,0.372-1.124,0.313-2.556,0.627c-2.094,0.46-4.901,1.1-6.057,1.1  c-2.655,0-3.714-0.573-3.682-1.722c0.021-0.899,0.924-2.184,2.806-4.096c0.428-0.46,0.99-0.909,1.594-1.26  c1.004-0.414,1.75-0.882,2.041-1.546c0.492-0.667,0.365-1.551,0.605-2.137c0.107-0.188,0.391-0.499,0.909-0.637  c1.578-0.319,3.571,2.391,4.687,2.757c0.707,0.262,0.876-0.494,0.191-1.514c-0.591-1.012-1.451-2.519-3.316-3.619  c-0.977-0.598-2.11-1.247-3.826-1.498c-1.332-0.194-2.821-0.255-4.718-0.048c-1.278,0-4.64,0.383-5.595,0.383  c-2.455,0.079-3.363-1.195-3.204-2.599c0.366-1.115,1.841-2.057,2.487-2.518c1.339-0.957,4.163-2.605,7.029-4.272  c1.793-1.043,2.917-2.009,4.32-1.961c1.068-0.016,1.601,1.24,2.423,2.279c0.829,1.132,1.684,2.068,1.817,2.295l0.686-0.063  c-0.303-0.638-1.052-3.315-2.646-5.707c-1.813-2.411-4.64-4.433-4.989-4.718c-0.702-0.574-2.599-1.929-4.766-2.885  c-3.077-1.451-5.402-2.825-5.34-4.128c0.044-0.918,1.812-1.583,4.687-1.578c2.875,0.005,7.38,0.983,11.716,3.193  c5.781,3.188,14.499,8.46,15.527,9.014c1.72,0.927,4.549,2.573,6.832,3.844c2.292,1.275,4.87,2.858,8.979,4.75  c2.322,1.07,7.508,1.96,7.587,1.052c0.048-0.446-0.701-0.526-1.658-1.052c-1.1-0.511-2.423-1.147-2.423-1.147  s11.816-7.728,15.589-10.872c4.123-2.975,9.5-7.456,12.327-11.646c0.453-0.833,1.285-1.904,1.807-2.636  c3.273-4.91,8.446-7.557,10.202-8.055c1.449,2.021,3.72,4.762,5.016,6.057c1.594,1.381,1.992,0.703,2.104,0.595  c-3.44-4.343-7.595-10.221-9.947-16.62c-1.615-4.038-2.176-8.034-1.743-11.392c0.713-5.523,2.918-9.504,6.121-13.305  c3.521-4.179,8.174-8.092,11.647-12.455c2.103-2.609,3.591-5.287,4.974-8.225c0.635-1.35,1.269-2.937,1.892-4.272  c2.465-5.279,5.292-10.244,9.925-14.282c3.571-2.625,8.974-4.363,14.011-5.016c0.728-0.09,3.339-0.297,5.771-0.223  c2.217,0.068,4.267,0.373,4.479,0.367c0.444-0.014,0.701-0.59-0.446-1.148c-0.523-0.079-1.482-0.303-2.423-0.526  c-1.275-0.096-2.184-0.605-2.215-1.052c-0.035-0.55,2.545-2.046,5.754-3.602c3.528-1.712,7.861-3.471,11.302-3.555  c4.842-0.149,6.392,1.865,7.508,4.686c0.937,2.192,1.647,4.709,3.65,7.086c2.058,2.599,4.977,4.063,6.296,4.551  c0.292,0.052,0.544-0.052,0.67-0.145c0.217-0.162,0.238-0.341,0.145-0.535c-0.286-0.586-1.638-1.301-1.813-2.036  c-0.058-0.242,4.143-1.724,4.84-1.764c0.558-0.032,1.354,0.542,1.366,1.53c0.009,0.828-0.362,1.913-1.031,2.965  c-0.518,0.743-1.259,1.574-2.285,2.03c-1.141,0.597-2.502,0.622-4.378,0.616c-0.816-0.002-2.037-0.009-2.854-0.016  c-1.896-0.016-3.411,0.223-3.827,0.38c-1.672,0.353-3.573,2.314-4.175,2.824c0,0-0.939-1.186-2.024-2.328  c-1.146-1.206-2.453-2.33-2.678-2.343c-0.474-0.027-0.55,0.634-0.425,0.909c0.126,0.275,0.95,1.977,1.466,2.572  c0.41,0.475,1.125,1.517,1.509,2.131c0.385,0.613,1.456,2.526,1.913,3.73c0.548,1.444,0.916,2.884,0.979,4.702  c0.149,4.293-0.936,5.239-1.041,11.838c-0.076,5.977,2.013,9.813,4.08,13.688c1.224,2.482,3.278,6.54,4.208,10.196  c1.005,3.953,0.845,5.675,0.786,7.827c-0.041,0.894-0.425,3.076-0.818,4.431c-0.742,2.55-1.888,4.728-3.236,6.95  c-0.543,0.895-1.309,2.155-1.862,2.966c-0.59,0.863-3.623,5.047-6.261,7.055c0.038,0.062-0.595,0.447-0.403,0.829  s0.594,0.064,0.998-0.064c0.202-0.063,3.91-1.382,6.928-5.674c1.967-2.75,4.825-7.152,5.909-11.01  c0.551-1.766,0.686-3.619,0.781-5.149c1.762-0.016,6.29,0.106,11.249,0.919c4.959,0.813,10.035,2.835,13.879,4.889  c5.674,3.252,7.438,4.719,7.438,4.719l2.363-0.828c0,0-3.59-3.932-11.694-7.333c-5.529-2.321-13.007-4.931-23.239-4.388  c-0.16-3.427-0.33-3.888-0.682-5.994c-2.072-9.819-8.235-12.741-8.384-24.58c0.072-3.5,1.36-8.372,1.381-12.327  c0.011-2.171-0.76-3.595-1.338-5.462c0.163-0.769,0.754-1.696,1.423-2.28c0.454-0.396,0.911-0.549,1.425-0.717  c1.269-0.414,2.854-0.804,4.648-0.861c2.989-0.094,6.332,0.03,8.55-1.923c2.655-2.375,3.104-5.905,1.986-8.279  c-1.318-2.593-8.461,0.741-9.022,1.021c-0.559,0.279-2.156-1.115-4.251-5.026s-1.487-9.139-10.286-9.139  c-10.327,0-20.008,7.548-23.086,10.038c-4.281,0.464-9.197,1.583-13.346,4.081c-4.298,2.588-7.602,6.76-10.071,11.386  c-2.484,4.655-4.126,9.77-6.759,13.793c-2.527,3.872-5.419,6.925-8.544,9.968c-3.475,3.384-7.162,6.772-9.394,11.562  c-4.431,9.573-2.558,20.145,3.421,28.161c-0.96,0.281-4.445,1.818-7.162,4.421c-1.911,1.83-3.485,4-4.91,5.887  c-1.424,1.888-2.698,3.492-3.209,4.081c-1.516,1.747-4.327,4.437-7.609,7.056c-3.945,3.148-8.522,6.25-11.689,8.246  c-3.669,2.737-6.179,4.373-6.179,4.373s-1.991-0.952-2.869-1.435c-3.361-1.842-8.453-4.143-13.183-7.125  C32.125,112.259,21.833,105.962,13.575,105.962z"/>
    <path d="M144.615,189.021c4.711,1.979,8.95,3.158,12.412,3.974c5.435,1.28,8.905,1.53,8.905,1.53s1.817,0.176,1.833-0.398  c0.017-0.573-1.747-0.834-1.747-0.834s-2.811-0.399-6.286-1.19c-3.08-0.701-6.68-1.728-9.314-2.806  c-1.043-0.364-6.786-2.582-12.349-5.834c-6.486-3.658-11.244-8.073-11.244-8.073s-3.29,0.6-2.975,1.75  c0.269,0.984,2.689,2.175,3.401,2.68c1.544,1.092,3.848,2.392,5.366,3.325c-2.742,4.495-9.66,11.181-18.325,16.524l2.376,1.747  c2.216-1.169,5.152-2.905,7.484-4.945c1.837-1.431,3.362-2.931,4.384-4.033c2.821-2.758,5.101-5.659,6.822-8.034  C138.581,186.259,141.658,187.779,144.615,189.021z"/>
    <path d="M206.133,135.196c0,0,3.7,4.649,4.617,5.568c0.916,0.918,1.67,1.739,2.604,2.514c1.326,1.099,2.566,1.801,2.566,1.801  s-1.912,2.248-3.555,4.336c-1.913,2.383-4.059,5.207-4.128,7.826c-0.059,2.2,0.77,3.699,1.944,4.703  c0.896,0.765,2.021,1.266,3.315,1.546c1.048,0.227,2.089,0.383,3.428,0.318c2.049,0.03,4.725-0.772,6.997-1.657  c2.917-1.136,5.178-2.375,5.962-2.375c0.461,0,0.889,0.42,1.546,0.893c0.505,0.36,1.178,0.74,1.897,1.052  c1.189,0.515,2.914,0.638,4.925,0.638c2.237,0,4.83-0.683,7.142-1.387c2.671-0.814,4.967-1.76,6.727-1.722  c1.595,0.034,3.942,1.242,6.249,2.869c2.473,1.883,4.83,4.049,6.934,5.563c4.177,3.204,7.436,4.632,10.091,4.702  c4.033,0.377,5.286-3.452,4.479-5.372c-0.807-1.92-1.742-2.926-3.379-4.798c-0.972-1.11-2.312-2.504-3.315-3.794  c-1.252-1.606-2.168-3.044-2.168-3.044s1.106-0.261,2.789-0.319c3.843-0.361,10.432,2.014,14.512,2.062  c5.937,0.069,7.354-2.865,7.565-5.589c0.292-3.762-5.823-6.743-10.223-8.14c-4.4-1.396-17.066-5.44-17.066-5.44  s1.058-1.885,2.593-3.72c1.563-1.866,3.611-3.693,4.739-4.697c2.202-1.961,7.29-5.102,9.883-6.865  c2.594-1.764,2.98-4.843,2.266-6.577c-0.714-1.733-2.329-2.223-6.134-2.095c-4.888,0.14-13.966,3.925-21.157,7.348  c-1.631,0.775-3.369,1.469-4.91,2.12c-1.758,0.743-3.283,1.408-4.495,1.69c-0.936-1.084-3.475-1.722-6.36-1.722  c-0.847,0-4.049,0.574-4.049,0.574l-2.519-6.058l-2.311,2.136c0,0,3.021,3.341,2.789,4.097c-0.101,0.33-0.709,0.763-1.213,0.887  c-0.65,0.16-1.222,0.001-1.576,0.001c-0.314,0-0.575,0.168-0.606,0.371s0.168,0.439,0.479,0.521  c0.622,0.164,1.558,0.295,2.741,0.196c1.185-0.1,3.629-0.423,5.823-0.706c2.195-0.282,3.975,0.512,3.975,0.808  c0,0.075-0.574,0.334-1.285,0.536c-1.158,0.327-2.662,0.59-2.662,0.59l-0.032,0.59c0,0,2.129,0.245,4.097-0.064  c2.441-0.384,4.786-1.23,5.749-1.587c0.338-0.126,2.056-0.792,4.342-1.792c4.201-1.838,10.2-4.556,12.236-5.371  c3.143-1.257,8.443-3.341,11.35-3.337c2.906,0.004,4.102,0.574,4.314,2.359c-0.163,0.964-0.431,1.836-1.445,2.699  c-1.599,1.139-3.821,2.366-6.016,3.762c-2.933,1.866-5.719,4.166-7.438,5.823c-2.491,2.401-4.293,5.123-5.589,8.353  c-0.851,1.936-0.472,3.276-0.34,3.635c0.555,1.51,1.935,2.776,2.423,2.636c0.236-0.117,0.716-0.516,0.638-0.978  c-0.115-0.676-0.893-1.212-1.021-2.296c-0.144-0.872,0.297-1.487,0.297-1.487s1.616,0.489,4.761,1.382  c3.146,0.893,13.141,3.643,16.492,5.249c1.923,0.921,3.489,2.239,4.145,3.507c0.487,0.944,0.341,1.936,0.146,2.325  c-0.665,1.327-2.078,2.563-5.182,2.563c-2.645,0-5.42-0.952-8.098-1.615c-2.626-0.65-5.163-1.013-6.753-0.978  c-0.93,0.02-2.153,0.113-3.38,0.382c-1.838,0.404-3.665,1.123-4.384,1.961c-0.201,0.235-0.089,0.5,0.208,0.622  c0.375,0.154,1.003,0.132,1.18,0.144c0.27,0.016,0.94-0.048,1.816,0.924c1.068,1.26,1.583,1.797,1.945,2.185  c0.737,0.791,4.67,5.005,5.419,5.93c0.75,0.924,1.789,2.057,1.738,3.331c-0.04,0.996-0.94,2.072-2.535,2.072  c-3.044,0.032-6.104-2.901-8.814-4.479c-0.824-0.583-2.604-1.746-4.432-3.235c-1.565-1.275-2.99-2.68-4.846-3.762  c-1.719-1.003-3.851-1.729-5.69-1.77c-2.926-0.067-4.615,0.738-6.567,1.482c-2.148,0.819-5.006,1.467-7.429,1.514  c-3.475-0.095-4.331-1.119-4.766-1.577c1.323-0.957,2.96-0.965,4.67-1.084c0.791-0.056,1.208-0.453,1.164-0.718  c0.016-0.398-0.508-0.856-1.339-0.973c-0.829-0.144-1.582,0.236-2.534,0.351c-1.558,0.311-3.384,0.856-4.543,1.26  c-1.451,0.505-4.288,1.515-7.22,2.668c-2.68,1.046-5.682,1.806-7.605,1.87c-3.953,0.133-5.053-2.514-5.148-4.06  c-0.031-3.221,3.767-7.459,5.531-9.755c1.773-2.061,4.087-5.104,4.017-6.78c-0.047-0.951-0.579-1.383-1.041-1.934  c-0.423-0.507-0.842-1.057-1.075-0.957c-0.489,0.21-0.274,0.347-0.205,1.256c0.033,0.416-0.027,1.175-0.213,1.862  c-0.218,0.814-0.568,1.537-0.568,1.537s-2.036-1.412-4.038-3.497c-2.12-2.206-4.543-5.771-4.543-5.771l-1.812,0.979L206.133,135.196  z"/>
    <polygon fill="#FF0000" points="76.284,166.174 229.374,85.495 246.016,115.08 96.942,193.931"/>
  </g>
</g>
<animateMotion begin="0s" dur="30s" repeatCount="indefinite" rotate="0" fill="freeze">
  <mpath xlink:href="#track"/>
</animateMotion>
</g>


<g>
<g>
  <animateTransform attributeName="transform" type="scale" begin="-10s" dur="30s" values="1;0.5;1" repeatCount="indefinite"/>

  <use xlink:href="#rotatingCircle"/>
  <g transform="translate(220 -30) scale(0.7)" filter="url(#glow)">
  <set attributeName="filter" to="url(#glow)" begin="butGlowOn.click"/>
  <set attributeName="filter" to="none" begin="butGlowOff.click"/>
   <path d="m157.22,412.76c0.909,52.71,198.12,52.71,197.21,0.909-0.909-55.436-195.39-56.344-197.21-0.909z" stroke="#000" stroke-linecap="butt" stroke-dasharray="none" stroke-width="3.75" fill="#623e35"/>
   <path d="m212.66,306.43-0.909,107.24c7.948,11.814,76.771,13.633,88.152-0.908v-107.24c-9.997,15.449-67.251,20.902-87.243,0.909z" transform="matrix(0.618557,0,0,1,98.94439,-0.908813)" stroke="#000" stroke-linecap="butt" stroke-dasharray="none" stroke-width="4.76806021" fill="#623e35"/>
   <path d="M248.1,24.708c-3.64,10.905-113.6,87.242-176.31,125.41,37.256,100.87,322.62,97.24,353.52,0-53.62-15.45-174.49-115.42-177.21-125.41z" transform="translate(0.908775,139.0434)" stroke="#000" stroke-linecap="butt" stroke-dasharray="none" stroke-width="3.75" fill="#009500"/>
   <path d="m248.1,24.708c-3.635,10.905-79.972,87.243-142.68,125.41,39.077,56.345,250.82,62.707,285.36-1.816-53.62-15.45-139.96-113.6-142.68-123.59z" transform="translate(-3.72529e-7,71.79367)" stroke="#000" stroke-linecap="butt" stroke-dasharray="none" stroke-width="3.75" fill="#009500"/>
   <path d="m157.34,412.76,1.253,19.084c42.712,49.983,181.73,37.385,194.45,0.125l1.158-19.209c1.818,53.618-194.14,50.892-196.86,0z" stroke="#000" stroke-linecap="butt" stroke-dasharray="none" stroke-width="3.75" fill="#623e35"/>
   <path d="m248.1,24.708c-3.635,10.905-40.895,82.699-103.6,120.87,37.259,44.531,178.12,48.167,212.65,0.91-53.62-15.45-106.33-111.79-109.05-121.78z" stroke="#000" stroke-linecap="butt" stroke-dasharray="none" stroke-width="3.75" fill="#009500"/>
   <path d="m247.19,38.34c-28.172,52.709-76.338,98.148-95.422,107.24,8.18,14.541,54.527,29.082,73.612,26.356-11.814-30.899-9.089-59.98,21.81-133.59z" fill="#FFF"/>
   <path d="m179.94,171.93c-11.814,9.997-54.526,43.622-65.432,50.892-8.179,0.909,42.713,29.081,60.889,29.081-39.987-23.628,41.804-74.52,4.543-79.973z" fill="#FFF"/>
   <path d="m140.86,250.99c-14.54,9.088-38.169,26.355-62.706,39.077,5.4527,19.994,45.439,45.44,54.527,48.166-36.351-45.439,42.713-78.155,8.179-87.243z" fill="#FFF"/>
   <path d="m233.31,366.28c0.813,12.723-1.665,37.202,0.315,47.008,13.632,6.763,22.653,5.261,33.339,4.821-13.632-5.453-24.633-15.726-33.654-51.829z" fill="#FFF"/>
   <path d="m222.46,376.37c-20.662,2.755-67.151,14.807-60.953,39.601,6.199,22.728,51.999,27.205,64.741,30.649-6.199-7.232-54.41-40.636-3.788-70.25z" fill="#FFF"/>
   <path d="m161.16,428.03c2.411,1.033,11.709,13.775,47.523,28.927-15.153-4.133-45.457-16.53-47.523-28.927z" fill="#FFF"/>
   <path d="m315.44,454.54c14.119-6.199,31.337-11.02,34.436-22.039,5.166-10.331-1.377,3.787-34.436,22.039z" fill="#001"/>
   <path d="m287.89,377.41c38.569,0,96.077,33.747,39.946,60.952,34.781-39.946-39.946-59.919-39.946-60.952z" fill="#001"/>
   <path d="m259.65,366.04s20.317-2.755,21.695-0.345c1.377,2.411,0.344,21.351-0.344,26.172-1.033-9.298,1.377-23.072-21.351-25.827z" fill="#001"/>
   <path d="m387.93,328.06c13.262-5.21,30.787-26.525,33.63-35.525-3.316-3.789-35.999-17.052-43.577-23.683,5.684,9.473,31.735,28.894,9.947,59.208z" fill="#001"/>
   <path d="m352.4,245.64c18.472-7.105,29.84-16.579,32.209-22.736-9-3.789-29.367-17.052-39.314-22.736,7.579,8.052,23.21,21.315,7.105,45.472z" fill="#001"/>
   <path d="m305.04,115.86c7.579,10.894,41.682,31.734,45.472,32.682-4.737,7.579-28.42,19.894-37.42,20.841-4.736-0.473,23.683-16.578-8.052-53.523z" fill="#001"/>
   <g transform="translate(-249.1874,169.4743)">
    <path stroke-linejoin="miter" d="m424.69,52.534c20.766-0.6699,20.766,29.474,1.34,29.474-24.785,0.6698-21.436-28.804-1.34-29.474z" stroke="#000" stroke-linecap="butt" stroke-dasharray="none" stroke-width="3.75" fill="#F00"/>
   </g>
   <g transform="translate(-46.89011,243.8286)">
    <path stroke-linejoin="miter" d="m424.69,52.534c20.766-0.6699,20.766,29.474,1.34,29.474-24.785,0.6698-21.436-28.804-1.34-29.474z" stroke="#000" stroke-linecap="butt" stroke-dasharray="none" stroke-width="3.75" fill="#F00"/>
   </g>
   <g transform="translate(-226.4122,271.2928)">
    <path stroke-linejoin="miter" d="m424.69,52.534c20.766-0.6699,20.766,29.474,1.34,29.474-24.785,0.6698-21.436-28.804-1.34-29.474z" stroke="#000" stroke-linecap="butt" stroke-dasharray="none" stroke-width="3.75" fill="#F00"/>
   </g>
   <g transform="translate(-117.8951,83.73234)">
    <path stroke-linejoin="miter" d="m424.69,52.534c20.766-0.6699,20.766,29.474,1.34,29.474-24.785,0.6698-21.436-28.804-1.34-29.474z" stroke="#000" stroke-linecap="butt" stroke-dasharray="none" stroke-width="3.75" fill="#F00"/>
   </g>
   <g transform="translate(-236.4601,103.1582)">
    <path d="m424.69,52.534c20.766-0.6699,20.766,29.474,1.34,29.474-24.785,0.6698-21.436-28.804-1.34-29.474z" stroke="#000" stroke-width="3.75" fill="#F0F"/>
   </g>
   <g transform="translate(-85.74192,124.5937)">
    <path d="m424.69,52.534c20.766-0.6699,20.766,29.474,1.34,29.474-24.785,0.6698-21.436-28.804-1.34-29.474z" stroke="#000" stroke-width="3.75" fill="#F0F"/>
   </g>
   <g transform="translate(-144.0196,236.4601)">
    <path d="m424.69,52.534c20.766-0.6699,20.766,29.474,1.34,29.474-24.785,0.6698-21.436-28.804-1.34-29.474z" stroke="#000" stroke-width="3.75" fill="#F0F"/>
   </g>
   <g transform="translate(-158.7565,60.28728)">
    <path d="m424.69,52.534c20.766-0.6699,20.766,29.474,1.34,29.474-24.785,0.6698-21.436-28.804-1.34-29.474z" stroke="#000" stroke-width="3.75" fill="#00F"/>
   </g>
   <g transform="translate(-300.7665,212.3452)">
    <path d="m424.69,52.534c20.766-0.6699,20.766,29.474,1.34,29.474-24.785,0.6698-21.436-28.804-1.34-29.474z" stroke="#000" stroke-width="3.75" fill="#00F"/>
   </g>
   <g transform="translate(-109.1869,185.5508)">
    <path d="m424.69,52.534c20.766-0.6699,20.766,29.474,1.34,29.474-24.785,0.6698-21.436-28.804-1.34-29.474z" stroke="#000" stroke-width="3.75" fill="#00F"/>
   </g>
   <g transform="translate(-192.9193,111.8663)">
    <path d="m424.69,52.534c20.766-0.6699,20.766,29.474,1.34,29.474-24.785,0.6698-21.436-28.804-1.34-29.474z" stroke="#000" stroke-width="3.75" fill="#0FF"/>
   </g>
   <g transform="translate(-101.1486,279.3311)">
    <path d="m424.69,52.534c20.766-0.6699,20.766,29.474,1.34,29.474-24.785,0.6698-21.436-28.804-1.34-29.474z" stroke="#000" stroke-width="3.75" fill="#0FF"/>
   </g>
   <g transform="translate(-293.3981,267.9435)">
    <path d="m424.69,52.534c20.766-0.6699,20.766,29.474,1.34,29.474-24.785,0.6698-21.436-28.804-1.34-29.474z" stroke="#000" stroke-width="3.75" fill="#0F0"/>
   </g>
   <g transform="translate(-203.637,194.9289)">
    <path d="m424.69,52.534c20.766-0.6699,20.766,29.474,1.34,29.474-24.785,0.6698-21.436-28.804-1.34-29.474z" stroke="#000" stroke-width="3.75" fill="#0F0"/>
   </g>
   <g transform="translate(-81.05289,214.3548)">
    <path d="m424.69,52.534c20.766-0.6699,20.766,29.474,1.34,29.474-24.785,0.6698-21.436-28.804-1.34-29.474z" stroke="#000" stroke-width="3.75" fill="#FF0"/>
   </g>
   <g transform="translate(-146.0292,146.0292)">
    <path d="m424.69,52.534c20.766-0.6699,20.766,29.474,1.34,29.474-24.785,0.6698-21.436-28.804-1.34-29.474z" stroke="#000" stroke-width="3.75" fill="#FF0"/>
   </g>
   <g transform="translate(-231.7711,227.7519)">
    <path d="m424.69,52.534c20.766-0.6699,20.766,29.474,1.34,29.474-24.785,0.6698-21.436-28.804-1.34-29.474z" stroke="#000" stroke-width="3.75" fill="#FF0"/>
   </g>
   <g transform="translate(-202.9672,64.97627)">
    <path d="m424.69,52.534c20.766-0.6699,20.766,29.474,1.34,29.474-24.785,0.6698-21.436-28.804-1.34-29.474z" stroke="#000" stroke-width="3.75" fill="#ff9300"/>
   </g>
   <g transform="translate(-158.0866,287.3694)">
    <path d="m424.69,52.534c20.766-0.6699,20.766,29.474,1.34,29.474-24.785,0.6698-21.436-28.804-1.34-29.474z" stroke="#000" stroke-width="3.75" fill="#ff9300"/>
   </g>
   <g transform="translate(-152.7278,188.2303)">
    <path d="m424.69,52.534c20.766-0.6699,20.766,29.474,1.34,29.474-24.785,0.6698-21.436-28.804-1.34-29.474z" stroke="#000" stroke-width="3.75" fill="#ff9300"/>
   </g>
   <g transform="translate(-140,25)">
    <path d="M418.66,76.649,399.53,56.504,376.86,72.559,390.11,48.14,367.83,31.538l27.318,5.0538,8.9056-26.315,3.6352,27.543,27.779,0.33779-25.071,11.968z" transform="matrix(0.994342,-0.10623,0.10623,0.994342,-2.344353,42.91328)" stroke="#000" stroke-dasharray="none" stroke-width="3.75" fill="#F00"/>
   </g>
   <g transform="translate(-216.137,24.92889)">
    <path d="m424.69,52.534c20.766-0.6699,20.766,29.474,1.34,29.474-24.785,0.6698-21.436-28.804-1.34-29.474z" stroke="#000" stroke-width="3.75" fill="#0F0"/>
   </g>
  </g>
</g>
<animateMotion begin="-10s" dur="30s" repeatCount="indefinite" rotate="0" fill="freeze">
  <mpath xlink:href="#track"/>
</animateMotion>
</g>


<g>
<g>
  <animateTransform attributeName="transform" type="scale" begin="-20s" dur="30s" values="1;0.5;1" repeatCount="indefinite"/>

  <use xlink:href="#rotatingCircle"/>
  <g transform="translate(155 -180) scale(0.7)" filter="url(#glow)">
  <set attributeName="filter" to="url(#glow)" begin="butGlowOn.click"/>
  <set attributeName="filter" to="none" begin="butGlowOff.click"/>
  <path stroke-linejoin="round" d="M441.29,560.71c0.02,49.72-40.29,90.04-90.02,90.04-49.72,0-90.03-40.32-90.02-90.04-0.01-49.73,40.3-90.05,90.02-90.05,49.73,0,90.04,40.32,90.02,90.05z" fill-rule="nonzero" transform="matrix(1.2167832,0,0,1.2167832,-76.150099,-121.55162)" stroke="#000" stroke-linecap="round" stroke-miterlimit="4" stroke-dasharray="none" stroke-width="3.28735638" fill="#FFF"/>
  <path fill-rule="evenodd" fill="#4d4d4d" d="M441.09,500.82c-5.4,6.55-6.24,17.01-4.56,21.04,1.24,2.98,9.47,4.44,17.35,5.18-3.09-9.37-7.41-18.18-12.79-26.22zm-193.42,29.39c-2.86,9.72-4.41,19.98-4.4,30.63,0,5.56,0.42,11.03,1.23,16.36,8.18,4.75,18.8,20.39,27.85,21.57,11.34,1.48,8.88-21.69,1.98-23.17-6.91-1.48-9.86-12.33-10.36-24.16-0.33-7.94-4.68-15.67-16.3-21.23zm211.54,27.73c-2.92,1.36-5.63,3.39-7.89,6.32-11.83,15.28-21.69,4.93-33.53,10.35-11.83,5.43-3.94,19.23,0.5,32.54,3.21,9.64-2.61,28.82,4.4,34.76,22.44-19.8,36.59-48.79,36.58-81.07,0-0.97-0.01-1.93-0.03-2.9-0.01,0.01-0.03,0-0.03,0zm-146.92,9.28c4.93,15.28-5.92,9.86-7.89,20.21-1.97,10.36,33.03,13.31,38.95,34.51,5.91,21.2,32.54,9.86,32.04-1.97-0.49-11.83-17.74-17.25-13.31-24.16,4.44-6.9,13.31-21.2,13.31-21.2l-63.1-7.39z"/>
  <path d="M454.19,523.12c0.07,1.69,0.12,3.4,0.12,5.1,0,60.46-49.06,109.53-109.53,109.53-47.26,0-87.59-30-102.94-71.97,2.66,58.11,50.68,104.47,109.44,104.47,60.47,0,109.53-49.07,109.53-109.53,0-13.2-2.34-25.87-6.62-37.6z" fill-rule="nonzero" fill="gray"/>
  <path stroke-linejoin="round" d="M359.45,671.28c0,9.09,14.67,9.38,32.74,9.38s32.73,0.69,32.73-9.38c0-17.72-14.66-32.1-32.73-32.1s-32.74,14.38-32.74,32.1z" fill-rule="nonzero" stroke="#000" stroke-linecap="round" stroke-miterlimit="4" stroke-width="3.99999976" fill="#333"/>
  <path d="M435.91,525.42c0,45.17-55.12,81.84-81.84,81.84-25.72,0-81.84-36.67-81.84-81.84s24.63-81.84,81.84-81.84c57.22,0,81.84,36.67,81.84,81.84z" fill-rule="nonzero" fill="gray"/>
  <path stroke-linejoin="round" d="M404.78,680.06c0-16.37-9.44-26.44-9.44-26.44s3.77,13.85,3.14,26.44h6.3z" fill-rule="evenodd" stroke="#000" stroke-linecap="butt" stroke-miterlimit="4" stroke-dasharray="none" stroke-width="4" fill="gray"/>
  <path stroke-linejoin="round" d="M108.88,46.344c-30.134,0.61-50.937,11.653-63.63,28.75-24.064-2.588-44.062,23.625-44.062,23.625s18.892,9.451,32.062,1.531c-2.399,8.71-3.562,18.11-3.562,27.91,0,45.17,56.125,81.84,81.842,81.84,26.72,0,81.85-36.67,81.85-81.84,0-9.8-1.17-19.2-3.57-27.91,13.17,7.92,32.03-1.531,32.03-1.531s-19.97-26.205-44.03-23.625c-13.06-17.595-34.71-28.75-66.28-28.75-0.89,0-1.78-0.018-2.65,0z" fill-rule="nonzero" transform="translate(239.73628,384.06586)" stroke="#000" stroke-linecap="round" stroke-miterlimit="4" stroke-width="4" fill="#FFF"/>
  <path fill-rule="evenodd" fill="#4d4d4d" d="M365.49,432.38c25.72,17.92-3.05,17.14-8.75,23.28-6.5,7-9,17-1.5,23.5s46,17.5,51.5-0.5c2.83-9.28-0.57-20.8-2.35-30.97-10.02-7.86-22.9-13.24-38.9-15.31z"/>
  <path stroke-linejoin="round" d="M441.29,560.71c0.02,49.72-40.29,90.04-90.02,90.04-49.72,0-90.03-40.32-90.02-90.04-0.01-49.73,40.3-90.05,90.02-90.05,49.73,0,90.04,40.32,90.02,90.05z" fill-rule="nonzero" transform="matrix(0.2517482,0,0,0.2517482,236.54837,359.07889)" stroke="#000" stroke-linecap="round" stroke-miterlimit="4" stroke-dasharray="none" stroke-width="15.88889027" fill="#FFF"/>
  <path stroke-linejoin="round" d="M441.29,560.71c0.02,49.72-40.29,90.04-90.02,90.04-49.72,0-90.03-40.32-90.02-90.04-0.01-49.73,40.3-90.05,90.02-90.05,49.73,0,90.04,40.32,90.02,90.05z" fill-rule="nonzero" transform="matrix(0.2517482,0,0,0.2517482,289.28057,359.07889)" stroke="#000" stroke-linecap="round" stroke-miterlimit="4" stroke-dasharray="none" stroke-width="15.88889027" fill="#FFF"/>
  <path d="M441.29,560.71c0.02,49.72-40.29,90.04-90.02,90.04-49.72,0-90.03-40.32-90.02-90.04-0.01-49.73,40.3-90.05,90.02-90.05,49.73,0,90.04,40.32,90.02,90.05z" fill-rule="nonzero" transform="matrix(8.3916033e-2,0,0,8.3916033e-2,343.19932,457.18337)" fill="#000"/>
  <path d="M441.29,560.71c0.02,49.72-40.29,90.04-90.02,90.04-49.72,0-90.03-40.32-90.02-90.04-0.01-49.73,40.3-90.05,90.02-90.05,49.73,0,90.04,40.32,90.02,90.05z" fill-rule="nonzero" transform="matrix(8.3916033e-2,0,0,8.3916033e-2,301.16898,457.18337)" fill="#000"/>
  <path stroke-linejoin="round" d="M111.53,159.59c-19.861,0-35.968,13.22-35.968,29.5,0,3.02,0.565,5.95,1.594,8.69,12.712,7.74,25.394,12.22,34.374,12.22,9.2,0,21.76-4.33,34.28-11.88,1.12-2.84,1.72-5.88,1.72-9.03,0-16.28-16.14-29.5-36-29.5z" fill-rule="nonzero" transform="translate(239.73628,384.06586)" stroke="#000" stroke-linecap="round" stroke-miterlimit="4" stroke-dasharray="none" stroke-width="4" fill="#ffd5e5"/>
  <path d="M190.09,101.34l-1.87,2.66c0.25,3.08,0.34,6.2,0.34,9.38,0,45.17-55.12,81.84-81.84,81.84-20.707,0-61.098-23.76-76.064-56.6,7.616,40.25,57.172,71.38,80.874,71.38,26.72,0,81.85-36.67,81.85-81.84,0-9.4-1.08-18.41-3.29-26.82z" fill-rule="nonzero" transform="translate(239.73628,384.06586)" fill="gray"/>
  <path stroke-linejoin="round" d="M344.46,671.28c0,9.09-14.67,9.38-32.74,9.38s-32.73,0.69-32.73-9.38c0-17.72,14.66-32.1,32.73-32.1s32.74,14.38,32.74,32.1z" fill-rule="nonzero" stroke="#000" stroke-linecap="round" stroke-miterlimit="4" stroke-width="3.99999976" fill="#333"/>
  <path stroke-linejoin="round" d="M299.13,680.06c0-16.37,9.44-26.44,9.44-26.44s-3.77,13.85-3.14,26.44h-6.3z" fill-rule="evenodd" stroke="#000" stroke-linecap="butt" stroke-miterlimit="4" stroke-dasharray="none" stroke-width="4" fill="gray"/>
  <path fill-rule="nonzero" fill="#000" d="M367.87,568.87c-2.29,3.97-6.5,5.84-9.4,4.16-2.89-1.67-3.38-6.25-1.09-10.22s6.5-5.84,9.4-4.16c2.89,1.67,3.38,6.24,1.09,10.22z"/>
  <path fill-rule="nonzero" fill="#000" d="M335.13,568.87c2.29,3.97,6.5,5.84,9.4,4.16,2.89-1.67,3.38-6.25,1.09-10.22s-6.5-5.84-9.4-4.16c-2.89,1.67-3.38,6.24-1.09,10.22z"/>
  <path stroke-linejoin="miter" d="M292.24,460.67c-7.34-1.33-15.5-21.5-12.5-25.5s26.37,4.46,27,13.5c0.55,7.97-5.39,13.65-14.5,12z" fill-rule="evenodd" stroke="#000" stroke-linecap="butt" stroke-miterlimit="4" stroke-dasharray="none" stroke-width="4" fill="#333"/>
  <path stroke-linejoin="miter" d="M409.13,460.67c7.34-1.33,15.5-21.5,12.5-25.5s-26.37,4.46-27,13.5c-0.55,7.97,5.39,13.65,14.5,12z" fill-rule="evenodd" stroke="#000" stroke-linecap="butt" stroke-miterlimit="4" stroke-dasharray="none" stroke-width="4" fill="#333"/>
  </g>
</g>
<animateMotion begin="-20s" dur="30s" repeatCount="indefinite" rotate="0" fill="freeze">
  <mpath xlink:href="#track"/>
</animateMotion>
</g>


<rect x="0" y="0" width="50%" height="100%" mask="url(#fadeOffMask)" fill="black" display="none">
  <set attributeName="display" to="block" begin="butShadowOn.click"/>
  <set attributeName="display" to="none" begin="butShadowOff.click"/>
</rect>

<g font-family="sans-sarif" font-size="13px" fill="white" cursor="pointer">

<g id="butGlowOn">
  <rect x="30" y="3" width="50" height="20" fill="gray" rx="2"/>
  <text x="32" y="15">GLOW</text>
  <set attributeName="display" to="block" begin="butGlowOff.click"/>
  <set attributeName="display" to="none" begin="click"/>
</g>

<g id="butGlowOff">
  <rect x="30" y="3" width="50" height="20" fill="darkgreen" rx="2"/>
  <text x="32" y="15">GLOW</text>
  <set attributeName="display" to="block" begin="butGlowOn.click"/>
  <set attributeName="display" to="none" begin="click"/>
</g>

<g id="butShadowOn">
  <rect x="100" y="3" width="70" height="20" fill="gray" rx="2"/>
  <text x="102" y="15">SHADOW</text>
  <set attributeName="display" to="block" begin="butShadowOff.click"/>
  <set attributeName="display" to="none" begin="click"/>
</g>

<g id="butShadowOff" display="none">
  <rect x="100" y="3" width="70" height="20" fill="darkgreen" rx="2"/>
  <text x="102" y="15">SHADOW</text>
  <set attributeName="display" to="block" begin="butShadowOn.click"/>
  <set attributeName="display" to="none" begin="click"/>
</g>

<g id="butReflectOn">
  <rect x="190" y="3" width="90" height="20" fill="gray" rx="2"/>
  <text x="192" y="15">REFLECTION</text>
  <set attributeName="display" to="block" begin="butReflectOff.click"/>
  <set attributeName="display" to="none" begin="click"/>
</g>

<g id="butReflectOff">
  <rect x="190" y="3" width="90" height="20" fill="green" rx="2"/>
  <text x="192" y="15">REFLECTION</text>
  <set attributeName="display" to="block" begin="butReflectOn.click"/>
  <set attributeName="display" to="none" begin="click"/>
</g>


</g>
<image xlink:href="http://www.google-analytics.com/__utm.gif?utmwv=4.7.1&amp;utmn=21830374&amp;utmhn=svg.kvalitne.cz&amp;utmcs=UTF-8&amp;utmsr=1920x1080&amp;utmsc=24-bit&amp;utmul=en-us&amp;utmje=1&amp;utmfl=10.0%20r45&amp;utmdt=SVG%C2%A0%E2%80%94%C2%A0It%27s%20in%20your%20hands...&amp;utmhid=1377849700&amp;utmr=-&amp;utmp=%2Findex2.htm&amp;utmac=UA-11950721-1&amp;utmcc=__utma%3D251371972.1884550355.1260220320.1272562824.1272576758.56%3B%2B__utmz%3D251371972.1263752798.41.3.utmcsr%3Dgoogle%7Cutmccn%3D(organic)%7Cutmcmd%3Dorganic%7Cutmctr%3Dsvg%2520smil%2520demo%3B" width="1" height="1"/>
</svg>