<svg xmlns="http://www.w3.org/2000/svg" width="300" height="300" font-family="Helvetica, sans-serif" font-size="11px">
<title>Graph of CPU load for selected browsers/rendering ways</title>
<rect width="300" height="300" fill="lightgray"/>
<line x1="50" x2="50" y1="10" y2="290" stroke="gray" stroke-width="1"/><line x1="150" x2="150" y1="10" y2="290" stroke="gray" stroke-width="1"/><line x1="250" x2="250" y1="10" y2="290" stroke="gray" stroke-width="1"/>
<text x="42" y="295">50 particles</text><text x="138" y="295">500 particles</text><text x="232" y="295">2500 particles</text>
<line x1="40" x2="260" y1="280" y2="280" stroke="gray" stroke-width="1"/><line x1="40" x2="260" y1="230" y2="230" stroke="gray" stroke-width="1"/><line x1="40" x2="260" y1="180" y2="180" stroke="gray" stroke-width="1"/><line x1="40" x2="260" y1="130" y2="130" stroke="gray" stroke-width="1"/><line x1="40" x2="260" y1="80" y2="80" stroke="gray" stroke-width="1"/><line x1="40" x2="260" y1="30" y2="30" stroke="gray" stroke-width="1"/>
<text x="3" y="280">0% CPU</text><text x="3" y="230">25% CPU</text><text x="3" y="180">50% CPU</text><text x="3" y="130">75% CPU</text><text x="3" y="80">100%CPU</text>
<g transform="scale(1 -1) translate(0 -279)">
  <polyline stroke="orange" fill="none" stroke-width="2" points="50,3 150,76 250,77"/>
  <polyline stroke="#00377f" fill="none" stroke-width="2" points="50,3 150,52 250,52"/>
  <polyline stroke="#0c0" fill="none" stroke-width="2" points="50,76 150,68 250,58"/>
  <polyline stroke="black" fill="none" stroke-width="2" points="50,48 150,64 250,56"/>
</g>
<text x="100" y="40" font-size="33px">RAF MODE</text>
<text x="76" y="76" font-size="33px">COMPARISON</text>
<text x="120" y="112" font-size="33px">OF CPU</text>
</svg>