<svg xmlns="http://www.w3.org/2000/svg" xmlns:xlink="http://www.w3.org/1999/xlink" viewBox="0 0 1025 620" width="100%" height="100%">
  <title>SVG Demo: Vacation in Norway, ver. 1.3v Static, by Marek Raida</title>
  <desc>Used cliparts from: freesvgfiles.com, commons.wikimedia.org, www.openclipart.org</desc>

  <style type="text/css">
    image, g.thmb rect, g.thmbx rect, #activeRect, #lrght, #llft {cursor:pointer}
    g.thmb:hover rect, g.thmbx:hover rect {stroke:#eee;stroke-width:4}
    g.thmbx rect {stroke:#222;stroke-width:3;fill:blue;fill-opacity:0.36}
    #norwayMap {fill:url(#polar);stroke:navy;stroke-width:0.7}
    #star {fill:yellow;stroke:black;stroke-width:6}
    #star:hover {fill:red}
  </style>

  <defs>
    <path id="norwayOutline" fill="none" stroke="none" d="M217,428 C217,416 200.33333333333334,379.3333333333333 217,356 C233.66666666666666,332.6666666666667 292.6666666666667,311.6666666666667 317,288 C341.3333333333333,264.3333333333333 335.5,238.16666666666666 363,214 C390.5,189.83333333333334 439.8333333333333,158 482,143 C524.1666666666666,128 579.1666666666666,123.5 616,124 C652.8333333333334,124.5 684.5,131 703,146 C721.5,161 733.5,195.33333333333334 727,214 C720.5,232.66666666666666 689.5,250.83333333333334 664,258 C638.5,265.1666666666667 603.3333333333334,250 574,257 C544.6666666666666,264 506.6666666666667,280.6666666666667 488,300 C469.3333333333333,319.3333333333333 472.1666666666667,347.8333333333333 462,373 C451.8333333333333,398.1666666666667 448.1666666666667,431.5 427,451 C405.8333333333333,470.5 363.6666666666667,485.6666666666667 335,490 C306.3333333333333,494.3333333333333 274.5,487.3333333333333 255,477 C235.5,466.6666666666667 224.16666666666666,436.1666666666667 218,428 z"/>
    <path id="mooseHead" transform="scale(0.06) translate(-300, -300)" d="m 318.73097,438.5473 c 4.7894,-1.94783 2.2426,2.0854 0,0 z m -5.2311,-4.23098 c -40.4499,-24.98027 -64.3649,-69.11164 -80.8879,-112.20573 -9.00331,-26.31352 -20.52749,-64.04951 10.6672,-80.1209 19.9998,-15.80794 52.8349,-73.39849 5.6586,-70.94864 -39.27712,2.17132 -79.72028,2.37668 -116.87378,-12.52809 C 104.8303,146.30869 70.646014,140.81469 54.713264,112.63635 40.140794,84.787324 22.506024,58.836694 5.650114,32.401764 c -9.12367,-26.2090298 26.77314,1.04633 31.35046,12.62123 15.36316,13.56462 14.37046,-29.65873 29.77297,-4.46235 24.627,23.71985 2.89705,-43.9947998 29.78816,-12.68153 0.0787,17.41892 36.279026,18.18038 17.751776,1.01565 -4.74149,-29.45921977 31.47765,7.54237 35.09711,18.8519 12.60829,19.2153 40.88835,10.13745 17.92223,-10.86808 -12.59092,-9.57251 -11.46236,-51.52766 4.98363,-25.13076 16.43842,27.88114 30.29312,58.50058 55.30402,80.02731 35.9713,1.27357 12.4946,-45.96552 13.4039,-66.32314 10.3867,-20.7284198 14.4653,24.80538 21.9524,31.81724 7.1533,10.78625 6.3572,53.726956 21.3609,36.73705 -0.5442,-14.68829 14.3706,-42.91961 24.2413,-16.91473 1.4078,13.44917 19.8935,39.838036 22.2179,11.30827 10.7989,-15.08441 6.6603,-63.1962 25.9944,-57.67098 14.2485,23.19178 -18.6472,60.62595 -0.3173,75.429946 23.68,-4.1647 32.2127,-56.231036 54.354,-40.578496 -2.2075,15.04001 -11.3653,63.353026 11.0261,45.802996 -7.1234,-15.190506 9.3893,-43.695486 23.1775,-21.687516 3.7346,-11.53707 10.8613,-54.87724 21.9424,-23.97618 -0.3239,23.3364 21.2769,23.29725 18.8767,-0.60009 10.9282,-18.78882 21.8564,-0.43679 17.4124,12.63832 16.4178,10.23744 10.6744,-38.68742 15.7611,-51.13902 29.5811,-9.70856 1.3871,47.38136 26.1198,42.24621 1.65,-13.93239 22.9514,-34.7957 23.2386,-8.39513 7.4992,17.2478 -35.9063,41.262326 -5.9268,44.759016 8.5124,-6.967766 25.9358,-48.346156 34.6445,-24.409336 -4.5249,33.731706 -32.3406,61.255186 -65.42,67.891406 -30.8414,10.00374 -63.4964,12.92985 -95.774,12.80041 13.8886,33.23995 56.877,35.28078 77.8765,62.53238 18.4369,17.8283 28.9931,52.91097 5.0098,70.71522 -18.8695,18.00006 -45.8663,55.68192 -70.8438,23.55701 -32.7619,-10.92727 -30.2841,41.79899 -50.8154,56.42594 -13.1503,25.24759 -24.1578,54.38915 -55.1548,54.92177 -8.5989,4.27701 -19.0139,10.22327 -28.4787,4.65262 z"/>

    <g id="thumbDemo"><g class="thmb">

      <image xlink:href="" x="-25" y="0" width="50" height="32"/>
      <rect width="50" height="32" x="-25" y="0" fill="none" stroke="silver" stroke-width="2" rx="4"/>
      <animateMotion begin="indefinite" dur="40s" repeatCount="indefinite" rotate="0" fill="freeze">
        <mpath xlink:href="#norwayOutline"/>
      </animateMotion>
    </g></g>

    <linearGradient id="polar" gradientUnits="objectBoundingBox" x1="0" y1="0" x2="0" y2="1">
      <stop offset="0" stop-color="#eef"/>

      <stop offset="0.5" stop-color="#55f"/>
      <stop offset="1" stop-color="cyan"/>
    </linearGradient>
  </defs>

  <g id="bgFlag">
    <rect width="1025" height="620" fill="#ef2b2d"/>
    <path id="moose" fill="#eee" transform="translate(11, 70) scale(0.5)" d="M415.948,337.067c-136.316,0-272.634,0-408.949,0   c-3.849-23.847,26.062-13.934,43.995-15.998c-3.824-9.023-11.526-14.627-13.998-24.997c-5.78-24.245,4.159-48.756,8.999-65.992   c2.209-7.867,8.602-24.756,7.999-30.996c-0.814-8.432-10.854-16.414-13.998-22.997c-4.162-8.714-4.388-16.949-10.999-23.997   C12.537,152.218,2.241,146.183,0,132.093c5.627-5.25,14.716-1.287,23.997-2c8.446-18.952,24.601-31.2,45.994-38.995   c15.131-5.513,34.028-10.874,49.994-9.999c18.438,1.01,35.367,13.442,52.994,13.998c13.065,0.412,26.347-5.899,39.995-7.999   c44.798-6.893,75.213,11.096,100.987,23.997c-2.401-15.186-20.89-18.504-36.995-25.997c-14.563-6.775-33.488-15.043-36.996-26.997   c-2.455-8.367,0.401-20.085,8.999-21.998c12.541-2.789,23.073,16.518,36.995,14.998c6.787-9.544,0.326-32.336,11.999-36.995   c8.796,3.869,8.192,17.138,16.998,20.997c3.664-4.697,6.571-11.004,9.998-17.998c3.254-6.638,5.004-16.001,11.999-16.998   c11.244-1.601,19.744,14.868,19.997,20.998c0.774,18.711-25.314,39.383-19.997,57.993c1.979,6.925,12.892,9.968,16.998,13.999   c5.204-5.828,13.185-5.938,13.998-13.999c0.588-5.832-7.944-13.296-6.999-20.997c0.457-3.721,2.624-7.555,8.999-9.999   c8.693,3.971,10.952,14.378,19.997,17.998c7.444-6.887,9.654-19.009,24.997-17.998c4.347,10.973,3.357,23.746-1,31.996   c-5.797,10.977-21.403,14.601-28.996,21.997c15.326,1.484,30.382,6.948,39.995,13.999c8.332,6.112,23.752,16.725,26.996,23.997   c2.458,5.509,3.327,17.09,0,21.997c-3.914,5.772-14.941,4.558-24.997,4.999c-5.295,0.233-11.756,1.95-15.998,1   c-6.461-1.446-13.105-13.052-19.997-12.998c-4.389,0.034-15.966,11.54-19.997,15.998c-6.406,7.082-13.515,14.923-14.998,21.997   c-1.696,8.084,3.772,15.645,5.999,22.997c-3.863,3.525-7.041,8.761-12.999,7.999c-6.007-0.768-12.478-11.669-12.998-20.997   c-0.325-5.837,3.566-11.201,4-16.998c0.502-6.718-2.159-11.069-2-15.998c-8.378-0.267-18.139,6.442-23.997,11.998   c11.148,22.415-4.588,37.137-5.999,60.993c-0.421,7.105,1.979,16.104,2.999,24.996c1.061,9.241,0.707,18.298,3,24.997   c2.185,6.383,13.773,26.01,19.997,27.997c9.111,2.908,24.526,0,37.995,0C391.848,321.069,418.31,315.693,415.948,337.067z    M124.984,212.083c-13.834,19.367-2.7,36.858,6,54.993c8.329,17.361,17.25,31.529,18.998,53.993   c36.996-0.667,76.656,1.332,111.986-1c-5.07-4.898-13.08-2.249-14.999-8.999c-1.354-4.762,3.947-9.493,4-15.998   c-15.256-22.595,4.659-60.86-5.999-84.989c-0.667,0-1.334,0-2,0C209.379,222.932,159.686,225.671,124.984,212.083z    M262.967,277.074c5.849,6.148,2.273,14.997,4,22.997c1.891,8.765,10.545,14.307,12.998,20.998c10.004-0.662,22.657,1.326,30.996-1   c-1.673-2.327-2.611-5.388-2.999-8.999c-4.812-1.187-9.175-2.824-11.999-5.999c3.846-19.551-4.448-29.641-7.999-44.995   c-2.873-12.422-3.512-28.967-6.999-37.995C274.07,239.517,267.753,257.529,262.967,277.074z M55.993,256.077   c-4.156,7.52-7.516,21.993-5,32.996c2.684,11.733,15.749,15.698,22.997,24.996c1.972,1.695,0.375,6.958,4,7   c18.331,0,36.662,0,54.993,0c-4.72-8.499-2.354-17.787-5-24.997c-1.348-3.675-7.021-12.493-8.999-14.998   c-5.624-7.123-14.39-10.095-18.998-17.998c-5.797-9.943-6.727-19.921-11.998-32.996c-0.057-0.609-0.15-1.184-1-1   C79.875,236.312,60.912,247.177,55.993,256.077z"/>
    <rect width="200" height="620" x="300" fill="#fff"/>

    <rect width="1025" height="200" y="230" fill="#fff"/>
    <rect width="100" height="620" x="350" fill="#002868"/>
    <rect width="1025" height="100" y="280" fill="#002868"/>
  </g>

  <g id="globalTexts">
    <text x="10" y="40" stroke="#eee" stroke-width="2" font-family="Arial, sans-serif" font-size="48px" font-weight="bolder" fill="#003">Vacation in Norway, 1 - 23th August 2010</text>
    <text x="160" y="73" stroke="#000" stroke-width="1.2" font-family="Arial, sans-serif" font-size="27px" font-weight="bolder" fill="white">Marek Raida, Jana Hubackova, Petr Hubacek</text>

    <text x="4" y="613" stroke="none" stroke-width="0" font-family="Arial, sans-serif" font-size="15px" fill="white" font-style="italic">Click on thumbnail to show larger picture...</text>
  </g>

  <mask id="norwayFlagMask" maskUnits="userSpaceOnUse">
    <g id="maskMoose" transform="translate(362, 357)">
      <use xlink:href="#mooseHead" fill="white" display="none" transform="">
        <animateTransform id="mooseShow" attributeName="transform" type="scale" values="0.1; 62" dur="1.5s" begin="showPosition.end" repeatCount="1" fill="freeze"/>
        <animateTransform attributeName="transform" type="scale" to="100" dur="0.001s" begin="mooseShow.end" repeatCount="1" fill="freeze"/>
        <set attributeName="display" to="block" begin="mooseShow.begin"/>

        <animateTransform id="mooseHide" attributeName="transform" type="scale" values="62; 0.1" dur="1.5s" begin="darkeningOff.end" repeatCount="1" fill="freeze"/>
        <set attributeName="display" to="none" begin="mooseHide.end"/>
      </use>
    </g>
  </mask>

  <mask id="norwayFlagMask2" maskUnits="userSpaceOnUse">
    <rect x="-2000" y="-2000" width="4000" height="4000" fill="white"/> 
  </mask>

  <g id="flyingImages"><g onclick="showDetail(evt)" class="thmb" thumb="0">
      <image xlink:href="IMG_0242.JPG" x="-25" y="0" width="50" height="32"/>
      <rect width="50" height="32" x="-25" y="0" fill="none" stroke="silver" stroke-width="2" rx="4"/>
      <animateMotion begin="-0s" dur="40s" repeatCount="indefinite" rotate="0" fill="freeze">

        <mpath xlink:href="#norwayOutline"/>
      </animateMotion>
    </g><g onclick="showDetail(evt)" class="thmb" thumb="1">
      <image xlink:href="IMG_0563.JPG" x="-25" y="0" width="50" height="32"/>
      <rect width="50" height="32" x="-25" y="0" fill="none" stroke="silver" stroke-width="2" rx="4"/>
      <animateMotion begin="-2s" dur="40s" repeatCount="indefinite" rotate="0" fill="freeze">
        <mpath xlink:href="#norwayOutline"/>
      </animateMotion>
    </g><g onclick="showDetail(evt)" class="thmb" thumb="2">

      <image xlink:href="IMG_0924.JPG" x="-25" y="0" width="50" height="32"/>
      <rect width="50" height="32" x="-25" y="0" fill="none" stroke="silver" stroke-width="2" rx="4"/>
      <animateMotion begin="-4s" dur="40s" repeatCount="indefinite" rotate="0" fill="freeze">
        <mpath xlink:href="#norwayOutline"/>
      </animateMotion>
    </g><g onclick="showDetail(evt)" class="thmb" thumb="3">
      <image xlink:href="IMG_1001.JPG" x="-25" y="0" width="50" height="32"/>
      <rect width="50" height="32" x="-25" y="0" fill="none" stroke="silver" stroke-width="2" rx="4"/>
      <animateMotion begin="-6s" dur="40s" repeatCount="indefinite" rotate="0" fill="freeze">

        <mpath xlink:href="#norwayOutline"/>
      </animateMotion>
    </g><g onclick="showDetail(evt)" class="thmb" thumb="4">
      <image xlink:href="IMG_1489.JPG" x="-25" y="0" width="50" height="32"/>
      <rect width="50" height="32" x="-25" y="0" fill="none" stroke="silver" stroke-width="2" rx="4"/>
      <animateMotion begin="-8s" dur="40s" repeatCount="indefinite" rotate="0" fill="freeze">
        <mpath xlink:href="#norwayOutline"/>
      </animateMotion>
    </g><g onclick="showDetail(evt)" class="thmb" thumb="5">

      <image xlink:href="IMG_1652.JPG" x="-25" y="0" width="50" height="32"/>
      <rect width="50" height="32" x="-25" y="0" fill="none" stroke="silver" stroke-width="2" rx="4"/>
      <animateMotion begin="-10s" dur="40s" repeatCount="indefinite" rotate="0" fill="freeze">
        <mpath xlink:href="#norwayOutline"/>
      </animateMotion>
    </g><g onclick="showDetail(evt)" class="thmb" thumb="6">
      <image xlink:href="IMG_0870.JPG" x="-25" y="0" width="50" height="32"/>
      <rect width="50" height="32" x="-25" y="0" fill="none" stroke="silver" stroke-width="2" rx="4"/>
      <animateMotion begin="-12s" dur="40s" repeatCount="indefinite" rotate="0" fill="freeze">

        <mpath xlink:href="#norwayOutline"/>
      </animateMotion>
    </g><g onclick="showDetail(evt)" class="thmb" thumb="7">
      <image xlink:href="IMG_2345.JPG" x="-25" y="0" width="50" height="32"/>
      <rect width="50" height="32" x="-25" y="0" fill="none" stroke="silver" stroke-width="2" rx="4"/>
      <animateMotion begin="-14s" dur="40s" repeatCount="indefinite" rotate="0" fill="freeze">
        <mpath xlink:href="#norwayOutline"/>
      </animateMotion>
    </g><g onclick="showDetail(evt)" class="thmb" thumb="8">

      <image xlink:href="IMG_2529.JPG" x="-25" y="0" width="50" height="32"/>
      <rect width="50" height="32" x="-25" y="0" fill="none" stroke="silver" stroke-width="2" rx="4"/>
      <animateMotion begin="-16s" dur="40s" repeatCount="indefinite" rotate="0" fill="freeze">
        <mpath xlink:href="#norwayOutline"/>
      </animateMotion>
    </g><g onclick="showDetail(evt)" class="thmb" thumb="9">
      <image xlink:href="IMG_2936.JPG" x="-25" y="0" width="50" height="32"/>
      <rect width="50" height="32" x="-25" y="0" fill="none" stroke="silver" stroke-width="2" rx="4"/>
      <animateMotion begin="-18s" dur="40s" repeatCount="indefinite" rotate="0" fill="freeze">

        <mpath xlink:href="#norwayOutline"/>
      </animateMotion>
    </g><g onclick="showDetail(evt)" class="thmb" thumb="10">
      <image xlink:href="IMG_3061.JPG" x="-25" y="0" width="50" height="32"/>
      <rect width="50" height="32" x="-25" y="0" fill="none" stroke="silver" stroke-width="2" rx="4"/>
      <animateMotion begin="-20s" dur="40s" repeatCount="indefinite" rotate="0" fill="freeze">
        <mpath xlink:href="#norwayOutline"/>
      </animateMotion>
    </g><g onclick="showDetail(evt)" class="thmb" thumb="11">

      <image xlink:href="IMG_3180.JPG" x="-25" y="0" width="50" height="32"/>
      <rect width="50" height="32" x="-25" y="0" fill="none" stroke="silver" stroke-width="2" rx="4"/>
      <animateMotion begin="-22s" dur="40s" repeatCount="indefinite" rotate="0" fill="freeze">
        <mpath xlink:href="#norwayOutline"/>
      </animateMotion>
    </g><g onclick="showDetail(evt)" class="thmb" thumb="12">
      <image xlink:href="IMG_8028.JPG" x="-25" y="0" width="50" height="32"/>
      <rect width="50" height="32" x="-25" y="0" fill="none" stroke="silver" stroke-width="2" rx="4"/>
      <animateMotion begin="-24s" dur="40s" repeatCount="indefinite" rotate="0" fill="freeze">

        <mpath xlink:href="#norwayOutline"/>
      </animateMotion>
    </g><g onclick="showDetail(evt)" class="thmb" thumb="13">
      <image xlink:href="IMG_3330.JPG" x="-25" y="0" width="50" height="32"/>
      <rect width="50" height="32" x="-25" y="0" fill="none" stroke="silver" stroke-width="2" rx="4"/>
      <animateMotion begin="-26s" dur="40s" repeatCount="indefinite" rotate="0" fill="freeze">
        <mpath xlink:href="#norwayOutline"/>
      </animateMotion>
    </g><g onclick="showDetail(evt)" class="thmb" thumb="14">

      <image xlink:href="IMG_3768.JPG" x="-25" y="0" width="50" height="32"/>
      <rect width="50" height="32" x="-25" y="0" fill="none" stroke="silver" stroke-width="2" rx="4"/>
      <animateMotion begin="-28s" dur="40s" repeatCount="indefinite" rotate="0" fill="freeze">
        <mpath xlink:href="#norwayOutline"/>
      </animateMotion>
    </g><g onclick="showDetail(evt)" class="thmb" thumb="15">
      <image xlink:href="IMG_1010.JPG" x="-25" y="0" width="50" height="32"/>
      <rect width="50" height="32" x="-25" y="0" fill="none" stroke="silver" stroke-width="2" rx="4"/>
      <animateMotion begin="-30s" dur="40s" repeatCount="indefinite" rotate="0" fill="freeze">

        <mpath xlink:href="#norwayOutline"/>
      </animateMotion>
    </g><g onclick="showDetail(evt)" class="thmb" thumb="16">
      <image xlink:href="IMG_3976.JPG" x="-25" y="0" width="50" height="32"/>
      <rect width="50" height="32" x="-25" y="0" fill="none" stroke="silver" stroke-width="2" rx="4"/>
      <animateMotion begin="-32s" dur="40s" repeatCount="indefinite" rotate="0" fill="freeze">
        <mpath xlink:href="#norwayOutline"/>
      </animateMotion>
    </g><g onclick="showDetail(evt)" class="thmb" thumb="17">

      <image xlink:href="IMG_9224.JPG" x="-25" y="0" width="50" height="32"/>
      <rect width="50" height="32" x="-25" y="0" fill="none" stroke="silver" stroke-width="2" rx="4"/>
      <animateMotion begin="-34s" dur="40s" repeatCount="indefinite" rotate="0" fill="freeze">
        <mpath xlink:href="#norwayOutline"/>
      </animateMotion>
    </g><g onclick="showDetail(evt)" class="thmb" thumb="18">
      <image xlink:href="IMG_9666.JPG" x="-25" y="0" width="50" height="32"/>
      <rect width="50" height="32" x="-25" y="0" fill="none" stroke="silver" stroke-width="2" rx="4"/>
      <animateMotion begin="-36s" dur="40s" repeatCount="indefinite" rotate="0" fill="freeze">

        <mpath xlink:href="#norwayOutline"/>
      </animateMotion>
    </g><g onclick="showDetail(evt)" class="thmb" thumb="19">
      <image xlink:href="IMG_9785.JPG" x="-25" y="0" width="50" height="32"/>
      <rect width="50" height="32" x="-25" y="0" fill="none" stroke="silver" stroke-width="2" rx="4"/>
      <animateMotion begin="-38s" dur="40s" repeatCount="indefinite" rotate="0" fill="freeze">
        <mpath xlink:href="#norwayOutline"/>
      </animateMotion>
    </g></g>

  <g transform="translate(255, 175)">
    <g id="norwayMap" transform="matrix(2.34, 0, 0, 2.34, -2728, -3129)">
      <path d="m 1172.0144,1435.7659 c -0.2948,-0.3012 -0.618,-0.5655 -0.9706,-0.7954 -0.3194,1.0339 0,1.2994 0.9706,0.7954"/>
      <path d="m 1172.3706,1443.2893 c -0.3832,-0.2975 -0.7678,-0.5925 -1.1547,-0.8851 0.2236,0.6307 0.3414,1.2797 0.3562,1.9473 0.7408,0.036 1.0467,-0.3566 0.7985,-1.0622"/>
      <path d="m 1171.5721,1441.5191 c 0.3231,0.2348 0.6474,0.4721 0.9706,0.7069 -0.2224,-0.3885 -0.5467,-0.6245 -0.9706,-0.7069"/>
      <path d="m 1171.6581,1440.988 c 0.3035,0 0.5983,-0.063 0.8846,-0.177 -0.2961,0.059 -0.5898,0.118 -0.8846,0.177"/>
      <path d="m 1173.1569,1427.7999 c 0.2851,-0.8531 -0.3796,-0.8359 -0.9706,-0.6195 0.3231,0.2065 0.6475,0.413 0.9706,0.6195"/>
      <path d="m 1172.727,1453.291 c -0.5099,0.7007 -0.2458,1.3707 0.5282,1.6817 0.3427,-0.7904 0.3771,-1.8722 -0.3563,-2.4783 -0.058,0.2656 -0.1154,0.5311 -0.1719,0.7966"/>

      <path d="m 1173.2552,1448.423 c -1.2948,-0.041 -0.6635,1.2735 -0.7986,2.0357 0.2016,-0.7487 0.7691,-1.1605 1.4989,-0.7081 -0.063,-0.5335 -0.2961,-0.9761 -0.7003,-1.3276"/>
      <path d="m 1173.9555,1447.0055 c -0.4447,0.6417 -0.2851,2.1821 0.7125,2.214 1.3378,0.042 0.1093,-2.1045 -0.7125,-2.214"/>
      <path d="m 1173.6974,1453.4681 c 0.36,-0.1795 0.068,-0.033 0,0"/>
      <path d="m 1175.1102,1446.6527 c -0.2948,0.059 -0.5897,0.118 -0.8845,0.1771 0.8575,0.064 1.5528,1.0203 2.2236,0.053 0.602,-0.8666 -0.973,-0.7585 -1.3391,-0.2299"/>
      <path d="m 1178.2908,1424.525 c -0.6118,-0.1794 -1.2285,-0.2077 -1.855,-0.089 -0.037,1.4064 1.4545,1.0228 1.855,0.089"/>
      <path d="m 1179.7909,1423.4629 c -0.2912,-0.059 -0.5812,-0.118 -0.8723,-0.177 -0.069,0.5888 -0.1289,1.1789 -0.1843,1.769 0.6216,-0.3049 1.0664,-0.8753 1.0566,-1.592"/>
      <path d="m 1181.5721,1422.8433 c -0.2911,-0.06 -0.5872,-0.09 -0.8844,-0.089 0.2947,0.03 0.5896,0.059 0.8844,0.089"/>
      <path d="m 1180.9456,1423.1089 c 0.3231,0.118 0.6475,0.236 0.9706,0.354 -0.2482,-0.311 -0.5713,-0.429 -0.9706,-0.354"/>
      <path d="m 1185.8966,1420.2765 c -0.3232,0 -0.6475,0 -0.9706,0 0.3981,0.193 0.8108,0.3405 1.2408,0.4426 -0.091,-0.1475 -0.1806,-0.2951 -0.2702,-0.4426"/>

      <path d="m 1186.695,1419.1259 c -0.3194,-0.026 -0.6486,0 -0.9705,0 0.6733,0.5163 0.7211,0.066 0.9705,0"/>
      <path d="m 1191.4739,1418.1522 c 0.2949,-0.2065 0.5897,-0.413 0.8846,-0.6195 -0.2101,-0.3455 -0.4767,-0.6405 -0.7986,-0.8851 0.1033,1.0129 -0.2493,1.19 -1.0564,0.531 -0.1291,0.7475 0.1953,1.1556 0.9704,0.9736"/>
      <path d="m 1192.2725,1416.6476 c 0.9987,-0.182 1.1757,0.1131 0.5282,0.8851 0.8526,-0.4795 0.042,-1.147 -0.5282,-0.8851"/>
      <path d="m 1195.8105,1414.3463 c -0.3907,-1.3215 -2.0798,-0.906 -2.7395,-0.088 0.8882,0.2655 1.8563,0.6355 2.7395,0.088"/>
      <path d="m 1194.9248,1416.382 c 0.3231,-0.059 0.6475,-0.1192 0.9705,-0.1782 -0.5565,-0.6429 -1.3059,-0.6774 -1.855,0 0.2948,0.06 0.5909,0.1192 0.8845,0.1782"/>
      <path d="m 1196.0685,1414.7003 c -0.2948,0.118 -0.5897,0.2361 -0.8845,0.3541 0.3108,-0.078 0.6057,-0.1955 0.8845,-0.3541"/>
      <path d="m 1196.5095,1415.7612 c 0.5652,0.3934 1.1844,0.5127 1.8552,0.3553 -0.1683,-1.142 -1.2335,-1.1605 -1.8552,-0.3553"/>
      <path d="m 1196.7811,1413.2842 c 1.0246,1.1248 5.2039,0.2114 5.6634,-1.2392 -0.629,-0.547 -1.5222,-0.5175 -2.2788,-0.3491 -0.5837,0.1291 -2.7495,0.4954 -0.559,0.7929 -1.0419,0 -2.1156,-0.1635 -2.8256,0.7954"/>
      <path d="m 1200.5894,1410.7173 c -0.9262,-0.8334 -2.6707,0.3332 -3.6363,0.5311 1.2371,-0.072 2.6401,0.5446 3.6363,-0.5311"/>

      <path d="m 1198.9064,1414.0808 c -0.2948,0.03 -0.5897,0.059 -0.8845,0.089 0.3329,0.1942 0.6855,0.3417 1.0564,0.4413 -0.058,-0.1758 -0.1141,-0.3528 -0.1719,-0.5298"/>
      <path d="m 1215.6263,1399.2995 c -0.3279,0.2065 -0.6547,0.413 -0.9827,0.6195 0.6671,-0.1561 1.3181,-0.3626 1.9533,-0.6195 -0.3243,0 -0.6474,0 -0.9706,0"/>
      <path d="m 1215.5268,1399.8305 c 1.0419,-0.3061 1.887,0.8778 2.7519,-0.1782 -0.9177,-0.4032 -1.8599,-0.1205 -2.7519,0.1782"/>
      <path d="m 1218.2799,1403.6365 c 0.2912,-0.03 0.5812,-0.059 0.8723,-0.089 -0.7605,-0.1943 -1.462,-0.6073 -2.027,-1.1507 -0.082,0.7659 0.3931,1.2564 1.1547,1.2392"/>
      <path d="m 1218.3659,1401.7778 c -0.3279,0.028 -0.6548,0.059 -0.9828,0.087 0.29,0.2877 0.618,0.5237 0.9828,0.7081 0,-0.2643 0,-0.5298 0,-0.7953"/>
      <path d="m 1218.7223,1402.4858 c -0.2876,0.6147 0.01,0.7622 0.8844,0.4414 -0.2948,-0.1463 -0.5897,-0.2926 -0.8844,-0.4414"/>
      <path d="m 1221.8181,1397.7063 c -0.7163,-0.1537 -1.4214,0.1376 -1.8673,0.708 0.6818,-0.079 1.3046,-0.3147 1.8673,-0.708"/>
      <path d="m 1221.6338,1392.9267 c 0.3746,0.2692 0.7875,0.3577 1.2407,0.2655 -0.1731,-1.2318 -0.6903,-0.9208 -1.2407,-0.2655"/>
      <path d="m 1226.7677,1390.5369 c 0.7224,-0.3909 1.4877,-0.6577 2.2973,-0.7966 -1.1892,-0.5446 -2.618,-0.3282 -3.1818,0.9748 0.2949,-0.06 0.5908,-0.1192 0.8845,-0.1782"/>

      <path d="m 1227.4692,1388.1471 c -1.7396,-1.3498 -1.4423,1.9423 0.3563,0.4413 -0.1192,-0.1463 -0.2384,-0.2926 -0.3563,-0.4413"/>
      <path d="m 1229.4225,1371.153 c -0.242,0.2717 -0.4508,0.5667 -0.6265,0.8851 1.1486,0.6811 2.3206,-0.6491 1.8673,-1.7702 -0.4791,0.2029 -0.8932,0.4979 -1.2408,0.8851"/>
      <path d="m 1229.9507,1387.616 c -0.2947,0.118 -0.5896,0.2361 -0.8844,0.3541 0.3096,-0.08 0.6055,-0.1967 0.8844,-0.3541"/>
      <path d="m 1230.6633,1387.1722 c -0.3624,-0.1118 -0.6904,-0.023 -0.9828,0.2668 0.3267,-0.089 0.6548,-0.177 0.9828,-0.2668"/>
      <path d="m 1231.1056,1371.0645 c 0.8071,0.1709 1.4729,-0.3491 1.769,-1.0621 -0.7826,-0.4536 -1.9165,0.07 -1.769,1.0621"/>
      <path d="m 1232.3341,1382.0398 c 0.6228,-0.054 1.2456,-0.1131 1.8673,-0.177 -0.6425,-0.1475 -1.2653,-0.089 -1.8673,0.177"/>
      <path d="m 1233.7469,1369.7368 c -0.2052,0.2951 -0.4091,0.5889 -0.6143,0.8851 1.3292,-0.9256 3.4078,-0.4695 4.5086,-1.7689 -0.8145,0.1426 -1.1118,-0.5815 -1.8551,-0.6196 -0.7309,-0.037 -1.1707,0.5642 -1.941,0.354 0.4963,0.5864 0.2875,0.8212 -0.6266,0.7081 0.1758,0.1475 0.3514,0.2938 0.5284,0.4413"/>
      <path d="m 1237.9115,1368.8517 c 0.5823,-0.6245 -0.4202,-0.7978 -0.7986,-0.7966 0.2666,0.2656 0.532,0.5311 0.7986,0.7966"/>
      <path d="m 1237.4692,1378.942 c 0.2371,0.9724 0.9705,1.3043 0.9705,-0.089 -0.3243,0.03 -0.6474,0.059 -0.9705,0.089"/>

      <path d="m 1238.4386,1369.0288 c 1.5085,1.067 4.764,-0.5729 5.4913,-2.0358 -0.7395,-0.011 -1.3624,0.2557 -1.8673,0.7966 -0.5099,-1.9042 -2.9349,0.8642 -3.624,1.2392"/>
      <path d="m 1242.5061,1365.9309 c 1.1572,-0.05 2.5688,-0.2201 3.4521,-1.0621 -0.8944,-0.2299 -0.7358,-0.4156 -0.4939,-1.0278 0.2838,-0.7167 -1.4827,-1.4137 -1.8894,-1.7149 0.049,0.6405 -0.042,1.2589 -0.2703,1.8588 -0.9668,-1.1556 -2.8832,0.6392 -4.1524,1.2391 1.3613,1.1531 3.1548,-1.099 4.6807,-0.4425 -0.5873,0.2852 -1.2052,0.4634 -1.8551,0.5323 0.1757,0.204 0.3514,0.4106 0.5283,0.6171"/>
      <path d="m 1241.4496,1366.7275 c 0.5921,0.075 1.0922,-0.1021 1.4988,-0.5311 -0.7985,-0.3208 -1.7016,-0.3307 -2.4694,0.089 0.3231,0.1475 0.6462,0.2951 0.9706,0.4426"/>
      <path d="m 1242.8612,1363.2756 c 0.1338,-0.7118 -0.1893,-0.7118 -0.9706,0 0.3243,0 0.6474,0 0.9706,0"/>
      <path d="m 1242.0638,1369.1173 c 0.328,-0.1475 0.6548,-0.2951 0.9828,-0.4426 -0.4053,-0.01 -0.7334,0.1414 -0.9828,0.4426"/>
      <path d="m 1243.2186,1372.0381 c 0.6388,-0.011 1.2568,-0.1278 1.855,-0.354 -0.6167,-0.5126 -1.5614,-0.5249 -1.855,0.354"/>
      <path d="m 1246.1302,1364.8688 c 0.09,0.295 0.1806,0.5888 0.2702,0.8851 -0.5712,0.2126 -1.1609,0.3319 -1.769,0.354 0.9177,1.0044 -0.6634,1.4752 -0.7003,2.4795 0.8256,-0.7265 1.8613,-1.1445 2.9117,-1.4161 -0.2778,0.3159 -0.5431,0.6404 -0.7986,0.9736 0.5381,0.022 1.2358,0.5286 1.769,0.354 0.661,-0.2176 0.9694,-1.2748 1.5111,-1.6817 -0.092,2.0431 0.8624,0.2864 1.3268,-0.2225 0.5209,-0.5692 1.3181,-0.3307 1.9779,-0.3577 1.2113,-0.05 2.3317,-1.7149 1.0626,-2.5361 -0.5442,-0.3528 -1.699,-0.5544 -2.1732,0.038 -0.6707,0.8384 -2.075,1.4887 -3.0786,2.5472 0.039,-0.257 2.8218,-3.5036 0.4423,-1.7703 0.8059,-1.0252 0.5036,-2.6073 -1.1094,-1.8329 -0.7715,0.3713 -1.0799,2.1341 0.041,2.187 -0.5614,-0.1955 -1.1228,-0.1955 -1.683,0"/>
      <path d="m 1247.7272,1362.3905 c 1.258,-0.2287 2.86,-1.2478 3.1818,-2.5681 -1.6952,-0.8974 -4.2935,1.528 -4.7788,3.0094 0.6253,0.1942 1.1585,0.047 1.597,-0.4413"/>
      <path d="m 1247.7272,1370.8863 c -0.2948,0.1192 -0.5897,0.236 -0.8844,0.3552 0.9164,0.1439 1.844,0.033 2.7395,-0.1782 -0.6191,-0.053 -1.2371,-0.1131 -1.8551,-0.177"/>

      <path d="m 1250.9951,1367.0815 c 2.6523,1.86 2.0356,-2.3775 0,0"/>
      <path d="m 1253.4766,1363.2756 c 0.2949,-0.1476 0.5897,-0.2951 0.8846,-0.4426 -0.6573,-0.3393 -1.2753,-0.2815 -1.8551,0.1783 0.3231,0.087 0.6463,0.1757 0.9705,0.2643"/>
      <path d="m 1256.5725,1359.7351 c 0.3231,-0.03 0.6474,-0.059 0.9705,-0.089 -1.2936,0.295 -1.2936,0.5901 0,0.8851 -0.6081,0.2385 -1.226,0.445 -1.855,0.6196 1.1056,0.6356 2.4066,0.3577 3.4681,-0.2151 1.2555,-0.6786 2.8059,0.023 4.1375,-0.3147 -1.1203,-0.2557 -1.1781,-0.5348 -0.1731,-0.8372 0.5773,-0.6331 0.9139,-2.1169 -0.6131,-1.2883 2.1622,-0.6184 -0.1474,-0.7659 -0.8918,-1.1384 -2.333,-1.1666 0.5195,1.8415 -1.505,-0.2778 1.9202,1.6817 -1.4017,0.1672 -2.2973,0.6196 0.5553,0.4954 1.2015,0.7019 1.941,0.6196 -1.3353,0.4868 -2.7813,0.2409 -4.1524,0.5322 0.8686,-0.087 1.0701,0.064 0.9706,0.8839"/>
      <path d="m 1257.543,1364.5147 c -0.088,-1.3842 -1.4631,-0.5901 -1.855,0.089 0.6154,-0.08 1.2334,-0.1106 1.855,-0.089"/>
      <path d="m 1257.6413,1363.3641 c 0.5541,0.5728 1.3465,0.724 2.027,0.2655 -0.4004,-0.5065 -1.6659,-1.2797 -2.027,-0.2655"/>
      <path d="m 1268.6978,1356.1062 c 0.5185,-0.2201 0.989,-0.5139 1.4128,-0.8851 -0.8464,-0.4241 -1.7223,-1.1408 -2.7396,-0.7081 1.2212,0.3626 0.9091,0.8765 0.1721,1.4149 -0.1708,-0.327 -0.3465,-0.6515 -0.5283,-0.9724 -0.6597,0.3639 -1.9238,1.0683 -0.098,1.0609 -0.6535,-0.1991 -3.3158,0.8052 -0.9705,0.5311 -0.7236,0.026 -1.371,0.2619 -1.9411,0.7081 0.8772,0.3626 4.9202,0.5151 4.6929,-1.1494"/>
      <path d="m 1267.5431,1353.2738 c 0.597,-0.3393 1.2149,-0.6343 1.855,-0.8851 -0.618,0.097 -1.2358,0.097 -1.855,0 0,0.2963 0,0.5901 0,0.8851"/>
      <path d="m 1268.4276,1353.2738 c -0.5824,3.7347 5.2359,0.1476 5.8354,0 -0.8035,0.068 -1.4828,-0.1106 -2.0086,-0.01 -0.2875,0.055 -0.6315,-0.67 -1.0013,-0.7008 -1.0233,-0.086 -1.8833,0.4365 -2.8255,0.7081"/>
      <path d="m 1269.9263,1351.5036 c 0.3096,0.209 0.6377,0.386 0.9829,0.5311 0.2026,-0.82 -0.7716,-1.6596 -0.9829,-0.5311"/>

      <path d="m 1271.6954,1352.0335 c 0.3932,0.1044 0.7777,0.075 1.1548,-0.087 -0.3857,0.029 -0.7703,0.059 -1.1548,0.087"/>
      <path d="m 1274.7913,1353.2738 c -0.6229,0.3627 -1.1843,0.8052 -1.6832,1.3265 0.9497,-0.1365 2.1451,-0.2213 2.4817,-1.3265 -0.2666,0 -0.5332,0 -0.7985,0"/>
      <path d="m 1275.86,1351.9462 c -0.7837,-0.6602 -1.7678,-0.8175 -2.7519,-0.8851 1.462,0.7658 1.8232,2.4082 3.7225,1.3276 -0.3244,-0.1475 -0.6475,-0.295 -0.9706,-0.4425"/>
      <path d="m 1278.7704,1351.9462 c 0.6007,1.6399 2.6831,0.8507 2.8379,-0.6196 -0.9939,-0.3516 -2.0357,0.015 -2.8379,0.6196"/>
      <path d="m 1280.983,1354.9555 c 0.1793,-0.295 0.3599,-0.59 0.5405,-0.8863 -0.704,-0.2815 -1.2372,0.011 -1.2408,0.7966 0.2334,0.032 0.4668,0.06 0.7003,0.09"/>
      <path d="m 1281.5235,1353.2738 c 0.6462,0.4844 1.4656,0.4844 2.1129,0 -0.5625,0.073 -1.651,-0.5458 -2.1129,0"/>
      <path d="m 1287.6168,1353.2738 c -0.028,-0.2126 -0.092,-0.2089 -0.6142,-0.354 0.204,0.118 0.4091,0.2373 0.6142,0.354"/>
      <path d="m 1298.5874,1346.547 c 0.1192,-0.118 0.2371,-0.236 0.3563,-0.354 -0.9128,0.095 -1.8538,0.2938 -2.7384,-0.087 2.0038,2.2546 -4.4546,0.023 -1.511,1.4149 -0.9398,0.014 -1.6131,-0.7917 -2.4054,-0.1106 -0.6868,0.5888 -2.398,0.1389 -3.258,0.2889 0.6007,0.2717 1.2235,0.4782 1.8673,0.6196 -0.2789,0.2557 -0.5725,0.4917 -0.8845,0.708 1.1781,-0.8949 2.9913,-0.1794 4.3243,-0.3097 1.6044,-0.1611 2.9275,-1.3683 4.2494,-2.1698"/>
      <path d="m 1294.9633,1351.0611 c 0.3231,0 0.6475,0 0.9706,0 -0.5148,-1.029 -2.5688,-1.3793 -3.5382,-0.9749 0.6327,0.8704 1.6032,0.8655 2.5676,0.9749"/>

      <path d="m 1299.913,1348.2287 c -0.056,-0.1475 -0.1143,-0.2938 -0.172,-0.4413 -1.2457,1.4285 -3.2101,0.7253 -4.6069,1.8587 0.9914,0.7647 2.2346,-0.4634 2.2113,1.1507 0.6818,-0.5041 3.9545,-1.2392 2.5676,-2.5681"/>
      <path d="m 1302.6537,1348.6713 c 1.0087,-1.3719 -0.4152,-1.5465 -1.4901,-1.6018 -2.3625,-0.1205 -0.081,1.887 1.4901,1.6018"/>
      <path d="m 1301.5972,1344.5998 c 0.5173,0.531 1.1365,0.7081 1.8551,0.5323 -0.3292,-0.4844 -1.3096,-1.3769 -1.8551,-0.5323"/>
      <path d="m 1302.2115,1343.8917 c 0.2801,0.1733 0.575,0.1438 0.8846,-0.088 -0.2949,0.031 -0.591,0.059 -0.8846,0.088"/>
      <path d="m 1315.3074,1344.5998 c 0.3243,0 0.6462,0 0.9705,0 -1.3059,0.07 -1.0418,-0.4524 -0.4423,-1.0622 -0.6941,-0.2077 -1.3968,-0.3847 -2.1069,-0.531 -0.9373,0 -1.6572,0.6663 -2.586,0.7081 0.618,0.1327 0.9546,0.772 1.4055,1.1408 0.608,0.5003 2.0946,-0.1574 2.7592,-0.2557"/>
      <path d="m 1171.9284,1433.0221 c 1.871,-0.9048 3.9091,-0.1094 5.8354,-0.7081 -0.4349,-0.08 -0.8514,-0.023 -1.247,0.1696 -0.8943,0.2926 -1.5822,-0.3638 -2.4631,-0.3466 2.8538,-0.847 -1.8907,-0.4156 0.8722,-0.9737 -0.9704,-0.1524 -1.9446,0.012 -2.9115,0.089 0.968,-0.193 1.9729,-0.1869 2.9115,-0.5311 -0.8414,0.1967 -3.0073,0.8126 -2.9975,-0.7081 0.6928,0.086 1.312,-0.091 1.855,-0.5323 -2.3636,0.2385 1.231,-1.3141 1.8551,-1.3277 0.7555,-0.016 1.1572,0.5717 1.855,0.7081 0.6942,0.1353 2.9214,-0.5642 1.3268,0.9749 0.3846,-0.9564 5.3084,-1.5981 6.29,-1.1519 -1.0664,-0.5815 -2.3452,0.1635 -3.4706,-0.043 -0.5995,-0.1094 -5.516,-0.3159 -2.9913,-0.3995 -1.5344,-0.1095 -3.9939,0.6085 -5.3072,-0.4414 0.7248,0.043 1.3428,-0.193 1.855,-0.7081 -0.4066,-0.4437 -2.2199,-0.7019 -2.1536,-1.4973 0.095,-1.1395 2.6057,0.8851 2.6819,1.5859 0.3329,-0.1525 0.6277,-0.359 0.8845,-0.6196 -1.6228,0.018 -0.3673,-1.9214 1.0688,-0.089 0.087,-0.8667 1.1081,-1.4506 1.242,-0.4229 0.081,0.6282 2.5615,0.5065 2.9964,0.5114 -0.7212,-0.1598 -3.1831,-1.1519 -1.6745,-2.0567 1.8169,-1.0891 2.1069,-0.01 3.4435,1.0818 -2.3649,-4.6579 5.8317,-1.3547 2.5676,0.7966 0.704,0.1734 1.355,0.055 1.9533,-0.354 -0.7383,-0.1574 -1.2764,-0.7855 -0.5405,-1.415 0.3857,-0.3294 1.4484,0.1525 1.9533,-0.088 -2.0823,0.076 -2.301,-1.0228 -3.9313,-1.6264 -1.2861,-0.4782 -2.7272,0.2963 -4.0294,-0.055 1.0319,-0.343 2.1216,-0.2188 3.1818,-0.354 -0.968,-0.5925 -2.102,-0.107 -3.0098,-0.8851 1.6965,-0.375 3.71,-0.8913 5.4115,-0.2692 1.4411,0.5261 3.8305,1.2932 5.2028,0.3577 -0.6377,0.1696 -1.2838,0.2286 -1.941,0.1782 0.2371,-1.9681 3.64,-1.7788 4.9508,-1.3276 -1.6597,-1.7014 -3.8771,1.0215 -5.6634,-0.2656 0.6216,-0.1635 1.2408,-0.3393 1.855,-0.5298 -1.3943,0.068 -3.5209,1.3326 -4.6806,0 0.5676,-0.2336 1.1573,-0.3233 1.769,-0.268 -0.7567,-0.1598 -1.4078,-0.5138 -1.9533,-1.0621 0.9411,-0.6552 2.0651,-0.8937 3.0676,-0.1918 1.0221,0.7155 1.9582,-0.3774 3.0394,-0.161 0.9889,0.1979 1.8476,-0.3664 2.2494,0.8912 0.3366,1.056 2.3575,1.1556 3.1437,1.7653 -0.9558,-1.7038 -3.5111,-1.6854 -3.9803,-3.8072 0.7125,-0.4511 1.8145,0.4758 2.226,0.9564 0.9951,1.1654 0.4607,0.9269 2.2826,0.9909 -1.7827,-0.1734 -0.6118,-0.9134 0.1843,-1.0622 -0.3625,-0.032 -3.5554,-0.1327 -0.9706,-0.2655 -0.3907,0.026 -2.7469,-0.8077 -1.4509,-1.1027 1.5001,-0.3405 3.2544,-0.4032 4.8047,-0.6675 -0.9165,0.1205 -1.8943,0.2188 -2.7395,-0.2643 0.3526,-0.3332 0.6622,-0.7032 0.9288,-1.1076 0.5307,-0.6491 1.0355,-0.2434 1.6952,-0.5028 1.0234,-0.402 2.0861,-0.018 1,1.0793 0.8981,-0.413 1.871,-0.6196 2.8379,-0.7953 -0.6868,0.1266 -1.3661,0.097 -2.0394,-0.089 0.5578,-0.3946 1.177,-0.6318 1.8551,-0.708 -0.6179,-0.098 -1.2371,-0.098 -1.8551,0 0.9522,-0.6405 2.2974,-0.9368 3.3896,-1.2429 1.2861,-0.3602 3.0908,1.8428 1.2173,2.659 0.919,-0.3405 1.8785,-0.1475 2.8256,-0.1782 -2.4054,-0.5643 0.5467,-1.1175 1.1966,-1.1113 1.0836,0.012 2.2383,0.3012 3.3121,0.05 -0.6622,-0.8077 -0.4865,-1.1617 0.5282,-1.0621 -0.645,-0.2312 -1.2641,-0.1734 -1.855,0.177 1.4447,-1.115 3.1155,-2.0014 4.9509,-2.2128 -0.072,-0.7954 -0.6327,-1.0572 -1.3268,-0.7081 0.2813,-1.2072 1.5835,-1.1592 2.4828,-1.5932 -0.806,-0.1045 -3.0259,0.4008 -0.9706,-0.7966 -1.8538,0.074 -2.9434,2.1464 -4.7788,2.3898 0.6683,0 1.2862,-0.1795 1.8551,-0.5311 1.0638,1.4617 -2.3982,2.546 -3.2433,2.8471 -2.774,0.9921 -3.3735,1.5146 -4.9755,-0.8125 0.7752,0 1.4643,-0.3811 2.027,-0.8851 -1.2838,0.3073 -2.5786,0.6318 -3.796,1.1518 0.6928,-0.4597 1.5036,-1.0719 -0.098,-1.0621 1.3993,-0.6183 3.2568,-1.9411 4.8649,-1.3277 -0.6672,-0.4167 -1.3133,-0.386 -1.941,0.089 0.2776,-0.2581 0.5712,-0.4941 0.8844,-0.708 -2.011,0.4093 0.1106,-0.7266 0.6377,-1.1482 0.6535,-0.5237 0.2641,-1.1986 1.4029,-0.7991 -0.8882,-2.4648 4.5651,-1.823 4.0664,-3.983 0.9852,0.2938 1.5528,1.2724 2.5675,1.5047 -0.129,0.3356 -0.2813,0.6602 -0.4545,0.9749 0.898,-0.5852 1.9349,-1.0954 3.0098,-1.2404 -1.7384,0.177 -0.7088,-1.0585 0.1843,-1.0621 -0.602,-0.2275 -1.2248,-0.3442 -1.8673,-0.3529 0.02,-1.4063 1.9644,-1.4309 2.9238,-1.6817 -0.4767,-0.017 -0.9472,-0.076 -1.4128,-0.177 1.6081,-1.2391 3.9534,-1.5637 5.8354,-0.7966 -3.1363,-1.5452 -5.4275,1.4592 -8.489,1.4162 1.2077,-0.359 1.1794,-0.5938 -0.086,-0.7081 0.8955,-0.4708 1.941,-0.2004 2.8255,-0.7081 -0.6978,0.2791 -1.4066,0.3086 -2.1253,0.088 0.5959,-0.2434 1.215,-0.3331 1.855,-0.2667 -2.8365,-0.5741 3.1684,-0.8298 0,-0.6196 0.8625,-0.075 1.7212,-0.2815 2.4817,-0.7081 -2.2064,0.057 -0.026,-0.9994 0.7985,-0.177 0.1499,-1.1347 1.4434,-1.2551 1.683,-0.089 -0.7186,0.2938 -1.4558,0.3528 -2.2113,0.1782 2.0652,0.9577 4.8624,-0.5642 6.3637,-1.9472 -0.661,0.3196 -1.2617,0.7437 -1.9337,1.0425 -0.6155,0.2716 -3.113,0.1917 -0.8919,-0.069 -1.2395,-0.1131 -1.0786,-0.6146 -0.4422,-1.2391 -0.7347,-0.1402 -1.4141,0.2274 -1.8551,0.7953 -0.6376,-0.8679 0.1585,-2.8004 1.3268,-2.7426 0.2567,0.2176 0.4803,0.4647 0.6707,0.7438 0.6462,0.6257 1.5541,0.09 2.2409,-0.1242 -0.2839,0.081 -2.3723,-0.7376 -2.4571,-0.8716 -1.1302,-1.7948 1.1991,-1.2994 2.0996,-0.8101 -2.3158,-0.9159 0.5123,-4.4194 3.1818,-1.7702 -0.3194,-1.4555 -2.5185,-2.0751 -3.7101,-1.9473 1.2236,-0.039 3.3956,-1.2514 4.6118,-1.694 1.1265,-0.4093 0.7273,0.2201 1.43,0.6516 0.4497,0.2753 1.2469,-0.1205 1.747,-0.019 -1.5026,-0.3724 1.7813,-0.9797 2.4693,-1.6817 -2.4828,0.5926 -5.0369,0.8188 -7.5186,1.415 0.6217,-0.9786 1.7077,-1.072 2.7519,-1.1507 -0.9729,-0.1585 -1.9619,0.1045 -2.9238,-0.1782 0.8107,-0.5766 0.6806,-1.2699 -0.1843,-1.6805 0.9042,-0.6208 1.2616,0.4487 2.1254,0.4413 0.2972,0 2.6731,-1.1592 2.8377,-1.3276 -1.4324,-0.4291 -2.8636,1.2772 -3.8943,-0.4414 0.64,-0.1843 1.2862,-0.2139 1.941,-0.089 -0.4607,-0.1794 -0.9312,-0.3282 -1.4128,-0.4425 1.2372,-0.3246 2.5062,0.3577 3.7225,-0.087 -0.3662,0.039 -3.0578,-0.1254 -0.7986,-0.3553 -2.468,-0.2409 1.4828,-0.3282 1.855,-0.3528 -1.0209,-0.1573 -1.8538,-0.7978 -2.8378,-1.0621 0.9681,-0.4967 2.2776,-0.9515 3.3808,-0.7536 1.4226,0.2557 2.4448,-1.0375 3.8796,-0.3085 -0.5958,-0.3639 -1.2432,-0.5409 -1.941,-0.5311 0.36,-1.2465 4.4104,-1.903 4.4104,-0.9736 1.0577,-0.67 2.6425,-0.1943 3.5381,0.531 0,-0.9871 0.1683,-1.1592 1.1547,-0.7953 -1.2223,-0.241 -2.4176,-0.7093 -3.6732,-0.7561 -1.7568,-0.066 -3.0405,0.6885 -4.8158,-0.04 0.7298,-0.209 1.1303,-0.9503 1.8552,-1.1507 0.8254,-0.2274 1.1743,0.8397 1.855,-0.1782 -0.6377,0.048 -1.2555,-0.041 -1.855,-0.2656 0.8501,-0.4745 1.9385,-1.1678 2.9238,-0.531 -0.3563,0.177 -0.7126,0.354 -1.0688,0.531 0.8919,-0.2188 1.9386,-0.3663 2.8378,-0.088 0.8133,0.2508 1.4177,1.3584 2.3834,0.9737 -2.0038,-0.075 0.2174,-1.7088 1.1547,-1.6805 -1.5688,-0.1783 -3.0528,0.6638 -4.6069,0.087 2.9878,-0.6553 -1.3993,-0.02 0.3391,-1.2834 0.5393,-0.3922 1.4656,0.1032 2.0565,0.044 -2.2727,-0.3639 1.0025,-0.3258 1.8551,0.177 -2.2703,-2.2877 -4.4705,0.2078 -6.9903,0.2668 0.3957,-0.6442 1.091,-1.0671 1.8551,-1.0621 -0.7138,-0.054 -1.3599,-0.2902 -1.9411,-0.7081 0.6155,-0.08 1.2335,-0.1107 1.8551,-0.088 -3.0148,-0.118 2.3809,-0.6823 2.9054,-0.7303 0.7998,-0.074 2.7138,0.4377 3.0283,-0.6859 -1.4705,-0.7941 -3.0589,-0.091 -4.607,-0.2668 0.5702,-1.0781 1.7262,-0.7683 2.6536,-1.2391 -1.5282,1.9927 1.6254,-0.9429 2.5738,-0.3369 1.1842,0.7561 0.2998,3.2295 2.3772,3.0819 -0.7273,-0.145 -1.2691,-0.6896 -1.4128,-1.4161 0.4312,0.3454 3.414,1.485 0.8845,0 1.038,0.5814 1.2751,0.3749 0.7126,-0.6196 0.64,0.1844 1.2874,0.2139 1.941,0.088 -1.0184,-0.065 -2.0332,-0.2274 -3.0099,-0.5311 0.4607,-0.2053 0.9312,-0.3835 1.4128,-0.5323 -0.6658,-0.1598 -1.3415,-0.2483 -2.027,-0.2655 1.2997,-0.097 1.2997,-0.3921 0,-0.8851 1.3587,0.4069 2.5725,1.2502 3.9803,1.5047 -1.188,-0.3184 -2.3747,-1.1347 -3.2801,-1.9473 1.4558,-0.098 2.8722,-0.4843 4.2912,0.085 0.6093,0.061 1.2211,0.098 1.8329,0.1118 0.6536,0.1795 0.4779,0.7364 1.3072,0.777 -0.4522,-0.033 -0.715,-0.241 -0.7888,-0.6245 0.2458,-0.6036 1.6303,-0.3934 2.0296,-0.1721 -2.4288,-0.5483 1.3267,-0.5544 1.855,-0.4426 -1.9103,-0.5741 -3.1388,-0.5593 -5.0861,-0.3208 -1.2272,0.1512 -3.3108,0.3147 -4.3734,-0.477 1.2579,-0.2311 0.7543,-1.5563 2.4841,-1.8194 1.6522,-0.252 3.3844,-0.071 5.0331,0.1377 -0.6351,-0.2938 -1.2813,-0.5594 -1.941,-0.7954 0.8575,-0.5606 1.8464,-0.1598 2.7396,0 -1.5419,-0.2225 -0.8797,-0.6712 -0.098,-1.0621 -2.4767,0.2409 0.3256,-2.5939 2.3955,-2.2128 -2.3562,-1.7727 3.0824,-4.7365 2.6536,-0.7081 0.2433,-1.6436 2.0418,-1.2662 3.3661,-0.708 -1.2481,-0.5827 -2.7837,-0.6098 -3.538,-1.9473 1.108,-0.2581 2.0589,0.072 3.0172,0.6061 1.0773,0.5999 3.4557,0.563 2.7334,1.8722 0.6745,-0.077 1.2543,-1.3277 0.2739,-1.3277 -1.0602,0 -2.0577,0.2213 -2.6683,-0.8863 0.5221,-0.5569 1.1401,-0.7044 1.8551,-0.4413 -0.6352,-0.2852 -1.2826,-0.3159 -1.941,-0.089 -0.2053,-2.4242 3.2419,-2.1624 4.7788,-2.4783 -0.1474,1.3153 0.093,2.391 -0.5405,3.6277 0.8759,-0.5778 1.2358,-2.2214 2.5675,-1.592 -1.9312,-0.1143 -0.4545,-2.9171 -0.086,-1.5944 0.3882,-1.0339 1.7544,-0.6442 1.8551,-1.8587 2.3281,0.9527 -0.8599,5.2196 -1.7691,6.1957 0.9914,-0.6749 2.247,-0.847 2.7457,-2.0874 0.5099,-1.2649 2.3699,0.1537 3.188,0.2299 -2.9594,-1.024 -1.6842,-3.5638 0.7986,-4.0727 -0.3207,0.241 -0.6192,0.5065 -0.8969,0.7966 1.1413,1.4457 1.274,-0.713 2.4816,0.177 -2.1216,-3.0204 5.618,0.8163 6.1057,0.8864 -0.4484,-0.5114 -1.0086,-0.8065 -1.683,-0.8864 1.0835,0.011 1.1756,-0.085 0.2739,-0.2876 -0.554,-0.3836 -0.6118,-1.6707 0.7826,-0.5963 -0.3674,-0.9982 -2.7371,-0.9527 -0.6143,-1.5046 -1.4619,0.4376 -4.4521,0.1585 -5.5774,-1.0622 0.6499,-0.2311 1.2715,-0.1721 1.8674,0.1771 0.088,-0.3246 0.1744,-0.6479 0.2579,-0.9737 0.6757,0.3418 1.3268,0.7253 1.9533,1.1519 0.2936,-2.1771 2.016,0.022 3.0972,-0.8863 -0.2765,1.1568 0.9631,1.303 1.7677,1.4161 -0.6917,-0.049 -1.1351,-0.4671 -1.2407,-1.1506 1.2198,-0.2041 2.5172,0.2557 3.71,0.4413 -0.2948,1.3584 -2.2579,1.163 -3.2678,1.2392 1.3059,0.039 2.7519,0.028 3.8944,-0.7069 0.1437,2.3259 2.3869,1.3818 3.796,1.3277 -0.1646,-0.5077 -1.4766,-0.3455 -2.0269,-0.8851 0.8402,-0.4352 1.5859,-0.9454 -0.098,-1.1519 0.3992,0.028 3.4275,-0.2311 0.8844,-0.4426 1.0197,0.2078 1.6217,-1.1149 2.3552,-1.5538 1.1105,-0.6663 2.3685,-0.3516 3.5785,-0.3934 -1.7972,-1.501 1.5086,-1.3166 2.2126,-1.769 -0.8821,-0.4524 -1.9214,-0.3651 -2.7396,-0.9736 0.9865,-0.815 2.0025,0.504 2.9115,-0.5323 -2.5613,-0.5102 1.3773,-0.9613 2.306,-0.7634 0.063,0.014 3.6167,2.4132 1.8587,0.1438 1.2666,-0.1204 2.4595,1.1064 3.7113,0.4426 -0.7592,1.93 -3.5995,2.0579 -4.8648,3.5404 0.7076,-0.1758 1.1252,0.166 1.1535,0.8851 -0.441,0.044 -1.8648,1.367 -1.7678,2.3013 0.6167,-0.3479 1.7998,0.3307 2.043,-0.076 0.2605,-0.4401 0.6204,-0.7732 1.0811,-1.0019 0.5528,-0.3872 -0.2641,-0.6478 0.058,-1.0461 1.4779,-1.8268 5.0799,-4.6088 7.3343,-5.2222 0.3919,1.4764 0.479,2.3542 -1.3268,2.4783 1.7039,-0.2987 1.5957,1.7297 1.0687,2.7439 0.742,0.077 0.8379,-0.3135 1.242,-0.7733 0.5885,-0.6675 1.6475,-0.1745 2.3822,-0.2004 -0.236,-0.322 -0.4706,-0.6466 -0.7003,-0.9736 0.6265,-0.1192 1.2445,-0.09 1.8563,0.087 -0.6966,-0.15 -1.1438,-0.7044 -1.1549,-1.415 1.0578,0.07 1.8465,-0.9895 2.9239,-0.5322 -0.7175,-0.8778 -1.8452,-0.7561 -2.8379,-0.9724 0.6733,-0.1107 6.2113,-3.1262 6.6389,-1.0634 0.076,0.3614 1.7801,0.4327 2.1057,0.745 0.9041,0.8691 -3.6426,1.4088 -3.8797,1.5575 0.6758,-0.077 1.2973,0.071 1.8673,0.4413 -0.9594,0.2545 -1.8599,0.6946 -2.8378,0.8864 1.2249,-0.042 2.9423,-1.0744 4.0664,-0.1783 -0.9005,0.6085 -1.9349,0.9564 -2.9116,1.4162 1.1708,0.08 2.3808,-0.386 3.5381,-0.089 -0.6363,0.3688 -1.0442,1.0228 -0.7973,1.769 -0.096,-1.2441 1.0958,-1.9657 2.2113,-1.8587 -2.2912,0.021 0.3489,-2.6873 1.0983,-3.1373 0.9976,-0.5999 4.7175,-0.034 3.6806,1.7199 0.8845,-0.2644 2.8772,-1.2773 3.1831,0.2667 1.2628,-1.2736 4.3821,0.5262 2.296,0.9736 1.9116,-0.145 4.7605,-0.4118 6.3158,1.1544 1.0061,1.0154 -2.2519,1.3596 -2.7076,1.4518 -2.0479,0.4118 -3.2138,1.6387 -5.5025,1.3141 -1.8452,-0.2618 -5.4251,-1.6055 -7.0369,-0.2028 1.1339,0.071 2.258,0.236 3.3747,0.4352 0.7863,0.1401 4.8194,0.2557 2.3747,1.1568 1.0332,0.1364 3.4128,0.7191 0.9706,1.7702 0.8304,-0.1021 1.6572,-0.2213 2.4828,-0.3541 0.1007,0.7155 0.5209,0.7413 1.2285,0.7081 -0.1303,-0.4929 -0.188,-0.9957 -0.1733,-1.5059 0.9484,0.049 2.0578,0.1721 2.3956,1.2404 0.4668,-1.6104 2.7114,-0.8827 3.1548,0.3639 0.8882,2.4955 -4.3194,0.4339 -4.9374,0.1671 0.7163,1.6191 -1.215,2.2386 -2.382,2.5669 -0.6573,0.1844 -2.344,0.1979 -2.7789,0.8445 -0.5565,0.8298 0.071,1.426 -1.129,2.0726 -0.6806,0.3651 -1.3108,0.018 -1.8993,-0.343 -1.2027,-0.7375 0.3735,-1.4862 0.8551,-1.9546 1.2715,-1.2317 1.8476,-2.97 -0.5221,-3.5896 -1.817,-0.4757 -3.6671,-0.7425 -5.4288,-1.4334 -2.0086,-0.7879 -3.3206,-2.6012 -5.5897,-1.4641 -3.0258,1.5145 -8.7654,-0.1426 -10.0307,4.2326 -0.2913,1.0055 -0.5947,2.0185 -0.7015,3.0647 -0.066,0.6576 0.6437,1.7517 0.017,2.3172 -0.6917,0.622 -1.4165,0.3651 -2.2114,0.6823 -0.8193,0.3282 -1.1929,1.1789 -1.6707,1.8489 -1.1155,1.5649 -3.333,-0.2434 -4.7433,-0.6147 -0.9497,-0.2495 -1.9164,-0.4438 -2.8575,-0.7277 -1.161,-0.3492 -1.199,0.6503 -2.0836,0.9933 -2.7149,1.0535 -5.6265,0.4966 -8.3514,-0.2017 -1.194,-0.3048 -3.2161,-2.6036 -4.2616,-3.4568 -1.962,-1.5993 -3.6229,-2.0296 -5.876,-0.6798 0.2888,0.2729 0.5836,0.5384 0.8845,0.7966 -1.7579,0.981 -4.7002,0.017 -6.6339,0.8851 2.6364,1.0732 0.543,3.1421 -0.9705,4.0727 0.6388,0.1438 1.2568,0.3504 1.8551,0.6196 -2.9976,2.2976 -6.4767,-0.6011 -9.7273,-0.193 -1.5358,0.193 -2.6843,-1.0375 -4.2016,-0.3196 -1.0872,0.5138 0.2371,2.1857 0.048,3.0794 -0.6646,3.1077 -4.602,0.6761 -6.5308,1.3191 -3.1855,1.0609 -4.3587,4.2964 -7.3637,5.6745 0.7224,0.627 2.6118,1.7112 2.3821,2.8901 -0.1929,0.9933 -3.8427,3.0954 -4.688,4.0359 -0.5885,0.6552 -0.995,0.9588 -1.7395,1.3694 -0.8821,0.4868 0.4238,1.4998 -0.085,2.1575 -1.1142,1.442 -4.801,1.4678 -6.3981,1.4075 0.2666,0.9601 1.102,7.1571 -0.156,7.8382 -0.9877,0.5347 -1.4128,2.2189 -2.3353,3.0352 -1.2249,1.083 -2.3969,2.2852 -3.4301,3.5539 1.7212,0.5753 4.892,1.6645 3.5025,4.176 -0.9655,1.7456 -5.7764,0.4524 -7.4951,0.729 -1.5885,0.2557 -6.1893,2.7635 -6.274,4.6628 -0.044,0.9945 -0.9582,1.7714 -0.887,2.6651 0.055,0.7032 1.5885,2.6185 1.0124,3.0168 -1.2384,0.8519 -0.5161,3.2749 0.1191,4.5681 1.2617,2.573 -0.1757,4.2535 0.089,6.7969 0.1683,1.6153 2.1547,2.1501 3.3857,2.6258 0.6032,0.2336 1.5614,0.5766 1.7814,1.2773 0.1412,0.4475 -0.8981,3.0843 -1.4288,3.0819 -1.629,-0.01 -3.2408,0.4389 -2.5639,2.3369 0.4042,1.1334 1.4963,1.8133 1.9447,2.9196 0.5259,1.2982 -0.6204,1.9448 -0.4828,3.1889 0.1179,1.0572 -1.0897,1.9939 -1.9435,2.3222 -1.4165,0.5458 -2.7617,-0.1439 -2.6363,1.5256 0.067,0.8986 -0.9312,1.4346 -1.3391,2.1181 -0.4976,0.8322 0.8108,2.0861 0.7334,3.0167 -0.074,0.89 -0.5098,4.0211 -1.9398,3.763 -0.6561,-0.1193 -0.8452,-1.2871 -1.1991,-1.7285 -0.4226,-0.5286 -1.3968,-0.3774 -2.0061,-0.6884 -1.586,-0.8101 -2.742,-0.7302 -3.317,-2.616 -0.2555,-0.8384 -0.3919,-1.7321 -0.3784,-2.6086 0.01,-0.5433 0.5922,-2.868 0.806,-0.7671 0.9079,-1.6952 -1.4055,-2.2779 -1.575,-0.5126 -0.097,1.0093 1.1278,1.919 -0.022,2.7254 -0.2383,-0.2901 -0.4717,-0.5864 -0.7003,-0.8851 -0.1461,0.7536 -0.6633,0.9367 -1.3268,0.6196 1.2851,1.1838 1.5259,1.9509 1.0566,3.6289 0,-1.7825 -0.066,-0.2741 -0.688,0.2299 -0.5294,0.429 -1.1769,0.6577 -1.7384,1.0338 -0.9103,0.6098 -0.1805,1.1556 -1.5392,0.5016 -0.8145,-0.3921 -1.5701,-0.8986 -2.4104,-1.2342 2.3305,1.0092 -0.5135,2.6627 -1.855,2.568 0.2101,0.2938 0.4189,0.5889 0.6265,0.8851 -0.7494,0.2483 -1.5196,0.3676 -2.3095,0.3541 0.1547,0.3233 0.3059,0.6466 0.4545,0.9724 -1.7728,0.2655 -2.4042,2.0922 -3.8206,2.9442 -1.7372,1.0437 -3.6107,1.5256 -5.4989,2.1968 -0.7911,0.2815 -1.8256,1.0338 -2.6855,1.0277 -0.8587,0 -1.6511,-0.4401 -2.5172,-0.461 -1.3906,-0.033 -3.8759,0.5015 -4.8513,-0.8384 0.57,-0.5335 1.2173,-0.9466 1.941,-1.2392 -3.1155,1.9153 -13.0099,-4.3026 -8.7593,-6.6383 -0.2813,-0.2262 -0.5762,-0.4327 -0.8845,-0.6196 1.844,-0.1229 3.2064,1.6018 5.0492,1.5047 -0.3354,-0.2508 -0.6597,-0.5163 -0.9706,-0.7953 1.1548,-0.6713 2.5271,-0.8188 3.7961,-1.1519 -1.4705,0.118 -2.9472,0.4204 -4.1523,1.3276 0.1634,-0.7756 -0.2777,-1.4641 -0.9828,-1.7702 0.6192,-0.1881 1.242,-0.3651 1.8673,-0.531 -2.2801,-0.4549 1.9877,-1.5514 2.7396,-1.6817 -0.629,-0.027 -1.2421,0.063 -1.8366,0.2692 -1.0897,0.3208 -1.6451,-0.085 -0.1045,-0.2692 -0.6315,0.033 -1.2543,-0.026 -1.8673,-0.1771 1.3023,-0.8384 2.4718,-1.7603 3.9804,-2.2127 -0.8821,0.2114 -1.6807,-0.6307 -2.1733,0.3208 -0.3784,0.7302 -1.6155,1.4088 -2.3353,1.7161 0.042,-0.6933 0.4607,-1.1137 1.1547,-1.1531 -0.9754,-0.033 -2.0405,-0.061 -2.8378,0.6196 0.694,-0.3282 1.1191,-0.05 1.1547,0.7081 -0.6719,-0.077 -1.2911,0.07 -1.855,0.4438 0,-0.6798 0,-1.3572 0,-2.037 -0.4214,0.1389 -0.8059,0.3455 -1.1548,0.6196 2.3195,0.1979 -0.8218,2.9467 -0.172,0.4425 -0.1523,1.9252 -1.3796,0.096 -1.3439,-0.6626 0.052,-1.0977 1.0344,-2.1193 2.0442,-2.4352 -0.1155,0.8543 -0.2899,1.9779 -1.4128,1.9472 0.946,0.5925 1.2949,-0.075 1.5528,-0.8888 0.3464,-1.0941 1.9963,-0.177 2.8699,-0.6159 -2.4718,-0.3061 1.1756,-0.8064 1.683,-1.2391 -1.0418,0.6073 -2.4177,0.2557 -3.3661,-0.3553 0.8501,-1.1064 2.57,-2.7623 4.0786,-2.7426 -2.366,-0.7032 2.0701,-2.6025 2.8256,-3.0967 0.398,0.9737 -0.3158,1.844 -0.5282,2.7414 1.4938,-1.6682 1.925,-3.1495 4.4226,-3.3609 -1.9043,-0.3147 -4.0406,0.061 -5.8171,0.7707 -0.5307,0.2115 -2.2714,1.49 -2.5896,2.0383 -2.3662,4.0801 -1.1315,-0.2521 -3.005,0.022 0.1856,-0.5815 0.333,-1.1716 0.4423,-1.7702 -0.2592,0.5974 -1.172,2.4967 -2.1585,2.0468 -0.7973,-0.3639 -0.4864,-1.8452 -1.4656,-2.0468 0.6622,-0.1807 1.1868,-0.6823 1.4128,-1.3277 0.8821,2.5877 3.3022,-0.4979 2.7396,-2.2128 -1.2052,0.3012 -1.8231,1.769 -3.1389,1.769 -1.285,0 -1.3256,-1.9263 -2.4263,-2.3 1.0689,-0.011 2.3244,0.4683 2.9975,1.3276 -0.1215,-0.7978 -0.3562,-2.0849 0.8846,-2.0357 -1.151,-0.2778 -3.1745,1.4506 -3.4521,-0.6196 0.8047,0.5975 0.9546,0.5938 1.3268,-0.354 -0.9545,0.2471 -1.6917,-1.1949 0.2666,-0.8704 2.0725,0.343 3.3858,-0.4745 5.3968,-0.5458 1.446,-0.052 3.3367,0.9183 4.6695,0.037 1.4226,-0.9405 4.1942,1.249 2.2347,1.8218 0.6192,-0.3589 1.2667,-0.418 1.941,-0.1782 -2.0258,-1.4641 2.8134,-2.4574 3.6365,-2.4783 -2.6623,-0.332 -1.6672,-1.3916 -0.1843,-2.7439 -1.2101,0.4942 -2.7359,1.7162 -1.5849,3.0979 -0.9631,-0.072 -1.8808,0.429 -2.8377,0.088 0.3046,-0.2889 0.6277,-0.5544 0.9704,-0.7953 -0.8857,0.5691 -5.2457,0.7806 -3.2678,-0.8852 -1.081,0.1623 -0.9017,1.0806 -1.5233,1.7051 -0.9054,0.9097 -2.199,-0.032 -3.1757,-0.1881 -1.1167,-0.177 -3.0357,0.445 -4.1081,0.7647 -1.1425,0.3392 -2.0173,-0.7094 -3.048,-0.954 1.6659,-0.012 0.704,-0.638 0,-1.0621 1.1302,-0.5286 2.473,-0.7032 3.7102,-0.6196 -1.2114,-0.3811 -2.564,0.046 -3.7102,0.4426 0.7851,-1.0376 0.5799,-1.3031 -0.6228,-0.8003"/>
      <path d="m 1172.0144,1440.5443 c -0.2948,-0.1771 -0.5897,-0.3541 -0.8845,-0.5311 0.6842,-0.4131 1.3759,-0.097 1.769,0.5311 -0.2948,0 -0.5896,0 -0.8845,0"/>
      <path d="m 1172.9849,1428.4195 c 0.3231,0.1475 0.6474,0.2938 0.9706,0.4413 -0.9742,0.1586 -1.9804,0.06 -2.9117,-0.2655 0.6094,-0.4622 1.2568,-0.5212 1.9411,-0.1758"/>
      <path d="m 1175.9075,1442.3157 c -0.6547,-0.2053 -1.2445,-0.5298 -1.769,-0.9736 0.9017,-0.5004 1.9423,-0.729 2.7395,-1.4162 0.1598,0.9429 0.231,2.1378 -0.9705,2.3898"/>

      <path d="m 1180.2454,1451.9646 c 0.3563,-1.6583 1.3833,-0.7818 2.5553,-1.0621 -0.887,0.2643 -1.8256,0.4425 -2.5553,1.0621"/>
      <path d="m 1192.2725,1416.6476 c 0.2997,-0.06 0.5945,-0.031 0.8845,0.089 -0.2948,-0.03 -0.5897,-0.059 -0.8845,-0.089"/>
      <path d="m 1192.7995,1417.5327 c 0.1192,-0.2656 0.2371,-0.5311 0.3563,-0.7954 0.3046,0.7007 -0.047,0.4094 -0.3563,0.7954"/>
      <path d="m 1222.6043,1399.565 c 1.1388,-0.8323 2.7555,-0.3836 3.8944,0.1782 -1.2384,-0.5052 -2.6106,-0.4327 -3.8944,-0.1782"/>
      <path d="m 1343.7842,1354.1589 c -1.7544,-0.4351 -0.8575,2.1403 1.0688,0.5311 -0.8366,0.4868 -1.1929,0.3098 -1.0688,-0.5311"/>
    </g>
  </g>

  <g transform="translate(1020, 375) scale(-0.35, 0.35)" id="trollFamily">
    <path fill="#111" d="m 937,385 c 0,0 0,1 0,5 0,4 -9,4 -9,4 -27,-8 -31,-7 -18,3 0,4 0,4 -10,4 -7,0 -12,2 -14,6 -1,2 -3,4 -6,4 -4,0 -5,3 -3,7 2,6 0,7 -9,9 -12,3 -12,2 -6,13 3,7 3,10 0,13 -3,2 -2,7 3,15 l 7,11 -8,15 c -6,7 -11,22 -13,31 -3,9 -6,21 -10,25 -3,5 -4,12 -3,18 2,7 1,11 -6,18 -8,7 -15,10 -24,8 -7,-1 -23,8 -24,14 -7,25 -6,41 3,34 3,-2 6,-3 8,-2 2,1 5,0 6,-3 2,-3 8,-7 12,-10 5,-2 9,-7 9,-11 1,-5 4,-7 6,-7 1,0 8,-6 14,-13 l 12,-11 8,8 8,9 -12,9 c -7,6 -11,13 -10,15 2,5 -1,6 -11,6 -19,2 -19,14 0,38 9,9 18,20 20,22 3,2 16,4 29,4 24,0 24,-1 24,-6 0,-3 9,-8 9,-11 0,-15 -9,-22 -20,-12 -11,7 -21,5 -21,-4 0,-5 2,-7 5,-6 7,3 36,-12 36,-21 9,-4 9,-7 9,-7 0,0 9,11 18,23 9,14 27,24 27,24 0,0 9,3 9,9 0,6 9,8 15,8 13,0 13,-3 33,-14 0,-7 20,-14 20,-16 20,-2 20,-4 20,-15 0,-6 -10,-12 -10,-14 l 0,-11 c 0,-7 -10,-13 -20,-10 l 0,11 c 0,3 0,9 -10,12 l 0,-4 0,-31 c 10,-18 10,-23 20,-23 10,0 20,-41 10,-46 0,-1 -10,-4 0,-7 0,-3 -10,-7 -10,-8 -10,-6 -20,-5 -20,4 0,8 -20,19 -20,13 0,-2 0,-2 -13,-2 -15,2 -33,-5 -42,-12 0,-3 0,-3 9,-3 0,2 9,1 9,-4 0,-4 0,-6 9,-5 9,1 9,-5 0,-13 l 0,-3 c 9,1 9,0 9,-2 6,-3 6,0 29,8 30,13 40,14 50,6 10,-12 0,-26 -30,-31 -10,-2 -20,-6 -30,-10 l -13,-7 23,-7 c 10,-9 10,-14 0,-14 -10,0 -10,-1 -10,-10 l 0,-10 c -13,0 -13,-5 -19,-11 l 0,-5 c -9,8 -9,8 -18,-5 -18,-8 -18,-9 -18,-4 -9,4 -9,4 -9,0 -5,-4 -9,-5 -9,-5 z m 83,184 c 0,0 0,7 0,17 0,7 -10,23 -10,33 0,11 0,20 -13,20 0,0 -6,-9 -15,-20 -9,-14 -18,-20 -9,-23 l 0,-13 -9,-8 27,2 c 6,1 19,1 19,-4 0,-3 10,-4 10,-4 z"/>
    <path fill="#000" d="m 228,213 c -2,0 -2,0 -2,1 -1,3 -6,3 -11,2 -8,-1 -11,0 -11,3 0,4 -5,6 -14,7 -10,2 -13,4 -12,7 1,3 -2,7 -7,8 -9,4 -11,11 -4,11 2,0 -4,8 -13,18 -17,18 -19,22 -11,24 4,0 0,8 -11,28 -10,15 -22,41 -27,57 -12,34 -25.2,89 -25.2,102 0,6 -3.2,10 -12.8,14 -18.1,8 -37.1,29 -42.1,45 -2.3,7 -3.8,23 -3.5,32 0.6,14 -0.9,21 -4.7,25 -9.16,10 -10.74,28 -3.8,44 3.5,8 7.2,14 8.3,14 1.2,0 3.9,-3 6,-8 2.1,-4 8.6,-11 14.3,-15 12.6,-9 13.8,-21 3.7,-36 -10,-15 -9.4,-44 0.9,-59 6.9,-10 30.5,-27 37.9,-28 1.4,0 5.4,6 8.1,12 3.6,6 9.9,15 13.9,19 8,8 9,13 8,26 -1,17 -1,17 -26.4,27 -14.8,6 -17.8,11 -11,17 2.5,3 0.4,6 -7.1,8 -12.4,6 -17.4,13 -17.4,27 0,10 7,18 26,29 5.7,4 12.2,9 14.9,12 4.1,7 9,7 52,6 45,-1 47,-1 48,-8 1,-5 4,-9 6,-12 7,-5 7,-18 -1,-23 -4,-2 -9,-1 -15,4 -13,10 -29,10 -40,-2 -10,-9 -9,-17 0,-9 5,4 9,1 26,-12 11,-9 20,-17 20,-17 1,-1 3,-8 4,-17 l 3,-17 9,26 c 5,14 11,30 12,36 0,6 4,11 7,11 6,0 6,2 0,11 -5,7 -5,9 -1,19 l 5,11 69,0 69,0 2,-9 c 2,-6 5,-13 7,-15 6,-6 4,-22 -2,-26 -2,-1 -8,0 -14,3 -5,1 -11,3 -12,2 -1,-1 3,-9 8,-19 5,-10 8,-20 7,-23 -1,-3 1,-13 5,-22 4,-10 11,-31 16,-47 4,-16 10,-30 13,-31 3,-2 6,-6 6,-10 0,-2 1,-8 4,-10 4,-2 5,-7 5,-10 0,-4 2,-7 4,-8 5,-4 5,-14 -2,-20 -7,-5 -4,-11 7,-13 22,-3 10,-21 -17,-27 -14,-3 -24,3 -20,13 2,8 -2,17 -11,19 -6,0 -8,0 -10,-5 -1,-3 -4,-7 -6,-8 -50,-14 -58,-18 -45,-29 5,-4 8,-8 7,-12 -1,-5 1,-7 5,-6 9,2 11,-9 2,-17 -5,-6 -6,-9 -4,-9 2,0 4,-5 4,-10 0,-8 2,-11 7,-11 10,0 24,15 26,27 9,37 36,30 38,-11 1,-17 0,-19 -7,-24 -5,-3 -11,-10 -15,-17 -2,-7 -8,-12 -10,-12 -3,0 -12,-3 -20,-8 -11,-7 -16,-13 -25,-30 -10,-22 -18,-31 -18,-22 0,2 -5,-2 -10,-9 -10,-11 -12,-12 -15,-7 -3,5 -4,5 -8,1 -5,-4 -6,-4 -8,0 -2,4 -6,3 -18,-3 -7,-3 -11,-5 -14,-5 z m 63,265 c 5,0 12,3 25,8 30,11 36,12 38,6 1,-4 2,-4 6,0 5,3 5,8 4,18 -5,27 -15,53 -22,56 -6,3 -7,7 -8,32 0,22 -2,33 -7,42 -7,12 -9,14 -20,15 -11,0 -14,0 -17,-8 -3,-7 -3,-9 2,-13 7,-4 7,-6 2,-19 -2,-9 -10,-29 -18,-45 l -13,-29 9,-21 c 7,-12 11,-25 12,-28 0,-9 1,-14 7,-14 z"/>
    <path fill="#080808" d="m 564,252 c -2,0 -4,3 -4,7 0,4 -1,6 -4,4 -4,0 -6,1 -7,6 -2,3 -5,6 -8,5 -3,-2 -4,0 -2,5 1,6 0,8 -6,9 -5,2 -7,4 -3,6 2,4 2,6 0,7 -10,6 2,26 17,32 5,2 6,4 3,4 -8,0 -12,13 -8,18 3,2 5,8 5,12 0,4 1,7 3,5 1,-1 4,2 5,6 3,7 9,9 9,3 0,-3 2,-3 4,-2 7,5 2,8 -16,14 -29,8 -38,16 -65,54 -13,21 -31,44 -39,53 -18,17 -26,45 -9,29 4,-3 4,-3 2,4 -2,8 -2,8 4,4 5,-5 5,-5 3,3 -2,7 1,9 9,3 3,-3 3,-3 0,4 -4,7 -4,8 3,5 7,-2 7,-2 -2,12 -5,8 -13,20 -18,26 l -8,11 9,8 c 5,3 8,9 8,11 0,3 4,5 8,7 6,2 7,4 5,12 -4,14 3,23 20,27 8,3 20,8 26,13 10,7 18,9 39,11 13,1 27,2 30,3 1,0 6,-3 9,-7 1,-2 7,-7 10,-8 4,-1 6,-5 5,-9 -1,-7 -4,-8 -17,-10 -29,-4 -25,-9 4,-7 30,1 30,1 22,22 -1,3 2,8 5,12 7,7 11,7 63,7 49,0 56,0 57,-6 1,-3 5,-10 8,-17 7,-14 3,-28 -7,-28 -4,0 -11,5 -17,11 l -10,11 10,-32 c 16,-53 46,-133 56,-147 5,-8 10,-20 12,-27 1,-6 4,-14 7,-16 3,-2 5,-9 5,-14 0,-7 5,-16 19,-31 10,-11 19,-23 18,-25 -1,-2 -1,-5 1,-6 3,-3 2,-18 -1,-21 -1,-1 -2,-5 -2,-7 0,-6 -10,-14 -16,-14 0,0 -2,2 -2,5 0,6 0,6 -6,-9 -1,-3 -3,-2 -8,5 -6,9 -6,10 -6,2 -1,-9 -6,-10 -10,-1 -1,3 -5,7 -7,9 -4,4 -5,9 -2,31 4,35 3,36 -7,47 -7,6 -9,11 -7,16 1,5 0,6 -6,6 -4,0 -8,3 -9,7 -2,5 -4,6 -9,5 -4,-1 -13,0 -22,3 -9,4 -18,5 -20,5 -7,-3 -26,-33 -26,-40 0,-5 2,-6 7,-5 4,1 10,0 13,-2 3,-4 8,-7 11,-7 3,-1 5,-7 6,-17 2,-23 7,-24 23,-6 16,19 29,21 33,8 4,-9 -8,-35 -19,-39 -18,-8 -42,-30 -33,-30 8,0 4,-8 -8,-13 -6,-3 -12,-8 -12,-10 0,-2 -7,-5 -16,-6 -8,-2 -15,-4 -14,-6 4,-4 -16,-11 -30,-8 -10,2 -13,1 -13,-3 0,-5 -2,-6 -9,-4 -6,2 -11,1 -17,-5 -6,-6 -10,-7 -17,-5 -5,1 -8,0 -8,-2 0,-1 -2,-3 -4,-3 z m 180,247 c 2,0 -3,21 -16,60 -11,31 -20,58 -21,59 -1,1 -1,-9 0,-23 2,-25 2,-25 -13,-51 -24,-41 -24,-44 -2,-29 11,7 14,8 28,4 12,-2 16,-5 20,-11 3,-7 4,-9 4,-9 z m -55,154 c 6,0 7,2 5,6 -3,4 -15,4 -17,0 -2,-1 2,-4 6,-5 3,-1 5,-1 6,-1 z"/>
  </g>

  <g display="none" pointer-events="all">
    <rect fill="black" x="0" y="0" width="1025" height="620" fill-opacity="0">
      <animate id="darkeningOn" attributeName="fill-opacity" begin="mooseShow.end" dur="0.3s" repeatCount="1" from="0" to="0.5" fill="freeze"/>
      <animate id="darkeningOff" attributeName="fill-opacity" begin="hideDesc.end" dur="0.3s" repeatCount="1" from="0.5" to="0" fill="freeze"/>
    </rect>
    <set id="deactOn" attributeName="display" to="block" begin="showPosition.begin"/>
    <set attributeName="display" to="none" begin="mooseHide.end"/>

    <g id="detail">
      <image id="imgDetail" xlink:href="" x="230" y="170" width="480" height="320" rx="12">
        <animate id="imgDetailQuick" attributeName="opacity" values="1; 0; 1" dur="1s" begin="indefinite" repeatCount="1"/>
      </image>
      <g display="none">
        <rect id="activeRect" x="230" y="170" width="480" height="320" fill="none" stroke="#bbb" stroke-width="1" rx="4"/>
        <set attributeName="display" to="block" begin="showDesc.end+0.25s"/>
        <set attributeName="display" to="none" begin="activeRect.click"/>

          <polyline points="280,300 240,330 280,360" stroke-width="10" stroke="white" stroke-linejoin="round" fill="none" stroke-opacity="0.08">
            <animate attributeName="stroke-opacity" begin="llft.mouseover" dur="0.33s" repeatCount="1" from="0.08" to="0.6" fill="freeze"/>
            <animate attributeName="stroke-opacity" begin="llft.mouseout" dur="0.33s" repeatCount="1" from="0.6" to="0.08" fill="freeze"/>
          </polyline>
          <rect x="230" y="170" width="60" height="320" fill="none" stroke="none" stroke-width="0" rx="2" pointer-events="all" onclick="prevPhoto()" id="llft"/>

          <polyline points="660,300 700,330 660,360" stroke-width="10" stroke="white" stroke-linejoin="round" fill="none" stroke-opacity="0.08">
            <animate attributeName="stroke-opacity" begin="lrght.mouseover" dur="0.33s" repeatCount="1" from="0.08" to="0.6" fill="freeze"/>
            <animate attributeName="stroke-opacity" begin="lrght.mouseout" dur="0.33s" repeatCount="1" from="0.6" to="0.08" fill="freeze"/>
          </polyline>
          <rect x="650" y="170" width="60" height="320" fill="none" stroke="none" stroke-width="0" rx="2" pointer-events="all" onclick="nextPhoto()" id="lrght"/>
      </g>

      <g transform="translate(10 322)">
        <text id="imgDesc" x="0" y="15" fill="#002868" font-family="sans-serif" font-size="17px" transform="scale(1 0.01)">Image description
          <animate id="showDesc" attributeName="fill" begin="darkeningOn.end" dur="0.3s" repeatCount="1" values="#002868; #002868; #fff" fill="freeze"/>
          <animate id="hideDesc" attributeName="fill" begin="activeRect.click+0.25s" dur="0.3s" repeatCount="1" values="#fff; #fff; #002868" fill="freeze"/>
          <animateTransform attributeName="transform" type="scale" values="1 0.06; 1 1" dur="0.3s" begin="darkeningOn.end" repeatCount="1" fill="freeze"/>
          <animateTransform attributeName="transform" type="scale" values="1 1; 1 0.06" dur="0.3s" begin="hideDesc.begin" repeatCount="1" fill="freeze"/>
          <animate id="showDescQuick" attributeName="fill" begin="indefinite" dur="1s" repeatCount="1" values="#fff; #002868; #fff" fill="freeze"/>
        </text>
      </g>
    </g>
  </g>

<g>
  <g transform="translate(344 410)" id="mooseX">
    <use xlink:href="#mooseHead" fill="gold" stroke="black" stroke-width="20"/>
    <animate id="showPosition" attributeName="fill" begin="indefinite" dur="1s" repeatCount="1" from="yellow" to="gold" fill="freeze"/>
    <animateTransform id="showPositionQuick" attributeName="transform" type="translate" begin="indefinite" dur="1s" repeatCount="1" from="0 0" to="0 0" fill="freeze"/>
    <animateTransform id="showPositionFake" attributeName="transform" type="translate" begin="indefinite" dur="1s" repeatCount="1" from="0 0" to="0 0" fill="freeze"/>
  </g>
  <set attributeName="opacity" to="1" begin="mooseHide.end"/>
  <set attributeName="opacity" to="0.2" begin="mooseShow.begin"/>
</g>

<use xlink:href="#norwayMap" transform="translate(10 470) scale(0.4)"/>
<g transform="translate(-92 400) scale(0.4)">
  <use xlink:href="#mooseX"/>
</g>

  <script type="text/javascript">
    var svgns = "http://www.w3.org/2000/svg";
    var xlinkns = "http://www.w3.org/1999/xlink";
    var lastPos = "344 410"
    var lastId = null;

    var thumbsHolder = document.getElementById("flyingImages");
    var showPosition = document.getElementById("showPosition");
    var mm = document.getElementById("maskMoose");
    var ethalon = document.getElementById("thumbDemo").firstChild;
    var webkit = (window.navigator &amp;&amp; window.navigator.userAgent &amp;&amp; window.navigator.userAgent.indexOf("WebKit") != -1);
    if (!webkit) document.getElementById("imgDetail").setAttribute("mask", "url(#norwayFlagMask)"); // Webkit corrupted masking temporary fake

    var thumbNames = new Array( 
                                  {i:"IMG_0242.JPG",n:"Beautiful sunset over fjord",t:"462 246"},
                                  {i:"IMG_0563.JPG",n:"National park Rago",t:"450 267"},
                                  {i:"IMG_0924.JPG",n:"Wild moose",t:"429 288"},
                                  {i:"IMG_1001.JPG",n:"Trondheim's buildings",t:"362 357"},
                                  {i:"IMG_1489.JPG",n:"Trollstiegen road",t:"330 376"},
                                  {i:"IMG_1652.JPG",n:"Yet another waterfall",t:"327 379"},
                                  {i:"IMG_0870.JPG",n:"Setegrotta Cave",t:"416 295"},
                                  {i:"IMG_2345.JPG",n:"Ring of clouds", t:"310 391"},
                                  {i:"IMG_2529.JPG",n:"Jostedalsbreen glacier",t:"308 393"},
                                  {i:"IMG_2936.JPG",n:"Galdhopiggen mountain",t:"336 392"},
                                  {i:"IMG_3061.JPG",n:"Stavkirke at Lom",t:"336 386"},
                                  {i:"IMG_3180.JPG",n:"24.5km long tunnel",t:"313 411"},
                                  {i:"IMG_8028.JPG",n:"Waterfall near Tromso",t:"492 218"},
                                  {i:"IMG_3330.JPG",n:"Old Bergen lanes",t:"268 422"},
                                  {i:"IMG_3768.JPG",n:"Incredible Preikestolen",t:"293 455"},
                                  {i:"IMG_1010.JPG",n:"Trondheim's cathedral",t:"361 359"},
                                  {i:"IMG_3976.JPG",n:"Heddal's faery-like church",t:"351 432"},
                                  {i:"IMG_9224.JPG",n:"Lofoten's bay",t:"407 252"},
                                  {i:"IMG_9666.JPG",n:"Fjord view",t:"404 292"},
                                  {i:"IMG_9785.JPG",n:"Lofoten's bridge",t:"433 243"}
                              );

    function showDetail(evt) {
      lastId = evt.target.parentNode.getAttribute("thumb");
      var showPosition = document.getElementById("showPositionFake");
      var newPos = showPosition.cloneNode(true);
      mm.setAttribute("transform", "translate(" + thumbNames[lastId].t + ")");
      evt.target.parentNode.setAttribute("class", "thmbx");
      document.getElementById("imgDetail").setAttributeNS(xlinkns, "href", thumbNames[lastId].i);
      document.getElementById("imgDesc").firstChild.data = thumbNames[lastId].n;
      newPos.setAttribute("from", lastPos);
      newPos.setAttribute("to", thumbNames[lastId].t);
      newPos.setAttribute("begin", document.documentElement.getCurrentTime());
      showPosition.parentNode.appendChild(newPos);
      if (navigator.userAgent.indexOf("Gecko/") == -1) newPos.beginElement();
      showPosition.parentNode.removeChild(showPosition);
      document.getElementById("showPosition").beginElement();
      lastPos = thumbNames[lastId].t;
    }

    function prevPhoto() {
      lastId--;
      if (lastId == -1) lastId = thumbNames.length;
      switchDetail();
    }

    function nextPhoto() {
      lastId++;
      if (lastId == thumbNames.length) lastId = 0;
      switchDetail();
    }

    function switchDetail() {
      mm.setAttribute("transform", "translate(" + thumbNames[lastId].t + ")");

      thumbsHolder.childNodes[lastId].setAttribute("class", "thmbx");
      document.getElementById("showDescQuick").beginElement();
      window.setTimeout(function(){document.getElementById("imgDesc").firstChild.data = thumbNames[lastId].n}, 500);
      document.getElementById("imgDetailQuick").beginElement();
      window.setTimeout(function(){document.getElementById("imgDetail").setAttributeNS(xlinkns, "href", thumbNames[lastId].i)}, 500);

      var showPosition = document.getElementById("showPositionQuick");
      var newPos = showPosition.cloneNode(true);
      newPos.setAttribute("from", lastPos);
      newPos.setAttribute("to", thumbNames[lastId].t);
      newPos.setAttribute("begin", document.documentElement.getCurrentTime());
      showPosition.parentNode.appendChild(newPos);
      if (navigator.userAgent.indexOf("Gecko/") == -1) newPos.beginElement();
      showPosition.parentNode.removeChild(showPosition);

      lastPos = thumbNames[lastId].t;
    }

  </script>

<image xlink:href="http://www.google-analytics.com/__utm.gif?utmwv=4.7.1&amp;utmn=21830374&amp;utmhn=svg.kvalitne.cz&amp;utmcs=UTF-8&amp;utmsr=1920x1080&amp;utmsc=24-bit&amp;utmul=en-us&amp;utmje=1&amp;utmfl=10.0%20r45&amp;utmdt=SVG%C2%A0%E2%80%94%C2%A0It%27s%20in%20your%20hands...&amp;utmhid=1377849700&amp;utmr=-&amp;utmp=%2Findex2.htm&amp;utmac=UA-11950721-1&amp;utmcc=__utma%3D251371972.1884550355.1260220320.1272562824.1272576758.56%3B%2B__utmz%3D251371972.1263752798.41.3.utmcsr%3Dgoogle%7Cutmccn%3D(organic)%7Cutmcmd%3Dorganic%7Cutmctr%3Dsvg%2520smil%2520demo%3B" width="1" height="1"/>
<script type="text/ecmascript" xlink:href="../fakesmile/smil.user.js"/>
</svg>