<?xml version="1.0" standalone="no"?>
<!DOCTYPE svg PUBLIC "-//W3C//DTD SVG 20010904//EN"
"http://www.w3.org/TR/2001/REC-SVG-20010904/DTD/svg10.dtd">
<svg width="468pt" height="432pt" viewBox="0 0 468 432" xmlns="http://www.w3.org/2000/svg">

  <path fill="#dbb296" stroke="none" d="M 31.61084 201.8335 L 38.52571 234.4322 L 99.77172 308.5201 L 218.3124 381.6202 L 245.9719 405.3284 L 263.7530 412.2432 L 297.3395 414.2189 L 331.9138 406.3162 L 369.4517 386.5594 L 400.0747 363.8391 L 420.8193 334.2040 L 441.5640 277.8971 L 412.9166 228.5052 C 412.9166 228.5052 310.1814 87.24426 310.1814 86.25641 C 310.1814 85.26855 243.9962 22.04688 243.9962 22.04688 L 199.5434 37.85229 L 162.0056 49.70636 L 153.1150 47.73068 L 136.3218 51.68204 L 114.5893 64.52396 L 98.78388 81.31720 L 95.82037 96.13480 L 76.06359 112.9280 L 61.24601 129.7213 L 43.46491 154.4173 L 36.55004 171.2105 L 30.62300 188.9916 L 30.62300 195.9065 L 31.61084 201.8335 z "/>
  <g transform="translate(0,432) scale(0.167143,-0.167143)" fill="#000000" stroke="none">
    <path d="M1460 2450 c0 -5 -9 -10 -20 -10 -11 0 -20 -4 -20 -10 0 -5 5 -10 10 -10 6 0 10 -9 10 -20 0 -11 5 -20 10 -20 6 0 10 -9 10 -20 0 -11 5 -20 10 -20 6 0 10 -18 10 -40 0 -33 -3 -40 -20 -40 -11 0 -20 -2 -20 -5 0 -10 110 -115 121 -115 6 0 28 -18 49 -40 21 -22 44 -40 50 -40 6 0 33 -22 60 -50 27 -27 54 -50 60 -50 15 0 80 -67 80 -82 0 -8 9 -20 20 -28 11 -8 20 -21 20 -30 0 -9 9 -22 20 -30 11 -8 20 -22 20 -32 0 -10 5 -18 10 -18 6 0 10 -9 10 -20 0 -11 5 -20 10 -20 6 0 10 -9 10 -20 0 -11 5 -20 10 -20 6 0 10 -9 10 -20 0 -11 5 -20 10 -20 6 0 10 -13 10 -30 0 -16 5 -30 10 -30 6 0 10 -37 10 -90 0 -53 4 -90 10 -90 6 0 10 -18 10 -40 0 -22 -4 -40 -10 -40 -5 0 -10 -18 -10 -40 0 -22 -4 -40 -10 -40 -5 0 -10 5 -10 10 0 6 -22 10 -50 10 -27 0 -50 -4 -50 -10 0 -5 -9 -10 -20 -10 -11 0 -20 5 -20 10 0 6 -4 10 -10 10 -5 0 -10 -11 -10 -25 0 -29 -40 -75 -65 -75 -8 0 -15 -4 -15 -10 0 -5 -18 -10 -40 -10 -22 0 -40 5 -40 10 0 6 5 10 10 10 6 0 10 9 10 20 0 22 -16 27 -23 8 -3 -9 -11 -6 -24 10 -11 12 -28 22 -37 22 -9 0 -16 5 -16 10 0 6 9 10 20 10 12 0 20 7 20 16 0 18 23 44 40 44 19 0 47 33 32 38 -20 6 -14 42 7 42 11 0 22 6 25 13 5 10 7 10 12 0 3 -7 14 -13 25 -13 10 0 19 -4 19 -10 0 -5 5 -10 10 -10 6 0 10 18 10 40 0 33 -3 40 -20 40 -13 0 -20 7 -20 20 0 11 5 20 10 20 15 0 12 29 -4 46 -23 22 -66 18 -66 -6 0 -13 -7 -20 -19 -20 -11 0 -22 -6 -25 -12 -5 -10 -7 -10 -12 0 -9 18 -38 14 -54 -8 -12 -16 -26 -20 -72 -20 -32 0 -58 4 -58 10 0 14 -38 12 -43 -2 -2 -8 -8 -9 -13 -4 -5 5 -4 11 4 13 22 8 12 23 -16 23 -16 0 -34 -8 -42 -20 -15 -21 -50 -28 -50 -10 0 6 -9 10 -20 10 -11 0 -20 -3 -20 -6 0 -10 28 -34 40 -34 12 0 40 -24 40 -34 0 -3 -18 -6 -40 -6 -22 0 -40 5 -40 10 0 6 -9 10 -20 10 -16 0 -20 -7 -20 -30 0 -16 -4 -30 -10 -30 -5 0 -10 -18 -10 -40 0 -33 -3 -40 -20 -40 -12 0 -20 -7 -20 -16 0 -8 -6 -22 -14 -30 -17 -16 -66 -19 -66 -4 0 14 -58 12 -62 -2 -3 -7 -61 45 -131 115 -95 95 -127 133 -127 152 0 18 -5 25 -20 25 -12 0 -20 7 -20 16 0 9 -13 29 -30 44 -16 15 -30 35 -30 44 0 9 -4 16 -10 16 -5 0 -10 12 -10 26 0 23 -20 54 -34 54 -3 0 -6 -13 -6 -30 0 -16 5 -30 10 -30 6 0 10 -18 10 -40 0 -22 -4 -40 -10 -40 -5 0 -10 -12 -10 -26 0 -29 -21 -54 -44 -54 -9 0 -16 -4 -16 -10 0 -5 -9 -10 -20 -10 -22 0 -27 -15 -7 -24 10 -5 10 -7 0 -12 -8 -3 -13 -25 -13 -55 0 -27 -4 -49 -10 -49 -15 0 -12 -77 3 -83 6 -2 9 -8 5 -12 -9 -10 -98 81 -98 100 0 8 -4 15 -10 15 -5 0 -10 8 -10 18 0 10 -9 24 -20 32 -11 8 -20 26 -20 40 0 14 -9 32 -20 40 -11 8 -20 22 -20 32 0 10 -4 18 -10 18 -5 0 -10 -18 -10 -40 0 -22 -3 -40 -6 -40 -3 0 -19 14 -34 30 -27 29 -60 40 -60 20 0 -5 -9 -10 -20 -10 -13 0 -20 -7 -20 -20 0 -11 -4 -20 -10 -20 -5 0 -10 -18 -10 -40 0 -22 5 -40 10 -40 6 0 10 -11 10 -25 0 -29 40 -75 65 -75 8 0 15 -9 15 -20 0 -13 7 -20 20 -20 13 0 20 -7 20 -20 0 -13 7 -20 20 -20 11 0 20 -4 20 -10 0 -5 7 -10 16 -10 9 0 29 -13 44 -30 15 -16 34 -30 42 -30 7 0 20 -9 28 -20 8 -11 22 -20 32 -20 10 0 18 -4 18 -10 0 -5 8 -10 18 -10 10 0 24 -9 32 -20 8 -11 22 -20 32 -20 10 0 18 -4 18 -10 0 -5 11 -10 25 -10 38 0 75 -42 75 -85 0 -25 4 -35 16 -35 20 0 44 -24 44 -44 0 -9 7 -16 16 -16 8 0 37 -22 64 -50 27 -27 55 -50 62 -50 8 0 20 -9 28 -20 8 -11 21 -20 30 -20 9 0 22 -9 30 -20 8 -11 21 -20 28 -20 8 0 27 -13 42 -30 15 -16 35 -30 44 -30 9 0 16 -4 16 -10 0 -5 -9 -10 -20 -10 -11 0 -20 5 -20 10 0 6 -9 10 -20 10 -13 0 -20 -7 -20 -20 0 -27 -7 -25 -40 10 -17 18 -38 30 -54 30 -14 0 -26 5 -26 10 0 6 -7 10 -16 10 -9 0 -29 14 -44 30 -15 17 -33 30 -40 30 -7 0 -25 14 -40 30 -15 17 -33 30 -40 30 -7 0 -25 14 -40 30 -15 17 -33 30 -40 30 -6 0 -29 18 -50 40 -21 22 -44 40 -50 40 -6 0 -29 18 -50 40 -21 22 -44 40 -50 40 -6 0 -33 23 -60 50 -27 28 -56 50 -64 50 -9 0 -16 7 -16 16 0 9 -13 29 -30 44 -16 15 -30 33 -30 40 0 7 -13 25 -30 40 -16 15 -30 35 -30 44 0 9 -4 16 -10 16 -5 0 -10 -13 -10 -30 0 -16 5 -30 10 -30 6 0 10 -9 10 -20 0 -11 5 -20 10 -20 6 0 10 -8 10 -18 0 -10 9 -24 20 -32 11 -8 20 -22 20 -32 0 -10 5 -18 10 -18 6 0 10 -8 10 -18 0 -10 9 -24 20 -32 11 -8 20 -21 20 -30 0 -9 9 -22 20 -30 11 -8 20 -20 20 -28 0 -7 23 -35 50 -62 28 -27 50 -56 50 -64 0 -9 7 -16 16 -16 8 0 33 -18 54 -40 21 -22 44 -40 50 -40 7 0 25 -13 40 -30 15 -16 34 -30 42 -30 7 0 20 -9 28 -20 8 -11 21 -20 30 -20 9 0 22 -9 30 -20 8 -11 21 -20 30 -20 9 0 22 -9 30 -20 8 -11 21 -20 30 -20 9 0 22 -9 30 -20 8 -11 22 -20 32 -20 10 0 18 -4 18 -10 0 -5 9 -10 20 -10 11 0 20 -4 20 -10 0 -5 8 -10 18 -10 10 0 24 -9 32 -20 8 -12 26 -20 42 -20 15 0 28 -4 28 -10 0 -5 9 -10 20 -10 11 0 20 -4 20 -10 0 -5 9 -10 20 -10 11 0 20 -4 20 -10 0 -5 9 -10 20 -10 11 0 20 -4 20 -10 0 -5 9 -10 20 -10 11 0 20 -4 20 -10 0 -5 9 -10 20 -10 11 0 20 -4 20 -10 0 -5 7 -10 16 -10 9 0 29 -13 44 -30 15 -16 33 -30 40 -30 7 0 25 -13 40 -30 15 -16 35 -30 44 -30 9 0 16 -4 16 -10 0 -5 9 -10 20 -10 11 0 20 -4 20 -10 0 -6 50 -10 130 -10 80 0 130 4 130 10 0 6 -40 10 -100 10 -60 0 -100 4 -100 10 0 6 -13 10 -30 10 -23 0 -30 4 -30 20 0 16 7 20 36 20 41 0 64 19 64 52 0 13 9 30 20 38 11 8 20 18 20 22 0 4 -9 8 -20 8 -15 0 -20 7 -20 26 0 15 -10 35 -22 46 -19 16 -20 21 -8 29 11 8 12 12 3 16 -15 6 -18 63 -3 63 6 0 10 9 10 20 0 11 -4 20 -10 20 -5 0 -10 14 -10 30 0 17 -4 30 -10 30 -5 0 -10 -9 -10 -20 0 -13 -7 -20 -20 -20 -11 0 -20 -4 -20 -10 0 -5 -4 -10 -10 -10 -5 0 -10 23 -10 50 0 43 3 50 19 50 11 0 22 -6 25 -12 5 -10 7 -10 12 0 3 6 19 12 35 12 26 0 29 -4 29 -30 0 -30 0 -30 60 -30 51 0 60 3 60 18 0 10 -9 24 -20 32 -26 19 -26 50 0 50 11 0 20 -4 20 -10 0 -15 29 -12 46 4 18 19 18 26 -2 26 -8 0 -22 6 -30 14 -21 21 -17 46 6 46 11 0 20 5 20 10 0 6 7 10 16 10 8 0 42 27 74 60 32 33 64 60 70 60 7 0 25 13 40 30 15 16 33 30 40 30 16 0 40 26 40 44 0 9 5 16 10 16 6 0 10 14 10 30 0 17 5 30 10 30 6 0 10 9 10 20 0 11 5 20 10 20 6 0 10 9 10 20 0 11 5 20 10 20 6 0 10 43 10 110 0 67 4 110 10 110 6 0 10 -7 10 -16 0 -8 23 -37 50 -64 28 -27 50 -54 50 -60 0 -7 14 -25 30 -40 17 -15 30 -33 30 -40 0 -6 18 -29 40 -50 22 -21 40 -44 40 -50 0 -15 25 -40 40 -40 7 0 25 -13 40 -30 17 -18 38 -30 54 -30 14 0 26 -4 26 -10 0 -5 9 -10 19 -10 11 0 21 -6 23 -12 3 -9 9 -8 21 4 19 18 25 128 7 128 -5 0 -10 9 -10 20 0 11 -4 20 -10 20 -5 0 -10 7 -10 16 0 9 -13 29 -30 44 -16 15 -30 34 -30 42 0 7 -9 20 -20 28 -11 8 -20 20 -20 28 0 7 -27 40 -60 72 -33 32 -60 65 -60 72 0 8 -9 20 -20 28 -11 8 -20 22 -20 32 0 10 -4 18 -10 18 -5 0 -10 9 -10 20 0 11 -4 20 -10 20 -5 0 -10 9 -10 20 0 11 -4 20 -10 20 -5 0 -10 9 -10 20 0 11 -4 20 -10 20 -5 0 -10 9 -10 20 0 11 -4 20 -10 20 -5 0 -10 9 -10 20 0 11 -4 20 -10 20 -5 0 -10 14 -10 30 0 17 -4 30 -10 30 -5 0 -10 14 -10 30 0 17 -4 30 -10 30 -5 0 -10 9 -10 20 0 11 -4 20 -10 20 -5 0 -10 14 -10 30 0 17 -4 30 -10 30 -5 0 -10 14 -10 30 0 17 -4 30 -10 30 -5 0 -10 9 -10 20 0 11 -4 20 -10 20 -5 0 -10 9 -10 20 0 11 -4 20 -10 20 -5 0 -10 8 -10 18 0 10 -9 24 -20 32 -11 8 -20 21 -20 30 0 9 -9 22 -20 30 -11 8 -20 20 -20 27 0 17 -186 203 -203 203 -7 0 -19 9 -27 20 -8 11 -21 20 -30 20 -9 0 -22 9 -30 20 -8 12 -26 20 -42 20 -15 0 -28 5 -28 10 0 6 -40 10 -100 10 -60 0 -100 -4 -100 -10z m120 -1060 c0 -5 -4 -10 -10 -10 -5 0 -10 5 -10 10 0 6 5 10 10 10 6 0 10 -4 10 -10z m-40 -30 c0 -22 -15 -27 -24 -7 -5 10 -7 10 -12 0 -9 -20 -24 -15 -24 7 0 16 7 20 30 20 23 0 30 -4 30 -20z m-120 -70 c0 -5 -13 -10 -30 -10 -16 0 -30 5 -30 10 0 6 14 10 30 10 17 0 30 -4 30 -10z m560 -100 c0 -5 -4 -10 -10 -10 -5 0 -10 -13 -10 -28 0 -16 -8 -34 -20 -42 -12 -8 -20 -26 -20 -42 0 -21 -5 -28 -20 -28 -15 0 -20 7 -20 29 0 16 -6 31 -12 34 -8 2 -9 8 -4 13 5 5 11 4 13 -3 7 -20 23 -15 23 7 0 13 7 20 20 20 11 0 20 7 20 15 0 17 20 44 33 45 4 0 7 -4 7 -10z m-800 -680 c0 -5 -4 -10 -10 -10 -5 0 -10 5 -10 10 0 6 5 10 10 10 6 0 10 -4 10 -10z m60 -20 c0 -5 -4 -10 -10 -10 -5 0 -10 5 -10 10 0 6 5 10 10 10 6 0 10 -4 10 -10z m60 -40 c0 -5 9 -10 20 -10 13 0 20 -7 20 -18 0 -10 9 -24 20 -32 11 -8 20 -21 20 -28 0 -7 18 -31 40 -52 22 -21 40 -46 40 -54 0 -9 5 -16 10 -16 6 0 10 -9 10 -20 0 -13 7 -20 20 -20 11 0 20 -4 20 -10 0 -25 -36 -5 -95 55 -46 45 -65 72 -65 90 0 14 -4 25 -10 25 -5 0 -10 7 -10 16 0 18 -23 44 -40 44 -12 0 -40 24 -40 34 0 3 9 6 20 6 11 0 20 -4 20 -10z"/>
    <path d="M1320 2410 c0 -5 18 -10 40 -10 22 0 40 5 40 10 0 6 -18 10 -40 10 -22 0 -40 -4 -40 -10z"/>
    <path d="M1200 2370 c0 -5 18 -10 40 -10 22 0 40 5 40 10 0 6 -18 10 -40 10 -22 0 -40 -4 -40 -10z"/>
    <path d="M900 2250 c0 -27 5 -50 10 -50 6 0 10 -9 10 -20 0 -11 5 -20 10 -20 6 0 10 -7 10 -16 0 -8 18 -33 40 -54 26 -25 40 -47 40 -64 0 -14 5 -26 10 -26 6 0 10 -8 10 -18 0 -10 9 -24 20 -32 11 -8 20 -22 20 -32 0 -11 7 -18 20 -18 13 0 20 -7 20 -20 0 -11 7 -20 16 -20 8 0 42 -27 74 -60 32 -33 66 -60 74 -60 9 0 16 -4 16 -10 0 -5 9 -10 20 -10 11 0 20 -4 20 -10 0 -5 9 -10 20 -10 11 0 20 -4 20 -10 0 -15 117 -13 123 3 2 7 15 0 34 -20 17 -18 34 -33 37 -33 3 0 6 36 6 80 0 47 -4 80 -10 80 -5 0 -10 7 -10 16 0 23 -25 44 -54 44 -14 0 -26 5 -26 10 0 6 -9 10 -20 10 -11 0 -20 5 -20 10 0 6 -9 10 -20 10 -11 0 -20 5 -20 10 0 6 -8 10 -18 10 -10 0 -24 9 -32 20 -8 11 -20 20 -27 20 -16 0 -183 165 -183 180 0 15 -107 120 -123 120 -7 0 -19 9 -27 20 -10 14 -26 20 -52 20 l-38 0 0 -50z"/>
    <path d="M643 2035 c-18 -19 -23 -36 -23 -80 0 -30 5 -55 10 -55 6 0 10 -9 10 -20 0 -11 5 -20 10 -20 6 0 10 -7 10 -16 0 -9 14 -29 30 -44 17 -15 30 -35 30 -44 0 -9 5 -16 10 -16 6 0 10 -13 10 -30 0 -16 5 -30 10 -30 6 0 10 -7 10 -16 0 -20 24 -44 44 -44 9 0 16 -4 16 -10 0 -5 7 -10 15 -10 20 0 65 -45 65 -65 0 -8 5 -15 10 -15 6 0 10 -7 10 -15 0 -9 11 -27 25 -40 19 -20 34 -25 76 -25 44 0 55 -4 79 -30 15 -16 35 -30 44 -30 9 0 16 -4 16 -10 0 -15 29 -12 46 4 8 8 14 22 14 30 0 9 5 16 10 16 15 0 12 57 -2 64 -10 5 -10 7 0 12 14 7 16 44 2 44 -5 0 -10 9 -10 20 0 11 -4 20 -10 20 -5 0 -10 14 -10 30 0 17 -4 30 -10 30 -5 0 -10 8 -10 18 0 10 -9 24 -20 32 -11 8 -20 22 -20 32 0 10 -4 18 -10 18 -5 0 -10 7 -10 15 0 18 -84 105 -100 105 -6 0 -33 23 -60 50 -27 28 -56 50 -64 50 -9 0 -16 5 -16 10 0 6 -9 10 -20 10 -11 0 -20 5 -20 10 0 6 -8 10 -18 10 -10 0 -24 9 -32 20 -8 12 -26 20 -42 20 -15 0 -28 5 -28 10 0 19 -55 9 -77 -15z"/>
    <path d="M352 1784 c-11 -12 -11 -17 2 -29 25 -25 46 -18 46 15 0 33 -25 41 -48 14z"/>
    <path d="M1920 1420 c0 -22 5 -40 10 -40 6 0 10 18 10 40 0 22 -4 40 -10 40 -5 0 -10 -18 -10 -40z"/>
    <path d="M1880 1340 c0 -11 -4 -20 -10 -20 -5 0 -10 -9 -10 -20 0 -11 5 -20 10 -20 6 0 10 8 10 18 0 10 9 24 20 32 11 8 20 18 20 22 0 4 -9 8 -20 8 -13 0 -20 -7 -20 -20z"/>
    <path d="M2443 655 c-26 -28 -30 -79 -9 -101 29 -28 86 -8 86 30 0 9 5 16 10 16 6 0 10 9 10 20 0 11 5 20 10 20 6 0 10 9 10 20 0 17 -6 20 -47 19 -37 0 -53 -6 -70 -24z"/>
    <path d="M1020 590 c0 -5 9 -10 20 -10 11 0 20 5 20 10 0 6 -9 10 -20 10 -11 0 -20 -4 -20 -10z"/>
    <path d="M2430 460 c-8 -11 -21 -20 -28 -20 -7 0 -31 -18 -52 -40 -21 -22 -44 -40 -50 -40 -7 0 -25 -13 -40 -30 -15 -16 -34 -30 -42 -30 -7 0 -20 -9 -28 -20 -8 -11 -22 -20 -32 -20 -10 0 -18 -4 -18 -10 0 -5 -9 -10 -20 -10 -11 0 -20 -4 -20 -10 0 -5 -9 -10 -20 -10 -11 0 -20 -4 -20 -10 0 -5 -9 -10 -20 -10 -11 0 -20 -4 -20 -10 0 -5 -13 -10 -30 -10 -16 0 -30 -4 -30 -10 0 -5 -13 -10 -30 -10 -16 0 -30 -4 -30 -10 0 -5 -13 -10 -30 -10 -16 0 -30 -4 -30 -10 0 -5 18 -10 40 -10 22 0 40 5 40 10 0 6 14 10 30 10 17 0 30 5 30 10 0 6 14 10 30 10 17 0 30 5 30 10 0 6 9 10 20 10 11 0 20 5 20 10 0 6 14 10 30 10 17 0 30 5 30 10 0 6 8 10 18 10 10 0 24 9 32 20 8 11 21 20 30 20 9 0 22 9 30 20 8 11 21 20 28 20 7 0 31 18 52 40 21 22 46 40 54 40 9 0 16 7 16 16 0 9 14 29 30 44 17 15 30 31 30 34 0 13 -16 5 -30 -14z"/>
  </g>
</svg>