<?xml version="1.0" standalone="no"?>
<!DOCTYPE svg PUBLIC "-//W3C//DTD SVG 20010904//EN"
 "http://www.w3.org/TR/2001/REC-SVG-20010904/DTD/svg10.dtd">
<svg xmlns="http://www.w3.org/2000/svg" width="331pt" height="648pt" viewBox="0 0 331 648">

<polygon points="26,332 13,306 12,244 43,130 55,117 125,104 204,103 273,116 286,127 308,194 316,223 313,308 293,335 275,330 263,311 225,323 161,329 104,323 75,316 61,309"
fill="#70C5CD" stroke="none"/>

<polygon points="134,69 144,27 172,18 196,44 200,72"
fill="#833317" stroke="none"/>

<polygon points="133,104 130,158 160,181 198,159 201,103 194,89"
fill="#EBC952" stroke="none"/>

<polygon points="271,299 270,289 278,261 291,268 281,275 288,298"
fill="#1C49F2" stroke="none"/>

<polygon points="30,274 32,263 40,257 49,258 52,266 49,278 44,286 51,291 52,299 44,299 42,289 37,282"
fill="#1C49F2" stroke="none"/>

<polygon points="52,303 43,296 42,287 32,277 30,283 29,327 46,328 58,305"
fill="#EBC952" stroke="none"/>

<polygon points="289,335 277,333 270,325 264,308 271,305 287,299 281,277 289,271 304,298 303,325"
fill="#EBC952" stroke="none"/>

<polygon points="71,316 71,374 68,384 45,391 48,434 71,418 149,405 255,416 275,428 282,390 261,384 252,321 163,326 71,317 71,329"
fill="khaki" stroke="none"/>

<polygon points="153,405 105,409 66,420 53,431 42,550 122,559 132,482 142,434 187,434 195,466 199,506 201,551 235,554 291,555 278,515 278,477 267,421 243,413"
fill="#256C09" stroke="none"/>

<polygon points="49,553 51,587 36,615 33,637 118,635 125,591 202,589 208,634 293,638 282,596 274,576 285,552 182,549 125,551 73,552 36,546"
fill="#644E19" stroke="none"/>

<g transform="translate(0,648) scale(0.327273,-0.327273)" fill="black" stroke="none">

<path d="M484 1929 c-44 -13 -66 -41 -72 -96 -5 -51 -14 -63 -49 -63 -16 0
-25 -8 -29 -26 -8 -31 3 -44 48 -54 l33 -7 -28 -12 c-16 -6 -42 -11 -58 -11
-17 0 -49 -4 -72 -9 -23 -6 -54 -12 -69 -16 -48 -9 -75 -51 -99 -149 -12 -50
-28 -99 -36 -108 -8 -9 -12 -21 -9 -27 4 -5 2 -12 -2 -15 -5 -3 -9 -43 -9 -88
0 -83 1 -84 11 -17 l6 35 68 -22 67 -22 -3 -43 c-1 -24 -3 -56 -4 -70 -1 -26
-1 -26 -29 -10 -29 16 -38 31 -19 31 6 0 10 -5 10 -11 0 -6 7 -4 15 4 17 17
12 54 -10 76 -13 14 -17 14 -32 -1 -19 -19 -25 -55 -27 -151 0 -37 -4 -67 -7
-67 -13 0 -33 59 -39 115 l-7 60 -1 -53 c-3 -72 29 -146 69 -163 27 -11 32 -9
59 16 17 16 30 37 30 47 0 10 4 18 9 18 10 0 22 -145 14 -183 -4 -22 -12 -28
-44 -33 -45 -7 -45 -9 -29 -133 6 -42 6 -79 1 -85 -5 -6 -9 -45 -10 -86 0 -41
-1 -88 -1 -105 -1 -30 -33 -66 -75 -84 -13 -6 -21 -20 -23 -39 -3 -35 11 -46
71 -57 43 -8 45 -16 17 -70 -12 -22 -23 -59 -27 -82 l-6 -43 147 0 146 0 0 30
c0 20 5 30 15 30 9 0 15 9 15 25 0 31 26 45 87 45 73 0 93 -9 100 -41 3 -16 9
-29 14 -29 4 0 9 -12 11 -28 l3 -27 144 -3 144 -3 -6 46 c-4 25 -16 63 -27 85
-27 53 -26 57 18 64 58 11 70 16 76 31 8 21 -11 65 -28 65 -21 0 -78 70 -72
87 3 8 1 23 -4 33 -7 14 -7 25 2 40 10 15 10 26 1 51 -7 18 -10 36 -7 41 3 5
1 15 -5 22 -8 9 -8 35 -1 87 15 118 14 129 -14 129 -47 0 -57 23 -55 131 1 98
10 125 23 72 3 -16 19 -38 35 -51 26 -19 33 -21 56 -10 43 19 68 81 71 174 1
45 -1 98 -6 118 -4 20 -5 38 -1 41 10 5 8 36 -3 53 -4 7 -5 16 -2 19 3 4 -1
18 -11 32 -9 14 -26 65 -39 115 -25 99 -57 143 -109 151 -17 2 -66 11 -110 19
-44 9 -81 16 -83 16 -2 0 0 5 3 10 3 6 17 10 30 10 26 0 48 30 40 52 -3 8 -20
20 -38 26 -27 10 -33 17 -35 44 -4 63 -13 84 -41 101 -32 19 -42 19 -87 6z m6
-32 c0 -12 -39 -42 -46 -35 -6 6 26 48 37 48 5 0 9 -6 9 -13z m110 -96 c0 -8
-171 -23 -180 -15 -2 3 2 9 10 14 19 12 170 13 170 1z m-62 -144 c4 -30 -13
-36 -43 -13 -17 12 -17 16 -6 30 20 24 45 15 49 -17z m66 -8 c10 -50 7 -112
-7 -138 -9 -18 -29 -30 -76 -44 l-63 -18 -29 27 c-24 23 -29 35 -28 73 2 81
11 106 40 109 19 2 29 -4 39 -23 30 -56 80 -53 80 5 0 50 34 57 44 9z m126
-10 c19 -5 46 -9 59 -9 13 0 39 -11 56 -24 27 -21 36 -38 54 -110 29 -117 28
-121 -18 -135 -64 -19 -93 6 -51 42 26 22 17 42 -11 27 -23 -13 -23 -9 -5 52
8 25 12 49 9 52 -12 11 -23 6 -23 -11 0 -23 -23 -86 -34 -94 -5 -4 -3 -35 5
-73 7 -36 10 -68 7 -72 -4 -3 -44 4 -89 15 -121 31 -128 7 -16 -48 44 -22 53
-32 61 -64 11 -44 1 -56 -49 -58 -26 -1 -24 -2 15 -13 45 -12 46 -13 42 -66
-2 -25 -42 -45 -115 -59 -99 -18 -137 3 -121 66 5 18 10 21 23 13 10 -5 26 -8
37 -8 10 1 34 -2 52 -6 53 -12 36 2 -22 19 -40 12 -53 20 -49 31 3 9 -2 14
-16 14 -19 0 -21 5 -20 48 1 26 3 39 6 30 5 -22 23 -24 23 -3 0 12 8 14 40 9
27 -4 40 -3 40 5 0 6 -3 10 -7 9 -5 -1 -27 4 -50 10 -34 10 -44 18 -53 47 -9
28 -9 41 4 66 9 18 16 38 16 46 0 7 3 12 8 11 4 -2 7 2 7 7 0 6 -6 9 -15 7 -8
-1 5 9 29 22 25 13 48 32 52 42 4 11 8 56 8 101 l1 82 38 -6 c20 -3 53 -9 72
-14z m-337 -67 l-6 -77 42 -38 c22 -20 50 -37 61 -37 21 0 21 -2 3 -77 -7 -31
-5 -153 3 -195 7 -36 -25 -68 -68 -68 -37 0 -33 -9 8 -16 32 -5 56 -31 52 -54
-4 -21 -50 -24 -133 -10 -79 13 -116 28 -123 50 -4 12 -2 13 9 3 7 -7 29 -13
49 -13 39 1 34 7 -31 43 -23 13 -29 21 -21 26 10 6 9 11 -3 21 -16 13 -20 42
-8 54 4 3 8 14 9 23 4 23 29 35 80 38 33 2 51 10 69 30 23 24 26 53 5 40 -25
-16 -112 -24 -136 -13 -27 13 -27 6 -9 116 4 23 4 42 0 42 -11 0 -45 -41 -45
-55 0 -7 -8 -23 -18 -35 -17 -21 -21 -22 -58 -9 -21 7 -40 14 -42 15 -2 1 7
44 19 95 25 108 52 144 115 154 21 3 50 10 64 14 14 5 46 9 72 10 l46 1 -5
-78z m-263 -232 c30 -11 46 -19 35 -20 -29 0 -93 19 -100 30 -9 14 2 12 65
-10z m795 4 c-16 -8 -37 -22 -46 -30 -9 -8 -19 -10 -25 -5 -5 5 -20 11 -34 14
-22 4 -21 4 6 6 18 0 47 8 65 16 45 19 72 19 34 -1z m25 -23 c0 -5 -16 -15
-35 -21 -19 -6 -35 -16 -35 -21 0 -5 11 -4 26 1 25 10 61 14 53 6 -2 -3 -37
-14 -77 -25 -93 -26 -96 -8 -4 36 76 37 72 36 72 24z m-811 -15 c24 -3 48 -10
55 -16 8 -10 1 -11 -32 -6 -52 8 -49 -10 3 -20 19 -3 35 -10 35 -15 0 -11 0
-11 -36 0 -16 5 -42 12 -57 15 -15 4 -25 11 -22 16 3 5 -5 16 -17 25 l-23 16
25 -6 c14 -3 45 -7 69 -9z m800 -93 c18 -65 12 -143 -11 -143 -5 0 -6 4 -3 10
3 5 0 20 -7 32 -6 13 -11 32 -10 43 4 27 -21 60 -40 52 -17 -6 -48 -92 -48
-133 0 -20 -3 -25 -10 -18 -6 6 -10 44 -8 89 l3 78 45 12 c73 20 78 19 89 -22z
m-819 -53 c0 -5 -2 -10 -4 -10 -3 0 -8 5 -11 10 -3 6 -1 10 4 10 6 0 11 -4 11
-10z m40 6 c0 -3 -4 -8 -10 -11 -5 -3 -10 -1 -10 4 0 6 5 11 10 11 6 0 10 -2
10 -4z m697 -18 c-3 -8 -6 -5 -6 6 -1 11 2 17 5 13 3 -3 4 -12 1 -19z m56 -93
c0 -52 -15 -75 -40 -59 -9 5 -18 20 -20 32 -2 18 2 22 22 22 25 0 33 14 15 25
-5 3 -7 12 -3 20 3 8 0 15 -6 15 -6 0 -11 8 -11 17 0 15 3 15 22 -4 16 -16 21
-34 21 -68z m-67 40 c-17 -17 -21 -9 -10 20 5 11 10 13 17 6 6 -6 4 -15 -7
-26z m-726 -6 c0 -10 -4 -19 -10 -19 -5 0 -10 -4 -10 -10 0 -5 11 -10 25 -10
20 0 25 -5 25 -24 0 -27 -37 -47 -49 -27 -10 15 -14 99 -6 111 9 15 25 2 25
-21z m35 -9 c3 -5 1 -10 -4 -10 -6 0 -11 5 -11 10 0 6 2 10 4 10 3 0 8 -4 11
-10z m710 0 c3 -5 1 -10 -4 -10 -6 0 -11 5 -11 10 0 6 2 10 4 10 3 0 8 -4 11
-10z m-19 -75 c13 -28 7 -40 -13 -24 -14 12 -18 49 -5 49 4 0 12 -11 18 -25z
m-450 -43 c85 -10 232 -3 312 14 62 13 31 -11 -61 -47 -167 -66 -168 -66 -299
-12 -123 50 -133 56 -124 71 4 6 20 5 44 -3 21 -8 78 -18 128 -23z m354 -60
l0 -47 -52 -17 c-29 -9 -85 -28 -125 -42 -39 -14 -91 -28 -114 -31 -24 -4 -47
-9 -51 -11 -7 -5 -86 -22 -155 -34 l-43 -7 0 32 c0 37 13 51 55 60 224 47 429
108 460 136 19 18 25 8 25 -39z m-413 1 l96 -37 -51 -11 c-36 -9 -65 -9 -101
-1 -51 10 -51 10 -51 48 0 21 2 38 5 38 3 0 49 -17 102 -37z m-62 -73 c4 -6
-7 -10 -24 -10 -17 0 -31 5 -31 10 0 6 11 10 24 10 14 0 28 -4 31 -10z m485
-5 c0 -8 -9 -15 -20 -15 -22 0 -27 15 -7 23 21 9 27 7 27 -8z m-26 -31 c38 -6
46 -10 46 -28 0 -47 -11 -50 -114 -38 -52 7 -116 12 -143 13 l-48 1 50 15 c28
8 66 20 85 28 40 16 60 17 124 9z m-539 -46 c0 -43 -9 -58 -32 -58 -9 0 -13
17 -13 50 0 45 2 50 23 50 20 0 23 -5 22 -42z m655 -8 c0 -27 -2 -50 -4 -50
-25 0 -36 16 -36 56 0 37 3 44 20 44 17 0 20 -7 20 -50z m-244 -28 c12 -7 6
-12 -28 -25 -59 -23 -126 -22 -163 3 -44 29 -53 24 -20 -10 25 -26 27 -33 17
-55 -6 -14 -17 -25 -23 -25 -8 0 -10 -15 -6 -46 4 -43 3 -46 -24 -56 -33 -11
-36 -20 -14 -38 20 -17 19 -67 -2 -78 -14 -9 -14 -10 5 -16 22 -7 31 -26 13
-26 -5 0 -12 -9 -16 -19 -8 -27 -40 -35 -66 -17 -14 9 -29 12 -43 7 -15 -6
-26 -3 -39 10 -18 17 -18 18 11 33 27 14 78 83 69 92 -2 2 -25 -2 -50 -10 -64
-19 -83 -5 -71 50 4 21 7 47 6 56 -1 9 17 31 39 49 45 35 46 56 5 51 -34 -4
-32 13 5 40 42 31 143 47 267 43 62 -2 120 -8 128 -13z m153 -8 c36 -7 53 -32
57 -84 2 -19 7 -51 12 -71 13 -52 4 -94 -23 -109 -20 -11 -29 -10 -60 9 -20
11 -38 21 -41 21 -2 0 8 -18 22 -40 15 -22 33 -40 40 -40 40 0 16 -48 -38 -76
-37 -19 -41 -18 -55 13 -10 21 -10 29 0 36 7 5 -1 6 -20 2 -41 -8 -45 14 -8
43 30 24 33 37 6 22 -29 -15 -31 -13 -27 31 2 22 14 55 26 72 l23 31 -32 -24
-33 -23 7 24 c17 60 17 62 5 54 -13 -8 -39 22 -40 47 0 9 15 28 33 42 33 27
80 33 146 20z m-185 -118 c16 -34 20 -58 15 -72 -4 -13 -3 -26 3 -32 6 -6 8
-21 5 -34 -6 -22 -10 -23 -94 -23 l-88 0 -2 55 c-1 35 6 74 19 106 l21 52 49
0 49 0 23 -52z m70 -261 c3 -8 1 -15 -4 -15 -6 0 -10 7 -10 15 0 8 2 15 4 15
2 0 6 -7 10 -15z m191 -5 c-3 -5 -12 -10 -18 -10 -7 0 -6 4 3 10 19 12 23 12
15 0z m-483 -160 c3 -58 3 -107 1 -110 -3 -3 -57 -7 -120 -8 l-116 -4 7 39 c7
38 36 73 62 73 17 0 19 17 3 22 -6 2 -13 25 -16 51 l-6 47 90 -2 91 -3 4 -105z
m468 63 c0 -32 -5 -45 -20 -53 -25 -13 -17 -30 14 -30 30 0 45 -19 53 -64 l6
-36 -89 0 c-134 0 -134 0 -134 75 0 34 3 82 6 106 l6 44 79 0 79 0 0 -42z"/>
<path d="M450 1578 c19 -5 56 -18 83 -28 26 -11 47 -15 47 -11 0 13 -104 51
-135 50 l-30 -1 35 -10z"/>
<path d="M450 1551 c0 -4 16 -12 35 -18 20 -6 35 -7 35 -2 0 5 -1 9 -3 9 -1 0
-17 4 -35 9 -17 5 -32 6 -32 2z"/>
<path d="M516 1313 c-11 -11 -6 -23 9 -23 8 0 15 4 15 9 0 13 -16 22 -24 14z"/>
<path d="M510 1035 c0 -8 5 -15 10 -15 6 0 10 7 10 15 0 8 -4 15 -10 15 -5 0
-10 -7 -10 -15z"/>
</g>

</svg>
