<?xml version="1.0" standalone="no"?>
<!DOCTYPE svg PUBLIC "-//W3C//DTD SVG 20010904//EN"
 "http://www.w3.org/TR/2001/REC-SVG-20010904/DTD/svg10.dtd">
<svg xmlns="http://www.w3.org/2000/svg" width="228pt" height="648pt" viewBox="0 0 228 648">

<polygon points="92,60 90,90 100,121 130,122 144,104 144,61"
fill="#EBC952" stroke="none"/>

<polygon points="111,154 104,230 62,238 59,284 49,319 172,320 159,212 126,214"
fill="#D4D4D4" stroke="none"/>

<polygon points="84,135 136,124 161,204 127,219 114,174 99,233 55,226"
fill="#226000" stroke="none"/>

<polygon points="28,234 23,293 48,303 61,291 57,235"
fill="#EBC952" stroke="none"/>

<polygon points="168,232 162,293 197,295 205,241"
fill="#EBC952" stroke="none"/>

<polygon points="29,233 27,261 40,260 42,274 56,278 60,239"
fill="blue" stroke="none"/>

<polygon points="165,276 186,272 185,263 180,261 180,251 185,250 188,253 194,253 203,235 157,213"
fill="blue" stroke="none"/>

<polygon points="49,320 48,341 172,343 170,322"
fill="#1E65AD" stroke="none"/>

<polygon points="43,343 179,342 184,613 35,612"
fill="#491401" stroke="none"/>

<polygon points="38,628 66,637 96,626 111,613 128,634 152,636 160,615 58,613"
fill="white" stroke="none"/>

<g transform="translate(0,648) scale(0.284211,-0.284211)" fill="black" stroke="none">

<path d="M373 2232 c-37 -14 -44 -21 -49 -52 -10 -61 -9 -60 -82 -60 -88 0
-132 -9 -139 -28 -11 -29 27 -42 119 -42 l88 0 0 -72 c1 -40 7 -90 14 -110 15
-43 13 -48 -24 -48 -81 0 -218 -97 -233 -165 -4 -17 -10 -103 -13 -192 -7
-170 3 -246 34 -258 13 -5 14 -53 8 -438 -7 -410 -8 -432 -27 -450 -26 -24
-25 -67 1 -74 18 -5 20 -14 20 -104 l0 -99 39 0 c22 0 43 -4 46 -10 8 -13 162
-13 170 0 3 6 15 10 25 10 13 0 20 9 22 27 4 25 5 26 13 8 18 -43 46 -55 133
-55 48 0 82 4 82 10 0 6 14 10 30 10 l30 0 0 99 0 100 33 3 c27 2 33 8 35 31
4 33 -11 55 -41 59 -21 3 -22 9 -28 143 -4 77 -7 274 -8 437 l-1 296 28 7 c42
9 52 49 52 215 0 192 -12 261 -55 303 -63 63 -109 86 -172 87 -36 0 -42 10
-18 30 11 9 15 35 15 101 0 49 3 89 8 90 4 0 58 4 120 8 62 5 115 11 118 13 2
3 2 12 -1 20 -8 21 -85 38 -169 38 -81 0 -77 -3 -91 66 -5 29 -16 36 -85 61
-3 1 -24 -6 -47 -15z m17 -57 c-7 -8 -21 -15 -32 -15 -16 0 -15 3 9 24 28 25
45 18 23 -9z m-30 -167 c16 -10 24 -10 41 0 16 10 24 10 35 1 7 -6 25 -8 39
-5 30 8 34 -12 9 -49 -19 -29 -34 -32 -34 -7 0 11 -8 17 -23 17 -14 0 -24 -6
-23 -14 1 -20 -51 -36 -69 -21 -17 14 -21 90 -5 90 6 0 19 -6 30 -12z m110
-122 c0 -22 -19 -29 -36 -15 -11 9 -18 9 -26 1 -18 -18 -28 -14 -28 8 0 17 7
20 45 20 33 0 45 -4 45 -14z m-13 -70 c-3 -7 1 -23 9 -35 15 -20 45 -121 57
-187 5 -26 2 -33 -19 -43 -47 -21 -50 -17 -63 92 -19 156 -19 165 -8 176 15
15 30 14 24 -3z m-57 -8 c0 -5 -4 -7 -9 -4 -13 9 -21 -33 -14 -80 3 -23 1 -57
-6 -74 -6 -18 -14 -68 -17 -111 -4 -43 -10 -79 -14 -79 -4 0 -26 19 -49 43
-42 42 -42 43 -36 97 8 73 43 181 64 200 19 16 81 23 81 8z m-3 -110 c-3 -8
-6 -5 -6 6 -1 11 2 17 5 13 3 -3 4 -12 1 -19z m3 -261 c-5 -16 -10 -42 -9 -56
0 -23 1 -24 8 -6 8 19 8 19 19 -1 6 -12 21 -24 32 -27 24 -6 24 -9 0 49 -12
26 -19 53 -16 60 5 12 67 44 85 44 11 0 31 -118 31 -174 -1 -52 -21 -77 -79
-102 l-26 -11 29 -7 c16 -4 39 -14 50 -22 19 -13 14 -14 -52 -14 -77 0 -82 4
-63 53 5 13 6 29 2 36 -6 10 -10 8 -15 -4 -7 -19 -42 -16 -128 12 -54 17 -53
15 -36 79 11 39 16 45 35 41 19 -3 21 -1 13 14 -15 27 -13 30 23 28 17 -1 44
3 60 9 26 11 27 15 27 81 0 38 3 78 8 88 11 29 14 -136 2 -170z m230 -29 c0
-16 -3 -19 -11 -11 -6 6 -8 16 -5 22 11 17 16 13 16 -11z m50 2 c0 -11 -4 -20
-10 -20 -5 0 -10 9 -10 20 0 11 5 20 10 20 6 0 10 -9 10 -20z m-540 -17 c-1
-24 -2 -26 -11 -10 -5 9 -7 22 -4 27 10 17 15 11 15 -17z m50 7 c0 -11 -4 -20
-10 -20 -5 0 -10 9 -10 20 0 11 5 20 10 20 6 0 10 -9 10 -20z m470 -21 c0 -5
4 -8 9 -5 20 13 33 -24 26 -74 -7 -50 -8 -51 -39 -48 -26 2 -32 8 -34 31 -3
24 0 27 30 28 18 0 27 3 21 6 -7 2 -13 13 -13 24 0 10 -4 19 -10 19 -5 0 -10
7 -10 15 0 8 5 15 10 15 6 0 10 -5 10 -11z m-490 -14 c0 -8 -4 -15 -10 -15 -5
0 -10 7 -10 15 0 8 5 15 10 15 6 0 10 -7 10 -15z m458 -3 c2 -7 -3 -12 -12
-12 -9 0 -16 7 -16 16 0 17 22 14 28 -4z m-428 -12 c0 -13 -5 -18 -14 -14 -8
3 -12 12 -9 20 8 21 23 17 23 -6z m-60 -15 c0 -14 -6 -25 -12 -25 -8 0 -6 -5
4 -11 9 -5 28 -8 41 -5 21 4 24 1 19 -17 -6 -26 -30 -46 -54 -47 -28 0 -49 95
-26 118 19 19 28 14 28 -13z m507 -7 c-3 -8 -6 -5 -6 6 -1 11 2 17 5 13 3 -3
4 -12 1 -19z m-490 -20 c-3 -7 -5 -2 -5 12 0 14 2 19 5 13 2 -7 2 -19 0 -25z
m473 22 c0 -5 -4 -10 -10 -10 -5 0 -10 5 -10 10 0 6 5 10 10 10 6 0 10 -4 10
-10z m-435 -10 c3 -5 -1 -10 -9 -10 -9 0 -16 5 -16 10 0 6 4 10 9 10 6 0 13
-4 16 -10z m150 -130 c29 -12 29 -13 7 -19 -12 -3 -53 -5 -92 -3 -53 3 -68 7
-64 18 2 7 6 20 8 28 4 12 13 13 58 2 29 -8 67 -19 83 -26z m125 -74 c0 -35
-20 -43 -21 -9 -2 23 -2 24 -6 6 -2 -13 -9 -23 -14 -23 -5 0 -10 10 -10 23 -2
21 -2 21 -6 1 -4 -20 -10 -21 -79 -20 -44 1 -74 -3 -74 -9 0 -5 -5 -3 -10 5
-9 13 -11 13 -20 0 -8 -12 -10 -8 -11 15 -1 24 -3 25 -6 8 -6 -31 -23 -29 -23
2 l0 25 140 0 140 0 0 -24z m110 0 c0 -35 -20 -43 -21 -9 0 15 -3 21 -6 13
-14 -43 -16 -44 -23 -15 -6 24 -8 25 -9 8 0 -13 -5 -23 -11 -23 -5 0 -10 10
-11 23 -1 21 -1 21 -9 -3 l-8 -25 -1 28 c-1 26 1 27 49 27 46 0 50 -2 50 -24z
m11 -63 c1 -10 1 -24 0 -31 -1 -8 2 -19 7 -25 13 -16 14 -95 1 -102 -5 -4 -9
-24 -9 -46 0 -32 -7 -46 -38 -77 -21 -21 -44 -53 -51 -71 -19 -44 -31 -23 -31
55 0 58 2 64 37 98 43 41 39 58 -6 26 -17 -12 -31 -19 -31 -15 0 17 33 66 50
75 18 10 29 40 14 40 -4 0 -26 -18 -50 -40 -58 -54 -101 -55 -148 -5 -32 34
-61 50 -36 20 7 -8 9 -15 6 -15 -4 0 5 -12 19 -27 31 -35 33 -54 2 -25 -13 12
-26 22 -30 22 -16 0 -5 -28 18 -50 20 -19 26 -34 26 -70 1 -25 3 -183 5 -352
l5 -308 -91 0 -90 0 0 75 c0 41 3 75 8 75 4 0 6 48 5 107 -2 102 -1 105 11 63
10 -38 17 -47 46 -56 19 -7 37 -10 38 -9 2 2 -8 23 -22 48 -26 44 -34 87 -16
87 6 0 10 -5 10 -10 0 -11 50 -34 57 -27 2 2 -7 17 -19 32 -12 16 -23 36 -23
46 -1 10 -9 27 -17 36 -9 10 -19 35 -23 56 -4 20 -11 37 -15 37 -5 0 -11 8
-13 18 -3 9 -6 -10 -7 -43 -2 -38 -5 -49 -8 -30 -2 17 -1 121 3 233 l7 202
199 0 c182 0 199 -1 200 -17z m19 -451 c6 -2 10 -94 10 -230 l-1 -227 -19 38
c-27 54 -47 124 -55 186 -5 43 -3 57 12 73 18 20 18 20 23 -8 3 -15 10 -29 17
-31 8 -3 10 12 7 54 -3 32 -8 65 -11 73 -7 16 -9 25 -12 38 -1 4 -10 -17 -21
-47 -20 -56 -42 -80 -73 -81 -24 0 -11 -20 13 -20 17 0 19 -7 18 -64 -1 -54 4
-75 36 -139 20 -41 36 -78 36 -81 0 -4 -24 -6 -52 -4 l-53 3 -3 63 c-4 83 -20
79 -25 -5 -2 -38 -4 14 -5 115 -1 113 -6 182 -12 182 -6 0 -9 43 -9 113 1 61
4 102 6 90 2 -13 8 -23 12 -23 5 0 6 -11 4 -24 -3 -14 2 -34 10 -46 15 -21 15
-21 21 17 7 38 27 71 76 122 l25 26 8 -80 c4 -44 12 -81 17 -83z m-343 -517
c2 -6 -13 -18 -32 -27 -19 -8 -35 -14 -35 -12 0 1 5 15 10 29 7 19 16 26 32
23 12 -2 23 -8 25 -13z m253 -15 c0 -5 -12 -10 -26 -10 -14 0 -23 4 -19 10 3
6 15 10 26 10 10 0 19 -4 19 -10z"/>
<path d="M321 403 c0 -24 -4 -43 -8 -43 -13 0 -7 -64 9 -94 14 -26 14 -22 11
61 -5 102 -10 137 -12 76z"/>
<path d="M204 242 c18 -34 83 -85 91 -72 3 6 2 10 -3 10 -5 0 -15 11 -22 25
-7 14 -28 34 -47 45 l-33 19 14 -27z"/>
</g>

</svg>
