<?xml version="1.0" standalone="no"?>
<!DOCTYPE svg PUBLIC "-//W3C//DTD SVG 20010904//EN"
 "http://www.w3.org/TR/2001/REC-SVG-20010904/DTD/svg10.dtd">
<svg xmlns="http://www.w3.org/2000/svg" width="373pt" height="648pt" viewBox="0 0 373 648">

<polygon points="70,36 130,38 146,13 182,10 206,38 256,31 259,38 160,58 105,55 81,47" 
fill="#4C3F10" stroke="none"/>

<polygon points="34,148 51,109 96,89 232,70 278,84 366,159 368,184 359,201 211,165 208,159 189,162 88,247" 
fill="khaki" stroke="none"/>

<polygon points="136,57 200,53 209,79 190,128 145,109" 
fill="#EBC952" stroke="none"/>

<polygon points="191,127 208,80 219,92 209,121 215,139 224,139 232,124 233,104 242,111 243,143 215,158 189,161" 
fill="#EBC952" stroke="none"/>

<polygon points="212,138 230,133 233,103 217,94 209,113" 
fill="#0A5AED" stroke="none"/>

<polygon points="189,161 210,158 281,234 244,305 139,320 93,316 72,239" 
fill="#991709" stroke="none"/>

<polygon points="312,327 339,612 291,612 279,464 254,183" 
fill="#F8DE82" stroke="none"/>

<polygon points="31,255 98,290 74,479 58,604 25,601 17,462" 
fill="#F8DE82" stroke="none"/>

<polygon points="97,321 252,311 256,337 95,348" 
fill="#862705" stroke="none"/>

<polygon points="93,348 254,337 288,520 292,605 239,617 175,408 103,606 58,605" 
fill="#0D82A9" stroke="none"/>

<polygon points="180,392 242,608 102,605" 
fill="#F8DE82" stroke="none"/>

<polygon points="36,625 75,638 112,632 171,604 198,616 235,634 261,636 303,633 297,607 292,601 250,614 230,614 177,586 127,611 104,604 46,605" 
fill="#08265E" stroke="none"/>


<g transform="translate(0,648) scale(0.324000,-0.324000)" fill="black" stroke="none">

<path d="M490 1971 c-38 -5 -49 -12 -70 -45 l-25 -39 -86 6 c-107 7 -123 -1
-70 -36 28 -18 59 -28 105 -33 l66 -7 0 -32 c0 -31 -3 -34 -47 -44 -27 -5 -67
-13 -90 -16 -67 -10 -125 -54 -158 -119 -29 -55 -29 -58 -11 -71 17 -13 18
-23 13 -112 -4 -53 -11 -122 -17 -152 -5 -31 -14 -132 -20 -226 -6 -93 -19
-314 -30 -490 -10 -177 -22 -340 -26 -363 -6 -38 -5 -42 15 -42 25 0 25 -1 6
-47 -21 -50 -20 -53 23 -53 20 0 68 -7 105 -17 59 -14 80 -14 145 -5 43 7 96
12 120 12 35 0 42 3 42 19 0 22 35 51 60 51 9 0 34 -15 56 -33 32 -28 51 -36
104 -42 77 -10 187 -10 287 0 l72 7 -14 29 c-19 35 -19 39 0 39 16 0 16 -1 -6
255 -19 224 -63 609 -88 780 -6 39 -11 110 -11 158 l0 88 38 -8 c44 -9 138
-11 146 -2 4 4 8 28 10 55 2 27 1 34 -1 16 -3 -24 -8 -31 -16 -24 -7 6 -40 17
-75 26 -35 9 -78 27 -96 41 -18 14 -35 23 -38 20 -3 -3 -4 14 -4 38 l1 44 60
-17 c130 -38 143 -43 153 -64 8 -15 11 -17 11 -5 1 17 -153 163 -217 207 -46
31 -124 58 -208 73 -58 10 -84 23 -72 35 3 2 40 13 84 25 43 11 85 25 92 32
24 20 -13 29 -75 18 -87 -17 -95 -15 -131 34 -19 26 -40 44 -50 43 -9 0 -37
-4 -62 -7z m67 -21 c-3 -14 3 -30 20 -48 l25 -27 -55 -3 c-67 -4 -121 9 -124
29 -2 8 6 25 17 39 15 20 23 23 37 14 13 -7 25 -7 43 3 35 18 43 16 37 -7z
m237 -59 c17 -26 -358 -70 -472 -55 -41 5 -102 38 -91 48 6 6 188 -11 262 -24
53 -9 75 -9 100 0 18 7 66 18 107 25 41 7 78 13 82 14 4 0 9 -3 12 -8z m-230
-83 c-3 -5 -9 -6 -14 -3 -4 3 -6 -13 -3 -35 5 -34 3 -40 -13 -40 -14 0 -15 -3
-6 -12 8 -8 15 -8 25 0 8 7 17 10 21 7 3 -3 2 1 -4 7 -5 7 -10 25 -10 41 0 24
3 28 20 24 11 -3 23 -1 26 4 3 5 -3 9 -12 9 -10 0 -15 3 -11 6 3 3 15 3 26 -1
16 -5 21 -15 21 -42 0 -41 -19 -101 -37 -121 -7 -7 -10 -19 -7 -26 3 -8 -4
-16 -16 -19 -16 -4 -20 -2 -16 9 7 17 1 18 -16 1 -16 -16 -115 -57 -136 -57
-52 0 -70 83 -29 134 28 34 51 31 61 -8 4 -15 15 -35 25 -45 19 -19 65 -36 55
-20 -3 5 -11 9 -17 9 -33 0 -67 69 -67 136 0 46 7 53 29 32 9 -9 12 -9 7 -1
-3 6 0 13 6 15 24 8 97 5 92 -4z m197 -40 c23 -7 51 -25 63 -41 11 -15 35 -44
51 -64 22 -27 25 -35 12 -30 -10 4 -42 7 -71 7 -47 0 -54 3 -64 26 -7 14 -16
23 -21 20 -7 -5 -61 75 -61 90 0 8 52 3 91 -8z m-391 -53 c-6 -8 -21 -17 -32
-21 -11 -3 -33 -21 -49 -39 -18 -20 -46 -37 -73 -45 -25 -7 -53 -21 -63 -33
-18 -20 -18 -20 46 -13 36 3 79 15 98 26 32 19 40 17 25 -7 -12 -19 -58 -32
-131 -39 -44 -4 -71 -3 -75 4 -11 18 24 90 57 115 45 34 123 61 191 66 15 1
16 -2 6 -14z m285 -24 c-3 -12 -9 -21 -13 -21 -12 0 -1 -94 12 -102 33 -22 66
9 66 63 0 53 17 49 26 -6 9 -65 -9 -89 -82 -103 -31 -7 -61 -12 -66 -12 -14 0
-9 84 7 106 8 12 16 37 18 56 2 19 7 40 12 47 11 19 28 -3 20 -28z m55 -42 c0
-26 -4 -29 -30 -29 -19 0 -30 5 -30 14 0 9 7 12 19 9 24 -6 36 13 20 33 -10
12 -9 13 5 8 10 -4 16 -17 16 -35z m250 -9 c0 -4 -6 -10 -14 -13 -10 -4 -13 2
-12 18 1 17 4 21 14 13 6 -6 12 -14 12 -18z m-150 -30 c-10 -6 -11 -10 -2 -10
15 0 15 -21 1 -70 -13 -43 -42 -55 -110 -44 -47 8 -50 20 -9 29 38 8 70 41 70
71 0 15 7 24 23 27 38 7 42 7 27 -3z m250 -35 c0 -10 -49 19 -54 32 -4 9 4 7
24 -7 17 -12 30 -23 30 -25z m-350 30 c0 -11 -33 -34 -41 -30 -18 12 -9 30 16
31 14 1 25 0 25 -1z m165 -12 c12 -11 15 -25 11 -46 -3 -16 -6 -36 -6 -44 0
-9 -8 -13 -22 -11 -20 3 -23 10 -26 61 -3 62 10 74 43 40z m-303 -54 c3 -51 3
-51 -36 -70 -22 -10 -41 -19 -43 -19 -2 0 -3 26 -3 58 0 64 11 82 51 82 25 0
27 -3 31 -51z m-102 -19 c0 -29 -4 -40 -15 -40 -26 0 -29 -1 -78 -28 -35 -20
-47 -32 -43 -44 2 -11 -2 -18 -11 -18 -8 0 -30 -7 -49 -16 -28 -13 -37 -14
-49 -4 -12 10 -13 16 -4 27 10 11 5 22 -26 53 -21 22 -36 42 -33 45 2 3 22 -1
44 -8 57 -20 104 -28 104 -17 0 5 -7 13 -16 18 -22 12 -8 21 81 49 95 29 95
30 95 -17z m162 -89 l-4 -79 26 5 c15 3 34 16 43 29 8 13 19 24 23 24 16 0 18
-104 2 -137 -15 -32 -21 -36 -109 -58 l-52 -13 -3 82 c-3 68 -1 83 14 95 13
10 18 28 18 67 0 47 3 53 23 57 12 2 22 5 23 6 0 0 -1 -34 -4 -78z m438 -13
c53 -1 66 -11 28 -22 -39 -10 -62 -7 -93 15 -23 16 -25 19 -8 14 12 -3 45 -7
73 -7z m-500 -16 c0 -5 -16 -13 -35 -19 -39 -12 -47 -2 -12 15 27 13 47 15 47
4z m-39 -79 c1 -21 4 -63 7 -93 8 -88 7 -138 -2 -147 -5 -4 -11 -2 -13 5 -3 6
-16 12 -29 12 -29 0 -102 63 -110 97 -4 13 -15 28 -26 34 -19 10 -18 41 2 63
10 10 109 -63 110 -81 0 -7 5 -13 11 -13 6 0 5 11 -4 28 -8 15 -20 39 -26 55
-6 15 -17 27 -26 27 -30 0 -14 19 28 33 68 25 77 22 78 -20z m-363 -178 l33
-16 -8 -67 c-13 -111 -8 -282 8 -282 4 0 11 26 14 58 4 31 13 82 21 113 8 31
14 67 14 80 1 23 1 23 17 -5 19 -35 14 -98 -16 -206 -13 -45 -25 -133 -32
-220 -5 -80 -15 -188 -20 -240 -6 -52 -14 -122 -18 -155 -5 -53 -8 -60 -26
-57 -11 2 -28 3 -37 3 -24 0 -23 25 3 113 17 55 20 85 15 133 -5 45 -2 79 10
120 15 52 16 81 5 303 -13 247 -16 289 -25 297 -6 6 -13 -39 -22 -142 -4 -44
-9 -96 -11 -115 -1 -19 -6 -93 -9 -165 -4 -71 -11 -137 -16 -145 -6 -10 -7 15
-3 70 12 177 35 536 35 560 l0 25 18 -21 c9 -12 32 -29 50 -39z m227 -25 c8 0
15 -5 15 -11 0 -7 -9 -9 -22 -5 -13 3 -29 6 -36 6 -13 0 -52 57 -52 78 0 6 18
-6 40 -28 22 -22 47 -40 55 -40z m195 46 c0 -3 -4 -8 -10 -11 -5 -3 -10 -1
-10 4 0 6 5 11 10 11 6 0 10 -2 10 -4z m129 -37 c-25 -19 -49 -25 -49 -11 1 4
15 16 33 27 37 24 51 11 16 -16z m-56 11 c-18 -11 -33 -24 -33 -30 0 -12 -50
-33 -58 -25 -3 3 10 21 28 40 24 25 43 35 64 35 l31 0 -32 -20z m231 -28 c11
-26 30 -64 43 -85 19 -30 27 -65 38 -160 7 -67 16 -135 19 -152 5 -21 0 -15
-17 20 -13 28 -27 68 -31 90 -4 22 -8 45 -10 50 -1 6 -8 37 -15 70 -18 89 -21
94 -36 89 -9 -4 -15 -24 -17 -52 -3 -47 -3 -46 -18 30 -14 67 -14 82 -2 113 8
19 17 35 21 35 3 0 15 -21 25 -48z m-168 -34 c-33 -19 -119 -38 -173 -38 -28
0 -55 -4 -58 -10 -7 -11 -116 -13 -152 -4 -16 4 -23 14 -23 30 0 24 1 24 68
19 37 -3 90 -7 117 -9 28 -3 68 2 90 9 52 17 159 20 131 3z m-14 -88 c3 -16 1
-30 -4 -30 -4 0 -8 6 -8 13 0 6 -3 23 -7 36 -4 16 -2 22 4 18 6 -4 13 -20 15
-37z m30 0 c3 -16 1 -30 -3 -30 -4 0 -9 15 -11 34 -5 42 8 38 14 -4z m32 18
c8 -32 7 -48 -3 -48 -5 0 -11 16 -13 35 -4 39 6 48 16 13z m-173 -61 c-8 -8
-11 2 -10 34 l1 44 10 -34 c6 -23 6 -37 -1 -44z m43 41 c6 -30 2 -47 -9 -36
-11 10 -17 68 -7 68 5 0 12 -14 16 -32z m36 2 c0 -16 -4 -30 -10 -30 -5 0 -10
14 -10 30 0 17 5 30 10 30 6 0 10 -13 10 -30z m-357 -12 c-8 -46 -13 -48 -13
-5 0 21 4 37 10 37 5 0 7 -14 3 -32z m37 -3 c0 -19 -4 -35 -10 -35 -5 0 -10
16 -10 35 0 19 5 35 10 35 6 0 10 -16 10 -35z m34 -2 c-7 -42 -11 -49 -20 -41
-8 9 7 78 18 78 5 0 6 -16 2 -37z m36 2 c0 -19 -4 -35 -10 -35 -5 0 -10 16
-10 35 0 19 5 35 10 35 6 0 10 -16 10 -35z m99 23 c-1 -7 -5 -24 -9 -38 -7
-22 -8 -21 -9 13 -1 20 4 37 9 37 6 0 10 -6 9 -12z m18 -35 c-3 -10 -5 -2 -5
17 0 19 2 27 5 18 2 -10 2 -26 0 -35z m20 -5 c-2 -13 -4 -5 -4 17 -1 22 1 32
4 23 2 -10 2 -28 0 -40z m-105 12 c-2 -16 -8 -30 -13 -30 -10 0 -11 7 -3 38 9
33 21 27 16 -8z m34 14 c-3 -9 -6 -22 -6 -30 0 -8 -4 -14 -8 -14 -5 0 -7 14
-4 30 2 17 9 30 14 30 6 0 7 -7 4 -16z m238 -60 c-17 -25 -17 -25 9 -18 27 6
27 5 27 -45 0 -29 7 -68 15 -88 24 -57 17 -61 -25 -13 -56 64 -49 29 13 -65
75 -113 84 -142 97 -293 6 -73 13 -139 16 -147 8 -20 -57 -48 -91 -39 -44 11
-57 46 -52 137 6 104 14 137 44 164 29 27 30 47 3 38 -31 -10 -76 3 -77 23 -1
9 -11 44 -23 77 -12 33 -22 79 -23 102 0 37 -3 43 -21 43 l-21 1 20 17 c23 19
37 47 28 56 -3 3 -27 -10 -53 -29 -26 -19 -56 -35 -65 -35 -37 0 -101 24 -127
49 -32 28 -34 21 -13 -40 25 -71 12 -78 -50 -24 -30 25 -55 44 -55 42 0 -3 20
-39 45 -81 24 -41 40 -78 35 -81 -6 -4 -10 -22 -10 -40 0 -50 -50 -105 -96
-105 -19 0 -34 -3 -34 -7 1 -19 17 -31 45 -35 29 -3 30 -5 30 -53 0 -27 6 -59
12 -70 13 -23 -10 -76 -50 -113 -21 -20 -28 -22 -47 -12 -21 11 -22 16 -14 73
5 34 9 109 10 167 1 99 11 164 49 340 9 41 17 80 18 85 3 14 7 15 112 15 88 0
95 -1 95 -20 0 -13 6 -20 18 -19 10 0 12 3 5 6 -14 5 -18 32 -5 34 33 6 58 9
132 17 47 5 86 10 88 11 1 0 -5 -11 -14 -25z m196 -378 c51 -201 59 -275 44
-390 -6 -40 -10 -47 -27 -44 -14 2 -24 16 -32 45 -8 26 -9 43 -3 45 11 4 0
114 -28 288 -19 118 -18 112 -16 199 1 35 4 62 7 59 3 -3 28 -94 55 -202z
m-362 -108 l19 -56 -41 -5 c-23 -3 -44 -2 -49 2 -4 4 3 35 15 69 12 34 25 59
30 54 4 -4 16 -33 26 -64z m45 4 c25 -43 67 -166 67 -196 0 -15 9 -44 20 -66
11 -22 20 -43 20 -48 0 -16 -69 0 -74 17 -4 15 -26 144 -28 166 0 6 -9 34 -19
64 -30 86 -22 122 14 63z m-199 -290 c3 -5 -4 -12 -17 -16 -38 -10 -47 -7 -47
19 0 14 4 25 9 25 4 0 14 28 22 63 l14 62 6 -72 c4 -39 10 -76 13 -81z m-122
31 c33 -29 22 -41 -42 -45 -62 -3 -65 -1 -54 40 5 17 13 22 42 22 19 0 44 -7
54 -17z m569 -5 c21 -32 6 -46 -68 -63 -33 -7 -33 -6 -33 33 0 21 3 42 8 46
11 12 84 -1 93 -16z m-594 -54 c22 -6 56 -61 47 -76 -6 -9 -64 -10 -116 -2
-45 8 -48 25 -13 59 24 25 43 29 82 19z m611 -29 c23 -50 18 -55 -57 -55 -39
0 -72 4 -75 9 -8 12 37 51 70 61 45 13 50 12 62 -15z"/>
<path d="M485 1800 c3 -5 13 -10 21 -10 8 0 12 5 9 10 -3 6 -13 10 -21 10 -8
0 -12 -4 -9 -10z"/>
<path d="M490 1678 c0 -5 12 -5 28 -2 39 10 41 15 4 12 -18 -1 -32 -6 -32 -10z"/>
<path d="M565 1680 c-3 -5 -1 -10 4 -10 6 0 11 5 11 10 0 6 -2 10 -4 10 -3 0
-8 -4 -11 -10z"/>
<path d="M518 1653 c6 -2 18 -2 25 0 6 3 1 5 -13 5 -14 0 -19 -2 -12 -5z"/>
<path d="M560 900 c-13 -8 -12 -10 3 -10 9 0 17 5 17 10 0 12 -1 12 -20 0z"/>
</g>

</svg>
