<?xml version="1.0" standalone="no"?>
<!DOCTYPE svg PUBLIC "-//W3C//DTD SVG 20010904//EN"
"http://www.w3.org/TR/2001/REC-SVG-20010904/DTD/svg10.dtd">
<svg width="468pt" height="468pt" viewBox="0 0 468 468" xmlns="http://www.w3.org/2000/svg">

  <path stroke="none" fill="#ffffff" d="M 146.8499 301.3983 L 161.4490 305.6922 L 172.6131 319.4325 L 182.9183 346.0545 L 354.6726 311.7036 L 362.4016 309.9861 L 365.8366 315.1387 L 375.2831 311.7036 L 381.2945 320.2913 L 427.6682 282.5054 L 429.3857 271.3413 L 429.3857 265.3299 L 411.3515 260.1773 L 401.9050 254.1659 L 387.3059 259.3185 L 364.9778 248.1545 L 359.8252 238.7080 L 334.0621 234.4142 L 302.2875 221.5326 L 301.4288 197.4870 L 277.3832 209.5098 L 271.3718 208.6510 L 268.7955 217.2387 L 224.1393 230.9791 L 209.5402 245.5782 L 200.9525 264.4712 L 182.9183 277.3527 L 174.3306 281.6466 L 168.3192 279.0703 L 159.7315 284.2229 L 154.5789 290.2343 L 149.4262 291.0931 L 146.8499 301.3983 z "/>
  <path stroke="none" fill="#e0b600" d="M 267.0779 157.1248 L 209.5402 201.7809 L 200.9525 197.4870 L 199.2350 184.6054 L 220.7043 136.5142 L 228.4332 129.6440 L 215.5516 123.6327 L 209.5402 115.9037 L 223.2806 103.8809 L 219.8455 91.85812 L 228.4332 66.09497 L 239.5972 52.35461 C 239.5972 52.35461 255.9139 44.62567 255.9139 43.76691 C 255.9139 42.90814 297.1349 44.62567 297.1349 44.62567 L 324.6156 51.49585 L 334.9209 66.95374 L 328.0507 95.29321 L 340.9323 88.42303 L 351.2375 88.42303 L 351.2375 107.3160 L 340.9323 123.6327 L 329.7682 131.3616 L 321.1805 132.2204 L 314.3103 128.7853 L 314.3103 151.1133 L 299.7112 169.1476 L 297.9937 200.0633 L 273.9481 209.5098 "/>
  <path stroke="none" fill="#ffffff" d="M 245.6086 89.28180 L 248.1849 99.58707 L 257.6314 106.4572 L 261.9253 106.4572 L 267.0779 99.58707 L 266.2191 86.70547 L 261.0665 79.83533 L 255.9139 74.68268 L 245.6086 89.28180 z "/>
  <path stroke="none" fill="#ffffff" d="M 245.6086 90.99933 L 232.7271 103.8809 L 226.7157 94.43442 L 225.8569 84.12918 L 231.0095 79.83533 L 237.0209 80.69409 L 245.6086 90.99933 z "/>
  <path stroke="none" fill="#d9b81d" d="M 331.4858 108.1747 L 255.9139 207.7923 L 239.5972 211.2274 L 221.5630 192.3344 L 219.8455 192.3344 L 217.2692 194.0519 "/>
  <path stroke="none" fill="#1ace6a" d="M 182.9183 366.6650 L 204.3876 381.2641 L 255.0551 379.5465 L 305.7226 368.3825 L 327.1919 361.5123 L 345.2261 323.7264 L 318.6042 290.2343 L 331.4858 240.4256 L 299.7112 230.9791 L 250.7613 293.6694 L 237.8797 279.9291 L 255.0551 230.1203 L 224.9981 236.1317 L 201.8113 290.2343 L 189.7885 323.7264 L 182.9183 366.6650 z "/>
  <path stroke="none" fill="#d9b81d" d="M 342.6498 327.1615 L 334.0621 346.9132 L 320.3217 375.2527 L 317.7454 384.6992 L 327.1919 389.8518 L 329.7682 396.7220 L 338.3560 396.7220 L 340.9323 398.4395 L 343.5086 406.1685 L 353.8138 410.4623 L 368.4129 405.3097 L 387.3059 384.6992 L 392.4586 365.8062 L 416.5042 337.4667 L 443.1261 296.2457 L 444.8436 288.5168 L 437.9734 286.7992 L 417.3629 273.0589 L 396.7524 291.9519 L 368.4129 346.9132 L 347.8024 340.9018 L 342.6498 327.1615 z "/>
  <path stroke="none" fill="#d9b81d" d="M 23.18683 303.9747 L 18.89297 312.5624 L 24.04560 319.4325 L 29.19823 333.1729 L 35.20963 344.3369 L 61.83154 346.9132 L 85.01837 340.9018 L 88.45346 334.8904 L 133.9683 346.0545 L 181.2008 346.9132 L 176.0481 327.1615 L 169.1780 312.5624 L 152.0025 302.2571 L 81.58328 303.1159 L 82.44205 269.6238 C 82.44205 269.6238 79.00697 262.7536 78.14820 262.7536 C 77.28943 262.7536 61.83154 269.6238 61.83154 269.6238 L 44.65611 268.7650 L 37.78594 272.2001 L 37.78594 278.2115 L 32.63332 284.2229 L 22.32806 287.6580 L 18.89297 294.5282 L 23.18683 303.9747 z "/>
  <g transform="translate(0,468) scale(0.183529,-0.183529)" fill="#000000" stroke="none">
    <path d="M1514 2359 c-4 -8 0 -9 15 -4 20 6 81 -21 81 -36 0 -4 -46 -4 -103 -2 -85 5 -109 3 -136 -11 -43 -23 -34 -31 12 -11 39 16 89 19 185 9 58 -6 62 -9 71 -38 16 -55 22 -137 8 -135 -32 4 -35 -1 -26 -43 6 -24 17 -58 25 -75 20 -43 10 -91 -28 -144 -16 -22 -28 -42 -26 -44 2 -2 22 2 43 10 66 23 70 21 72 -40 l2 -55 -35 0 c-20 0 -61 7 -92 16 -45 13 -68 28 -109 71 -56 57 -66 83 -33 83 11 0 20 -4 20 -10 0 -14 13 -12 35 4 19 14 19 15 2 34 -15 16 -16 25 -8 41 14 25 15 114 1 106 -5 -3 -10 -25 -10 -49 0 -24 -7 -51 -16 -62 -15 -19 -16 -19 -9 1 8 24 8 22 6 67 -1 27 -10 48 -33 74 l-32 36 35 -2 c66 -5 91 25 46 55 -20 13 -30 13 -77 1 -55 -14 -80 -36 -80 -67 0 -26 19 -33 39 -15 29 26 36 18 10 -11 -22 -25 -22 -26 -1 -9 18 16 26 17 47 8 28 -13 34 -47 9 -56 -21 -8 -14 -51 8 -50 14 1 16 -2 7 -17 -5 -11 -16 -19 -23 -19 -24 0 -65 40 -69 68 l-4 27 -2 -27 c-1 -32 43 -78 76 -78 12 0 35 -12 50 -26 15 -15 20 -21 10 -14 -27 19 -134 -4 -170 -38 -15 -14 -35 -27 -45 -29 -26 -4 -78 16 -97 37 -18 20 -17 21 6 47 l24 27 -32 -23 c-26 -18 -31 -26 -24 -40 13 -23 38 -43 69 -56 l25 -11 -45 -37 c-25 -21 -71 -46 -100 -57 -80 -28 -127 -12 -129 44 0 26 -2 28 -9 11 -19 -45 -11 -93 22 -131 30 -33 35 -36 75 -31 24 2 53 13 64 23 19 17 19 16 -1 -29 -63 -142 -17 -228 82 -157 l27 20 12 -22 c26 -52 61 -78 103 -78 36 0 46 6 98 61 64 67 70 62 44 -36 -15 -56 -9 -52 -141 -80 -44 -10 -92 -22 -107 -27 -38 -14 -118 -110 -118 -141 0 -32 -36 -75 -99 -120 -33 -24 -53 -32 -62 -26 -29 18 -60 10 -77 -21 -11 -19 -25 -30 -39 -30 -16 0 -25 -10 -34 -35 l-13 -35 -117 0 c-64 0 -137 3 -161 6 l-46 6 1 88 c1 60 -3 93 -12 104 -17 20 -61 21 -87 1 -10 -8 -23 -15 -28 -15 -9 0 -1 465 9 545 13 96 21 301 13 318 -12 24 -47 21 -58 -5 -13 -32 -28 -161 -37 -313 -9 -149 -9 -468 0 -513 6 -28 4 -31 -20 -34 -15 -2 -28 -9 -31 -16 -3 -11 0 -12 17 -3 15 8 32 9 55 2 28 -7 40 -5 66 11 19 11 45 18 64 16 l31 -3 -1 -100 -1 -100 26 -3 c14 -2 110 -5 214 -6 208 -4 206 -3 252 -76 23 -37 51 -127 43 -136 -13 -12 -281 2 -326 17 -20 7 -67 19 -106 29 -71 17 -71 17 -76 -4 -4 -15 -18 -24 -48 -30 -23 -5 -45 -7 -48 -4 -3 3 -7 25 -9 49 -8 90 -18 138 -26 133 -5 -3 -9 -1 -9 4 0 17 13 21 31 11 13 -6 25 -6 39 1 30 16 25 33 -8 25 -32 -7 -47 5 -57 47 -4 15 -16 35 -28 45 -20 18 -20 17 -12 -2 5 -11 11 -45 13 -75 3 -46 0 -59 -17 -74 -31 -28 -51 -14 -51 35 0 58 -20 169 -31 169 -4 0 -6 -6 -3 -14 3 -9 -9 -17 -40 -26 -34 -9 -48 -20 -60 -44 -13 -28 -13 -33 0 -55 12 -17 13 -26 5 -34 -16 -16 -13 -54 5 -61 10 -4 14 -12 10 -23 -4 -9 0 -23 7 -32 8 -9 18 -29 21 -46 10 -39 34 -65 61 -65 13 0 37 -3 54 -6 27 -6 31 -10 31 -40 0 -54 22 -184 31 -184 4 0 11 5 14 10 4 6 16 8 27 4 21 -6 21 -4 15 78 -4 47 -10 98 -13 115 -6 29 -5 30 49 42 39 8 56 17 60 31 5 19 6 19 73 -1 126 -36 200 -48 312 -50 61 -1 115 2 121 5 15 9 15 -71 0 -113 -10 -27 -8 -35 7 -52 10 -12 24 -33 31 -47 8 -20 12 -22 12 -9 1 17 3 17 27 -2 15 -12 32 -21 38 -21 10 1 -6 16 -76 73 -25 20 -38 47 -22 47 3 0 23 -13 43 -28 80 -63 199 -79 339 -46 172 40 233 58 310 91 46 19 86 32 90 28 4 -3 2 -9 -4 -13 -44 -31 -72 -120 -42 -138 18 -11 68 -13 62 -2 -3 5 2 19 13 30 18 20 18 21 -6 13 -22 -7 -24 -5 -18 24 4 18 2 31 -4 31 -14 0 19 60 45 81 17 14 19 20 9 30 -17 17 -16 30 5 57 l18 23 23 -21 c13 -11 36 -20 51 -20 31 0 51 -17 43 -36 -3 -8 -1 -14 3 -14 11 1 49 61 105 165 23 44 55 99 71 123 16 23 26 47 22 54 -5 7 12 29 42 55 27 23 44 43 38 43 -6 0 -31 -17 -55 -39 -42 -37 -57 -62 -140 -236 -42 -90 -69 -127 -83 -116 -6 4 -22 11 -36 14 -24 6 -25 9 -25 83 0 70 2 77 22 85 17 6 23 4 28 -12 7 -22 25 -25 43 -7 9 9 15 8 26 -8 8 -10 18 -16 22 -12 4 4 3 13 -2 20 -15 21 -3 101 22 150 8 15 12 28 9 28 -3 0 -16 -23 -29 -51 -15 -31 -26 -45 -30 -37 -3 7 -4 -4 -1 -24 5 -31 2 -39 -16 -48 -12 -7 -25 -8 -30 -3 -9 9 3 100 17 137 5 13 4 17 -4 12 -6 -4 -17 -34 -24 -66 -8 -42 -17 -60 -28 -60 -8 0 -25 -3 -36 -6 -16 -4 -23 0 -27 16 -4 17 -10 21 -24 15 -41 -17 -55 -11 -73 35 -43 103 -8 270 63 307 40 20 29 29 -96 79 l-102 41 1 60 c1 51 -2 60 -14 55 -13 -4 -14 2 -9 43 4 26 7 61 7 76 0 39 22 56 127 95 97 38 141 76 161 141 17 55 8 51 -24 -14 -16 -31 -39 -63 -52 -71 -19 -12 -17 -6 13 38 20 30 34 63 34 79 -2 22 -2 23 -6 4 -7 -36 -76 -99 -121 -110 -23 -6 -44 -8 -47 -5 -3 3 -5 26 -5 51 0 35 3 42 12 33 20 -20 57 -14 104 19 57 39 87 96 88 169 l1 55 -33 3 c-21 2 -45 -4 -65 -17 -38 -25 -33 -27 16 -6 50 21 66 19 73 -10 16 -62 -53 -175 -126 -205 -28 -12 -33 -11 -55 10 -14 13 -25 32 -25 42 0 28 28 78 63 116 17 17 28 32 23 32 -4 0 5 22 20 48 33 59 28 105 -17 156 -24 28 -43 38 -97 50 -36 8 -71 21 -77 28 -30 40 -95 62 -111 37z m175 -86 c18 -36 18 -147 -1 -141 -7 3 -13 14 -14 25 -1 24 -13 91 -20 116 -4 11 0 17 10 17 8 0 19 -8 25 -17z m57 -7 c23 -17 47 -86 38 -110 -3 -9 -16 -16 -29 -16 -20 0 -22 4 -17 48 3 36 0 51 -12 61 -32 27 -15 41 20 17z m59 -56 c17 -33 20 -60 5 -60 -5 0 -10 12 -10 26 0 14 -5 34 -10 45 -6 10 -8 19 -6 19 3 0 12 -13 21 -30z m-432 -421 c49 -47 208 -129 252 -129 l30 0 -31 -16 c-44 -22 -123 -89 -169 -144 -60 -73 -89 -92 -132 -88 -30 2 -42 10 -67 47 -38 53 -57 67 -82 56 -17 -7 -17 -8 6 -15 25 -7 24 -8 -12 -24 -48 -21 -55 -20 -63 5 -12 36 5 106 46 194 33 70 45 86 67 91 15 3 33 8 41 10 40 13 152 -75 201 -156 5 -8 12 -11 16 -7 16 15 -86 136 -138 163 -31 16 -31 16 -22 38 8 22 9 21 57 -25z m249 -253 l-4 -78 -42 -19 c-69 -31 -75 -28 -69 39 3 31 11 63 17 71 11 14 98 73 101 68 1 -1 0 -37 -3 -81z m13 -146 c-6 -42 -12 -53 -32 -61 -36 -13 -51 -11 -73 11 -22 22 -27 60 -7 60 6 0 35 11 62 24 28 13 52 22 54 20 1 -1 0 -26 -4 -54z m-135 6 c0 -3 -4 -8 -10 -11 -5 -3 -10 -1 -10 4 0 6 5 11 10 11 6 0 10 -2 10 -4z m66 -86 c19 0 48 7 65 15 19 11 1 -13 -56 -72 -47 -49 -109 -119 -138 -156 -28 -37 -53 -63 -56 -56 -2 8 -6 7 -12 -2 -14 -22 -11 10 7 87 20 90 68 194 89 194 8 0 18 7 22 16 5 13 8 12 25 -5 12 -14 31 -21 54 -21z m-126 21 c-1 -20 -23 -29 -85 -33 -38 -3 -79 -9 -90 -13 -14 -6 -17 -5 -10 3 6 5 44 19 85 29 80 20 100 23 100 14z m286 -25 c80 -29 115 -47 109 -56 -4 -6 -17 -4 -34 5 -15 7 -58 19 -94 26 -54 10 -64 15 -56 26 14 17 27 16 75 -1z m-525 -86 c-17 -34 -31 -72 -31 -84 0 -15 6 -10 19 19 18 36 19 37 20 14 1 -14 -8 -34 -19 -44 -19 -17 -20 -17 -34 16 l-15 34 -1 -57 c0 -61 -15 -84 -29 -46 -6 18 -8 11 -8 -27 1 -33 -8 -70 -25 -107 l-25 -58 -19 38 c-10 20 -28 47 -39 60 -19 22 -19 24 -2 37 59 43 127 119 136 152 9 33 89 129 99 119 2 -2 -10 -32 -27 -66z m159 48 c-8 -7 -20 -20 -27 -28 -11 -13 -12 -12 -13 7 0 19 12 28 45 32 5 0 3 -5 -5 -11z m419 -45 c-10 -11 -14 -11 -20 -1 -14 21 -10 26 11 21 16 -4 18 -8 9 -20z m-126 -195 c-23 -35 -28 -37 -34 -21 -17 41 -9 88 19 121 l27 31 8 -46 c7 -41 5 -50 -20 -85z m-692 -38 c20 -16 48 -54 62 -84 l26 -55 -19 -57 c-11 -31 -20 -71 -20 -88 -1 -25 -7 -16 -31 46 -24 60 -40 86 -76 118 -39 34 -52 40 -75 35 -26 -6 -27 -5 -19 17 6 17 17 23 38 24 17 1 35 4 42 8 16 11 13 29 -4 22 -20 -7 -19 3 2 26 22 25 32 23 74 -12z m-746 -22 c9 -49 -11 -71 -60 -66 -26 3 -30 8 -33 35 -3 28 1 34 35 52 21 11 41 20 45 21 3 0 9 -19 13 -42z m1018 -72 l-20 -25 -6 41 c-4 30 -1 47 11 64 l17 22 9 -38 c7 -32 5 -43 -11 -64z m217 -40 l-25 -40 -9 41 c-8 37 -6 45 20 77 l29 36 5 -37 c4 -29 0 -47 -20 -77z m283 -38 c-32 -33 -43 -35 -43 -7 0 11 -4 28 -9 38 -8 14 -3 27 22 56 l31 38 13 -49 c12 -47 11 -50 -14 -76z m-1496 10 c21 -24 42 -23 70 4 23 21 23 21 23 1 0 -27 -90 -86 -130 -86 -56 0 -83 47 -29 49 17 1 37 8 45 16 12 12 7 14 -38 13 -46 0 -53 3 -56 20 -2 16 7 23 45 35 l48 15 3 -25 c2 -14 11 -33 19 -42z m829 -75 c-17 -17 -32 -31 -33 -29 -3 3 16 75 29 110 l12 29 11 -39 c11 -37 10 -41 -19 -71z m841 20 c-3 -10 -5 -2 -5 17 0 19 2 27 5 18 2 -10 2 -26 0 -35z m-1571 2 c12 -30 -6 -61 -46 -84 -55 -31 -101 -26 -111 12 -4 15 -3 25 2 22 11 -7 105 33 120 51 15 18 28 18 35 -1z m1243 -71 c1 -11 -8 -29 -18 -38 -19 -17 -20 -17 -35 13 -21 39 -20 46 6 82 l23 30 12 -33 c6 -18 12 -42 12 -54z m-273 42 c4 -16 -2 -38 -17 -64 l-23 -40 -13 30 c-12 27 -11 34 8 64 24 40 36 43 45 10z m505 -75 c-6 -11 -11 -31 -11 -46 0 -34 -17 -24 -25 16 -6 24 -2 36 17 56 18 19 24 21 26 9 2 -8 -2 -24 -7 -35z m-394 -63 c9 -34 8 -48 -3 -69 -21 -42 -31 -43 -44 -3 -10 30 -9 42 5 75 10 21 21 39 24 39 4 0 12 -19 18 -42z m-267 -55 c0 -18 -41 -63 -52 -57 -15 10 -9 87 9 107 17 18 18 18 30 -10 7 -15 12 -34 13 -40z m517 0 c-12 -7 -27 -12 -34 -13 -16 0 -8 38 14 62 18 20 18 19 29 -9 11 -25 10 -29 -9 -40z m98 -63 c-4 -12 -1 -28 6 -36 14 -17 6 -29 -16 -20 -11 4 -14 13 -9 33 8 32 13 43 20 43 3 0 2 -9 -1 -20z"/>
    <path d="M1476 1265 c-9 -26 -7 -32 5 -12 6 10 9 21 6 23 -2 3 -7 -2 -11 -11z"/>
    <path d="M1442 1196 c-28 -47 -63 -128 -58 -133 2 -3 23 32 46 77 41 83 50 120 12 56z"/>
    <path d="M1436 2283 c18 -2 40 -14 50 -25 19 -21 19 -21 -3 -9 -32 16 -69 14 -114 -10 -32 -16 -44 -18 -55 -8 -20 16 -6 32 22 25 14 -4 33 -1 44 7 18 12 15 13 -26 12 -38 -2 -52 -9 -84 -40 -27 -26 -41 -50 -45 -78 -4 -22 -14 -55 -22 -74 -14 -35 -13 -78 5 -108 7 -13 11 -14 17 -5 4 6 2 17 -4 23 -14 14 -14 67 -1 87 7 11 8 7 4 -15 -4 -22 0 -38 16 -58 26 -33 39 -29 16 5 -30 42 -10 118 22 86 9 -9 12 -9 12 1 0 7 5 9 10 6 20 -13 11 71 -10 90 -26 23 -11 42 18 24 18 -11 27 -10 60 9 55 30 88 28 122 -8 23 -24 29 -27 34 -14 13 35 -37 84 -83 82 -36 -1 -36 -1 -5 -5z m-148 -162 c3 -10 0 -12 -13 -7 -10 3 -24 1 -31 -5 -11 -9 -14 -8 -14 3 0 8 3 18 7 22 11 11 46 2 51 -13z"/>
    <path d="M1280 2058 c-14 -30 -7 -62 13 -56 16 6 21 43 8 65 -8 16 -11 15 -21 -9z"/>
    <path d="M1830 2034 c-23 -14 -70 -82 -70 -100 0 -3 7 -3 16 0 17 6 17 -2 -1 -49 -8 -19 -7 -19 11 -3 12 12 18 30 17 56 -2 41 20 76 53 86 34 10 37 -27 5 -71 -45 -62 -45 -70 -2 -26 42 44 54 86 29 111 -16 16 -28 15 -58 -4z"/>
    <path d="M960 1829 c0 -5 5 -7 10 -4 6 3 10 8 10 11 0 2 -4 4 -10 4 -5 0 -10 -5 -10 -11z"/>
    <path d="M1917 1263 c24 -5 63 -47 63 -69 0 -7 10 -15 23 -19 59 -17 98 -39 92 -54 -5 -13 -4 -13 12 0 45 35 103 52 103 30 0 -20 33 -41 64 -41 40 0 71 -21 63 -44 -4 -9 -2 -16 3 -16 15 0 12 46 -4 59 -8 7 -31 15 -53 18 -21 3 -48 16 -61 30 -25 25 -45 25 -88 -2 -18 -12 -28 -11 -65 6 -71 33 -73 35 -86 60 -16 31 -42 49 -67 48 -19 -2 -19 -2 1 -6z"/>
    <path d="M1916 1148 c-36 -56 -63 -187 -41 -198 5 -3 12 9 15 25 7 31 33 89 64 140 l18 30 -21 -25 c-12 -14 -31 -41 -42 -60 l-20 -35 6 40 c4 22 15 55 25 73 22 36 18 44 -4 10z"/>
    <path d="M2286 1045 c3 -8 16 -17 27 -21 12 -4 32 -17 44 -30 12 -13 31 -24 43 -24 23 0 24 -6 5 -40 -21 -37 -18 -46 6 -16 24 30 22 71 -3 71 -9 0 -30 12 -45 26 -26 25 -65 49 -77 49 -3 0 -3 -7 0 -15z"/>
    <path d="M2052 985 c-7 -14 -12 -31 -12 -38 1 -7 7 3 16 22 17 39 13 54 -4 16z"/>
    <path d="M2327 874 c3 -8 13 -14 22 -14 13 -1 12 -4 -6 -19 -12 -10 -19 -21 -16 -25 3 -3 0 -13 -7 -21 -9 -11 -22 -14 -44 -9 l-31 6 24 -21 c21 -18 22 -21 6 -27 -10 -4 -21 -1 -26 7 -6 9 -9 10 -9 2 0 -7 7 -16 16 -21 15 -8 14 -11 -6 -25 -21 -15 -36 -14 -95 8 -19 7 -19 7 1 -15 12 -12 33 -23 47 -23 l26 -2 -25 -26 c-26 -27 -51 -33 -71 -16 -9 7 -13 5 -13 -7 0 -9 7 -19 15 -22 12 -5 12 -8 0 -20 -17 -17 -42 -18 -48 -1 -2 6 -8 9 -12 5 -4 -4 5 -23 20 -43 l28 -36 -18 -39 c-10 -22 -40 -61 -67 -86 -60 -56 -58 -70 2 -17 57 51 90 105 90 148 0 26 6 39 25 51 14 9 23 20 20 24 -3 5 4 11 15 15 11 3 20 11 20 16 0 6 5 7 12 3 7 -4 8 -3 4 5 -4 7 9 31 31 59 61 74 112 149 118 174 5 20 2 23 -24 24 -21 1 -28 -3 -24 -12z"/>
    <path d="M2125 660 c3 -5 19 -10 36 -10 16 0 29 5 29 10 0 6 -16 10 -36 10 -21 0 -33 -4 -29 -10z"/>
    <path d="M1677 451 c-41 -26 -46 -36 -10 -17 17 9 35 20 38 26 8 13 6 12 -28 -9z"/>
    <path d="M1125 400 c3 -5 18 -10 32 -10 32 0 28 5 -10 14 -19 4 -26 3 -22 -4z" />
    <path d="M1809 381 c7 -5 22 -6 32 -4 14 4 19 0 19 -15 0 -12 4 -23 8 -26 5 -3 6 8 4 25 -4 26 -8 29 -41 29 -24 0 -31 -3 -22 -9z" />
  </g>
</svg>
