<?xml version="1.0" standalone="no"?>
<!DOCTYPE svg PUBLIC "-//W3C//DTD SVG 20010904//EN"
"http://www.w3.org/TR/2001/REC-SVG-20010904/DTD/svg10.dtd">
<svg width="394pt" height="648pt" viewBox="0 0 394 648" xmlns="http://www.w3.org/2000/svg">

  <path stroke="none" fill="#c71c24" d="M 63.72058 209.6024 L 31.86029 300.0856 L 76.46470 589.3771 L 212.8267 589.3771 L 363.2073 576.6329 L 384.8723 558.7912 L 387.4211 470.8568 L 342.8167 340.8668 L 268.9008 246.5603 L 219.1988 198.1327 L 63.72058 209.6024 z "/>
  <path stroke="none" fill="#281c9c" d="M -1.274412 162.4492 L 34.40911 108.9239 L 56.07411 69.41711 L 96.85528 24.81274 L 104.5018 32.45917 L 115.9715 28.63599 L 118.5203 14.61743 L 146.5573 4.422119 L 184.7897 9.519775 L 212.8267 24.81274 L 226.8453 52.84979 L 230.6685 84.71008 L 202.6314 166.2724 L 48.42764 228.7186 L -1.274412 240.1883 L -1.274412 162.4492 z "/>
  <path stroke="none" fill="#365b9c" d="M 52.25088 245.2859 L 58.62293 300.0856 L 72.64146 345.9644 L 96.85528 385.4712 L 108.3250 403.3130 L 121.0691 461.9359 L 121.0691 511.6380 L 110.8738 576.6329 L 96.85528 589.3771 L 75.19028 594.4747 L 75.19028 621.2374 L 25.48823 630.1582 L -2.548823 608.4932 L 0 241.4627 L 52.25088 245.2859 z "/>
  <path stroke="none" fill="#365b9c" d="M 265.0776 246.5603 L 308.4076 294.9880 L 335.1703 353.6109 L 363.2073 423.7036 L 384.8723 484.8753 L 392.5188 543.4982 L 398.8908 454.2894 L 374.6770 395.6665 L 358.1096 345.9644 L 330.0726 303.9089 L 280.3705 247.8347 L 265.0776 246.5603 z "/>
  <path stroke="none" fill="#E1BF4A" d="M 101.9529 532.0285 L 163.1247 438.9965 L 178.4176 414.7827 L 202.6314 398.2153 L 221.7476 405.8618 L 233.2173 410.9594 L 220.4732 444.0941 L 201.3570 486.1497 L 224.2964 472.1312 L 239.5894 478.5033 L 235.7661 489.9730 L 205.1803 515.4612 L 183.5153 557.5168 L 166.9479 563.8888 L 142.7341 557.5168 L 129.9900 576.6329 L 105.7762 577.9074 L 89.20881 547.3215 L 101.9529 532.0285 z "/>
  <path stroke="none" fill="#E1BF4A" d="M 53.52529 240.1883 L 105.7762 275.8718 L 131.2644 283.5183 L 164.3991 275.8718 L 203.9059 255.4812 L 216.6500 240.1883 L 224.2964 203.2303 C 224.2964 203.2303 229.3941 191.7607 230.6685 191.7607 C 231.9429 191.7607 225.5708 177.7421 225.5708 177.7421 L 194.9850 157.3515 L 197.5338 136.9609 L 172.0456 131.8633 L 142.7341 116.5704 L 105.7762 124.2169 L 79.01352 139.5098 L 70.09264 161.1748 L 59.89735 161.1748 L 58.62293 180.2910 L 48.42764 189.2118 L 54.79970 203.2303 L 47.15323 227.4442 L 53.52529 240.1883 z "/>
  <path stroke="none" fill="#f37124" d="M 198.8082 228.7186 L 308.4076 242.7371 C 308.4076 242.7371 318.6029 237.6395 319.8773 237.6395 C 321.1517 237.6395 302.0356 228.7186 302.0356 228.7186 L 211.5523 221.0721 L 198.8082 228.7186 z " />
  <g transform="translate(0,648) scale(0.203774,-0.203774)" fill="#000000" stroke="none">
    <path d="M697 3160 c-21 -4 -60 -17 -87 -30 -42 -20 -49 -27 -44 -46 8 -32 -29 -68 -56 -54 -23 12 -26 26 -7 33 7 2 8 8 3 13 -5 5 -11 4 -13 -3 -3 -7 -8 -13 -13 -13 -4 0 -22 -12 -40 -27 -93 -80 -207 -222 -262 -328 -23 -44 -72 -131 -110 -193 -38 -62 -68 -120 -66 -130 3 -12 12 -5 36 28 17 25 36 50 42 57 5 7 10 15 10 19 0 4 20 39 44 78 24 39 65 113 91 164 26 52 66 114 89 138 23 24 52 58 66 76 42 53 83 98 91 98 4 0 9 -9 12 -20 5 -19 47 -30 47 -11 0 4 11 6 23 4 19 -4 26 1 37 26 10 25 10 34 0 46 -10 12 -9 16 6 21 11 3 33 12 49 19 71 31 190 27 270 -10 17 -7 45 -19 63 -26 20 -7 34 -20 38 -35 3 -13 10 -24 16 -24 5 0 22 -30 39 -67 25 -57 30 -81 31 -148 1 -79 -10 -123 -73 -303 -20 -57 -24 -98 -10 -106 9 -6 16 10 52 119 13 39 26 75 31 81 14 20 49 189 47 229 -4 52 -41 148 -81 207 -39 57 -82 82 -184 108 -80 21 -122 23 -187 10z"/>
    <path d="M676 3015 c-18 -27 -21 -65 -6 -65 6 0 10 8 10 18 1 25 27 55 40 47 7 -4 10 -17 8 -30 -4 -17 -1 -21 13 -18 25 7 30 27 13 52 -20 29 -58 27 -78 -4z"/>
    <path d="M436 2838 c-22 -30 -20 -65 2 -70 15 -4 18 -1 14 17 -2 13 1 33 8 45 9 17 14 19 26 9 8 -6 14 -19 14 -27 0 -15 2 -15 17 0 13 14 14 20 3 32 -19 24 -66 20 -84 -6z"/>
    <path d="M600 2617 c0 -5 -9 -5 -21 -2 -12 4 -27 1 -37 -8 -9 -8 -34 -20 -54 -28 -21 -7 -38 -17 -38 -21 0 -4 -5 -8 -11 -8 -15 0 -69 -52 -69 -67 0 -7 -4 -13 -10 -13 -5 0 -12 -16 -16 -35 -7 -38 -15 -43 -34 -20 -11 13 -15 12 -32 -7 -16 -19 -19 -32 -14 -70 5 -38 4 -48 -8 -48 -8 0 -19 -13 -24 -29 -8 -24 -7 -32 11 -49 20 -20 20 -23 4 -54 -8 -18 -18 -41 -21 -51 -5 -14 -10 -16 -25 -7 -38 20 -151 4 -151 -22 0 -5 -4 -6 -10 -3 -5 3 -10 1 -10 -4 0 -6 -7 -11 -15 -11 -11 0 -15 -12 -15 -50 0 -48 1 -50 28 -51 15 -1 30 -1 35 0 4 0 7 -3 7 -9 0 -5 -4 -10 -10 -10 -13 0 -60 -52 -60 -67 0 -21 16 -15 47 15 15 16 40 36 56 46 23 16 27 16 27 3 0 -8 -5 -17 -12 -19 -7 -3 -11 -27 -10 -69 0 -35 1 -94 1 -131 0 -39 5 -68 11 -68 5 0 10 9 10 20 0 38 28 89 74 135 44 43 58 53 54 38 -3 -15 14 -138 29 -208 18 -83 82 -222 147 -320 25 -38 46 -80 46 -92 0 -13 4 -23 9 -23 11 0 41 -56 41 -76 0 -7 6 -33 14 -56 7 -24 19 -71 26 -105 9 -43 17 -63 28 -63 11 0 12 3 3 14 -7 8 -21 66 -31 128 -10 62 -21 121 -25 131 -4 10 -3 17 4 17 6 0 11 -4 11 -10 0 -5 9 -10 20 -10 10 0 24 -9 30 -19 12 -23 14 -62 3 -60 -20 3 -33 -2 -33 -12 0 -7 11 -9 29 -6 26 5 29 3 41 -34 7 -21 19 -39 27 -39 8 0 11 4 8 10 -3 5 -8 18 -10 27 -2 10 -5 24 -7 32 -2 8 12 19 37 27 l40 14 -42 -4 c-39 -4 -44 -1 -58 26 -18 38 -10 50 47 68 l43 14 -30 7 c-16 3 -24 7 -17 8 6 0 12 7 12 15 0 15 -50 10 -61 -6 -6 -10 -39 0 -39 12 0 10 30 17 98 26 44 5 52 4 52 -10 0 -9 4 -24 9 -34 5 -9 12 -25 15 -34 3 -10 10 -18 16 -18 7 0 9 8 4 22 -4 13 -8 30 -9 38 0 9 -5 21 -9 28 -4 7 -6 15 -5 16 11 8 159 32 159 25 0 -4 -15 -10 -32 -14 -53 -11 -97 -28 -92 -36 5 -9 155 42 169 57 6 7 29 14 53 17 32 4 42 2 42 -9 0 -8 4 -14 9 -14 5 0 13 -9 16 -20 3 -11 11 -20 17 -20 6 0 7 7 3 18 -16 38 -18 64 -4 61 8 -1 21 0 29 4 8 3 32 8 52 11 35 4 38 2 44 -22 12 -54 17 -67 29 -82 7 -8 15 -24 19 -36 5 -18 0 -22 -45 -32 -86 -20 -119 -14 -186 36 -23 17 -39 22 -55 17 -41 -12 -68 -35 -68 -57 l0 -21 23 20 c12 11 32 24 45 28 78 23 68 -119 -18 -271 -18 -31 -27 -55 -21 -53 18 6 80 123 106 199 22 64 49 89 61 56 7 -18 -61 -166 -76 -166 -5 0 -10 -7 -10 -15 0 -25 -33 -85 -47 -85 -7 0 -10 -6 -7 -14 3 -8 -6 -36 -19 -63 -25 -48 -38 -116 -25 -128 4 -4 10 14 13 40 6 36 13 48 31 55 13 5 24 16 24 25 0 8 4 15 9 15 5 0 17 7 26 16 8 9 33 18 54 21 33 5 41 2 52 -18 11 -21 9 -26 -26 -54 -21 -16 -67 -58 -102 -92 -48 -47 -63 -68 -63 -90 0 -46 -59 -135 -103 -156 -33 -17 -44 -17 -87 -7 -50 12 -50 12 -50 52 0 23 -4 37 -10 33 -5 -3 -10 -16 -10 -28 0 -32 -56 -116 -85 -129 -31 -14 -63 1 -114 50 -24 23 -39 31 -54 26 -22 -7 -97 14 -97 27 0 14 48 113 64 133 8 10 19 15 25 11 7 -3 11 2 11 14 0 12 4 21 10 21 5 0 7 -8 4 -17 -5 -17 -5 -17 6 0 6 9 9 21 6 25 -3 5 5 7 17 6 12 -1 25 -3 30 -3 13 -2 8 -29 -12 -63 -20 -35 -24 -54 -21 -103 l1 -30 12 25 c6 14 20 34 29 44 10 11 18 26 18 33 0 8 6 16 14 19 8 3 12 12 9 20 -3 7 2 17 11 20 9 3 16 14 16 24 0 30 36 101 103 202 35 53 70 111 77 127 24 60 90 49 90 -14 0 -70 -39 -125 -90 -125 -12 0 -18 -4 -15 -10 3 -5 17 -10 30 -10 l24 0 -26 -45 c-27 -48 -55 -70 -80 -61 -9 4 -13 1 -11 -6 3 -7 15 -14 27 -16 47 -7 -5 -76 -66 -88 -18 -3 -33 -11 -33 -16 0 -5 9 -6 20 -3 25 8 26 -3 2 -21 -24 -19 1 -18 38 1 35 18 65 59 74 102 4 17 22 56 40 86 18 29 36 62 40 72 12 32 19 7 7 -26 -20 -57 -6 -40 44 54 27 51 60 107 73 125 14 18 27 51 29 76 8 70 -24 104 -114 120 -29 5 -33 3 -33 -17 0 -31 -50 -129 -63 -124 -10 3 -60 -76 -73 -115 -4 -10 -10 -18 -15 -18 -5 0 -9 -5 -9 -10 0 -6 -18 -35 -40 -65 -22 -30 -40 -58 -40 -63 0 -5 -7 -15 -15 -22 -8 -7 -15 -21 -15 -31 0 -23 -13 -24 -31 -3 -18 22 -58 40 -103 47 -48 8 -144 57 -209 109 -55 43 -64 43 -162 7 -61 -23 -82 -36 -73 -45 4 -4 31 4 60 16 97 42 100 42 148 0 51 -44 169 -105 223 -115 20 -4 37 -10 37 -14 -1 -16 -89 -100 -95 -91 -5 8 -11 7 -21 -1 -16 -13 -19 -49 -4 -49 6 0 10 8 10 17 0 9 3 13 7 10 3 -4 -2 -25 -12 -47 -11 -25 -21 -36 -26 -29 -9 15 -29 3 -29 -18 0 -9 6 -13 15 -9 9 3 15 0 15 -9 0 -19 -17 -28 -23 -13 -5 14 -25 -30 -34 -74 -3 -17 -1 -28 6 -28 6 0 11 11 11 24 0 31 10 56 22 56 5 0 6 -5 2 -12 -11 -18 -5 -87 10 -121 8 -18 16 -67 18 -110 l3 -77 -35 -10 c-19 -5 -46 -10 -60 -10 -29 0 -30 4 -31 107 0 78 -14 90 -22 21 -7 -55 -27 -91 -27 -47 0 13 4 40 9 60 5 21 5 42 1 49 -12 19 -19 -2 -26 -69 -4 -34 -11 -61 -17 -61 -10 0 -4 86 8 128 4 13 3 22 -3 22 -5 0 -15 -22 -22 -50 -15 -61 -35 -68 -26 -10 3 23 12 49 18 60 10 16 8 23 -12 45 -49 53 -81 53 -93 2 -6 -21 -5 -21 8 -3 23 30 27 14 9 -35 -8 -24 -18 -83 -21 -131 l-6 -87 29 3 c16 2 46 7 67 11 37 7 38 7 26 -13 -10 -15 -28 -23 -66 -28 -29 -3 -53 -10 -53 -15 0 -11 -2 -12 83 5 40 8 115 17 167 20 52 3 133 10 180 15 47 5 90 5 95 1 12 -10 222 3 285 18 25 6 62 14 83 17 50 8 48 25 -3 18 -23 -3 -46 -1 -53 5 -7 7 -38 12 -68 13 -30 1 -58 4 -64 7 -5 3 -29 5 -53 3 -29 -2 -50 3 -61 13 -15 13 -29 15 -79 8 -35 -5 -68 -5 -77 1 -9 5 -28 6 -41 3 -23 -6 -25 -4 -22 21 3 27 5 28 68 29 61 2 291 18 390 29 33 3 39 2 20 -4 -14 -5 -38 -9 -54 -10 -25 -1 -27 -3 -15 -17 10 -12 23 -14 51 -10 58 9 118 36 118 53 0 10 -6 13 -16 9 -8 -3 -12 -2 -9 4 3 6 12 10 19 10 17 0 40 27 29 33 -5 3 -36 -3 -68 -14 -42 -14 -80 -19 -125 -17 -43 2 -64 -1 -63 -8 3 -15 -196 -39 -209 -26 -15 15 40 54 61 43 37 -19 121 33 121 75 0 18 47 22 60 6 11 -14 89 -13 123 2 44 18 70 58 98 147 26 85 58 122 144 168 50 27 71 44 73 60 2 12 9 24 15 26 7 2 46 11 87 20 71 16 140 44 112 45 -7 0 -59 -11 -114 -26 l-101 -25 -21 20 c-28 26 -72 29 -115 8 -19 -9 -35 -17 -37 -17 -4 0 56 113 68 127 5 6 29 11 53 10 24 -1 41 2 38 6 -3 5 5 7 18 5 18 -2 27 -15 42 -60 10 -32 23 -58 28 -58 12 0 11 6 -6 63 -8 26 -11 47 -7 47 4 0 0 4 -7 9 -16 10 -3 15 69 24 19 3 41 7 49 9 15 3 36 -56 69 -194 l18 -77 -39 -6 c-21 -4 -41 -13 -44 -21 -8 -21 4 -29 21 -15 19 16 50 21 67 11 11 -7 11 -15 1 -43 -15 -40 -16 -87 -2 -87 9 0 14 20 11 46 -1 6 6 17 14 24 8 7 15 25 15 41 0 27 2 29 28 23 21 -4 24 -3 12 5 -13 10 -13 11 0 12 27 3 55 7 86 14 l31 7 18 -67 c16 -56 16 -68 4 -75 -11 -7 -10 -10 4 -16 9 -3 17 -12 17 -20 0 -16 19 -19 21 -4 1 6 2 15 3 22 1 14 85 41 104 33 7 -2 12 -22 12 -45 0 -55 17 -51 22 5 2 25 0 45 -4 45 -17 0 -7 16 16 26 l25 12 3 -114 c2 -63 0 -114 -4 -114 -4 0 -13 -6 -20 -12 -8 -7 -21 -17 -30 -23 -8 -5 -26 -18 -39 -27 -17 -12 -64 -20 -159 -28 -74 -7 -142 -12 -150 -12 -8 0 -49 -4 -90 -9 -41 -5 -111 -12 -155 -15 -44 -3 -102 -9 -128 -15 -26 -5 -65 -9 -87 -9 -21 0 -42 -4 -45 -10 -8 -12 41 -13 160 -1 50 6 119 12 155 15 36 4 90 9 120 11 151 14 296 25 394 29 60 3 111 8 114 10 2 3 2 13 -2 22 -5 13 -15 15 -44 10 -20 -3 -31 -3 -23 1 8 3 27 17 43 31 l28 25 0 137 c0 121 -3 145 -26 210 -14 41 -23 83 -20 94 3 11 -7 47 -23 80 -16 34 -37 88 -46 121 -10 33 -21 69 -26 80 -4 11 -15 45 -24 75 -8 30 -20 71 -26 90 -12 39 -119 262 -130 270 -17 13 -50 84 -44 98 8 20 40 -10 90 -86 21 -31 53 -80 72 -107 20 -31 48 -100 72 -180 43 -139 120 -367 128 -375 18 -18 -13 107 -56 230 -28 80 -55 167 -61 195 -7 32 -34 88 -73 151 -89 142 -124 188 -222 284 -48 47 -98 102 -112 123 -13 22 -27 36 -30 34 -3 -3 4 -18 14 -34 11 -15 22 -33 24 -40 2 -7 39 -48 82 -92 52 -53 74 -82 66 -87 -8 -4 -24 6 -42 27 -64 74 -117 129 -123 129 -4 0 -1 -6 5 -13 14 -18 4 -27 -30 -27 -17 0 -32 8 -42 23 -8 12 -26 35 -40 52 -15 16 -25 31 -23 33 13 13 68 2 85 -16 28 -34 46 -27 21 8 -19 26 -28 30 -69 30 -26 0 -56 7 -67 15 -28 21 -47 19 -39 -5 4 -11 2 -20 -4 -20 -6 0 -11 -5 -11 -11 0 -7 9 -9 23 -5 28 7 42 -4 85 -60 36 -47 31 -54 -36 -54 -52 0 -59 8 -76 74 -17 64 -30 89 -20 37 10 -48 -15 -174 -43 -218 -14 -21 -22 -29 -18 -18 18 55 35 157 34 210 l-2 60 -13 -75 c-7 -41 -13 -76 -13 -77 -1 -2 -17 -3 -36 -3 -22 0 -38 6 -41 15 -4 8 -11 15 -16 15 -6 0 -8 -7 -4 -15 6 -16 4 -17 -69 -20 -27 -1 -56 3 -63 8 -8 7 -18 4 -30 -10 -12 -13 -42 -24 -97 -33 -44 -7 -93 -19 -110 -27 l-30 -13 35 5 c19 3 73 12 119 20 91 16 131 19 131 8 0 -3 -8 -15 -17 -26 -17 -19 -17 -19 7 -12 14 4 30 10 37 12 13 5 44 -58 34 -69 -3 -4 -33 -9 -66 -12 l-60 -5 -20 41 c-11 23 -19 46 -17 50 1 4 -5 8 -13 8 -20 0 -19 -18 5 -65 l21 -40 -21 -3 c-31 -5 -24 -22 10 -22 17 0 29 -5 28 -11 -2 -6 3 -14 10 -16 9 -3 12 1 10 13 -4 21 22 29 149 44 87 11 136 7 86 -6 -12 -4 -29 -17 -38 -31 -9 -14 -32 -31 -52 -39 -19 -9 -38 -24 -41 -36 -4 -19 -10 -20 -60 -14 -60 7 -143 44 -182 81 -14 13 -51 47 -82 76 -32 28 -58 57 -58 64 0 7 -9 22 -20 35 -11 13 -19 25 -17 27 2 1 28 -4 58 -13 68 -21 126 -26 134 -14 3 6 24 10 46 10 22 0 45 4 52 10 29 24 147 98 175 109 17 7 42 11 56 9 14 -1 24 2 23 7 -1 6 -10 9 -19 8 -23 -3 -23 3 2 34 19 25 19 43 -1 43 -5 0 -9 -6 -9 -13 0 -21 -39 -52 -110 -88 -57 -28 -75 -33 -147 -33 -75 -1 -84 1 -110 25 -33 31 -110 72 -125 67 -6 -2 5 -12 26 -22 20 -9 52 -31 70 -47 40 -34 95 -59 132 -59 44 0 19 -12 -51 -25 -69 -13 -123 -8 -191 20 -46 18 -64 52 -116 215 -18 58 -34 96 -36 85 -2 -12 11 -61 27 -111 54 -165 113 -277 188 -353 33 -34 41 -51 24 -51 -21 0 -142 146 -172 209 -12 25 -26 54 -31 65 -6 10 -16 46 -24 80 l-14 61 4 -57 c3 -32 2 -58 -1 -58 -10 0 -68 44 -89 68 -12 13 -26 40 -32 60 -10 30 -8 43 9 81 11 25 26 52 33 61 7 8 18 29 24 45 6 17 11 22 11 13 1 -9 7 -23 14 -30 8 -7 16 -20 20 -28 3 -10 6 -7 6 9 1 20 5 23 31 19 46 -7 36 8 -12 18 l-43 9 -3 69 c-2 39 2 74 8 80 7 7 10 2 10 -17 0 -15 5 -27 10 -27 6 0 10 3 11 8 2 20 11 61 21 97 9 31 13 35 16 18 2 -12 -1 -30 -7 -41 -5 -10 -6 -24 -1 -31 9 -16 30 -6 30 14 0 7 8 16 18 18 111 30 111 30 89 42 -15 7 -23 22 -25 45 l-4 34 22 -24 c21 -25 21 -25 17 -2 -7 29 5 28 40 -5 15 -16 37 -35 48 -43 17 -13 17 -12 -3 17 -30 42 -28 48 7 24 16 -12 37 -21 48 -21 14 0 13 3 -6 13 -14 6 -27 18 -29 26 -4 11 1 10 19 -2 13 -10 37 -17 54 -16 l30 1 -34 12 c-19 7 -41 22 -49 34 -13 20 -10 20 54 -9 100 -44 101 -47 57 -96 -43 -47 -79 -60 -124 -44 -18 6 -34 9 -36 7 -5 -5 86 -56 101 -56 25 -1 50 -32 66 -82 14 -41 27 -59 59 -81 26 -18 41 -36 41 -50 0 -15 3 -18 11 -10 17 17 2 47 -33 68 -38 21 -48 33 -48 58 0 11 8 17 23 17 12 0 40 9 62 20 22 11 50 20 62 20 13 0 23 5 23 10 0 17 -53 11 -95 -10 -22 -11 -43 -20 -49 -20 -14 0 -79 70 -72 78 10 9 42 -14 39 -27 -5 -19 33 -12 52 9 19 21 13 42 -7 22 -8 -8 -18 -7 -40 4 -16 8 -33 12 -38 9 -23 -14 -7 13 32 53 36 38 45 43 71 38 17 -3 36 -11 43 -17 13 -11 8 -39 -10 -52 -7 -5 0 -15 19 -30 17 -12 40 -32 52 -44 13 -12 35 -23 50 -25 20 -2 33 -13 48 -40 l20 -37 -28 -56 c-15 -30 -23 -55 -18 -55 15 0 39 35 51 77 20 68 -1 94 -148 182 -10 5 -11 17 -3 50 5 24 7 49 4 56 -6 18 -53 36 -88 34 -35 -2 -85 16 -85 31 0 6 26 10 60 10 52 0 60 3 60 19 0 14 -6 17 -26 13 -18 -3 -25 -1 -20 6 5 8 -35 10 -139 9 -80 -1 -145 -6 -145 -10z m-110 -124 c0 -7 -4 -13 -10 -13 -5 0 -10 12 -10 28 0 21 2 24 10 12 5 -8 10 -21 10 -27z m-162 -125 c14 -14 16 -78 3 -78 -13 0 -41 47 -41 70 0 22 19 27 38 8z m-24 -106 c7 -11 -6 -27 -26 -35 -25 -9 -34 14 -13 30 21 15 32 16 39 5z m59 -351 c19 -7 34 -26 51 -63 13 -29 53 -91 89 -138 72 -93 73 -91 -9 -103 l-40 -7 -29 58 c-16 31 -31 60 -33 65 -2 4 10 7 27 7 16 0 33 5 36 10 4 6 -12 10 -39 10 -26 0 -46 5 -46 11 0 6 -6 9 -12 6 -7 -2 -12 -10 -10 -16 1 -6 -4 -11 -12 -11 -8 0 -21 -3 -30 -6 -11 -4 -16 4 -21 33 -3 21 -8 48 -11 60 -3 19 1 23 33 29 64 11 74 25 15 22 l-52 -3 0 48 0 48 33 -25 c17 -13 44 -29 60 -35z m857 -148 c19 -23 50 -71 50 -77 0 -3 -12 -7 -27 -9 -27 -4 -26 -4 4 -6 34 -1 66 -35 78 -82 8 -34 -8 -45 -77 -52 l-57 -5 -26 56 c-18 40 -29 52 -36 45 -8 -8 -6 -19 8 -40 31 -43 36 -68 15 -70 -61 -6 -70 -8 -61 -19 6 -7 25 -10 49 -7 38 5 41 4 54 -28 8 -19 16 -45 18 -58 3 -22 -2 -25 -57 -36 -33 -7 -63 -11 -66 -9 -4 2 -9 19 -11 38 -3 28 -1 33 9 24 25 -21 18 37 -8 65 -10 12 -19 24 -19 29 0 4 -7 5 -15 2 -25 -10 -17 15 18 56 49 59 112 190 108 225 -3 22 -2 20 49 -42z m242 4 c22 -26 39 -49 37 -51 -2 -2 -18 -7 -36 -10 -30 -7 -34 -4 -66 46 -19 29 -33 56 -31 59 2 4 16 6 30 5 18 -1 39 -16 66 -49z m-104 8 c12 -19 22 -39 22 -44 0 -5 6 -11 13 -14 21 -7 4 -15 -50 -23 l-52 -6 -34 53 c-39 61 -36 67 38 68 35 1 43 -4 63 -34z m-297 -35 c6 0 6 8 -1 19 -14 27 -13 31 11 31 20 0 21 -4 15 -47 -7 -54 -25 -73 -72 -73 -36 0 -49 12 -59 58 -3 17 -12 32 -18 32 -26 0 11 19 43 22 27 3 39 -2 53 -19 10 -13 23 -23 28 -23z m-671 -63 c13 -23 24 -45 25 -49 0 -3 3 -10 8 -14 13 -14 7 -21 -23 -27 -46 -10 -38 -30 8 -22 42 7 46 2 79 -94 16 -47 9 -61 -29 -61 -10 0 -18 -6 -18 -14 0 -12 6 -12 36 -3 41 12 46 7 66 -56 9 -29 9 -43 0 -57 -13 -21 -6 -30 21 -30 16 0 17 -3 7 -15 -22 -27 -39 -16 -88 58 -92 135 -146 252 -171 365 -8 40 -7 44 12 52 36 14 41 12 67 -33z m1157 -29 c17 -29 29 -58 26 -65 -3 -7 -21 -13 -42 -13 -35 0 -38 3 -64 55 -19 40 -24 57 -15 60 7 2 20 6 28 8 30 10 36 6 67 -45z m-87 -63 c0 -28 -97 -35 -107 -7 -4 9 -17 34 -30 54 -12 20 -19 39 -15 41 4 2 27 5 52 6 25 2 47 5 49 7 6 6 51 -84 51 -101z m-779 9 l24 -27 -32 17 c-18 9 -33 21 -33 26 0 17 16 11 41 -16z m-40 -71 c21 -40 37 -73 36 -74 -3 -1 -40 -7 -93 -14 l-50 -7 -31 68 c-34 76 -31 90 20 97 74 10 79 7 118 -70z m172 -27 c26 -9 60 -16 76 -16 18 0 28 -5 28 -15 0 -8 -7 -15 -14 -15 -8 0 -11 5 -7 12 5 8 -6 9 -42 4 -27 -3 -72 -9 -100 -12 l-51 -6 -26 51 c-15 28 -27 55 -27 60 0 5 26 -4 58 -19 31 -15 79 -35 105 -44z m177 31 c0 -30 -10 -40 -27 -26 -9 9 -13 8 -13 0 0 -6 -7 -11 -15 -11 -8 0 -15 5 -15 10 0 6 7 10 16 10 9 0 18 9 21 20 7 28 33 25 33 -3z m506 -30 c6 -26 9 -49 5 -52 -5 -2 -26 -7 -48 -11 -40 -6 -40 -6 -61 40 -12 25 -22 50 -22 55 0 11 32 18 79 17 33 -1 35 -4 47 -49z m104 34 c5 -11 10 -45 10 -76 l0 -56 -32 4 c-17 2 -33 8 -35 14 -4 12 38 40 46 32 2 -2 6 2 9 9 3 10 -4 12 -30 7 -34 -7 -35 -6 -50 39 l-15 46 43 0 c33 0 46 -5 54 -19z m-236 -41 c26 -65 19 -80 -40 -80 -14 0 -34 -5 -45 -11 -27 -14 -46 2 -61 55 -17 59 -17 59 32 63 25 3 47 6 49 9 2 2 14 4 27 4 16 0 26 -10 38 -40z m-407 -26 c-3 -3 -12 -4 -19 -1 -8 3 -5 6 6 6 11 1 17 -2 13 -5z m33 -38 c0 -31 11 -39 26 -18 9 12 9 21 2 30 -6 7 -8 15 -4 19 12 13 28 -16 33 -60 l5 -45 -63 -9 c-49 -7 -68 -6 -80 4 -21 17 -32 16 -25 -2 6 -17 -16 -25 -83 -28 l-44 -2 -23 58 c-20 51 -21 57 -6 58 9 1 28 3 42 6 14 2 53 4 87 4 34 0 75 4 90 8 35 10 43 6 43 -23z m-282 -49 c12 -29 22 -57 22 -63 0 -5 -30 -17 -67 -25 l-68 -16 -13 24 c-7 14 -20 42 -27 63 -17 48 -12 52 65 61 30 3 58 7 61 8 3 0 15 -23 27 -52z m802 33 c10 -19 8 -20 -40 -20 -60 0 -66 21 -9 31 19 4 35 7 36 8 1 0 7 -8 13 -19z m-112 -22 c-3 -7 -26 -18 -52 -24 -68 -17 -67 -23 1 -17 l59 5 21 -48 c12 -27 21 -53 21 -59 -1 -26 -148 -45 -148 -20 0 13 -29 74 -40 85 -3 3 -6 19 -7 37 -2 34 -7 32 87 46 49 8 62 7 58 -5z m62 -28 c0 -5 -5 -10 -11 -10 -5 0 -7 5 -4 10 3 6 8 10 11 10 2 0 4 -4 4 -10z m68 3 c-10 -2 -28 -2 -40 0 -13 2 -5 4 17 4 22 1 32 -1 23 -4z m46 -55 c22 -43 21 -45 -21 -52 -21 -3 -48 -9 -61 -12 -13 -4 -22 -3 -20 2 1 5 -6 23 -15 41 -26 49 -23 53 42 53 57 0 60 -1 75 -32z m61 6 c21 -21 24 -29 13 -35 -24 -15 -48 -10 -48 10 0 11 -4 23 -10 26 -5 3 -10 10 -10 16 0 18 29 9 55 -17z m53 -88 c42 -62 47 -83 23 -95 -28 -15 -29 -15 -36 19 -4 17 -10 30 -13 30 -8 0 -32 49 -32 66 0 7 6 15 13 17 6 3 13 6 14 6 1 1 15 -19 31 -43z m-61 -28 c32 -62 33 -80 3 -88 -82 -22 -74 -25 -109 45 -17 36 -31 67 -31 69 0 5 41 12 85 15 26 1 33 -5 52 -41z m103 21 c0 -6 -4 -7 -10 -4 -5 3 -10 11 -10 16 0 6 5 7 10 4 6 -3 10 -11 10 -16z m-254 -8 c-4 -5 -3 -11 2 -13 4 -1 17 -28 29 -59 l21 -57 -51 -10 c-29 -6 -59 -13 -68 -17 -12 -4 -21 2 -32 22 -8 15 -22 42 -31 58 -9 17 -16 35 -16 42 0 6 28 18 63 26 75 18 90 20 83 8z m-165 -51 c17 -30 49 -104 49 -111 0 -10 -99 -31 -111 -23 -5 3 -9 0 -9 -6 0 -6 -4 -8 -10 -5 -5 3 -10 15 -10 26 0 10 -4 19 -10 19 -10 0 -14 -13 -11 -41 2 -13 -9 -18 -46 -21 -26 -3 -49 -4 -51 -3 -1 2 11 29 28 61 16 32 30 68 30 81 0 18 7 23 38 28 20 4 42 8 47 10 21 8 58 -1 66 -15z m-357 -42 c21 -29 20 -61 -1 -101 -9 -18 -17 -36 -18 -42 0 -5 -6 -21 -14 -34 -10 -18 -15 -20 -21 -11 -5 7 -6 20 -3 27 8 21 -18 63 -39 63 -10 0 -18 3 -18 6 0 15 24 90 33 102 16 20 64 14 81 -10z m832 -50 c10 -29 21 -56 22 -60 2 -4 -4 -8 -12 -8 -9 0 -25 -5 -36 -12 -23 -15 -20 -18 -47 59 -23 66 -21 71 28 72 21 1 28 -6 45 -51z m-121 24 c11 -7 45 -99 45 -118 0 -10 -15 -16 -81 -30 -10 -2 -23 14 -40 51 -14 29 -20 51 -14 48 5 -3 4 0 -2 8 -12 12 -19 38 -8 27 3 -3 22 1 43 8 44 16 44 16 57 6z m-114 -54 c7 -18 17 -49 24 -68 l11 -35 -71 -20 c-73 -22 -80 -20 -88 21 -2 11 -7 26 -10 34 -4 8 -8 26 -9 39 -3 21 4 26 57 41 33 10 63 18 67 19 3 0 12 -14 19 -31z m293 -122 c15 -55 14 -60 -2 -72 -32 -25 -49 -16 -65 34 -9 26 -19 56 -22 65 -5 12 2 20 27 30 18 8 36 12 40 8 4 -3 14 -33 22 -65z m-100 -18 c9 -29 20 -59 23 -65 5 -13 -19 -26 -72 -37 -29 -6 -31 -4 -50 46 -26 66 -23 81 18 95 57 19 62 16 81 -39z m-125 -55 l19 -61 -32 -7 c-17 -3 -44 -6 -61 -6 -24 0 -27 -2 -15 -10 12 -8 9 -10 -12 -6 -15 2 -25 1 -22 -4 2 -4 -5 -7 -16 -6 -16 1 -20 8 -20 37 0 19 -4 50 -9 68 -9 30 -8 32 17 38 15 3 47 11 72 18 25 7 49 10 53 6 4 -4 16 -34 26 -67z m252 -40 c0 -16 2 -47 5 -70 4 -40 2 -43 -21 -43 -20 0 -26 7 -35 43 -6 23 -13 49 -16 58 -3 9 5 20 18 27 37 17 48 14 49 -15z m-77 -57 c23 -78 22 -81 -35 -95 -27 -7 -52 -12 -54 -10 -2 2 -4 18 -6 34 -2 17 -6 35 -10 40 -3 6 -9 22 -13 36 -6 27 3 32 96 48 4 0 14 -23 22 -53z m-1286 -418 c-42 -32 -139 -50 -153 -28 -3 6 5 10 19 10 39 0 76 21 93 53 l15 29 24 -23 25 -23 -23 -18z m-458 -43 c-14 -56 -30 -74 -30 -31 0 29 29 100 37 92 4 -3 0 -31 -7 -61z m44 27 c-6 -4 -14 -24 -18 -44 -4 -21 -11 -40 -15 -43 -5 -2 -5 14 0 37 12 49 16 58 32 58 9 0 9 -2 1 -8z" />
    <path d="M590 2390 c-8 -5 -10 -10 -5 -10 6 0 17 5 25 10 8 5 11 10 5 10 -5 0 -17 -5 -25 -10z" />
    <path d="M535 2360 c-24 -25 -35 -29 -57 -25 -17 4 -28 2 -28 -4 0 -6 5 -11 11 -11 5 0 7 -5 3 -11 -12 -19 48 0 73 23 l21 20 5 -24 c2 -13 5 -5 6 20 0 23 0 42 -2 42 -2 0 -16 -14 -32 -30z" />
    <path d="M403 2313 c9 -2 23 -2 30 0 6 3 -1 5 -18 5 -16 0 -22 -2 -12 -5z" />
    <path d="M981 2299 c29 -43 32 -82 10 -138 -22 -58 -9 -64 21 -10 15 26 18 44 12 79 -3 25 -7 53 -7 63 -1 9 -4 17 -8 17 -4 0 -16 3 -26 7 -17 7 -17 6 -2 -18z" />
    <path d="M585 2270 c-59 -35 -83 -37 -127 -10 -39 24 -100 28 -92 6 3 -8 13 -12 23 -9 10 3 42 -5 70 -17 59 -26 96 -22 153 15 20 14 44 22 52 19 8 -3 24 0 36 6 18 10 26 8 46 -11 20 -19 24 -20 24 -5 0 44 -113 48 -185 6z" />
    <path d="M1035 2290 c3 -5 8 -10 11 -10 2 0 4 5 4 10 0 6 -5 10 -11 10 -5 0 -7 -4 -4 -10z"/>
    <path d="M450 2218 c0 -9 7 -19 16 -22 25 -10 27 -1 4 19 -17 15 -20 16 -20 3z" />
    <path d="M702 2203 c14 -16 41 -56 58 -90 18 -35 42 -65 52 -69 30 -9 34 4 5 17 -14 6 -28 20 -30 30 -5 20 9 27 15 7 5 -15 65 -15 80 0 9 9 8 18 -2 39 l-14 28 -4 -33 c-3 -27 -7 -33 -25 -30 -12 2 -26 13 -32 24 -17 34 -37 55 -77 80 -49 31 -58 30 -26 -3z" />
    <path d="M403 2162 c-3 -38 14 -73 47 -100 30 -24 93 -34 285 -46 79 -4 79 -4 40 10 -22 7 -95 18 -162 23 -156 12 -193 35 -193 117 0 33 -15 30 -17 -4z" />
    <path d="M1052 2143 c-2 -39 -4 -42 -34 -45 -20 -2 -32 -8 -30 -15 1 -7 -2 -13 -7 -13 -5 0 -11 6 -14 13 -3 8 -12 5 -28 -10 -13 -13 -18 -23 -11 -23 8 0 28 -11 46 -25 38 -29 51 -32 42 -10 -4 12 7 15 67 15 40 0 103 -7 142 -15 38 -8 90 -15 115 -16 25 0 79 -6 120 -14 65 -11 78 -11 98 1 12 8 22 23 22 33 0 30 -77 49 -200 51 -58 0 -143 8 -190 16 -47 9 -95 18 -107 20 -17 3 -23 12 -26 42 l-4 37 -1 -42z m201 -78 c64 -5 117 -11 117 -15 0 -4 6 -7 13 -6 6 0 14 -3 17 -9 10 -20 -71 -22 -138 -4 -37 9 -107 20 -156 24 -48 4 -83 11 -77 15 13 7 48 7 224 -5z m295 -44 c3 -10 -2 -12 -22 -7 -17 4 -26 2 -26 -5 0 -7 -3 -10 -6 -6 -4 3 -4 13 0 22 7 20 47 16 54 -4z"/>
    <path d="M1119 2153 c-12 -15 -12 -16 3 -10 10 3 21 1 25 -6 11 -17 73 -50 80 -43 7 7 -35 43 -59 51 -10 4 -18 11 -18 16 0 14 -16 11 -31 -8z"/>
    <path d="M361 2114 c0 -11 3 -14 6 -6 3 7 2 16 -1 19 -3 4 -6 -2 -5 -13z"/>
    <path d="M372 2060 c0 -14 2 -19 5 -12 2 6 2 18 0 25 -3 6 -5 1 -5 -13z"/>
    <path d="M965 1880 c-3 -5 -1 -10 4 -10 6 0 11 -7 11 -15 0 -17 16 -20 25 -5 3 6 0 17 -9 25 -17 18 -23 18 -31 5z"/>
    <path d="M832 1736 c7 -8 15 -12 17 -11 5 6 -10 25 -20 25 -5 0 -4 -6 3 -14z"/>
    <path d="M585 1730 c3 -5 8 -10 11 -10 2 0 4 5 4 10 0 6 -5 10 -11 10 -5 0 -7 -4 -4 -10z"/>
    <path d="M176 1668 c-10 -37 -6 -81 9 -108 13 -23 13 -19 10 48 -4 80 -9 96 -19 60z"/>
    <path d="M0 1640 c0 -6 11 -32 24 -59 29 -57 56 -155 56 -205 0 -35 -1 -36 -18 -19 -16 16 -39 58 -55 103 -3 8 -6 2 -6 -15 -1 -16 9 -46 20 -65 21 -34 66 -80 79 -80 9 0 2 102 -11 169 -17 85 -89 223 -89 171z"/>
    <path d="M140 1587 c0 -42 68 -193 103 -229 35 -36 131 -164 190 -253 36 -55 70 -105 75 -110 5 -6 14 -24 20 -40 6 -17 11 -24 11 -17 3 43 -148 284 -242 387 -64 69 -156 242 -142 265 4 6 1 10 -4 10 -6 0 -11 -6 -11 -13z"/>
    <path d="M220 1488 c0 -13 8 -32 17 -43 15 -19 15 -18 9 14 -3 18 -6 37 -6 42 0 5 -4 9 -10 9 -5 0 -10 -10 -10 -22z"/>
    <path d="M282 1375 c6 -13 15 -22 19 -19 9 5 -11 44 -23 44 -4 0 -3 -11 4 -25z"/>
    <path d="M0 1369 c0 -8 14 -35 32 -60 30 -41 30 -42 5 -20 -36 33 -35 12 2 -23 28 -27 29 -31 30 -133 2 -102 14 -151 42 -168 19 -12 21 3 3 30 -13 20 -18 52 -21 126 -3 93 -2 99 17 99 26 0 26 12 0 28 -11 7 -20 18 -20 26 0 8 -11 21 -25 30 -14 10 -35 31 -45 49 -11 18 -20 25 -20 16z"/>
    <path d="M604 979 c-6 -11 9 -19 37 -19 32 0 59 9 59 20 0 9 -90 8 -96 -1z"/>
    <path d="M0 951 c0 -6 12 -13 28 -17 91 -21 91 -20 30 -28 -67 -9 -78 -26 -15 -25 64 1 118 21 128 47 8 21 7 22 -59 22 -37 0 -77 3 -89 6 -14 4 -23 2 -23 -5z"/>
    <path d="M568 843 c5 -59 10 -63 11 -10 1 26 -3 47 -7 47 -4 0 -6 -17 -4 -37z"/>
    <path d="M912 813 c-19 -49 -24 -73 -15 -73 9 0 37 90 30 97 -3 2 -9 -9 -15 -24z"/>
    <path d="M1305 727 c-18 -26 -19 -49 -3 -65 9 -9 -1 -24 -47 -67 -33 -30 -63 -55 -68 -55 -10 0 -117 -111 -117 -122 0 -16 16 -8 45 22 16 17 34 29 40 27 13 -6 35 6 123 64 39 27 72 44 72 39 0 -6 18 -10 40 -10 22 0 40 5 40 10 0 6 -11 8 -27 4 -22 -6 -25 -4 -20 10 12 31 -43 17 -106 -28 -84 -59 -124 -78 -77 -36 19 17 54 44 78 61 23 16 42 34 42 40 0 5 11 20 25 33 24 23 25 24 5 29 -11 3 -20 0 -20 -6 0 -8 -4 -7 -12 1 -9 9 -7 17 11 36 18 20 20 24 7 29 -9 4 -22 -3 -31 -16z"/>
    <path d="M820 725 c-8 -9 -8 -15 -2 -15 12 0 26 19 19 26 -2 2 -10 -2 -17 -11z"/>
    <path d="M397 682 c-18 -20 -23 -42 -9 -42 18 0 46 40 36 50 -7 7 -16 4 -27 -8z"/>
    <path d="M843 685 c-18 -8 -33 -19 -33 -25 0 -15 16 -12 30 5 7 8 27 19 44 24 19 6 24 9 11 10 -11 0 -35 -6 -52 -14z"/>
    <path d="M1150 671 c-24 -4 -31 -9 -22 -15 16 -10 99 1 107 15 7 10 -29 10 -85 0z"/>
    <path d="M1049 653 c-13 -16 -12 -17 4 -4 9 7 17 15 17 17 0 8 -8 3 -21 -13z"/>
    <path d="M496 633 c-6 -14 -5 -15 5 -6 7 7 10 15 7 18 -3 3 -9 -2 -12 -12z"/>
    <path d="M1610 561 c0 -6 6 -11 14 -11 17 0 29 -27 15 -35 -18 -12 2 -25 22 -14 15 7 18 16 13 32 -8 28 -4 24 -37 32 -17 5 -27 3 -27 -4z"/>
    <path d="M458 517 c-5 -10 -8 -31 -8 -45 1 -24 2 -25 11 -9 6 10 9 30 7 45 -2 23 -4 24 -10 9z"/>
    <path d="M1440 460 c-27 -26 -36 -40 -26 -40 9 0 16 -4 16 -10 0 -5 5 -10 11 -10 8 0 8 4 1 13 -8 10 -5 20 14 40 14 15 29 27 34 27 6 0 10 5 10 10 0 19 -19 10 -60 -30z"/>
    <path d="M1620 455 c0 -18 4 -23 15 -19 8 4 15 12 15 19 0 7 -7 15 -15 19 -11 4 -15 -1 -15 -19z"/>
    <path d="M2 448 c6 -18 103 -75 168 -98 30 -11 63 -25 72 -30 23 -13 28 -13 28 4 0 7 -37 27 -86 46 -47 19 -106 46 -130 62 -50 31 -57 34 -52 16z"/>
    <path d="M1495 419 c-16 -10 -25 -19 -18 -19 6 0 14 -10 16 -22 l4 -23 2 23 c0 13 11 27 26 34 26 12 34 29 13 27 -7 0 -26 -9 -43 -20z"/>
    <path d="M895 407 c-25 -13 -67 -22 -112 -25 -74 -5 -91 -15 -50 -28 50 -17 159 7 195 42 32 31 15 36 -33 11z"/>
    <path d="M1295 383 c-66 -27 -71 -30 -63 -38 6 -6 89 24 98 35 3 3 16 11 30 17 49 23 -6 11 -65 -14z"/>
    <path d="M1720 320 c6 -4 -21 -10 -60 -14 -40 -4 -69 -11 -64 -16 5 -4 32 -5 59 0 28 4 98 11 158 15 59 4 109 10 111 14 3 4 -45 7 -106 8 -61 0 -105 -3 -98 -7z"/>
    <path d="M296 264 c-11 -28 -6 -110 7 -129 20 -26 24 -9 19 73 -4 69 -13 89 -26 56z"/>
    <path d="M241 223 c-1 -50 9 -113 18 -113 3 0 7 34 8 75 1 55 -3 75 -12 75 -8 0 -13 -14 -14 -37z"/>
    <path d="M1326 242 c-8 -13 29 -22 92 -22 39 0 52 4 50 13 -5 14 -133 23 -142 9z"/>
    <path d="M1827 234 c-54 -6 -101 -15 -105 -19 -7 -7 199 3 207 10 16 16 -19 19 -102 9z"/>
    <path d="M865 233 c-43 -9 -50 -14 -37 -22 16 -10 103 9 96 21 -5 8 -25 9 -59 1z"/>
    <path d="M1246 171 c5 -5 50 -25 99 -44 l90 -36 -3 -41 c-4 -45 14 -56 24 -15 3 14 15 30 25 36 30 16 23 26 -27 38 -67 17 -47 25 25 10 53 -10 64 -10 74 3 19 24 57 30 63 10 3 -9 10 -25 15 -34 12 -24 11 -42 -3 -56 -13 -13 -20 -42 -10 -42 4 0 17 11 30 24 23 25 28 55 13 84 -5 9 -12 25 -15 35 -7 22 -60 23 -101 1 -27 -14 -38 -14 -120 1 -49 9 -109 20 -132 26 -52 11 -60 11 -47 0z"/>
    <path d="M1009 136 c-2 -2 -58 -12 -124 -21 -66 -9 -124 -20 -129 -25 -10 -10 25 -7 158 13 95 15 115 21 104 32 -2 3 -7 3 -9 1z"/>
    <path d="M925 91 c-87 -15 -88 -16 -40 -19 52 -3 135 15 135 29 0 5 -1 8 -2 8 -2 -1 -43 -9 -93 -18z"/>
    <path d="M1220 103 c0 -16 55 -63 73 -63 24 0 21 13 -5 29 -13 8 -33 21 -45 29 -13 8 -23 10 -23 5z"/>
    <path d="M1010 58 c0 -16 49 -19 81 -5 l34 15 -57 -1 c-32 -1 -58 -5 -58 -9z"/>
    <path d="M1510 10 c0 -5 5 -10 10 -10 6 0 10 5 10 10 0 6 -4 10 -10 10 -5 0 -10 -4 -10 -10z"/>
  </g>
</svg>
