<?xml version="1.0" standalone="no"?>
<!DOCTYPE svg PUBLIC "-//W3C//DTD SVG 1.0//EN"
"http://www.w3.org/TR/2001/REC-SVG-20010904/DTD/svg10.dtd">
<svg xmlns="http://www.w3.org/2000/svg" xmlns:xlink="http://www.w3.org/1999/xlink" x="0" y="0" 
width="744" height="1052" viewBox="0 0 744 1052" >
  <defs>
    <mask id="graveBottom">
        <rect x="130" y="340" width="220" height="240" stroke="none" fill="white" rx="20"/>
    </mask>
  </defs>

  <rect x="268" y="559" width="40" height="40" stroke="none" fill="#8387bd" rx="10"/>

<g>
  <path d="M 140.6434 571.7169 L 196.6275 373.7238 C 196.6275 373.7238 290.8449 312.2777 346.8292 388.7439 C 323.6162 515.7326 308.5960 592.1989 308.5960 592.1989 "
  fill="#8387bd" />
  <path d="M 125.6232 579.9098 L 181.6074 381.9167 C 181.6074 381.9167 275.8248 320.4706 331.8091 396.9368 C 308.5961 523.9255 293.5759 600.3918 293.5759 600.3918 "
  fill="#b1abbd" stroke="#000000" stroke-width="1" />
  <path d="M 354.9273 447.4866 L 354.9273 442.6866 L 359.7273 442.6866 L 359.7273 447.4866 L 354.9273 447.4866 z M 322.2393 447.4866 L 322.2393 413.1186 L 335.2151 413.1186 C 337.4986 413.1186 339.2426 413.2279 340.4471 413.4464 C 342.1366 413.7269 343.5523 414.2609 344.6943 415.0484 C 345.8363 415.8359 346.7553 416.9392 347.4513 418.3585 C 348.1473 419.7777 348.4953 421.3374 348.4953 423.0374 C 348.4953 425.9539 347.5650 428.4219 345.7042 430.4414 C 343.8435 432.4609 340.4816 433.4706 335.6186 433.4706 L 326.7993 433.4706 L 326.7993 447.4866 L 322.2393 447.4866 z M 326.7993 429.4386 L 335.6823 429.4386 C 338.6198 429.4386 340.7057 428.8915 341.9400 427.7972 C 343.1742 426.7030 343.7913 425.1631 343.7913 423.1776 C 343.7913 421.7391 343.4281 420.5079 342.7016 419.4839 C 341.9751 418.4599 341.0181 417.7836 339.8306 417.4551 C 339.0651 417.2521 337.6511 417.1506 335.5886 417.1506 L 326.7993 417.1506 L 326.7993 429.4386 z M 309.5673 447.4866 L 309.5673 442.6866 L 314.3673 442.6866 L 314.3673 447.4866 L 309.5673 447.4866 z M 296.3193 447.4866 L 296.3193 413.1186 L 300.8793 413.1186 L 300.8793 447.4866 L 296.3193 447.4866 z M 282.8793 447.4866 L 282.8793 442.6866 L 287.6793 442.6866 L 287.6793 447.4866 L 282.8793 447.4866 z M 247.6473 447.4866 L 247.6473 413.1186 L 262.8828 413.1186 C 265.9418 413.1186 268.2673 413.4271 269.8593 414.0441 C 271.4513 414.6611 272.7233 415.7506 273.6753 417.3126 C 274.6273 418.8746 275.1033 420.6006 275.1033 422.4906 C 275.1033 424.9271 274.3151 426.9810 272.7386 428.6522 C 271.1621 430.3235 268.7273 431.3856 265.4343 431.8386 C 266.6368 432.4171 267.5503 432.9876 268.1748 433.5501 C 269.5023 434.7696 270.7563 436.2949 271.9368 438.1259 L 277.8791 447.4866 L 272.2001 447.4866 L 267.6581 440.3309 C 266.3316 438.2664 265.2392 436.6867 264.3810 435.5920 C 263.5227 434.4972 262.7541 433.7320 262.0751 433.2962 C 261.3961 432.8605 260.7053 432.5571 260.0028 432.3861 C 259.4878 432.2771 258.6451 432.2226 257.4746 432.2226 L 252.2073 432.2226 L 252.2073 447.4866 L 247.6473 447.4866 z M 252.2073 428.2866 L 261.9701 428.2866 C 264.0456 428.2866 265.6662 428.0716 266.8320 427.6416 C 267.9977 427.2116 268.8837 426.5236 269.4900 425.5776 C 270.0962 424.6316 270.3993 423.6034 270.3993 422.4929 C 270.3993 420.8669 269.8120 419.5300 268.6372 418.4822 C 267.4625 417.4345 265.6068 416.9106 263.0703 416.9106 L 252.2073 416.9106 L 252.2073 428.2866 z "
  transform="matrix(0.992376,0.123255,-0.123255,0.992376,0,0)"/>
</g>

</svg>
