<?xml version="1.0" standalone="no"?>
<!DOCTYPE svg PUBLIC "-//W3C//DTD SVG 20010904//EN"
"http://www.w3.org/TR/2001/REC-SVG-20010904/DTD/svg10.dtd">
<svg width="468pt" height="468pt" viewBox="0 0 468 468" xmlns="http://www.w3.org/2000/svg">

  <path stroke="none" fill="#9c7000" d="M 141.6744 212.1403 L 160.7053 224.8275 L 239.4720 230.1139 L 298.6792 219.0125 L 302.9083 211.6116 L 243.7011 203.1534 L 160.1767 205.2680 L 141.6744 212.1403 z "/>
  <path stroke="none" fill="#bf8a0f" d="M 137.9740 216.3694 L 122.1149 255.4884 L 117.8858 285.0920 L 115.2426 315.2242 L 118.4144 370.7310 L 138.5026 422.0087 L 144.8462 432.5814 L 170.2207 448.4405 L 206.1680 457.9559 L 234.1857 458.4846 L 281.2343 446.3259 L 300.7938 422.0087 L 324.0538 354.8719 L 324.0538 266.0611 L 309.7806 220.5984 L 257.4456 229.5853 L 168.1062 224.8275 L 137.9740 216.3694 z "/>
  <path stroke="none" fill="#493f9f" d="M 123.1721 375.4887 L 168.6348 387.6474 L 217.7980 392.4051 L 264.3179 390.2905 L 301.8510 381.8324 L 318.7674 373.3742 L 309.2520 400.8633 L 275.9479 409.8501 L 220.9698 413.0219 L 171.2780 408.2642 L 135.8594 399.2773 L 123.1721 375.4887 z "/>
  <path stroke="none" fill="#493f9f" d="M 119.4717 266.5898 L 157.0048 280.3343 L 201.9389 287.7352 L 241.0579 287.7352 L 278.5911 279.2770 L 321.4106 259.7175 L 321.9392 284.5634 L 282.2915 298.3079 L 237.3575 306.7661 L 197.7098 306.7661 L 157.5335 301.4797 L 118.4144 287.2065 L 119.4717 266.5898 z "/>
  <g transform="translate(0,468) scale(0.183529,-0.183529)" fill="#000000" stroke="none">
    <path d="M961 1460 c-128 -18 -172 -31 -207 -62 -19 -16 -34 -34 -34 -39 0 -5 -11 -33 -25 -63 -14 -30 -25 -62 -25 -70 0 -15 -8 -36 -38 -105 -12 -28 -14 -82 -14 -268 1 -129 4 -238 6 -242 3 -4 7 -38 10 -75 5 -70 13 -92 98 -264 29 -59 57 -102 65 -102 8 0 31 -13 51 -29 103 -80 374 -125 527 -86 33 8 97 31 142 51 l81 36 61 121 c74 149 96 217 113 338 23 164 14 495 -14 540 -9 13 -26 71 -39 128 -24 103 -25 105 -66 131 -39 25 -62 31 -223 56 -64 10 -404 13 -469 4z m444 -46 c152 -18 232 -34 214 -44 -53 -28 -396 -53 -547 -40 -106 9 -138 14 -231 32 -65 12 -55 21 44 37 153 26 374 32 520 15z m-625 -83 c0 -4 -4 -11 -9 -16 -10 -11 -51 -175 -51 -206 0 -10 -7 -19 -15 -19 -15 0 -14 19 0 67 2 7 0 15 -4 17 -5 3 -6 17 -4 31 3 14 10 22 16 18 6 -4 7 -1 3 6 -5 7 -3 24 3 39 6 15 15 39 20 54 7 19 15 26 26 22 8 -3 15 -9 15 -13z m894 -125 c11 -61 12 -83 3 -88 -7 -4 -7 -8 -2 -8 6 -1 -17 -14 -49 -31 -33 -16 -60 -28 -61 -26 -8 10 -25 105 -26 144 -1 26 -4 59 -8 73 -7 24 -4 26 53 40 72 18 69 22 90 -104z m-756 98 c29 -4 54 -9 56 -13 1 -3 -3 -44 -10 -91 -7 -47 -13 -107 -14 -134 l0 -49 -33 6 c-19 3 -66 15 -105 27 -61 18 -72 24 -72 43 0 22 47 204 57 220 3 5 19 6 37 3 17 -3 55 -8 84 -12z m791 -89 c0 -11 -7 3 -14 30 -18 65 -18 93 1 35 7 -25 13 -54 13 -65z m-568 67 l114 -7 9 -116 c5 -64 6 -129 2 -144 l-7 -28 -122 6 c-166 9 -167 9 -167 63 0 40 15 168 26 221 2 13 10 20 17 17 7 -2 65 -8 128 -12z m362 -6 c3 -8 11 -52 17 -98 6 -45 14 -86 16 -90 3 -5 3 -16 -1 -27 -7 -24 -80 -46 -189 -57 l-53 -5 -6 123 c-3 68 -7 130 -8 138 -3 11 10 15 61 18 36 1 72 4 80 6 38 9 78 5 83 -8z m-822 -159 c-13 -13 -15 1 -4 30 7 17 8 17 11 -1 2 -10 -1 -23 -7 -29z m1059 -23 c0 -8 -5 -12 -10 -9 -6 4 -8 11 -5 16 9 14 15 11 15 -7z m-1063 -44 c-4 -17 -2 -32 5 -36 6 -4 8 -3 5 4 -4 5 -3 21 2 34 8 20 10 21 16 5 4 -9 5 -26 2 -37 -3 -11 -1 -22 3 -25 5 -3 11 8 15 25 4 16 8 30 10 30 1 0 22 -7 46 -16 58 -20 190 -51 259 -59 111 -15 291 -8 384 14 48 12 96 21 107 21 11 0 27 4 37 9 44 24 122 61 127 61 3 0 5 -17 5 -38 0 -36 -3 -39 -61 -69 -47 -25 -64 -29 -73 -20 -7 6 -11 19 -8 29 2 10 -1 18 -7 18 -7 0 -9 -12 -6 -34 6 -32 4 -34 -32 -41 -21 -4 -47 -9 -58 -10 -11 -2 -41 -8 -67 -14 -80 -19 -266 -25 -363 -12 -108 14 -286 72 -332 107 -27 20 -33 31 -29 52 5 34 5 32 12 32 4 0 4 -13 1 -30z m1053 -171 c0 -95 -1 -101 -17 -88 -16 13 -17 12 -4 -4 41 -52 21 -271 -23 -254 -8 3 -17 0 -20 -8 -5 -15 -84 -40 -94 -30 -3 3 2 43 11 88 18 86 22 223 8 293 l-8 41 59 26 58 25 5 -21 c3 -12 6 -40 9 -62 2 -22 3 -10 2 28 0 37 2 67 7 67 4 0 7 -46 7 -101z m-1066 44 c-3 -27 -11 -52 -16 -58 -7 -7 -9 1 -4 24 3 18 6 44 6 57 0 13 5 24 11 24 7 0 8 -16 3 -47z m32 -116 c2 -78 9 -172 17 -209 8 -38 10 -68 5 -68 -11 0 -30 50 -24 66 2 7 2 15 -2 19 -4 3 -7 12 -7 18 0 7 -4 45 -9 85 -8 73 1 249 12 238 3 -4 7 -70 8 -149z m71 119 c21 -8 67 -22 103 -31 l65 -17 1 -194 c1 -223 12 -205 -107 -178 -83 19 -81 15 -103 175 -18 128 -21 259 -6 259 5 0 27 -6 47 -14z m807 -148 c1 -119 -22 -298 -37 -298 -5 0 -7 13 -4 28 3 16 8 65 11 108 5 75 5 73 -9 -25 -8 -57 -16 -106 -19 -109 -10 -9 -98 -21 -161 -21 l-60 -1 2 128 c1 70 2 161 2 203 l1 75 83 12 c45 7 99 15 119 18 32 5 37 3 41 -18 4 -19 4 -18 6 7 1 22 4 26 13 17 8 -8 12 -52 12 -124z m-424 83 c63 -1 117 -4 121 -7 9 -5 10 -198 2 -313 l-5 -84 -133 6 c-151 8 -161 10 -169 41 -11 44 -19 243 -12 308 l7 65 37 -7 c20 -3 89 -7 152 -9z m-494 -38 c-10 -10 -19 5 -10 18 6 11 8 11 12 0 2 -7 1 -15 -2 -18z m4 -17 c0 -3 -4 -8 -10 -11 -5 -3 -10 -1 -10 4 0 6 5 11 10 11 6 0 10 -2 10 -4z m-2 -51 c-3 -3 -9 2 -12 12 -6 14 -5 15 5 6 7 -7 10 -15 7 -18z m1042 -249 c0 -2 -7 -7 -16 -10 -8 -3 -12 -2 -9 4 6 10 25 14 25 6z m-849 -22 c92 -19 103 -23 96 -30 -7 -7 -153 22 -175 36 -24 14 -5 12 79 -6z m787 -10 c-15 -8 -83 -24 -150 -35 -103 -18 -146 -20 -268 -15 -144 6 -241 15 -249 22 -13 12 14 14 67 4 140 -25 434 -13 557 23 65 20 77 20 43 1z m55 -26 c-9 -24 -21 -49 -28 -56 -13 -14 -154 -66 -161 -59 -3 2 0 17 6 32 6 15 8 30 5 34 -9 8 -25 -21 -25 -45 0 -25 -36 -34 -142 -34 -54 0 -68 3 -68 15 0 8 -5 15 -11 15 -5 0 -7 -5 -4 -10 17 -27 -92 -21 -275 16 -93 19 -260 73 -260 84 0 5 -3 15 -6 23 -4 12 0 14 16 10 12 -3 19 -11 16 -18 -3 -8 2 -16 10 -19 8 -3 14 1 14 10 0 9 6 14 13 11 6 -2 45 -10 85 -17 46 -8 72 -18 73 -27 3 -27 4 -32 13 -40 5 -4 7 4 4 21 l-6 29 58 -6 c31 -4 101 -9 154 -13 78 -6 96 -10 97 -23 1 -14 2 -14 5 -1 4 12 31 19 116 28 61 6 115 9 119 6 5 -3 9 0 9 6 0 6 6 10 13 9 18 -4 155 40 162 51 14 23 14 7 -2 -32z m-856 -74 c-3 -3 -12 -4 -19 -1 -8 3 -5 6 6 6 11 1 17 -2 13 -5z m93 -26 c18 -5 13 -6 -15 -2 -22 3 -47 10 -55 15 -16 10 24 3 70 -13z m16 -34 c17 -4 24 -20 37 -92 21 -109 22 -103 -10 -91 -69 26 -121 69 -142 119 -12 27 -21 57 -21 67 0 11 -5 24 -12 31 -7 7 17 3 58 -8 38 -11 78 -23 90 -26z m691 24 c-3 -7 -19 -45 -35 -84 -41 -97 -49 -109 -98 -132 l-42 -21 10 32 c6 18 21 60 34 95 13 34 24 68 24 75 0 8 21 20 48 29 62 20 65 20 59 6z m-594 -15 c-7 -2 -19 -2 -25 0 -7 3 -2 5 12 5 14 0 19 -2 13 -5z m116 -37 c52 -3 96 -8 99 -10 2 -3 -1 -50 -8 -106 l-12 -100 -32 0 c-17 0 -42 3 -56 7 l-25 7 25 7 c19 5 15 7 -21 8 -26 1 -60 4 -77 7 -29 6 -30 8 -44 98 -8 50 -13 94 -11 98 2 3 18 3 36 -2 17 -4 74 -11 126 -14z m351 20 c0 -20 -24 -65 -33 -59 -6 3 -7 1 -3 -6 8 -13 -31 -142 -42 -139 -4 1 -31 -6 -61 -15 -102 -32 -101 -33 -101 88 0 77 3 105 13 106 6 0 26 2 42 4 139 17 153 17 158 -2 4 -14 5 -13 6 5 0 12 6 22 11 22 6 0 10 -2 10 -4z m-694 -108 l29 -32 -32 25 c-18 13 -32 27 -32 32 -1 12 4 8 35 -25z m179 -98 c3 -6 -1 -7 -9 -4 -18 7 -21 14 -7 14 6 0 13 -4 16 -10z m62 -16 c-3 -3 -12 -4 -19 -1 -8 3 -5 6 6 6 11 1 17 -2 13 -5z"/>
    <path d="M1711 824 c0 -11 3 -14 6 -6 3 7 2 16 -1 19 -3 4 -6 -2 -5 -13z" />
    <path d="M1702 690 c0 -19 2 -27 5 -17 2 9 2 25 0 35 -3 9 -5 1 -5 -18z" />
    <path d="M1675 560 c-3 -5 -1 -10 4 -10 6 0 11 5 11 10 0 6 -2 10 -4 10 -3 0 -8 -4 -11 -10z" />
    <path d="M1541 804 c0 -11 3 -14 6 -6 3 7 2 16 -1 19 -3 4 -6 -2 -5 -13z" />
    <path d="M1637 423 c-4 -3 -7 -16 -7 -27 1 -19 1 -20 11 -3 6 9 14 15 20 12 5 -3 6 1 3 9 -7 17 -16 20 -27 9z" />
    <path d="M1531 381 c-7 -12 -7 -22 -2 -26 5 -3 13 4 16 16 9 28 -1 36 -14 10z" />
    <path d="M1575 390 c-3 -6 1 -7 9 -4 18 7 21 14 7 14 -6 0 -13 -4 -16 -10z" />
    <path d="M1389 343 c-13 -16 -12 -17 4 -4 16 13 21 21 13 21 -2 0 -10 -8 -17 -17z" />
    <path d="M1425 350 c-3 -6 1 -7 9 -4 18 7 21 14 7 14 -6 0 -13 -4 -16 -10z" />
    <path d="M1320 339 c-23 -7 -23 -7 7 -8 17 -1 34 3 37 7 6 10 -10 11 -44 1z" />
    <path d="M1526 172 c-3 -5 1 -9 9 -9 8 0 15 4 15 9 0 4 -4 8 -9 8 -6 0 -12 -4 -15 -8z" />
    <path d="M1193 93 c9 -2 23 -2 30 0 6 3 -1 5 -18 5 -16 0 -22 -2 -12 -5z" />
  </g>
</svg>
