<?xml version="1.0" encoding="ISO-8859-1" standalone="no"?>
<!DOCTYPE svg PUBLIC "-//W3C//DTD SVG 20010904//EN"
"http://www.w3.org/TR/2001/REC-SVG-20010904/DTD/svg10.dtd">
<svg width="468pt" height="636pt" viewBox="0 0 468 636" xmlns="http://www.w3.org/2000/svg">
  <path stroke="none" fill="#db1311" d="M 79.24601 292.6006 L 144.2684 300.7284 L 119.8850 367.7827 L 89.40575 357.6230 L 71.11821 327.1438 L 79.24601 292.6006 z "/>
  <path stroke="none" fill="#f3e311" d="M 148.3323 300.7284 L 73.15016 290.5687 L 99.56550 243.8339 L 174.7476 251.9617 L 148.3323 300.7284 z "/>
  <path stroke="none" fill="#f3e3a1" d="M 231.6422 552.6901 L 239.7700 495.7955 C 239.7700 495.7955 335.2716 493.7636 337.3035 493.7636 C 339.3354 493.7636 327.1438 542.5303 327.1438 542.5303 L 284.4728 560.8179 L 231.6422 552.6901 z "/>
  <path stroke="none" fill="#5475a1" d="M 243.8339 489.6997 L 333.2396 491.7316 L 341.3674 146.3003 L 304.7923 115.8211 L 260.0894 119.8850 L 231.6422 164.5879 L 221.4824 213.3546 C 221.4824 213.3546 217.4185 319.0160 219.4505 319.0160 C 221.4824 319.0160 233.6741 402.3259 233.6741 402.3259 L 243.8339 489.6997 z "/>
  <path stroke="none" fill="#f3e3a1" d="M 95.50159 237.7380 L 172.7157 256.0256 L 180.8434 272.2812 L 211.3227 280.4089 C 211.3227 280.4089 233.6741 268.2173 235.7061 268.2173 C 237.7380 268.2173 251.9617 237.7380 251.9617 237.7380 L 247.8978 209.2907 L 223.5144 184.9073 L 221.4824 217.4185 L 186.9393 227.5783 L 186.9393 158.4920 L 148.3323 146.3003 L 101.5974 174.7476 L 91.43770 201.1629 L 95.50159 237.7380 z "/>
  <g transform="translate(0,636) scale(0.492632,-0.492632)" fill="#000000" stroke="none">
    <path d="M564 1062 c-41 -4 -81 -47 -99 -105 -14 -45 -13 -46 8 -38 12 5 21 16 19 25 -4 21 25 76 41 77 6 1 18 1 24 0 7 -1 22 3 32 9 14 7 27 7 45 -2 31 -13 33 -24 7 -37 -10 -6 -24 -24 -29 -41 -12 -32 -21 -37 -39 -19 -6 6 -21 9 -34 7 l-24 -4 26 -12 c31 -12 59 -48 59 -74 0 -37 -40 -103 -70 -116 -33 -15 -66 -9 -54 10 5 8 2 9 -10 5 -10 -4 -31 -7 -47 -7 -16 0 -29 -4 -29 -10 0 -5 11 -10 25 -10 25 0 25 -1 25 -80 0 -44 4 -99 9 -122 6 -24 17 -74 26 -113 23 -100 23 -109 0 -113 -20 -4 -45 -28 -45 -45 0 -4 5 -5 10 -2 16 10 12 -7 -5 -19 -13 -10 -12 -16 8 -51 l23 -40 89 4 c50 2 95 7 102 13 6 5 23 45 37 89 22 67 27 110 36 277 14 279 13 365 -6 430 -26 89 -74 122 -160 114z m75 -644 l1 -118 -40 -2 c-22 -1 -48 -2 -57 -2 -12 -1 -20 10 -26 34 -4 19 -13 53 -18 75 -32 128 -43 212 -32 255 7 28 15 36 41 41 36 7 72 35 72 55 0 7 6 14 13 17 17 6 45 -207 46 -355z m-55 -146 c3 -5 3 -26 -1 -46 -7 -44 -23 -29 -23 22 0 30 12 42 24 24z m34 -38 c-11 -29 -12 -29 -16 -5 -2 13 2 27 9 32 19 12 21 5 7 -27z m-78 -3 c0 -11 -4 -23 -10 -26 -6 -4 -10 5 -10 19 0 14 5 26 10 26 6 0 10 -9 10 -19z m120 -25 c0 -14 -4 -28 -10 -31 -6 -4 -10 7 -10 24 0 17 5 31 10 31 6 0 10 -11 10 -24z"/>
    <path d="M295 1048 c-35 -19 -73 -59 -86 -90 -11 -26 -10 -32 4 -39 9 -5 14 -16 11 -23 -4 -11 3 -14 30 -12 20 2 39 -1 42 -5 11 -18 24 -8 24 19 0 27 15 52 32 52 14 0 9 -75 -6 -95 -8 -12 -12 -32 -9 -51 3 -21 -3 -47 -21 -82 -27 -53 -31 -55 -78 -52 -27 1 -28 0 -28 -49 0 -28 -3 -51 -7 -51 -22 1 -43 30 -43 60 0 33 31 136 51 174 8 13 7 22 0 29 -6 6 -11 24 -11 40 0 18 -4 26 -11 21 -7 -4 -9 -21 -5 -45 6 -36 -11 -109 -34 -151 -25 -45 -1 -132 45 -162 32 -21 99 -21 116 0 12 15 11 19 -9 32 -12 8 -22 24 -22 37 0 25 55 111 82 128 10 7 18 20 18 30 0 34 20 57 49 57 16 0 34 7 42 16 11 13 9 14 -14 9 -15 -4 -34 -4 -44 -1 -14 6 -14 8 -1 19 12 10 14 25 9 76 -6 55 -11 67 -39 92 -35 31 -55 35 -87 17z"/>
    <path d="M495 860 c3 -5 8 -10 11 -10 2 0 4 5 4 10 0 6 -5 10 -11 10 -5 0 -7 -4 -4 -10z"/>
    <path d="M255 830 c3 -5 8 -10 11 -10 2 0 4 5 4 10 0 6 -5 10 -11 10 -5 0 -7 -4 -4 -10z"/>
  </g>
</svg>
