<svg xmlns="http://www.w3.org/2000/svg" height="1050" width="744" font-weight="bold" font-size="28px" font-family="sans-serif" stroke-width="1">
<style>
    #java {
        fill: gold;
    }
    #java:hover {
        fill: yellow;
        stroke-width: 4px;
    }
    #bali {
        fill: #b70000;
    }
    #bali:hover {
        fill: red;
        stroke-width: 4px;
    }
    #lombok {
        fill: #20a500;
    }
    #lombok:hover {
        fill: darkgreen;
        stroke-width: 4px;
    }
    #flores {
        fill: #2009e5;
    }
    #flores:hover {
        stroke-width: 4px;
        fill: magenta;
    }
</style>
<g stroke-dashoffset="0" stroke="#a08070" stroke-miterlimit="4" stroke-dasharray="8, 4, 2, 4" stroke-width="2" fill="none">
<path d="m298,198s13.8-26.1,15-31.3c1.23-5.17,7.86-27.2,8.62-29.3l1.51-4.29"/>
<path d="m391,227s-5.42-14.5-1.97-25.6,1.97-8.12,9.36-18.5c7.39-10.3,6.4-6.89,9.36-15.8,2.95-8.86,5.42-21.7,5.42-21.7"/>
<path d="m278,191,3.3-8.68,1.59-13.1c0.184-1.52-1.45-2.68-2.73-3.61-2.08-1.59-4.49-4.23-4.12-7.16-0.0751-2.33-0.584-3.84-0.67-5.19-0.0861-1.36,0.826-2.17,1.87-4.32,0.834-1.72,2.43-7.23,3.21-7.98l4.69-4.48,17.1-3.36,7.4-8.44,3.46-11"/>
</g>
<g stroke="#00809e" fill="none">
<path d="m450,205,0.401,1.61-1.6,2-1.6,2.01-2.01,0.803-2.01-0.198-2.21,1.4-2,0.198-2.01-0.8-2.2-0.407-2.21-0.198-2.01-1.61-2.2-2.01-0.8-2.21-0.602-0.605-0.602-0.8-2.01-1-2.01-0.404-2.2-1.4-1.61-2.21-2.01-0.602-2.2-0.201-2-0.201-2.01,0.404-2-0.602-2.01-0.201-2.2-0.407-0.803-0.195-2.01-1.21-1.4-2-1.2-1.81,0.404-0.605,1.6-2,2-0.805,2.01-0.803,2.2-0.198,2.01-0.198,2.2,0,2.01-0.407,2.01,0.407,2.2-0.803,2.01,0.803,2.01,0.399,2.21-0.998,2-1.21,2.01,1.21,1,0.998,1.4,2.01,2.2,0.404,2,0.803,0.201,2.21,1.81,2.01,2.2-0.401,2-0.201,1.4,2.01,2,1,0.805,2.21,1.4,2.01,2.01,1,2.01,2"/>
<path d="m370,175-1.61,0-2,0.401-2.2-0.401-2.01,1.2-2,1.2-2.2,0.602-2.01,0.404-2.01-0.201-2.21-0.605-2.01,1.61-2.2,0.803-2.01-0.404-2.2-0.602-2.01-0.401-2-1.01-0.401-2-0.201-2.01,1.61-2.01-0.602-2.01-0.401-2.21,1-2.01,2-1.41,2.01-0.8,2-1,2-2.01,2.21-0.605,2.01,0.803,2,1.21,2.21,1,2.01-1.4,2.01-0.198,1.8,2.01,0.803,2,2.01,0.407,0.599,2.01,1.8,2,2.21,0.407,2.01,0.195,2.2-2.01,2.01-0.599,2,0.399,2.21-0.8-1.81-2.21-2-1-2.01-1.61-2.01,0.401-2.01-1.21-2.21-1.61-1.8-2-2.01-1.61,0.602-2.2,2.01-1.2,2.2-0.602,2-0.404,2.01,0.8,2.2,0.203,1.4,2,0.998,2.21,2.01,1.81,2.21,0.399,2.01-1.8,2.2-1,2.01,0.599,2.01,1.01,1,2.01-0.203,2,0,2.21,1.21-2.21-0.203-2,2.01-2.21,2.01-0.201,2.2,0,1.4,2.2,1,2.01,0.198,2.01-0.399,2.21,2,1.2,2.01-1.8,0,4.21-2.21,0.803-2,0-2.21-0.803-2,0-2.01-0.203-2.01,1.21,2.01,0.401,2.01,0,2,1.81-2,0.198-2.01-0.805-2.01-0.599-2.2,0.599-2,0.608-2.01,0.602-2.2-0.404-0.803-2.01,1.4-2.01-1-2.21-1.6,2.01-1.4,2.21-2.21,1.4-2,1.2-2.01-0.401-2.2,1-2.01,0.794"/>
</g>

<g id="java" onclick="setImages('java')">
<g stroke="#00809e">
<path d="m155,147-1.2-0.401-1.2-0.404-2-0.399-2.21-0.602-2.2-0.803-2.01-0.602-2,0-2.01-0.404-2.2,0.404-2.01-1.81-2.21-0.401-2-0.201-2.01,0.201-2.2,0.602-2.01-0.404-2-0.599-0.401-2.01-2.01,1.61-1.8,0.401-2.21,0.599-2-0.399-2.01,1.2-2,2.01-2.01-0.198-2.2-0.201-2.21-0.203-2.01-0.399-2-0.404-2.2-0.803-2.01,0-1.61-0.399-1.6-1.2-2.01-0.201-2.2-2.21-2.01-1.01-2-1-2.01-0.404-2.01-0.201-2.2,0-2.21-0.602-2-0.399-2.2,0-2.01-0.401-2.21,0-2-0.201-2.01-0.201-2-0.203-2.21,0-2.2-1.2-2-0.203-0.602-2.21,0.399-2,1.81-2.21,2-1.4,0-2.21-2-0.803-2.2,0.803-2.01-0.201-2-1.4-2.01-0.8-2.01-1.41-2.2-0.8-2-0.206-2.21,0.602-2.01,0.404-2.2-0.602-2,0.399-2.21,0.602-2.01-0.198-3.86,1.06-0.348-2.46-2,0.605-0.602-2.01,2.21-1,2-1.21,1,2.01,2,1.2,0.803-2.01,2.01-1.81,0.8-2.21,2.01-1.8,2-0.602,1.4-2.21,0-2.01,0.201-2.21,0.401-2.01,0.602-2.01,1.61-2.21,1.6-2.01,1.4-2,2,1,0.401,2.01,2.01,0.399,2-2.01,2.01,1.2,2.21,0.805,2,0.8,2.01-0.8,2.2,0,2,1.2,1,1.2,2.01,0.201,2.2-0.602,2.01-0.198,0.401-0.407,0-2.01,0.401-2,1.6,0.399,2.01,1.2,2.2-0.201,2.01-0.401,2.01,1.21,1.6,2.21,1.4,2,2,0.602,2.21,1.81,2,0.201,2.01-1,2.2,0.201,0.401,0.401,2.01,1,2.2,1.2,2.01,0.803,2.2-0.201,1.2-2.21,0.803,0.201,2,1,1.61,2.21,2,2,2.01,1.4,0.401,2.21,0.201,2.01,0.602,2.21,2.2,1.01,2.01,1.2,2-0.399,2.21,0.399,0.803,0.803,2.2-1.4,2.21,0.803,2,0.803,2.01,0.404,2.2,0.401,2.21-0.401,2-0.803,2.2,0,2.01,0.399,2.01,0.404,2,0.602,2.01,0.605,2.2,0.399,2.01,0.201,1.2-0.401,2-0.404,2.01-0.803,2.2,1.61,2.21,1.2,2-0.399,2.01-1,1.8-2.01,1-2,0-0.602,0.803-0.803,0.599-2.01,0.401-2.21,0.401-2.01,2.21-1.6,2.01-0.401,2-0.602,2.2,0.803,2.01,0.8,0.602,2.21,0.602,2.01,2,2,1,0.401,2.2,0,2.01,0.201,2-0.803,2.21-1,2.01,0.399,2,2.01,1,0.805,2,0.8,2.21,0.602,2.01-0.8,2,0.8,1.61,2.21,2,0.407,2.21-0.206,2-0.399,2.01-0.404,2.2,0,2.01,1.21,2.21-0.605-0.605,2.01,1,2.21-0.201,1.2,1.81,2-0.401,2.01,2-0.803,2.01,1,0.401,2.01-0.201,2.21-1.4,2.01,0,2,2.21,1.4,2,0.803,2.01,0.803,2.21,0.602,2,1.61,2,0.203,2.21,1.4,2.2-1.01,2.01-0.602,2-0.803,2.01,0.203,2.2,0.201,2.21,0.198,2-1,2.21,0,2.2-1.61,2.01,0,2.21,2,2,0.203,2.01,0.803,2.2,0.399,2.01,1.21,0.599,2.01-0.8,2.01,0,2.21-0.401,2.01-0.201,0.201-0.401,2.01-0.401,2.21-0.602,2.01-0.201,2,1.61,2.21,0,2.01,1.2,2.01,2.21,0.803,2.01,1.4-1.2,2.01-1.2,0-1.81-0.803-2.61,0,0.401-1.01-0.602-2.01-2.2-0.803-2.01,1.01-2-0.602-2.21,0.198-2.01-0.198-2.2-1.4-2-0.803-2.01-0.404-2.01-0.803-2.2-1.6-2.2-0.404-2.01-1.4-2.01-0.805-2-1.4-2.21-0.602-2,0.198-2.21,0.404-2,0.599-1.81,2.01-2.2-0.399-2.01,0.399-2,1-2.01,0-2-0.803-2.21-0.201-2.01-0.602-2-1-2.2,0.399-2.01-1-2,0-2.21-0.401-2.01,0.201-2-1.01-2.21-0.399-2,1.2-0.201,2-2.01-1.2-2.2-0.602-2.01,0.201-2.2-1-2-0.602-2.21,0.201-2.01,0.599-2.2-2-2,1.2-2.01-0.803-0.602-0.201-2.21-0.404-1.2-0.198-2.01,0-2.2-1-2.01-0.602-2-0.602-2.21-1-2.01-1.2-2-0.803-2.01-1.21-2-0.8-2.2-1.2"/>
<path d="m234,119-2,0.198-2.01,2.01-2.01,1.41,0,2.21,2.01,1.6,2.21,0.203,2,0.602,2.2,0.404,2.01,0.602,0.201-2.21,2.01,2.01,2-0.201,2.2,0.201,2.01,0.201,2.01-0.201,2,0,1.2-2.01,2-1,2.21,0,2.01,0.201,1.6-2.01,2.21-0.404,2-0.805,2.21-0.8-2.21-1.8-2.2-1.21-2.01,0-2.2,0.602-2.01-0.201-2.2,0.201-2.21,0.198-2.01,0-2-0.198-4.21,0-2,0.198-2.21-0.198-2.01-0.201-2.2,0.201-0.602,0.198"/>
</g>
<g stroke-linejoin="miter" stroke-dashoffset="0" stroke="#a08070" stroke-miterlimit="4" stroke-dasharray="none" stroke-width="2" fill="none">
<path d="m62.1,95.5s-2.61,8.44,1,9.84c3.62,1.41,4.02,2.81,5.83,1s2.41-8.88,2.41-8.88"/>
<path d="m64.5,106s-2.61,1.21-5.22,0.603c-2.61-0.603-5.42-1-4.62,3.01,0.804,4.02,1.81,5.02,1.21,7.43-0.603,2.41-1.13,4.4-1.13,4.4"/>
<path d="m121,117s-0.091,6.38-1.1,7.98c-1,1.61-12.4,4.03-3.62,9.64,2.21,1.41,1.81,5.48,1.81,5.48"/>
<path d="m155,146c3.2-4.43,5.79-7.09,8.25-6.59,2.46,0.492,1.23,1.97,5.17,4.43s5.42,0.246,6.15,3.69c0.739,3.45,0.492,7.18,0.492,7.18"/>
<path d="m180,155s-0.894-1.42,0.583-2.16c1.48-0.739,5.91-3.2,5.91-3.2s3.2-2.71,1.48-5.17-0.739,1.72-1.23-4.19c-0.492-5.91-0.492-7.39-0.492-7.39s0.246-3.2,3.69-2.22c3.45,0.985,2.95,1.23,4.68-0.739,1.72-1.97,2.46-1.48,2.71-6.4,0.246-4.92,3.08-8.32,3.08-8.32"/>
</g>
<text transform="matrix(0.96947274,0.24519912,-0.24519912,0.96947274,0,0)" y="93" x="170" fill="black" stroke="none">JAVA</text>
</g>

<g id="lombok" onclick="setImages('lombok')">
<path d="m327,156-2.21,1-2,2.01-2.01,1.61-1.81,2.21,1.2,4.41-0.401,2.01-2.2,1.2-2.01,0.608-2.2-0.404,0.401,2,2,1.01,2.21,1.4,2-1.2,2.21,0.401,2,0.803,2.01,0,2.2,1.4,0.803-2.01,2.01,0.602,2-0.201-1.6-2.01,1.4-2.01,1-2.21,1.2-2.01,0.803-2.21,0.8-2.01,1-2-1.61-2.01-2-0.803-2.01-0.602-2.2-1-2.21-0.404-0.8,0.407" stroke="#00809e"/>
<text transform="matrix(0.98938175,-0.1453401,0.1453401,0.98938175,0,0)" y="246" x="232" stroke="black" stroke-width="1">LOMBOK</text>
</g>

<g id="flores" stroke="#00809e" onclick="setImages('flores')">
<path d="m427,172,0.602,0,2.21-0.605,2.01-0.401,2,1.4,2.2,0,2.01-0.602,2.01,0,2.2-0.404,2,1.21,2.21,0.803,2.01-1.21,2.01,0.805,1.6,2.01,2.21,0.602,2.01-0.201,2.21-1,2.01-0.198,2.2,0.803,2.01-1.21,1.61-2.01,2.2,0.399,2.01,0.203,2,1.2,2.21,0.404,2.01-0.404,2-1.2,2.01-0.401,2.01-0.605,2.21-1.6,2.01,0,2.2,0.401,2.01,0,2-0.203,2.2-0.602,1.41-0.998,2-0.803,2.01-0.605,2.01-0.401,2.2-0.803-0.602-2.01-0.203-2.01,2.21-0.803,0.605-2.01,2.2-0.198,0.201-2.01-1-2.01-1.4-2.21-2.21-0.8-1.8,2.01,0,2.21,2.01-1,2.01,0.803-2.01,2.01-2.2,1.61-2.01,0.602-2.01,0.201-2,2.01-1,2-1.4,2.01-2.01,0.195-2.2,0.605-2.21-0.198-2.01-1.81-2.01-1.2-1.6-0.203,0.198-2.21-2.2,0.602-2.01,1.21-2.01,0.195-2.2-0.195-2.01-0.201-2,1.2-2.01,1.81-2.2-0.407-2-0.998-1.61-2.01-2.21-0.8-2-0.407-2.01-0.599-2.21-1.81-2,0-2.21-0.401-2.01,0.201-2-1.21-2.2-0.605-2.01-0.399-2,0.198-2.01,0.404-2-0.203-2.21,0.605-2,2.01-2.01,0.605-2.2,1.61-1.6,0.195-2.01-0.602,0.198,2.01-2,2.21,0,4.02,1.4,2.01,2,2.01,2-1.6"/>
<path d="m412,161,2.2,1.4,1.4,2.21-2.21,0.407-0.8,2.01-0.602,2-2.01,0.602,0.803-2.21-0.803-2,1.01-2.21,0.602-2,0.401-0.206m4.81,4.62,2.21,1.8,2-1.2-2,2.21,0.198,2-2.01,0,0.404-2-0.803-2.01,0-0.8"/>
<text transform="matrix(0.99709349,0.0761877,-0.0761877,0.99709349,0,0)" y="118" x="384" stroke="black" stroke-width="1">FLORES</text>
</g>

<g id="bali" stroke="#00809e" onclick="setImages('bali')">
<path d="m276,152,1.61,1.2,2.01-0.201,2.2,0.404,2.01,0.803,2,0.599,2.2-0.198,2.21,0,2.01-1.4,2-1.8,2.21,0,2,0.803,2.21,0.8,2,0.803,2.21,1.21,1.8,2,2.01,1.81,0.803,2.01-2.01,2-2,0.803-2.01,1.4-2.21,0.602-2,1.01-1.61,2.21-0.803,2-1.2,2.01-0.602,0.198-2.01-0.198,0.401-1.21,1.61-2.01-1.2-2.01-2-2.21-2.01-1.81-2.2-1.4-2.01-0.805-2.2-0.803-2.01-0.198-2.2-0.198-1.81-2.21-1.4-2.01-0.599-2.01,0.599-2.01"/>
<path d="m307,172-2-1.01-0.602-2,2-0.805,1.4,2.21-0.803,1.61"/>
<text transform="matrix(0.96299159,0.26953144,-0.26953144,0.96299159,0,0)" y="61" x="297" stroke="black" stroke-width="1">BALI</text>
</g>

</svg>