<svg width="140" height="140" viewBox="0 0 140 140" xmlns="http://www.w3.org/2000/svg" xmlns:xlink="http://www.w3.org/1999/xlink">
	<!--animate id="D48d1504" xlink:href="#V48d1504"  dur="indefinite"/-->
	<defs>
		<rect id="B48d1504" width="140" height="140"/> 
	</defs>
	<use xlink:href="#B48d1504"  id="U48d1504" style="fill:#FFFFFF;"/>
	<g id="G492c134" transform="matrix(1 0 0 1 70 70)">
		<svg id="V492c134" style="overflow:visible;" xml:space="preserve" xmlns="http://www.w3.org/2000/svg" xmlns:xlink="http://www.w3.org/1999/xlink">
			<animate id="D492c134" xlink:href="#V492c134"  dur="indefinite" repeatDur="indefinite"/>
			<g id="S492c194">
				<g id="P4931384" transform="matrix(1 0 0 1 2 0)" style="display:none;opacity:0.12;">
					<defs>
						<image style="display:inline;" width="140" height="140" id="B49313e4" xlink:href="B49313e4.png"  transform="matrix(0.9071 0 0 0.9071 -63.5 -63.5)"/>
					</defs>
					<use xlink:href="#B49313e4"  id="U4932f34" style="display:inline;fill:none;"/>
					<set xlink:href="#V492c134" attributeName="pause" begin="0s" to="dependents"/>
					<animate xlink:href="#P4931384" attributeName="display" attributeType="CSS"  begin="D492c134.begin+1.6667s;D492c134.repeat+1.6667s;P492a214.mouseover+1.6667s" dur="1.3333s" fill="freeze" calcMode="discrete" values="inline;inline;inline"  keyTimes="0;
						0.9999;0.9999" />
					<animate xlink:href="#P4931384" attributeName="opacity" attributeType="CSS"  begin="D492c134.begin+1.6667s;D492c134.repeat+1.6667s" dur="1.3333s" fill="freeze" values="0.12;1;0;0"  keyTimes="0;0.375;0.625;1" />
				</g>
				<g id="P492eff4" transform="matrix(1 0 0 1 0 -2)">
					<defs>
						<image width="140" height="140" id="B492f054" xlink:href="B492f054.png" transform="matrix(1 0 0 1 -70 -70)"/>
					</defs>
					<use xlink:href="#B492f054"  id="U4931144" style="fill:none;"/>
					<animate xlink:href="#P492eff4" attributeName="opacity" attributeType="CSS"  begin="D492c134.begin;D492c134.repeat" dur="3s" fill="freeze" values="1;1;1;0;0.11;0.2;1"  keyTimes="0;0.0556;0.1111;0.3056;0.8333;0.9167;1" />
				</g>
				<g id="P492d884" transform="matrix(1 0 0 1 9 5)" style="display:none;opacity:0.06;">
					<defs>
						<image style="display:inline;" width="140" height="140" id="B492d8e4" xlink:href="B492d8e4.png" transform="matrix(1 0 0 1 -70 -70)"/>
					</defs>
					<use xlink:href="#B492d8e4"  id="U492edb4" style="display:inline;fill:none;"/>
					<animate xlink:href="#P492d884" attributeName="display" attributeType="CSS"  begin="D492c134.begin+0.8333s;D492c134.repeat+0.8333s" dur="2.1667s" fill="freeze" calcMode="discrete" values="inline;inline;inline"  keyTimes="0;0.9999;0.9999" />
					<animate xlink:href="#P492d884" attributeName="opacity" attributeType="CSS"  begin="D492c134.begin+0.8333s;D492c134.repeat+0.8333s" dur="2.1667s" fill="freeze" values="0.06;0.99;0;0"  keyTimes="0;0.2308;0.3846;1" />
				</g>
				<g id="P492c424">
					<defs>
						<path id="B492c484" d="M0,75q-31.07,0-53.04-21.96Q-75,31.07-75,0q0-31.07,21.96-53.04Q-31.07-75,0-75q31.07,0,53.04,21.96Q75-31.07,75,0q0,31.07-21.96,53.04Q31.07,75,0,75z M5.44-67.23q-27.85,0-47.54,19.69Q-61.79-27.85-61.79,0q0,27.85,19.69,47.54
							q19.69,19.69,47.54,19.69q27.85,0,47.54-19.69Q72.67,27.85,72.67,0q0-27.85-19.69-47.54Q33.29-67.23,5.44-67.23z"/>
					</defs>
					<use xlink:href="#B492c484"  id="U492c694" style="fill:#009999;"/>
					<animate xlink:href="#U492c694" attributeName="fill" attributeType="CSS"  begin="D492c134.begin;D492c134.repeat" dur="1.9167s" fill="freeze" values="#009999;#FFFFFF;#999900;#9F002E;#0066CC;#CC9900;#FF9900"  keyTimes="0;0.0435;0.087;0.5217;0.913;
						0.9565;1" />
				</g>
			</g>
		</svg>
	</g>
	<g id="P492bb24" transform="matrix(1 0 0 1 70 69)">
		<svg id="V492bb24" style="overflow:visible;" xml:space="preserve" xmlns="http://www.w3.org/2000/svg" xmlns:xlink="http://www.w3.org/1999/xlink">
			<defs>
				<path id="B492bb84" d="M-73,73q0-146,0-146q146,0,146,0q0,146,0,146q-146,0-146,0z M4.74-62.78q-26.16,0-44.65,18.49Q-58.4-25.8-58.4,0.37q0,26.16,18.49,44.65q18.49,18.49,44.65,18.49q26.16,0,44.65-18.49Q67.89,26.53,67.89,0.37q0-26.16-18.49-44.65
					Q30.91-62.78,4.74-62.78z"/>
			</defs>
			<defs>
				<filter id="F492bef4" filterUnits="objectBoundingBox" x="-4.0816%" y="-4.0816%" width="109.1837%" height="109.1837%">
					<feOffset  id="F492bef4_3000" in="SourceGraphic" dx="0" dy="1" result="a492bef4"/>
					<feGaussianBlur  id="F492bef4_4000" in="a492bef4" stdDeviation="3" result="a492bef4"/>
				</filter>
			</defs>
			<use xlink:href="#B492bb84"  id="U492bef4" style="fill-opacity:0.75;filter:url(#F492bef4);"/>
			<use xlink:href="#B492bb84"  id="U492bd94" style="fill:#FFFFFF;"/>
		</svg>
	</g>
	<g id="P492a6c4" transform="matrix(1 0 0 1 70 70)">
		<defs>
			<path id="B492a724" d="M0,68q-28.17,0-48.09-19.91Q-68,28.17-68,0q0-28.17,19.91-48.09Q-28.17-68,0-68q28.17,0,48.09,19.91Q68-28.17,68,0q0,28.17-19.91,48.09Q28.17,68,0,68z M4.93-60.95q-25.25,0-43.1,17.85Q-56.02-25.25-56.02,0q0,25.25,17.85,43.1
				q17.85,17.85,43.1,17.85q25.25,0,43.1-17.85Q65.89,25.25,65.89,0q0-25.25-17.85-43.1Q30.19-60.95,4.93-60.95z"/>
		</defs>
		<use xlink:href="#B492a724"  id="U492b8e4" style="fill:#990066;"/>
		<animate xlink:href="#U492b8e4" attributeName="fill" attributeType="CSS"  dur="indefinite" fill="freeze" values="#990066" />
	</g>
	<!--a xlink:href="javascript:OpenWindow('/svg/demos/usair/index.html',800,630,'scrollbars=yes,menubar=no,toolbar=no,location=no,status=no,resizable=yes');"-->
	<g id="P492a214" transform="matrix(1 0 0 1 70 70)" style="opacity:0;">
		<svg id="V492a214" style="overflow:visible;" xml:space="preserve" xmlns="http://www.w3.org/2000/svg" xmlns:xlink="http://www.w3.org/1999/xlink">
			<defs>
				<ellipse id="B492a274" pointer-events="visible" transform="matrix(1 0 0 1 -68 -68)" cx="68.5" cy="68.5" rx="68.5" ry="68.5"/> 
			</defs>
			<use xlink:href="#B492a274"  id="U492a484" style="fill:#FFFFBF;"/>
		</svg>
	</g>
	<!--/a-->
	<g id="G48d19a4" transform="matrix(1 0 0 1 91 84)">
		<g id="S47ff1b4">
			<g id="P4928db4" transform="matrix(1 0 0 1 -108 -5)">
				<defs>
					<rect id="B4928e14" transform="matrix(1 0 0 1 -15 -112)" width="31" height="225"/> 
				</defs>
				<use xlink:href="#B4928e14"  id="U4929024" style="fill:#FFFFFF;"/>
			</g>
			<g id="P44d4a24" transform="matrix(1 0 0 1 0 -117)">
				<defs>
					<rect id="B44d4a84" transform="matrix(1 0 0 1 -138 -29)" width="276" height="59"/> 
				</defs>
				<use xlink:href="#B44d4a84"  id="U4928b74" style="fill:#FFFFFF;"/>
			</g>
			<g id="P44d4574" transform="matrix(1 0 0 1 94 0)">
				<defs>
					<rect id="B44d45d4" transform="matrix(1 0 0 1 -21 -110)" width="43" height="220"/> 
				</defs>
				<use xlink:href="#B44d45d4"  id="U44d47e4" style="fill:#FFFFFF;"/>
			</g>
			<g id="P44d40c4" transform="matrix(1 0 0 1 9 113)">
				<defs>
					<rect id="B44d4124" transform="matrix(1 0 0 1 -121 -32)" width="242" height="65"/> 
				</defs>
				<use xlink:href="#B44d4124"  id="U44d4334" style="fill:#FFFFFF;"/>
			</g>
		</g>
	</g>
	<set xlink:href="#V492c134" attributeName="pause" begin="P492a214.mouseover" to="none"/>
</svg>
