<!DOCTYPE svg PUBLIC "-//W3C//DTD SVG 20001102//EN" "http://www.w3.org/TR/2000/CR-SVG-20001102/DTD/svg-20001102.dtd" [
  <!ENTITY gee1 "m437,542c-6.86-11.1,1.47-22.9,0.191-31.5-5.75-6.04-34.7-3.09-12.6-7.76,16.9,6.3,27.6-4.48,28.6-20.8,8.4-6.13,35.2-14.7,15.9-0.986-5.26,5.47-4.46,19.2-3.8,23.1,17.4-0.966,8.34,8.19-3.54,9.05-11.7-1.66-15.6,8.79-18.3,18.3-1.37,1.89-4.22,16.9-6.46,10.6zm-174-28c24.6-10.9-13.6-15.6-20.8-18.2,13.7-5.31,45.2,9.65,43.9-15.6-3.62-15.1,7.74-29.4,12.6-40.7-1.02,10.9,9.22,10.6,4.7,25.7-2.02,9.79-5.94,31.2,5.78,34.6,11.1-1.7,22.1,2.97,6.15,5.23-17.8,3.48-35.1,4.57-52.4,9.05v0.00002zm141-11.7c20.7-13.7-16-13-17.1-16.2,11.6-4.38,44.2,6.69,29-15.4,2.5-7.13,20.6-37.1,17.3-15.4,6.11-0.241-3.75,13.2,3.04,18.2-10.6,14-0.492,13.9,8.94,18.7-17.4-2.18-30,12.2-46.2,15.1-1.73,0.26,4.19-4.03,4.93-5.08zm-185-1.94c-5.95-14.4-10.9-31.2-6.68-43.9-4.22-4.73-32.4-1.12-25-5.73,17-0.0504,34.6,1.85,39.8-18.6,6.79-4.96,34.3-19,18.8-2.66-16.3,14.5-1.29,22.5,13.4,21.3-3.67,8.13-24.5,1.52-28.9,11.1-5.64,11.6-6.65,23.5-7.84,35-3.04-3.95-1.57,5.12-3.44,3.53zm276,0.267c-5.12-7.42-35.8-1.93-16-8.02,18,5.15,11.6-13.1,27.5-18.7,8.57-8.06,18.6-7.43,6.35,3.55-1.35,8.52,0.642,16.7,11.7,10.8,7.58,4.95-16.2,10.6-22.6,12.9l-3.6-0.0134-3.39-0.522v-0.00004zm-144-13c-8.77-5.41-33.5-6.16-34.8-8.96,8.94-6.92,33.2,6.67,34.4-7.53-15.5-13,12-28.8,26.1-30.6,15.3-7.48,18.2-1.78,7.25,6.17-13.4,6.89-4.36,34.6,12,24.2,16.4,1.36-13.5,11.6-19.3,13-8.17,2.78-16.9,5.95-25.6,3.77zm-229-64c12.2-5.16,29.8-22.1,5.15-20.4-8.17,0.415-35.1,3.17-13-3.18,17.8,2.39,44.1-5.66,37.3-28.5-4.56-18.2,5.2-35.1,5.84-53,4.62,2.39,5.36,14.1,8,12.8,7.26,2.88,1.85,26.3,8.82,36.4,2.48,12.2-7.37,31,13,26.7,15.7,0.871,13.3,10.2-2.86,11-18.5-1.65-32.1,10.3-49,14.6-4.58-0.165-8.92,5.06-13.3,3.57zm103-6.07c-3.35-15.8-15.1-32.9-4.65-48.6,11.4-20.8-30.3-8.52-31.9-13.9,15-7.76,42.8,3.33,45.9-21.2-0.193-13.5,25.4-19.5,30.2-19.2,15-0.915-11.9,14.7,7.98,10.3,12.9,1.51,24.1-2.78,15.6-16.3,1.91-7.54,31.1-31,23.3-13.7-16.9,9.55,6.82,19.3-4.55,31.4,8.79-0.989,30.7,4.46,10.7,7.91-18.4,7.17-36.7-0.473-53.7-5.81-14.3-1.07-22.2,29.1-0.783,20.2,17-3.55,8.93,9.2-4.57,7.71-17.2-0.802-23.7,16.7-23.8,29-2.32,8.38-6.89,19.8-7,26.1-2.95-3.99-0.866,5.47-2.75,5.86zm146-105c-2.73-18.4-9.84-38.1-32.6-32.5-11.5,2.08-12.8-3.76-1.36-4.94,14.5,2.68,38.3-4.78,32.4-23.6,2.12-9.54,15.1-17,19.9-25.1-2.17,13.1-7.01,26.3-2.54,39.8-12.6,12,27.7,9.04,5.98,14.2-13.1-0.384-17,9.81-18.4,21.2-0.0203,1.62-2.21,25.1-3.36,10.9zm68.9-19.9c-6.31-11.3-7.09,7.4-13.8-5.39-4.86-16.7-20.6-22.7-32.6-19.9,18.9-4.22,38.1-12.1,58.5-10.6,26.6,0.254-23.3,7.7-12.1,18.3,2.84,3.89,11.2,30.4,0,17.5z">
  <!ENTITY gee2 "m443,515c-6.86-11.1-4.99,4.4-6.27-4.14-5.75-6.04-34.7-3.09-12.6-7.76,16.9,6.3,27.1-0.505,28.1-16.8,8.4-6.13,26.8-0.264,7.43,13.4-5.26,5.47,4.48,0.814,5.14,4.69,17.4-0.966,8.34,8.19-3.54,9.05-11.7-1.66-11.2-2.14-13.8,7.39-1.37,1.89-2.24,0.519-4.47-5.83zm-175-3.25c24.6-10.9-19.1-13.1-26.3-15.8,13.7-5.31,43.2,16.1,41.9-9.16-3.62-15.1,5.76,4.38,10.6-6.92-1.02,10.9,11.2-7.31,6.69,7.83-2.02,9.79-3.96,8.86,7.77,12.2,11.1-1.7,22.1,2.97,6.15,5.23-17.8,3.48-24.2,2.08-41.4,6.57zm139-12.7c20.7-13.7-19.5-9.57-20.5-12.7,11.6-4.38,44.2,12.2,29-9.97,2.5-7.13,14.6-21.7,11.4,0.0206,6.11-0.241-0.277-4.72,6.52,0.347-10.6,14,1.99,11,11.4,15.7-17.4-2.18-11.1-0.216-27.3,2.7-1.73,0.26-11.2,4.91-10.5,3.86zm-190-33c-5.95-14.4-7.89,3.07-3.7-9.66-4.22-4.73-32.4-1.12-25-5.73,17-0.0504,33.6,8.8,38.8-11.6,6.79-4.96,25.9-8.09,10.3,8.27-16.3,14.5,8.15,4.64,22.8,3.39-3.67,8.13-24.5,1.52-28.9,11.1-5.64,11.6-5.16-2.87-6.35,8.69-3.04-3.95-6.04-2.83-7.91-4.42zm279,34.5c-5.12-7.42-35.8-1.93-16-8.02,18,5.15,5.61,2.29,21.6-3.3,8.57-8.06,21.5-13.4,9.33-2.41-1.35,8.52,3.62,7.27,14.7,1.32,7.58,4.95-16.2,10.6-22.6,12.9l-3.6-0.0134-3.39-0.522v-0.00004zm-145-13c-8.77-5.41-33.5-6.16-34.8-8.96,8.94-6.92,30.2,10.1,31.4-4.05-15.5-13,4.09-10.5,18.2-12.3,15.3-7.48,23.2-3.27,12.2,4.68-13.4,6.89,1.6,14.2,17.9,3.83,16.4,1.36-13.5,11.6-19.3,13-8.17,2.78-16.9,5.95-25.6,3.77zm-212-81.8c12.2-5.16,12.5-4.76-12.2-2.98-8.17,0.415-35.1,3.17-13-3.18,17.8,2.39,45.1,5.77,38.3-17-4.56-18.2,1.23,8.11,1.87-9.76,4.62,2.39,11.8,3.69,14.5,2.37,7.26,2.88-1.63-1.49,5.34,8.55,2.48,12.2-7.37,14.6,13,10.3,15.7,0.871,13.3,10.2-2.86,11-18.5-1.65-9.2-1.1-26.2,3.14-4.58-0.165-14.4-0.898-18.7-2.39zm89-31.9c-3.35-15.8-18.6,10.4-8.13-5.42,11.4-20.8-30.3-8.52-31.9-13.9,15-7.76,42.3,10.8,45.4-13.7-0.193-13.5,8-12.6,12.8-12.2,15-0.915,6,0.303,25.9-4.1,12.9,1.51,25.1,7.65,16.6-5.82,1.91-7.54,25.1-14.6,17.4,2.74-16.9,9.55,11.8-7.57,0.417,4.56,8.79-0.989,30.7,4.46,10.7,7.91-18.4,7.17-36.7-0.473-53.7-5.81-14.3-1.07-22.2,29.1-0.783,20.2,17-3.55,8.93,9.2-4.57,7.71-17.2-0.802-19.7-1.19-19.8,11.2-2.32,8.38-4.4-2.08-4.52,4.27-2.95-3.99-3.85,1.99-5.73,2.38zm142-85.9c-2.73-18.4-9.84-13.7-32.6-8.19-11.5,2.08-12.8-3.76-1.36-4.94,14.5,2.68,37.8,2.67,31.9-16.2,2.12-9.54,6.61,3.84,11.5-4.26-2.17,13.1,0.932,1.5,5.4,15-12.6,12,28.7,5.56,6.97,10.7-13.1-0.384-16.5-3.1-17.9,8.32-0.0203,1.62-2.71,13.7-3.86-0.492zm57.5-11.9c-6.31-11.3,0.361,11.9-6.3-0.917-4.86-16.7-16.7-10.8-28.6-8,18.9-4.22,38.1-12.1,58.5-10.6,26.6,0.254-25.8,1.25-14.6,11.9,2.84,3.89,2.22,20.4-8.94,7.59z">
]>
<svg xmlns="http://www.w3.org/2000/svg" xmlns:xlink="http://www.w3.org/1999/xlink" width="600" height="450" stroke="none" stroke-width="0" xmlns:html="http://www.w3.org/1999/xhtml">
  <title>Sunset Over City SVG Demo ver. 1.0 by Marek Raida</title>
  <desc>based on modified http://www.openclipart.org/detail/76 and http://www.clker.com/clipart-23982.html free cliparts, music is from http://www.freesound.org/samplesViewSingle.php?id=27256</desc>
  <script type="text/ecmascript" xlink:href="../fakesmile/smil.user.js"/>
  <html:audio autoplay="true" loop="true">
      <html:source src="27256__kerri__rainbow.ogg" type="audio/ogg" />
      <html:source src="27256__kerri__rainbow.mp3" type="audio/mpeg" />
  </html:audio>

  <defs>
  	<linearGradient id="linearGradient4135">
      	<stop stop-color="white" stop-opacity="1" offset="0"/>
      	<stop stop-color="#e3e936" stop-opacity="0" offset="1"/>
  	</linearGradient>
  	<radialGradient cx="404" cy="230" r="154" fx="404" fy="230" id="radialGradient4141" xlink:href="#linearGradient4135" gradientUnits="userSpaceOnUse"/>
  	<linearGradient id="lowerPart" x1="0" y1="0" x2="0" y2="1" gradientUnits="objectBoundingBox">
  		<stop stop-color="#c48a20" offset="0" stop-opacity="0.8"/>
  		<stop stop-color="#5b4816" offset="1" stop-opacity="1"/>
  	</linearGradient>
  </defs>

  <rect width="600" height="255" x="0" y="0" fill="#e3e936" id="sky"/>
  <rect width="600" height="255" x="0" y="255" fill="#c48a20" id="water"/>

  <circle cx="410" cy="230" r="250" fill="none" stroke="#010" stroke-width="480" stroke-dasharray="20,40" stroke-opacity="0.2">
    <animateTransform attributeName="transform" type="rotate" dur="60s" repeatCount="indefinite" values="0 410 230;360 410 230"/>
  </circle>

  <g transform="translate(-73.72015,-292.3622)">
    <path id="sun" fill="url(#radialGradient4141)" d="M 558,230 C 558,315.05185 489.05185,384 404,384 C 318.94815,384 250,315.05185 250,230 C 250,144.94815 318.94815,76 404,76 C 489.05185,76 558,144.94815 558,230 L 558,230 z " transform="matrix(1.571429,0,0,1.571429,-148.137,150.9336)"/>
    <g id="buildings">
      <g transform="translate(300 320)">
        <path id="geese" transform="scale(0.15)" d="&gee1;">
          <animate id="geese1" begin="0s;geese2.end" dur="0.2s" attributeName="d" from="&gee1;" to="&gee2;"/>
          <animate id="geese2" begin="geese1.end" dur="0.2s" attributeName="d" from="&gee2;" to="&gee1;"/>
        </path>
        <animateTransform attributeName="transform" type="translate" begin="0s" dur="20s" repeatCount="indefinite" values="690 280;-50 360"/>
      </g>
      <g>
        <use transform="scale(-0.8 0.6)" xlink:href="#geese"/>
        <animateTransform attributeName="transform" type="translate" begin="2s" dur="28s" repeatCount="indefinite" values="-70 350;750 420"/>
      </g>

      <path d="M 176.03,453.31 C 176.06,454.49 175.6,455.06 174.75,455.63 C 174.6,457.35 173.4,454.45 172.38,455.78 C 170.65,457.36 172.68,460.34 170.81,461.63 C 170.93,462.8 170.94,462.98 170,462 C 168.16,461.12 168.62,463.93 169.22,464.66 C 168.54,465.31 168.28,465.63 167.53,464.72 C 165.17,464.51 167.17,468.21 166.69,469.44 C 165.71,468.92 162.88,468.67 164.06,470.5 C 164.45,471.7 165.28,474.97 163.38,473.22 C 162.17,472.24 158.53,473.91 160.38,475.09 C 162.3,475.29 162.83,478.89 160.72,479.03 C 160.27,479.94 160.6,481.29 159.25,481.66 C 157.93,481.87 156.13,482.3 156.88,484.13 C 156.7,485.09 158.46,486.12 158,486.63 C 155.24,487.02 152.47,485.48 149.63,485.63 C 147.15,485.6 145.07,484.81 142.97,484 C 141.37,484.2 141.9,482.62 143.22,482.81 C 144.84,481.73 142.67,480.15 141.38,480.69 C 140.19,480.9 138.17,479.87 139.47,478.63 C 140.11,477.51 138.51,475.42 140.44,475.63 C 142.19,475.37 141.61,472.9 139.81,473.63 C 138.41,473.93 137.9,473.04 137.69,471.97 C 137.12,471.23 135.72,472.25 136.5,470.69 C 137.03,469.5 136.32,468.33 135.56,467.94 C 135.48,466.06 135.01,463.38 133.06,463 C 131.76,461.79 133.72,460.65 132.81,459.28 C 132.07,457.7 131.28,454.71 129.19,454.78 C 128.3,455.8 128.13,456.03 127.44,454.78 C 126.34,453.49 125.2,455.37 125.81,456.31 C 124.48,456.2 122.72,456.01 121.66,456.44 C 121.14,455.1 119.72,454.99 118.97,456.03 C 116.62,455.92 118.39,459.73 116.97,460.78 C 116.42,462.09 116.42,463.72 116.66,465.03 C 115.12,463.2 114.13,466.36 114.31,467.62 C 114.76,469.92 112.11,470.8 112.09,472.75 C 112.19,473.38 110.82,474.05 111.56,475.06 C 111.66,476.38 111.46,478.84 109.53,477.72 C 108.08,476.79 104.79,478.44 104.84,475.94 C 103.98,474.41 103.06,472 101.22,471.63 C 100.4,472.47 101.32,474.13 99.66,474 C 98.1,474.61 97.29,476.31 96.56,477.41 C 95.25,477.55 96.16,479.33 94.47,479.38 C 93.16,480.31 91.08,480.33 91.03,478.34 C 91,477.08 89.27,476.91 88.97,476.44 C 89.75,475.72 90.75,473.88 88.84,474.16 C 88.06,474.24 85.49,474.78 87.41,474.13 C 88.52,473.27 85.67,473.29 86.88,472.19 C 88.13,470.6 85.86,470.16 85.28,469.44 C 86.1,468.39 85.2,467.17 84.22,467.59 C 83.9,465.98 81.63,468.17 81.03,466.41 C 80.1,465.63 80.07,462.16 78.41,463.81 C 77.47,464.86 77.37,467.39 76.06,467.63 C 74.2,465.99 73.37,469 73.78,470.47 C 73.62,472.46 74.89,473.88 74.06,475.72 C 73.25,499.64 73.79,523.6 73.63,547.53 C 273.96,547.53 474.29,547.53 674.63,547.53 C 674.63,525.7 674.63,503.86 674.63,482.03 C 673.53,482.19 675.15,480.36 674.56,479.44 C 674.05,476.92 675.64,473.13 672.37,472.22 C 668.51,469.9 664.75,467.29 660.84,465.13 C 646.59,466.2 632.26,466.44 618.06,468 C 613.24,469.15 608.84,472.57 603.6,471.33 C 600.09,471.36 595.81,469.25 592.69,471.34 C 591.89,472.22 592.93,473.33 591.53,473.59 C 589.76,475.22 588.58,477.82 586.19,475.08 C 583.01,473.63 580.24,470.31 576.45,471.52 C 565.42,472.16 554.35,473.46 543.31,472.78 C 537.34,472.33 531.13,470.73 525.38,470.44 C 524.16,471.84 522.56,473.7 522.25,475.28 C 517.89,479.34 513.68,484.45 510.5,489.5 C 508.36,488.9 507.03,493.3 509.88,492.88 C 511.52,493.24 510.4,496.02 510.44,497.25 C 510.23,500.26 507.61,502.81 507.66,505.72 C 508.69,506.08 509.99,506.36 510.19,507.78 C 510.88,509.55 511.12,512.03 510.19,513.66 C 508.81,512.37 506.87,514.66 508.38,515.69 C 507.33,516.56 507.9,513.73 507.06,513.22 C 506.42,511.76 505.26,512.66 504.69,513.53 C 503.73,514.02 505.45,511.86 503.19,512.4 C 501.82,512.22 499.51,512.3 498.66,511.53 C 499.63,511.15 501.42,512.57 501.47,510.78 C 502.89,509.49 500.63,507.14 499.94,509.13 C 500.22,510.32 497.71,509.56 498.53,508.31 C 498.69,505.21 498.49,501.1 498.88,498.56 C 500.07,499.31 503.83,498.63 502.22,496.78 C 501.11,496.13 499.52,496.86 498.75,497.75 C 497.74,494.17 500.35,495.21 502.72,495.16 C 504.57,495.28 503.93,493.03 502.38,493.31 C 501.03,492.87 498.16,494.05 498.78,491.66 C 497.93,488.82 502.68,491.9 502.31,489.28 C 499.55,487.1 495.38,488.26 492.16,488.59 C 493.54,489.57 497.67,489.78 496.97,492.22 C 496.23,493.04 493.24,492.5 494.34,494.06 C 496.94,494.24 496.43,497.18 496.47,499.06 C 495.77,501.43 498.11,505.96 494.84,506.5 C 493.72,506.45 491.94,509.51 492.34,507.13 C 492.33,505.47 493.91,504.38 493.19,502.47 C 491.57,500.55 493.02,497.33 491.59,495.19 C 489.69,495.56 490.76,498.73 490.29,500.19 C 490.04,503.7 490.55,507.63 488.88,510.75 C 489.52,511.49 488.03,513.53 487.69,511.69 C 486.38,502.93 487.93,493.69 486.5,484.91 C 485.08,483.78 485.09,486.23 484.44,486.66 C 483.11,486.74 483.53,487.74 484.38,488.19 C 485.16,495.49 484.92,502.94 484.59,510.28 C 484.55,511.55 482.26,510.67 482.38,512.28 C 481.85,513.43 482.95,515.49 481.28,515.53 C 480.21,516.06 480.28,518.08 478.99,516.41 C 477.84,515.67 476.24,514.81 476.59,513.34 C 475.31,513.3 475.88,512.05 475.66,510.84 C 475.66,508.87 474.16,503.66 473.98,508.19 C 473.68,509.69 474.38,512.31 473.53,513.38 C 472.04,512.65 470.12,513.51 469.16,514 C 468.86,512.74 467.7,513.31 467.19,514 C 465.06,514.86 463.55,512.07 464.94,510.69 C 466.37,511.03 467.66,509.51 465.81,509.16 C 464.26,507.36 465.33,504.1 464.97,501.84 C 464.85,493.31 465.86,484.66 465,476.19 C 464.43,474.67 462.68,475.82 463.03,477.19 C 462.46,486.23 463.04,495.51 461.53,504.41 C 460.27,504.43 460.43,506.07 459.09,505.94 C 458.22,506.47 458.54,508.3 457.69,506.75 C 456.19,505.59 454.84,508.34 454.59,509.56 C 455.5,511.79 459.16,509.8 460.53,511.03 C 461.16,514.39 458.46,513.53 456.16,513.18 C 454.14,513.36 451.96,512.35 452.31,510.06 C 451.81,504.35 452.92,498.26 451.5,492.75 C 449.76,492.08 450.28,495.52 450.05,496.62 C 449.67,501.89 450.39,507.35 449.41,512.5 C 444.05,512.56 438.51,512.48 433.25,511.56 C 432.47,510.95 432.53,508.15 431.31,509.59 C 431.28,510.56 431.42,512.61 429.91,511.53 C 428.63,510.8 426.62,509.72 425.78,511.59 C 424.14,513.27 424.26,510.19 424.41,509.59 C 425.73,511.3 428.19,507.51 425.63,507.72 C 424.73,507.75 424.01,509.8 424.28,507.81 C 424.64,502.5 423.57,496.87 425.06,491.75 C 425.62,490.64 429.15,487.75 426.53,488.34 C 425.48,489.19 424.38,490.74 423.09,489.66 C 421.39,490.98 422.5,494.31 422.13,496.34 C 421.83,500 422.74,504.26 421,507.56 C 419.87,507.95 417.88,509.2 418.54,507.03 C 419.01,505.96 418.07,503.08 417.06,505.03 C 417.02,505.98 415.62,507.82 415.72,505.84 C 415.5,504.31 418.29,503.56 416.75,502.09 C 415.9,501.23 414.53,500.45 415.91,499.44 C 416.71,497.7 414.89,496.33 413.53,496.22 C 413.58,495.21 413.82,491.9 412.03,493 C 411.16,494.44 409.07,491.58 408.72,493.59 C 408.95,494.58 409.6,496.56 407.81,495.56 C 405.6,495.24 408.82,494.29 408.25,492.94 C 408.59,491.73 407.17,491.66 406.91,491.22 C 406.76,489.27 406.47,486.04 404.44,485.38 C 403.73,485.93 404.3,488.47 403.59,486.47 C 403.71,484.53 401.62,482.21 399.81,483.81 C 399.18,484.66 400.36,485.97 399.19,486.44 C 398.22,489.15 401.15,490.86 401.19,493.31 C 399.93,494.26 395.72,494.41 396.84,496.81 C 397.31,497.62 398.26,499.77 397.53,500.13 C 394.91,499.24 396.08,503.67 398,503.53 C 399,505.14 396.47,505.48 396.47,507.13 C 395.59,505.62 394.76,507.15 394.81,508.31 C 394.24,507.44 393.1,507.61 394.31,506.88 C 394.83,504.81 391.74,505.63 390.78,505.31 C 390.34,504.05 388.23,504.86 389.03,502.91 C 388.91,499.71 390.47,496.26 389.56,493.22 C 387.93,492.09 388.01,495.48 387.78,496.5 C 387.13,499.38 387.98,503.36 385.63,505.47 C 384.4,506.02 382.35,505.87 383.09,504.03 C 383.39,502.95 385.15,502.49 384,501.16 C 382.33,498.3 383.54,494.59 382.44,491.53 C 381.19,494.64 381.63,498.41 379.88,501.25 C 379.73,502.37 381.93,504.49 379.5,504.34 C 376.97,504.96 373.85,503.35 374.69,500.38 C 374.53,498.64 376.22,497.68 377.75,497.72 C 378.23,495.68 374.69,497.47 375.28,495.31 C 374.68,493.27 378.83,494.88 377.5,493.06 C 376.52,492.36 374.24,491.29 373.72,492.91 C 373.01,492.27 371.7,491.86 370.91,492.63 C 370.6,491.31 371.73,488.37 369.97,488.06 C 368.21,490.55 370.05,494.32 368.38,496.75 C 367.29,496.38 365.93,496.69 365.78,497.97 C 365.07,493.82 364.47,497.54 363,499.16 C 361.79,500.41 361.56,499.2 362.09,498 C 362.56,496.28 360.16,496.06 360.13,497.72 C 360.43,499.35 359.41,498.86 358.38,498.97 C 357.2,499.04 357.41,501.62 356.56,499.97 C 355.43,499.53 355.82,501.13 354.69,500.94 C 353.13,501.46 352.51,504.66 351.03,502.19 C 349.48,499.65 348.3,500.51 347.03,502.53 C 345.92,503.58 343.21,504.07 343.56,501.75 C 343.35,499.95 343.14,497 341.09,496.56 C 340.62,497.5 340.47,497.87 339.72,496.59 C 339.02,495.41 338.27,492.2 336.38,493.69 C 335.7,494.16 334.84,496.68 334.59,494.63 C 334.97,493.29 333.73,490.87 332.34,492.34 C 331.87,493.84 330.26,493.06 330.66,491.66 C 330.7,490.01 328.78,489.62 328.91,487.91 C 328.86,486.22 327.01,486.69 326.69,487.91 C 326.77,485.99 326.37,482.07 323.53,483.31 C 322.03,483.64 321.23,485.46 320.72,486.34 C 319.65,485.7 319.27,487.7 318.47,486.06 C 316.57,484.43 315.81,487.94 315.44,489.22 C 315.34,490.28 315.79,490.73 314.47,490.75 C 314.26,490.55 314.15,489.3 313.56,489.22 C 314.62,488.29 314.16,485.8 312.63,486.91 C 312.07,487.82 310,489.02 309.97,487.16 C 310.05,486.11 308.8,485.71 308.13,486.22 C 308.87,485.49 309.77,484.1 308.03,484 C 305.52,484.45 308.18,481.56 308.09,480.38 C 308.43,478.61 309.81,473.24 307.49,476.98 C 307.26,477.42 304.92,479.87 306.19,478.31 C 307.51,477.23 306.26,474.26 304.78,475.94 C 304.19,476.79 303.72,479.55 303.25,477.16 C 303.88,476.12 303.12,475.42 302.31,475.44 C 301.49,473.64 301.74,469.45 300.64,469.31 C 299.88,471.08 299.77,473.88 299.97,475.38 C 299.54,474.61 298.58,473.78 298.03,475.16 C 297.53,475.93 297.01,476.18 297.06,475.13 C 296.66,473.73 294.4,473.21 294.75,475.19 C 294.76,477.29 292.65,475.67 291.91,475 C 289.91,474.97 291.38,478.81 291,478.84 C 289.87,477.42 288.41,478.91 289.34,480.25 C 290.06,481.93 291.25,483.56 291.25,485.28 C 292.4,485.88 290.93,487.75 292.53,487.38 C 293.65,486.67 293.81,490.72 292.22,489.25 C 291.7,488.32 289.88,486.68 289,488.19 C 288.46,489.47 291.85,491.09 289.13,490.81 C 284.41,491 279.2,489.12 274.75,490.88 C 273.72,491.59 273.75,493.06 274.03,494.19 C 272.85,493.63 272.6,494.55 272.47,492.88 C 271.6,490.88 270.89,493.41 270.19,494.06 C 269.1,494.55 269.81,495.62 270.72,495.63 C 271.58,497.18 269.75,497.47 270.19,499.19 C 270.37,500.54 270.3,502.17 268.56,501.91 C 267.73,501.88 267.35,503.99 266.81,502.59 C 266.5,497.01 267.71,491.38 267.69,485.84 C 266.12,484.06 265.96,487.95 265.88,488.97 C 265.19,494.04 265.21,499.37 264.72,504.34 C 263.67,505.32 261.58,505.64 261.22,506.97 C 260.11,506.26 259.79,502.6 258.16,503.84 C 257.38,504.28 255.55,502.34 255.25,504.25 C 254.36,504.79 254.41,502.75 253.59,502.63 C 254.65,502.04 254.21,500.49 255.47,500.03 C 255.76,498.01 254.05,495.91 255.47,494 C 255.33,492.57 253.85,491.62 254.03,489.91 C 254.38,488.12 253.29,486.98 251.75,487.5 C 250.37,486.03 254.52,485.05 252.59,483.59 C 251,483.75 248.23,484.24 247.44,482.34 C 248.02,481.48 249.18,480.35 247.94,479.44 C 247.41,477.67 247.68,475.5 247.03,473.91 C 248.13,473.25 249.47,470.56 247.16,470.91 C 245.04,471.05 244.05,469.14 243.53,467.47 C 243.22,466.66 240.67,465.58 242.69,465.69 C 243.86,467.17 247.53,466.08 246.31,464.13 C 242.89,462.21 239.62,465.4 237.47,467.75 C 237.36,463.24 238.73,458.38 237.59,454.03 C 235.54,452.81 235.27,456.46 235.02,457.78 C 234.61,461.51 233.74,465.18 232.47,468.56 C 233.31,469.26 233.94,471.46 232.81,472.13 C 231.9,471.95 229.15,472.23 230.69,473.47 C 232.74,473.83 232.85,475.54 232.22,477.3 C 230.96,480.49 231.05,483.93 230.65,487.33 C 230.74,489.36 227.82,491.29 229.66,493.13 C 227.09,493.41 224.2,493.66 225.31,490.22 C 224.91,488.29 227.13,487.08 226.03,485.22 C 225.36,484 226.78,480.68 224.81,480.97 C 224.28,481.3 223.09,483.45 223.63,481.63 C 224.2,479.78 222.44,478.6 222.97,476.66 C 223.3,475.38 222.76,473.54 222.13,473.03 C 222.9,472.07 221.95,471.33 222.69,470.28 C 222.77,468.45 220.33,468.76 219.63,467.31 C 218.64,466.56 218.12,467.76 217.22,467.16 C 215.48,467.84 215.84,470.35 215.66,471.38 C 214.61,470.73 212.82,471.35 213.63,472.78 C 211.93,473.2 213.27,475.3 213.5,476.34 C 212.53,474.8 210.59,475.14 209.22,474.78 C 208.69,473.6 207.22,475.59 207.72,473.88 C 208.32,472.56 206.68,472.42 206.38,472.34 C 205.96,470.3 202.97,473.02 202.19,471.25 C 199.75,470.83 198.5,474.76 196,474.38 C 195.28,473.27 193.71,473.22 192.75,472.41 C 191.07,472.64 190.14,474.67 188.47,474.44 C 187.86,475.42 187.49,477.66 186.22,476.16 C 185.31,475.96 187.48,474.57 186.72,473.47 C 186.22,471.67 183.58,470.85 184.47,468.75 C 183.73,467.42 180.61,469.52 182.09,467.75 C 182.74,466.42 183,464.02 181.38,463.38 C 183.33,461.05 181.01,458.54 179.5,456.84 C 179.65,455.39 178.18,455.18 177.38,454.56 C 177.18,454.07 176.58,451.72 176.03,453.31 z M 237.31,470.91 C 238.52,471.64 236.29,472.7 237.06,471.47 C 237.15,471.58 237.14,470.68 237.31,470.91 z M 526.72,473.22 C 527.14,473.24 527.13,472.13 526.72,473.22 z M 527.06,473.47 C 527.3,473.79 527.72,472.21 527.06,473.47 z M 526.66,473.41 L 526.66,473.38 L 526.66,473.41 z M 528.38,474.72 C 529.72,476.13 529.2,475.88 529.19,474.88 C 529.03,475.65 528.33,474.32 528.38,474.72 z M 527.28,475.66 C 527.67,476.11 527.96,475.08 527.28,475.66 z M 529.44,476.03 C 529.67,476.34 530.35,475.1 529.44,476.03 z M 527.28,475.94 C 528.6,476.33 527.13,475.43 527.28,475.94 z M 527.22,476.06 C 528.32,476.75 527.35,475.61 527.22,476.06 z M 527.16,476.22 C 528.29,477.11 527.14,475.86 527.16,476.22 z M 529.31,476.34 C 529.35,475.99 528.05,476.28 529.31,476.34 z M 529.69,476.44 C 529.65,476.83 530.84,475.52 529.69,476.44 z M 527,476.47 C 527.98,477.43 527.13,476.08 527,476.47 z M 529.84,476.78 C 530.07,477.08 530.85,476.01 529.84,476.78 z M 526.84,476.66 C 527.1,478.14 527.58,476.04 526.84,476.66 z M 526.94,477.25 C 526.85,476.73 526.13,476.76 526.94,477.25 z M 524.28,476.91 L 524.31,476.88 L 524.28,476.91 z M 529.94,477 C 530.45,478.85 530.75,474.98 529.94,477 z M 526.31,477.13 C 526.89,478.37 526.55,476.8 526.31,477.13 z M 530.97,477.34 C 529.92,477.4 533.11,478.44 531.44,478.47 C 529.39,478.61 531.47,479.08 532.69,479 C 532.47,478.18 532.42,478.28 531.81,477.75 C 531.71,477.79 531.34,477.09 530.97,477.34 z M 523.56,477.38 L 523.59,477.34 L 523.56,477.38 z M 523.22,477.47 L 523.5,477.38 L 523.22,477.47 z M 523.03,477.53 L 523.16,477.5 L 523.03,477.53 z M 522.78,477.56 C 522.88,477.62 523.26,477.43 522.78,477.56 z M 192.53,477.84 C 192.6,478.49 192.35,477.84 192.53,477.84 z M 525.31,478.66 C 525.85,479.74 528.49,478.22 526.06,478.72 C 524.61,479.24 526.52,477.91 525.31,478.66 z M 528.19,479.16 C 528.85,478.49 527.48,478.49 528.19,479.16 z M 521.41,479.41 L 521.75,479.09 L 521.41,479.41 z M 520.38,479.69 C 520.92,480.54 521.75,478.69 520.38,479.69 z M 150.13,487.63 C 152.5,487.61 148.58,488.09 149.81,487.66 L 150.09,487.63 L 150.13,487.63 z M 449.56,490.19 C 448.04,491.82 451.9,493.25 451.25,490.97 C 451.03,490.41 450.02,489.36 449.56,490.19 z M 308.84,490.25 C 309.38,490.51 308.32,490.8 308.84,490.25 z M 270.69,490.69 C 269.33,490.49 269.02,492.21 270.56,492.03 C 271.64,492.43 274.41,491.72 272.59,490.78 C 271.98,490.63 271.32,490.62 270.69,490.69 z M 290.38,490.75 C 290.43,490.71 290.41,490.85 290.38,490.75 z M 152.09,493.22 C 152.05,493.25 151.98,493.11 152.09,493.22 z M 152.03,493.38 L 152.03,493.41 L 152.03,493.38 z M 370.91,493.81 C 371.89,494.94 374.37,492.98 373.63,495.19 C 374.11,497.22 371.75,495.74 370.81,495.94 C 370.85,495.27 370.84,494.35 370.91,493.81 z M 272.84,494.63 C 274.32,496.58 274.2,499.67 273.22,501.81 C 271.06,502.36 273.9,503.99 275.06,503.69 C 277.11,503.62 278.76,505.94 281.06,505.16 C 283.46,505.05 279.4,505.42 278.59,505.16 C 277.07,505.11 275.64,504.55 274.69,503.78 C 273.83,503.96 274.35,505.53 273,505.06 C 271.01,506.18 272.54,503.32 272,502.09 C 272.07,500.6 271.56,498.49 271.5,497.38 C 272.65,497.34 272.54,494.32 272.84,494.63 z M 370.81,496.94 C 373.32,497.57 373.81,501.83 371.94,502.94 C 371.4,501.83 373.95,499.38 371.63,499.22 C 370.17,500.21 370.92,497.46 370.81,496.94 z M 495.19,499.44 C 493.84,499.68 492.26,502.36 494.5,501.78 C 495.72,501.75 497.26,499.28 495.19,499.44 z M 494.31,504 C 493.08,505.03 494.75,507.74 495.41,505.59 C 495.67,504.89 495.23,503.33 494.31,504 z M 268.09,504.72 C 269.63,504.76 269.44,505.12 268.16,505.13 C 267.63,505.87 267.33,505.3 266.72,504.97 C 267.16,504.79 267.62,504.74 268.09,504.72 z M 272.09,506.06 C 273.86,507.46 276.92,506.35 278.75,507.38 C 278.92,508.74 279.48,511.38 277.13,510.68 C 275.3,510.38 273.31,511.56 271.81,511.38 C 271.73,509.9 270.38,506.97 272.09,506.06 z M 268.31,506.47 C 269.13,507.47 268.84,507.83 268.31,506.47 z M 381.13,507.28 C 382.55,507.37 387.83,507.39 383.81,507.47 C 382.92,507.51 377.72,507.07 381.13,507.28 z M 389.69,507.38 C 391.11,506.68 388.15,509.86 388.88,508.34 C 388.86,507.75 389.03,507.34 389.69,507.38 z M 397.88,508.25 C 397.89,509.48 397.2,511.12 397.59,508.94 C 397.56,508.99 397.83,507.69 397.88,508.25 z M 496.16,508.16 C 496.62,509.01 495.68,509.97 495,509.28 C 495.28,508.83 495.73,508.43 496.16,508.16 z M 434.91,508.59 C 433.07,509.03 433.96,511.46 435.56,510.44 C 436.46,509.87 436.07,508.27 434.91,508.59 z M 415.47,508.69 C 417.56,509.09 414.87,510.32 415.13,508.75 L 415.38,508.69 L 415.47,508.69 z M 419.25,509.06 C 420.89,508.61 422.36,510.17 421.13,511.53 C 418.33,513.12 417.62,508.79 419.25,509.06 z M 376.53,509.31 C 379.12,509.6 382.39,509.18 384.56,510.59 C 384.71,511.7 382.36,509.94 381.47,510.25 C 379.89,509.84 377.37,510.08 376.44,510.66 C 376.37,509.34 372.97,510.55 374.47,509.41 C 375.15,509.31 375.85,509.37 376.53,509.31 z M 503.78,509.44 C 502.27,509.39 502.11,511.23 503.66,511.34 C 504.55,512.09 507.09,512.2 506.06,510.56 C 505.59,509.79 504.7,509.24 503.78,509.44 z M 386.41,510.19 C 386.35,511.86 386.17,510.37 386.41,510.19 z M 386.19,512.84 L 386.19,512.81 L 386.19,512.84 z M 386.19,512.84 C 385.4,513.15 386.06,515.16 385.91,515.13 C 385.59,515.92 385.99,515.6 385.63,516.41 C 386.33,517.18 386.22,515.57 386.06,515.53 C 385.9,514.89 386.95,513.48 386.19,512.84 z M 386.19,512.88 C 386.29,512.84 386.14,512.82 386.19,512.88 z M 386.16,512.97 C 386.02,513.04 386.14,512.87 386.16,512.97 z M 386.22,512.94 C 386.17,513.06 386.17,512.82 386.22,512.94 z M 503.31,513.81 C 502.78,514.03 501.49,515.31 502.25,514.19 C 502.3,513.95 504.08,513.55 503.31,513.81 z M 448.13,514.84 C 449.16,515.09 450.78,517.44 448.78,517.28 C 444.37,516.86 439.46,517.44 435.41,515.5 C 435.4,514.28 440.27,515.22 442.09,514.97 C 444.12,514.75 445.89,515.52 447.72,515.91 C 448.62,515.88 447.81,514.58 448.13,514.84 z M 454.34,515.28 C 453,517 456.55,516.32 456.75,516.84 C 455.61,517.21 453.12,518.19 452.25,517.06 C 451.81,515.85 453.58,516.76 453.59,515.47 C 453.8,515.34 454.07,515.35 454.34,515.28 z M 501.38,515.97 C 500.9,517.34 501.5,514.87 501.38,515.97 z M 419.59,519.22 C 423.33,519.16 418.85,519.66 419.09,519.25 C 419.26,519.25 419.43,519.22 419.59,519.22 z M 423.88,519.22 C 425.2,519.57 423.59,519.78 423.88,519.22 z M 435.03,519.28 C 439.15,519.4 444.37,519.7 447.75,519.97 C 442.82,520 437.75,520.37 432.91,519.47 C 433.58,519.24 434.33,519.36 435.03,519.28 z M 501.22,519.78 C 501.55,520.91 503.42,519.9 503.47,520.19 C 502.64,520.21 499.43,521.12 501.22,519.78 z M 452.47,520.06 C 453.77,519.9 454.13,520.72 452.75,520.81 C 452,520.98 451.28,520.09 452.47,520.06 z M 499.66,529.44 C 500.08,530.37 497.91,530.03 499.41,529.5 C 499.5,529.51 499.56,529.41 499.66,529.44 z "/>
    </g>
    <use id="buildingsReflection" transform="matrix(1,0,0,-1,-2.465306e-7,1093.074)" fill="url(#lowerPart)" xlink:href="#buildings"/>
  </g>

  <g>
  <g transform="translate(400 510)">
    <path id="boat" d="m-0.348-58.6c4.2,2.03,2.8,8,5.92,11.1,2.23,4.76,4.24,9.78,4.57,15.1-1.36-1.47-6.59,0.538-5.07-2.75,5.32,0.966,2.33-9.09-1.83-7.57-3.3,1.99-1.22,6.5-1.32,9.62-0.00943,6.28,0.863,12.6,1.56,18.8,4.27,0.727,10.6-1.88,8.28-6.68,1.85,1.37,4.98,8.1,0.444,8.3-3.41-0.392-9.78-0.373-8.92,4.67,0.118,2.28,0.45,4.44,2.86,4.7-1.7,1.21,3.33,0.933,0.996,2.69-5.66-0.68-1.46,8.72,2.62,5.08,2.64-0.28,7.94-5.19,8.64-0.29-2.4,3.63-0.3,10.4,4.6,10.2,2.24-2.46,6.35,1.24,3,2.83-6.14-0.406-12.2,1.29-18.2,2.03-2.89,3.64-7.5,3.45-11.5,5.37-5.39,0.64-2.93,6.3-3.06,10,0.23,2.2,1.64,3.06,1.28,0.201-0.0734-2.86-2.43-9.02,2.48-8.45,3.37,2.56,9.23,1.47,11.8,3.94,0.456,4.74-3.47,8.56-6.49,11.6-4.16,1.23-8.38-2.96-12.3-0.093-1.27-1.6-1.47-3.2-3.46-0.948-0.88,1.77-5.12,2.19-4.02,0.126,5.17-1.1-2.32-4.76-2.22-7.6-2.07-3.95,4.33-5.3,0.981-8.89-1.7-2.34-1.93-9.62,2.2-8.01,0.533,3.69,3.1,6.12,6.81,4.61,1.76-2.42,3.2-6.73,1.64-9.65-0.542-1.35-2.1-6.05-0.271-7,1.07,0.956,1.31,6.82,1.98,2.07,0.347-5.71,1.46-11.3,1.74-17.1,0.19-1.76,0.928-7.78-0.303-6.86-3.07,3.4,0.027-3.63,0.945-4.97,0.865-3.27,0.476-6.72,1.05-10.1,0.829-8.7,1.65-17.4,2.64-26.1zm2.38,14.3c6.51,1.18-2.04-10.6-0.856-3.57,0.141,1.22,0.411,2.43,0.856,3.57zm-2.38,26.7zm0,7.62zm-0.477,2.38zm0.477,2.86zm-3.34,1.43zm-0.477,3.34c2.12,0.264,7.38-4.34,2.67-2.12-0.993,0.559-1.91,1.27-2.67,2.12zm2.86,0.954zm0.476,1.9zm2.86,1.91zm-2.86,2.38c-2.81,4.33,4.62,4.83,4.06,0.55-1.08-2.59-3.69-0.46-4.69-2.52-2.75-0.99-4.27,4.52-1.42,1.31,0.72-0.71,1.8-0.37,2.06,0.6zm6.19,1.43c-1.71,4.4,2.31,9.9,6.94,7.2,3.9,0.5,6.5-3.5,4.2-6.6,0.2-5.27-6-3.55-8.94-2.24-0.84,0.34-1.63,0.86-2.19,1.58zm-10,2.38zm2.86,5.72c1.21-2.38,9.24-1.77,4.78-5.47-2.54,1.67-6.37,4.98-5.72,8.27,1.94,0.504,3.6-2.14,5.69-0.167,1.1-3.4-1.02-2.7-3.38-1.7-0.622,0.1-1.23-0.3-1.37-1zm-4.76,5.72c3.08-1.11,3.24-7.4,1.76-8.48-2.53,2.09-0.0174,6-1.76,8.48zm-6.67,1.91c1.58,3.68,8.34-2.01,3.27-0.905-1.09,0.303-2.15,0.711-3.27,0.905zm2.38,6.67c3.22,2.7,0.787-5.54,0.402-1.22,0.0733,0.43,0.0192,0.973-0.402,1.22zm-6.19,0.477c2,0.743,5.79-3.45,1.7-1.51-0.741,0.197-1.59,0.659-1.7,1.51zm21,0.953c-1.96,0.0462-6.57-3.13-6.81-1.35,2.1,0.956,4.46,2.21,6.81,1.35zm-2.86,2.38c-1.45-1.6-3.93,0.245-0.712,0.0695l0.712-0.0695zm-15.7,1.43c0.103,4.44,5.25-4.37,1.34-0.348-0.385,0.268-0.869,0.443-1.34,0.348zm11.4,0.477z"/>
    <g>
      <use id="boatReflection" transform="scale(1 -1) translate(20 -84)" fill="url(#lowerPart)" x="0" y="0" xlink:href="#boat">
        <animate attributeName="opacity" dur="5s" repeatCount="1" values="1;0" begin="bta.end-3s" fill="freeze"/>
      </use>
      <animateTransform begin="bta.begin" attributeName="transform" type="skewX" dur="40s" repeatCount="1" values="-10;-35" fill="freeze"/>
    </g>
    <animateTransform id="bta" begin="3s" attributeName="transform" type="translate" dur="40s" repeatCount="1" values="400 510;635 464" fill="freeze"/>
  </g>
  <animateTransform begin="bta.begin" attributeName="transform" type="scale" dur="40s" repeatCount="1" values="1;0.5" fill="freeze"/>
  </g>

  <rect width="660" height="510" rx="90" x="-30" y="-30" fill="orange" stroke="white" fill-opacity="0" stroke-width="68" id="outerMask">
    <animate attributeName="fill-opacity" dur="30s" repeatCount="indefinite" values="0;0.4; 0" />
  </rect>

  <image xlink:href="http://www.google-analytics.com/__utm.gif?utmwv=4.7.1&amp;utmn=21830374&amp;utmhn=svg.kvalitne.cz&amp;utmcs=UTF-8&amp;utmsr=1920x1080&amp;utmsc=24-bit&amp;utmul=en-us&amp;utmje=1&amp;utmfl=10.0%20r45&amp;utmdt=SVG%C2%A0%E2%80%94%C2%A0It%27s%20in%20your%20hands...&amp;utmhid=1377849700&amp;utmr=-&amp;utmp=%2Findex2.htm&amp;utmac=UA-11950721-1&amp;utmcc=__utma%3D251371972.1884550355.1260220320.1272562824.1272576758.56%3B%2B__utmz%3D251371972.1263752798.41.3.utmcsr%3Dgoogle%7Cutmccn%3D(organic)%7Cutmcmd%3Dorganic%7Cutmctr%3Dsvg%2520smil%2520demo%3B" width="1" height="1"/>

</svg>