<svg xmlns="http://www.w3.org/2000/svg" xmlns:xlink="http://www.w3.org/1999/xlink">
  <title>Drawing Animals Demo v. 1.03, with use of animateMotion and scripting, by Marek Raida</title>
  <desc>Thx http://www.clker.com/ and http://www.openclipart.org/ for clipart sources of all the animals (and pen)</desc>

  <style>
    g#txt text:hover {fill: red}
  </style>

  <defs id="animals">
    <path id="bat" d="m 229,16 l-2,16.5,5,13-9,13.7-7,7.8-15-3.6-40-16.9-16-7,1-6h4c-1-4.5-4-5.3-8-6v7l-1,5-63.9,2.3-63,10.7v4c14.4,0.1,21.1,15.3,32.1,22.8,6.4,4.3,15.7,3.2,22.9,4.7,9.4,1.9,20,7.6,27.9,12.9,8,5.1,8,18.1,14,22.1s20,0,26,0c18-2,53,1,61,20,3,5-4,9-3,16l10-7c2,5,7,6,11,10,9,10,21,18,29,29,3,4,3,16,10,14,6-2,7-14,12-18,5-6,12-10,18-15,7-6,13-13,21-17,4,11,11,2,2-4,11-14,36-19,52-23,7-1,11-4,18-3,9,0,16,5,24,6,3-18,34-29.9,50-32.3,5-0.8,13,1.5,18,0.1,3-1.2,3-8.2,6-10.8,7-6.4,20-11.5,29-14.5-1-7-22-10.2-29-11.9-32-8.4-65-12.1-98-12.1,0-2.7,1-7.1-1-9.4-3-3.9-7,0-8,3.4h5v4c-11,0.5-19,6.9-29,11.3-8,3.5-16,5.4-24,8.3-7,2.6-18,7.1-25,2.6-5-3.1-7-9.4-10-14.2-2-3.5-5-7-6-11-2-7.1,2-15.7,2-23l-20,5.9-33-6.9z" stroke="gold" fill="#000"/>
    <path id="cat" d="M 48.6,24.2 c-19.5,23.2-5.1,45-4.5,68-1,7.8,0.2,16.8,3.8,23.8,3.4,8,8.1,15,13.8,21-10.4,7-15,19-16,35-2.8,6-4.4,13-4.4,20,0,8,1.7,14,4.7,21-12.6,12-19,31-12.6,53,5,17,13.7,38,26.7,55-4.1,5-8.8,13-8.8,19,0,4,2.1,11,6.3,11l15.8-1c-0.7,2-1.2,4-1.1,5,0.4,5,2.1,14,7.1,13,0,0,21.6,2,31.6-1,4-1,11-3,10-6,0,0,0-1-1-2,3,1,6,2,8,2,10,4,32,2,32,2,5,0,6-8,7-13,0-5-5-13-5-13,0-1-1-3-1-5,3-2,5-4,8-7,6,5,16,12,25,13,12,0,19,4,32-14,0,0,17-26,18-40,0-15-8-36-20-42-7-3,2,12,6,34,4,21-15,38-25,34-7-2-14-7-19-12,4-10,7-20,7-30,2-38-4-52-15-58,1-4,2-9,2-14,0-8-2-16-6-24,0-5,0-10-1-15-1-18-16-21-32-24,4-5,7-11,9-17,4-10,4-21.8,0-32.3,13-17.1,14-35.1,13-53.5-17,1.1-16,15.2-36,23.8-3-1.9-7-3.4-10-4.4-5-1.4-10-2.1-15-2.2h-2.2c-7,0.4-13.9,2-20.4,4.5-15.9-6-18.5-24-30.8-27.7zm70.4,326z" stroke="#221e1d" fill="#9b9798"/>
    <path id="cow" d="M 224,258 c2-1,4-3,6-4,2-2,4-3,5-3,0,0,2-1,5-4,6-5,7-9,2-19l-6-6c0-4,1-9,1-19,0-17,1-26,5-31,1-2,1-4,1-7-2-6,0-7,40-7,20-1,41-2,46-2l8-1,7,8c4,3,8,8,8,10,2,5,3,5,10,8,4,1,5,2,4,3s-2,7-3,11c-2,7-3,9-9,16-4,3-8,9-9,11-1,1-5,5-7,7-6,5-6,6-5,9,1,6,6,9,18,9,5,0,11-1,14-3,3-1,6-1,8-2,1-1,6-3,8-6,5-3,5-4,5-9,0-4-4-5,0-12,3-5,3-13,4-18,4-11,10-23,13-24,2-1,6,6,7,14,0,10-3,28-7,34-2,1-3,3-3,4s-3,4-5,8c-4,3-6,7-6,8,0,3,6,9,10,9,6,0,20-3,22-5,1-1,3-2,4-2,5,0,15-17,12-21,0-1-3-3-1-7,4-7,1-19,2-20s-14-37-12-62c1-8,6-19,8-32,4-20.2,3-42.2,3-41.3,0,4.4,4,0,7,14.1,2,10.5,4,37.2,4,64.2,0,1-8,56-8,55,0-13,2,13,4,13,1,0,6,9,6,10,0,5,8-2,12-10,4-4,4-7,1-24-1-2-1-8-1-13,0-7-1-14-4-20-3-7,2-10,2-29,1-11,1-30.4,2-41,0-21.1-1-39.5-5-47.5-3-6.1-15-16.7-20-17.5-6-0.9-21-2.7-40-4.44-8-0.9-18-1.8-23-2.7-10-1.7-12-1.7-20,0.9-23,7.04-25,7.04-69,7.04-25,0-43,0-47-0.8-12-3.6-46-1.8-56,2.6s-30,8.8-45,10.6c-18,1.7-29,2.6-22-3.6,3-3.5-3-6.1-10-6.1-5,0-8.3,0.9-11.8,3.5-6.2,3.5-7.1,3.5-14.5-0.9-6.3-2.6-6.5-2.6-22.6-1.7-12.6,0.8-19.2,0.8-28.6-0.9-6.7-0.9-13.6,0-15.2-0.9-11.2-4.4-13.3,0,1.1,8.8,3.4,1.8,17.9,5.3,18.6,5.3,0.6,0,4.6,1.7,5.1,1.7,1,1.8-0.3,0.9-2.2,0.9-4.9,0-18.5-0.9-21-1.8-10.6-7-14.1-5.2-6.38,4.4,7.18,4.4,15.1,8,26.2,9.7l-0.5,9.7c-0.5,8.8-4.6,22.8-9.6,31.6-3.1,5.3-7.3,22.1-6.4,25.1,2.5,9,14.1,15,28.6,15,9,1,11.8-1,17.7-9,4.3-6,11-11,17.5-11,2.8,0,7.8-1,10.4-2l5.3-2,7.3,2c4,3,9,5,12,7,2,0,8,6,13,11s11,13,15,18c8,8,19,24,19,27,0,2,1,4,3,6,3,4,3,4,0,11-1,4-2,10-2,15-1,7-3,10-11,17-10,10-19,20-19,22,0,1,1,4,4,6l6,5,12-1c6-1,12-2,14-3,0,0,5-2,8-3,7-3,10-8,7-11-3-2-3-3,1-6,2-3,2-4,3-19,0-16,2-21,8-26,3-2,4-3,4-3,7,9,12,23,11,35-1,11-4,17-13,26-7,6-8,8-8,12,0,5,1,6,3,7,6,2,27,1,30,0z" stroke="#343" fill="#76150b"/>
    <path id="duck" d="M 97.2,0 c-5.1,0.104-10.1,1.21-14.7,3.5-12.9,6.49-20,20.5-28.9,31.2-10.3,12.4-22.5,11.9-37.4,13.6-6.56,0.732-16.2,1.61-16.2,10.5,0,13.3,24.4,11.4,33.6,11.9,9.5-1.65,18.4-4.78,27.5-7.72,10.5-3.38,18.3-2.25,29.8-1.12-1.9,19.8,1.54,39.4-2.78,58.9-4.2,18.9-17.1,34.7-19.2,54.5-4.01,37.8,21.4,73.2,53,90.8,14.5,8.1,30.3,14.9,46.6,18.1,0.26,0.1,0.52,0.1,0.78,0.12,2.02,10.8,6.73,25.2-0.78,32.5-5.63,5.52-16,2.19-23.4,2.19-10.8,0-21.5,2.84-32.2,3.88,5.5-0.23,10.8,2.49,11.6,8.31,4.31-1.77,23.7,2.2,22.3,3.59,6.33-6.37,15.4-2.89,23.1-7.22,0.62,0.13,1.3,0.32,1.96,0.53,5.56-5.33,11.4-14.7,10.9-21.2-0.47-6.1-2.94-13,1.78-17.8,1.07-1.07,2.17-2.14,3.25-3.24,8.49-0.11,16.7-1.1,25.3-1.88-0.43,1.59-0.62,3.14-0.25,4.66,1.77,7.08,5.14,17.1,1.91,24.3-5.47,12.2-24.8,15.3-39,16.9,2.06,1.27,3.76,3,4.31,5.18,10.9-10.3,7.52,1.1,13.8,3.85,5.19,2.27,10.8-1.33,17.1-0.53,10.4,1.33,8.3,2.23,17.6-0.57,5.89-1.77,13.8-2.66,19.3-5.53-7.17-2.58-14.1-6.43-21.5-7.75,5.92-14.4,2.73-27.4-0.37-41.4h1.47c9.95-0.23,20,3.46,29.9,1.35,10.2-2.2,20.5-4.15,30.7-6.53,13.2-3.09,43.6-5.85,51.8-16.4-0.89-0.2-1.91-0.2-2.78-0.56,5.63-2.06,36.8-16.5,18.8-23.2,15.9-11.3,40.1-17.9,53.4-31-21.3-2.11-50.3,10.3-71.6,14.9,13.1-7.15,27.4-11.1,39.7-19.9-14,3.66-56.8,23.4-61.7,4.44,11.4-2.05,22.1-5.17,33.1-8.84-3.5-0.71-8.51-2.85-12-1.97-4.23,1.06-12.4,4.99-16.6,4.15-7.33-1.46-19.3-13.6-26.4-17.8-18-10.6-37.2-18.5-57.3-24.2-18.8-5.37-36.7-10.7-56.2-7.75-14.9,2.28-31,5.95-43.5-4.97-14.4-12.5-12.6-33.8-12.6-51.1,0-17.9,10.8-29.6,16.2-45.9,8.49-25.5-18.4-48.3-42.9-47.8z" stroke="#040" fill="#006400"/>
    <path id="eagle" d="M 27.3,322 c11.2-13,41.2,7,44.3-14-1.9-18,33.4-25,14.3-43-12.3-15-29.9-7-32.1,10-15.9-7-2.6-31-7-44,2.3-18,34.4-15,26.2-33-9.3-15-3-33-14.2-47-7.5-17-28.8-19-38.6-33,6.2-14-9.8-25.7-11.2-41.2-5.86-9.2-3.07-31,7.94-14.2,2.4,6.4,7.1,33.3,5.6,14.4-4.2-9.9,11.9-32.7,10.3-10.8,0.7,9.1-2.4,30.1,4.2,9.4,12.7-20.7-0.6,33.4,12,11.5,9.7-5.1,3.8,14.9,11.5,3.5,6.5,2.7,7.9,8.4,16.5,9.4-7.7,21,27,11,17.1,30-2.6,8,18.9-4,13.9,11-6,18,16,24,14,42,13,5-5,35,13,23,15-12,26-24,44-31,17-11,25-29,28-49,3-12,15-18,12-2,12-12,11-29.5,11-45,4-16.6-1-36.4,6-51.2,12,9.2,5,31.6,7,46,7,12.6,11-16.9,11-23.7,3-13.3-5-36.9,8-43.6,6,18.8,5,39.4,3,58.9,8-12.4,10-28,15-42.1-1-9.4,12-21.8,11-5.3,0,13.3-12,32.3-9,40.7,7-2.8,13-30.5,18-13.9-2,6.1-13,24.4,0,13.5,2-11.6,25-12.8,11,0.6-10,10,17,4.6,5,16.9,1,7,5,12.1-4,18.4-7,8.8,9,4.8,1,13.8,11,0,6,16,7,24-6,3-12,8-3,12-1,16-14,30-20,43,8,11-5,30-12,40-12,12-23,23-41,21-10,7-19,19-34,14-3,22-20-17-22,6-4,22,27,27,40,37,13,6,34,16,31,32-10,3-4,24-21,21-8-1-13,4-20-1,0,9-12,1-11,10-7-5-11-11-16,1-9-6-24-3-28-14-13,6-17-6-24-14-1,14-8,23-24,20-12-4-3,18-17.2,13-4.8,5-7.1,14-17,13,7.5-6,14.8-24-0.8-14-15.6-8,0.8,16-13.8,8-2.8-14,8.8-24,21.8-24,22,2,11.6-22,23-35-1-19-17.5,9-27.5,7-10.1,0-16.9,4-13,15-1.2,12-23,10-18.2,5,18.9,7,9.1-32-1.4-11-2.5,13-5.3-11-7.5-9-10.3-3-13.6,0-12.3,10-2.9-4-9.2-11-3.8-16z" stroke="#210c0f" fill="#400e15"/>
    <path id="shark" d="M 277,6.5 c-46,18.4-69,43.6-95,81.6-3,3.5-9,20.3-18,24.3-32,28-65.7,50-72.4,117-57.6,11-80.2-34-81.9,12-0.21,6,30.8,15,66.9,20-21.8,17-45.6,35-49.7,45-3.5,10,63.7-11,90.1-36,29,12,63,5,75-2,39,22,93,50,96,50,11,1-18-32-49-56,38-1,72-2,73-7,9-44-52-7-73-19,80-26,19,1,101-5,0,0-34-32-27-35,5-3,16-7,21-10,8,4,39,12,43,12,2,0-11-11-14-21-3-8,5-14,6-15,5-4,6-6,10-9-1,16,103,53,98,38-22-9-59-46-49-48,25-50.6,88-124,105-123-36-16.4-112,62.9-158,90.3-11,6-18,12-37,5-8-2,12-36.7,11-40.5-11,1.7-31,15.6-41,22.3-18,12.2-30,10.2-57,5.2-7-1-5-2.2-6-13.8,7-28.7,39-82.7,32-82z" stroke="#453f61" fill="#6b7bae"/>
    <path id="horse" d="m 305,1.7 c-12.3,2.09-28.4,0.29-37.8,13.2-12.6,4.38-26,8.97-38.3,12.4-3.3,0.53-7.6,3.41-6.3,4.66-4.1,0.14-8.3,1.64-1.7,2.84-7.4,1.23-34.3,16.4-14.5,9.52,9.4-2.31,11.5,0.7,0.7,1.88-12.6,4.97-12.7,8.18-26.5,12.3-3.2,6.18,18.1-0.69,20.2,0.73-6.6,1.6-17.5,3.17-15,5.11-3.5,0-20.1,4.18-24.4,11.3-18.9,3.21-37-6.73-56-4.3-19.7,1.39-39.3,6.03-59.1,2.56-15.2,0.79-33.7,7.71-38.2,23.7-8.41,12-5.69,29.2-5.69,43.4,1.37,18.5,1.68,37.2,6.29,55.2,7.18,12.8-5.84,37.9,9.19,42.7,0.48-10,1.16,4.3,2.98-7.1,2.89-16.9-1.28,9.1,7.72,5.1-2.75-10.3,6.6-2.7,5.77-11,5.58,9,8.51-17.7,11.2-5.2,3.73-8.1-0.84-27.3,0.6-30,0-0.7,0.6-2.6,1.85-6.6,3.41-22.3,3.1-50.8-2.82-72.7,2.4-11.6,9-19,20.1-23.4-12.9,14.4-15.3,34.4-8.5,51.4,1.62,13,26.1,24,6.82,31.6l-1.7,1.1-1.85,0.8c-5.49,2.9-11.7,16.6-12.8,18.1,3.95,14.7,23.9,19.2,24.8,35.5,8.66,2.2,2.97,9-3.01,5.6-13,8.7,2.73,33.8,13,12.7,0.21-0.4,0.45-0.9,0.67-1.4,1.64-3.4,3.39-8.4,5.2-10.8,1.69-4,1.84-6.7,0.99-7.3-2.38-1.6-7.35-11.3-9.65-15.2-1.61-1.2-3.16-3.1-4.64-6.1-19.2-16,19.2-18.5,27.3-17.2-0.8,3.7-8.94,12.5-11.3,16.6-10.2,9-4.5,15-4.5,15l5.7,13.1c0.49,1.1,0.96,2.5,1.44,4.4,9.78,12.3,12,30.4,24.1,40.4,9.9-5.1,7.6,20,22,13.6,16.2,2.3,11.8-9.9,0.7-14.6-16.4-12.1-33.3-29.6-31.6-51.6,8.5-12.6,17.7-25.6,29.4-35.6,12.7-6.4,11.4-29.7,28.3-16.5,16.5,6.9,34.8,7.1,52,7.7,4.7,14.4,9.4,30.2,8.5,45.7,1.7,13.1,7.1,26.2,6,39.9-0.3,9,3.5,12.1,7.8,9.4,1.5,9.5,3.1,17.8,14.7,15.3,15.6,3.8,8.8-13.9-1.8-17.5-14.1-15.8-9.8-38.9-10.8-58.3-0.8-16.1,1.9-36.6,23.7-31.8,15.1,3.4,32.5-11.5,45.8,0,9.8,12.3,6.5,34.3,12.1,43.7-18.1,5.2,3.9,39.9,8.6,12.7,3.7-16.8,0.5-33.7-4.8-49.8-1.3-18.1-13-32.4-32.2-30.3-20.5-1.8,0.4-25.2-5.1-36.9-7.8-15.4-4-35.6,6.4-48.4,13.1-7.51,20.4,21,15.4,31.3,2.4,17.7,38.9,13.7,28.5-6.27-1.4-13.3,6.8-30.1,10-35.9-0.6,10.3,3.9,22.3,4.5,14.8,0.7,8.99,7.5,5.48,6.3-0.31,4.6,3.63,1.8-16.3-0.7-18.3,2.9-10.3-3.5-19-5.7-26.8,8.3-3.55,7.7-14.8-1.3-6.06-5.8,2.23,10.4-8.49-3.8-3.99-10.7,3.27-24.7-10.1-5.9-6.97,10.9,0.29,11.2-7.55-0.2-4.83-7.8,1.99-29.1-2.52-10.8-5.16-1.5-4.35-19.9-0.02-28-4.37z" stroke="maroon" fill="brown"/>
    <path id="walrus" d="M 102,3.8 c-6.24,1.43-12.7,13.1-18.7,8.83-13-9.13-23.5,12.8-22.4,20.6-7.02,7.81-13.7,19.4-19.1,29.5-10.6,20.6-12,44.3-15.2,66.9,10.1-27.1,19.2-55.3,35.5-79.5,5.03-6.36-8.09,11.9-9.07,17.4-8.06,21-18.8,42.8-14.9,65.9,6.54-29.4,22-55.9,36.5-82,13.5,2.85-1.38,20.4,7.78,24.8-11.2,28.6-21,58.9-17.7,90,2.01,10.3-1.01,23.3,5.14,31.9-7.48,9.51-3.31,28.1-17.2,30.2-6.15,10.5-25.3,2.53-35.2,11.5-8.13,1.8-21.6,15.9-6.56,15.2,5.04,0.32,10.1,0.67,15.1,0.99,11.8,9.44,29.9,6.54,44.5,8.77,13,2.66,24.5-6.24,26.2-18.7,7.09-7.19,13.2-13,21.9-4.5,21.4,8.29,45,3.66,67,9.59,11.2,0.58,7.9,2.68,0,5.24-10.8,5.69-29.6-4.72-35.5,4.78,4.55,3.29,26.1,9,7.8,12-12,5.57,6.47,8.99,11.5,6.74,8.22-1.84,10.9-1.11,2.93,3.7-7.77,10.1,16,3.22,20.4,0.43,13.4-6.23,25-17.3,40.5-11.3,16.2,2.25,33.8-5.48,40.5-21.1,10.9-22.6,4.89-50.2-7.75-70.8-7.95-11.3-19-22.4-33.2-24.6-9.33-12.5-16.8-27.3-29.9-36.2-10.7-6.85-29.3-5.53-25-22.9-3.79-27.4-9.52-58.5-32.7-76.6-10.4-8.13-23.6-11.7-36.3-13.8-2.11-1.22-4.25-2.63-6.74-2.91z" stroke="navy" fill="#b3b3b3"/>
    <path id="baboon" d="M 96,128 c2.1,7,8,14,8,22,1,18-11.9,36-19.2,52-2.9,6-3.8,14-7.5,20-4.7,7-15.5,0-22.3-1-4.9,0-9.3,0-8,6-2,2-1.6,4,1.1,5,7.9,2,16.1,3,23.9,6-3.2,2-7,6-0.9,7,5.9,1,7.4-3,12-5,5.7-3,10.7-3,15.7-8,5.2-4,7.2-11,10.2-17,4-8,10-14,14-22h1c0,23,4,51-6,72-3,7-18.8,2-20.1,9-0.8,4,7.1,2,9.1,2v1c-9.7,4-14.9,18,0,14,1,4,3,6,6,2,6,1,8-5,12-8,6-3,11-4,16-9,11-13,12-36,19-52,3-8,10-14,13-21,2-5-5-15-3-17,3-4,15,1,19,1,12,2,30-5,42-7v1c-31,15-33,48-21,77,4,10,13,18,14,29-10,0-20-6-30-5-11,2-8,22-2,27,6,4,10-1,15-2,12-2,31,3,41-6,4-4,2-10,3-15,2-9,4-19,6-29h2c4,9,20,20,30,22,7,2,19,1,23,9-9-4-27-9-36-2-11,8,13,14,18,14-1,6,1,14,9,10,11-4,23-13,31-22,2-2,6-4,7-7,1-6-6-11-10-14-10-10-29-15-31-30-2-23,17-35,25-54,8-16,5-39,2-56,12,6,15,21,16,34,1,27-15,48-7,76,2,7,5,21,12,25,5,3,9-2,8-7-4-19-7-33-3-53,4-16,9-31,10-48,0-5,2-11,0-16-4-9-13-22-22-26-7-3-16-3-23-6-6-2-10-7.6-16-10.2-11-5.2-23-7.7-35-12.3-20-7.9-42-17.4-59-31.1-10-7.7-15-19.6-26-26.4-29-18.8-77-21.3-108-7.5-14.3,6.3-23.9,19.4-31.4,32.5-2.1,3.5-6.3,7.7-6.3,12s4.2,7.4,6,11c3,5.9,5.2,13.5,6.1,20,1.1,8-4.6,13-3.9,20,0.6,6,2.7,19,7.7,23,11.5,10,33.9-2,43.8-9z" stroke="#000" fill="#88a"/>
    <path id="hamster" d="M 106,267 v1c-6,3-6.7,12-2,17,10,9,23,10,34,16,5,2,12,5,16-1,3-5-2-13-4-18,10,0,21,8,31,4,7-2,7-10,0-13s-16,0-24,0c7-8,30-5,41-5h32c4,0,10-2,14,0,7,2,12,9,19,13,8,4,17,5,26,8,11,3,18,6,30,6,13-1,8-11,0-15-5-3-13-1-18-4-8-5,5-18,9-21,2-1,3-2,5-3,16-4,6,19,19,14,6,10,7-13,6-17-2-5-8-7-13-10,7-3,12-9,19-12,11-5,23-7,34-12,5-3,14-7,15-14,0-6-7-8-11-10-11-6-24-12-35-19-7-5-16-15-25-15-11-1-14,5-23,8-5,2-12,0-17,0-35-4-71-21-107-16-36,6-67,24-86.9,54-8.1,12-8.9,29-20.1,39-8.5,7-17,1-26-1-6.7-2-12.2-2-19-2-4,0-12.2-1-14.9,3-1.61,2,1.1,3,3,4,6.8,1,13.1,0,19.9,2,22.2,8,49.5,20,73,19z" stroke="#88060b" fill="#c52716"/>
    <path id="sparrow" d="M 123,260 c1.83-10.4,11.3-16.8,12-27.3-9.1,2.69-15.6,5.48-24.3,7.17-9.32,1.81-15.4-2.67-22,4.16,1.5-12.8,22.4-6.91,30.1-12.3-6.52,0.776-7.62-7.81-13.9-0.693,3.88-11.6,18.4-1.48,26.1-4.17,6.07-2.09,11.6-9.29,16-14.1,8.11-9.02,17.9-18,24.5-28.2-4.87-0.433-9.98-0.284-14.8,0.231,0.128,0.666,0.373,1.2,0.462,2.08-5.46-3.64-5.69,0.737-7.86,1.62-5.44,2.21-9.29,2.46-15.3,2.54-12.1,0.179-12.6,2.1-19.2,10.4-3.63,4.56-12.1,6.88-8.33,13-11-5.12,7.27-17,8.33-23.4-8.88,1.92-41.7,5.55-45.1,12-0.389-11,21.2-12.3,29.1-13v-0.463c-0.231,0.076-0.309,0-0.231-0.232-6.46-0.821-11.6-6.86-16.4-1.62,1.49-10,13.8-3.41,18-2.31,9.24,2.42,14.5-2.8,24.5-4.4-44.3-5.98-87.4-41.9-87.9-89.5,0.3-20,7.7-38.9-1.4-55.9-7.2-13.4-21.7-15.8-34.7-21.3,8.64-8.91,23.9-3.13,33.5-6.71,5.64-2.09,12-6.8,18.3-8.33,16.8-4.07,32,1.75,45.1,11.8,9.05,6.92,16.2,16.8,26.1,22.4,12.7,7.27,28.9,9.46,42.6,14.8,14.3,5.6,26.8,13.8,41.4,18.5,14.5,4.72,29.2,9.51,42.8,16.7,14.9,7.84,29.5,8.26,46,11.1,8.45,1.46,25.4,2.48,29.6,10.4-8.89,1.94-18.9,3.08-28.2,5.32,28.1,0,56.6,4.71,84.7,7.52,8.36,0.837,21.7-1.9,26.4,5.44,1.39,2.2,0.41,6.73-1.16,7.87,4.03,4.46-0.497,6.11-5.09,5.32,12.3,0.715,11.3,6.54,0.463,6.48-20.5-0.123-42.2-4.21-62.9-5.78-13.1-0.993-26.1-2.05-39.1-3.35-7.06-0.708-15.2,3.91-22.2,5.67-13.8,3.48-32,1.48-42.1,10.6-16.1,14.6-33.5,23-51.6,30.3-8.06,3.26-34.4,27.6-35.9,37.9-0.127,0.879-1.24,2.38-1.62,3.24,7.73,0.364,28.9-11.2,28.7,3.24-6.48-7.83-7.87-0.856-12.5,1.16-3.41,1.48-8.46,1.32-12,2.31-8.71,2.41-10.6,5.35-16.2,13.9-5,7-9,12-13,17" stroke="#1d1d2e" fill="#272753"/>
    <path id="elephant" d="M 85,256 c4.9,1,17,0,12.8-8-2.3-4-13-10-17.8-11-7.2-2-19.2,6-10,12l-2,6c-7.7-4-9.9-15-9.3-23,0.5-6,5.6-12,7.6-17,5.6-15,10.1-29,14.4-44,1.7-6,2.2-17,7.4-21,4.9-4,12.9-5,17.9-7,4-2,7-6,11-8,9-3,19-2,23-12,9,14,17,28,19,45,1,12-7,25-10,37-2,8-2,17-4,25-3,10-8,20-10,30-2,6-1,13-3,19-3,11-23,17-20,30,1,6,8,7,13,8,12,3,24,1,36-1,4,0,9,1,12-2,7-8-2-21,1-30,1-6,7-11,10-17,7-12,12-25,16-38h1c0,12,3,26,8,37,2,7,10,17,9,24,0,13-19,21-10,36s31,0,43-3c6-1,15,1,18-7,4-11-4-21-6-31-2-12,1-23-1-35-2-9-9-19-9-27,0-6,5-13,6-19l38,18,16,9c0,9,0,19,1,27,1,4,5,8,4,12-3,8-22,16-18,25,3,5,9,6,14,7,12,3,43,8,51-3,4-5,4-13,4-19,0-15,2-31-2-45,13,8,16,24,22,37,2,5,7,12,6,17-3,8-27,21-16,32,3,3,9,3,13,4,12,4,46,9,52-6,5-14,4-39,0-54-2-9-7-16-8-25,0-8,5-17,6-25,1-12-3-22-3-33,0-7,2-15,2-22,11,29-1,60,7,90,2,4,2,29,11,26,3-1,4-6,3-9-3-12-8-22-8-35,0-6,3-13,4-19,4-37,10-88-22-116-14-12.1-29-20.9-45-30.9-12-7.8-25-17-39-20.1-11-2.3-22,1.1-33,0.6-23-1.2-47-5.6-70-7.8-11-1-21,1-32-1-23-4.4-40-21.9-63-27.6-7-1.8-20-0.6-27,0.7-7,1.2-11,6.1-16,10-15.7,11.1-36.3,29-45,46.7-5.3,10.8-5.9,25.3-9.3,37-5,17-14.5,31-17.3,49-2.9,19,1.6,38,1.6,57,0,14-7.9,31-2.9,45,7,19,44.3,25,46.9,0z" stroke="#091e2d" fill="#2b453c"/>
    <path id="seahorse" d="M 139,440 c-61.7-19-95.9-81-70.5-142,12.8-28-24-7-36.6-7,5.7-10,7.1-15,4.2-19-2.8-4-15.1-4-25.7-7,7.5-7,24.5-6,25.9-17,1.4-10-18.2-6-26.5-13,7.36-4,26.4-2,30-14,2.7-9-14.7-18-14.9-25,22.5,12,38.7,10,53.6-4,0.7,0,1.7,2,4.3,12,2.6,11,7.4,18,19.2,13,11-4,14-7-1-21-30.2-31-22.5-70,7-105,5-5.7-7-12.6-12.7-16-5.6-3.6-5.2-4.6-4.7-6.8,12.4-9,19.4-12.4,11.4-30.8,6-3,13-0.6,19-4.6,8-3.5,2-16,6-20,7,0.6,10,8.8,17,8.2,10-1.7,19-16.6,25-12.6,0,4.28-2,8.78,1,9.48,6,1.1,18-6.7,20-4.6,2,1.8-10,12.4,4,12.3,13,0,25,14.1,28,28.1,6,29.6,26,47.5,49,66.5,10,6,9,12,3,17s-17,5-26-1c-9-7-13-7-34-9s-27-4-32-8c-6-4-9-15-9-18,0-3.3-5,6-9,13-4,8-2,15,28,32,30,16,55,36,56,70,0,24-12,48-62,67-56,20-81,66-41,113,28,26,69,12,69-26-1-25-26-36-43-13-8,12-13,11-10-2,3-16,23-27,42-26,34,2,45,33,36,61-14,44-58,60-100,50z" stroke="#4e300c" fill="#e5dc27"/>
    <path id="chipmunk" d="M 246,188 l3,12h2l5-6c0,4,1,6,5,7,3-5,8-2,13-1l-2-9c9-2,0-9,0-14l-42-3v-2c11-4,22-17,23-29,18,9,34,3,52,1,2,12,31,21,40,15l14,5,10,10,18-2v-2l-7-3,12-3c-3-5-10-4-15-4v-1l6-5c-8-6-23,3-32-2-7-4-8-25-1-23l-1-4h1l2,2-1,4c2,0,3,2,6,2,5,0,9-2,14-2,11-1,18,1,29-1,6-1,16-5,19-10,4-6-5-20.4-8-25.1-11-17.8-26-23.6-42-35.4-7-4.5-11-11.5-19-13.6-7,8.7-18,2-18,16-12-4.8-23-7-34-10.8-7-2.2-12-6.7-19-8.8-25-7.6-48-6.8-72,2.5-7,2.9-14,4.2-20,9.5-8,6.8-13,15.8-18,24.6-6,9.3-11,17.5-14,28.1-3,11,4,20,4,31l2,3,2-1,7,15c-13-6-29-15-38-27-10-12-11-27-19-40.1-9-16-22.4-29.6-34.7-43.3-6.1-6.9-13.1-12.9-19.1-19.8-4.7-5.3-8.5-12.5-16.3-13.7-3.4-0.5-6.7,0-10,0.5-23.3,3.3-14.7,21.7-8.6,37.3,11.6,29.6,29.7,56.1,48.4,81.1,4.2,5,6.2,12,10.7,18,15.2,18,45.6,31,69.6,31,13,0,25-5,38-4,19,2,36,11,55,13z" stroke="#6a2a16" fill="#9b3d20"/>
    <path id="orangutan" d="m 50,377 ,0-0.71c6.15-4.75,6.88-13.2,11.5-19.1,4.98-6.36,11.8-11.4,15.9-18.4,4.18-7.17,4.9-15.7,8.92-22.7,4.68-8.2,12.3-15.2,14-24.8h0.7c0,9.44-5.85,32.8,7.09,35.5v0.71c-8.3,2.29-19.3,14.2-10.5,22.4,5.15,4.78,19.5,5.74,26.1,4.53,0.54,6.82-1.62,21.4,3.2,26.7,3.48,3.84,10.7,1.9,15.2,2.98,13.8,3.28,34.4,13.4,46.6,1.83,8.12-7.69,0.38-27.6-9.06-30.7-8.4-2.75-17.1,1.97-25.5,1.97,0.5-11.5,12-24.3,17.7-34,8.07-13.8,2.08-33.8-3.39-49.1l-2.97-11.8-0.55-13c5.27,12.2,27.7,56.1,37.5,65.2,6.58,6.06,16.5,10.3,21.5,18,2.33,3.62-0.1,9.39-0.1,13.5,0,5.09,2.39,10.8,4.02,15.6-7.07,1.69-11.5,2-9.93,10.6-1.52-1.24-3.53-3.82-5.66-3.81-5.06,0-1.74,8.18-0.26,10.2,3.42,4.6,8.72,3.26,13.7,3.64,10.3,0.79,23.8,5.79,30.4-5.74,5.1-8.9,1.12-23.4,2.07-33.3,1.75-18.4-9.18-31.9-16.7-47.5-12.6-26.2-25.8-53.2-25.7-83,0-13,3.67-25.4,4.23-38.3,0.93-21.3-1.77-43,0.87-63.8,0.67-5.34,4.89-9.73,9.09-12.7,2.93-2.1,7.56-4.16,6.83-8.54-1.7-10.3-6.71-19.3-11.9-28.3-1.39-2.4-4.73-2.71-5.83-5.2-2.36-5.34,4.91-9.26,2.59-14.6-1.5-3.44-7.88-6.74-10.6-9.56-8.95-9.2-16.2-21.4-28.6-26.5-18.5-7.62-43.4,14.4-48.2,31-2.44,8.35-1.43,21.5-9.25,27.1-9.07,6.47-19.1,10.8-27.7,18.4-6.46,5.76-10.6,13.7-17.1,19.2-5.79,4.98-14.4,6.61-19,12.5-4.55,5.82-5.61,12.5-8.33,19.1-3.67,9.05-7.09,17.5-9.79,27-2.23,7.83-6.44,14.9-8.58,22.7-3.24,11.8-3.55,25.4-4.72,37.6s-4.2,24.5-3.36,36.9c0.77,11.3,9.71,16.6,11.9,26.9,0.87,4.12-2.17,8.65-2.61,12.8-1.01,9.44,0.39,19-0.2,28.4-0.51,8.19-12.1,15.3-16.4,22-6.07,9.33-6.24,20-9.33,30.5-2.3,7.83-6.31,14-4.32,22.7,2.43,10.5,10.9,10.5,19.5,13.1,13.2,3.94,26.2,11,40.4,6.22,6.64-2.24,15.9-11.6,12.8-19.3-1.63-3.92-6.64-6.84-9.92-9.3-6-4.51-14.7-7.87-20.9-12.2" stroke="#2e1e35" fill="#4f3c50"/>
    <path id="rottweiler" d="M 111,523 s-4-1-9-1c-10,0-10,0-13.5-3-1.8-2-4.4-3-6.2-5l-2.6-2,0.9-16v-15l-1.8-3c-2.6-2-3.5-2-7-2-2.6,0-3.5,0-5.2,3-3.6,4-7,5-14.9,8-7.1,1-12.3,1-14.9-3h-10.6l0.9-5c0.9-11,1.7-22,0.9-24,0-2-1.8-5-3.5-8-2.7-5-2.7-6-1.8-11,0-4,0-7-0.9-8-0.8-2-1.7-4-1.7-6s-1.8-6-4.4-11c-6.13-12-7.01-14-6.13-26,0.83-6,0.83-11,0.83-12-0.83-2,0.9-4,6.2-11l7-10,3.5-14c1.7-8,3.5-14,3.5-16,0.9,0,0.9-3,0.9-4,0-2,0.9-3,2.6-4,3.5,0,8.8-6,13.2-12,3.5-5,4.4-6,4.4-12,0-4-0.9-8-1.8-11s-0.9-5,0-12c2.6-14,7.9-25,20.2-40,5.2-6,6.1-6,7-12,0.9-4,4.4-18,8.7-32,6.2-24,7-26,7-35,0-8,0-8-4.3-17-2.7-7-4.4-11-9.7-15-5.2-6-12.2-10-15.8-10-2.6,0-13.1-8.1-13.1-9.7s-8.8-13.6-14.9-20c-6.2-7.2-7.9-12.9-6.2-22.5,0.9-2.4,0.9-5.6,0.9-7.2,0-3.2,0.9-4.8,1.8-6.4,1.7-1.6,1.7-2.4,0.9-3.2-0.9-0.8-0.9-1.6,0-4.8,1.7-7,2.6-7.6,8.7-7.1,2.7,0.3,11.4,0.7,19.3,1.5s14.9,1.6,16.7,2.4c4.4,0,6.1-0.8,4.4-3.2-0.9-1.8,0-2.9,3.5-4,3.5-0.8,4.4-2,4.4-4.2,0-1.9,0-2,4.3-1.5,4.4,0.5,4.4,0.2,8.3-2.5,6-5.16,8-5.8,19-5.72,12,0.08,22,2.09,32,6.82,18,7.9,30,17.5,39,29.5,2,2.4,5,6.4,8,8.8,9,7.2,20,16.1,21,17.7,0,1.6,1,8.8,2,16,1,14.3,3,24.3,6,34.3,2,6,1,7-3,6-3-3-8-7-10-12v-5h-6c-7,0-8,0-8,6,0,4,5,21,12,38,2,8,11,26,16,30,0,3,1,4,1,10s0,9,2,15c2,3,4,9,4,12,1,4,2,8,4,12,13,30,15,49,5,65-3,4-3,6-5,16-3,18-7,40-9,47-3,11-7,34-7,48v19c-1,5,0,11,1,16,2,13,2,14,4,14,0,0,0,2,1,6,0,2,2,7,3,11,2,5,2,5,0,9-1,5-1,5-7,7-7,1-12,1-17,0-2-1-5-2-6-2s-4-1-7-1c-4-2-4-3-4-5,0-1-1-4-2-7-2-5-5-8-17-8-7-1-7-1-11-4-3-4-12-11-16-12-1,0-2-1-3-3-4-3-9-3-12,0-1,2-2,2-7,2s-5,1-10,5c-4,4-5,6-5,8-1,5,2,16,6,17,2,1,2,1,2,4s0,4,1,6c4,5,6,12,7,16,0,4,0,5-2,7s-3,4-3,6c0,1-1,2-3,3-5,1-6,1-7,0z" stroke="#605923" fill="#e0c59e"/>
    <path id="galliminus" d="M 345,8.9 c-4,0.23-9,1.59-11,4.49-3,4.2-5,11.2-5,17,0,8.5,4,17.2,5,25.9v21.4c-1,5.8-3,11.8-5,17-2,4.1-4,10.3-8,11.3-8,2-19,0-29-1-8-1-15-4-23-4-12,0-23,2-34,4-13,2-25,7-37,10-7,2-15,5-22,7-7,1-14,4-21,4-8,1-17,2-26,1-12-1-25-4-36.9-5-13.9,0-27.9,2-41.7,4-9.8,1-20.6,1-29.4,5-7,3-14.1,9-18,16-2.03,3-1.92,12,0,12,3.04,0,8.91-10,14.7-13,9.2-4,20.3-6,30.4-6,10.5,0,21.1,4,31.6,6,11.4,2,22.3,4,34.3,7,13,4,26,10,40,13,15,2,31,0,44,4,4,1,2,8,5,10,2,2,9,0,9,2-1,5-7,15-12,20-1,2-6-1-8,0-2,2-2,6-3,9,0,2,1,5,1,7-4,10-10,21-14,32-1,5-1,10-1,16,0,1,0,3,1,4,3,4,7,7,10,11,1,2,1,7,3,7,7,0,22-4,23-7,2-2-10-5-14-8-4-4-10-8-10-12,1-11,6-24,11-35,4-7,15-18,17-19,1-1-11,10-9,13,2,4,13,5,20,8,7,2,13,5,20,7,5,2,11,1,15,4,5,4,9,11,13,17,2,3,2,11,3,10,2,0,3-12,5-11,2,0,3,14,5,15,2,0,8-8,8-12-3-8-10-20-17-26-8-5-20-4-29-8-7-2-14-4-20-8-1,0-2-3-2-4,4-7,10-13,14-20,1-3-1-8,1-9,3-2,9,1,13,0,7-3,14-8,22-13,3-2,8-9,11-9,2,0,5,7,6,10,0,4-3,9-1,12-1,3-1,11-1,13,1,0,2-5,2-7,1-1,1-1,2-2,1,1,2,2,3,4,1,3,2,12,2,11,1-2,2-10,2-16,1,0,1-1,1-1,1,0,1,1,1,1,1,2,2,7,2,7,1-2,1-10,0-13h-1s1-1,1-1v-11c-2-5-7-10-7-13,0-2,6-3,8-1,3,3,6,9,8,15,1,3-2,7-1,10v1h-1v13s1-5,2-7c1-1,1-1,1-2,1,0,1,1,1,1,0,6,1,15,2,17,1,1,2-8,3-11,1-2,2-3,3-4,0,1,1,1,1,2,1,2,2,7,2,7v-13l-1-1c1-1,2-2,2-3,2-4,0-10-1-15-1-6-6-11-7-16,0-3,4-6,6-9,4-5,8-11,11-17,4-8,8-15,9-22.8,2-8.3,3-17.1,3-25.6,0-8.3-4-16.8-3-24.8,1-5.1,4-11.9,8-14.4,5-2.6,13,0,18-0.9,1-0.1,2-1.7,1-2-4-2.3-16-4.4-16-5.7,1-1.3,19-0.2,18-2.2,0-2.5-12-8.3-19-11.3-4-1.9-9-3.61-14-3.39z" stroke="#68422d" fill="#be9986"/>
    <path id="stegosaurus" d="M 264,9 c-4,10.8-13,19.4-22,23.7-2,20.1-21-8.4-30-13.3-21-13.8-3,20.7-19,24.9,4,12.2-18-2.6-24-7.1-9-4.5-20-1.7-12,9.3,5,22.8-23-6.7-30,7.4,13,10.7-1,25,12,33.7-11-2.2-36-14-27,7-6,4.8,4,15.6-2,13.6-8-2-29-10.1-17.6,6-0.6,10,9.6,23-8.4,25-18.4,9-3.5-20-12-29-5.6-1,3.8,44-9.6,26-10.3-5-9.6-22-10.7-27-0.4,10-1.3,16-8.3,5-9.5-7,13,16,5.5,24-4.1,17-20.4-12-25.5-19-11.5-17,2.1,15,7.1,20,19.1,16-40.2-7-14.6,7,34.3,16,72.9,17,110,16,18,4,40-13,54-7-2,11,28,11,9,21-11,14-15,32-21,48-2,17,21,25,31,18-14-12-15-31,2-40,16,1,19-23,35-11,6,15,19,24,17,42,7,13,29,11,41,10-5-16-34-15-24-37-6-23,22-13,35-9,6,14,7,30,16,42,6,6,48,8,27-6-20-4-13-26-17-40,9-14,16-1,21,7,11,1,32,12,24,25,4,8,24,16,28,11,17-2-12-8-6-18,5-20-18-22-21-37-1-10,25-3,34-11,17-2,33-6,48-12,3-18-29-7-27-20-2-12-11-18-12-2-3,4,4,8-5,7-2-8,0-26-11-14,1-13-5-6-10-5-1-4-2-21-9-10,1-11-4-16.4-11-6-5-9.4,0-35.6-11-33.9-11,20.9-5-30.1-17-8-1-9.6-4-40.6-15-20.3-15,16.7-22-4.5-29-15.4-12-13.2-16,34.8-24,3.2-3-9.1-4-20.2-14-24.8z" stroke="#091e2d" fill="#579333"/>
  </defs>

  <linearGradient id="flx" gradientUnits="objectBoundingBox" x1="0" y1="0" x2="1" y2="0.3" gradientTransform="rotate(0 200 200)">
    <stop offset="0" stop-color="gray" id="grd"/>
    <stop offset="1" stop-color="#eee"/>
    <animateTransform attributeName="gradientTransform" type="rotate" values="0; 360" dur="7s" begin="0s" repeatCount="indefinite"/>
  </linearGradient>

  <polyline stroke="black" stroke-width="4" fill="url(#flx)" stroke-linejoin="round" id="canvas">
    <animate id="filler" attributeName="fill-opacity" begin="indefinite" dur="1s" repeatCount="1" from="0" to="1" fill="freeze"/>
  </polyline>

  <g id="pen" display="none">
    <g stroke="black" stroke-width="5" opacity="1">
      <path d="m 52.601,-215.2 c -21.31,37.41 -33.45,79.25 -44.1503,120.735 -5.85,25.04 -11.11,50.53 -10.82,76.359 17.4203,17.0898 26.2303,-8.81 33.0403,-21.679 23.81,-48.92 41.77,-100.835 53.17,-154.025 8.73,-18.1 -19.64,-19.54 -31.24,-21.39 z" fill="#8c9fbd"/>
      <path d="m 129.25,-393.93 c -17.39,0.26 -25.17,20.36 -33.408,32.96 -19.66,38.34 -34.41,79.73 -40.25,122.52 -5.42,18.47 19.72,11.56 29.19,19.37 13.98,5.56 16.548,-16.17 22.458,-29.26 15.63,-37.75 29.2,-77.24 31.96,-118.27 -0.15,-9.31 0.31,-23 -9.95,-27.32 z" fill="#8c9fbd"/>
      <path d="m 49.326,-222.77 c 1.48,13.72 24.65,6.48 34.13,15.54 19.244,0.59 -2.36,-22.99 -13.78,-20.5 -6.7,-0.98 -17.38,-3.4 -20.35,4.96 z" fill="#fae472"/>
      <path d="m -1.3493,-16.903 c -2.91,7.0298 -1.53,27.32 8.04,13.8399 11.1103,-12.9999 2.56,-8.0499 -8.04,-13.8399 z" stroke-width="3" fill="#31453c"/>
      <path d="M 9.2807,-39.866 C 18.581,-94.326 31.454,-148.63 52.824,-199.66 c -7.84,48.5 -24.41,95.03 -38.183,142.094 -1.79,5.9 -3.58,11.8 -5.3603,17.7 z" fill="#ddf" stroke="none" stroke-width="0"/>
      <path d="m 69.787,-239.09 c 7.08,-39.4 17.11,-78.89 35.323,-114.73 7.54,-4.91 -0.85,21.72 -2.66,28.81 -10.883,28.64 -21.773,57.28 -32.663,85.92 z" fill="#ddf" stroke="none" stroke-width="0"/>
      <animate attributeName="opacity" begin="animMain.begin" dur="1s" repeatCount="1" from="0" to="1" fill="freeze"/>
      <animate attributeName="opacity" begin="animMain.end-1s" dur="1s" repeatCount="1" from="1" to="0" fill="freeze"/>
    </g>

    <circle id="point" r="1" visibility="hidden">
      <set id="anim" attributeName="visibility" to="hidden" begin="indefinite"/>
    </circle>
    <animateMotion begin="anim.begin" dur="12s" repeatCount="1.01" rotate="0" fill="freeze" id="animMain">
      <mpath id="line" xlink:href="#aniPath3"/>
    </animateMotion>
  </g>

  <text x="480" y="195" fill="#a63" stroke="black" font-size="32px" font-weight="bold" font-family="serif">Drawing Animals Demo</text>
  <text fill="black" font-size="15px" fonr-weight="bold" font-family="serif" x="650" y="215" font-style="italic" stroke="none">by Marek Raida</text>
  <text fill="gray" font-size="19px" font-family="serif" x="490" y="245" stroke="none">Select animal to draw:</text>
  <g fill="#008" font-size="17px" id="txt" font-family="serif"><text x="500" y="245" cursor="pointer" stroke="none"> </text></g>

  <script>
    var canvas = document.getElementById("canvas");
    var point = document.getElementById("point");
    var running = false;
    var y = 250;
  
    function start(evt) {
      if (running) return;
      running = true;
      evt.target.setAttribute('stroke', 'blue');
      canvas.setAttribute('fill', 'none');
      canvas.setAttribute("points", "" + document.getElementById(evt.target.firstChild.data).getAttribute("d").split(" ")[1] + " ");
      document.getElementById("line").setAttributeNS("http://www.w3.org/1999/xlink", 'href', '#' + evt.target.firstChild.data);
      canvas.setAttribute('stroke', document.getElementById(evt.target.firstChild.data).getAttribute('stroke'));
      document.getElementById("anim").beginElement();
      window.setTimeout("draws(333)", 50); // how many draws MAX to do...
      window.setTimeout(function(){end(evt)}, 12000);
      document.getElementById("pen").setAttribute('display', 'block');
    }
  
    function draws(cnt) {
      var c = point.getScreenCTM();
      canvas.setAttribute("points", "" + canvas.getAttribute("points") + " " + c.e + "," + c.f );
      if (cnt) window.setTimeout("draws(" + (--cnt) +")", 40);
    }
  
    function end(evt) {
      evt.target.setAttribute('stroke', 'none');
      document.getElementById("grd").setAttribute('stop-color', document.getElementById(evt.target.firstChild.data).getAttribute('fill'));
      canvas.setAttribute('fill', "url(#flx)");
      document.getElementById("pen").setAttribute('display', 'none');
      document.getElementById("filler").beginElement();
      running = false;
    }
    
    // display clickable animals names
    var anims = document.getElementById('animals').getElementsByTagName('path');
    for (var i in anims) {
      if (!anims[i].getAttribute) continue;
      y = y + 22;
      var b = document.getElementById("txt").firstChild.cloneNode(true);
      b.setAttribute('y', y);
      document.getElementById("txt").appendChild(b);
      b.firstChild.data = anims[i].getAttribute('id');
      b.addEventListener('click', function(evt){start(evt)}, false);
    }
  </script>

  <image xlink:href="http://www.google-analytics.com/__utm.gif?utmwv=4.7.1&amp;utmn=21830374&amp;utmhn=svg.kvalitne.cz&amp;utmcs=UTF-8&amp;utmsr=1920x1080&amp;utmsc=24-bit&amp;utmul=en-us&amp;utmje=1&amp;utmfl=10.0%20r45&amp;utmdt=SVG%C2%A0%E2%80%94%C2%A0It%27s%20in%20your%20hands...&amp;utmhid=1377849700&amp;utmr=-&amp;utmp=%2Findex2.htm&amp;utmac=UA-11950721-1&amp;utmcc=__utma%3D251371972.1884550355.1260220320.1272562824.1272576758.56%3B%2B__utmz%3D251371972.1263752798.41.3.utmcsr%3Dgoogle%7Cutmccn%3D(organic)%7Cutmcmd%3Dorganic%7Cutmctr%3Dsvg%2520smil%2520demo%3B" width="1" height="1"/>
</svg>