<svg xmlns="http://www.w3.org/2000/svg" xmlns:xlink="http://www.w3.org/1999/xlink" width="781px" height="492px" viewBox="0 0 781 492" xml:space="preserve" zoomAndPan="disable" xmlns:html="http://www.w3.org/1999/xhtml" font-family="Helvetica, sans-serif">
<title>Introduction for Pasic company CD-ROM catalogue, created by Marek Raida in 2003, modified a bit in 2010 for cross-browser compatibility, missing original images replaced</title>
<script type="text/ecmascript" xlink:href="../fakesmile/smil.user.js"/>
<defs>
	<g id="krouzek" transform="scale(0.17 0.17)" style="fill-rule:nonzero;clip-rule:nonzero;fill:red;stroke-miterlimit:4;">
		<path d="M37.2,41.2c7.5-0.2,5.3-2.1,6.6-4.4c1.1-1.9,6.4-3.1,2.4-5.6C38.8,26.5,23,19.5,17.3,16.9c-3.2-1.3-4.9-1.6-5.1,4c-0.1,2.7,5.5,3.9,5.4,4.9c-0.4,4.3-4.8,0.8-15.4-2.4c-2.1-0.6-3.1,3.3-1.9,4.5c0.9,0.9,3,2.1,3.3,3.7c0.5,2.1,0.4,5.2,1.8,5.2
			c8.5,0.3,17.5,3.3,28.7,4.3h3z"/>
		<path d="M43.5,54.9c7.2,0.5,6.1-0.8,9.2-1.1c4.2-0.5,8.7-0.9,10.9-0.3c3.6,1.1,3-0.5,5.4-0.2c4.6,0.7,5.7-0.6,7.6-2.4c3.9-3.8,7.8-11.4,12.4-14.9c3.5-2.6,2.7-5.1,5.2-7.3c3.2-2.9,2.7-8.6-1.4-9.7c-3.6-0.9-5.2-1.5-5.2-3.7c0-2.4-2.2-3.9-3.3-4.4
			c-3.5-1.4-11.3-2.5-11.8-0.6c-0.1,0.6,0.2,1.8-1.9,1.9c-2.3,0.5-7.1,1.9-1,6.8c1,0.9,0.1,1.4,0,1.6c-1.5,3.5,4.4,7.9,1.9,8.1c-4.1,0.4-3.5-2.9-6.2-5.1c-5.7-4.5-2-4.3-3.8-8.5c-1.3-3.3-2.4-7.2-3.6-10.1C56-1.2,54,2.3,45.1,0C39.6-1.4,34,1.6,34,3.2
			c0,5.8,7.8,17.1,9.4,22.2c0.8,2.9,1.7,2.2,3.1,2c3.8-1.6,8.1,1.1,8,3.3c-0.1,4.4-5.4,3.3-5.8,4.6c-0.8,1.4,3.9,3.6,3.9,5.1c1.3,1.3,0.6,2.7-1,2.7c-10,0.2-40.1-2.9-40.2,1.1c-0.4,3.7,5.2,2.9,6.7,2.9c3.9,0.9-2.1,3.3,1.6,5.7c4.5,3.3,19.2,1.7,23.9,2z"/>
		<path fill="green" d="M102.6,57.8c-18.4-1.2-34.7-1.5-47.3,1.5c-11,2.5-21.6,4.5-31.9,3.8c-4.6-0.3-5.2,1.5-0.7,2.5c9.5,2.2,19.2,3.4,30.9,5.5c12.3,2.2,23.2,2.2,33.5,0.4c9.5-1.7,18.1-9.3,26.5-9.4l1.2,0c0-1.4,0.1-2.9,0.3-4.3h-12.4z"/>
	</g>

    <path id="SR" d="M103.2,5.7c-0.5-0.1-1.1-0.3-1.7-0.1c-0.2,0.1-1.2,0.4-1.2-0.1c-0.2,0.3-0.6,0.3-0.9,0.4c-0.4,0.1-0.7,0.4-1,0.6c-0.6,0.4-1.2,0.9-1.9,1.1c-0.6,0.2-1.3-0.4-1.9-0.6c-0.6-0.2-1.2-0.2-1.8-0.1c-0.7,0.1-1.4,0.5-2.1,0.4
    c-0.3,0-0.1,0.3-0.4,0.2c-0.2-0.1-0.4-0.2-0.5-0.4c-0.3-0.4-0.5-0.8-1-0.7c-0.3,0-0.5,0.2-0.6,0.5c0,0-0.1,0.5-0.1,0.5c-0.5-0.1-0.2,1.2-0.6,1.1c0.1,0-0.6,1.3-0.6,1.4c-0.4,0.8-1.1,1.1-1.6,1.9c-0.4,0.5-0.8,0.9-1.1,1.4c-0.3,0.5-0.5,1.1-0.9,1.5
    c-0.3,0.3-1.4,0.5-1.7,0.5c-0.4,0-1.6,0-1.9,0.3c-0.2,0.2,0.4,1.5,0.5,1.8c0.1,0.3,0.2,0.6,0.2,1c0,0.3-0.3,0.4-0.5,0.6c-0.3,0.4,0.2,0.9-0.1,1.2c-0.4,0.4-0.5,0.5-0.6,1.1c-0.1,0.7-1.6,1-2.2,1c-0.7,0.1-1.3,0.2-2,0.5c-0.6,0.2-1.3,0.1-1.9,0.3
    c-1.2,0.2-2.5,0.5-3.5,1.3c-2.1,1.5-1.8,3.8-2.2,6.1c-0.1,0.8-0.1,1.6-0.3,2.4c-0.1,0.3-0.1,1.2-0.4,1.4c-0.3,0.1,0.1,0.9-0.4,1.1c-0.5,0.2-0.9,0.3-1.2,0.7c-0.4,0.5,0,1.1,0.2,1.6c0.3,0.5,0.5,0.5,0.1,1.1c-0.5,0.7-0.1,1.9-0.3,2.8c-0.3,1.3-0.7,2.3-1.7,3.2
    c-0.1,0.1-0.3,0.4-0.5,0.4c-0.2,0-0.3-0.1-0.4,0.1c-0.1,0.3-0.6,0.5-0.8,0.6c-0.7,0.5-1.8,0.7-2.6,0.9c-0.4,0.1-0.9,0.3-1.3,0.3c-0.5-0.1-0.3,0.3-0.7,0.3c-0.8,0-1.9-0.2-2.6,0.4c-0.6,0.6-0.5,2.1-0.6,2.9c-0.1,0.7-0.4,1.3-0.5,1.9c0,0.2,0,0.9-0.2,1
    c-0.1,0-0.2-0.1-0.2,0c-0.1,0.1,0.1,0.4,0,0.5c-0.3,0.2-0.7,0.3-1.1,0.3c-1.3,0-2.4,0-3.4,0.9c-0.4,0.4-1,0.7-1.4,1.1c-0.3,0.3-0.7,0.3-0.9,0.6c-0.4,0.5-0.8,1.8-1.6,1.7c-0.3,0-1.1,0.8-1.4,1c-0.5,0.3-1,0.6-1.6,0.9c-0.8,0.4-2.1,0.3-2.7,1.2
    c-0.1,0.2,0,0.4-0.2,0.5C38.3,62,38.1,62,38,62.1c-0.4,0.3-0.6,0.9-1,1.2c-0.6,0.4-1,0.7-1.7,0.7c-0.2,0-0.2,0.4-0.4,0.2c-0.6-0.4-1-1-1.5-1.5c-0.8-0.7-1.3-1.8-2.5-1.5c-0.3,0.1-0.6,0.1-0.8,0.4c-0.3,0.3-0.4,0.7-0.8,0.8c-0.3,0.1-1.3,0.7-1.4,0.9
    c-0.1,0.4-0.7-0.1-0.9-0.2c-0.9-0.5-1.5-1.5-2.5-1.7c-1.2-0.2-2.2-0.5-3.3-1.2c-0.4-0.3-1.1-0.5-1.6-0.5c-0.4,0-0.6-0.4-0.9-0.5c-0.5-0.1-1.7-0.6-2.1-0.1c-0.3,0.4-0.8,0.8-1.1,1.4c-0.3,0.8-0.8,1.2-1.3,1.8c-0.5,0.5-0.8,1-1,1.6c-0.2,0.4-0.2,0.9-0.5,1.2
    c-0.2,0.2-0.1,0.5-0.2,0.6c-0.2,0.2-0.5,0.2-0.7,0.5c-0.4,0.5-0.8,1-1.2,1.5c-0.6,0.8-1.6,1.3-1.6,2.5c0,0.6-0.7,1.4-0.9,1.9c-0.1,0.2-0.2,0.4-0.4,0.6c-0.2,0.3-0.5,0.2-0.8,0.3c-0.5,0.2-0.6,0.9-0.7,1.3c-0.1,0.4-0.3,0.6-0.4,1c-0.1,0.3-0.1,0.7-0.4,0.8
    c-0.2,0.1-0.3,0.1-0.5,0.2L4,76.4c0,0,0.4,1.6,1.3,1.8c-0.1,0.4-0.7,0.6-0.7,1.1c0,0.5,0.3,0.9,0.2,1.3c-0.1,0.7-0.1,0.7,0.1,1.4c0.2,0.6,0.6,1.2,0.6,1.8c0,0.9-0.5,1.6-1.3,2c-0.4,0.2-0.4,0.7-0.5,1c-0.2,0.6-0.7,0.4-1,0.7c-0.2,0.3,0,1-0.4,1.2
    c-0.5,0.3-1,0.7-1.2,1.3C1,90.3,1,90.6,0.9,90.8c-0.1,0.2-0.4,0.4-0.4,0.6c-0.2,0.6,0.3,1.5,0.4,2.1c0.1,0.5,0.2,1.2,0,1.8C0.7,95.7,0.1,96,0,96.5c-0.2,0.6,0.2,2.1,0.9,2.1c0.4,0,0.8-0.1,1,0.3c0.2,0.4,0.3,1,0.8,1.2c0.4,0.1,1,0.4,1.1,0.9
    c0.1,0.3-0.4,0.6-0.6,0.8c-0.6,0.6,0.8,1.8,1,2.4c0.4,1.1,2.1,0.3,1.8,2c-0.1,0.6-0.3,1.1-0.1,1.7c0.2,0.6,0.6,1,0.8,1.6c0.2,0.6,0.3,1.2,0.5,1.8c0.2,0.5-0.1,1.2,0.3,1.6c0.4,0.4,1,0.5,1.4,0.9c0.4,0.3,0.8,0.8,1.2,1.1c1.1,0.7,1.1,1.6,1.6,2.7
    c0.2,0.4,0.4,0.5,0.8,0.7c0.2,0.1,0.7,0.1,0.6,0.5c-0.2,0.5-0.7,0.8-0.8,1.4c-0.1,0.3,0,0.6,0.1,0.8c0.2,0.3-0.2,0.4-0.2,0.7c0,0.4,0.5,0.4,0.5,0.7c0,0.5-0.3,0.9-0.4,1.3c-0.1,0.5,0.4,0.9,0.9,0.7c0.2-0.1,0.4-0.3,0.7-0.4c0.3-0.1,0.5,0.3,0.7,0.3
    c0.6,0.1,0.7,0,1.1,0.5c0.3,0.4,0.6,0.8,1.1,0.6c0.5-0.2,0.9-0.5,1.5-0.6c0.7-0.1,1.5-0.1,2.2-0.1c0.9-0.1,1.1,0.9,1.4,1.6c0.2,0.3,0.4,0.8,0.8,0.9c0.5,0.1,1-0.2,1.4-0.1c0.4,0.1,0.5,0.5,0.9,0.7c0.3,0.2,0.9,0.2,1.3,0.2c0.3,0,0.7-0.1,1,0.1
    c0.4,0.3,0.7,0.7,1,1.1c0.7,0.9,1.5,1.5,2.3,2.3c1,1,1.6,2.2,2.4,3.3c0.8,1.1,1.8,2,2.6,3c0.7,0.8,1.5,2.3,2.5,2.7c0.5,0.2,0.9,0,1.4,0c0.7,0,1.1,0.5,1.6,0.9c1.1,0.9,2.4,1.5,3.4,2.5c0.8,0.8,0.4,1.6,1.7,1.8c0.5,0.1,1.3,0.1,1.7,0.4c0.5,0.4,0.7,0.7,1.3,0.4
    c1-0.5,1.7,0.1,2.7-0.2c0.6-0.2,1.2,0,1.9,0.2c0.6,0.2,1.2,0,1.8,0c0.9,0,1.3-0.1,1.8-0.9c0.8-1.2,2,0.7,3.1,0.4c0.4-0.1,0.6-0.5,1.1-0.6c0.6-0.1,1.1,0,1.7-0.1c1.6-0.1,2.9,0.4,4.4,0.9c1.3,0.4,2.7,0.5,4,0.3c0.7-0.1,1.3,0,2,0.1c0.6,0.1,1.2,0.4,1.9,0.4
    c0.7,0,1.3-0.3,1.9-0.5c0.7-0.2,1.4-0.2,2-0.3c1.3-0.2,2.2-1,3.4-1.6c0.8-0.4,1.8,0.1,2.4,0.5c1.1,0.7,2.1-0.4,3.2-0.7c1.2-0.3,2.3-0.1,3.4,0.4c1,0.5,2.4,0.7,3.4,0.1c0.4-0.3,0.7-0.8,1.1-1.1c0.4-0.3,1-0.6,1.4-0.9c0.4-0.3,0.4-0.8,0.5-1.2
    c0.1-0.6,0.5-0.9,1.1-1.2c1.1-0.4,2.3-0.3,3.4-0.1c0.6,0.1,1.8,0.7,2.3,0.3c0.5-0.4-0.5-1.6-0.9-1.8c-0.4-0.2-0.7-0.1-1-0.6c-0.3-0.4-0.3-0.9-0.8-1.2c-0.9-0.5-1.8-1.6-1.8-2.7c0-1.6-0.1-3.2,0.1-4.8c0.1-1.1,0.1-2.1,1-2.8c0.6-0.4,1.4-0.4,1.2-1.3
    c-0.1-0.3-0.3-0.7-0.2-1.1c0.2-0.4,0.7-0.7,0.2-1.2c-1-1.1,1.5-1.3,2.1-1.3c0.9,0,1.9-0.5,2.3-1.3c0.3-0.6,0.6-0.6,1.2-0.6c0.3,0,0.4-0.2,0.6-0.2c0.3,0,0.5,0.4,0.7,0.5c0.4,0.3,0.8,0.5,1.2,0.8c0.4,0.3,0.9,0.1,1.3-0.2c0.3-0.2,0.8-0.7,1.1-0.7
    c0.4,0,0.8,0.4,1.1,0.7c0.9,0.7,1.2-0.2,2-0.4c0.4-0.1,0.8,0.1,1.2,0.1c0.6,0.1,0.9,0,1.5-0.1c0.7-0.2,0.8,0.4,1.4,0.4c0.7,0,1.4,0.2,2,0.2c0.3,0,1.8,0.4,1.9,0.2c0.3-0.4,0.7-1.5,1.2-1.6c0.4-0.1,0.6,0.2,1.1-0.1c0.5-0.4,0.9-0.4,1.5-0.5c0.7-0.1,1.3-0.2,2-0.2
    c0.4,0,1.6-0.4,1.9-0.2c0.5,0.2,0.2,0.6,0.8,0.2c0.6-0.3,1.7-0.4,2.1-0.8c0.1-0.1,0.3-0.7,0.5-0.4c0.1,0.2,0.1,0.5,0.1,0.7c0.2,1.1,1.1-0.2,1.3-0.7c0.2-0.7,0.2-1.5,0.3-2.2c0-0.1,0-0.7,0.1-0.7c0.3-0.3,0.8-0.5,0.9-1c0.3-1.3,0-5.4,2.3-5c0.4,0.1,0.9,0.2,1.3,0.3
    c0-0.3,0.6-0.6,0.8-0.8c0.9-0.7,1.3-1.8,2.6-1.6c0.6,0.1,1.7,0.3,2,0.9c0.3,0.5,0.2,1.2,0.6,1.7c0.7,0.8,1.8-0.1,2.6-0.3c0.5-0.1,0.9,0.1,1.3,0.5c0.4,0.3,1.5,1.1,1.4,1.7c-0.1,0.5-0.6,0.8-0.6,1.3c-0.1,0.4,0.1,0.8,0.5,0.9l0.4,0c0.2,0,0.5-0.1,0.6,0
    c0.2,0.2,0,1,0,1.2c-0.1,0.5-0.5,0.8-0.4,1.3c0.1,0.5,0.7,0.7,1.1,0.4c0.3-0.1,0.4-0.4,0.7-0.4c0.2,0,0.4-0.1,0.5-0.2c0.5-0.4,0.6-0.7,1.3-0.4c0.9,0.4,2.4,0.6,2.8,1.8c0.1,0.4-0.3,0.9-0.3,1.4c0.1,0.6,0.8,0.4,1.2,0.2c1.2-0.6,1.7-1.9,2.8-2.7
    c0.5-0.4,1-0.5,1.6-0.6c0.3-0.1,0.8-0.6,1.1-0.4c0.3,0.1,0.3,0.5,0.6,0.7c0.4,0.2,1.6-0.6,2.1-0.8c-0.2-0.3-1-0.9-0.4-1.1c0.6-0.2,1.1-0.7,1.6-1c0.9-0.5,1.9-1.3,2.2-2.3c0.1-0.5-0.6-3.5,0.8-2.5c0.5,0.4,2.1,1.5,2.1,0.1c0-0.4,1.1-0.2,1.4-0.2c1,0,0.8-0.8,1-1.5
    c0.3-1.1,2.1,0.5,2.6,0.8c1.2,0.7,2.1-0.8,2.4-1.7c0.4-1.3,1.3-2.4,1.9-3.5c0.4-0.6,0.7-1.1,1.3-1.6c0.5-0.4,0.5-0.9,0.4-1.5c-0.1-0.7,0.2-1,0.5-1.6c0.3-0.5-0.1-1,0-1.6c0.2-1,1.2-2,2-2.5c0.2-0.1,0.9-0.5,0.8-0.8c-0.2-0.6-0.1-0.5,0.3-0.9c0.5-0.5,0.7-1.1,1-1.7
    c0.2-0.5,0.6-0.8,0.7-1.3c0.1-0.5,0.1-1-0.2-1.4c-0.1-0.2-0.7-0.8-0.5-1c0.3-0.2,0.8-0.4,1.2-0.4c0.5,0,0.6,0.6,1.1,0.6c0.2,0,0.3-0.8,0.7-0.9c0.5-0.2,0.9,0.2,1.4,0.3c0.6,0.2,0.7-0.3,1.3-0.3c0.5,0,0.7,0,1-0.4c0.3-0.4,0.6-0.4,1.1-0.4c0.5,0,0.3-0.4,0.5-0.7
    c0.2-0.4,1.1,0,1.5,0c0.5,0.1,0.8,0,1.1-0.4c0.6-0.8,2.7-0.4,3.5-0.5c1.4-0.2,2.6-0.5,3.9-0.8c0.5-0.1,0.8,0.4,1,0.8c0.3,0.6,0.5,1.1,1,1.5c1,0.8,2.2-0.9,3.1-0.2c0.1,0.1,0.7,0.9,0.6,0.9c0.5,0,0.6,0.7,0.8,1.1c0.3,0.6-0.1,0.9,0.7,1c0.3,0.1,0.8,0.1,1.1,0
    c0.2-0.1,0.3-0.3,0.5-0.4c0.2-0.1,0.4-0.1,0.6-0.2c0.5-0.3,0.7-0.4,1.3-0.3c0.6,0.2,1,0.6,1.6,0.6c0.6,0,0.9,0.2,1.4,0.5c0.7,0.5,0.2,1.6,1,2c0.8,0.4,1.7-1,2.1-1.5c0.2-0.3,0.5-0.7,0.8-0.9c0.4-0.2,1.2-0.1,1.7-0.2c0.7-0.2,0.8-0.4,1.1-1c0.1-0.2,0.9-0.1,1.1,0
    c0.5,0.1,0.8,0.5,1.3,0.7c0.6,0.2,1.2,0.4,1.9,0.5c1.1,0.2,0.4-0.7,0.7-1.3c0.1-0.1,0.7-1.4,0.6-1.4c1.3-0.3,2.7-0.2,4.1-0.5c0.7-0.1,0.6,0,1.2,0.2c0.5,0.2,0.4-0.5,0.4-0.7c0-0.8,0.2-1.5,1-1.1c0.7,0.3,1.3,0.7,1.9,1.1c0.2,0.1,0.4,0.3,0.6,0.4
    c0.1,0.1,0.3,0.5,0.5,0.4c0.1,0,0.2,0,0.3,0c0.7,0.5,0.8,1.6,1.3,2.3c0.3,0.3,0.4,0.7,0.6,1.1c0.3,0.4,0.6,0.4,1,0.4c0.9,0.2,1.1,0.7,1.9,0.1c0.8-0.6,1.3,0.4,1.4,1.1c0.1,1.1,0.3,2.3,0.7,3.3c0.4,1.1,1.2,1.9,1.5,3c0.3,1,0.2,1.7,1,2.4c0.3,0.3,0.8,0.5,1.1,0.9
    c0.2,0.3-0.4,0.6,0.1,0.8c0.4,0.2,0.8,0.2,0.9,0.7c0.1,0.5,0.5,0.5,1,0.7c0.9,0.3,1.6,1,2.5,0.5c0.7-0.4,1.4,0.1,1.8,0.7c0.3-0.3,0.8-0.6,1-1c0.1-0.3,0.1-0.6,0.2-0.9c0.2-0.8,1.4-0.1,2.1-0.3c0.9-0.3,1.9-0.6,2.8-1c0.3-0.1,0.7-0.5,1-0.4c0.3,0,0.5,0.2,0.8,0.1
    c0.2,0,0.5-0.4,0.7-0.3c0.1,0.1,0.3,0.2,0.4,0.3c0.1-0.1,0.3-0.2,0.4-0.3c0.4-0.1,0.7,0,1-0.2c0.3-0.2,0.6-0.3,0.9-0.3c0.4,0.1,0.6,0.5,1,0.5c0.3,0,0.6-0.2,0.9-0.3c0.7-0.2,1,0.5,1.1,1c0.2-0.1,0.6-0.5,0.9-0.4c0.3,0.1,0.8,0.3,1.1,0c0.1-0.1,0-0.5,0.1-0.6
    c0.1-0.3,0.6-0.6,0.8-0.8c0.6-0.6,0.6-1.1,0.8-1.8c0.1-0.3,0.2-0.7,0.2-1c0-0.4-0.2-0.7-0.3-1c-0.1-0.6,0.2-1.3,0.3-1.9c0.1-0.7,0-1.4,0.1-2c0.1-0.6,0.2-1.2,0.4-1.7c0.2-0.6,0-1.1-0.1-1.7c-0.1-1.1-0.1-2.7,0.4-3.7c0.4-1,1.5-1.9,2.4-2.6c1-0.8,1.3-2.1,2.1-3
    c0.7-0.8,1.8-1.2,2.7-1.7c0.8-0.4,2.1-0.9,2.4-1.8c0.3-0.8,0.6-1.6,0.7-2.3c0.1-0.4,0.2-0.9-0.1-1.3c-0.2-0.3-0.7-0.3-0.8-0.6c-0.5-1,0.8-2,1.4-2.6c1-1,0.6-2.3,0.5-3.5c-0.1-0.9,0-2,0.3-2.8c0.4-0.9,2-1.3,1.9-2.4c0-0.4-0.1-0.8-0.1-1.2c0.1-0.4,0.6-0.4,0.6-0.9
    c0-0.6-0.3-1.1,0-1.7c0.2-0.5,0.7-0.8,1-1.2c0.5-0.8,1.3-1.3,1.5-2.2c0.1-0.5,0.2-1.1,0.7-1.4c0.5-0.2,0.9,0,1.4,0c1.2,0.1,1.2-1.5,1.6-2.3c0.4-0.8,0.3-1.3,0.2-2.1c-0.1-0.7,0-1.3,0.1-2c0.1-0.3,0.5-0.2,0.4-0.7c-0.1-0.3-0.4-0.4-0.6-0.5
    c-0.7-0.2-1.6-0.3-2.4-0.1c-0.3,0.1-0.5,0.4-0.9,0.2c-0.5-0.3-0.8-0.7-1.3-0.9c-1.2-0.3-2.4,0.4-3.2-0.7c-0.3-0.5-0.6-1-0.8-1.5c-0.2-0.4-0.6-0.6-0.8-1c-0.3-0.8-1.3-0.6-2-0.5c-0.4,0.1-0.6,0.4-0.9,0.6c-0.4,0.3-1,0-1.4-0.2c-0.7-0.2-1.4-0.5-2.1-0.5
    c-0.4,0-1.2,0.1-1.4-0.4c-0.5-0.8,1-1.8-0.2-2.4c-0.6-0.3-1.1,0.1-1.6,0.5c-0.2,0.2-0.9-0.4-1.3-0.5c-0.4-0.1-0.9-0.1-1.2-0.4c-0.3-0.2-0.3-0.6-0.5-0.9c-0.4-0.4-1.1-0.3-1.6-0.3c-0.3,0-0.4-0.3-0.7-0.4c-0.3-0.1-0.6-0.1-0.9-0.2c-1-0.2-2.3-0.5-2.4-1.8
    c0-0.7,0.4-1.5,0.2-2.1c-0.1-0.5-0.4-0.6-0.4-1.2c0.1-1.1-1.1-1.9-1.8-2.6c-1-0.9-1.1-1.9-1.6-3.1c-0.5-1.3-1.3-0.2-2.1-0.8c-0.4-0.2-0.7-0.4-1.2-0.4c-0.3,0-0.4,0-0.6-0.2c-0.3-0.3-0.5-0.6-0.8-0.9c-0.3-0.3-0.6-0.3-1-0.3c-0.5,0-0.6-0.5-0.7-0.8
    c-0.4-1.5-1.3-0.3-2.2,0c-1.1,0.3-0.8,0.9-1,1.8c-0.1,0.6-0.4,0.4-0.8,0.1c-0.5-0.3-0.5-0.5-0.6-1c-0.3-1.3-1.2-1.5-2.1-2.4c-0.5-0.5,0.1-1-0.6-1.2c-0.5-0.1-0.8-0.3-1.3,0c-0.9,0.5-2-0.8-2.3-1.5c-0.1-0.3-0.4-1-0.8-1c-0.7,0-1.3,0.4-1.8,0.7
    c-0.4,0.3-0.8,0.3-1.3,0c-0.2-0.2-0.5-0.6-0.9-0.3c-0.2,0.2-0.4,0.7-0.7,0.7c-0.6,0-0.9-0.1-0.9,0.6c-0.1,1.3-1.2-0.1-1.8-0.1c-0.5-0.1-0.6,0.6-0.9,0.9c-0.3,0.3-0.9-0.2-1.3,0c-0.5,0.2-1.1,0.3-1.5,0c-0.4-0.3-0.4-0.9-0.9-1.2c-0.5-0.3-1,0.2-1.5,0.2
    c-0.4-0.1-0.7-0.4-1-0.7c-0.3-0.3-0.6-0.6-1-0.8c-0.4-0.2-1.1,0-1.6,0c-0.3,0-3-1.2-2.7-0.3c0.3,0.9-1.2,1-1.7,1.5c-0.3,0.3-0.6,0.9-0.4,1.3c0.2,0.3-0.3,0.6-0.5,0.8c-0.7,0.9-1.4,0.6-2.2,0c-0.7-0.6-0.8-1.7-1.8-1.9c-0.4-0.1-0.9-0.2-1.3,0.2
    c-0.5,0.5-0.4,0.5-1.1,0.1c-0.3-0.1-1.2,0.2-1.5,0.3c-0.4,0.1-0.9,0.4-0.9,0.9c-0.1,0.9,1,1.5,1.5,2c0.3,0.3,0.6,0.6,0.9,0.9c0.3,0.3-0.2,0.9-0.5,1.1c-0.2,0.1-0.5,0.1-0.7,0.3c-0.2,0.3-0.2-0.1-0.4-0.1c-0.4,0-1-0.3-1.3-0.1c-0.4,0.3-0.9,0.7-1.2,1.1
    c-0.3,0.4-0.4,1-0.7,1.4c-0.3,0.4-0.8,0.3-0.9,0.9c-0.1,0.5,0,0.9,0,1.4c-1.1-0.7-2,0.3-3.1,0.8c0.2-0.5-0.9-0.9-1.1-1.3c-0.3-0.4-0.3-0.9-0.4-1.3c-0.1-0.4-0.4-0.6-0.5-1c-0.1-0.3,0.4-0.6,0-0.9c-0.3-0.2-0.6,0.1-0.8,0.2c-0.7,0.2-1.2,0.5-1.7,1
    c-0.6,0.5-1.3,0.7-1.7-0.1c-0.3-0.6-1.1-0.1-1-0.9c0-0.3,0.5-0.6,0.2-0.8c-0.3-0.2-0.5-0.1-0.8-0.1c-0.6,0.2-0.5-0.3-0.4-0.8c-0.7,0.2-1.4,0.4-1.4-0.6c0-0.4-0.4-0.6-0.6-0.9c-0.1-0.3,0.2-0.7,0.4-0.9c-0.1,0-0.6-0.1-0.6-0.3c0-0.1,0.1-0.4,0-0.5
    c-0.2-0.2-0.9-0.1-0.9-0.6c0-0.1,0.3-1.5-0.1-0.9c-0.2,0.3-0.3,0.6-0.6,0.7c-0.2,0-0.4,0.1-0.7,0.2c-0.6,0.4-1.3,0.7-1.9,1c-0.5,0.3-0.5-0.5-0.9-0.4c-0.6,0.1-0.6-0.5-1.1-0.6c-0.4-0.1-0.5,0.7-0.4,1c0.1,0.3-0.6,0.6-0.6,1c0,0.5-0.3,0.7-0.8,0.8
    c-1.3,0.3-2.5,0.2-3.6-0.6c-0.5-0.3-0.6-0.7-1.2-0.9c-0.4-0.1-0.7-0.3-1-0.5c-0.4-0.3-1.6-1.2-1.8-0.2c-1.4-1-0.2,0.7-0.6,1.2c-0.1-0.2-0.2-0.6-0.5-0.6c-0.1,0-0.5,0-0.5,0.2c0,0.3,0.4-0.1,0.1,0.4c-0.1,0.2-0.3,0.3-0.5,0.4c-0.4,0.2-1.1,0.5-1.4,0.2
    c-0.4-0.4,0.1-1-0.7-1c-0.7,0-0.6,0.5-1.3,0.1c-0.3-0.1-1.2-0.7-1.3-0.1c-0.1,0.4,0.1,0.8,0.3,1.1c0.1,0.2-0.2,0.5-0.3,0.7c0,0.2,0,0.5,0.1,0.7c0.1,0.5,0.1,0.9-0.1,1.3c-0.2,0.6-0.3,0.7-0.9,0.6c-0.7-0.1-1.5,0-2.2-0.2c-0.5-0.2-1.2,0.2-1.8,0.1
    c-0.2,0-0.6-0.3-0.8-0.1c-0.2,0.1-0.3,0.3-0.5,0.4c-0.3,0.1-0.6,0.1-0.8,0.3c-0.2,0.2-0.1,0.5-0.3,0.7c-0.4,0.4-0.7,0.8-0.8,1.4c0,0.4-0.3,0.6-0.8,0.8c-0.2,0.1-0.4-0.6-0.5-0.8c-0.5,0.7-0.9,1.2-1.1,2c-0.2,0.9-0.3,1.9-0.9,2.5c-0.5,0.5-0.6,1.4-0.5,2.1
    c0.1,0.4,0.3,0.7,0.1,1.2c-0.1,0.3-0.4,0.6-0.6,0.8c-0.3,0.4-0.6,1.1-0.5,1.6c0.1,0.3,0.5,0.5,0.3,0.9c-0.1,0.3-0.5,0.2-0.7,0.1c-0.8-0.4-1.6-0.9-2.4-1.2c-0.8-0.3-0.9-1.1-1.2-1.7c-0.1-0.3-0.6-0.6-0.8-0.8c-0.4-0.4-1,0-1.5-0.3c-0.8-0.4-1.9-0.6-2.6,0.1
    c-0.7,0.7-0.9,1.6-1.7,2.2c-0.6,0.5-2,1.3-2.6,0.6c-0.2-0.2-1.2-0.5-1.4-0.5c-0.3,0.1-0.4,0.6-0.9,0.3c-0.4-0.3-0.6-0.4-1.2-0.6c-0.2-0.1-0.2-0.5-0.2-0.7c0-0.7,0.1-1.7,0.4-2.3c0.2-0.3,0.7-0.4,0.8-0.8c0.1-0.6,0.3-1,0.6-1.4c0.4-0.4,1.8-0.7,1-1.5
    c-0.3-0.4-1.1-0.6-1.2-1.1c-0.1-0.4,0.4-1,0.5-1.4c0.1-0.6-0.1-1.2-0.2-1.8c-0.1-0.6,0-1.1,0-1.7c0-0.6-0.2-1.1-0.4-1.6c-0.2-0.6,0.1-1.1-0.1-1.7c-0.2-0.4-0.6-0.7-1-0.8c-1.1-0.3-1.4,0.5-1.9,1.3c-0.7,1.1-1.4,0-2.2-0.4c-1-0.5-2.3-0.3-3.4-0.5
    c0.2-0.6,0.9-1.2,0.8-1.8c0-0.4-0.4-0.5-0.4-0.9c0-0.3,0.1-0.5,0-0.8c-0.1-0.7-0.9,0.1-1.1,0.2c-0.6,0.3-0.8-0.5-1-0.9c-0.1-0.3-0.4-0.4-0.7-0.4c-0.3,0-0.5-0.4-0.6-0.6c-0.4-0.6-0.7-1.3-0.9-1.9c-0.3-0.9-0.4-1.9-0.9-2.8c-0.5-0.9-0.4-1.7-0.6-2.7
    c-0.2-0.8-0.7-1.5-1.5-1.9c-0.8-0.4-1-0.4-1.5-1.2c-0.5-0.8-1.3-0.4-2-0.2c-0.4,0.1-1.3,0.1-1.5,0.5c-0.2,0.3,0,0.7-0.3,1c-0.3,0.3-0.7,0.4-1.1,0.5c-0.6,0.2-0.7,0.8-0.7,1.4c0,0.3,0.2,1.4-0.3,1.4c-0.6,0-1.1,0.2-1.6,0.4c-0.5,0.2-0.4,0.2-0.7-0.2
    c-0.3-0.3-1.5-0.1-1.9,0.1c-0.4,0.1-0.9-0.1-1.2,0.2c-0.3,0.3-0.5,0.8-0.7,1.2c-0.2,0.3-0.8,0.4-0.7,0.8c0.2,0.8,0,0.8-0.3,1.5c-0.2,0.5-0.3,1-0.4,1.4c0,0.2,0.2,0.3,0.3,0.4c0.2,0.2,0.1,0.5,0,0.7c-0.2,0.5-0.1,0.6-0.6,0.6c-0.5,0-1,0.6-1.2,1
    c-0.3,0.5,0,0.7,0.2,1.1c0.4,0.6-0.2,1.5-0.8,1.1c-0.3-0.2-0.6,0.3-0.8,0.4c-0.2,0.1-0.5,0.1-0.7,0c-0.6-0.1-0.8,0.5-1.3,0.5c-0.6,0-0.8-0.5-1.3-0.6c-0.4-0.1-0.4-0.5-0.8-0.6c-0.6-0.1-0.9,0.5-1.4,0.4c-0.4-0.2-0.7-0.1-0.8,0.4c-0.1,0.4-0.1,0.8-0.6,1
    c-0.3,0.1-0.7,0.2-1,0.1c-0.2,0-0.4-0.3-0.7-0.2c-0.5,0.2-1.1,0.3-1.5-0.2c-0.3-0.4-0.4-0.9-0.1-1.3c0.4-0.5,0.8-0.5,0.5-1.2c-0.2-0.5-0.5-1-0.7-1.6c-0.1-0.3-0.4-0.2-0.5-0.4c-0.1-0.3,0-0.5,0-0.8c0.1-0.6-0.1-1.1,0-1.8c0-0.4,0.4-1.1,0.3-1.5
    c-0.1-0.4-0.6-0.8-1-1c-0.6-0.3-1.3-0.2-2-0.1c-0.5,0.1-1.2,0.4-1.7,0.2c-0.6-0.3-0.7-0.4-1.3-0.2c-0.5,0.1-0.6-0.1-0.6-0.5l-0.6-0.3z"/>

    <path id="CR" d="M251.4,194.4c0.2-0.1,0.4-0.1,0.5-0.2c0.3-0.2,0.3-0.6,0.4-0.8c0.1-0.3,0.4-0.6,0.4-1c0.1-0.4,0.2-1.1,0.7-1.3c0.3-0.1,0.6,0,0.8-0.3c0.1-0.2,0.2-0.4,0.4-0.6c0.3-0.5,0.9-1.3,0.9-1.9c0-1.2,1-1.7,1.6-2.5c0.4-0.5,0.8-1,1.2-1.5
    c0.2-0.3,0.5-0.3,0.7-0.5c0.1-0.1,0-0.4,0.2-0.6c0.3-0.3,0.4-0.8,0.5-1.2c0.2-0.6,0.6-1.1,1-1.6c0.6-0.6,1-1,1.3-1.8c0.2-0.6,0.7-0.9,1.1-1.4c0.4-0.5,1.6,0,2.1,0.1c0.4,0.1,0.6,0.5,0.9,0.5c0.5,0,1.2,0.3,1.6,0.5c1.1,0.6,2.1,0.9,3.3,1.2c1,0.2,1.7,1.2,2.5,1.7
    c0.2,0.1,0.8,0.6,0.9,0.2c0.1-0.3,1.1-0.8,1.4-0.9c0.4-0.1,0.6-0.5,0.8-0.8c0.2-0.3,0.5-0.3,0.8-0.4c1.2-0.4,1.8,0.7,2.5,1.5c0.5,0.5,0.9,1.1,1.5,1.5c0.3,0.2,0.2-0.2,0.4-0.2c0.7,0,1.1-0.3,1.7-0.7c0.4-0.3,0.6-0.8,1-1.2c0.2-0.1,0.4-0.2,0.5-0.3
    c0.2-0.1,0.1-0.3,0.2-0.5c0.6-0.9,1.8-0.8,2.7-1.2c0.5-0.2,1.1-0.6,1.6-0.9c0.3-0.2,1.1-1,1.4-1c0.8,0.1,1.2-1.2,1.6-1.7c0.2-0.3,0.7-0.3,0.9-0.6c0.3-0.4,1-0.7,1.4-1.1c1-0.9,2.1-0.9,3.4-0.9c0.4,0,0.7-0.1,1.1-0.3c0.2-0.1,0-0.3,0-0.5c0-0.1,0.2,0.1,0.2,0
    c0.2-0.1,0.1-0.8,0.2-1c0.1-0.6,0.4-1.3,0.5-1.9c0.1-0.8,0-2.2,0.6-2.9c0.6-0.6,1.7-0.4,2.6-0.4c0.4,0,0.2-0.3,0.7-0.3c0.4,0,0.9-0.2,1.3-0.3c0.8-0.1,1.9-0.4,2.6-0.9c0.2-0.2,0.7-0.4,0.8-0.6c0.1-0.2,0.2-0.1,0.4-0.1c0.2,0,0.4-0.3,0.5-0.4c1-0.9,1.4-1.9,1.7-3.2
    c0.2-0.8-0.2-2,0.3-2.8c0.4-0.5,0.2-0.6-0.1-1.1c-0.3-0.4-0.6-1.1-0.2-1.6c0.3-0.4,0.7-0.5,1.2-0.7c0.5-0.2,0.1-0.9,0.4-1.1c0.3-0.2,0.3-1.1,0.4-1.4c0.2-0.8,0.1-1.6,0.3-2.4c0.4-2.2,0.1-4.6,2.2-6.1c1-0.7,2.3-1,3.5-1.3c0.6-0.1,1.3,0,1.9-0.3
    c0.7-0.2,1.2-0.4,2-0.5c0.6,0,2.1-0.3,2.2-1c0.1-0.5,0.3-0.7,0.6-1.1c0.3-0.3-0.3-0.8,0.1-1.2c0.2-0.2,0.5-0.3,0.5-0.6c0-0.3-0.1-0.7-0.2-1c-0.1-0.3-0.7-1.6-0.5-1.8c0.3-0.3,1.5-0.3,1.9-0.3c0.3,0,1.4-0.2,1.7-0.5c0.4-0.4,0.6-1,0.9-1.5c0.3-0.5,0.8-1,1.1-1.4
    c0.6-0.7,1.2-1,1.6-1.9c0-0.1,0.7-1.4,0.6-1.4c0.4,0.1,0.1-1.2,0.6-1.1c0.1,0,0.1-0.4,0.1-0.5c0.1-0.3,0.3-0.5,0.6-0.5c0.5-0.1,0.7,0.4,1,0.7c0.1,0.2,0.3,0.4,0.5,0.4c0.3,0.1,0.1-0.2,0.4-0.2c0.7,0,1.4-0.4,2.1-0.4c0.6-0.1,1.3,0,1.8,0.1c0.6,0.2,1.3,0.8,1.9,0.6
    c0.7-0.2,1.3-0.7,1.9-1.1c0.3-0.2,0.6-0.5,1-0.6c0.3-0.1,0.7-0.1,0.9-0.4c0,0.5,1,0.2,1.2,0.1c0.6-0.2,1.1,0,1.7,0.1l0.6,0.3c0-0.7,1.1-1.4,0.8-2.2c-0.2-0.4-0.6-0.8-0.9-1.1c-0.4-0.5-0.1-1-0.3-1.5c-0.2-0.6-0.4-1-0.4-1.6c0-0.8,0-1.5-0.2-2.2
    c-0.3-0.9-0.3-1.9-0.6-2.8c-0.7-2.4-2.6-0.4-4.2-1c-0.4-0.2-0.7-0.5-0.8-0.9c-0.1-0.3-0.2-1.2-0.6-1.2c-0.4,0-1,0.5-1.4,0.1c-0.5-0.4-0.7-0.4-1.4-0.4c0.1,0.6,0.2,1.1,0.2,1.7c-0.9-0.2-1-1.5-1.2-2.2c-0.1-0.5-0.1-0.8,0-1.3c0.1-0.6-0.2-1.1-0.4-1.6
    c-0.5-1.4-1.1-2.7-1.7-4c-0.6-1.1-1.3-1.7-0.6-2.9c0.2-0.4,1.5-1.6,0.9-2c-0.8-0.6-1.7,0.8-1.5-0.9c0.1-0.7,1.1-2.6,0.5-3.2c-0.4-0.4-1.4-0.2-1.5-0.8c-0.7,0.5-0.3,1.9-1.5,1.9c-1.2,0-2.1-0.4-3.1-1c-1-0.6-2-1.5-3.2-1.5c-1.4,0.1-2.3-0.5-2.3-0.5
    s-0.5,0.4-0.5,0.8c0,0.3-0.4,0.5-0.6,0.7c-0.6,0.5-1.4,0.1-2-0.3c-0.8-0.6-0.6-1.5-0.8-2.3c-0.2-0.9-1.3-1.1-2.1-0.9c-1.9,0.4-0.7-2.6-2.3-3.1c-0.6-0.2-1.2,0.8-1.5,1.3c-0.4,0.9-1.2-0.1-1.4-0.6c-0.6,0.5-1.3-0.1-1.7-0.5c-0.5-0.5,0.1-1.3-0.2-1.8
    c-0.1-0.3-0.3-0.2-0.6-0.3c-0.2,0-0.1-0.7-0.1-0.8c0-0.4-0.1-0.4-0.4-0.4c-0.4-0.1-0.8-0.3-1.1-0.6c-0.5-0.4-0.9-1-1.6-0.8c-0.5,0.2-0.9,0.7-1.1,1.1c-0.1,0.3-0.4,0.9,0,1.1c0.3,0.2,1.8-0.7,2-0.3c0.2,0.4,0.1,1,0.1,1.4c0,0.5,0.3,1.3-0.5,1.2c-0.8,0-1.2-0.9-2-1
    c-0.6-0.1-1.2,0.8-1.5,1.2c-1.2,1.1-2.8,2.3-4.5,2.4c-2,0.1-3.1-1.6-4.3-2.8l-1.2-1.1c-0.1-0.2,0-0.5-0.1-0.7c-0.1-0.2-0.4-0.4-0.3-0.6c0.2-0.7-0.1-1.1-0.5-1.8c-0.3-0.6-0.7-1.2-1-1.8c-0.2-0.4-0.3-1.1-0.5-1.4c-0.2-0.3-0.7-0.3-1-0.5c-0.5-0.3-1-0.8-1.6-0.5
    c-0.3,0.2-0.4,0.5-0.8,0.4c-0.6-0.1-0.9-0.5-1.1-1c-0.4-1-1.3-1.1-2-1.8c-0.4-0.4-1.5-1.6-0.5-2c1.1-0.4,2.4-0.4,3.5-1c0.5-0.3,0.5-0.1,1.1-0.1c0.5,0,1.1,0,1.1-0.6c0-0.4,0-0.8,0.3-1.1c0.3-0.3,0.7,0,1.1,0c1,0.1,1.1-0.1,1.3-1c0.1-0.4,0.2-0.8,0.1-1.3
    c0-0.5-0.8-1-1.1-1.3c-0.9-1.1-0.5-2.2,0.2-3.1c0.3-0.4,0.6-0.9,0.2-1.3c-0.3-0.4-0.9,0.1-1.1-0.3c-0.4-0.7-0.5-0.9-1.2-1.3c-0.6-0.4-1.3-0.6-1.1,0.5c0.2,0.7,0.4,1.1-0.1,1.7c-0.6,0.7-1.3,1.3-2.1,1.6c-0.5,0.2-0.9,0.5-1.3,0.6c-0.7,0.2-0.7-0.3-1.1-0.6
    c-0.3-0.2-0.7,0-1,0.1c-0.6,0.2-1.2,0.2-1.8,0.1c-1.3-0.1-2.3-0.2-3.5,0.1c-0.3,0.1-0.6,0.1-0.8,0.4c-0.2,0.2-0.3,0.9-0.5,1c-0.3,0.1-0.7,0-1,0c-0.4,0-0.1-0.5-0.2-0.8c-0.1-0.4-0.2-0.6-0.6-0.8c-0.3-0.2-0.6,0.4-0.8-0.1c0.2-0.2,0.9-0.4,0.9-0.7
    c-0.1-0.7-1.1-0.3-1.4-0.3c-0.4,0.1-1.2,0-1.4,0.5c-0.2,0.4,0.1,1,0.2,1.4c-0.8,0.2-1.2-0.6-1.3-1.2c-0.2-0.9,0.7-1.6,0.6-2.5c-0.1-0.6-1.1-0.4-1.2-0.8c-0.1-0.3,1.2-0.4,1.4-0.5c-0.3-0.1-0.6-0.4-0.9-0.4c-0.6,0-1.3,0.5-1.9,0.7c-1,0.4-2.1-0.8-2.8-1.3
    c-0.9-0.7-1.9-1.4-2.7-2.2c-0.5-0.5-1-1.4,0.1-1.4c-0.1-0.2-0.1-0.6-0.3-0.7c-0.5-0.1-0.7,0.3-1.1,0.4c-0.3,0-0.3-0.4-0.6-0.1c-0.4,0.5-0.4,0-0.9,0.3c-0.3,0.1-0.5-0.4-0.5-0.5c-0.2-0.4-0.3-0.4-0.8-0.4c-0.9,0.1-0.2-1.4-1.2-1.2c-0.4,0.1-0.7,0.3-1.1,0.1
    c-0.3-0.1-0.9-0.5-1.2-0.3c-0.7,0.5-0.7-0.8-1.3-1c-0.8-0.2-1.7,0-2.6-0.3c-0.6-0.2-1.2-0.5-1.7-0.8c-0.5-0.3-0.9-0.8-1.4-1c-1.4-0.6-3.3,2.7-2,3.6c0.5,0.4,1.2,0.6,1.6,1.2c0.7,0.9,0.2,2.2,0.9,3.1c0.4,0.5,0.3,0.5,0.2,1c-0.1,0.4,0.3,1,0.5,1.3
    c0.6,0.9,2.2,0.9,3,1.4c0.8,0.5,1.7,3.2,0.2,3.5c0.4,0.7,1.1,1.7,0.9,2.6c-0.4,1.3-1.4,0.4-1.8-0.2c-0.3-0.5-0.5-1.7-1.2-0.9c-0.3,0.4,0.1,0.7-0.1,1.1c-0.2,0.3-0.9,0.4-1.3,0.3c-0.8-0.1-1.8-0.6-2.2,0.4c-0.3,0.8-0.5,1.9-1.5,1.6c-0.9-0.2-0.2-1.6-1.4-0.5
    c-0.2,0.2-0.4,1.1-0.6,1.1c-0.5,0.2-0.9,0.5-1.1,1c-0.4,1.1-0.7,1.9-1.4,2.8c-0.2,0.3-0.4,0.5-0.7,0.6c-0.5,0.1-0.7,0-1,0.5c-0.4,0.7-0.6,1.6-1.2,2.2c-0.9,0.8-2.1-0.1-2.8-0.6c-0.4-0.3-1,0.1-1.4-0.2c-0.4-0.3-0.8-0.8-1-1.2c-0.3-0.5-0.3-0.7-0.9-0.9
    c-0.5-0.2-0.7-0.3-0.7-0.9c0.1-0.8-1.1-1.1-1-1.9c0-0.5,0.2-0.8-0.2-1.2c-0.4-0.5,0.1-1,0.1-1.6c0-1-0.4-1.9-1.1-2.5c-0.3-0.3-0.8-0.4-1-0.7c-0.3-0.4-0.3-0.9-0.7-1.2c-1.5-1.1-2.3-3.1-3.4-4.6c-0.5-0.8-1.2-0.4-2-0.5c-1-0.1-1.5-0.8-1.9-1.7
    c-0.7-1.2,0.4-3.2-1.6-3.2c-1,0-1.8,0.1-2.6,0.8c-0.4,0.3-0.8-0.3-1.1-0.6c-0.3-0.5,0.2-0.5-0.2-0.9c-0.2-0.2-0.5-0.4-0.6-0.5c-0.2-0.3,0.1-0.8-0.2-1c-0.6-0.5-1.5,0.6-1.6-0.6c-0.1-0.8-1.1-1.2-0.8-2.1c0.4-1.1,1,0,1.6,0.1c0.9,0.1-0.3-1.2-0.1-1.5
    c0.2-0.4,1.1-0.1,0.9-0.7c0.2,0.1,0.3,0.2,0.5,0.2c-0.1-0.2-0.1-0.3-0.2-0.5c0.6-0.4,1-0.1,1-1c0.5,0.2,1.1,0.2,1.6-0.1c0.3-0.1,1-0.5,0.7-0.9c-0.1-0.2-0.6-0.6-0.2-0.8c0.4-0.2,0.9,0.3,1.2,0.5c1.3,0.6,1.9-0.1,2.4-1.1c0.2-0.4,0.7-0.6,0.9-1
    c0.1-0.3,0.1-0.8,0.1-1.1c0-0.3,0.4-0.5,0.6-0.7c0.4-0.4,0-0.7,0-1.1c0-0.6,0-0.6,0.6-0.7c0.4,0,0.8-0.1,1.2-0.2c1-0.2-0.4-2-0.7-2.3c-0.4-0.4-0.9-0.8-1.3-1.2c-0.6-0.6-0.9-1.3-1.4-1.9c-0.4-0.4-0.9-0.7-1.2-1.2c-0.2-0.5-0.8-0.7-1.3-0.8c-0.5,0-0.9,0.1-1.3,0.3
    c-0.7,0.2-0.9,0-1.4-0.4c-0.6-0.5-2-1-2.4,0c-0.4,0.8-0.2,1.8-0.7,2.6c-0.3,0.4-0.8,0.3-1.1,0.5c-0.4,0.3-0.5,0-0.7-0.4c-0.3-0.5-0.7-0.9-1.2-1.2c-0.5-0.5-1-0.5-1.6-0.9c-0.4-0.2-0.8-0.1-1.2-0.3c-0.6-0.2-0.5,0.2-0.8,0.7c-0.2,0.4-0.7,0.7-0.9,1.1
    c-0.3,0.5-0.4,1.2-0.6,1.8c-0.1,0.5-0.2,0.6-0.6,0.4c-0.2-0.1-0.9,0.4-1.2,0.4c-0.8,0.1-1.7,0.3-1.7-0.7c-0.1-0.7,0.1-1.5,0.3-2.2c0.1-0.2,0.1-0.5,0.3-0.6c-0.4-0.3-0.4-1.1-0.5-1.5c-0.2-0.8-0.5-1.7-1.4-1.8c-1-0.2-2.4,0.4-3.2,0.9c-0.6,0.3-1.2,0.9-1.9,0.7
    c-0.3-0.1-0.4-0.2-0.4-0.5c0-0.6-0.2-1.2-0.4-1.8c-0.2-1-1.2-1.3-1.3-2.4c-0.1-0.5,0-1.1-0.4-1.5c-0.2-0.2-0.9-0.7-1.2-0.5c-0.4,0.2-0.4,0.6-0.8,0.8c-0.4,0.2-0.5,0.1-0.9,0c-0.7-0.1-1.2,0.7-1.7,0.5c-0.8-0.3-2.1,0.4-2.4-0.7c-0.1-0.5-0.3-0.7-0.7-0.9
    c-0.6-0.3-1.4-0.2-2-0.4c-0.9-0.4-1.1-1.3-2.3-1.4c-0.5,0-1.1,0.3-1.6,0.1c-0.3-0.1-0.5-0.2-0.8-0.3c-0.3-0.1-0.6,0.1-1,0c-0.2,0-0.4-0.3-0.6-0.5c-0.3-0.3-0.6-0.2-0.9-0.2c-0.9,0-1.3-0.6-1.9-1.1c-0.3-0.3-0.9-1.4-1.3-1c-0.6,0.6-0.8,1.2-1.1,1.9
    c-0.2,0.7-1,1.3-1.7,0.9c-0.5-0.3-0.6-1.2-0.6-1.8c-0.1-0.9,0.2-1.7,0-2.6c-0.2-0.8-0.6-1.3-1.3-1.8c-0.6-0.4-1.3-0.6-1.8-1c-0.6-0.5-1.1-1.4-1.4-2.1c-0.4-0.9-0.7-1.8-0.6-2.8c0-0.6,0.4-0.9,0.8-1.4c0.3-0.4,0.5-0.8,0-1.2c-0.5-0.4-0.3-0.9-0.4-1.4
    C165.2,6,164.6,6,164.1,6c-0.8,0-0.8-0.8-1-1.4c-0.5,0.2-1.8,0.4-2.1,0.9c-0.2,0.4-0.4,0.8-0.9,0.5c-0.9-0.5-0.3-2.3-0.3-3.1c-0.5,0.1-1.3,0-1.6,0.4c-0.3,0.3-0.1,1.3-0.1,1.7c0,0.5-1.2,0.1-1.4,0c-0.9-0.3-0.9-0.9-0.4-1.6c-0.8,0-1.5-0.3-2.2-0.7
    c-0.1,0.3-0.1,0.7-0.5,0.8c-0.4,0.1-0.9,0.4-1.2,0c0.5-0.4-0.1-1-0.2-1.4c-0.7,0.3-0.7,0.7-0.7,1.4c0,0.1-1.1,0.2-1.2,0.4c-0.3,0.4-0.7,0.8-0.9,1.3c-0.1,0.4,0.5,0.8,0.8,0.7c0.4-0.1,1.1-0.4,1.3,0.1c0.2,0.5,0.5,1,0.2,1.5c-0.3,0.6,0.1,1.3-0.2,1.9
    c-0.3,0.5-0.7,1.5-1.5,1.3c0.2,0.5,0.6,0.8,0.9,1.1c0.4,0.4-0.2,0.9-0.2,1.3c0,0.7,0.7,1.8-0.2,2.2c-1.1,0.5-2.1,0.5-3.2,0c-0.4-0.2-1.7-0.9-1.9,0c-0.5-0.2-1.1-1-1.5-0.4c-0.5,0.7-1.5,0.8-2.1,0.2c-0.2,0.8-0.7,1.4-1,2c-0.3,0.7-0.4,1.5-0.4,2.3
    c-0.5-0.2-0.8,0-1.3,0c-0.5,0-0.9-0.5-1.3-0.6c-0.5-0.1-0.7,0.2-1.1,0.3c-0.5,0.1-0.4-0.4-0.4-0.7c0-0.5-0.4-0.4-0.8-0.4c-0.5,0-0.9-0.2-1.2-0.6c-0.3-0.3-0.8-0.8-1.2-0.6c-0.2,0.1-0.4,0.2-0.5,0.2c-0.2,0-0.1-0.4-0.3-0.5c-0.3-0.1-0.8-0.1-1-0.4
    c-0.2-0.3,0.2-1.3,0.3-1.6c0.3-1.2,1.1-2.2,1.3-3.4c0.1-0.5-0.1-1-0.5-1.2c-0.3-0.2-0.4,0.2-0.6,0.4c-0.3,0.4-1.1,0.5-1.5,0.7c-0.4,0.2-0.8,0.3-1.2,0.3c-1.2-0.1-0.8-0.8-0.4-1.5c0.6-1,1.6-2.6,1.2-3.8c-0.2-0.5-0.6-0.8-0.9-1.1c-0.3-0.3-0.4-0.7-0.7-1
    c-0.3-0.3-1.7,1.2-1.6-0.3c0.1-0.9-1.1-0.1-1.6-0.5c-0.8-0.7,0.3-1.4,0.2-2.1c-0.1-0.3-0.6-0.4-0.8-0.2c-0.2,0.3-0.1,0.7-0.1,1c-0.1,1.3-1.1,0-1.6-0.1c-0.4-0.2-1.2,0.8-1.6,0.9c-0.7,0.3-1.4,0.3-2-0.2c-0.5-0.4-0.6-0.9-0.9-1.3c-0.6-0.8-0.9,0.1-1.5,0.2
    c-0.4,0.1-0.7-0.8-1.1-1c-0.8-0.4-1-0.2-1.5,0.5c-0.2,0.3-0.4,0.4-0.5,0.7c-0.1,0.3,0,0.6,0,1c-0.1,0.8-0.5,1.1-1.2,1.4c0.5,0.7,0.4,0.8-0.2,1.4c-0.3,0.3,0.5,0.5,0.7,0.6c0.4,0.1,0.7,0.6,1,0.6c0.4,0.1,0.9-0.5,1.3-0.6c0.5-0.2,0.8,0.4,0.4,0.8
    c-0.3,0.2-0.9,0.2-1,0.6c-0.1,0.3,0.3,0.5,0.5,0.6c0.3,0.2,0.2,0.3,0.3,0.5c0.1,0.3,1.7,0.7,2.1,0.8c0.8,0.4,2.7-0.2,2.4,1.2c-0.1,0.4-0.3,0.8-0.4,1.3c-0.1,0.5,0,1.1-0.5,1.3c-0.4,0.1-0.9,0-1.3,0c0,0-0.4,0.3-0.5,0.3c-0.7,0.2-1.4,0.5-2.1,0.5
    c-0.8,0.1-1.2-0.7-2-0.6c-0.4,0-0.6,0.4-1,0.5c-0.3,0.1-0.7,0-1,0.3c0.8,0.5,0,1.4-0.4,1.8c-0.7,0.7-1.3,1.2-2.4,1.2c-0.5,0-0.9,0-1.4,0.2c-0.5,0.2-0.9,0.6-1.3,0.9c-0.4,0.3-0.8,0.4-1.3,0.5c-0.6,0.2-0.7,0.8-1.1,1.2c-0.4,0.4-0.9,0.2-1.4,0.1
    c-0.6-0.1-0.7,0.3-1.2,0.5c-0.5,0.1-0.5-0.7-1-0.3c-0.3,0.3-0.4-0.4-0.7-0.5c-0.8-0.4-2,1.1-2.5,1.6c-0.8,1-1.4,0.8-2.6,0.4c-0.1,0.6-0.7,1.4-0.7,2c0,0.6,0.6,0.9,0.7,1.4c0,0.4-0.3,0.9-0.6,1.1c-0.4,0.3-0.9-0.4-1.3-0.1c-0.4,0.4-0.3,0.9-1,1.1
    c-0.7,0.2-1,0.2-1.5-0.3c-0.5-0.4-1.4-0.3-2-0.4c-0.9-0.2-1.2,0.1-1.8,0.7c-0.4-0.5-0.9-0.5-1.3,0c-0.2,0.2-0.4,0.5-0.5,0.8c-0.1,0.3-0.5,0.1-0.8,0c-0.2,0-0.3-0.2-0.4-0.4c-0.2-0.3-0.5-0.5-0.9-0.6c-0.9-0.3-1.6,0.6-2.3,1c-0.7,0.4-1.2,0.6-1.9,0.4
    c-0.2-0.1-0.5,0.1-0.8,0c-0.3-0.1-0.7-0.2-1-0.1c-0.5,0.2-1.3,0.6-1.1,1.2c0.2,0.6,0.7,0.7,0.6,1.4c0,0.2-0.1,0.5-0.2,0.7c-0.1,0.2-0.3,0.1-0.5,0.2c-0.2,0.2-1.5,1.6-0.8,1.7c0.5,0.1,0.2,0.9-0.1,1c-0.7,0.2-1.1,0.9-1.6,1.5c-0.3,0.4-0.9,1.4-1.5,1.3
    c-0.4-0.1-0.4-0.6-0.7-0.6c-0.3-0.1-0.5,0.1-0.8-0.1c-0.6-0.5-0.9-1.2-1.3-1.8c-0.4-0.5-1.2-0.8-1.4-1.4c0,0.6-0.2,1.4,0.2,1.9c-0.6,0.2-0.8,0.9-1.5,1.1c-0.4,0.1-0.4,0.3-0.7,0.5c-0.1,0.1-0.3,0.1-0.5,0.1c-0.4,0.2-0.1,1.2-0.1,1.5c0,1-0.6,0.6-1.2,0.8
    c-0.6,0.2-0.7,0.1-1-0.5c-0.2-0.4-0.2-0.8-0.7-0.8c-1.4,0-0.9,1.4-1.9,2c-0.7,0.5-0.2,1.1-0.4,1.8c-0.2,0.7-0.6,1.4-1,2c-0.1,0.3-0.4,0.4-0.4,0.7c0,0.2,0.1,0.5-0.1,0.6c-0.2,0.2-0.9,0-1.1,0c-0.5-0.1-1-0.1-1.6,0.1c-0.4-1.6-0.9-0.5-1.7,0
    c-0.6,0.4-1.5,0.4-2.2,0.4c-0.8,0-0.9-0.7-1.6-1c-0.3,0.9-0.3,1.7-0.6,2.6c-0.1,0.2-0.1,0.6-0.3,0.8c-0.2,0.2,0.2,0.9,0.2,1.2c0,0.8-0.7,1.2-1.2,1.7c-0.4,0.4-0.4,1.3-1,1.5c-0.5,0.2-1,0.4-1.6,0.5c-0.8,0.2-1.2-0.4-1.9-0.9c-0.3-0.2-0.7-0.2-1-0.4
    c-0.4-0.3-0.9-0.7-1.3-1c-0.8-0.6-1.6-1.2-2.6-1.5c0.2,0.7-0.6,1.2-1,1.7c-0.1-0.3-0.1-1-0.6-0.9c-0.8,0.3-1.4,0.7-2.2,1C33.3,51,33,51.5,32.7,52c-0.2,0.3-0.4,0.5-0.6,0.7c-0.3,0.4-0.2,0.9-0.5,1.3c-0.5-0.5-1.5-0.9-1.7-1.7c-0.5,0.5-0.9,0.7-1.7,0.5
    c-0.3-0.1-0.6-0.3-0.9-0.3c-0.4,0-0.6,0.4-0.9,0.5c-0.4,0.2-0.8-0.2-1.3,0c-0.5,0.3-0.9,1.2-1.6,0.7c-0.3-0.2-0.2,0.1-0.4,0.1c-0.2,0.1-0.4-0.2-0.7-0.1c-0.4,0.2-0.8,0.4-1.2,0.6c-0.1,0.1-0.1,0.6-0.2,0.8c-0.4,0.5-0.9,0.6-0.7,1.3c0.1,0.4,0.4,1.3-0.3,1.3
    c-0.8,0-1.4,0.2-1.9,0.7c-0.5,0.5,0.1,1.2-0.8,1.2c-0.9,0-2.1,0.5-1.4,1.6c0.2,0.3-0.1,1.3-0.5,1.3c-0.6,0-1.4,0.7-1.6,1.3c-0.2,0.4-0.3,0.9-0.4,1.3c-0.1,0.2,0.1,0.4,0.2,0.6c0.2,0.4,0.1,0.7,0,1.1c-0.5-0.2-1.6-0.4-1.4,0.5c0.1,0.7,0.1,1-0.2,1.7
    c-0.3,0.5,0,0.6,0.4,0.9c0.4,0.3-0.4,2-0.9,2.1c-0.7,0.1-1.3-0.5-1.6-1.1c-0.4-0.8-0.2-1.4,0.1-2.3c0.2-0.7,0-0.9-0.6-1.3c-0.5-0.4-1.2-0.6-1.6-1.1c-0.1-0.2-0.2-0.4-0.1-0.6c0.2-0.4,0.7,0.1,1.1,0c-0.1-0.4-0.2-0.8-0.4-1.2c-0.2-0.5-1.1-0.3-1.6-0.3
    c-0.5,0-1.3,0.2-1.4-0.5c-0.1-0.7-0.1-1.4-0.1-2.1c0-0.4-0.4-0.2-0.6-0.5c-0.2-0.3,0-0.8-0.1-1.1c-0.2-0.4-1.2,0.1-1.5,0.2c-0.4,0-0.8-0.1-1.2,0c-0.4,0.1-0.7,0.2-1.1,0.2c0.4,0.6,0.7,0.9,0.5,1.6c-0.2,0.5,0.6,1.1,0.8,1.4c0.3,0.3-1.4,1.7-1.3,1.1
    c-0.2,0.1-0.4,0.2-0.5,0.3c-0.3,0.1-0.3,0.3,0,0.4c0.1,0.3-0.5,0.5-0.4,0.8c0.1,0.2,0.4,0,0.5,0.2c0.2,0.3,0.4,0.6,0.7,0.8c0.6,0.3,1.4,0.2,2,0.5c0.5,0.3,0.5,1.3,0.6,1.8c0.7-0.9,2,2,2.1,2.5c0.1,0.3,0.2,0.7,0.3,1c0.1,0.5-0.3,0.8-0.6,1.2
    c-0.4,0.5-0.3,1.1-0.2,1.8c0.1,0.4,0.1,1.4,0.7,1.5c0.8,0.2,0.9-0.1,0.9,0.7c0,0.3,0.5,0.1,0.7,0.2c0.6,0.1,0.6,0.5,0.9,0.8c0.2,0.3,0.6,0.3,0.6,0.7c0,0.4-0.3,0.8-0.5,1.1c0.4,0.2,0.8,0.4,1.2,0.5c0.5,0.1,1-0.1,1.4,0.1c0.6,0.2,0.6,1.1,1,1.6
    c0.2-1.4,1.6,0.9,1.9,1.1c0.3,0.2,0.7,0.3,1,0.4c0.4,0.2,0.8,0.6,1.2,0.8c0.3,0.2,0.7,0.4,1,0c0.4,0.3,0.1,0.7,0.1,1.1c-0.1,0.9,1.6-0.2,1.9-0.4c0.1,0.3,0.2,0.8,0.4,1c0.1,0.2,0.4,0,0.5,0.2c0.5,0.3,0.5,1.4,0.2,1.8c-0.4,0.5-0.9,0.1-0.9,0.9c0,0.4,0.5,1.5,1,0.8
    c0.4,0.4,0.8,0.7,1.3,0.8c0.4,0,1,0,1.3,0.2c0.8,0.6,0.5,1.9,0,2.6c-0.2,0.3-0.7,0.4-1,0.7c-0.3,0.5-0.2,1.3-0.5,1.8c-0.2,0.3-0.7,0.2-0.8,0.6c-0.2,0.4-0.1,0.9-0.2,1.3c-0.6-0.9-1.3,0.3-1.2,0.9c0.1,1.1-0.1,2.1,0,3.2c-0.7,0-1.3,0.6-1.8,1
    c-0.5,0.3-1.1,0.5-1.5,0.9c-0.6,0.5-0.1,1.6,0.3,2.1c0.2,0.3,0.3,0.4,0.6,0.6c0.3,0.2,0.5,1,0.6,1.3c0.2,0.5,1.1,1.1,1.7,1.3c0.3,0.1,0.6,0.1,0.8,0.4c0.2,0.3,0.3,0.6,0.8,0.6c0.3,0,0.7,0,1,0c0.4,0,0.2,0.5,0.2,0.7c0.1,0.4,0.5,0.6,0.5,1c0,0.1-0.1,0.2-0.2,0.2
    c-0.1,0.2-0.1,0.6-0.1,0.7l-0.3,0.3c-0.1,0.1-0.1,0.2-0.2,0.3c-0.3,0.5,0.3,0.2,0.4,0.5c0.2,0.3-0.4,0.7-0.2,1c0,0,0.8,0.4,0.9,0.4c0.2,0.1,0.4-0.2,0.7,0c0.4,0.2,0.5,0.6,0.4,1c0,0.4-0.1,0.8,0.2,1.1c0.3,0.3,0.6,0.6,0.5,1c-0.1,0.8-0.4,1.7,0.2,2.4
    c0.2,0.2,0.8,0.7,0.5,1c-0.2,0.2,0,0.4,0.2,0.5c0.5,0.3,1.2,0.4,1.8,0.5c0.9,0.2,0.6,0.9,0.5,1.6c-0.1,0.8,0.7,1.3,0.1,2.1c-0.2,0.3-0.5,0.3-0.2,0.6c0.2,0.2,0.3,0.4,0.5,0.6c0.3,0.5,0.4,1,0.5,1.5c0.2,0.9,0.4,1.6,1.4,1.7c0.4,0.1,1.1-0.1,1.4,0.3
    c0.4,0.4,0.4,0.8,1,1.1c0.9,0.4,1.6,0.7,1.7,1.8c0,0.4-0.1,0.8,0.1,1.1c0.2,0.4,0.9,0.7,0.9,1.3c0,1.3,1.6,1.1,2.6,1.1c0.3,0,0.7-0.1,0.9,0.1c0.2,0.1,0.3,0.3,0.5,0.4c0.3,0.2,1.1-0.1,1.1,0.5c0.1-0.2,0.4-0.4,0.4-0.7c0.1-0.3-0.3-0.6-0.2-1c0.4,0.1,0.9,0,1.3,0.2
    c0.4,0.2,0.4,0.5,0.9,0.5c0.9,0,1.7-0.2,2.4,0.5c0.7,0.6,1,1.5,1.7,2.2c0.7,0.7,1.6,0.1,1.4,1.4c-0.1,0.6-0.5,1.6,0.3,2c0.3,0.2,0.9,0,1.1,0.3c0.2,0.3,0.1,0.7,0.3,1c0.3,0.7,1.6,0,1.2,1.2c-0.3,0.9,1.4,0.8,1.4,1.7c0,0.9,0.3,1.2,1.1,1.5c0.5,0.2,0.5,0.6,0.8,1
    c0.2,0.4,0.9,0.6,1.2,0.9c0.7,0.7-0.2,1.5,0.1,2.3c0.2,0.4,0.7,0.5,1,0.8c0.4,0.3,0.8,0.6,1.2,0.9c1,0.6,2,0,3.1,0.1c0.9,0.1,1.8,1.1,2.5,1.6c0.4,0.3,0.8,0.6,1,1.1c0.1,0.5,0.5,0.5,0.8,0.9c0.3,0.3,0.6,0.7,0.8,1.1c0.1,0.2,0.8,0.9,0.8,0.3
    c0.3,0.3,0.4,0.4,0.3,0.7c-0.2,0.6,0.2,1.1,0.3,1.7c0.1,0.4-0.1,0.8,0.1,1.1c0.3,0.5,0.2,0.8,0.1,1.4c-0.1,0.5,0.2,1,0.8,1c0.2,0,0.6,0.5,0.8,0.7c0.5,0.4,1,0.6,1.5,0.9c0.5,0.3,1,1.1,1.5,1.3c1.4,0.5,0.2-1.7,0.9-1.9c0.3-0.1,0.8-0.2,1.1-0.2
    c0.4,0.1,0.7,0.6,1.2,0.3c0.4-0.2,0.7,0.2,0.9,0c0.5-0.5,1.1,0.3,1.2,0.8c0.1,1.3,1,0.8,1.8,0.8c-0.7,0.7,0.1,1.1,0.4,1.9c0.2,0.5,0.4,1.1,0.7,1.6c0.1,0.4,0.6,0.4,0.7,0.7c0.2,0.3,0.2,0.9,0.6,1c0.4,0.1,0.7-0.3,1.1-0.2c0.9,0.3,0.9,0,1.7-0.5
    c0.2,0.6,1.1,1.1,1.2,1.7c0,0.1-0.1,0.2-0.2,0.3c-0.1,0.2,0.1,0.4,0.2,0.6c0.2,0.4,0.3,0.8,0.5,1.2c0.4,0.6,1.2,0.7,1.5,1.3c0.2,0.4,0.3,0.8,0.6,1.1c0.2,0.3,0.4,0.5,0.4,0.9c-0.1,0.8-0.6,1.5,0.4,1.9c0.5,0.2,1,0,1.5,0c0.4,0,0.9,0.2,1.2,0.5
    c1,0.6,1.7,1.5,2.4,2.4c0.3,0.3,0.5,0.7,0.8,0.9c0.2,0.1,0.9,0.3,0.9,0.4c0.1,0.3-0.1,0.4,0.3,0.5c0.5,0.1,0.9,0.2,1.4,0.2c0.8,0,1.1,0.5,1.4,1.1c0.2,0.3,0.4,0.7,0.7,1c0.3,0.3,0.7,0.3,1,0.5c0.6,0.5,0.8,1.5-0.2,1.6c-0.6,0-1.5,0.1-1.7,0.8
    c-0.2,0.7,0.7,1,1.2,1.1c1,0.1,0.2,0.7,0.1,1.2c-0.1,0.5,1.1,0.7,1.4,0.4c0,1.3,0.7,0.3,1.4,0.7c0.1,0.1,0,0.3,0,0.4c0,0.2,0.6,0.2,0.8,0.2c0.2,0,0.4-0.1,0.6-0.2c0.3-0.2,0.8-0.2,1.2-0.2c0.6,0,1.1,0.3,1.6,0.2c0.8-0.1,1.3,0.2,2,0.4c0.2,0.1,0.6,0,0.8,0.1
    c0.2,0.1,0.4,0.4,0.6,0.6c0.4,0.3,0.6-0.1,0.9-0.2c0.6-0.3,1.3,0.8,1.6,1.1c0.4,0.5,0.7,0.6,1.2,0.9c0.4,0.2,0.2,0.8,0.4,1.1c0.7,1.1,2.6-3.7,2.9-1.8c0.3-0.1,0.9-0.4,1-0.7c0.1-0.4-0.5-0.6-0.5-1c0.1-1.1,1.6-0.1,2-0.3c0.7-0.3,1.1-1.4,1.3-2
    c0.2-0.5,0.2-1-0.1-1.5c-0.3-0.4,0.1-0.8,0.4-0.9c0.7-0.3,1.4,0.7,1.8,1.2c0.2,0.3,0.2,0.9,0.5,1c0.2,0.1,0.4,0,0.5,0c0.4-0.2,0.5,0.1,0.8,0.3c0.2,0.2,0.5,0.1,0.7,0.1c0.2,0,0.5,0.2,0.7,0.4c0.3,0.2,0.3,0.5,0.6,0.2c0.2-0.2,0.5-0.4,0.7-0.5
    c0.7-0.5,1.8-1.8,2.1-0.3c0.1,0.3,0.1,0.9,0.5,1c0.4,0.1,0.7-0.1,1-0.1c0.9,0,0.2,1.8,1.3,1.8c1,0.1,1.8,0.2,2.2-0.9c0.3-1-0.1-2.1,0.2-3.1c0.1-0.4,0.3-0.6,0-1c-0.4-0.4-0.2-0.7-0.1-1.2c0.3-0.9,0.5-2.8,1.4-3.2c0.2-0.1,1-0.2,0.8-0.4c0-0.1,0.8-0.1,0.9-0.2
    c0.4-0.4,0.6-0.9,1-1.3c0.4-0.4,0.8-0.4,0.7-1c-0.1-0.3-0.2-0.7-0.2-1c0-0.4,0.5-0.4,0.5-0.7c0-0.5-0.4-0.7-0.1-1.2c0.3-0.5,0.7-0.4,1.1-0.2c0.3,0.1,0.4-0.3,0.7,0c0.3,0.3,0.5,0.3,0.9,0.2c1-0.4,0.8,0.6,1.6,0.7c1.3,0.1,3.7,1.6,4.8,0.4c0.5-0.5-0.1-1.4-0.7-1.5
    c-0.3,0-0.8,0-0.9-0.3c-0.1-0.4,0.1-0.8,0.2-1.2c0-0.2,0-0.3-0.1-0.5c-0.1-0.2,0.1-0.5,0.2-0.7c0.2-0.4,0.3-1,0.6-1.3c0.1-0.2,0.5-0.5,0.6-0.7c0-0.3-0.5-0.7-0.5-1.1c0-0.3-0.2-1.1,0.2-1.1c0.4,0.1,0.3-0.2,0.3-0.5c0-1,0.7-1.7,0.2-2.7c-0.2-0.4-0.7-1.3-0.7-1.6
    c0.1-0.3,0.6-0.3,0.4-0.6c-0.1-0.4-0.5-0.6-0.4-1c0.1-0.4,0.2-0.7,0.2-1.2c0-0.9,0-1.2,0.8-1.5c0.5-0.2,0.7-1.3,0.2-1.7c0.4,0,0.8-0.1,1.1-0.3c0.5-0.3,0.8-0.1,1.2,0.1c0.4,0.2,0.7-0.2,1.1,0c0.5,0.2,0.1,1,0.4,1.4c0.4-0.5,1,0.2,1.4-0.2c0.4-0.4,1,0,1.5,0
    c0.9,0.1,2.3,0.5,1.1,1.4c1.4,0.3,0.4,3,2,2.8c0.3,0,0.5-0.3,0.7-0.5c0.2-0.3,0.5-0.4,0.9-0.5c0.9-0.3,1.8,0.2,2.7-0.1c-0.3-0.2,0.3-1,0.4-1.3c0.2-0.6-0.3-1.1,0.1-1.6c0.4,0.4,0.5,0.9,1,1.2c0.4,0.2,0.6-0.1,1,0.1c0.2,0.2,0.8-0.4,1.2-0.4
    c0.6-0.1,1.3,0.1,1.7,0.5c0.4,0.4,0.7,0.9,1.3,0.9c0.5,0,0.9,0.8,1.4,1c0.4,0.2,0.9,0.1,1.4,0.2c0.5,0.1,0.6,0.1,1-0.3c0,1.3,1,0.6,1.6,1.4c0.3,0.4,0.2,1,0.7,1.4c0.4,0.4,1,0.6,1.5,0.7c0.6,0.2,0.9,0.4,1.4,0.8c0.5,0.4,1.2,0.1,1.8,0c0.7-0.1,0.7,0.1,1,0.6
    c0.3,0.7,1,0.2,1.5,0.4c0.5,0.2,0.7,0.9,1.1,1.3c0.2,0.2,0.7,0.7,1,0.7c0.6,0,1-0.1,1.6,0.1c0.5,0.2,1,0.5,1.6,0.5c1.1-0.1,0.9-1.8,2-1.7c0.7,0,1.3,0.2,2,0.3c0.2,0,0.2-0.1,0.4-0.2c0.2-0.1,0.7,0.5,0.8,0.6c-0.6,0.1-0.5,0.4-0.1,0.7c0.5,0.3,1,0,1.3,0.6
    c0.2,0.5,1.1,0.4,1.1,0.9c0,0.1,1.2,0.2,1.5,0.2c-0.1,0.3-0.4,0.9,0,1c0.6,0.2,0.6-0.1,0.7-0.6c0.3,0.1,0.9,0.2,0.9,0.6c0,0.3-0.3,0.4-0.4,0.6c-0.2,0.4,0.2,0.6,0.4,0.8c0.5,0.4,1,0.8,1.4,1.2c0.1,0.2,0.8,0.9,0.8,0.3c0.7,0.7,1.4,1.3,2.1,1.9
    c0.6,0.5,1.5,0.7,2.2,0.9c0.8,0.3,1.4,0.5,2.3,0.5c1,0,2.1-0.5,3-0.2c0.3,0.1,0.6,0.3,0.9,0.4c0.3,0.1,0.7,0,1,0c1,0.1,1.9,0.1,2.9,0c0.9,0,1.6,0.4,2.4,0.5c0.7,0.2,0.9-0.4,1.3-0.8c0.5,0.5,0.9,1.6,1.7,1c0.9-0.7,1.8-1.8,2.4-2.8c0.5-0.8,0.7-2.2,1.8-2.4
    c1-0.2,2.4,0.6,3.2-0.3c0.8-1,1.4-0.4,2.3,0.3c0.8,0.7,1.7,1.5,2.9,1.3c0.4-0.1,0.7-0.5,1.1-0.4c0.3,0.1,0.7,0.2,0.9,0.5c0.4,0.6,1.1,1.5,0.8,2.2c-0.1,0.3-0.4,0.7-0.3,1.1c0,0.2,0.4,0.7,0.7,0.7c0.4-0.1,0.7-0.5,1.2-0.6c0.7-0.2,0.9,0,1.4,0.4
    c0.2,0.2,0.8,0.1,0.9,0.3c0.2,0.4,0.3,1,0.8,1c0.4,0,0.7-0.4,1.1,0.1c0.3,0.4,0.4,0.6,0.8,0.3c0.7-0.5,1.6-0.5,2.4-0.6c0.8-0.1,2-0.4,2.7,0c0.9,0.5,1,2,0.8,2.8c-0.1,0.4,0.4,0.6,0.4,1c0,0.5,0,1.1-0.1,1.6c0,0.2,0,0.4-0.1,0.6l0.5-0.1z"/>
</defs>

<g id="intro_slideshow">
	<g id="Vrstva" style="fill-rule:nonzero;clip-rule:nonzero;fill:green;stroke:#000000;stroke-miterlimit:4;stroke:none;fill-opacity:1">

			<path id="p" d="M268.5,220c0.9,0.4,1.8,0.6,2.7,0.6c0.2,0,0.4,0,0.4,0.2c0.1,0-0.2,1.1-0.2,1.4c0,0.7-0.1,1.2-0.1,1.5l-0.2,0.9c-0.4,0.4-0.4,0.7-0.4,0.7c0,0.5,0.5,1,0.8,1.3c0.9,0.7,1.1,1.2,2.3,1.2c0.8,0,1.7-0.2,2.7-0.8l3.5-1.7c0-0.2,0.2-0.2,0.2-0.2
				c0-0.2-0.2-0.2-0.2-0.2c-0.3,0-0.7-0.2-1.2-0.3l-0.8-0.9c0-0.2,0-0.2,0-0.2s0-0.1,0-0.2c0-0.8,0.3-2.3,0.6-3.5c8.1-1.1,15.4-2.3,21.5-3.7l1.2-0.4c2.4-0.8,9-2.1,9.2-6.1c0.1-0.8,0-0.9-0.1-1.9c-2.8-7.2-15.2-10.4-22.2-11.5c-1.7-0.3-3.1-0.6-4.7-0.8l-1.1-0.1
				c-0.7,0-1.4-0.2-2.1-0.2c-1.4,0-2.6,0.8-4,1.1l-2.4,0.9c-0.5,0.1-0.8,0.3-1.2,0.7c0,0.2-0.2,0.5,0.1,0.7c0.3,0.2,0.6,0.5,0.9,0.7c1.2,0.5,2.3,0.8,3.3,1.6c0.3,0.2,0.6,0.4,0.8,0.7l-0.2,0.6l-0.3,0.4c-1.4,1.6-3,6.4-3.7,8.9c-0.5,1.6-0.9,3.3-1.4,4.9l-0.4,1.8
				c-0.1,0.2,0,0.5-0.3,0.6l-2.1,0.3c-1,0-1.6,0.2-1.6,0.6v0.2c0,0.2,0.3,0.4,0.7,0.5z M281.2,213l0.4-0.9c1.2-2.5,5.8-8.8,5.8-9.6v-0.1c0-0.5-1-0.8-1.8-1.5c-1-0.3-2.1-1-2.9-1.3c-0.4-0.2-0.7-0.4-1.4-0.7l0.3-0.5l4.7,1.1c1.5,0.2,9.4,3.2,9.8,3.9
				c1.5,0.8,5.3,3.6,5.3,5.9c0,0.2,0,0.2,0,0.2c-2.3,5.1-16,7.3-21,7.3c-0.2,0-0.2-0.1-0.6-0.1l1.4-3.7z"/>
			<path id="a" d="M313.4,226.6c0.9,0.1,2.4,0,2.7-0.2c0.6-0.7,1.4-1.8,2.1-2.9c1-1.6,2-2.6,3.2-4.2c1.9-2.5,2.3-3.3,3.4-3.6h0.7l3.5-0.2c1.2-0.1,2.4-0.3,3.7-0.4l4.9-0.6c3.1-0.2,5.3-0.5,8.4-0.9l2-0.3c0,1.8-0.1,2.3-0.1,4l-0.2,1.9l-0.2,1.5l-0.1,2.6l0.3,1.7l0.5,0.3
				c2.5-0.7,3.6-1.2,3.6-1.9c0-0.1,0-0.2,0-0.3c1-0.8,1.5-3.1,2.1-4.3c0.5-1.2,0.6-2.9,0.9-4.2l0.2-1.5l0-0.9c0.5-0.2,1-0.1,1.6-0.5c0-0.2,0.2-0.6,0.2-0.8c0-0.1,0-0.3-0.2-0.7h-1.1v-0.4c0-1.1,0.1-2,0.1-2.6c0-1.5-0.2-3.3-0.5-4.5c-0.2-1-0.5-1.8-1.2-3
				c-0.5-0.8-1.5-1.3-2.9-1.7l-2.5-0.6l-2.9-0.3l1.4-1.1l0.2-0.7l1-0.9c0.3,0,0.3-0.2,0.3-0.2c0-0.7-0.7-0.7-3.4-0.7l-4.6,1.2l-1.5,0.2l-1.5,1.4c-1,0.4-1.7,0.3-3.7,0.3c-0.2,0.3-0.7,0.4-1.6,0.6v1.1l1.4,0.6c-0.3,0.3-1.8,0.3-2.6,1.1l-5,5.6l-0.2,0.3l-2.1,2.5
				l-2.1,2.8l-0.4,0.6l-0.3,0.3l-4.5,0.7l-0.2,0.2l-0.6,0.5L314,215c-0.3,0.6-0.4,0.7-0.3,1.3c0,0.2,0.5,0.5,1.2,0.7h2.1v0.2l-0.2,0.3c-0.7,1-1.5,2.7-2.2,3.7l-1.3,2.1l-1.5,1.1c0,0.1-0.2,0.3-0.2,0.5c0,1.6,0.7,1.5,2,1.7z M330.6,209.4l2.8-3l3.4-3.6l2.1-1.5
				l1.8-0.3c1.7,0.2,3,0.7,4.6,1.4l0.9,0.8c2,2.2,1.7,5.7,1.7,7.6l-2,0.3l-2.4,0.2l-5.1,0.2c-2.2,0.1-4.6,0.3-6.9,0.2l-3.2,0.1l2.3-2.4z"/>
			<path id="s" d="M372.3,225.4h0.2h0.4c2.9,0,5.8-1,8.7-1.5c2.4-0.7,4.8-1.5,7.2-2.1c1.9-0.9,4-1.6,5.8-2.4l0.6-0.2l2.6-0.6c1.2-0.2,1.4-0.3,1.7-0.8c-0.3-0.2-0.3-0.3-0.3-0.5v-0.2c0-0.3-0.2-0.4-0.6-0.4c-0.2,0-0.2,0.1-0.6,0.1l-0.9,0.2c0-0.5,0-0.9,0-1.2
				c0-2.4-1.5-2.1-2.9-3c-0.2-0.1-14.7-6.1-14.7-9.1c0-1.2,1.4-2.3,4.6-3.6c1.1-0.5,5-1.7,6-1.8c0,0.8-1.6,1.4-4.3,2.2c-0.4,0-0.6,0.4-0.6,0.6v0.2c0.6,0.2,1.2,0.3,1.7,0.3c0,0,0.3,0,0.6-0.1c3.8-0.7,8.4-2,13.1-3.7l0.5-0.1l0.9-0.3c0.6-0.6,0.6-1.4,0.6-2.2
				c0-0.2-0.6-1.2-2-1.2c-0.2,0-0.7,0-0.9,0c-2.6,0.1-6.7,0.9-12.2,2.1l-1.5,0.3c-1.5,0.4-6.5,1.6-8.3,2.4c-2,0.6-3.8,1.3-5.9,2.7l-1.2,0.9c-0.6,0.3-1.8,1.9-1.8,2.6c0,2.5,3.4,3.4,5,4.5c1.1,0.6,2.5,1.2,3.7,1.8l0.6,0.2c3,1.3,11,4.2,11,6c0,0.1,0,0.3-0.2,0.5
				c-0.6,0.3-1.6,0.5-2.4,0.7c-1.7,0.4-2.5,0.6-4.3,0.8l-9.1,1.7l-0.9,0.1c-3.7,0.7-5.7,1.5-5.7,1.7v0.2c-0.3,0.2-0.3,0.3-0.3,0.7c0,0.1,0,0.2,0,0.2l0.6,0.5c2,0.5,3.8,0.8,5.2,0.8z"/>
			<path id="i" d="M414.7,224.3c0.8,0,1.7-0.2,3.2-0.5c1.4-0.4,2.2-0.6,2.6-1.2l-0.9-0.6l-0.3-0.4c-0.4-0.6-0.4-1.2-0.4-1.6c0-9.3,6.3-15.5,8.2-23.6c0.4-1.6-3-1.4-4-1.2l-1.7,0.4c-3,0.4-9.3,5.9-9.3,9.4c0,0.2,0,0.5,0.2,1c2.7-0.4,2.1,0.6,1.6,2.1
				c-0.9,2.6-5.1,16.3,0.8,16.3z"/>
			<path id="c" d="M476.3,195l-2.6-0.1l-2.3,0c-6.5,0.5-11.4,1-18.1,3.1c-2.2,0.7-3.9,1.4-6.2,2.3c-6.7,2.7-9.6,5.6-10.4,6.7c-1.2,1.5-2.6,3.4-3,7.1c0,3.2,1.2,4.4,2.1,5.5c1.5,1.3,7,3.7,11,4.4c3.1,0.6,6.6,1.2,9.7,1.2c5.2,0,14.5-1,18.9-3.4c1.1-0.3,2.2-0.8,2.4-1.2
				c0.2-0.3,0.4-0.6,0.4-0.6c0-0.2-0.4-0.3-0.8-0.4l-1.3,0.4l-1.9,0.6c-4.9,1.1-8.9,1.7-14,1.7c-3.5,0-8.7-1-11-2.3l-1.8-0.8c-2.9-1.8-3.8-3.7-3.8-7c0.3-3.4,2.2-6.3,6.5-8.8l0.5-0.5c1.4-0.7,2.6-1.4,4.2-2l1.3-0.5c3-1.3,5.7-1.4,8.9-1.8l1.9-0.2l3.8-0.1l2.3,0.1
				c2,0.4,4.9,0.9,2.2,3.2c-1.9,1.4-2.9,2.1-4.8,3.9l-1.1,1.4c-0.7,1.4-0.9,2.7-0.5,4.2l0.8,0.9c1.3,0.5,2.5,0.7,3.9,0.5l2.6-1l0.8-0.6c2.4-1.7,3.8-4,4.4-5.4l0.4-0.9c0.4-1.3,0.9-2.1,0.9-3c0.1-1.8-0.2-3.5-1.3-4.9c-2.2-1-2.6-1.3-5-1.7z"/>
			<path id="hacek" d="M481.6,187.3c-2.3,0-5,1.3-7.8,2.4c-1.7,0.7-3.2,0.5-4.3-0.2c-3-0.5-8-1.9-9-1.6c-2.9,2-1.6,3,0.3,3.6c2.3,0.4-2.1-1.5,8.1,1.4c2.6,0.5,4.9,0.2,6.6-0.7c2.6-0.5,5.3-1,7.6-1.4c1.5-0.2,0.2-3.7-1.5-3.4z"/>

			<path id="list1" d="M196.1,215.3c7.5-0.2,5.3-2.1,6.6-4.4c1.1-1.9,6.4-3.1,2.4-5.6c-7.4-4.6-23.2-11.7-28.9-14.3c-3.2-1.3-4.9-1.6-5.1,4c-0.1,2.7,5.5,3.9,5.4,4.9c-0.4,4.3-4.8,0.8-15.4-2.4c-2.1-0.6-3.1,3.3-1.9,4.5c0.9,0.9,3,2.1,3.3,3.7c0.5,2.1,0.4,5.2,1.8,5.2
				c8.5,0.3,17.5,3.3,28.7,4.3h3z"/>
			<path id="list2" d="M202.4,229.1c7.2,0.5,6.1-0.8,9.2-1.1c4.2-0.5,8.7-0.9,10.9-0.3c3.6,1.1,3-0.5,5.4-0.2c4.6,0.7,5.7-0.6,7.6-2.4c3.9-3.8,7.8-11.4,12.4-14.9c3.5-2.6,2.7-5.1,5.2-7.3c3.2-2.9,2.7-8.6-1.4-9.7c-3.6-0.9-5.2-1.5-5.2-3.7c0-2.4-2.2-3.9-3.3-4.4
				c-3.5-1.4-11.3-2.5-11.8-0.6c-0.1,0.6,0.2,1.8-1.9,1.9c-2.3,0.5-7.1,1.9-1,6.8c1,0.9,0.1,1.4,0,1.6c-1.5,3.5,4.4,7.9,1.9,8.1c-4.1,0.4-3.5-2.9-6.2-5.1c-5.7-4.5-2-4.3-3.8-8.5c-1.3-3.3-2.4-7.2-3.6-10.1c-1.8-6.5-3.8-3-12.7-5.3c-5.5-1.4-11.1,1.6-11.1,3.2
				c0,5.8,7.8,17.1,9.4,22.2c0.8,2.9,1.7,2.2,3.1,2c3.8-1.6,8.1,1.1,8,3.3c-0.1,4.4-5.4,3.3-5.8,4.6c-0.8,1.4,3.9,3.6,3.9,5.1c1.3,1.3,0.6,2.7-1,2.7c-10,0.2-40.1-2.9-40.2,1.1c-0.4,3.7,5.2,2.9,6.7,2.9c3.9,0.9-2.1,3.3,1.6,5.7c4.5,3.3,19.2,1.7,23.9,2z"/>
			<path id="cara" d="M214.2,233.4c-11,2.5-21.6,4.5-31.9,3.8c-4.6-0.3-5.2,1.5-0.7,2.5c9.5,2.2,19.2,3.4,30.9,5.5c12.3,2.2,23.2,2.2,33.5,0.4c9.5-1.7,18.1-9.3,26.5-9.4l208.4,0.1v-4.4H261.5c-18.4-1.2-34.7-1.5-47.3,1.5z"/>

			<path d="M297.8,243h-8.1l-7.6,7.6l-0.1-0.1l1.6-7.5h-6.2l-4.3,20h6.2l1-4.9l4.4-3.8l3.8,8.7h6.7l-6.1-12.5l8.7-7.6z"/>
			<path d="M311.7,249.2c-1-0.7-2.9-1.1-5.8-1.1c-2.5,0-4.4,0.4-5.6,1.1c-1.2,0.7-2,1.8-2.3,3.2l5.2,0.6c0.3-0.7,0.6-1.1,1-1.3s0.9-0.3,1.6-0.3c0.6,0,1.1,0.1,1.5,0.3s0.6,0.5,0.6,0.9c0,0.2-0.1,0.6-0.2,1c-0.5,0.2-1.6,0.3-3.2,0.5c-1.8,0.2-3.2,0.4-4.3,0.6
				c-1,0.2-1.9,0.7-2.6,1.4c-0.7,0.7-1.1,1.7-1.1,2.9c0,1.1,0.4,2.1,1.2,3c0.8,0.9,2.1,1.3,4,1.3c1.8,0,3.4-0.7,4.9-2c0,0.5,0.1,1.1,0.2,1.7h5.4c-0.2-0.7-0.4-1.4-0.4-2c0-0.8,0.2-2.2,0.7-4.1c0.5-2.1,0.8-3.6,0.8-4.5c0-1.4-0.5-2.4-1.5-3.1z M305.7,259.4
				c-0.7,0.6-1.4,0.9-2.1,0.9c-0.5,0-0.9-0.1-1.2-0.4c-0.3-0.3-0.5-0.6-0.5-1.1c0-0.4,0.2-0.8,0.7-1.2c0.4-0.3,2-0.7,4.5-1.1c-0.2,1.4-0.7,2.4-1.4,2.9z"/>
			<path d="M325,243.1l-6.2,3.1l-0.5,2.3h-2l-0.8,4h2l-1,5c-0.3,1.3-0.4,2-0.4,2.3c0,0.9,0.3,1.7,1,2.4c0.7,0.7,1.8,1.1,3.3,1.1c0.8,0,2-0.1,3.7-0.3l0.8-4c-0.9,0.2-1.4,0.3-1.7,0.3c-0.9,0-1.3-0.3-1.3-1c0-0.2,0-0.5,0.1-0.7l1.1-5.1h2.9l0.8-4h-2.9l1.1-5.4z"/>
			<path d="M342.5,249.2c-1-0.7-2.9-1.1-5.8-1.1c-2.5,0-4.4,0.4-5.6,1.1c-1.2,0.7-2,1.8-2.3,3.2l5.2,0.6c0.3-0.7,0.6-1.1,1-1.3s0.9-0.3,1.6-0.3c0.6,0,1.1,0.1,1.5,0.3s0.6,0.5,0.6,0.9c0,0.2-0.1,0.6-0.2,1c-0.5,0.2-1.6,0.3-3.2,0.5c-1.8,0.2-3.2,0.4-4.3,0.6
				c-1,0.2-1.9,0.7-2.6,1.4c-0.7,0.7-1.1,1.7-1.1,2.9c0,1.1,0.4,2.1,1.2,3c0.8,0.9,2.1,1.3,4,1.3c1.8,0,3.4-0.7,4.9-2c0,0.5,0.1,1.1,0.2,1.7h5.4c-0.2-0.7-0.4-1.4-0.4-2c0-0.8,0.2-2.2,0.7-4.1c0.5-2.1,0.8-3.6,0.8-4.5c0-1.4-0.5-2.4-1.5-3.1z M336.5,259.4
				c-0.7,0.6-1.4,0.9-2.1,0.9c-0.5,0-0.9-0.1-1.2-0.4c-0.3-0.3-0.5-0.6-0.5-1.1c0-0.4,0.2-0.8,0.7-1.2c0.4-0.3,2-0.7,4.5-1.1c-0.2,1.4-0.7,2.4-1.4,2.9z"/>
			<path d="M345.5,263h5.6l4.3-20h-5.6l-4.3,20z"/>
			<path d="M364.7,248.2c-1.9,0-3.5,0.4-4.9,1.2c-1.4,0.8-2.4,1.8-3.2,3.2s-1.1,2.8-1.1,4.3c0,1.9,0.6,3.4,1.8,4.7c1.2,1.3,3.1,1.9,5.6,1.9c2,0,3.7-0.4,5.1-1.2c1.4-0.8,2.4-1.9,3.1-3.3c0.7-1.4,1-2.7,1-4.1c0-1.8-0.6-3.3-1.8-4.6s-3.1-2-5.7-2z M365.8,258
				c-0.6,1.1-1.4,1.6-2.5,1.6c-0.7,0-1.2-0.3-1.7-0.8s-0.7-1.2-0.7-2c0-1.1,0.3-2.2,0.9-3.3s1.5-1.6,2.6-1.6c0.6,0,1.1,0.2,1.5,0.6s0.7,1,0.7,2c0,1.3-0.3,2.5-0.9,3.5z"/>
			<path d="M386.2,250.5c-1.2-1.6-2.6-2.4-4.4-2.4c-2.1,0-3.9,0.8-5.3,2.5s-2.1,3.7-2.1,6c0,1.7,0.4,3.1,1.3,4.2s2.1,1.6,3.5,1.6c1.6,0,3.1-0.6,4.3-1.9l0.1,0.1l-0.5,2.2c-0.2,0.9-0.5,1.6-1,2.1c-0.4,0.5-1,0.7-1.7,0.7c-1,0-1.6-0.5-1.6-1.5l-5.3-0.8
				c0,0.1,0,0.4,0,0.7c0,1,0.3,1.9,1,2.8s1.4,1.4,2.4,1.7s2.2,0.4,3.9,0.4c2.4,0,4.2-0.4,5.4-1.3c1.2-0.9,2.1-2.7,2.7-5.4l2.9-13.6h-5.2l-0.5,2.1z M384.2,257c-0.5,1.1-1.3,1.7-2.3,1.7c-0.6,0-1-0.2-1.4-0.6s-0.6-0.9-0.6-1.6c0-1.2,0.3-2.3,0.9-3.2
				c0.6-1,1.4-1.4,2.2-1.4c0.5,0,1,0.2,1.3,0.6s0.6,0.9,0.6,1.5c0,1-0.3,2-0.8,3.1z"/>
      <text x="403" y="263" font-size="30px" font-weight="bolder" font-style="italic" font-family="Helvetica, sans-serif">2003</text>

    	<animate id="Lg1" begin="Uvod.end+1s" attributeType="CSS" attributeName="fill-opacity" from="1" to="0" dur="1s" fill="freeze" />
    
    	<animate id="Lg2" begin="tt4b.end+1s" attributeType="CSS" attributeName="fill-opacity" from="0" to="1" dur="2.2s" fill="freeze" />
    	<animate begin="Uvod.begin+3s" attributeName="fill" values="green;#FF0000;#FF0000;green" dur="1s" repeatCount="1" />
    
    	<animateTransform id="Odchod" begin="Lg2.end+1.25s" attributeName="transform" type="rotate" from="0,390,250" to="360,390,250" dur="3.6s" repeatCount="1" fill="freeze" />
    	<animateTransform begin="Odchod.begin" attributeName="transform" type="scale" values="1 1;0 0" additive="sum" dur="3.7s" accumulate="none" calcMode="paced" repeatCount="1" fill="freeze" />

	</g>


<image x="129" y="74" width="400" height="300" xlink:href="swgirls1.jpg" style="opacity:0">
	<animate id="pp1a" begin="tt1a.end+1.2s" attributeType="CSS" attributeName="opacity" from="0" to="1" dur="0.7s" fill="freeze" />
	<animate id="pp1b" begin="pp1a.end+1s" attributeType="CSS" attributeName="opacity" from="1" to="0" dur="0.7s" fill="freeze" />
</image>

<text x="140" y="100" font-size="18px" font-family="Helvetica, sans-serif" stroke="none" stroke-width="0" fill="darkgreen" font-weight="600" style="opacity:0">Original pictures to this demo are all lost...
	<animate id="tt1a" begin="Lg1.end+0.5s" attributeType="CSS" attributeName="opacity" from="0" to="1" dur="0.33s" fill="freeze" />
	<animate id="tt1b" begin="pp1b.begin" attributeType="CSS" attributeName="opacity" from="1" to="0" dur="0.33s" fill="freeze" />
</text>


<image x="129" y="74" width="400" height="300" xlink:href="swgirls3.jpg" style="opacity:0">
	<animate id="pp2a" begin="tt2a.end+1.2s" attributeType="CSS" attributeName="opacity" from="0" to="1" dur="1s" fill="freeze" />
	<animate id="pp2b" begin="pp2a.end+1s" attributeType="CSS" attributeName="opacity" from="1" to="0" dur="1s" fill="freeze" />
</image>

<text x="140" y="100" font-size="18px" font-family="Helvetica, sans-serif" stroke="none" stroke-width="0" fill="darkgreen" font-weight="600" style="opacity:0">...so I replaced them with StarWars ones...
	<animate id="tt2a" begin="tt1b.end+1.5s" attributeType="CSS" attributeName="opacity" from="0" to="1" dur="0.33s" fill="freeze" />
	<animate id="tt2b" begin="pp2b.begin" attributeType="CSS" attributeName="opacity" from="1" to="0" dur="0.33s" fill="freeze" />
</text>


<image x="129" y="74" width="400" height="300" xlink:href="swgirls2.jpg" style="opacity:0">
	<animate id="pp3a" begin="tt3a.end+1.2s" attributeType="CSS" attributeName="opacity" from="0" to="1" dur="1s" fill="freeze" />
	<animate id="pp3b" begin="pp3a.end+1s" attributeType="CSS" attributeName="opacity" from="1" to="0" dur="1s" fill="freeze" />
</image>

<text x="140" y="100" font-size="18px" font-family="Helvetica, sans-serif" stroke="none" stroke-width="0" fill="darkgreen" font-weight="600" style="opacity:0">I decided to use rather girls than boys...
	<animate id="tt3a" begin="tt2b.end+1.5s" attributeType="CSS" attributeName="opacity" from="0" to="1" dur="0.33s" fill="freeze" />
	<animate id="tt3b" begin="pp3b.begin" attributeType="CSS" attributeName="opacity" from="1" to="0" dur="0.33s" fill="freeze" />
</text>


<image x="129" y="74" width="400" height="300" xlink:href="swgirls4.jpg" style="opacity:0">
	<animate id="pp4a" begin="tt4a.end+1.2s" attributeType="CSS" attributeName="opacity" from="0" to="1" dur="1s" fill="freeze" />
	<animate id="pp4b" begin="pp4a.end+1s" attributeType="CSS" attributeName="opacity" from="1" to="0" dur="1s" fill="freeze" />
</image>

<text x="140" y="100" font-size="18px" font-family="Helvetica, sans-serif" stroke-width="0" fill="darkgreen" font-weight="600" style="opacity:0">...and I hope you like them very much...
	<animate id="tt4a" begin="tt3b.end+1.5s" attributeType="CSS" attributeName="opacity" from="0" to="1" dur="0.33s" fill="freeze" />
	<animate id="tt4b" begin="pp4b.begin" attributeType="CSS" attributeName="opacity" from="1" to="0" dur="0.33s" fill="freeze" />
</text>



     <!-- orig stroke:  green -->
	<rect x="139" y="129" width="380" height="188" stroke-width="400" fill="none" stroke="green" rx="200" ry="100">
    	<animate id="Ellip1" begin="tt1a.end+0.5s;tt2a.end+0.5s;tt3a.end+0.5s;tt4a.end+0.5s" attributeName="rx" from="200" to="20" dur="0.5s" repeatCount="1" fill="freeze" />
    	<animate begin="Ellip1.begin" attributeName="ry" from="100" to="20" dur="0.5s" repeatCount="1" fill="freeze" />
    	<animate begin="Ellip1.begin" attributeType="CSS" attributeName="stroke-opacity" from="1" to="0.2" dur="0.5s" fill="freeze" />
    
    	<animate id="Ellip2" begin="pp1b.end+0.2s;pp2b.end+0.2s;pp3b.end+0.2s;pp4b.end+0.2s" attributeName="rx" from="20" to="200" dur="0.6s" repeatCount="1" fill="freeze" />
    	<animate begin="Ellip2.begin" attributeName="ry" from="20" to="100" dur="0.6s" repeatCount="1" fill="freeze" />
    	<animate begin="Ellip2.begin" attributeType="CSS" attributeName="stroke-opacity" from="0.2" to="1" dur="0.6s" fill="freeze" />
    
    	<animateTransform begin="Odchod.begin+0.33s" attributeName="transform" type="rotate" from="0,390,250" to="360,390,250" dur="3.6s" repeatCount="1" fill="freeze" />
    	<animateTransform begin="Odchod.begin+0.33s" attributeName="transform" type="scale" values="1 1;0 0" additive="sum" dur="3.7s" accumulate="none" calcMode="paced" repeatCount="1" fill="freeze" />
    
     <!-- vubec prvni animace, orig. 1s -->
    	<animate id="Uvod" begin="1s" attributeName="stroke-width" from="400" to="6" dur="3s" repeatCount="1" fill="freeze" />
	</rect>

    <set begin="Odchod.begin+4s" attributeType="CSS" attributeName="display" to="none" />
</g>

<!--****************************************************************************************************-->
<!--****************************************************************************************************-->
<!--****************************************************************************************************-->

<g id="global" style="display:none;">

    <!-- CAST ANIMACE SMEREM TAM (ODJEZD CR, PRIJEZD SR) -->

    <g transform="scale(2.1 2.1) translate(8 8)" style="display:block;">
        <use xlink:href="#CR" fill="green" stroke="orange" stroke-width="0" />

        <animateTransform attributeName="transform" type="translate" id="CRmove1" begin="SRmove1.end+0.25s" dur="2s" repeatCount="1" by="-195 -47" restart="whenNotActive" />
        <set begin="CRmove1.end" attributeType="CSS" attributeName="display" to="none" />
        <set begin="CRmove2.end" attributeType="CSS" attributeName="display" to="block" />
        <set begin="Rotace1.begin" attributeType="CSS" attributeName="display" to="block" />


        <g id="detaily_CR" transform="scale(0.9 0.9) translate(29 5)">
            <animate id="hideTownsCR1" begin="borderSR1.end+0.5s" attributeType="CSS" attributeName="opacity" from="1" to="0" dur="0.5s" />
            <set begin="hideTownsCR1.end" attributeType="CSS" attributeName="display" to="none" />
            <set begin="SRmove2.end+0.5s" attributeType="CSS" attributeName="display" to="block" />
            <animate begin="SRmove2.end+0.5s" attributeType="CSS" attributeName="opacity" from="0" to="1" dur="0.5s" />

            <!-- OPAVA -->
            <g style="display:none">
                <g style="opacity:0">
                    <use xlink:href="#krouzek" stroke="#ffffff" stroke-width="3" transform="translate(299 94)" />
                    <animate begin="Opava.begin+0.3s" id="BdOpava" attributeType="CSS" attributeName="opacity" from="0" to="1" dur="0.8s" fill="freeze" />
                    <set begin="Muf1.begin" attributeType="CSS" attributeName="stroke" to="yellow" />
                    <set begin="Muf1U.end" attributeType="CSS" attributeName="stroke" to="white" />
                </g>

                <text x="209" y="104" font-size="13px" font-family="Helvetica, sans-serif" stroke="none" fill="yellow" style="fill-opacity:0">Opava
                    <animate begin="BdOpava.end+0.5s" id="TxOpava" attributeType="CSS" attributeName="letter-spacing" from="20" to="0" dur="0.6s" />
                    <animate begin="TxOpava.begin" attributeType="XML" attributeName="x" from="209" to="259" dur="0.6s" fill="freeze" />
                    <animate begin="TxOpava.begin" attributeType="CSS" attributeName="fill-opacity" from="0" to="1" dur="1.2s" fill="freeze" />
                    <set begin="Muf1.begin" attributeType="CSS" attributeName="fill" to="red" />
                    <set begin="Muf1U.end" attributeType="CSS" attributeName="fill" to="yellow" />
                </text>

                <set begin="Zoom1.end+0.5s" id="Opava" attributeType="CSS" attributeName="display" to="block" />
            </g>

            <!-- dalsi mesta u Opavy - start -->
            <g style="display:none">
                <circle cx="289" cy="108" r="2.5" fill="black" stroke="beige" stroke-width="2" />
                <text x="247" y="115" font-size="6px" font-family="Helvetica, sans-serif" stroke="none" fill="yellow">Dolní Životice
                </text>

                <circle cx="297" cy="112" r="2" fill="black" stroke="beige" stroke-width="2" />
                <text x="266" y="126" font-size="6px" font-family="Helvetica, sans-serif" stroke="none" fill="yellow">Štáblovice
                </text>

                <set begin="Muf1.end" attributeType="CSS" attributeName="display" to="block" />
                <set begin="Muf1U.begin" attributeType="CSS" attributeName="display" to="none" />
            </g>
    <!-- dalsi mesta u Opavy - konec -->


            <!-- PRAHA -->
            <g style="display:none">
                <circle cx="122" cy="84" r="6" fill="red" stroke="white" stroke-width="2" style="opacity:0">
                    <animate begin="Praha.begin+0.3s" id="BdPraha" attributeType="XML" attributeName="fill" values="red;white;red" dur="0.9s" />
                    <animate begin="BdPraha.begin" attributeType="CSS" attributeName="opacity" from="0" to="0.45" dur="0.8s" fill="freeze" />
                </circle>

                <text x="26" y="88" font-size="13px" font-family="Helvetica, sans-serif" stroke="none" fill="yellow" style="fill-opacity:0">Praha
                    <animate begin="BdPraha.end+0.5s" id="TxPraha" attributeType="CSS" attributeName="letter-spacing" from="20" to="0" dur="0.6s" />
                    <animate begin="TxPraha.begin" attributeType="XML" attributeName="x" from="26" to="76" dur="0.6s" fill="freeze" />
                    <animate begin="TxPraha.begin" attributeType="CSS" attributeName="fill-opacity" from="0" to="0.45" dur="1.2s" fill="freeze" />
                </text>

                <set begin="TxOpava.end+0.5s" id="Praha" attributeType="CSS" attributeName="display" to="block" />
            </g>

            <!-- BRNO -->
            <g style="display:none">
                <g style="opacity:0">
                    <use xlink:href="#krouzek" stroke="#ffffff" stroke-width="3" transform="translate(230 155)" />
                    <animate begin="Brno.begin+0.3s" id="BdBrno" attributeType="CSS" attributeName="opacity" from="0" to="1" dur="0.8s" fill="freeze" />
                    <set begin="Muf3.begin" attributeType="CSS" attributeName="stroke" to="yellow" />
                    <set begin="Muf3U.end" attributeType="CSS" attributeName="stroke" to="white" />
                </g>

                <text x="172" y="166" font-size="13px" font-family="Helvetica, sans-serif" stroke="none" fill="yellow" style="fill-opacity:0">Brno
                    <animate begin="BdBrno.end+0.5s" id="TxBrno" attributeType="CSS" attributeName="letter-spacing" from="20" to="0" dur="0.6s" />
                    <animate begin="TxBrno.begin" attributeType="XML" attributeName="x" from="172" to="200" dur="0.6s" fill="freeze" />
                    <animate begin="TxBrno.begin" attributeType="CSS" attributeName="fill-opacity" from="0" to="1" dur="1.2s" fill="freeze" />
                    <set begin="Muf3.begin" attributeType="CSS" attributeName="fill" to="red" />
                    <set begin="Muf3U.end" attributeType="CSS" attributeName="fill" to="yellow" />
                </text>

                <set begin="TxPraha.end+0.5s" id="Brno" attributeType="CSS" attributeName="display" to="block" />
            </g>

            <!-- OSTRAVA -->
            <g style="display:none">
                <circle cx="330" cy="110" r="4" fill="red" stroke="white" stroke-width="2" style="opacity:0">
                    <animate begin="Ostrava.begin+0.3s" id="BdOstrava" attributeType="XML" attributeName="fill" values="red;white;red" dur="0.9s" />
                    <animate begin="BdOstrava.begin" attributeType="CSS" attributeName="opacity" from="0" to="0.45" dur="0.8s" fill="freeze" />
                </circle>

                <text x="250" y="128" font-size="13px" font-family="Helvetica, sans-serif" stroke="none" fill="yellow" style="fill-opacity:0">Ostrava
                    <animate begin="BdOstrava.end+0.5s" id="TxOstrava" attributeType="CSS" attributeName="letter-spacing" from="20" to="0" dur="0.6s" />
                    <animate begin="TxOstrava.begin" attributeType="XML" attributeName="x" from="250" to="306" dur="0.6s" fill="freeze" />
                    <animate begin="TxOstrava.begin" attributeType="CSS" attributeName="fill-opacity" from="0" to="0.45" dur="1.2s" fill="freeze" />
                </text>

                <set begin="TxBrno.end+0.5s" id="Ostrava" attributeType="CSS" attributeName="display" to="block" />
            </g>

            <!-- AKTIVNI OBLASTI PREKRYVAJICI OBCE -->
            <g id="Oblasti" style="display:none">
                <rect id="Zumuj1" x="259" y="94" width="55" height="14" stroke="none" fill="white" style="fill-opacity:0" />
                <rect id="Zumuj3" x="202" y="156" width="42" height="11" stroke="none" fill="white" style="fill-opacity:0" />

                <set begin="MakeDetail.begin" id="SchovejVse" attributeType="CSS" attributeName="display" to="none" />
                <set begin="TxOstrava.end;DetailU.end" id="UkazVse" attributeType="CSS" attributeName="display" to="block" />
            </g>


            <!-- POPIS OPAVA -->
            <g id="PopisOpava" transform="translate(280 26)" style="display:none">
                <text x="-24" y="0" width="0" height="0" fill="darkgreen" stroke="none" stroke-width="0" font-size="4px">Headquarters Opava</text>
                <text x="-24" y="5" width="0" height="0" fill="darkgreen" stroke="none" stroke-width="0" font-size="4px">Nové Domky 175</text>
                <text x="-24" y="10" width="0" height="0" fill="darkgreen" stroke="none" stroke-width="0" font-size="4px">747 56 Dolní Životice</text>
                <text x="-24" y="15" width="0" height="0" fill="darkgreen" stroke="none" stroke-width="0" font-size="4px">tel: 553 786 940</text>
                <text x="-24" y="20" width="0" height="0" fill="red" stroke="none" stroke-width="0" font-size="4px"><a id="Muf1X" xlink:href="">Back</a></text>

                <image x="-86" y="-1" width="48" height="73" xlink:href="swgrl1.jpg" />
                <rect x="-87" y="-2" width="50" height="75" rx="6" stroke="yellow" stroke-width="3" fill="yellow">
                    <animate begin="Muf1.end+0.2s" attributeType="CSS" attributeName="fill-opacity" from="1" to="0" dur="0.7s" fill="freeze" />
                    <set begin="Muf1U.begin" attributeType="CSS" attributeName="fill-opacity" to="1" />
                </rect>

                <image x="36" y="-1" width="73" height="48" xlink:href="swgrl5.jpg" />
                <rect x="35" y="-2" width="75" height="50" rx="6" stroke="yellow" stroke-width="3" fill="yellow">
                    <animate begin="Muf1.end+0.2s" attributeType="CSS" attributeName="fill-opacity" from="1" to="0" dur="0.7s" fill="freeze" />
                    <set begin="Muf1U.begin" attributeType="CSS" attributeName="fill-opacity" to="1" />
                </rect>

                <set begin="Muf1U.begin" attributeType="CSS" attributeName="display" to="none" />
                <set begin="Muf1.end" attributeType="CSS" attributeName="display" to="block" />
            </g>

            <!-- POPIS BRNO -->
            <g id="PopisBrno" transform="translate(145 217)" style="display:none">
                <text x="0" y="-60" width="0" height="0" fill="white" stroke="none" stroke-width="0" font-size="4px">Warehouse Brno</text>
                <text x="0" y="-55" width="0" height="0" fill="white" stroke="none" stroke-width="0" font-size="4px">tel: 545 232 277</text>
                <text x="0" y="-50" width="0" height="0" fill="white" stroke="none" stroke-width="0" font-size="4px">fax: 545 232 281</text>
                <text x="0" y="-45" width="0" height="0" fill="white" stroke="none" stroke-width="0" font-size="4px">mobil: 603 802 112</text>
                <text x="0" y="-40" width="0" height="0" fill="red" stroke="none" stroke-width="0" font-size="4px"><a id="Muf3X" xlink:href="">Back</a></text>

                <image x="0" y="-29" width="73" height="48" xlink:href="swgrl6.jpg" />
                <rect x="-1" y="-30" width="75" height="50" rx="6" stroke="yellow" stroke-width="3" fill="yellow">
                    <animate begin="Muf3.end+0.2s" attributeType="CSS" attributeName="fill-opacity" from="1" to="0" dur="0.7s" fill="freeze" />
                    <set begin="Muf3U.begin" attributeType="CSS" attributeName="fill-opacity" to="1" />
                </rect>

                <set begin="Muf3U.begin" attributeType="CSS" attributeName="display" to="none" />
                <set begin="Muf3.end" attributeType="CSS" attributeName="display" to="block" />
            </g>

        </g>

    </g>


    <g transform="scale(2.1 2.1) translate(256 127)" style="display:block;">
        <use xlink:href="#SR" fill="gold" stroke="red" stroke-width="0">
            <animate id="borderSR1" begin="najezd_SR.mouseover" attributeType="XML" attributeName="stroke-width" values="0;2;1;0" dur="1s" />
        </use>
        <use id="najezd_SR" xlink:href="#SR" fill="white" stroke="none" stroke-width="0" style="fill-opacity:0;display:none;">
            <set begin="borderSR1.begin" attributeType="CSS" attributeName="display" to="none" />
            <set begin="borderSR1.begin" attributeType="XML" attributeName="stroke" to="red" />

            <set begin="Zoom1.end;SRmove1.end" attributeType="CSS" attributeName="display" to="block" />
            <set begin="Zoom1.end;SRmove1.end" attributeType="XML" attributeName="stroke-width" to="3" />
            <set begin="Zoom1.end;SRmove1.end" attributeType="XML" attributeName="stroke" to="none" />
        </use>

        <animateTransform attributeName="transform" type="translate" id="SRmove1" begin="borderSR1.end+1.5s" dur="2s" repeatCount="1" by="-195 -47" restart="whenNotActive" />
        <set begin="SRmove1.end" attributeType="CSS" attributeName="display" to="none" />
        <set begin="SRmove2.end" attributeType="CSS" attributeName="display" to="block" />

        <g transform="translate(65 37)" style="font-size:7px;font-family:Helvetica;fill-opacity:0.2;font-weight:bolder;display:none;">
            <text x="6" y="50" stroke="none" fill="black">Pasič</text>
            <text x="-4" y="58" stroke="none" fill="black">in Slovakia</text>
            <animate begin="borderSR1.begin" attributeType="CSS" attributeName="fill-opacity" values="0.2;1;0" dur="1s" fill="freeze" />
            <set begin="SRmove1.end" attributeType="CSS" attributeName="fill-opacity" to="0.2" />
            <set begin="Zoom1.end" attributeType="CSS" attributeName="display" to="block" />
        </g>
    </g>

    <g id="mask_SR" transform="scale(2.1 2.1) translate(256 127)" style="display:none;">
        <use xlink:href="#SR" fill="gray" stroke="none" stroke-width="0" />
        <set begin="SRmaskON.begin" attributeType="CSS" attributeName="display" to="block" />
        <animate id="SRmaskON" begin="Zumuj1.mouseover;Zumuj3.mouseover" attributeType="CSS" attributeName="fill-opacity" from="0" to="0.5" dur="1s" fill="freeze" />
        <animate id="SRmaskOFF" begin="Muf1U.begin;Muf3U.begin" attributeType="CSS" attributeName="fill-opacity" from="0.5" to="0" dur="1s" fill="freeze" />
        <set begin="SRmaskOFF.end" attributeType="CSS" attributeName="display" to="none" />
    </g>

    <!-- CAST ANIMACE SMEREM ZPET (ODJEZD SR, PRIJEZD CR) -->

    <g transform="scale(2.1 2.1) translate(61 80)" style="display:none;">
        <use id="odjezd_SR" xlink:href="#SR" fill="gold" stroke="red" stroke-width="0" />

        <animateTransform attributeName="transform" type="translate" id="SRmove2" begin="CRmove2.end+0.25s" dur="3s" repeatCount="1" by="195 47" restart="whenNotActive" />
        <set begin="SRmove1.end" attributeType="CSS" attributeName="display" to="block" />
        <set begin="SRmove2.end" attributeType="CSS" attributeName="display" to="none" />

        <g id="detaily_SK" transform="scale(0.9 0.9) translate(29 5)" style="display:none">
            <animate id="hideTownsSK1" begin="borderCR1.end+0.5s" attributeType="CSS" attributeName="opacity" from="1" to="0" dur="0.75s" />
            <set begin="hideTownsSK1.end" attributeType="CSS" attributeName="display" to="none" />
            <set begin="CRmove1.end+0.5s" attributeType="CSS" attributeName="display" to="block" />
            <animate begin="CRmove1.end+0.5s" id="showSK" attributeType="CSS" attributeName="opacity" from="0" to="1" dur="0.75s" />

            <!-- NITRA -->
            <g style="display:block">
                <g>
                    <use xlink:href="#krouzek" stroke="#ffffff" stroke-width="3" transform="translate(31 99)" />
                    <set begin="Muf7.begin" attributeType="CSS" attributeName="stroke" to="yellow" />
                    <set begin="Muf7U.end" attributeType="CSS" attributeName="stroke" to="white" />
                </g>

                <text x="26" y="97" font-size="13px" font-family="Helvetica, sans-serif" stroke="none" fill="green">Nitra
                    <set begin="Muf7.begin" attributeType="CSS" attributeName="fill" to="red" />
                    <set begin="Muf7U.end" attributeType="CSS" attributeName="fill" to="green" />
                </text>
            </g>

            <!-- BRATISLAVA -->
            <g style="display:block">
                <circle cx="-9" cy="120" r="6" fill="red" stroke="white" stroke-width="2" style="fill-opacity: 0.45" />
                <text x="0" y="134" font-size="13px" font-family="Helvetica, sans-serif" stroke="none" fill="green" style="fill-opacity: 0.45">Bratislava
                </text>
            </g>

            <!-- KOSICE -->
            <g style="display:block">
                <circle cx="229" cy="73" r="5.5" fill="red" stroke="white" stroke-width="2" style="fill-opacity: 0.45" />
                <text x="209" y="62" font-size="13px" font-family="Helvetica, sans-serif" stroke="none" fill="green" style="fill-opacity: 0.45">Košice
                </text>
            </g>

            <!-- AKTIVNI OBLASTI PREKRYVAJICI OBCE -->
            <g id="OblastNitra" style="display:none">
                <rect id="Zumuj7" x="26" y="87" width="27" height="26" stroke="none" fill="white" style="fill-opacity:0" />
                <set begin="MakeDetail.begin" id="SchovejVse2" attributeType="CSS" attributeName="display" to="none" />
                <set begin="showSK.end;DetailU.end" id="UkazVse2" attributeType="CSS" attributeName="display" to="block" />
            </g>


            <!-- POPIS NITRA -->
            <g id="PopisNitra" transform="translate(53 117)" style="display:none">
                <text x="57" y="-26" width="0" height="0" fill="darkgreen" stroke="none" stroke-width="0" font-size="4px">Warehouse Slovak</text>
                <text x="57" y="-21" width="0" height="0" fill="darkgreen" stroke="none" stroke-width="0" font-size="4px">Na hôrke 28</text>
                <text x="57" y="-16" width="0" height="0" fill="darkgreen" stroke="none" stroke-width="0" font-size="4px">949 11 Nitra</text>
                <text x="57" y="-11" width="0" height="0" fill="darkgreen" stroke="none" stroke-width="0" font-size="4px">00421/376 578 891</text>
                <text x="57" y="-6" width="0" height="0" fill="red" stroke="none" stroke-width="0" font-size="4px"><a id="Muf7X" xlink:href="">Back</a></text>

                <image x="16" y="-1" width="73" height="48" xlink:href="swgrl7.jpg" />
                <rect x="15" y="-2" width="75" height="50" rx="6" stroke="yellow" stroke-width="3" fill="yellow">
                    <animate begin="Muf7.end+0.2s" attributeType="CSS" attributeName="fill-opacity" from="1" to="0" dur="0.7s" fill="freeze" />
                    <set begin="Muf7U.begin" attributeType="CSS" attributeName="fill-opacity" to="1" />
                </rect>

                <set begin="Muf7U.begin" attributeType="CSS" attributeName="display" to="none" />
                <set begin="Muf7.end" attributeType="CSS" attributeName="display" to="block" />
            </g>

        </g>

    </g>

<!-- ####################################################### -->

    <g transform="scale(2.1 2.1) translate(-187 -39)" style="display:none">
        <use xlink:href="#CR" fill="green" stroke="red" stroke-width="0">
            <animate id="borderCR1" begin="najezd_CR.mouseover" attributeType="XML" attributeName="stroke-width" values="0;2;1;0" dur="1s" />
        </use>
        <use id="najezd_CR" xlink:href="#CR" fill="white" stroke="none" stroke-width="0" style="fill-opacity:0">
            <set begin="borderCR1.begin" attributeType="CSS" attributeName="display" to="none" />
            <set begin="CRmove2.end+3.25s" attributeType="CSS" attributeName="display" to="block" />
        </use>

        <animateTransform attributeName="transform" type="translate" id="CRmove2" begin="borderCR1.end+1s" dur="2s" repeatCount="1" by="195 47" restart="whenNotActive" fill="freeze" />
        <set begin="CRmove1.end" attributeType="CSS" attributeName="display" to="block" />
        <set begin="CRmove2.end+3.25s" attributeType="CSS" attributeName="display" to="none" />
        <animateTransform attributeName="transform" type="translate" begin="CRmove2.end+3.25s" dur="0.01s" repeatCount="1" by="195 47" restart="whenNotActive" fill="freeze" />

        <g transform="translate(230 80)" style="font-size:7px;font-family:Helvetica;fill-opacity:0.3;font-weight:bolder;">
            <text x="6" y="50" stroke="none" fill="white">Pasič</text>
            <text x="-16" y="58" stroke="none" fill="white">in Czech Republic</text>
            <animate begin="borderCR1.begin" attributeType="CSS" attributeName="fill-opacity" values="0.3;1;0" dur="1s" fill="freeze" />
            <set begin="CRmove2.end+3.25s" attributeType="CSS" attributeName="fill-opacity" to="0.3" />
        </g>
    </g>

    <g id="mask_CR" transform="scale(2.1 2.1) translate(-187 -39)" style="display:none;">
        <use xlink:href="#CR" fill="gray" stroke="none" stroke-width="0" />
        <set begin="CRmaskON.begin" attributeType="CSS" attributeName="display" to="block" />
        <animate id="CRmaskON" begin="Zumuj7.mouseover" attributeType="CSS" attributeName="fill-opacity" from="0" to="0.5" dur="1s" fill="freeze" />
        <animate id="CRmaskOFF" begin="Muf7U.begin" attributeType="CSS" attributeName="fill-opacity" from="0.5" to="0" dur="1s" fill="freeze" />
        <set begin="CRmaskOFF.end" attributeType="CSS" attributeName="display" to="none" />
    </g>


<!-- PRVNI UDALOST DRUHE PULE, orig. Odchod.begin+3s -->
    <animateTransform begin="Odchod.begin+3s" id="Rotace1" attributeName="transform" type="rotate" from="0,390,250" to="360,390,250" dur="3.6s" repeatCount="1" />
    <animateTransform begin="Rotace1.begin" id="Zoom1" attributeName="transform" type="scale" values="0 0;1 1" additive="sum" dur="4s" accumulate="none" calcMode="paced" repeatCount="1" />

    <set begin="Rotace1.begin" attributeType="CSS" attributeName="display" to="block" />

    <animateTransform begin="Zumuj1.mouseover;Zumuj3.mouseover;Zumuj7.mouseover" id="MakeDetail" attributeName="transform" type="scale" from="1 1" to="2 2" additive="replace" dur="2s" accumulate="none" calcMode="paced" repeatCount="1" fill="freeze" restart="whenNotActive" />
    <animateTransform begin="Muf1U.begin;Muf3U.begin;Muf7U.begin" id="DetailU" attributeName="transform" type="scale" from="2 2" to="1 1" additive="replace" dur="2s" accumulate="none" calcMode="paced" repeatCount="1" fill="freeze" restart="whenNotActive" />

    <animateMotion id="Muf1" begin="Zumuj1.mouseover" dur="2s" repeatCount="1" path="M 0 0 L -850 -130" rotate="0" fill="freeze" />
    <animateMotion id="Muf1U" begin="Muf1X.mouseover" dur="2s" repeatCount="1" path="M -850 -130 L 0 0" rotate="0" fill="freeze" />

    <animateMotion id="Muf3" begin="Zumuj3.mouseover" dur="2s" repeatCount="1" path="M 0 0 L -670 -470" rotate="0" fill="freeze" />
    <animateMotion id="Muf3U" begin="Muf3X.mouseover" dur="2s" repeatCount="1" path="M -670 -470 L 0 0" rotate="0" fill="freeze" />

    <animateMotion id="Muf7" begin="Zumuj7.mouseover" dur="2s" repeatCount="1" path="M 0 0 L -140 -500" rotate="0" fill="freeze" />
    <animateMotion id="Muf7U" begin="Muf7X.mouseover" dur="2s" repeatCount="1" path="M -140 -500 L 0 0" rotate="0" fill="freeze" />


</g>

<html:audio autoplay="true" loop="true">
  <html:source src="hudba.ogg" type="audio/ogg"/>
  <html:source src="hudba.mp3" type="audio/mpeg"/>
</html:audio>

<image xlink:href="http://www.google-analytics.com/__utm.gif?utmwv=4.7.1&amp;utmn=21830374&amp;utmhn=svg.kvalitne.cz&amp;utmcs=UTF-8&amp;utmsr=1920x1080&amp;utmsc=24-bit&amp;utmul=en-us&amp;utmje=1&amp;utmfl=10.0%20r45&amp;utmdt=SVG%C2%A0%E2%80%94%C2%A0It%27s%20in%20your%20hands...&amp;utmhid=1377849700&amp;utmr=-&amp;utmp=%2Findex2.htm&amp;utmac=UA-11950721-1&amp;utmcc=__utma%3D251371972.1884550355.1260220320.1272562824.1272576758.56%3B%2B__utmz%3D251371972.1263752798.41.3.utmcsr%3Dgoogle%7Cutmccn%3D(organic)%7Cutmcmd%3Dorganic%7Cutmctr%3Dsvg%2520smil%2520demo%3B" width="1" height="1"/>
</svg>