<svg xmlns="http://www.w3.org/2000/svg" xmlns:xlink="http://www.w3.org/1999/xlink" width="500px" height="440px" xmlns:html="http://www.w3.org/1999/xhtml" font-family="Helvetica, sans-serif">
  <title>Introduction for Agro Bio company CD-ROM, created by Marek Raida in 2002, modified a bit in 2010 for cross-browser compatibility, missing original images replaced</title>
  <script type="text/ecmascript" xlink:href="../fakesmile/smil.user.js"/>
	<style type="text/css">
	.rol { fill: rgb(227,239,207); stroke: none }
	.ram { fill: none;stroke: green; stroke-width: 2; stroke-dasharray:4,4; visibility: hidden }
	.obr { opacity: 0.0; visibility: hidden }
	.rm2 { fill: none; stroke-width: 2; stroke: rgb(227,239,207) }
	.vyd { font-family: Arial, Helvetica, sans-serif; font-size: 18px; fill: none; stroke: rgb(227,239,207); stroke-width: 1px; font-weight: bold }
	</style>

<defs>

<g id="Logo" style="stroke: none; stroke-width:0">
		<path d="M265,0H11C4.925,0,0,4.925,0,11v70c0,6.075,4.925,11,11,11h254c6.075,0,11-4.925,11-11V11c0-6.075-4.925-11-11-11z M269,79.5c0,3.313-2.687,6-6,6H13c-3.313,0-6-2.687-6-6v-67c0-3.313,2.687-6,6-6h250c3.313,0,6,2.687,6,6v67z" />
		<path d="M65.123,51.6c0-4.399,1.449-7.566,4.348-9.5c2.099-1.399,4.831-2.1,8.196-2.1H92.31v29.933c0,4.396-0.759,7.319-2.274,8.77c-1.516,1.448-4.622,2.173-9.319,2.173H70.072l-2.449-8.125h10.832h1.198c1.098,0,1.83-0.114,2.196-0.343
			c0.599-0.36,0.898-1.079,0.898-2.157c-5.094,0-9.354-1.949-12.782-5.85c-3.229-3.666-4.843-7.934-4.843-12.801z M82.748,48.188h-3.08c-1.49,0-2.6,0.267-3.328,0.799c-0.895,0.667-1.342,1.8-1.342,3.397c0,2.165,0.646,4.163,1.938,5.994
			c1.49,2.132,3.428,3.381,5.813,3.747V48.188z" />
		<path d="M97.009,70.25V40h9.125v1.75c0.869-0.796,1.915-1.401,3.136-1.815s2.434-0.622,3.639-0.622V48c-1.298,0-2.504,0.25-3.618,0.75s-2.021,1.317-2.719,2.45v19.05h-9.563z" />
		<path d="M115.134,50.799c0-3.861,1.133-6.774,3.398-8.739c2.132-1.831,5.114-2.747,8.946-2.747h4.298c3.531,0,6.33,0.783,8.396,2.348c2.599,1.965,3.898,5.011,3.898,9.139c0,4.595-1.116,8.89-3.349,12.885c-2.766,4.961-6.464,7.441-11.095,7.441
			c-4.166,0-7.664-2.131-10.496-6.393c-2.666-4.028-3.998-8.673-3.998-13.934z M124.946,51.696c0,2.698,0.506,5.163,1.519,7.395s2.034,3.347,3.063,3.347c1.095,0,2.157-1.082,3.187-3.247c1.029-2.164,1.544-4.662,1.544-7.494c0-1.531-0.481-2.647-1.444-3.347
			c-0.797-0.566-1.859-0.85-3.188-0.85c-1.527,0-2.688,0.309-3.485,0.925s-1.195,1.707-1.195,3.271z" />
		<path d="M60.708,24.625c-3.552,0-9.523,0-9.523,0c-5.137,0-9.289,0.813-12.457,2.438c-4.225,2.152-7.152,5.883-8.783,11.188h15.348V26.375h15.396V70.25H45.292V51.5H28.36c0,3.164,0.602,6.521,1.809,10.068c1.061,3.117,2.436,5.994,4.123,8.631l-12.543,8.27
			c-2.453-3.596-4.447-7.527-5.984-11.793c-2.115-5.801-3.172-11.602-3.172-17.402c0-5.703,0.936-11.025,2.809-15.965c2.398-6.328,6.119-11.361,11.16-15.102c3.359-2.588,6.971-4.373,10.834-5.357c3.863-0.982,8.725-1.475,14.58-1.475c0,0,3.146,0,5.399,0h114.667
			c7.542,0,24.247,0,24.247,0c11.52,0,17.279,4.535,17.279,13.604c0,2.928-0.938,5.688-2.809,8.277c-0.865,1.199-2.498,2.902-4.896,5.109c2.688,2.064,4.801,4.127,6.336,6.189c2.592,3.504,3.889,7.295,3.889,11.373c0,5.566-2.354,9.523-7.057,11.875
			c-3.266,1.633-7.514,2.447-12.744,2.447h-28.584V26.375h15.443V57h8.877c2.309,0,3.895-0.168,4.762-0.504c1.348-0.529,2.021-1.516,2.021-2.957c0-2.066-1.369-4.398-4.105-6.994c-2.738-2.596-6.34-5.023-10.805-7.283c2.449-1.826,4.348-3.244,5.693-4.254
			c4.371-3.268,6.557-5.84,6.557-7.715c0-1.201-0.504-1.945-1.512-2.234s-3.098-0.434-6.266-0.434c0,0-12.589,0-19.328,0H60.708z" />
		<path d="M230.92,29.375v8.188h-9.563v-8.188h9.563z M230.92,40v30.25h-9.563V40h9.563z" />
		<path d="M234.72,50.799c0-3.861,1.133-6.774,3.398-8.739c2.132-1.831,5.114-2.747,8.946-2.747h4.298c3.531,0,6.33,0.783,8.396,2.348c2.599,1.965,3.898,5.011,3.898,9.139c0,4.595-1.116,8.89-3.349,12.885c-2.766,4.961-6.464,7.441-11.095,7.441
			c-4.166,0-7.664-2.131-10.496-6.393c-2.666-4.028-3.998-8.673-3.998-13.934z M244.532,51.696c0,2.698,0.506,5.163,1.519,7.395s2.034,3.347,3.063,3.347c1.095,0,2.157-1.082,3.187-3.247c1.029-2.164,1.544-4.662,1.544-7.494c0-1.531-0.481-2.647-1.444-3.347
			c-0.797-0.566-1.859-0.85-3.188-0.85c-1.527,0-2.688,0.309-3.485,0.925s-1.195,1.707-1.195,3.271z" />
		<path d="M300.121,8.976c0,4.968-4.008,8.976-8.977,8.976c-4.968,0-8.999-4.008-8.999-8.976c0-4.968,4.031-8.976,8.999-8.976c4.969,0,8.977,4.008,8.977,8.976z M283.921,8.976c0,3.984,3.24,7.2,7.224,7.2c3.984,0,7.2-3.216,7.2-7.2
			c0-3.984-3.216-7.2-7.2-7.2c-3.983,0-7.224,3.216-7.224,7.2z M287.065,4.248h1.92c3.504,0,4.056,0,4.8,0.552c0.672,0.504,1.008,1.32,1.008,2.112c0,1.056-0.624,2.4-2.568,2.664v0.048c0.889,0.336,1.177,0.792,2.017,2.232l1.128,1.92h-2.4l-0.792-1.56
			c-1.128-2.208-1.728-2.352-2.688-2.352h-0.504v3.912h-1.92V4.248z M288.985,8.352h0.792c1.728,0,2.951,0,2.951-1.32c0-1.272-1.271-1.272-2.951-1.272h-0.792v2.592z" />
</g>


<g id="BVQi" style="fill:green;stroke:none">
		<rect x="1.15px" y="1.15px" width="170px" height="88.7px" fill="none" stroke="green" stroke-width="2.2px" />
		<path d="M164.952,35.424c0,4.896-1.296,9.432-3.96,13.536c-2.52,4.104-5.976,7.272-10.224,9.648c-4.392,2.448-9.072,3.6-14.112,3.6c-7.848,0-14.472-2.736-20.016-8.28c-5.544-5.472-8.28-12.096-8.28-19.872c0-5.184,1.296-9.936,3.888-14.328
			c2.52-4.32,5.904-7.704,10.152-10.152c4.32-2.592,9.144-3.888,14.256-3.888c7.056,0,13.248,2.304,18.576,6.912c5.256,4.608,8.424,10.368,9.432,17.28h-9.288c-0.792-3.312-2.304-6.264-4.536-8.784c-2.232-2.448-4.968-4.248-8.136-5.328l-1.152-1.872
			c3.6,0.864,6.768,2.592,9.432,5.184c2.736,2.592,4.536,5.688,5.544,9.216h6.264c-1.296-6.048-4.392-11.088-9.216-15.048C148.68,9.216,143.064,7.2,136.656,7.2c-7.344,0-13.68,2.664-18.936,7.92c-5.184,5.184-7.776,11.52-7.776,18.936
			c0,7.344,2.592,13.608,7.776,18.792c5.256,5.256,11.592,7.848,18.936,7.848c6.84,0,12.816-2.304,17.928-6.84c5.04-4.608,7.992-10.152,8.712-16.92h-6.192c-0.072,0.504-0.144,1.008-0.288,1.584c-0.072,0.504-0.216,1.008-0.36,1.44l-1.08-1.872
			c0.216-0.936,0.36-1.512,0.36-1.728c0.072-0.288,0.072-0.576,0.072-0.936h9.144z"/>
		<rect x="5.5" y="54.7" width="96.7px" height="13.8px" />
		<circle cx="136.6px" cy="35.18px" r="5.1px" />
		<path d="M149.832,49.824c-1.8,1.584-3.816,2.736-6.12,3.528c-2.232,0.864-4.608,1.296-7.056,1.296c-2.448,0-4.824-0.432-7.128-1.296c-2.232-0.792-4.248-1.944-6.12-3.528h2.52c1.584,1.08,3.24,1.872,5.04,2.448c1.8,0.576,3.672,0.792,5.688,0.792
			c1.944,0,3.816-0.216,5.616-0.792s3.456-1.368,5.04-2.448h2.52z"/>
		<path d="M131.904,13.896l-1.224,1.872c-3.888,1.296-7.056,3.6-9.504,6.84c-2.448,3.384-3.744,7.2-3.744,11.448c0,0.576,0.072,1.296,0.144,2.016c0.072,0.72,0.216,1.368,0.288,2.016l-1.08,1.872c-0.576-1.944-0.864-3.888-0.864-5.904
			c0-4.896,1.512-9.216,4.536-12.96c2.952-3.744,6.768-6.12,11.448-7.2z"/>
		<path d="M85.176,53.064V48.6h2.232V27.576h-2.232v-2.088c0.648,0,1.08-0.216,1.584-0.648c0.432-0.432,0.648-1.008,0.648-1.656c0-0.576-0.216-1.152-0.648-1.584c-0.504-0.504-1.008-0.72-1.584-0.72V5.472h16.992v47.592H85.176z M83.016,44.496h-0.288
			c-0.576,0-1.008-0.072-1.368-0.072v-2.808c0.216-0.288,0.36-0.576,0.504-0.864c0.648-1.224,1.008-2.664,1.152-4.104v7.848z M85.176,5.472V20.88c-0.648,0-1.224,0.288-1.656,0.72c-0.504,0.432-0.72,1.008-0.72,1.584c0,0.648,0.216,1.224,0.72,1.656
			c0.432,0.432,1.008,0.648,1.656,0.648v2.088h-2.16v7.128c0-1.512-0.36-2.952-1.152-4.392c-0.144-0.288-0.288-0.576-0.504-0.864V5.472h3.816z M85.176,48.6v4.464H81.36V48.6c0.072,0,0.216,0,0.288,0h3.528z M81.36,44.424c-0.072,0-0.072-0.072-0.144-0.072
			c-0.576-0.072-1.08-0.288-1.512-0.504c0.648-0.72,1.224-1.44,1.656-2.232v2.808z M81.36,5.472v23.976c-0.72-1.152-1.656-2.16-2.88-3.168c-0.864-0.72-1.872-1.368-3.024-1.944c-1.152-0.576-2.376-1.008-3.6-1.296c-1.296-0.288-2.52-0.432-3.816-0.432
			c-0.72,0-1.44,0.072-2.16,0.144V5.472h5.976h1.44h8.064z M81.36,48.6v4.464h-8.064h-1.44H65.88v-4.608c0.72,0.072,1.44,0.072,2.16,0.072c1.296,0,2.592-0.144,3.816-0.36v-0.072c0.72-0.144,1.512-0.36,2.232-0.648c0.576-0.216,1.152-0.504,1.728-0.792
			c0.792,0.504,1.656,0.936,2.52,1.296c1.008,0.36,2.016,0.576,3.024,0.648z M65.88,43.848V40.68c0.576,0.216,1.296,0.432,1.944,0.72c1.584,0.72,2.808,1.368,3.6,2.088c-0.504,0.144-1.008,0.288-1.584,0.432c-0.504,0.072-1.152,0.144-1.8,0.144
			c-0.72,0-1.44-0.072-2.16-0.216z M65.88,36.72c1.08,0.216,2.16,0.504,3.312,0.936c2.016,0.792,4.104,1.872,6.12,3.312c0.576-0.504,1.008-1.152,1.368-1.8c0.576-1.08,0.864-2.304,0.864-3.528c0-1.08-0.216-2.088-0.576-3.024c-0.432-1.008-1.008-1.872-1.8-2.592
			c-0.936-0.936-2.016-1.656-3.24-2.16c-1.224-0.432-2.52-0.72-3.888-0.72c-0.72,0-1.44,0.072-2.16,0.288v9.288z M65.88,5.472v17.28c-1.296,0.144-2.52,0.432-3.672,0.864c-1.872,0.648-3.456,1.584-4.896,2.808l4.104-13.608h-5.04L48.672,38.52l-7.704-25.704h-3.96
			H35.64l1.368,4.68l2.52,8.136c-0.792-0.288-2.088-0.504-3.816-0.792c-0.792-0.072-1.584-0.216-2.448-0.288V5.472h2.376h1.368H65.88z M65.88,27.432c-0.72,0.144-1.44,0.36-2.088,0.648c-1.368,0.576-2.52,1.44-3.456,2.52c-0.504,0.648-1.008,1.44-1.296,2.232
			c-0.36,0.864-0.504,1.8-0.504,2.808v0.288c0,0.144,0,0.432,0.072,0.72c1.224-0.216,2.376-0.36,3.456-0.36c1.296,0,2.52,0.144,3.816,0.432v-9.288z M65.88,40.68v3.168c-0.936-0.216-1.8-0.504-2.664-0.936c-1.296-0.648-2.232-1.44-2.88-2.376
			c0.648-0.288,1.368-0.36,2.232-0.36c1.008,0,2.088,0.144,3.312,0.504z M65.88,48.456c-1.152-0.144-2.232-0.432-3.312-0.792c-1.872-0.576-3.528-1.512-5.04-2.664c-1.008-0.936-1.872-1.944-2.592-3.096c-0.576-0.864-1.08-1.8-1.44-2.88L50.688,48.6h-4.32L45.36,45
			c-0.072,0-0.072,0.072-0.072,0.072L45.36,45c-1.296,0.936-2.808,1.728-4.536,2.304c-1.512,0.504-3.24,0.864-5.184,1.08c-1.008,0.072-1.8,0.144-2.376,0.144v4.536h2.376h1.368H65.88v-4.608z M33.264,44.136c2.016-0.072,3.528-0.432,4.536-0.936
			c0.936-0.504,1.368-1.224,1.368-2.16c0-1.008-0.792-1.8-2.376-2.232c-1.008-0.288-2.16-0.504-3.528-0.576v5.904z M33.264,33.48c0.576-0.072,1.008-0.144,1.44-0.288c1.296-0.36,1.944-1.008,1.944-1.944c0-0.792-0.648-1.368-1.944-1.8
			c-0.432-0.072-0.936-0.216-1.44-0.288v4.32z M33.264,5.472v19.08c-0.864-0.072-1.8-0.072-2.736-0.072H19.224V48.6h11.304c1.296,0,2.232-0.072,2.736-0.072v4.536H5.544V5.472h27.72z M33.264,29.16c-0.792-0.072-1.728-0.144-2.736-0.144H27.36v4.68h3.168
			c1.008,0,1.944-0.072,2.736-0.216v-4.32z M33.264,38.232c-0.288,0-0.648,0-1.008,0H27.36v5.904h4.896c0.36,0,0.72,0,1.008,0v-5.904z"/>
		<path d="M146.304,35.208c0,2.664-0.936,4.896-2.88,6.768c-1.872,1.872-4.104,2.808-6.768,2.808v-1.728c2.16,0,4.032-0.792,5.544-2.304c1.512-1.512,2.304-3.384,2.304-5.544s-0.792-4.032-2.304-5.616c-1.512-1.512-3.384-2.304-5.544-2.304V25.56
			c2.592,0,4.896,0.936,6.768,2.808s2.88,4.176,2.88,6.84z M136.656,47.952h22.248L136.656,9.576V9.72v3.456v-0.072l19.224,33.12h-19.224v1.728z M136.656,44.784c-2.664,0-4.968-0.936-6.84-2.808s-2.808-4.104-2.808-6.768s0.936-4.968,2.808-6.84
			s4.176-2.808,6.84-2.808v1.728c-2.232,0-4.032,0.792-5.616,2.304c-1.512,1.512-2.304,3.384-2.304,5.616c0,2.16,0.792,4.032,2.304,5.544c1.584,1.512,3.384,2.304,5.616,2.304v1.728z M136.656,9.72l-22.248,38.232h22.248v-1.728h-19.224l19.224-33.048V9.72z"/>
		<text x="14.75px" y="85.25px" style="font: bold 17px Arial, Helvetica, sans-serif">ISO 14001</text>
		<text x="110px" y="73px" style="font: bold 4.9pt Arial, Helvetica, sans-serif">Accredited by the</text>
		<text x="109.5px" y="79.6px" style="font: bold 4.9pt Arial, Helvetica, sans-serif">Dutch Council for</text>
		<text x="115px" y="85.75px" style="font: bold 4.9pt Arial, Helvetica, sans-serif">Accreditation</text>
</g>


<g id="Nazev">
		<path d="M88.485,40.938v-30.5H99.26v10.8c2.459-1.299,4.454-2.633,5.983-4c1.928-1.732,2.892-3.383,2.892-4.949c0-1.066-0.4-1.84-1.2-2.319c-0.801-0.479-2.167-0.719-4.1-0.719h-16.3l2.449-9.188h16.7c4.199,0,7.482,0.958,9.85,2.874s3.551,4.723,3.551,8.42
			c0,4.464-2.181,8.645-6.542,12.542c-3.396,3.064-7.824,5.713-13.283,7.945v9.094H88.485z"/>
		<path d="M120.922,21.486c0-3.861,1.133-6.774,3.398-8.739c2.132-1.831,5.114-2.747,8.946-2.747h4.298c3.531,0,6.33,0.783,8.396,2.348c2.599,1.965,3.898,5.011,3.898,9.139c0,4.595-1.116,8.89-3.349,12.885c-2.766,4.961-6.464,7.441-11.095,7.441
			c-4.166,0-7.664-2.131-10.496-6.393c-2.666-4.028-3.998-8.673-3.998-13.934z M130.735,22.384c0,2.698,0.506,5.163,1.519,7.395s2.034,3.347,3.063,3.347c1.095,0,2.157-1.082,3.187-3.247c1.029-2.164,1.544-4.662,1.544-7.494c0-1.531-0.481-2.647-1.444-3.347
			c-0.797-0.566-1.859-0.85-3.188-0.85c-1.527,0-2.688,0.309-3.485,0.925s-1.195,1.707-1.195,3.271z"/>
		<path d="M153.747,40.938v-30.25h9.125v1.75c0.869-0.796,1.915-1.401,3.136-1.815S168.441,10,169.646,10v8.688c-1.298,0-2.504,0.25-3.618,0.75s-2.021,1.317-2.719,2.45v19.05h-9.563z"/>
		<path d="M171.809,22.287c0-4.333,1.399-7.466,4.198-9.399c2.132-1.467,4.914-2.2,8.346-2.2h14.644v30.25h-9.646c-5.231,0-9.529-1.983-12.895-5.95c-3.099-3.633-4.647-7.866-4.647-12.7z M185.757,18.875c-1.49,0-2.542,0.342-3.154,1.024
			c-0.613,0.683-0.919,1.74-0.919,3.172c0,2.198,0.646,4.196,1.938,5.994c1.49,2.065,3.428,3.314,5.813,3.747V18.875h-3.677z"/>
		<path d="M230.259,40.938h-9.85c-5.101,0-9.367-1.967-12.801-5.9c-3.233-3.699-4.85-7.916-4.85-12.649c0-3.633,1.016-6.45,3.048-8.45c2.198-2.166,5.463-3.25,9.793-3.25h5.097V0.063h9.563v40.875z M220.696,32.813V18.875h-3.384c-1.527,0-2.639,0.233-3.335,0.699
			c-0.896,0.6-1.344,1.732-1.344,3.397c0,1.832,0.414,3.514,1.244,5.045c0.696,1.299,1.575,2.349,2.638,3.147c0.729,0.566,1.608,1.017,2.638,1.349c0.332,0.101,0.746,0.2,1.244,0.3h0.299z"/>
		<path d="M233.708,22.295c0-4.498,1.199-7.713,3.599-9.646C239.505,10.884,242.92,10,247.552,10c4.331,0,7.43,0.433,9.296,1.298c2.698,1.265,4.048,3.627,4.048,7.088c0,3.262-1.415,6.273-4.245,9.035c-1.565,1.531-3.779,3.129-6.643,4.793
			c0.467,0.166,1.25,0.308,2.35,0.424c1.1,0.117,2.2,0.175,3.301,0.175h3.8l-2.35,8.125h-5.851c-4.7,0-8.8-1.808-12.3-5.423s-5.25-8.021-5.25-13.22z M244.18,26.287c1.326-0.6,2.653-1.416,3.98-2.449c1.99-1.566,2.985-2.967,2.985-4.2c0-0.5-0.232-0.866-0.697-1.1
			s-1.228-0.351-2.288-0.351c-1.327,0-2.372,0.301-3.135,0.9c-0.962,0.733-1.442,1.934-1.442,3.6c0,0.834,0.198,2.033,0.597,3.6z"/>
		<path d="M278.682,10.688c4.767,0,7.9,1.017,9.4,3.05c1.333,1.801,2,4.65,2,8.55v18.65h-9.625v-17.21c0-1.967-0.186-3.218-0.555-3.752c-0.504-0.733-1.73-1.101-3.678-1.101h-2.268v22.063h-9.625v-30.25h14.35z"/>
		<path d="M298.906,32.938h1.649c0.533,0,0.942-0.058,1.226-0.175c0.283-0.116,0.425-0.358,0.425-0.726c0-0.266-0.184-0.674-0.55-1.225c-0.367-0.55-0.634-0.925-0.8-1.125l-4-5.15c-0.934-1.199-1.601-2.183-2-2.949c-0.7-1.3-1.05-2.6-1.05-3.9
			c0-1.833,0.666-3.416,2-4.75c1.5-1.5,3.55-2.25,6.149-2.25h8.101l2.35,7.875h-4.3c-1,0-1.709,0.075-2.125,0.226c-0.417,0.15-0.625,0.459-0.625,0.926c0,0.301,0.199,0.718,0.6,1.251c0.267,0.367,0.55,0.734,0.851,1.102l3.6,4.505
			c0.934,1.168,1.658,2.336,2.175,3.504s0.775,2.319,0.775,3.454c0,2.136-0.733,3.904-2.2,5.306c-1.467,1.402-3.233,2.103-5.3,2.103h-9.9l-2.3-8h5.25z"/>
		<path d="M317.731,31.643V18.578h-2.125v-7.875h2.125V4.759l9.625-2.821v8.766h5v7.875h-5v11.5c0,1.167,0.168,1.917,0.504,2.25c0.336,0.334,1.125,0.5,2.369,0.5h3.427l-2.454,8.125h-4.307c-3.172,0-5.492-0.75-6.961-2.252s-2.203-3.854-2.203-7.059z"/>
		<path d="M362.743,10.688l-9.55,30.25h-11.05l-9.55-30.25h10.149l4.851,19.4l5-19.4h10.149z"/>
		<path d="M374.019,10.688v30.25h-9.563v-30.25h9.563z M376.156,0l-3.7,8h-7.05l3.35-8h7.4z"/>
		<path d="M30.149,70.688l-9.55,30.25H9.55L0,70.688h10.149L15,90.088l5-19.4h10.149z"/>
		<path d="M47.674,81.486c0-3.861,1.133-6.774,3.398-8.739C53.204,70.916,56.187,70,60.019,70h4.298c3.531,0,6.33,0.783,8.396,2.348c2.599,1.965,3.898,5.011,3.898,9.139c0,4.595-1.116,8.89-3.349,12.885c-2.766,4.961-6.464,7.441-11.095,7.441
			c-4.166,0-7.664-2.131-10.496-6.393c-2.666-4.028-3.998-8.673-3.998-13.934z M57.486,82.384c0,2.698,0.506,5.163,1.519,7.395s2.034,3.347,3.063,3.347c1.095,0,2.157-1.082,3.187-3.247c1.029-2.164,1.544-4.662,1.544-7.494c0-1.531-0.481-2.647-1.444-3.347
			c-0.797-0.566-1.859-0.85-3.188-0.85c-1.527,0-2.688,0.309-3.485,0.925s-1.195,1.707-1.195,3.271z"/>
		<path d="M78.561,82.287c0-4.266,1.35-7.366,4.05-9.3c2.133-1.533,4.967-2.3,8.5-2.3h6.101l2.3,8.188h-6.286c-1.497,0-2.578,0.2-3.242,0.6c-1.031,0.6-1.547,1.799-1.547,3.597c0,2.299,0.731,4.43,2.195,6.395c1.662,2.231,3.691,3.347,6.087,3.347h3.393
			l-2.45,8.125h-1.55c-4.867,0-9.009-1.875-12.425-5.625c-3.417-3.75-5.125-8.092-5.125-13.025z"/>
		<path d="M103.236,100.938V60.063h9.625v10.625h5.3c3.8,0,6.5,0.767,8.101,2.3c1.732,1.667,2.6,4.534,2.6,8.601v19.35h-9.563v-17.21c0-2.034-0.184-3.302-0.549-3.802c-0.5-0.7-1.714-1.051-3.643-1.051h-2.246v22.063h-9.625z"/>
		<path d="M134.498,100.938v-30.25h9.125v1.75c0.869-0.796,1.915-1.401,3.136-1.815S149.192,70,150.397,70v8.688c-1.298,0-2.504,0.25-3.618,0.75s-2.021,1.317-2.719,2.45v19.05h-9.563z"/>
		<path d="M152.56,82.287c0-4.333,1.399-7.466,4.198-9.399c2.132-1.467,4.914-2.2,8.346-2.2h14.644v30.25h-9.646c-5.231,0-9.529-1.983-12.895-5.95c-3.099-3.633-4.647-7.866-4.647-12.7z M166.508,78.875c-1.49,0-2.542,0.342-3.154,1.024
			c-0.613,0.683-0.919,1.74-0.919,3.172c0,2.198,0.646,4.196,1.938,5.994c1.49,2.065,3.428,3.314,5.813,3.747V78.875h-3.677z"/>
		<path d="M199.484,70.688c4.767,0,7.9,1.017,9.4,3.05c1.333,1.801,2,4.65,2,8.55v18.65h-9.625v-17.21c0-1.967-0.186-3.218-0.555-3.752c-0.504-0.733-1.73-1.101-3.678-1.101h-2.268v22.063h-9.625v-30.25h14.35z"/>
		<path d="M214.458,82.295c0-4.498,1.199-7.713,3.599-9.646C220.255,70.884,223.67,70,228.303,70c4.331,0,7.43,0.433,9.296,1.298c2.698,1.265,4.048,3.627,4.048,7.088c0,3.262-1.415,6.273-4.245,9.035c-1.565,1.531-3.779,3.129-6.643,4.793
			c0.467,0.166,1.25,0.308,2.35,0.424c1.1,0.117,2.2,0.175,3.301,0.175h3.8l-2.35,8.125h-5.851c-4.7,0-8.8-1.808-12.3-5.423s-5.25-8.021-5.25-13.22z M224.809,67.938l-4.9-7.625h6.85l1.851,3l1.75-3h6.75l-4.8,7.625h-7.5z M224.93,86.287
			c1.326-0.6,2.654-1.416,3.981-2.449c1.99-1.566,2.985-2.967,2.985-4.2c0-0.5-0.232-0.866-0.697-1.1s-1.228-0.351-2.288-0.351c-1.327,0-2.373,0.301-3.135,0.9c-0.962,0.733-1.442,1.934-1.442,3.6c0,0.834,0.198,2.033,0.597,3.6z"/>
		<path d="M260.957,82.287c0-4.333,1.399-7.466,4.198-9.399c2.132-1.467,4.914-2.2,8.346-2.2h14.644v30.25h-9.646c-5.231,0-9.529-1.983-12.895-5.95c-3.099-3.633-4.647-7.866-4.647-12.7z M274.905,78.875c-1.49,0-2.542,0.342-3.154,1.024
			c-0.613,0.683-0.919,1.74-0.919,3.172c0,2.198,0.646,4.196,1.938,5.994c1.49,2.065,3.428,3.314,5.813,3.747V78.875h-3.677z"/>
		<path d="M337.493,70.688l-9.55,30.25h-11.05l-9.55-30.25h10.149l4.851,19.4l5-19.4h10.149z"/>
		<path d="M365.894,70.688l-14.351,40.688h-10.35l4.7-13.096l-10.75-27.592h11.3l4.4,14.35l4.5-14.35h10.55z M358.443,60l-3.7,8h-7.05l3.35-8h7.4z"/>
		<path d="M367.705,70.688h20.75l-10.3,22.125h9.699l-2.35,8.125h-21.5l10.35-22.375h-8.949l2.3-7.875z M374.805,67.938l-4.899-7.625h6.85l1.85,3l1.75-3h6.75l-4.8,7.625h-7.5z"/>
		<path d="M400.817,60.063v8.188h-9.563v-8.188h9.563z M400.817,70.688v30.25h-9.563v-30.25h9.563z"/>
		<path d="M432.642,70.688l-9.55,30.25h-11.05l-9.55-30.25h10.149l4.851,19.4l5-19.4h10.149z"/>
		<path d="M432.604,82.295c0-4.498,1.199-7.713,3.599-9.646c2.198-1.766,5.613-2.649,10.245-2.649c4.331,0,7.43,0.433,9.296,1.298c2.698,1.265,4.048,3.627,4.048,7.088c0,3.262-1.415,6.273-4.245,9.035c-1.565,1.531-3.779,3.129-6.643,4.793
			c0.467,0.166,1.25,0.308,2.35,0.424c1.1,0.117,2.2,0.175,3.301,0.175h3.8l-2.35,8.125h-5.851c-4.7,0-8.8-1.808-12.3-5.423s-5.25-8.021-5.25-13.22z M442.955,67.938l-4.9-7.625h6.85l1.851,3l1.75-3h6.75l-4.8,7.625h-7.5z M443.076,86.287
			c1.326-0.6,2.653-1.416,3.98-2.449c1.99-1.566,2.985-2.967,2.985-4.2c0-0.5-0.232-0.866-0.697-1.1s-1.228-0.351-2.288-0.351c-1.327,0-2.372,0.301-3.135,0.9c-0.962,0.733-1.442,1.934-1.442,3.6c0,0.834,0.198,2.033,0.597,3.6z"/>
		<path d="M157.271,160.938v-30.25h9.125v1.75c0.869-0.796,1.915-1.401,3.136-1.815s2.434-0.622,3.639-0.622v8.688c-1.298,0-2.504,0.25-3.618,0.75s-2.021,1.317-2.719,2.45v19.05h-9.563z"/>
		<path d="M175.396,141.486c0-3.861,1.133-6.774,3.398-8.739c2.132-1.831,5.114-2.747,8.946-2.747h4.298c3.531,0,6.33,0.783,8.396,2.348c2.599,1.965,3.898,5.011,3.898,9.139c0,4.595-1.116,8.89-3.349,12.885c-2.766,4.961-6.464,7.441-11.095,7.441
			c-4.166,0-7.664-2.131-10.496-6.393c-2.666-4.028-3.998-8.673-3.998-13.934z M185.209,142.384c0,2.698,0.506,5.163,1.519,7.395s2.034,3.347,3.063,3.347c1.095,0,2.157-1.082,3.187-3.247c1.029-2.164,1.544-4.662,1.544-7.494c0-1.531-0.481-2.647-1.444-3.347
			c-0.797-0.566-1.859-0.85-3.188-0.85c-1.527,0-2.688,0.309-3.485,0.925s-1.195,1.707-1.195,3.271z"/>
		<path d="M211.533,152.938h1.649c0.533,0,0.942-0.058,1.226-0.175c0.283-0.116,0.425-0.358,0.425-0.726c0-0.266-0.184-0.674-0.55-1.225c-0.367-0.55-0.634-0.925-0.8-1.125l-4-5.15c-0.934-1.199-1.601-2.183-2-2.949c-0.7-1.3-1.05-2.6-1.05-3.9
			c0-1.833,0.666-3.416,2-4.75c1.5-1.5,3.55-2.25,6.149-2.25h8.101l2.35,7.875h-4.3c-1,0-1.709,0.075-2.125,0.226c-0.417,0.15-0.625,0.459-0.625,0.926c0,0.301,0.199,0.718,0.6,1.251c0.267,0.367,0.55,0.734,0.851,1.102l3.6,4.505
			c0.934,1.168,1.658,2.336,2.175,3.504s0.775,2.319,0.775,3.454c0,2.136-0.733,3.904-2.2,5.306c-1.467,1.402-3.233,2.103-5.3,2.103h-9.9l-2.3-8h5.25z"/>
		<path d="M230.358,151.643v-13.064h-2.125v-7.875h2.125v-5.944l9.625-2.821v8.766h5v7.875h-5v11.5c0,1.167,0.168,1.917,0.504,2.25c0.336,0.334,1.125,0.5,2.369,0.5h3.427l-2.454,8.125h-4.307c-3.172,0-5.492-0.75-6.961-2.252s-2.203-3.854-2.203-7.059z"/>
		<path d="M258.596,120.063v40.875h-9.563v-40.875h9.563z"/>
		<path d="M273.646,120.063v8.188h-9.563v-8.188h9.563z M273.646,130.688v30.25h-9.563v-30.25h9.563z"/>
		<path d="M293.357,130.688c4.767,0,7.9,1.017,9.4,3.05c1.333,1.801,2,4.65,2,8.55v18.65h-9.625v-17.21c0-1.967-0.186-3.218-0.555-3.752c-0.504-0.733-1.73-1.101-3.678-1.101h-2.268v22.063h-9.625v-30.25h14.35z"/>
</g>

</defs>

<html:audio autoplay="true" loop="true">
  <html:source src="intro.ogg" type="audio/ogg"/>
  <html:source src="intro.mp3" type="audio/mpeg"/>
</html:audio>

<!-- prvni udalost -->
<rect class="rol" x="0" y="0" width="100%" height="100%">
	<set attributeName="visibility" attributeType="CSS" to="visible" begin="0s" id="Hudba" />
</rect>



<!-- ********************************* LINKY ********************************************** -->

<line x1="0" y1="50" x2="0" y2="50" style="fill:none;stroke:green;stroke-width:2;stroke-dasharray:4,4">
	<animate id="Linka1" begin="Hudba.begin+1s" attributeName="x1" by="500" dur="2s" repeatCount="1" fill="freeze" attributeType="XML" />
	<animate begin="BVQiOut.end+1.1s" attributeType="CSS" attributeName="stroke-opacity" dur="0.8s" to="0" fill="freeze" />
</line>

<line x1="0" y1="330" x2="0" y2="330" style="fill:none;stroke:green;stroke-width:2;stroke-dasharray:4,4">
	<animate id="Linka2" begin="Linka1.begin+1s" attributeName="x1" by="500" dur="2s" repeatCount="1" fill="freeze" attributeType="XML" />
	<animate begin="BVQiOut.end+1.1s" attributeType="CSS" attributeName="stroke-opacity" dur="0.8s" to="0" fill="freeze" />
</line>

<line x1="50" y1="0" x2="50" y2="0" style="fill:none;stroke:green;stroke-width:2;stroke-dasharray:4,4">
	<animate id="Linka3" begin="Linka2.begin+1s" attributeName="y1" by="440" dur="1.8s" repeatCount="1" fill="freeze" attributeType="XML" />
	<animate begin="BVQiOut.end+1.1s" attributeType="CSS" attributeName="stroke-opacity" dur="0.8s" to="0" fill="freeze" />
</line>

<line x1="450" y1="0" x2="450" y2="0" style="fill:none;stroke:green;stroke-width:2;stroke-dasharray:4,4">
	<animate id="Linka4" begin="Linka3.begin+0.9s" attributeName="y1" by="440" dur="1.8s" repeatCount="1" fill="freeze" attributeType="XML" />
	<animate begin="BVQiOut.end+1.1s" attributeType="CSS" attributeName="stroke-opacity" dur="0.8s" to="0" fill="freeze" />
</line>




<!-- ********************************* BVQi ********************************************** -->

<use x="0" y="0" xlink:href="#BVQi" transform="translate(160 100)">
	<animateTransform id="BVQiOut" begin="Shf9.end+0.5s" attributeName="transform" type="translate" dur="1s" by="106 240" fill="freeze" />
</use>


<rect x="160" y="95" width="20" height="100" class="rol">
	<animate id="Shf1" begin="LogoOut.end+0.5s" attributeName="width" by="-20" dur="1s" repeatCount="1" fill="freeze" attributeType="XML" />
	<set attributeName="visibility" attributeType="CSS" to="hidden" begin="Shf1.end" />
</rect>

<rect x="180" y="95" width="20" height="100" class="rol">
	<animate id="Shf2" begin="Shf1.begin+0.1s" attributeName="width" by="-20" dur="1s" repeatCount="1" fill="freeze" attributeType="XML" />
	<set attributeName="visibility" attributeType="CSS" to="hidden" begin="Shf2.end" />
</rect>

<rect x="200" y="95" width="20" height="100" class="rol">
	<animate id="Shf3" begin="Shf2.begin+0.1s" attributeName="width" by="-20" dur="1s" repeatCount="1" fill="freeze" attributeType="XML" />
	<set attributeName="visibility" attributeType="CSS" to="hidden" begin="Shf3.end" />
</rect>

<rect x="220" y="95" width="20" height="100" class="rol">
	<animate id="Shf4" begin="Shf3.begin+0.1s" attributeName="width" by="-20" dur="1s" repeatCount="1" fill="freeze" attributeType="XML" />
	<set attributeName="visibility" attributeType="CSS" to="hidden" begin="Shf4.end" />
</rect>

<rect x="240" y="95" width="20" height="100" class="rol">
	<animate id="Shf5" begin="Shf4.begin+0.1s" attributeName="width" by="-20" dur="1s" repeatCount="1" fill="freeze" attributeType="XML" />
	<set attributeName="visibility" attributeType="CSS" to="hidden" begin="Shf5.end" />
</rect>

<rect x="260" y="95" width="20" height="100" class="rol">
	<animate id="Shf6" begin="Shf5.begin+0.1s" attributeName="width" by="-20" dur="1s" repeatCount="1" fill="freeze" attributeType="XML" />
	<set attributeName="visibility" attributeType="CSS" to="hidden" begin="Shf6.end" />
</rect>

<rect x="280" y="95" width="20" height="100" class="rol">
	<animate id="Shf7" begin="Shf6.begin+0.1s" attributeName="width" by="-20" dur="1s" repeatCount="1" fill="freeze" attributeType="XML" />
	<set attributeName="visibility" attributeType="CSS" to="hidden" begin="Shf7.end" />
</rect>

<rect x="300" y="95" width="20" height="100" class="rol">
	<animate id="Shf8" begin="Shf7.begin+0.1s" attributeName="width" by="-20" dur="1s" repeatCount="1" fill="freeze" attributeType="XML" />
	<set attributeName="visibility" attributeType="CSS" to="hidden" begin="Shf8.end" />
</rect>

<rect x="320" y="95" width="20" height="100" class="rol">
	<animate id="Shf9" begin="Shf8.begin+0.1s" attributeName="width" by="-20" dur="1s" repeatCount="1" fill="freeze" attributeType="XML" />
	<set attributeName="visibility" attributeType="CSS" to="hidden" begin="Shf9.end" />
</rect>









<!-- ********************************* LOGO ********************************************** -->

<g>
  <use x="272" y="205" xlink:href="#Logo" transform="scale(0.59)" fill="green"/>
  <animateTransform id="LogoOut" begin="Shw9.end+0.5s" attributeName="transform" type="translate" dur="1s" by="-100 238" fill="freeze" />
</g>




<rect x="160" y="95" width="20" height="100" class="rol">
	<animate id="Shw1" begin="Linka4.end+0.8s" attributeName="width" by="-20" dur="1s" repeatCount="1" fill="freeze" attributeType="XML" />
	<set attributeName="visibility" attributeType="CSS" to="hidden" begin="Shw1.end" />
</rect>

<rect x="180" y="95" width="20" height="100" class="rol">
	<animate id="Shw2" begin="Shw1.begin+0.1s" attributeName="width" by="-20" dur="1s" repeatCount="1" fill="freeze" attributeType="XML" />
	<set attributeName="visibility" attributeType="CSS" to="hidden" begin="Shw2.end" />
</rect>

<rect x="200" y="95" width="20" height="100" class="rol">
	<animate id="Shw3" begin="Shw2.begin+0.1s" attributeName="width" by="-20" dur="1s" repeatCount="1" fill="freeze" attributeType="XML" />
	<set attributeName="visibility" attributeType="CSS" to="hidden" begin="Shw3.end" />
</rect>

<rect x="220" y="95" width="20" height="100" class="rol">
	<animate id="Shw4" begin="Shw3.begin+0.1s" attributeName="width" by="-20" dur="1s" repeatCount="1" fill="freeze" attributeType="XML" />
	<set attributeName="visibility" attributeType="CSS" to="hidden" begin="Shw4.end" />
</rect>

<rect x="240" y="95" width="20" height="100" class="rol">
	<animate id="Shw5" begin="Shw4.begin+0.1s" attributeName="width" by="-20" dur="1s" repeatCount="1" fill="freeze" attributeType="XML" />
	<set attributeName="visibility" attributeType="CSS" to="hidden" begin="Shw5.end" />
</rect>

<rect x="260" y="95" width="20" height="100" class="rol">
	<animate id="Shw6" begin="Shw5.begin+0.1s" attributeName="width" by="-20" dur="1s" repeatCount="1" fill="freeze" attributeType="XML" />
	<set attributeName="visibility" attributeType="CSS" to="hidden" begin="Shw6.end" />
</rect>

<rect x="280" y="95" width="20" height="100" class="rol">
	<animate id="Shw7" begin="Shw6.begin+0.1s" attributeName="width" by="-20" dur="1s" repeatCount="1" fill="freeze" attributeType="XML" />
	<set attributeName="visibility" attributeType="CSS" to="hidden" begin="Shw7.end" />
</rect>

<rect x="300" y="95" width="20" height="100" class="rol">
	<animate id="Shw8" begin="Shw7.begin+0.1s" attributeName="width" by="-20" dur="1s" repeatCount="1" fill="freeze" attributeType="XML" />
	<set attributeName="visibility" attributeType="CSS" to="hidden" begin="Shw8.end" />
</rect>

<rect x="320" y="95" width="20" height="100" class="rol">
	<animate id="Shw9" begin="Shw8.begin+0.1s" attributeName="width" by="-20" dur="1s" repeatCount="1" fill="freeze" attributeType="XML" />
	<set attributeName="visibility" attributeType="CSS" to="hidden" begin="Shw9.end" />
</rect>






<!-- ********************************* OBRAZKY ********************************************** -->

<rect x="50" y="50" width="400" height="280" class="ram">
	<animateTransform id="Ramecek4" begin="Odjezd_Ram3.end+1s" attributeName="transform" type="scale" from="4" to="1" calcMode="spline" dur="0.6s" keySplines="1 0 0.25 0.25" repeatCount="1" fill="freeze" />
	<set attributeName="visibility" attributeType="CSS" to="visible" begin="Ramecek4.begin" />
	<animate id="Ram4_roh" begin="Ramecek4.end+0.5s" attributeName="rx" values="0;20" dur="0.33s" calcMode="paced" repeatCount="1" fill="freeze" attributeType="XML" />
	<animateTransform id="Ram4_smrsk" begin="Obr4.end+1.5s" attributeName="transform" type="scale" from="1" to="0.3" calcMode="spline" dur="0.6s" keySplines="1 0 0.25 0.25" repeatCount="1" fill="freeze" />
	<animate id="Odjezd_Ram4" begin="Obr4_smrsk.end+0.6s" attributeName="x" by="1700" dur="0.33s" calcMode="paced" repeatCount="1" fill="freeze" attributeType="XML" />
</rect>

<image x="60" y="60" width="380px" height="260px" xlink:href="intro4.jpg" class="obr">
	<animate id="Obr4" attributeType="CSS" attributeName="opacity" begin="Ram4_roh.end+0.5s" from="0" to="1" dur="1.25s" repeatCount="1" fill="freeze" />
	<set attributeName="visibility" attributeType="CSS" to="visible" begin="Obr4.begin" />
	<animateTransform id="Obr4_smrsk" begin="Obr4.end+1.5s" attributeName="transform" type="scale" from="1" to="0.3" calcMode="spline" dur="0.6s" keySplines="1 0 0.25 0.25" repeatCount="1" fill="freeze" />
	<animate id="Odjezd_Obr4" begin="Obr4_smrsk.end+0.6s" attributeName="x" by="1700" dur="0.33s" calcMode="paced" repeatCount="1" fill="freeze" />
</image>





<rect x="50" y="50" width="400" height="280" class="ram">
	<animateTransform id="Ramecek3" begin="Odjezd_Ram2.end+1s" attributeName="transform" type="scale" from="4" to="1" calcMode="spline" dur="0.6s" keySplines="1 0 0.25 0.25" repeatCount="1" fill="freeze" />
	<set attributeName="visibility" attributeType="CSS" to="visible" begin="Ramecek3.begin" />
	<animate id="Ram3_roh" begin="Ramecek3.end+0.5s" attributeName="rx" values="0;20" dur="0.33s" calcMode="paced" repeatCount="1" fill="freeze" />
	<animateTransform id="Ram3_smrsk" begin="Obr3.end+1.5s" attributeName="transform" type="scale" from="1" to="0.3" calcMode="spline" dur="0.6s" keySplines="1 0 0.25 0.25" repeatCount="1" fill="freeze" />
	<animate id="Odjezd_Ram3" begin="Obr3_smrsk.end+0.6s" attributeName="x" by="1700" dur="0.33s" calcMode="paced" repeatCount="1" fill="freeze" />
</rect>

<image x="60" y="60" width="380px" height="260px" xlink:href="intro3.jpg" class="obr">
	<animate id="Obr3" attributeType="CSS" attributeName="opacity" begin="Ram3_roh.end+0.5s" from="0" to="1" dur="1.25s" repeatCount="1" fill="freeze" />
	<set attributeName="visibility" attributeType="CSS" to="visible" begin="Obr3.begin" />
	<animateTransform id="Obr3_smrsk" begin="Obr3.end+1.5s" attributeName="transform" type="scale" from="1" to="0.3" calcMode="spline" dur="0.6s" keySplines="1 0 0.25 0.25" repeatCount="1" fill="freeze" />
	<animate id="Odjezd_Obr3" begin="Obr3_smrsk.end+0.6s" attributeName="x" by="1700" dur="0.33s" calcMode="paced" repeatCount="1" fill="freeze" />
</image>





<rect x="50" y="50" width="400" height="280" class="ram">
	<animateTransform id="Ramecek2" begin="Odjezd_Ram1.end+1s" attributeName="transform" type="scale" from="4" to="1" calcMode="spline" dur="0.6s" keySplines="1 0 0.25 0.25" repeatCount="1" fill="freeze" />
	<set attributeName="visibility" attributeType="CSS" to="visible" begin="Ramecek2.begin" />
	<animate id="Ram2_roh" begin="Ramecek2.end+0.5s" attributeName="rx" values="0;20" dur="0.33s" calcMode="paced" repeatCount="1" fill="freeze" />
	<animateTransform id="Ram2_smrsk" begin="Obr2.end+1.5s" attributeName="transform" type="scale" from="1" to="0.3" calcMode="spline" dur="0.6s" keySplines="1 0 0.25 0.25" repeatCount="1" fill="freeze" />
	<animate id="Odjezd_Ram2" begin="Obr2_smrsk.end+0.6s" attributeName="x" by="1700" dur="0.33s" calcMode="paced" repeatCount="1" fill="freeze" />
</rect>

<image x="60" y="60" width="380px" height="260px" xlink:href="intro2.jpg" class="obr">
	<animate id="Obr2" attributeType="CSS" attributeName="opacity" begin="Ram2_roh.end+0.5s" from="0" to="1" dur="1.25s" repeatCount="1" fill="freeze" />
	<set attributeName="visibility" attributeType="CSS" to="visible" begin="Obr2.begin" />
	<animateTransform id="Obr2_smrsk" begin="Obr2.end+1.5s" attributeName="transform" type="scale" from="1" to="0.3" calcMode="spline" dur="0.6s" keySplines="1 0 0.25 0.25" repeatCount="1" fill="freeze" />
	<animate id="Odjezd_Obr2" begin="Obr2_smrsk.end+0.6s" attributeName="x" by="1700" dur="0.33s" calcMode="paced" repeatCount="1" fill="freeze" />
</image>





<rect x="50" y="50" width="400" height="280" class="ram">
	<animateTransform id="Ramecek" begin="BVQiOut.end+0.5s" attributeName="transform" type="scale" from="4" to="1" calcMode="spline" dur="0.6s" keySplines="1 0 0.25 0.25" repeatCount="1" fill="freeze" />
	<set attributeName="visibility" attributeType="CSS" to="visible" begin="Ramecek.begin" />
	<animate id="Ram_roh" begin="Ramecek.end+0.5s" attributeName="rx" values="0;20" dur="0.33s" calcMode="paced" repeatCount="1" fill="freeze" />
	<animateTransform id="Ram1_smrsk" begin="Obr1.end+1.5s" attributeName="transform" type="scale" from="1" to="0.3" calcMode="spline" dur="0.6s" keySplines="1 0 0.25 0.25" repeatCount="1" fill="freeze" />
	<animate id="Odjezd_Ram1" begin="Obr1_smrsk.end+0.6s" attributeName="x" by="1700" dur="0.33s" calcMode="paced" repeatCount="1" fill="freeze" />
</rect>

<image x="60" y="60" width="380px" height="260px" xlink:href="intro1.jpg" class="obr">
	<animate id="Obr1" attributeType="CSS" attributeName="opacity" begin="Ram_roh.end+0.5s" from="0" to="1" dur="1.25s" repeatCount="1" fill="freeze" />
	<set attributeName="visibility" attributeType="CSS" to="visible" begin="Obr1.begin" />
	<animateTransform id="Obr1_smrsk" begin="Obr1.end+1.5s" attributeName="transform" type="scale" from="1" to="0.3" calcMode="spline" dur="0.6s" keySplines="1 0 0.25 0.25" repeatCount="1" fill="freeze" />
	<animate id="Odjezd_Obr1" begin="Obr1_smrsk.end+0.6s" attributeName="x" by="1700" dur="0.33s" calcMode="paced" repeatCount="1" fill="freeze" />
</image>





<circle cx="250" cy="220" r="0" fill="green" stroke="none" stroke-width="0">
	<animate id="Konec" begin="Odjezd_Obr4.end" attributeName="r" by="330" dur="4s" repeatCount="1" fill="freeze" />
</circle>

<use x="0" y="0" xlink:href="#Nazev" transform="translate(17 100)" style="stroke: none; fill: none">
	<set attributeName="fill" attributeType="CSS" to="rgb(227,239,207)" begin="Konec.begin" />
</use>


<g style="display: none">
	<g>
	<rect x="5" y="5" width="490" height="430" class="rm2" rx="14" />
	<use x="430" y="70" xlink:href="#Logo" transform="scale(0.44)" fill="rgb(227,239,207)" />
	<text x="100" y="315" class="vyd">Multimedi&#225;ln&#237; poradensk&#253; CD-ROM</text>
	<text x="195" y="335" class="vyd">Prvn&#237; vyd&#225;n&#237;</text>
	</g>
	<set attributeName="display" attributeType="CSS" to="block" begin="Konec.begin" />
</g>

<image xlink:href="http://www.google-analytics.com/__utm.gif?utmwv=4.7.1&amp;utmn=21830374&amp;utmhn=svg.kvalitne.cz&amp;utmcs=UTF-8&amp;utmsr=1920x1080&amp;utmsc=24-bit&amp;utmul=en-us&amp;utmje=1&amp;utmfl=10.0%20r45&amp;utmdt=SVG%C2%A0%E2%80%94%C2%A0It%27s%20in%20your%20hands...&amp;utmhid=1377849700&amp;utmr=-&amp;utmp=%2Findex2.htm&amp;utmac=UA-11950721-1&amp;utmcc=__utma%3D251371972.1884550355.1260220320.1272562824.1272576758.56%3B%2B__utmz%3D251371972.1263752798.41.3.utmcsr%3Dgoogle%7Cutmccn%3D(organic)%7Cutmcmd%3Dorganic%7Cutmctr%3Dsvg%2520smil%2520demo%3B" width="1" height="1"/>

</svg>
