<?xml version="1.0" encoding="utf-8"?>
<!-- Generator: Adobe Illustrator 12.0.1, SVG Export Plug-In . SVG Version: 6.00 Build 51448)  --><svg enable-background="new 0 0 126.358 161.782" height="161.782" id="Layer_1" overflow="visible" space="preserve" version="1.1" viewBox="0 0 126.358 161.782" width="126.358" xmlns="http://www.w3.org/2000/svg" xmlns:xlink="http://www.w3.org/1999/xlink">
  <metadata>
    <rdf:RDF xmlns:cc="http://web.resource.org/cc/" xmlns:dc="http://purl.org/dc/elements/1.1/" xmlns:rdf="http://www.w3.org/1999/02/22-rdf-syntax-ns#">
      <cc:Work rdf:about="">
        <dc:title>Statue Liberty 1</dc:title>
        <dc:description></dc:description>
        <dc:subject>
          <rdf:Bag>
            <rdf:li>liberty</rdf:li>
            <rdf:li>of</rdf:li>
            <rdf:li>place</rdf:li>
            <rdf:li>statue</rdf:li>
            <rdf:li>landmark</rdf:li>
          </rdf:Bag>
        </dc:subject>
        <dc:publisher>
          <cc:Agent rdf:about="http://www.openclipart.org/">
            <dc:title>Open Clip Art Library</dc:title>
          </cc:Agent>
        </dc:publisher>
        <dc:creator>
          <cc:Agent>
            <dc:title>John Olsen</dc:title>
          </cc:Agent>
        </dc:creator>
        <dc:rights>
          <cc:Agent>
            <dc:title></dc:title>
          </cc:Agent>
        </dc:rights>
        <dc:date></dc:date>
        <dc:format>image/svg+xml</dc:format>
        <dc:type rdf:resource="http://purl.org/dc/dcmitype/StillImage"/>
        <cc:license rdf:resource="http://web.resource.org/cc/PublicDomain"/>
        <dc:language>en</dc:language>
      </cc:Work>
      <cc:License rdf:about="http://web.resource.org/cc/PublicDomain">
        <cc:permits rdf:resource="http://web.resource.org/cc/Reproduction"/>
        <cc:permits rdf:resource="http://web.resource.org/cc/Distribution"/>
        <cc:permits rdf:resource="http://web.resource.org/cc/DerivativeWorks"/>
      </cc:License>
    </rdf:RDF>
  </metadata>
  <g>
    <path d="M49.896,15.444c0.847,0.017,1.164,0.564,1.944,0.648c-0.084,0.48,0.144,0.648,0.108,1.08   c-0.301,0.239-0.73,0.35-1.296,0.324C50.438,16.774,49.953,16.322,49.896,15.444z" fill="#FFFFFF"/>
    <path d="M52.703,18.792c0.289,1.224,1.201,1.824,1.188,3.348c-1.148-0.651-2.074-1.526-2.268-3.132   C52.015,18.967,52.138,18.658,52.703,18.792z" fill="#FFFFFF"/>
    <path d="M54.431,22.896c0.108,0,0.216,0,0.324,0c0,0.144,0,0.288,0,0.432   C54.394,23.436,54.401,23.177,54.431,22.896z" fill="#FFFFFF"/>
    <path d="M95.687,135.97c0.171,0.009,0.412-0.053,0.432,0.106C96.236,136.458,95.456,136.367,95.687,135.97z" fill="#FFFFFF"/>
    <path d="M59.615,11.772c0.302,1.021-2.16,3.466-0.108,3.888c0.282,0.654,0.397,1.475,0.54,2.268   c1.526,0.958,1.694,3.273,2.268,5.184c1.284,1.02,2.073,2.535,3.996,2.916c0.023,0.707-0.062,2.096,0.107,2.484   c0.311,0.711,1.188,1.007,1.729,1.62c0.831,0.942,1.717,3.119,2.16,4.428c0.229,0.681,0.219,1.028,0.324,1.944   c-0.03,0.996-0.685,2.546-0.434,3.348c-1.054,0.803-0.566,2.481-2.376,2.484c-0.115,0.451-0.098,0.546,0.108,0.864   c0.028,0.39-0.428,0.293-0.434,0.648c0.219,1.771,0.414,3.035,0.648,4.644c-0.554,1.781,0.583,2.968,0,4.536   c0.396,1.107,0.017,2.233,0.324,3.348c0.104,0.381,0.519,0.599,0.646,0.972c0.113,0.327,0.006,0.99,0.108,1.512   c0.158,0.812,0.687,2.088,0.756,3.024c0.055,0.734-0.221,1.485-0.108,2.376c0.044,0.344,0.371,0.665,0.324,0.972   c-0.12,0.793-0.044,2.293,0.54,3.132c-0.127,1.908,0.451,3.809,0.864,5.724c1.633-0.13,2.916,0.661,4.752,0.648   c0.172,0.08-0.024,0.529,0.324,0.432c-0.374,0.475,0.054,1.215-0.108,1.728c0.599,0.554,1.562,0.741,2.592,0.864   c0.67,1.151,0.906,2.532,0.756,4.212c0.07,0.109,0.249,0.112,0.218,0.324c0.746,0.473,1.863,0.136,2.808,0.54   c0.353,0.481,1.195,0.524,1.728,0.54c0.48,2.071,1.354,5.969,0.108,8.1c-0.109-0.07-0.111-0.248-0.324-0.216   c-0.399,0.247-0.156,1.138-0.646,1.296c0.23,0.64-0.225,1.353,0.216,1.836c0.296,3.182,0.473,7.691,0.864,10.908   c0.116,0.241,0.25,0.469,0.322,0.756c0.063,0.627-0.238,0.953,0.108,1.296c-0.017,0.474-0.32,1.247,0.324,1.296   c-0.463,0.396,0.119,0.521-0.216,0.972c0.142,0.29,0.685,0.181,0.972,0.324c0.254,0.574-0.038,1.693,0.216,2.27   c-0.406,0.386-0.756,0.827-1.188,1.188c0.449,1.228,0.146,2.473,0.432,3.348c0.521,1.603,3.334,3.594,4.536,5.076   c0.183,0.227,0.324,1.275,0.216,1.836c0.352,0.332,0.269,1.101,0.432,1.62c-0.169-0.046-0.092-0.34-0.432-0.216   c-0.069,0.502,0.273,0.591,0.54,0.756c-0.015,0.779-0.045,2.012,0.756,2.484c0.196,1.555,0.872,3.293,1.188,4.858   c-0.155,0.529-0.235,1.134-0.218,1.836c0.723,0.366,1.695,0.635,2.27,0.434c1.161,0.768,2.728,0.463,4.104,0.972   c0.264,1.612,0.748,4.167,0.216,5.832c0.372,0.221,1.444,0.594,1.837,0.108c4.124,0.419,8.89-0.305,12.853-0.758   c0.411,0.159,0.021-0.481,0.432-0.322c2.871,1.736,7.846,2.023,10.584,3.238c0.405,0.208,0.543,0.683,1.188,0.648   c-0.174,4.088-0.204,8.854-0.648,13.176c-15.463,0.525-31.217,0.027-46.872,0.756c-9.442,0.44-18.823-0.009-28.294,0.434   c-11.856,0.552-23.688-0.002-35.316,0.54c-5.367,0.249-9.971,1.221-15.228,1.728c0-3.204,0-6.408,0-9.612   c3.534-2.874,9.007-3.809,12.42-6.804c0.306-0.337,0.938,0.169,0.972-0.54c0.812,0.086,1.675-0.598,2.592-0.756   c0.744,0.452,2.054,0.289,2.484,0.108c1.149,0.394,2.926,0.696,4.104,0.756c1.175,0.058,2.625,0.118,3.888-0.216   c0.298,0.104,1.058,0.254,1.188-0.108c1.472,0.218,2.356-0.246,3.78,0c0.779-1.338,0.349-3.3,0.864-4.968   c1.876-0.859,4.029-1.442,5.94-2.27c0.345-0.77,0.21-1.544,0.54-1.942c-0.353-0.474,0.033-0.997,0.108-1.514   c0.112-0.766,0.023-1.634,0.216-2.376c0.115-0.441,0.369-0.834,0.432-1.619c0.008-0.104-0.198-0.577-0.216-0.433   c0.016-0.134,0.273-0.074,0.324-0.216c0.117-0.327-0.128-0.729-0.108-1.296c0.039-1.104,0.707-1.782,0.216-2.916   c0.224-0.39,0.381-0.845,0.648-1.188c1.3-1.104,4.062-1.496,4.32-3.455c0.049-0.376-0.222-0.738-0.216-1.08   c0.015-0.917,0.723-1.941,0.108-2.916c-0.018-0.342,0.287-0.36,0.216-0.757c-0.571-0.76-1.02-1.212-0.972-2.052   c0.069-1.212,1.702-1.639,1.944-2.916c-0.366-0.632,0.059-0.874,0.108-1.62c0.075-0.363-0.222-0.354-0.324-0.54   c0.604-1.884-0.235-3.886,0.324-5.508c-0.534-2.696,0.024-6.692-0.648-9.18c-0.498-0.402-1.209-0.592-1.728-0.973   c0.051-2.712-1.169-4.479-0.216-6.695c1.579,0.258,2.841-0.571,3.996-1.08c0.125-0.491,0.171-1.096,0.108-1.513   c-0.013-0.086-0.187-0.477-0.216-0.323c0.181-0.938,1.321-1.274,2.052-1.835c-0.106-1.448-0.387-2.728,0.648-3.78   c1.372-0.334,2.858-1.1,4.32-1.944c0.264-0.499,0.092-1.127,0.216-1.62c0.073-0.292,0.325-0.346,0.324-0.648   c-0.001-0.204-0.231-0.429-0.216-0.648c0.01-0.144,0.283-0.3,0.324-0.54c0.032-0.186-0.14-0.409-0.108-0.54   c0.13-0.539,0.423-0.906,0.432-1.404c0.009-0.477,0.112-1.124,0.108-1.512c-0.005-0.488-0.336-0.894-0.432-1.512   c-0.169-1.083,0.383-2.218,0-2.916c0.235-0.924,0.146-2.068-0.108-3.348c0.182-0.576,0.097-1.949-0.54-2.7   c-0.349-0.41-0.093,0.12-0.108-0.432c-0.009-0.338-0.401-0.14-0.324-0.324c0.465-2.389-1.333-3.417-1.188-5.076   c0.095-0.347-0.356-0.148-0.324-0.432c0.291-0.737-0.137-1.264-0.216-1.944c-0.088-0.763,0.151-1.634,0.108-2.484   c-0.078-1.53-0.958-3.52-1.188-5.508c-0.38-3.286-0.436-7.151,0.324-10.368c0.205-0.866,0.61-1.476-0.54-1.836   c0.326-1.478-1.517-2.054-1.62-3.348c-0.081-1.019,0.638-2.261,0.432-3.456c-0.229-1.331-1.129-2.496-1.512-3.888   c-0.393-1.432-0.48-2.785-0.864-4.428c-0.372-0.047-0.605,0.042-0.864,0.108c-0.728-0.964-0.646-2.738-1.08-3.996   c-0.129-0.5,0.455,0.189,0.54-0.216c-0.509-1.149-3.008-1.92-2.7-3.564c0.129-0.689,0.842-0.633,1.188-1.296   c0.02-1.172-0.564-1.74-0.648-2.808C44.619,2.176,45.548,1.269,46.115,0c0.028,0.22,0.503,0.602,0.432,0   c0.538,0.64,0.768,1.298,0.756,2.268c0.093,0.472,0.562-0.058,0.756,0.216c0.12,0.983-0.347,1.381-0.972,1.62c0,0.54,0,1.08,0,1.62   c0.417,0.303,0.923,0.517,1.296,0.864c0.187,1.436-0.662,2.509-1.512,3.24c0.748,1.377,1.747,2.501,2.268,4.104   c0.882,0.198,1.41,0.75,2.592,0.648c-0.348-1.416-1.762-1.767-2.16-3.132c1.144,0.62,1.938,1.589,3.024,2.268   c0.32-0.04,0.533-0.188,0.648-0.432c-0.274-1.562-1.08-2.592-1.296-4.212c0.785,1.231,1.522,2.51,2.16,3.888   c0.639-0.084,0.557-0.007,1.08,0.108c0.47-0.862-0.002-2.666,0.756-3.24c0.367,1.659-0.214,4.597,1.728,4.212   C58.607,13.854,58.785,12.321,59.615,11.772z M50.652,17.495c0.566,0.026,0.995-0.085,1.296-0.324   c0.036-0.432-0.192-0.6-0.108-1.08c-0.781-0.083-1.097-0.631-1.944-0.648C49.953,16.322,50.438,16.774,50.652,17.495z    M51.623,19.008c0.194,1.606,1.12,2.48,2.268,3.132c0.013-1.524-0.899-2.125-1.188-3.348   C52.138,18.658,52.015,18.967,51.623,19.008z M54.756,23.327c0-0.144,0-0.288,0-0.432c-0.108,0-0.216,0-0.324,0   C54.401,23.177,54.394,23.436,54.756,23.327z M96.118,136.078c-0.02-0.159-0.261-0.099-0.432-0.106   C95.456,136.367,96.236,136.458,96.118,136.078z"/>
  </g>
</svg>
