<svg xmlns:rdf="http://www.w3.org/1999/02/22-rdf-syntax-ns#" xmlns="http://www.w3.org/2000/svg" enable-background="new 0 0 553.97 751.595" xml:space="preserve" height="751.6" viewBox="0 0 553.97 751.595" width="554" version="1.0" y="0px" x="0px" xmlns:cc="http://creativecommons.org/ns#" xmlns:dc="http://purl.org/dc/elements/1.1/"><metadata><rdf:RDF><cc:Work rdf:about=""><dc:format>image/svg+xml</dc:format><dc:type rdf:resource="http://purl.org/dc/dcmitype/StillImage"/><dc:title/></cc:Work></rdf:RDF></metadata><defs>
</defs>



<path d="m40.81,479.5s27.68,27.68,27.96,28.05c0.282,0.376,4.598-1.031,4.598-1.031l0.188-1.783,4.784,1.125,3.002-0.468,0.376-7.881-12.38-13.79c0.001-0.001-19.98-5.911-28.52-4.222z"/><path d="m66.8,468.1,15.86,23.74s5.254-14.92,5.817-15.1c0.564-0.188-13.04-9.664-21.67-8.632z"/><path d="m85,450.5c-0.297,0.005,15.01,25.52,15.01,25.52l5.254,0.751,5.441-9.947s-18.86-16.42-25.71-16.33z"/><path d="m172.3,487.5s30.87,26.08,30.68,30.49l1.877-0.469s2.157-27.86-3.003-36.12c0,0-15.86-7.13-29.55,6.099z"/><path d="m214.4,500.1,19.98,19.42s3.471-0.469,3.377-1.22c-0.095-0.75-0.095-0.75-0.095-0.75l9.007,0.281,3.847,5.255,3.19,0.656c0.094,0.656,0.188,0.28,0.188,0.28s5.442-22.7,4.316-23.92c0,0-20.92-1.406-27.4,5.349,0.001,0.001-11.63-6.098-16.42-5.348z"/><path d="m89.13,477.4,44.38,36.22s2.909,1.969,3.659-4.035c0,0,11.45,2.532,12.1,3.003l6.005,7.224s-6.849-12.67-10.41-16.98c-3.566-4.317-20.36-15.48-24.3-17.92-3.94-2.439-12.29-10.04-31.71-7.506"/><path d="m105.7,477,2.814,0.562s5.348-8.817,6.287-9.662c0.938-0.845,11.35,7.692,11.73,8.35,0.375,0.656,8.727,9.288,9.946,10.7,1.219,1.406,20.36,32.46,20.55,33.21,0.188,0.75-7.13-16.51-10.13-22.14-3.001-5.63-12.2-16.51-12.76-17.26-0.563-0.75-18.58-18.39-20.55-17.45-1.973,0.941-7.603,12.57-7.883,13.7z"/><path d="m139.1,473.3s19.52,17.45,21.7,21.14c2.19,3.689-13.01-26.02-15.26-26.4-2.251-0.376-6.505,4.628-6.442,5.254z"/><path d="m132.6,443.3s41.16,38.78,40.28,77.81l-0.125,2.502,1.376,0.501s1.125-15.64,0.625-20.27c-0.501-4.628-4.379-17.64-5.379-19.64-1-2.001-8.006-17.39-12.14-22.27-4.126-4.878-18.14-18.39-24.64-18.64z"/><path d="m131.2,443.7,3.251,2.503s-8.005,16.01-7.38,18.64l-3.252-1.125s3.503-15.51,7.381-20.02z"/><path d="m136.4,450.8,2.627,2.627s-6.381,13.14-6.568,13.98l-2.251-1.313s4.972-14.45,6.192-15.29z"/><path d="m85.38,506.1s3.565,4.504,4.785,5.066c1.22,0.563,28.43-2.064,29.18-2.44,0.75-0.374-9.946-4.598-11.45-5.254-1.5-0.656-8.538-1.22-9.758-2.908-1.219-1.688-1.313,0.094-1.313,0.094s-10.7,5.63-11.45,5.442z"/><path d="m90.26,480.9s5.348,3.097,6.099,4.129c0.75,1.032,0.75,5.16,0.75,5.16s-9.665,11.07-10.42,13.23c-0.75,2.159-3.753,2.347-3.753,2.347s0.657-16.89,7.319-24.86z"/><path d="m81.25,506.2c0.392,0.066,3.565,5.348,3.939,6.287,0.376,0.938-18.39-1.313-19.04-1.689-0.656-0.376,7.319-5.911,15.11-4.598z"/><path d="m42.97,483.1s24.02,24.77,24.11,25.24c0.094,0.469-3.566,1.219-3.566,1.219s0-4.033-1.032-4.691c-1.031-0.657-13.7-6.567-14.45-6.381-0.75,0.189-5.066-15.39-5.066-15.39z"/><path d="m47.38,499.6s12.48,4.41,13.04,5.442c0.563,1.032,0.938,2.628,0.938,2.628s-26.27,1.594-26.74-1.972c0,0,7.131-2.345,8.164-2.064,1.03,0.282,4.596-4.034,4.596-4.034z"/><path d="m174.9,522.8,0.093,1.219s27.4-1.969,28.05-2.908c0.656-0.938-3.706-7.599-3.706-7.599l-7.74,4.128s-10.27-5.208-11.31-4.645c-1.032,0.562-5.441,9.429-5.394,9.663"/><path d="m68.96,517.5s47.48,5.816,49.07,4.69l0.094,2.627s-47.57-2.908-49.35-4.69l0.189-2.627z"/><path d="m64.27,523.8s43.25,6.756,53.76,5.629l0.094,2.346s-53.57-3.564-54.04-5.817l0.187-2.158z"/><path d="m59.39,532c-0.151-0.303-2.721,2.438-2.721,2.438s36.87,8.009,61.36,7.698c0.094-0.002,0.188-0.002,0.281-0.005l0.094-3.472c0,0.001-57.7-4.032-59.02-6.659z"/><path d="m36.92,511.1,0.047,1.737-1.971,0s2.72,2.438,19.52,3.847l-0.094-2.582c0.001,0-17.03-0.75-17.5-3.002z"/><path d="m0.938,532s29.08,6.567,31.34,5.816c2.252-0.751,23.83,2.252,25.71,2.064,1.877-0.188,36.4,2.251,36.97,2.439,0.562,0.188,0,5.441,0,5.441s-94.58-4.126-94.95-10.32v-5.817l0.938,0.376z"/><path d="m101,543.8,0,6.006s-1.126,3.377,58.55,0l0.187-6.944s-38.28,5.629-58.73,0.938z"/><polygon points="272.7,544.8,273,538.7,187.3,541.9,187.3,541.9,187.5,547.8" transform="translate(0,-5.22573e-6)"/><polygon points="272.8,535,273,529,256.7,529.6,256.7,529.6,256.5,534.2" transform="translate(0,-5.22573e-6)"/><polygon points="183.9,539.9,183.9,532.2,181.1,532.2,181.1,532.2,180.9,539.3" transform="translate(0,-5.22573e-6)"/><polygon points="216.9,537.2,219.2,536.9,219,532.9,216.2,527.9,212.2,528.6,212.2,528.6,211.7,537.1" transform="translate(0,-5.22573e-6)"/><polygon points="225.4,537.4,222.6,537.6,222.4,531.2,222.4,531.2,225.2,531.2" transform="translate(0,-5.22573e-6)"/><polygon points="204.4,526.5,204.5,528.6,171.7,529.9,161.4,530.7,151.2,531,151.2,529.2,151.2,529.2,172.1,527.5" transform="translate(0,-5.22573e-6)"/><polygon points="246.4,528.6,225.4,528.8,225.2,526.2,225.2,526.2,246.2,526.2" transform="translate(0,-5.22573e-6)"/><path d="m34.34,517.2c0,0.751-0.751,5.255-0.751,5.255l-3.189,2.439-3.003-1.313-1.876,1.501-1.313-0.938-1.688,1.501-1.689-0.563-2.815,1.688-1.502,0.564-0.562,1.312s-7.506-0.75-11.26,0.188c0,0,44.47,5.066,49.16,3.565,4.69-1.502-4.879-2.439-4.879-2.439l-3.19-3.754-3.377,1.313-1.689-2.627-3.564,1.126-0.752-2.251-1.125-1.126,0.187-5.443h-1.129v0.002z"/>
<!--path d="m60.4,183.3,0-4.437s6.155-5.871,6.729-5.871c0.573,0,5.726,3.58,6.299,4.724,0.572,1.146,0.716,5.727,0.716,5.727l-13.74-0.143z"/><path d="m60.87,188.5s7.253-3.533,12.79,0.381l0.669,7.635s-7.636-2.098-14.13,0.763l0.669-8.779z"/><path d="m60.78,203.4c0.095-0.286,8.111-4.581,13.84-0.19l1.812,39.04h-17.08l1.431-38.84z"/><path d="m57.67,198.5s10.95-4.295,19.76,0.429l0.143,2.79s-10.31-3.936-18.97,0.573l-0.93-3.792z"/><polygon points="79.36,246.8,56.67,246.4,56.53,243,56.6,242.8,56.6,242.8,79.36,243" transform="translate(0,-5.22573e-6)"/><path d="m58.77,250c0.095-0.286,10.02-5.057,17.94,0.192l1.622,31.49,3.15,0.573-0.191,4.771-3.245,1.051s-7.54-5.344-19.37-0.095l-3.436-1.719,0.095-3.625,3.245,0.095,0.192-32.74z"/><ellipse d="m 245.75801,125.892 c 0,1.36469 -1.12153,2.471 -2.505,2.471 -1.38348,0 -2.505,-1.10631 -2.505,-2.471 0,-1.3647 1.12152,-2.471 2.505,-2.471 1.38347,0 2.505,1.1063 2.505,2.471 z" rx="2.505" transform="translate(0,-5.22573e-6)" ry="2.471" cy="125.9" cx="243.3"/><ellipse d="m 245.138,131.452 c 0,1.04713 -0.81708,1.896 -1.825,1.896 -1.00792,0 -1.825,-0.84887 -1.825,-1.896 0,-1.04714 0.81708,-1.896 1.825,-1.896 1.00792,0 1.825,0.84886 1.825,1.896 z" rx="1.825" transform="translate(0,-5.22573e-6)" ry="1.896" cy="131.5" cx="243.3"/><ellipse d="m 245.01899,117.708 c 0,0.92894 -0.76917,1.682 -1.718,1.682 -0.94882,0 -1.718,-0.75306 -1.718,-1.682 0,-0.92894 0.76918,-1.682 1.718,-1.682 0.94883,0 1.718,0.75306 1.718,1.682 z" rx="1.718" transform="translate(0,-5.22573e-6)" ry="1.682" cy="117.7" cx="243.3"/><ellipse d="m 244.67,110.837 c 0,0.91513 -0.63754,1.657 -1.424,1.657 -0.78645,0 -1.424,-0.74187 -1.424,-1.657 0,-0.91514 0.63755,-1.657 1.424,-1.657 0.78646,0 1.424,0.74186 1.424,1.657 z" rx="1.424" transform="translate(0,-5.22573e-6)" ry="1.657" cy="110.8" cx="243.2"/><rect height="29.7" width="1.288" y="108.4" x="242.6"/><path d="m223.4,150.5s17.82-12.02,19.9-16.11c0,0,17.68,13.17,20.54,14.1,2.863,0.931,0.429,1.002,0.429,1.002s-12.24-5.298-40.87,1.002z"/><path d="m198.9,205.2c-0.095-0.286-1.623-11.83-1.623-11.83s0.001-10.97,2.768-16.32c2.767-5.346,6.681-11.26,10.02-14.51,3.34-3.242,13.55-10.4,15.08-11.64,1.528-1.239,34.36-2.958,37.6-0.286,3.245,2.673,8.971,5.82,10.78,7.635,1.813,1.814,8.017,5.536,10.02,9.066,2.005,3.532,4.867,7.063,5.727,11.17,0.858,4.103,1.909,8.588,1.812,13.17-0.095,4.581,0,6.681-0.382,10.02-0.381,3.339-0.668,3.53-0.953,4.295-0.286,0.763-4.772-3.532-9.163-4.678-4.39-1.146-16.89-1.049-18.99-1.24-2.1-0.192-10.02-0.86-13.94-0.765-3.912,0.097-18.99,1.241-21.57,1.432-2.577,0.192-15.94,1.432-18.8,2.291-2.863,0.858-8.398,2.387-8.398,2.387v-0.193z"/><path d="m295.6,286.1,17.56,0-0.189-12.79s-4.581-3.627-7.444-4.2c-2.862-0.571-8.59,5.919-9.926,7.253-1.337,1.336-0.001,9.736-0.001,9.736z"/><path d="m329.7,286.5,11.31,0.144,0-18.61s-1.861-4.439-2.435-5.01c-0.572-0.574-9.449,17.18-8.875,23.48z"/><path d="m286.7,224.2c-0.1,0.19-0.215-6.44,0.716-7.945,0.932-1.501,9.949-10.24,12.53-12.02l0.286-9.806,0.645-0.144,0.572,9.95s9.948,4.938,12.38,9.377c2.432,4.437,2.289,9.09,2.361,10.45,0.07,1.36-28.2-2.29-29.49,0.142z"/><path d="m148.4,232.7c0-0.215,0.072-11.74,0.072-11.74s-0.86-0.142-1.003-0.429c-0.143-0.286,0.43-2.719,1.576-4.007,1.145-1.288,3.507,2.935,3.436,4.079-0.072,1.146-1.862,0.288-1.862,0.288l-0.143,11.95-2.076-0.143z"/><path d="m154.4,233.2h2.291l-0.286-4.581,0.93-0.07s-1.646-3.437-1.861-4.153c-0.215-0.715-2.577,3.581-2.433,4.08,0.143,0.503,1.359,0.429,1.359,0.429v4.295z"/><path d="m205.8,217.6s46.81-8.017,77.59-1.145v8.874l-77.3,2.146-0.286-9.875z"/><path d="m220.4,247.8,0.287,25.34,1.861,0.286s2.004-7.015,3.436-8.303,15.6-8.446,17.9-10.31c2.29-1.861,0.859-0.573,0.859-0.573s12.31,5.869,15.32,7.444c3.007,1.576,6.586,6.729,7.303,8.734,0.716,2.003,0.716,2.003,0.716,2.003l1.145-0.285v-24.91l-48.82,0.573z"/><path d="m238.8,286.2s8.016-2.434,10.02-4.583c2.005-2.146,4.582-0.429,6.012,0.144,1.433,0.573,12.6,6.729,12.6,6.729l1.574,0.573-0.287,33.93-40.23,0.571-0.287-24.91s1.002-4.866,3.436-7.3,6.729-5.013,7.16-5.154z"/><path d="m286.9,231.7-0.095,10.98,3.339-0.286s-0.762-10.31,0-10.88c0.764-0.57-3.244,0.193-3.244,0.193z"/><path d="m294.6,242.2,3.626,0.095-0.19-7.825s1.813-3.627,3.816-4.198c2.005-0.573,3.149,2.193,3.914,3.625,0.763,1.432,0.477,8.398,0.477,8.398l3.437,0.097,0.095-5.344,2.768,0.286s-2.768-7.063-3.913-7.542c-1.145-0.476-12.88-0.093-12.88-0.093s-2.004,1.62-2.958,1.62c-0.955,0,1.622,3.056,1.813,3.819,0.189,0.764-0.001,7.062-0.001,7.062z"/><path d="m316.6,233.7c-0.095-0.286,0,8.588,0,8.588l-3.436,0.097,0.19-4.678c0.001,0.001,3.341-3.721,3.246-4.007z"/><polygon points="319.7,229.6,320.1,242.8,322.3,242.8,322.2,231.8,322.2,229.3,323.8,229,321.3,226.1,321.3,226.1,318.5,229.2" transform="translate(0,-5.22573e-6)"/><path d="m286.3,244,35.5-0.571s20.52,2.291,21.38,3.244c0.86,0.956,1.241,2.291,1.241,2.291l-58.98-0.383-0.285-4.483,1.144-0.098z"/><path d="m416,177,0-4.437s6.156-5.871,6.729-5.871,5.727,3.581,6.299,4.725c0.573,1.146,0.716,5.727,0.716,5.727l-13.74-0.144z"/><path d="m416.5,182.2s7.254-3.534,12.79,0.379l0.668,7.636s-7.635-2.1-14.12,0.764l0.667-8.779z"/><path d="m416.4,197.1c0.095-0.288,8.112-4.581,13.84-0.19l1.813,39.04h-17.08l1.432-38.84z"/><path d="m413.3,192.2s10.95-4.295,19.76,0.43l0.143,2.792s-10.31-3.936-18.97,0.573l-0.931-3.795z"/><polygon points="435,240.5,412.3,240.1,412.1,236.7,412.2,236.5,412.2,236.5,435,236.7" transform="translate(0,-5.22573e-6)"/><path d="m414.4,243.7c0.096-0.286,10.02-5.059,17.94,0.19l1.622,31.5,3.149,0.573-0.19,4.771-3.246,1.049s-7.539-5.344-19.37-0.095l-3.437-1.717,0.097-3.626,3.244,0.095,0.192-32.74z"/><path d="m413.8,283.7s11.55-5.249,20.71,0.19l3.627,71.77s-14.89-16.13-18.04-17.28c-3.15-1.145-9.64-1.812-9.831-1.812-0.19,0,2.101-2.482,2.101-2.482l1.431-50.2v-0.192h-0.001z"/><path d="m373,221.7-0.143-1.216,2.435,0s-0.216-3.722-0.145-4.008c0.072-0.287,4.439-4.081,4.439-4.081l0.357-5.725,0.644,0.07,0.43,5.871s4.867,2.147,4.939,7.015c0.071,4.866,0,0.571,0,0.571l2.004,0.216,0.071,0.858c0.001,0-13.88,0.142-15.03,0.429z"/><path d="m375.1,222.7s7.588-1.576,10.56,0.035l0.215,7.623-10.95,0.108,0.177-7.766z"/><path d="m372.7,231.2s14.74-0.645,15.32,0.035l0.036,1.144-2.147,1.541,1.038,30.31-12.81,0.25,0.787-28.24,0.071-1.539-1.323-1.36-0.753-0.357-0.215-1.788z"/><path d="m371.9,265.3s17.68-0.536,18.11,0.037l-0.179,2.933-2.219,0.501,0.93,26.98-14.85-0.035,0.5-26.95-2.146-0.608-0.108-2.756"/><path d="m178.6,301.6c0.644,0.144,6.011-6.729,9.089-6.013,3.078,0.715,9.233,6.728,9.233,6.728s0.573,7.015,0,6.799c-0.572-0.213-6.656-3.866-6.871-3.362-0.215,0.499-2.291,1.503-4.366,1.933s-4.724,4.295-4.724,4.295v9.76l23.02-0.456-0.955-77.3-34.17,0.381-24.05,2.673,1.337,75.4,31.82-0.629,0.628-20.2zm-20.81-40.25c2.863-0.573,4.58,4.007,5.917,5.536,1.336,1.525,0,7.635,0,7.635l-3.626-3.437s-3.436-1.145-4.2-1.337-3.817-1.336-3.817-1.336,2.863-6.491,5.726-7.061zm6.632,48.27s-1.145-2.36-2.792-3.291c-1.646-0.932-3.436-0.288-5.296-1.076-1.861-0.785-3.508-3.075-3.508-3.075s2.291-3.938,5.01-5.369c0,0,4.868,2.075,6.084,5.154,1.218,3.078,0.502,7.657,0.502,7.657zm13.22-42.16c0.572-4.008,9.925-8.208,9.925-8.208,6.49,3.435,9.163,8.588,9.163,8.588s0.381,6.3-0.191,6.109c-0.573-0.192-2.672-3.819-6.872-3.246-4.199,0.571-9.353,7.254-9.353,7.254l-0.19,9.927-2.481-0.383c-0.001,0.001-0.574-16.03-0.001-20.04z"/><path d="m209.6,237.5,0.859,75.01,3.866,0.573,2.147-69.29,57.26-0.144,1.146,45.09,2.147,3.722s0.286,13.89-0.144,14.89c-0.43,1.002,1.862,4.295,1.862,4.295l1.146-0.142,0.143-74.44-70.43,0.43z"/><polygon points="219.3,322.4,219.6,318,207.6,317.7,207.6,317.7,207.4,322.1" transform="translate(0,-5.22573e-6)"/><polygon points="284.1,321.3,272.1,321.7,272.1,317.3,272.1,317.3,284.1,316.8" transform="translate(0,-5.22573e-6)"/><polygon points="292.2,321.6,288.3,321.7,288.3,317.7,288.3,317.7,292,317.5" transform="translate(0,-5.22573e-6)"/><polygon points="286.6,320.6,287.2,251.5,285,251.5,285,251.5,285.6,320.3" transform="translate(0,-5.22573e-6)"/><polygon points="346.1,231.6,346.1,249.4,326.1,245.1,326.1,245.1,335.5,231.2" transform="translate(0,-5.22573e-6)"/><polygon points="189.4,205.5,187.7,205.5,187.9,196,187.9,196,189.2,196.1" transform="translate(0,-5.22573e-6)"/><path d="m174.1,226.8,0.072-8.23s14.1-13.1,14.32-14.46c0.214-1.36,0.429,0.072,0.429,0.072s10.16,7.729,12.17,10.95c2.005,3.223,2.005,3.223,2.005,3.223l-0.144,8.301-28.85,0.142z"/><path d="m202.1,232.2-0.072-1.791,1.217,0-0.214-2.934-29.42,0.07s-2.577,0.573-3.436,1.647l3.936,3.506,0.072,10.6,28.99-0.072-0.071-10.95-1.003-0.068zm-9.807,10.09-7.874,0.072s-0.071-5.583,0-6.514c0.072-0.93,3.579-4.009,3.579-4.009,2.936,0.501,3.938,3.724,3.938,3.724s-1.146-0.861-2.291-1.075c-1.145-0.215-3.437,1.717-3.437,1.717l0.216,1.717,6.084,0.072-0.215,4.296z"/><path d="m144.1,233.7,2.434-4.794,1.754,4.295-0.072-0.538,8.375,0.359,0.214,3.149,4.367,4.188,0.178,2.504,1.611,1.109,0.071,1.432-7.659,1.647-10.38,0.752,0.322-13.1s-1.146-0.678-1.217-1.002z"/><path d="m169.3,227.7s-2.314,3.028-2.314,3.316c0,0.286,0.025,0.548,0.025,0.548l1.192,0.049-0.023,13.65,2.313,0.095,0.072-13.79s0.955-0.262,1.074-0.357c0.12-0.096-2.314-3.482-2.339-3.506z"/><polygon points="341.7,320.3,342.8,253.6,343.7,251.8,346.1,250.8,346.1,250.8,347.4,320.1" transform="translate(0,-5.22573e-6)"/><path d="m340.8,256.6,0.431-3.578-19.04-1.432,0.858,69.57,4.582,0-0.287-28.34,13.46,0.144-0.285-4.153-13.46-0.715-0.286-23.48s5.439-4.868,6.441-5.01c1.002-0.144,1.002-3.151,1.002-3.151l6.585,0.143z"/><path d="m339.4,300.5s-9.733,10.88-9.161,20.47h9.878l-0.717-20.47z"/><path d="m296,321.6,18.04-0.858-0.143-12.31s-6.586-3.007-8.303-3.437c-1.719-0.429-9.307,5.298-9.592,7.017-0.286,1.717,0.001,9.59,0.001,9.59z"/><path d="m293.6,292.6c-0.285,0.429,0.287,9.161,0.287,9.161s7.015-7.015,9.591-7.015c0,0,9.163,3.866,10.16,6.156l0.716-8.447-20.76,0.145z"/><path d="m293.9,265.6s7.873-6.585,10.02-6.871c2.147-0.288,8.876,4.724,9.448,6.154,0.573,1.434,0.716-8.732,0.716-8.732l-21.19-0.144,1.002,9.593z"/><rect height="17.46" width="2.004" y="217.8" x="340.4"/><rect height="8.112" width="1.432" y="227" x="334.1"/><path d="m334.9,227.4s-2.005-0.383-2.196-0.717c-0.19-0.332,2.244-2.434,2.387-3.005,0.143-0.573,2.005,2.671,2.101,2.91,0.094,0.239-2.292,0.812-2.292,0.812z"/><path d="m341.3,218.6s-2.004-0.383-2.195-0.717c-0.19-0.334,2.242-2.432,2.385-3.005,0.144-0.573,2.006,2.671,2.101,2.91s-2.291,0.812-2.291,0.812z"/><path d="m344.5,231.9s-2.005-0.383-2.196-0.715c-0.19-0.336,2.244-2.436,2.387-3.007,0.143-0.573,2.004,2.671,2.1,2.91,0.094,0.239-2.291,0.812-2.291,0.812z"/><path d="m57.43,317.2c4.817-3.844,8.977-8.507,14.42-9.002,4.083-0.369,6.415-1.342,7.867-2.176l-0.804-15.91c-9.162-5.441-20.71-0.192-20.71-0.192v0.192l-0.773,27.09z"/><path d="m371,334.4c0.09,0.361,0.072,0.033-0.026-0.675-0.021,0.271-0.017,0.504,0.026,0.675zm-20.61-1.529s-0.036-0.063-0.102-0.177c-3.017,6.067,0.102,0.177,0.102,0.177zm-111.5,23.29-0.092,0c-0.217,2.778,0.092,0,0.092,0zm148.9-56.12c-0.765-1.908-14.12-0.381-14.12-0.381l-0.383,22.14-253.4,2.669-0.19-22.52,2.194-1.432-0.094-2.578-2.673-0.285-0.954-25.39,2.672-1.908-0.477-2.958-2.863-0.381-1.336-29.11,2.481-2.102,0.191-2.767-2.292,0.288s0.095-0.67,0-1.336c-0.095-0.67,0.095-0.48,0-0.956s0.095-6.205,0.095-6.205l2.291-0.762-0.476-1.336-1.718-0.19-0.096-0.668c-0.667-2.863-5.726-7.156-5.726-7.156-4.962,3.242-5.631,8.301-5.631,8.301l-2.004,0.765,0.287,2.384,2.194,0.573,0.287,6.395-2.005,0.381,0.096,1.91,1.718,2.673-0.669,29.3-2.194-0.095-0.096,3.149,1.813,1.241-0.381,26.44-1.909,0.097,0.096,2.098,1.909,1.91-0.287,22.71,1.002,0.717,1.832,1.729c3.255,5.291,5.662,11.91,4.804,19.4,0.38-0.581,0.569-2.861,0.378-4.194-0.19-1.336,1.527-2.48,1.91-3.054,0.382-0.571-0.191-2.673-0.573-4.198-0.382-1.526-0.382-3.628-0.382-5.153,0-1.233,1.497-2.469,2.676-3.301l1.963-0.11c1.011,0.972,2.042,3.028,2.042,3.028l0.382,2.48,0.764,3.817-0.572,6.873,1.909-1.719,1.717-2.101s-0.572-4.58-0.764-5.534c-0.19-0.954,0.382-4.198,0.382-4.198s1.91-2.482,2.482-2.673c0.573-0.19,2.863-0.19,3.817,0,0.955,0.19,2.1,3.627,2.1,3.627l-0.191,6.298-0.19,7.827,5.536-0.381s0.19-2.675,0.19-4.01c0-1.337,0.191-4.581,0.573-6.109,0.381-1.525,3.245-3.244,4.009-3.054,0.763,0.192,2.862,2.673,3.436,2.292,0.572-0.383,2.481-2.482,4.2,0.19,1.717,2.671,0.572,5.344,0.572,5.344l3.245,0.192s0.382-2.102,2.862-4.392c2.482-2.291,4.391,0.573,4.391,0.573l1.528,6.681-2.483,10.5,3.628,5.152,7.062-0.19s-0.191-12.98,0.19-16.03c0.381-3.054,1.527-8.208,4.581-6.107,3.054,2.1,2.672,8.207,2.672,8.207l0.573,14.32,36.84-1.718,23.58,0.192c0.024-0.311,0.054-0.686,0.092-1.146,0.382-4.581,5.727-3.817,5.727-3.817,4.199,0,5.344,4.58,5.344,4.58l38.18-1.907v3.817l24.05-1.145s-1.146-4.963-0.382-16.42c0.765-11.45,7.254-3.054,7.254-3.054,1.145-7.635,5.344-3.817,5.344-3.817,1.527-6.107,14.89-0.383,14.89-0.383,4.246-10.97,10.13-1.601,10.97-0.177,0.147-0.295,0.304-0.611,0.482-0.967,3.817-7.637,7.635-2.291,8.017-4.2,0.383-1.908,8.018-2.29,9.544-2.29,1.165,0,2.33,6.22,2.646,8.488,0.167-2.16,2.274-7.131,4.988-8.488,3.055-1.527,4.582,8.017,4.582,8.017l3.436-1.907s1.527-7.256,2.672-8.4c1.146-1.144,2.291-1.907,2.291-1.907s-0.385-19.09-1.148-21z"/>
<path d="m156.9,89.1s5.758,1.226,6.616-0.612c0.857-1.838-0.858-6.004-0.858-6.004s0.49-4.655,1.348-5.881c0.857-1.226,3.063-5.023,2.573-8.086s7.106-13.72,6.738-16.05l0.205-0.979,0.898,0.163,0.082,2.287s1.307,1.552,1.47,3.104c0.164,1.553,0.736,2.532,0.817,3.104,0.082,0.571-0.572,8.331-0.572,8.576,0,0.244,8.577,10.7,8.658,11.44,0.082,0.735,0.082,1.145,0.082,1.145s2.042,0.571,2.94,0.162c0.899-0.407,2.124-1.225,2.124-1.225l-0.164-0.653s-2.368-0.245-3.022-0.653c-0.654-0.409-6.126-8.821-6.126-8.821s-0.49-8.25,0.326-9.476c0.817-1.225,1.471-2.94,1.389-3.594-0.082-0.653,0.898-3.757,1.143-3.92s8.25-1.716,8.903-0.572c0,0-0.409,13.97-0.327,15.11,0.082,1.145,0.49,3.186,0.49,3.186s-0.49,16.17-0.817,17.15c-0.326,0.98,1.879-0.98,2.042-0.081,0.163,0.897,4.819-1.39,4.656-1.961-0.164-0.572-3.268-2.695-3.268-2.695l0.082-11.68s3.267-6.371,3.349-9.883c0.082-3.513,2.532-4.737,2.532-4.737l2.614-5.8,1.225-0.245s2.614-4.329,2.777-4.982,4.166-0.163,5.554-1.225c1.389-1.062,6.453-2.614,8.658-8.332,2.206-5.717,1.878-8.984,2.94-11.11,1.062-2.124,2.859-5.881,2.696-6.616-0.164-0.735,6.126-5.146,6.208-5.963s1.96-0.082,2.369-0.735,2.042-3.104,2.042-3.349-2.205-3.431-2.695-3.512c-0.49-0.082-6.616,2.042-6.861,2.532s-5.228,0.326-6.208,1.551c-0.98,1.226-2.042-1.143-2.042-1.143l-1.715,0.327,0.98,2.287,1.062,0.49-0.163,1.47s-1.389,3.921-2.124,8.985-3.839,10.37-7.27,10.94c-3.43,0.572-5.473-3.268-6.453-4.166s-0.571-2.288-0.571-2.288-3.757-5.717-3.921-5.717-0.245-1.144-0.245-1.144l-1.552-0.245-0.245,1.552s-7.27,1.551-9.066,3.349c-1.797,1.797-6.616,0.817-6.616,0.817l0.082-1.715-2.124-0.163-0.082,0.816,0.571,1.389-1.388,0.49s-4.411,5.881-6.453,9.475-5.146,8.086-5.146,8.086l-1.225,3.349-0.653,13.23s-0.245,5.554-0.898,6.779c-0.654,1.225-2.45,4.247-2.45,4.247s0.326,3.921,0.081,4.983-1.796,6.86-2.124,7.351c-0.325,0.491-3.756,4.656-3.878,6.086z"/><path d="m88.69,81.83,37.25-42.15,34.31,38.55-21.56,0.979s-26.47-2.287-32.67,0.98c-6.207,3.267-17.32,1.634-17.32,1.634z"/><path d="m214.1,60.03s23.52,1.961,27.2-0.245c3.676-2.205,31.37-59.79,31.37-59.79l-58.6,60.04z"/><polygon points="330.3,57.09,273.9,1.225,273.9,1.225,245.5,59.3" transform="translate(0,-5.22573e-6)"/><polygon points="344,19.11,342.8,18.87,317,40.92,317,40.92,329.8,53.17" transform="translate(0,-5.22573e-6)"/><path d="m346,19.6c-0.49,0.735-14.95,36.76-14.95,36.76s39.94-0.98,45.33-0.245c5.391,0.734,8.086-0.49,8.086-0.49l3.186-0.245-41.66-35.78z"/-->
</svg>
