<?xml version="1.0"?><svg width="1600" height="1200" xmlns="http://www.w3.org/2000/svg">
 <title>pink eiffel ooh-la-la</title>
 <metadata id="metadata3351">image/svg+xml</metadata>
 <g display="inline">
  <title>Layer 1</title>
  <g externalResourcesRequired="false" id="g3353">
   <path id="path3130" d="m677.163635,937.529541c0,0 6.837952,21.366394 2.564026,30.768311c-4.272339,9.405151 355.578979,5.129639 355.578979,5.129639c0,0 -1.711426,-23.933533 1.708252,-29.915771c3.4198,-5.982178 0.854126,-4.272339 0.854126,-4.272339l-360.705383,-1.709839z" fill="#000000"/>
   <path id="path3132" d="m716.479797,901.630005c0,0 66.671082,-182.916016 66.671082,-188.901367c0,-5.985413 8.547791,-5.128113 8.547791,-5.128113l-45.301514,194.883545l-29.917358,-0.854065z" fill="#000000"/>
   <polygon id="polygon3134" points="771.1817016601562,694.7803955078125 785.7133178710938,686.2310791015625 938.7134399414062,688.7966918945312 952.3893432617188,693.9246826171875 954.1007690429688,686.2310791015625 939.5707397460938,681.1045532226562 788.2789306640625,679.3946533203125 769.473388671875,683.6685791015625 771.1817016601562,694.7803955078125 " fill="#000000"/>
   <path id="path3136" d="m794.261108,669.992737l18.805481,2.562439l38.463562,-481.224243l-7.692017,5.129639c0,0 -14.531616,185.481598 -14.531616,193.173676c0,7.692108 -33.337158,277.792877 -35.04541,280.35849z" fill="#000000"/>
   <path id="path3138" d="m862.64679,125.087753l12.821716,0.854134c0,0 -2.5625,-63.251286 -3.4198,-69.235077c-0.854126,-5.982208 -4.270752,-3.418182 -4.270752,-3.418182l-5.131165,71.79911l0,0.000015z" fill="#000000"/>
   <path id="path3140" d="m845.551147,148.590286c-1.877197,1.747772 18.803955,-38.462006 45.301453,-5.982208l-0.216248,8.123123c0,0 -20.722168,-24.792458 -45.085205,-2.14093l0,0.000015z" fill="#000000"/>
   <path id="path3142" d="m838.495361,160.772583l0.427856,11.538116l10.470825,-8.974091l37.393127,0l1.283569,20.513794c0,0 7.052673,-11.111862 8.764099,-12.393845c1.708313,-1.283615 1.924622,-10.470856 1.924622,-10.470856l-8.334656,-8.118347l-42.952209,0.426285l-8.977234,7.478943z" fill="#000000"/>
   <path id="path3144" d="m865.207642,191.332489l6.837952,-1.711456c0,0 -5.128113,446.183594 12.821716,480.371704l-46.155701,0c0,0 40.173523,-470.113983 26.496033,-478.660248l0,-0.000031l0,0.000015l0,0.000015z" fill="#000000"/>
   <path id="path3146" d="m780.589966,902.48877l11.110291,0.852661c0,0 34.188049,-153.85437 33.33551,-152.14447c-0.854187,1.7099 -8.547729,-0.8526 -8.547729,-0.8526c0,0 -33.334045,150.434631 -35.898071,152.144409z" fill="#000000"/>
   <path id="path3148" d="m894.269287,753.762573c2.565552,0 8.547729,1.708252 8.547729,1.708252c0,0 48.721313,134.194763 51.286926,142.742554c2.562439,8.549377 2.562439,5.985291 2.562439,5.985291l-24.786133,0.854187l-37.610962,-151.290283z" fill="#000000"/>
   <path id="path3150" d="m939.573914,711.023438c0,2.5625 59.831543,191.465332 59.831543,191.465332l-12.821716,2.564087c0,0 -62.397156,-192.319519 -64.962769,-192.319519c-2.562378,0 17.952942,-1.7099 17.952942,-1.7099z" fill="#000000"/>
   <path id="path3152" d="m901.111938,669.994263l25.640259,0c0,0 -40.173462,-458.144806 -40.173462,-461.567688c0,-3.416641 12.821716,459.002075 14.533203,461.567688z" fill="#000000"/>
   <path id="path3154" d="m778.449036,697.344482c0,0 3.421387,3.847595 2.99353,5.983765c-0.429443,2.137756 159.411804,2.564026 159.411804,2.564026c0,0 1.708313,-4.701782 2.991882,-5.554321c1.282043,-0.855774 -165.397217,-2.993469 -165.397217,-2.993469z" fill="#000000"/>
   <path id="path3156" d="m679.299805,904.621826c1.280396,0 358.141357,2.565613 358.141357,2.565613c0,0 -3.419678,5.555908 -3.419678,8.974121c0,3.422852 -344.465576,-0.8526 -345.747559,1.711426c-1.283569,2.562439 -8.974121,-13.25116 -8.974121,-13.25116z" fill="#000000"/>
   <path id="path3158" d="m675.878479,976.850342c-0.424683,1.283691 -94.02124,137.188232 -94.02124,137.188232c0,0 10.684021,9.831421 11.966003,9.403564c1.282043,-0.427856 64.108582,-101.716492 67.100464,-102.142822c2.990356,-0.427856 21.795837,-35.901123 20.513855,-38.037231c-1.283569,-2.137756 -5.559082,-6.411743 -5.559082,-6.411743z" fill="#000000"/>
   <path id="path3160" d="m690.837952,1205.069458c0,-1.711426 23.505676,-75.646606 65.387451,-105.137695c41.881775,-29.487915 75.646667,-34.617676 79.492737,-35.040771c3.846069,-0.427856 39.747192,-0.429443 55.985474,2.98877c16.238342,3.421265 67.954712,32.910889 71.80072,38.03894c3.846008,5.128052 26.927063,37.607788 32.479797,45.72937c5.557495,8.119873 15.813599,39.74707 18.379211,56.841187c2.5625,17.094116 3.846069,25.215576 3.846069,25.215576c0,0 -7.265808,-62.824951 -1.711487,-65.818481c5.559143,-2.991821 13.251099,-5.982178 13.251099,-5.982178c0,0 -29.48938,-55.985474 -82.056702,-97.011597c-52.567322,-41.030823 -224.800842,-50.860596 -260.272522,139.750732l3.418152,0.426147z" fill="#000000"/>
   <path id="path3162" d="m1042.993896,985.396606c0,0 88.042236,132.48645 88.896362,135.052124c0.854126,2.563965 -19.661255,12.393799 -19.661255,12.393799l-73.933594,-146.163879l4.698486,-1.282043z" fill="#000000"/>
   <path id="path3164" d="m681.543335,1023.645508c-1.604126,2.246582 -10.898682,17.949707 -10.898682,17.949707l-8.975708,-14.102051l19.87439,-3.847656l0,0z" fill="#000000"/>
   <path id="path3166" d="m634.74353,1070.765869c0.961487,-0.320557 15.707764,0.320435 15.707764,0.320435l10.256104,-17.629272l-25.963867,17.308838z" fill="#000000"/>
   <path id="path3168" d="m628.653931,1079.098999l15.706238,1.283569l-11.860168,16.34729l-4.488647,-16.667847c0.001587,0 0.963074,-1.602417 0.642578,-0.963013z" fill="#000000"/>
   <polygon id="polygon3170" points="691.7994384765625,1067.8797607421875 703.0170593261719,1051.8546142578125 679.2998046875,1049.611083984375 691.7994384765625,1067.8797607421875 " fill="#000000"/>
   <polygon id="polygon3172" points="685.7098693847656,1042.2394409179688 708.7877197265625,1043.5198974609375 717.7633972167969,1027.1741943359375 685.7098693847656,1042.2394409179688 " fill="#000000"/>
   <polygon id="polygon3174" points="690.8379211425781,1021.4036254882812 677.0546875,1038.7122802734375 711.0296630859375,1023.9660034179688 690.8379211425781,1021.4036254882812 " fill="#000000"/>
   <polygon id="polygon3176" points="684.1057739257812,1083.5860595703125 672.5676574707031,1100.2569580078125 643.7207489013672,1100.896484375 684.1057739257812,1083.5860595703125 " fill="#000000"/>
   <polygon id="polygon3178" points="667.4396057128906,1108.590087890625 655.2588806152344,1125.57666015625 641.7961578369141,1107.9473876953125 667.4396057128906,1108.590087890625 " fill="#000000"/>
   <polygon id="polygon3180" points="633.7835693359375,1110.5130615234375 647.2447204589844,1128.462890625 608.1401214599609,1121.4085693359375 633.7835693359375,1110.5130615234375 " fill="#000000"/>
   <polygon id="polygon3182" points="620.3208312988281,1091.278076171875 604.2940979003906,1113.3961181640625 627.6924133300781,1101.85791015625 620.3208312988281,1091.278076171875 " fill="#000000"/>
   <polygon id="polygon3184" points="671.6061401367188,1054.7391357421875 659.4254150390625,1071.0863037109375 683.4663696289062,1071.0863037109375 671.6061401367188,1054.7391357421875 " fill="#000000"/>
   <path id="path3186" d="m796.452515,723.147339c1.12262,1.282043 5.611206,7.693665 5.611206,7.693665l1.761963,-13.781616l-7.373169,6.087952z" fill="#000000"/>
   <path id="path3188" d="m788.918335,712.409729l5.931702,7.532593l8.49408,-8.01416l-14.74469,-2.725098c0,0 -6.091187,24.359863 -5.609619,24.522522c0.481506,0.157837 14.904175,0.479919 14.904175,0.479919l-4.646484,-8.655151l-7.532654,3.206604l3.203491,-16.347229z" fill="#000000"/>
   <polygon id="polygon3190" points="812.4808349609375,710.9666748046875 826.7440795898438,711.9297485351562 818.7298583984375,719.9439086914062 812.4808349609375,710.9666748046875 " fill="#000000"/>
   <polygon id="polygon3192" points="817.2883911132812,724.9093627929688 808.1532897949219,733.7271118164062 821.2938842773438,733.7271118164062 817.2883911132812,724.9093627929688 " fill="#000000"/>
   <polygon id="polygon3194" points="807.8312072753906,714.8142700195312 806.2302551269531,730.2000122070312 814.5633239746094,723.1473388671875 807.8312072753906,714.8142700195312 " fill="#000000"/>
   <path id="path3196" d="m827.863403,716.737305c0,0.481506 -1.282043,13.142212 -1.282043,13.142212l-5.769043,-6.732178l7.051086,-6.410034z" fill="#000000"/>
   <polygon id="polygon3198" points="834.1156005859375,715.6163330078125 831.3905639648438,730.8410034179688 841.8092956542969,723.62890625 834.1156005859375,715.6163330078125 " fill="#000000"/>
   <polygon id="polygon3200" points="837.6411437988281,711.76708984375 856.3914184570312,712.250244140625 846.4542236328125,720.9022827148438 837.6411437988281,711.76708984375 " fill="#000000"/>
   <path id="path3202" d="m845.175354,725.070374c-0.641052,0.481567 -10.578125,8.494141 -10.578125,8.494141l20.19165,0.802063l-9.613525,-9.77301l0,0.476807z" fill="#000000"/>
   <polygon id="polygon3204" points="849.6624145507812,722.8268432617188 858.7959899902344,732.2825317382812 859.596435546875,713.852783203125 849.6624145507812,722.8268432617188 " fill="#000000"/>
   <polygon id="polygon3206" points="863.1219787597656,714.6548461914062 862.6435852050781,733.0845947265625 872.09765625,724.2698974609375 863.1219787597656,714.6548461914062 " fill="#000000"/>
   <polygon id="polygon3208" points="866.1691284179688,735.1670532226562 876.2642211914062,726.3524169921875 887.8055114746094,735.0091552734375 866.1691284179688,735.1670532226562 " fill="#000000"/>
   <polygon id="polygon3210" points="888.7654418945312,716.4152221679688 888.7654418945312,730.6815795898438 880.4323120117188,723.4678955078125 888.7654418945312,716.4152221679688 " fill="#000000"/>
   <polygon id="polygon3212" points="905.7552490234375,754.2393798828125 921.6209716796875,763.8544311523438 921.4614868164062,753.5999145507812 905.7552490234375,754.2393798828125 " fill="#000000"/>
   <polygon id="polygon3214" points="851.5301513671875,168.25466918945312 885.295166015625,168.03994750976562 869.6946716308594,187.27015686035156 851.5301513671875,168.25466918945312 " fill="#000000"/>
   <path id="path3216" d="m897.689026,175.091034c-0.640991,1.068848 -9.401978,15.385727 -9.401978,15.385727l1.067261,32.479813l2.349304,-20.299088l4.918091,-6.624786l1.067322,-20.941666z" fill="#000000"/>
   <path id="path3218" d="m839.778931,175.091034c0,0 8.974121,11.113403 8.546204,13.034851c-0.427856,1.923035 -5.980652,5.555923 -5.980652,5.555923l-3.20813,-0.855728l0.642578,-17.735046z" fill="#000000"/>
   <path id="path3220" d="m829.093323,801.411804c0.641052,0 63.46759,1.281982 63.46759,1.281982l14.313721,97.44104l14.53009,-0.213196l-28.419067,-106.844482l-64.318542,4.273865l0.426208,4.060791z" fill="#000000"/>
   <path id="path3222" d="m826.958801,797.564209c0,0.640991 -6.841125,82.912537 -15.813599,101.929565l-8.549438,0.21637l22.223694,-102.144348l2.139343,0l0,-0.001587z" fill="#000000"/>
   <polygon id="polygon3224" points="830.80322265625,768.504150390625 828.6670837402344,787.9490966796875 889.7822265625,789.2310791015625 891.7036437988281,770.6387329101562 889.9953308105469,770.4271240234375 887.2197570800781,783.6767578125 835.932861328125,783.46044921875 834.0082702636719,769.3567504882812 865.2076416015625,768.930419921875 877.3867797851562,769.1451416015625 830.5900573730469,764.6549682617188 830.80322265625,768.504150390625 " fill="#000000"/>
   <path id="path3226" d="m903.030212,759.956299c1.708313,0.641052 19.658081,10.897156 19.658081,10.897156c0,0 -11.323425,10.259277 -11.751282,10.898682c-0.429443,0.640991 -7.906799,-21.795837 -7.906799,-21.795837z" fill="#000000"/>
   <polygon id="polygon3228" points="910.507568359375,789.2310791015625 925.0407104492188,777.4782104492188 927.8163452148438,790.5131225585938 910.29443359375,790.5131225585938 910.507568359375,789.2310791015625 " fill="#000000"/>
   <polygon id="polygon3230" points="955.5975341796875,868.0308227539062 973.226806640625,881.0087890625 961.84814453125,886.2994995117188 955.5975341796875,868.0308227539062 " fill="#000000"/>
   <path id="path3232" d="m915.851929,795.748535c1.122559,0.318909 13.30011,0.318909 13.30011,0.318909l4.008667,12.341736l-17.308777,-12.660645z" fill="#000000"/>
   <path id="path3234" d="m798.377136,770.266113c0.161072,-0.481506 17.468201,-10.418701 17.468201,-10.418701l-4.807556,23.240417l-12.660645,-12.821716z" fill="#000000"/>
   <polygon id="polygon3236" points="800.298583984375,751.9974365234375 797.8939819335938,763.6950073242188 814.2428894042969,752.7979125976562 800.298583984375,751.9974365234375 " fill="#000000"/>
   <polygon id="polygon3238" points="794.3700561523438,753.5999145507812 779.306396484375,751.353271484375 791.1634521484375,763.6950073242188 794.3700561523438,753.5999145507812 " fill="#000000"/>
   <path id="path3240" d="m776.900269,759.847412c0.803589,0.640991 11.700684,9.77771 11.700684,9.77771l-16.828796,10.73761l5.128113,-20.51532z" fill="#000000"/>
   <polygon id="polygon3242" points="795.6504821777344,775.5536499023438 791.4839477539062,789.0179443359375 809.1132202148438,790.1405029296875 795.6504821777344,775.5536499023438 " fill="#000000"/>
   <polygon id="polygon3244" points="806.2302551269531,801.6785888671875 786.0369567871094,814.9803466796875 800.4596557617188,828.281982421875 806.2302551269531,801.6785888671875 " fill="#000000"/>
   <polygon id="polygon3246" points="796.93408203125,847.3543090820312 772.8931579589844,860.9765625 789.8814392089844,877.8053588867188 796.93408203125,847.3543090820312 " fill="#000000"/>
   <path id="path3248" d="m768.886047,868.34967c-0.479919,0.639465 -11.539673,31.252991 -11.539673,31.252991l24.200378,-13.464233l-12.660706,-17.788757z" fill="#000000"/>
   <polygon id="polygon3250" points="782.0298767089844,821.3919677734375 773.3746948242188,851.8413696289062 791.8060302734375,841.7447509765625 794.529541015625,832.129638671875 782.0298767089844,821.3919677734375 " fill="#000000"/>
   <path id="path3252" d="m787.79895,778.761841c-0.159424,0.481567 -2.725037,12.180725 -2.725037,12.180725l-16.028381,-2.245117l18.753418,-9.935608z" fill="#000000"/>
   <path id="path3254" d="m754.408142,1023.542908l-6.579041,-10.445618c-0.915649,-1.780945 -2.805542,-3.018738 -5.012756,-3.018738c-3.09613,0 -5.609558,2.415649 -5.609558,5.396484c0,1.117737 0.352051,2.155151 0.956726,3.015564c0.168945,0.238403 0.361572,0.457825 0.565247,0.667786l6.91687,9.511047l8.762512,-5.126526z" fill="#000000"/>
   <path id="path3256" d="m767.668823,1017.797424l-5.514893,-9.89447c-0.749939,-1.67511 -2.43457,-2.913025 -4.485474,-3.044006c-2.881409,-0.181641 -5.356995,1.870972 -5.529053,4.580261c-0.064758,1.01825 0.202026,1.981323 0.718323,2.800781c0.138916,0.22583 0.307922,0.437317 0.486267,0.637878l5.881226,9.0672l8.443604,-4.147644z" fill="#000000"/>
   <path id="path3258" d="m771.931641,1017.129639l10.363464,-3.204956c0,0 -4.272278,-12.071899 -9.722473,-8.868347c0,0 -5.664856,3.847534 -0.748352,11.860168c4.916504,8.012573 0.107361,0.213135 0.107361,0.213135z" fill="#000000"/>
   <path id="path3260" d="m719.684814,1042.880371c-0.012573,0.383667 8.227295,-5.129639 8.227295,-5.129639c0,0 -8.012573,-1.068848 -8.227295,5.129639z" fill="#000000"/>
   <path id="path3262" d="m731.758179,1035.399902c0.855774,-0.746826 8.868286,-5.447021 8.868286,-5.447021l-2.778687,-4.488525c0,0 -10.256165,-3.523987 -9.296204,5.448486l3.206604,4.487061z" fill="#000000"/>
   <path id="path3264" d="m786.036987,1012.75l10.788147,-1.924622l-0.427856,-2.993469c0,0 -7.265808,-6.195374 -10.68396,1.39093l0.323669,3.527161z" fill="#000000"/>
   <path id="path3266" d="m800.993286,1009.435974l10.685547,-1.924561c0,0 -5.450195,-5.233826 -10.685547,1.924561z" fill="#000000"/>
   <path id="path3268" d="m769.901245,792.437683c2.137756,0.641052 12.179138,2.5625 12.179138,2.5625l-2.991821,11.539673l-11.751282,-10.254517l2.563965,-3.847656z" fill="#000000"/>
   <path id="path3270" d="m766.91095,803.333252c-1.005676,3.015564 10.044556,10.900269 10.044556,10.900269l-14.531616,7.051086c0,0 4.701782,-18.59082 4.487061,-17.951355z" fill="#000000"/>
   <path id="path3272" d="m758.791016,834.532654c0.854187,0 12.821716,1.070374 12.821716,1.070374l3.206604,-14.316833l-16.02832,8.975647l0.213135,3.418213l10.685547,7.478943l-4.488647,13.247986l-9.187256,-14.315247l5.769104,26.925415l-16.451477,20.513794l13.459595,-52.998291z" fill="#000000"/>
   <polygon id="polygon3274" points="898.8636474609375,735.4890747070312 913.2894897460938,734.8465576171875 904.6327209472656,727.1544189453125 898.8636474609375,735.4890747070312 " fill="#000000"/>
   <polygon id="polygon3276" points="675.1332702636719,1014.3525390625 727.6990051269531,1015.9549560546875 752.3793640136719,978.1323852539062 722.8914489746094,1006.0194091796875 675.1332702636719,1014.3525390625 " fill="#000000"/>
   <path id="path3278" d="m918.734863,1010.185913l10.579773,3.20343c0,0 -0.320435,-11.858582 -10.579773,-3.20343z" fill="#000000"/>
   <path id="path3280" d="m996.304626,1031.340698c0.641052,1.282104 8.334656,15.704712 8.334656,15.704712l26.284546,-0.961548l-22.440063,-4.168091l-12.179138,-10.575073z" fill="#000000"/>
   <path id="path3282" d="m1010.408386,1054.739136c1.280396,1.924561 10.256104,16.347168 10.256104,16.347168l12.821716,-15.385742l-12.821716,6.411743l-10.256104,-7.373169z" fill="#000000"/>
   <path id="path3284" d="m1028.359619,1085.831055c0.96167,1.602539 10.897217,17.629395 10.897217,17.629395l14.743164,-0.320557l-12.818481,-4.809082l-12.821899,-12.499756z" fill="#000000"/>
   <path id="path3286" d="m933.481201,1015.632935l59.940491,32.056641c0,0 -49.043335,-41.34967 -54.171448,-41.030823c-5.128052,0.320557 -6.089539,7.052734 -6.089539,8.014282" fill="#000000"/>
   <polygon id="polygon3288" points="919.3759155273438,806.647216796875 934.4427490234375,816.5844116210938 925.1465454101562,827.47998046875 919.3759155273438,806.647216796875 " fill="#000000"/>
   <polygon id="polygon3290" points="937.005126953125,823.635498046875 927.712158203125,837.0982666015625 941.4954223632812,842.5467529296875 937.005126953125,823.635498046875 " fill="#000000"/>
   <polygon id="polygon3292" points="939.5707397460938,862.7384643554688 952.714599609375,877.8053588867188 945.982421875,884.2153930664062 939.5707397460938,862.7384643554688 " fill="#000000"/>
   <polygon id="polygon3294" points="929.9525146484375,726.8339233398438 924.1834106445312,734.2070922851562 933.8016967773438,735.1670532226562 929.9525146484375,726.8339233398438 " fill="#000000"/>
   <path id="path3296" d="m810.39679,658.241455c2.243591,1.921448 8.975647,8.012573 8.975647,8.012573l17.627747,-18.590759l-8.331482,-11.858643l-18.59082,13.781616l0.318909,8.655212z" fill="#000000"/>
   <path id="path3298" d="m815.204346,621.378784c0.961548,1.602539 7.693665,13.142212 7.693665,13.142212l-11.860229,8.012634l4.166565,-21.154846z" fill="#000000"/>
   <path id="path3300" d="m814.563354,604.070068c0.961487,1.922974 12.180725,17.629211 12.180725,17.629211l14.743164,-15.065186l-10.897156,-16.026794l-16.026733,13.462769z" fill="#000000"/>
   <polygon id="polygon3302" points="816.4864196777344,596.6968383789062 826.1030578613281,585.7997436523438 816.4864196777344,573.3001098632812 816.4864196777344,596.6968383789062 " fill="#000000"/>
   <polygon id="polygon3304" points="817.4479370117188,559.1964111328125 832.5131225585938,548.6182250976562 820.6529235839844,534.1939392089844 817.4479370117188,559.1964111328125 " fill="#000000"/>
   <polygon id="polygon3306" points="822.8964233398438,500.85845947265625 819.3724670410156,522.9747619628906 836.3607177734375,511.4366760253906 822.8964233398438,500.85845947265625 " fill="#000000"/>
   <polygon id="polygon3308" points="823.5374450683594,488.677734375 839.8847045898438,475.537109375 826.4235534667969,461.75384521484375 822.8964233398438,490.2818298339844 823.5374450683594,488.677734375 " fill="#000000"/>
   <polygon id="polygon3310" points="827.0645141601562,453.1002197265625 827.3850402832031,454.701171875 844.3733215332031,441.560546875 828.6670837402344,427.7773132324219 827.0645141601562,453.1002197265625 " fill="#000000"/>
   <polygon id="polygon3312" points="832.1942138671875,393.48028564453125 829.3080749511719,421.0467224121094 844.3733215332031,410.1480407714844 832.1942138671875,393.48028564453125 " fill="#000000"/>
   <polygon id="polygon3314" points="833.4746398925781,389.9531555175781 846.2979125976562,379.0560302734375 834.1156005859375,366.87689208984375 833.4746398925781,389.9531555175781 " fill="#000000"/>
   <polygon id="polygon3316" points="835.7181396484375,361.7472839355469 848.2177734375,353.0936584472656 836.6796875,340.2719421386719 835.7181396484375,361.7472839355469 " fill="#000000"/>
   <polygon id="polygon3318" points="837.3206481933594,336.4259033203125 849.8218688964844,326.49029541015625 838.6026916503906,313.34649658203125 837.3206481933594,336.4259033203125 " fill="#000000"/>
   <polygon id="polygon3320" points="839.2436828613281,310.782470703125 849.8218688964844,303.73138427734375 840.84619140625,290.90966796875 839.2436828613281,310.782470703125 " fill="#000000"/>
   <polygon id="polygon3322" points="841.8092956542969,287.3841247558594 852.0654296875,279.37152099609375 843.7322998046875,271.6778564453125 841.8092956542969,287.3841247558594 " fill="#000000"/>
   <path id="path3324" d="m843.411804,266.8703l8.975708,-6.732147c0,0 -6.733765,-10.256134 -6.733765,-8.975693c-0.001587,1.2836 -2.241943,15.70784 -2.241943,15.70784z" fill="#000000"/>
   <polygon id="polygon3326" points="844.3733215332031,246.03598022460938 854.3105163574219,240.90792846679688 845.6521606445312,230.9707489013672 844.3733215332031,246.03598022460938 " fill="#000000"/>
   <polygon id="polygon3328" points="847.2562561035156,229.046142578125 855.2704467773438,222.95657348632812 847.2562561035156,214.302978515625 847.2562561035156,229.046142578125 " fill="#000000"/>
   <polygon id="polygon3330" points="849.180908203125,210.77743530273438 854.949951171875,207.25189208984375 850.7817993164062,200.19924926757812 849.180908203125,210.77743530273438 " fill="#000000"/>
   <path id="path3332" d="m825.032593,573.407471c1.283569,0.854187 5.557495,9.828247 5.557495,9.828247l13.675903,-15.813599l-11.539734,-0.854187l-6.837952,-8.975647l-0.855713,15.815186z" fill="#000000"/>
   <polygon id="polygon3334" points="827.5966186523438,534.0866088867188 835.2886962890625,543.4901123046875 845.5479431152344,534.5160522460938 836.9985961914062,533.6603393554688 829.7343444824219,522.1206359863281 826.7440795898438,522.9747619628906 827.5966186523438,534.0866088867188 " fill="#000000"/>
   <polygon id="polygon3336" points="830.1622009277344,498.61492919921875 839.1363525390625,507.1611633300781 847.6856994628906,497.3329162597656 837.4264526367188,496.4803161621094 834.4361267089844,484.51116943359375 830.1622009277344,487.0767822265625 830.1622009277344,498.61492919921875 " fill="#000000"/>
   <polygon id="polygon3338" points="833.5804138183594,461.8612060546875 843.8381042480469,472.118896484375 849.8218688964844,468.69757080078125 841.2740478515625,462.7153625488281 847.6856994628906,446.047607421875 833.1525573730469,456.733154296875 833.5804138183594,461.8612060546875 " fill="#000000"/>
   <polygon id="polygon3340" points="845.9774169921875,437.5013732910156 835.2918701171875,429.8077087402344 835.7181396484375,423.82391357421875 848.5414733886719,413.1415100097656 844.2659606933594,424.2518005371094 845.9774169921875,437.5013732910156 " fill="#000000"/>
   <path id="path3346" d="m1073.819092,1166.60437c-221.984131,-367.958679 -438.742432,-0.011108 -435.546875,-3.846069c222.208435,-266.856384 361.704773,-84.042969 410.238159,3.846069l25.308716,0z" fill="#000000"/>
  </g>
 </g>
</svg>