<!-- Generator: Adobe Illustrator 12.0.1, SVG Export Plug-In . SVG Version: 6.00 Build 51448)  -->
<svg xmlns:rdf="http://www.w3.org/1999/02/22-rdf-syntax-ns#" xmlns="http://www.w3.org/2000/svg" xml:space="preserve" overflow="visible" height="700" viewBox="0 0 207.199 700" width="207.2" version="1.1" enable-background="new 0 0 207.199 700" xmlns:cc="http://creativecommons.org/ns#" xmlns:dc="http://purl.org/dc/elements/1.1/"><metadata><rdf:RDF><cc:Work rdf:about=""><dc:format>image/svg+xml</dc:format><dc:type rdf:resource="http://purl.org/dc/dcmitype/StillImage"/><dc:title/></cc:Work></rdf:RDF></metadata><defs>
</defs>
<path fill-rule="evenodd" d="M113.8,3.419E-8c11.7,14.54,44,16.72,43,41.98-3.501,17.58-3.664,25.3,15.55,28.68,24.16,8.213,13.08,42.14,9.675,53.91-4.893,17.32-10.19,42.27,15.27,42.25,18.15,6.914,2.809,25.7,5.526,39.36-2.663,22.87,3.836,41.81-1.928,63.97-2.874,22.26,4.442,42.17-1.906,63.05-2.826,21.76,4.472,41.09-1.307,60.59-0.906,19.55-1.81,41.19,2.887,56.33-2.903,19.57-10.73,46.89-1.114,65.51-5.788,17.38-4.609,40.91-5.858,61.09,7.709,13.42-6.559,30.61,2.074,44.89-7.919,19.82-4.282,46.98-5.838,69.6-11.51,8.593-40.79,6.827-61.33,6.235-11.28-0.0882-19.58,7.553-11.94-2.631-7.658-19.79,11.46-55.52-4.891-64.81,0.2894,21.78-5.539,56.63-2.86,70-12.84-5.395-26.95,0.5546-40.31-0.7101-16.34-9.929-41.5-0.5684-58.3-10.05-24.43-1.5-0.842-38.2-7.437-54.9-2.831-20.4,3.24-25.7,3.428-46.8-1.678-18.3,8.369-43.1,5.099-65.2-5.126-19.89,8.341-42,4.21-65.75-4.454-19.38,5.186-31.05,4.215-52.35,2.017-19.95-2.382-33.95,3.271-50.62,7.073-21.79-3.61-44.2,6.274-63.7,3.666-22.94-3.97-46.76,5.239-67.24,8.087-20.21-7.575-48.17,6.67-62.39,33.81,0.2786,19.68-43.83,20.31-64.49-1.06-23.39,16.97-34.41,35.95-33.55,23.89,3.65,13.09-27.46,15.99-47.02,0.1-5.08,0.2-10.16,0.2-15.24zm-61.61,381.5c1.023,16.92,12.61-14.93,17.5,6.301,4.578-8.609,23.03-7.606,2.8-7.702,11.92-6.805,15.97,7.403,12.22,4.927-0.2794,8.053,19.78-8.982,16.6-4.761-25.12-0.5165,9.24-5.435,5.047,8.313,5.316-10.49,15.64-4.706,20.03,1.321,9.191-19.21,16.2,13.87,22.57-5.136,9.824,1.382,8.709,14.42,16.69,2.335,5.284,1.228,6.586,15.85,9.74,1.4,11.96-6.629,1.93,12.07,10.42,4.119,4.246-5.202,11.69,20.4,7.38-1.095-21.03-15.94-53.91-12.65-80.15-15.53-22.26-1.665-62.44-3.681-74,3.074,1.248,17.79-0.09505-5.79,13.15,2.436zm63.71-329c2.911-10.31,1.592-47.99-0.6037-39.82,0.0997,13.27-0.8691,26.59,0.6037,39.82zm19.6-29.4c13.14,14.13-6.649,5.015-5.822,6.133-8.827,2.436,19.97,7.669,6.521,15.57,13.52,8.603,5.098-0.4258,11.36-5,14.34,5.149-1.804-4.583-5.005-8.875,4.329-4.845-2.035-7.747-7.058-7.825zm-20.3,37.1c6.219-5.607,41.45,10.76,29.26-4.931-11.82-8.537-30.49-17.53-29.26,4.931zm-11.2,2.1zm13.3,4.2c21.41,5.727,8.572-12.53,0-1.98v1.46,0.5199zm-25.9-2.1zm39.9,2.8c14.95,5.113,15.11-7.136-0.001-4.9l0.001,4.9zm13.3,1.4c15.64,3.706,10.99-2.716,5.609-2.109-1.21-4.211-7.867-3.715-5.609,2.109zm-63.7-1.4zm76.3,4.2c17.9,10.19,4.419-11.6,0-1.98v1.46,0.5199zm-53.9-0.7zm14-1.4zm-43.4,1.4zm17.5,1.4zm39.2-2.1zm25.2,4.2zm11.2,0.7zm-97.3,3.5zm11.9-3.5zm104.3,16.1c-26.3-21.27-64-22.41-96-16.69-12.31,2.28-32.06,14.45-9.39,3.8,34.09-9.45,75.39-7.06,105.4,12.89zm-20.3-14.7zm-91,0.7zm100.8,2.1zm-61.6,1.4zm5.6,0zm5.6,0.7zm49-1.4zm-67.2,1.4zm23.1,0zm-27.3,0.7zm32.2,0zm-38.5,0.7zm47.6,0.7zm40.6,2.8zm-56.7,5.6c-2.088-13.02-26.8,4.627-8.714-6.7,13.76-0.6355,5.911,16.78,20.09,5.592,10.71,3.494,5.844,13.25,18.84,4.67,9.998-3.232-19.05,2.505,0.2939-3.214,9.679,5.703,3.773,18.36,13.59,5.251,8.242,4.717-2.554,23.11,9.099,4.9-25.1-22.9-64-23.89-95.28-15.39-10.15-2.3-25.34,20.69-16.76,15.49,0.64-13.38,12.09-2.59,13.19-12.5,8.682-1.382,18.66,15.48,13.53,2.371,9.484-8.343,16.14,7.684,23.91-3.98,2.866-0.224,6.881,0.4777,8.202,3.506zm-50.4-2.8zm84.7-0.7zm-89.6,3.5zm-4.2,2.8zm13.3-2.1zm28,4.2c-1.584,18.24-5.554,40.24-2.1,56.7,3.697-15.99,5.382-42.61,2.1-56.7zm-30.11,7.7c-2.731,12.26,2.322,30.88,4.2,8.4,18.26-19.02,18.12,18.66,21.99,12.92,8.543-17.22-18.25-22.28-19.97-18.92,10.97-9.883,26.36,13.91,21.09-8.003-9.08,2-18.3,3.3-27.31,5.6zm32.9,17.5c12.36,2.791,13.5-2.774,0.699-2.8,1.008-9.224,0.3845-29.41-0.468-8.518-0.3016,3.761-0.4857,7.547-0.231,11.32zm15.4-23.1c-0.2414,15.2-8.846,45.36,0.393,53.86,0.995-16.91,5.589-40.25-0.393-53.86zm42.7,1.4zm-52.5,0.7zm15.4,22.4c4.907-22.18,25.32-5.719,28,5.6,3.176-16.08-17.64-28.6-28.7-15.4,6.478-16.42,29.16,0.242,29.4,3.153,5.874-16.47-44.91-25.56-28.7,6.647zm-58.11-18.2c0.3628,14.39-5.797,41.86,0.3343,47.21,0.24-10.7,5.94-47.6-0.33-47.2zm88.9,2.8c2.191,12.64-8.618,47.86,1.61,48.39-1.855-12.99,6.504-44.1-1.61-48.39zm-98.7,2.8c0.275,9.409-5.864,49.63,0.2594,39.66,1.714-11.32,4.408-37.59-0.2594-39.66zm49,7.7c17.4,2.686-3.261-0.2075,2.041-8.4-5.108-1.478-0.3,6.532-2.041,8.4zm60.9-4.2c0.9029,11.53-4.285,47.11,0.2594,40.77-0.4465-8.457,5.515-43.16-0.2594-40.77zm-7,8.4zm-98,2.8zm18.9,0.7zm-5.6-0.7zm52.5,1.4zm9.101,7zm4.899-4.9zm-38.5,0zm57.4,0zm-38.5,1.4zm-61.6-1.4zm9.1-2.1zm4.9,5.6zm67.2-2.1zm7.701,6.3zm-56,0.7zm9.799,0zm56-2.8zm-35.7,4.2zm-63.7-1.4zm9.8,4.2zm4.9,0zm5.6-5.6c-1.562,16.51,26.44-1.938,3.056-0.6292l-3.056,0.6292zm79.1,4.2zm-99.4-1.4zm88.9,18.2c9.89-2.14-0.5838-35.47-0.6948-8.757l-0.2476,5.108,0.9423,3.649zm-7.699-17.5c-5.065,16.31,8.271,24.89,6.307,3.508,3.921-7.72-3.616-4.402-6.307-3.508zm-46.9,14c6.886-11.08-3.499-21.47-1.322-2.656l1.322,2.656zm8.4,0c21.84,9.899,10.25-29-0.00042-11.02,0.00042,3.675,0.00042,7.35,0.00042,11.02zm21.7,1.4c3.588-16.42-5.726-18.18-1.702-0.808l1.702,0.808zm9.101-7zm24.5,11.2c15.43,4.558,0.6655-34.94,0.7814-9.018l-0.212,4.688-0.5693,4.33zm-88.91-15.4c-3.494,16.01,9.289,8.626,1.763-0.6868l-1.76,0.7zm4.9,10.5zm7.7-0.7zm7,0zm35.7,2.1c-30.68-0.9122-64.29-5.752-92.69,8.556-10.67,9.221,22.29-8.594,30.21-4.49,45.35-2.149,93.07-2.301,135.3,16.23-19.67-16.88-48.22-18.09-72.8-20.3zm-64.4,30.8c5.853-17.57,14.73,7.818,19.87-6.169,11.12,1.241,9.512,12.28,17.93,0.1353,23.53,0.8569-21.08-1.927,5.034-2.451,9.601,8.458,1.461,11.99,15.09,3.116,9.609-2.348-17.4,1.716-0.1878-2.804,13.33,4.623,2.544,14.85,18.55,3.807,7.431,12.97,6.757,3.955,16.91,1.665,4.228,13.71,13.52-3.944,19.51,9.7,3.735-13.82,7.411-3.527,9.221,0.7,6.618-16.93,11.02,20.08,9.68,16.68,8.296-29.62-25.57-31.71-47.4-33.15-33.76-0.8276-68.48-8.099-101.7,0.3739,6.059,1.238,3.86,14.17,5.859,1.292,3.915-9.398,21,8.7,3.775-1.838-3.393,2.123,8.629,0.4463,7.867,8.945zm-14.7-6.3c-11.03-6.764-10.57,16.2-4.025-0.5625,1.399-0.1913,2.661,1.488,4.025,0.5625zm-10.5,9.1zm9.8,0.7zm13.3,0zm13.3,0zm16.8,0zm18.2,1.4c11.85,1.784,2.178-6.828,0-1.34v1.34zm16.8-1.4zm16.8,3.5zm-105,34.3c4.676-10.32,2.051-55.12-0.2831-22.4-0.608,7.419-1.662,15.08,0.2831,22.4zm10.5-34.3c-2.703,13.19-1.081,48.34,1.669,16.02-0.272-1.874,1.326-25.48-1.669-16.02zm13.3-2.1c-3.427,11.52-0.3252,51.68,2.1,19.6-1.05-4.426,5.221-19.24-2.1-19.6zm14,2.1c-3.739,13.29-0.1171,44.88,2.728,14.28,1.239-0.7974-1.157-23.9-2.728-14.28zm-43.4,35.7c3.129-10.42,1.997-53.77,0.4024-23.13-0.5286,7.69-1.048,15.43-0.4024,23.13zm59.5-35c-3.134,13.47,0.3184,43.32,3.305,13.81,1.307-1.808-0.8412-23-3.305-13.81zm18.2,0c-1.544,11.85-0.439,45.55,3.287,15.54-0.5441-2.864,2.263-24.85-3.287-15.54zm48.3,0.7zm-30.8-1.4c-4.162,12.51,1.459,48.09,2.101,16.1-2.033-3.794,5.904-18.39-2.101-16.1zm43.4,3.5zm-27.3,0c-2.498,9.251-0.5839,46.12,3.531,18.67-0.1992-3.847,3.445-28.91-3.531-18.67zm37.8,0.7zm-23.1,0.7c-1.614,9.521-0.6961,46.15,3.687,19-0.7483-4.174,4.157-30.02-3.687-19zm13.3,2.1c-1.891,9.668-1.095,46.81,2.684,18.41,1.256-1.245,0.5548-28.95-2.684-18.41zm10.5,0.7c-2.713,10.5-0.2248,49.72,3.129,20.02-0.6442-3.855,4.23-30.43-3.129-20.02zm8.399,1.4c-1.981,10.47-1.295,51.59,1.463,20.61,0.0457-2.274,2.622-29.13-1.463-20.61zm-95.2,21c23.23,10.98,9.429-38.36,2.111-9.987-0.642,3.339-0.9369,6.769-2.111,9.987zm18.2,0.7c22.48,11.25,5.525-39.8,0.6029-9.635-0.3376,3.203-0.364,6.425-0.6029,9.635zm-35-0.7c21.29,7.703,7.039-36.66,0.493-6.704l-0.3975,3.318-0.09547,3.386zm51.8,1.4c15.91,7.855,8.972-35.05,0.8455-9.654-0.4834,3.199-0.5192,6.439-0.8455,9.654zm-65.81-0.7c17.21,4.933,2.385-29.65,0.6285-4.621l-0.63,4.6zm85.4-14c-2.805,18.45,9.648,23.68,5.787,2.603-0.406-2.529-3.566-4.078-5.787-2.603zm46.2,9.1c0.9051-9.467-1.583-8.719-0.6509-0.348l0.6509,0.348zm-144.9,5.6zm142.8-9.1c-2.494,7.222-0.2926,34.77-0.3964,11.33l0.5259-5.575-0.1295-5.752zm-30.1,2.8zm4.9,13.3c-43.63-6.564-89.31-12.79-132.8-2.367-26.03,14.59,16.27-4.181,27.36-0.7281,45.43-1.62,93.1-1.196,135.5,17.1-5.914-10.51-19.56-11.59-30.1-14zm26.6,3.5zm-16.8,17.5c3.211,3.075,2.842,17.12,6.999,4.2,4.164,7.1,9.722,14.31,5.6-0.7-22.15-13.27-50.37-8.591-75.24-12.75-24.81-1.423-50.08-2.96-74.56,2.252,4.567,4.492,3.748,12.59,5.15,1.594,1.654-9.933,22.4,8.381,4.532-2.015-2.067-3.547,10.92,18.7,10.62,3.221,9.419-5.64,11.64,13.2,17.27-0.4143,11.74,2.174,9.507,12.61,18.21,0.2088,24.81,0.4785-20.11-0.259,2.502-3.053,11.8,4.238,5.227,15.18,16.49,4.12,21.78,1.828-21.67-2.503,4.523-2.343,7.926,9.406,0.9902,10.8,15.28,3.536,7.722,5.188,6.997,11.11,14.28,0.7393,7.729,1.455,7.904,14.46,14.4,2.082,8.983,12.82,7.56,4.015,13.96-0.6754zm-135.8-4.2c-10.4-5.844-9.851,13.89-3.965-0.2772l2.935-0.1626,1.03,0.4398zm-9.8,8.4zm9.8,0.7zm13.3,0.7zm14,0zm-42,0.7zm58.8,0zm18.9-0.7zm16.8,2.1zm-90.3,35.7c6.557-10.55,1.088-56.4,0.06033-22.5-0.4005,7.472-1.336,15.06-0.06033,22.5zm107.8-34.3zm-114.1,35c4.352-9.935,2.933-55.31,1.278-23.22-0.3669,7.743-0.654,15.49-1.278,23.22zm16.8-2.1c4.037-10.1,2.11-54.17-0.1561-21.4-0.4948,7.089-1.499,14.38,0.1561,21.4zm14-35c-3.704,10.86,0.7289,50.84,2.336,20.12-0.3529-5.383,4.566-18.61-2.336-20.12zm14,2.1c-1.224,9.328-2.027,45.42,2.737,18.9,1.548-1.305,0.4948-29.49-2.737-18.9zm16.8,0.7c-2.058,8.741-1.607,44.81,3.015,19.03-1.277-3.52,3.912-29.83-3.015-19.03zm18.9,0c-1.144,9.455-2.096,46.04,2.86,19.03,1.291-2.021,0.7586-28.6-2.86-19.03zm49-0.7zm-32.2,32.2c8.436-1.281,1.497-52.97-0.1492-19.64-0.4737,6.503-1.507,13.22,0.1492,19.64zm45.5-28zm-28-0.7c-2.702,9.547-0.3998,46.91,3.422,19-0.3202-3.5,3.612-29.83-3.422-19zm38.5,0.7zm-23.1,0c-2.507,10.08-0.5048,49.33,3.397,19.57,0.4109-2.614,2.194-30.57-3.397-19.57zm35.7,2.8zm-22.4-2.1c-2.344,10.43-1.081,50.83,2.47,20.74-0.5322-4.73,3.794-20-2.47-20.74zm9.801,35c10.04-2.836,2.133-57.47,0.0384-20.77-0.42,6.884-1.444,13.93-0.0384,20.77zm9.1-30.8c-0.7106,9.671-2.453,50.23,1.826,21.42-0.0704-3.087,2.28-28.72-1.826-21.42zm-97.3,21.7c24.05,11.6,10.17-39.72,2.343-10.29-0.6974,3.443-1.046,6.99-2.343,10.29zm18.9,1.4c22.88,8.4,5.24-39.99,0.424-10.86-0.3607,3.611-0.2885,7.243-0.424,10.86zm-24.51-19.6c-19.5-2.02-7.223,32.23-0.7961,13.38,0.1138-4.47,0.7922-8.904,0.7961-13.38zm105.7,25.9c2.344-10.31,0.8439-36.37,0.2786-12.67-0.3094,4.214-0.5398,8.447-0.2786,12.67zm-63.7-5.6c15.19,6.658,9.419-35.2,0.486-11.39-0.8202,3.733-0.8561,7.597-0.486,11.39zm-67.2-1.4c16.32,4.05,2.896-30.19,0.1063-5.494l-0.12,5.5zm86.8-13.3c-2.47,11.72,7.171,26.74,6.698,7.174,0.3976-3.975-1.111-10.98-6.698-7.174zm-100.8,14zm147.7-6.3c-2.222,4.155-0.6221,26.56,0.1386,3.572l-0.1-3.6zm-27.3,11.9zm11.2,2.8c-46.6-8.419-94.81-11.48-141.9-6.112-14.04,3.041-22.11,11.52-3.163,4.255,45.7-7.039,92.8-3.587,138.2,4.425,13.3,3.719,37.64,11.53,12.41-0.9764l-5.495-1.591zm-4.901,20.3c9.43-5.478,2.458,14.81,12.89,2.515,10.03,21.92,2.744-15.33-14.53-8.951-44.7-4-90.31-11.8-134.9-3.3,4.497,15.18,3.205-1.944,14.15,2.312,2.127,18.4,11.64-13.6,19.45,6.788,7.704-18.01,15.35,11.49,23.5-5.995,25.06,1.174-20.01-1.481,2.679-3.441,11.68,5.422,5.192,15.7,16.1,4.022,22.78,1.919-20.55-1.77,4.087-2.546,11.01,4.773-1.646,15.78,12.92,4.333,10.49-2.262,10.13,16.03,16.97,0.6998,9.43,0.0803,8.09,15.37,15.44,2.226,8.528-1.12,4.514,18.1,11.2,1.4zm-135.1-7.7c-12.32-3.469-10.82,14.95-2.59,0.1291l2.59-0.1zm-10.5,9.8zm10.5,0zm13.3,0zm14,0.7zm-40.6-0.7zm58.1,2.1c11.85,1.784,2.178-6.828,0-1.34v1.34zm18.9,0zm17.5,1.4zm-91.71,0.7c-0.9888,10.43-1.877,49.94,2.098,20.02,0.9-1.9,1.68-29.7-2.1-20zm9.1,32.9c7.607-7.824,1.567-53.78,1.097-21.65-0.4906,7.209-1.235,14.42-1.097,21.65zm14.7-0.701c9.257-6.684,0.7038-54.38-0.0715-20.88-0.5159,6.909-1.636,14.04,0.0715,20.88zm15.4,0c6.864-9.695,0.4512-53.32-0.4992-20.87-0.6647,6.894-1.978,14.16,0.4992,20.87zm70-32.9zm-115.5,35c4.662-9.617,2.403-55.04,0.8125-22.38-0.394,7.453-0.794,14.91-0.8125,22.38zm62.3-2.101c8.082-8.739,1.353-52.73-0.515-20.45-0.6342,6.751-1.915,13.88,0.515,20.45zm69.3-30.8zm-50.4,31.5c9.025-7.232,0.775-53.21-0.1007-20.47-0.5525,6.772-1.721,13.78,0.1007,20.47zm17.5,0.699c9.154-7.479,1.442-52.95-0.1443-20.51-0.4182,6.799-1.317,13.77,0.1443,20.51zm46.2-29.4zm-30.1,30.8c13.44-1.217,1.746-56.64,1.275-20.6-0.2819,6.875-0.8582,13.73-1.275,20.6zm41.3-30.1zm-23.8-2.1c-3.637,9.9-0.0994,52.46,3.38,21.93-2.227-5.282,6.036-24.02-3.38-21.93zm36.4,4.2zm-22.4-1.4c-3.569,9.617-0.2254,50.81,2.494,20.32-0.9032-5.15,3.631-18.97-2.494-20.32zm10.5,2.8c-3.834,12.46,1.686,47.64,2.801,17.5,0.00051-3.587,4.291-27.82-2.801-17.5zm8.4,1.4c-1.497,9.913-1.42,48.21,1.88,20.16,0.2572-2.332,2.16-28.51-1.88-20.16zm4.9,0.7c-2.767,12.75-2.904,48.24-0.8178,17.03,0.2019-5.68,0.1783-11.38,0.8178-17.03zm-92.4,0.7c-18.95,1.392-8.107,36.56,1.276,15.99,0.4635-5.314,1.421-11.06-1.276-15.99zm7,21.7c24.13,12.02,5.601-41.65,0.9275-10.62-0.3191,3.54-0.3023,7.113-0.9275,10.62zm-36.41-1.4c20.91,10.92,10.75-36.3,1.558-10.27-0.9576,3.34-1.363,6.808-1.558,10.27zm54.6,2.1c14.98,7.102,9.675-35.51,0.4816-11.36-0.8816,3.712-0.972,7.584-0.4816,11.36zm67.2,5.6c2.275-8.247,0.8791-33.68,0.231-11.32-0.3016,3.761-0.4857,7.548-0.231,11.32zm-136.5-7c18.06,7.051,4.095-31.14,0.77-5.005l-0.77,5.005zm88.9-13.3c-0.7616,9.524,7.071,26.92,7,8.74,0.8783-4.601-0.1312-14.19-7-8.74zm-102.2,13.3zm118.3,5.601c11.92,1.271-3.395-24.04-0.2301-4.303l0.2301,4.303zm-75.61-4.2c-23.02,0.8865-49.28-5.533-70,7,47.99-9.132,97.17-2.21,145.4,1.12,11.55,0.5864,51.83,12.15,22.11,1.448-31.72-8.549-64.97-7.86-97.51-9.568zm-50.4,19.6c-9.491-12.83-13.17,18.11-5.567-1.138l2.715-0.6808,2.853,1.819zm-11.2,8.4zm10.5,0.701zm14,0zm14,0zm-41.3-1.4zm65.1,0.699zm13.3,2.1zm18.2,0.701zm-93.81,37.8c5.733-10.73,1.639-58.33-0.2552-23.69-0.6585,7.842-1.771,15.94,0.2552,23.69zm10.5-0.7c5.079-10.77,1.624-57.39-0.06052-23.05-0.5074,7.647-1.555,15.46,0.06052,23.05zm14-0.699c7.887-7.024,2.828-60.37-0.07256-22.63-0.5191,7.499-1.59,15.19,0.07256,22.63zm14.7,0c9.299-8.139,0.5314-58.53,0.1502-22.41-0.5608,7.423-1.876,15.04-0.1502,22.41zm72.81-35.7zm-119,37.8c5.018-10.29,2.645-57.51,1.402-23.97-0.4028,7.994-0.8478,15.99-1.402,23.97zm64.4-36.4c-2.03,10.73-1.072,52.69,2.759,21.12,0.0013-2.541,3.176-32.35-2.759-21.12zm76.3,1.401zm-56.7-0.701c-1.974,10.94-1.406,51.02,2.543,21.34,1.166-2.093,1.463-31.05-2.543-21.34zm17.5,0.701c-1.199,10.13-2.266,51.33,3.263,22.06-0.0712-2.562,2.469-33.38-3.263-22.06zm46.9,2.099c12.54,2.652-1.02-8.206,0-0.5799v0.5799zm-29.4,34.3c11.38-9.236,0.5744-58.85-0.2135-22.33-0.5286,7.396-1.899,15.05,0.2135,22.33zm40.6-33.6zm-24.5,0c-2.578,11.58,0.016,54.62,3.77,21.43,0.199-3.456,3.566-32.58-3.77-21.43zm33.6,1.4zm-19.6,1.4c-2.324,9.944-1.058,51.56,3.076,21.28-1.034-3.434,4.282-32.51-3.076-21.28zm9.8,35.7c11.91-3.346,2.574-61.51,0.628-22.9-0.473,7.619-1.055,15.26-0.628,22.9zm10.5-33.6c-1.944,9.92-3.172,51.05,1.669,22.13-0.2477-2.601,2.245-30.19-1.669-22.13zm2.8,35.7c1.326-10.43,1.777-51.88,0.4036-21.81-0.5644,7.243-1.538,14.57-0.4036,21.81zm-104.3-9.8c17.48,8.096,18.37-20.82,8.427-24.18-8.319,4.614-6.13,16.37-8.427,24.18zm18.9,0.7c25.7,11,5.176-47.63,0.935-11.93-0.2605,3.978-0.195,7.992-0.935,11.93zm-37.1-1.399c22.98,9.818,10.39-42,1.506-11.9-0.8633,3.912-1.186,7.913-1.506,11.9zm55.3,2.1c16.68,7.597,9.316-41.31,0.8406-12.87-0.8128,4.236-1.025,8.571-0.8406,12.87zm69.3-0.701c2.532-12.95,0.1319-27.14-0.0834-5.158l0.0834,5.158zm-139.3-1.4c19.78,5.771,2.724-36.16,0.7505-5.725l-0.75,5.7zm91.01,4.2c17.37,5.305-1.42-41.58,0.8936-11.63-0.3276,3.876-0.9348,7.729-0.8936,11.63zm-105.7-3.5c13.16,4.125,6.271-23.93,0.9089-3.641l-0.9089,3.641zm119,4.901c17.38,5.084-1.912-30.44,2.484-3.078l-0.6642,1.902-1.82,1.176zm7,2.099c-48.93-5.319-98.93-11.76-147.8-3.599-6.32,6.592,25.18-2.922,34.77-0.7155,45.87,0.5114,92.18,2.185,137.3,10.81,27.61,6.273-19.98-9.579-24.25-6.496zm28,2.801c0.8977-8.918-1.592-7.821-0.6391-0.188l0.6391,0.188zm-15.4,16.1c-1.572-8.112,3.206,17.87,6.301,1.4,5.496,5.015,10.86,23.6,7.013,2.96-15.67-16.31-46.54-13.61-68.9-16.66-30.08-0.0366-60.66-4.524-90.43,0.8105-11.15,1.575-11.07,16.17-1.852,3.11-0.6407-0.1253,5.399-5.087,3.454,5.804,4.944-9.007,11.24-5.43,18.42,1.176,2.652-21.26,13.26,11.58,17.52-5.889,11.48-3.615,12.61,15.69,19.99,0.2045,25.65-2.017-21.17-0.7664,5.503-3.773,9.347,8.844,5.792,11.12,17.72,3.647,8.851,13.42,10.6,2.112,22.57,2.309,1.077,21.68,16.4-14.37,19.81,8.973,4.617-8.391,12.98-6.916,13.85,2.226,6.158,1.664-0.2256-11.32,9.041-6.298zm-160.3,0zm4.2,0zm10.5,2.799zm14,0c12.54,2.652-1.021-8.205,0-0.5799v0.5799zm14.7,0zm-44.8,0.701zm63,0zm19.6,0.699zm18.2,0.701zm-94.51-0.7c-2.507,10.07-3.236,58.3,1.434,28.22-3.139-6.536,6.446-28.69-1.434-28.22zm112.7,2.1zm-120.4,28c0.9188,38.16,4.899-54.67,1.447-18.63-0.4811,6.211-1.132,12.41-1.447,18.63zm18.2-28c-1.5,10.82-3.044,58.52,1.404,23.78,0.4963-1.789,1.874-32.79-1.404-23.78zm14-2.1c1.891,9.952-6.37,38.71,2.243,37.72-2.878-9.804,8.213-35.44-2.243-37.72zm15.4,2.1c-1.349,11.15-3.362,56.43,2.515,23.5,1.14-2.208,1.588-33.29-2.515-23.5zm18.2-1.399c-2.04,9.824-2.968,57.99,2.601,25.92-0.7222-7.06,3.873-22.66-2.601-25.92zm71.4,2.799zm-51.8-2.1c-1.885,10.86-2.294,58.08,2.863,25.79-2.694-6.324,6.245-26.96-2.863-25.79zm18.2,0.7c2.117,9.251-6.632,41.09,2.53,36.76-2.308-8.992,6.993-35.46-2.53-36.76zm47.6,4.201zm-29.4-2.801c-0.1163,7.505-5.092,48.21,2.682,35.25-1.669-8.169,7.805-34.9-2.682-35.25zm41.3,3.5zm-25.2-2.1c0.5941,8.883-5.176,50.37,2.875,35.34-3.016-9.403,8.157-34.53-2.875-35.34zm38.5,4.901zm-24.5-2.1c0.4832,7.139-4.381,47.56,2.48,34.42-2.218-8.007,7.612-34.34-2.48-34.42zm11.2,0.699c1.292,9.851-5.66,49.15,3.404,35.25-3.099-9.397,7.987-34.41-3.404-35.25zm9.099,3.5c-0.9966,11.85-2.887,58.39,2.023,23.54-0.3676-3.941,4.008-30.98-2.023-23.54zm-103.6,28.7c18.87,8.387,18.95-23.37,8.926-26.73-8.781,5.49-6.465,18.06-8.926,26.73zm19.6,0.701c26.34,11.25,6.074-51.78,1.138-14.13-0.3944,4.707-0.3043,9.46-1.138,14.13zm-37.81-1.4c17.93,9.56,16.87-30.72,5.314-22.51-5.464,6.052-4.36,15.02-5.314,22.51zm124.6,9.1c2.358-12.29,2.501-49.26,0.6772-18.05-0.281,6.014-0.4244,12.03-0.6772,18.05zm-67.9-7c14.37,8.934,12.02-41.45,1.566-18.48-1.645,6.006-1.755,12.3-1.566,18.48zm-71.4-2.1c18.4,6.676,4.634-37.02,0.3538-9.621-0.4494,3.185-0.4596,6.413-0.3538,9.621zm93.8-19.6c-5.107,13.01,5.731,38.38,5.949,11.78,0.2728-4.235,0.9911-12.98-5.949-11.78zm47.6,29.4c2.055-9.193,0.9902-35.16,0.2754-11.98-0.3178,3.98-0.5316,7.985-0.2754,11.98zm-156.1-9.8c13.87,3.822,4.957-27.68-0.03172-3.753l0.03172,3.753zm123.9,1.401c-5.656,15.26,13.12-8.382,0.6868-12.31-4.267,2.537-0.3297,8.642-0.6868,12.31zm7.7,7c-49.92-5.693-100.6-11.08-150.7-4.973-21.06,6.842,21.67-1.883,29.19-0.0823,50.6-1.05,101.3,3.933,150.9,13.46-7.976-7.073-19.47-6.889-29.4-8.401zm19.6,69.3c2.526,14.68,0.9968-24.2,3.096-31.28,5.523-32.42-37.92-27.28-58.83-30.65-34.96-1.941-70.64-7.342-105.3,0.3336,7.104,4.685,0.8762,13.43,9.975,1.226,9.381,1.813,8.738,15.72,14.84,0.5872,10.24,1.875,8.957,10.87,18.58,0.2865,8.922,7.477,9.127,9.701,18.9,0,10.36,7.323,11,6.877,22.45,1.628,12.55-0.1035-22.27,0.5901-2.347-3.171,16.08,2.972-0.1253,17.89,15.99,5.546,11.41-3.07,9.432,15.92,17.97,0.9968,10.07-1.871,8.39,16.55,16.6,1.477,7.532,3.411,8.057,14.33,11.94,1.224,9.374-3.61,3.875,16.19,11.96,2.798,10.71,10.96,3.786,30.79,4.141,49zm-158.2-57.4c-8.544-13.12-14.49,16.65-5.551-1.571l3.03-0.3222,2.52,1.893zm-11.9,7zm11.2,1.399zm14,0.701zm15.4,0zm17.5,1.4zm-60.9-2.101zm81.2,2.101zm18.9,1.399zm-96.6,0.701c1.687,12.67-7.04,34.14,1.4,42-2.068-10.76,5.075-40.71-1.4-42zm7,42c10.75-4.291,4.542-33.77,4.84-44.1-3.363,13.38,0.5089,30.18-4.84,44.1zm15.4-0.701c11.85-2.184,4.391-34.17,5.54-43.4-7.296,7.197-1.457,31.34-5.54,43.4zm15.4,0.701c11.59-2.328,4.838-34.66,4.84-44.1-5.128,9.574-0.8876,31.06-4.84,44.1zm77-41.3zm-121.8,30.8c-2.478,26.16,6.529-25.12,1.4-32.9-0.8536,10.95-0.6792,21.94-1.4,32.9zm62.3,11.2c14.32-0.4713,3.553-34.61,6.24-43.4-7.522,7.21-1.131,31.41-6.24,43.4zm24.5-43.4c1.836,13.14-8.546,40.75,0.8963,44.12-1.221-11.43,6.694-37.68-0.8963-44.12zm51.8,2.8zm-37.1,42c11.78-0.2678,4.834-33.9,5.54-43.4-7.209,7.215-1.184,31.34-5.54,43.4zm51.1-42zm-33.6,43.4c15.15,1.734,5.029-34.35,6.939-43.4-9.585,3.782,0.1101,33.35-6.939,43.4zm45.5-40.6zm-25.2-1.4c3.071,13.28-10.32,41.35,3.5,44.1-4.785-11.42,8.222-41.81-3.5-44.1zm38.5,4.199zm-23.8-1.4c-0.4244,10.5-6.607,53.6,2.308,37.53-3.361-9.42,6.897-34.83-2.308-37.53zm11.2,0c2.991,12.94-10.08,39.85,2.8,43.4-3.665-11.6,8.385-39.43-2.8-43.4zm5.6,44.1c10.34-1.021,4.59-32.49,4.201-42-3.057,13.81-0.006,28.38-4.201,42zm-93.81-39.2c-11.82,9.383-7.649,46.02,5.891,25.84-0.8718-7.512,6.749-26.47-5.891-25.84zm13.3,32.2c22.59,9.593,8.177-53.28-0.2718-20.22-0.7906,6.727-0.1476,13.5,0.2718,20.22zm-38.5-1.4c20.74,7.36,11.58-50.18,0.4459-18.65-1.429,6.11-1.139,12.46-0.4459,18.65zm58.1,2.799c11.14,3.764,9.435-28.26,5.563-29.57-10.15,4.329-8.109,21.03-5.563,29.57zm70,4.201c0.2586-13.84,2.013-47.09-0.6316-15.39-0.3171,5.115-0.6762,10.37,0.6316,15.39zm-143.5-7.7c18.22,3.353,3.466-42.32-0.5235-11.08-0.2873,3.697-0.03701,7.418,0.5235,11.08zm93.11-21.7c1.945,9.309-1.97,41.6,6.88,17.73,0.3468-4.06,1.896-25.44-6.88-17.73zm-107.8,21.7c10.71,4.406,7.664-29.2,0.03113-9.895l-0.9667,5.047,0.9356,4.848zm124.6-1.399c-6.958,17.96,13.86-6.358,0.7-13.3-3.818,3.577-0.9057,9.02-0.7,13.3zm-47.6,5.6c-34.62-1.734-69.77-7.545-104.1-1.102,20.42,4.197,65.46-0.6757,95.26,3.005,27.08,0.2657,79.19,8.176,90.23,6.201-26.8-5.181-54.15-6.56-81.34-8.105zm-46.21,27.3c9.674,10.78-13.08,20.05-16.1,4.9-8.41,9.401-7.406,57.42,4.074,26.71,14.3-9.054,20.11,19.75,4.852,3.657-5.305,1.132-13.35,14.13-11.6,10.37,17.32,3.883,30.86,2.241,26.28-19.03-0.2321-13.45-8.41-27.08,12.1-21.01,13.15-26.03,31.03,13.11,8.519,8.63-13.62-16.9,3.549,15.28,11.78-2.332-7.582,21.15-23.48-14.19-22.55,11.05-9.593,20.45,37.94,20.93,28.56-1.23-8.359-17.46,2.382-13.23,14.07-17.04,11.22-9.554,3.378-6.828-4.684-1.184,0.6228-24,36.83-0.4507,24.01,0.1381-8.818-10.39-10.68-4.318-1.612,3.362-4.649,9.931-11.49,11-18.2,4.9,7.185,17.68,24.48-8.259,30.23-5.112-4.214-21.85,31.04-5.091,14.55-2.222-8.868-2.401,18.15,18.88,11.96-2.77,1.07-21.11-39.09-14.78-56.64-19.16-34.52-0.5547-69.34-6.977-103.7-2.23-17.56,4.601,0.5492,41.29,7.5,14.87,6.228,3.501,19.93,16.9,29.63-0.1407,15.1-4.724-27.88,5.769-6.678-6.506,13.18-10.25,29.39,26.21,13.64,11.37zm-34.3,7zm21.7-1.399zm43.4-4.201zm29.4,7.701zm-95.21,2.8zm4.2-5.6zm-31.5,1.401zm22.4-0.7zm45.5,2.101zm37.8,2.1c23.08,4.549,8.469-9.216,0-0.5789v0.5789zm-86.11,19.6c19.24,9.536,17.39-27.78,5.25-19.6-6.614-8.159-5.102,15.49-5.25,19.6zm14.7-13.3zm123.9-2.799zm-145.6,3.5zm58.8,2.799c15.95,4.429,1.906-22.93-0.08113-5.519l0.08113,5.519zm70.7-7.7zm-136.5,4.9zm163.8-3.5c16.64,2.492,8.562-4.942,0-1.341v1.341zm-60.2,7.699zm20.3,0c-14.59-24.92-21.45,26.85,2.887,15.31,18.62,8.859,13.81-44.7-2.887-15.31zm30.8,1.4c-11.4-17.42-14.16,25.66,5.44,15.4,10.58-2.423,3.251-41.94-5.44-15.4zm-15.4,1.401c16,2.921,1.156-22.2-0.1514-5.449l0.1514,5.449zm10.5-10.5zm28,1.4zm-11.9,10.5zm-163.8,50.4c1.105-16.3,4.083-50.11,2.271-55.55-2.666,18.4-4.404,37.1-2.27,55.6zm175.7-48.3zm-185.5,51.1c17.49,3.2,2.105-32.5,9.108-44.9,4.528-12.8-8.617-23.2-5.342-4.2-0.602,16.4-1.002,32.9-3.766,49.1zm36.4-60.9c2.081,21.92-7.65,53.72-0.8515,69.18,9.839-13.93,3.294-47.65,7.152-69.18l-3.15,0.00087-3.15,0.00013zm-21.7,0.701c0.8914,20.92-7.144,47.32-0.8179,64.87,9.175-11.3,3.291-44.86,6.418-64.87h-5.6zm166.6,20.3c8.417-4.299-0.8662-32.96-0.6266-8.34l-0.2724,4.907,0.899,3.433zm-113.4,51.1c21.84,5.606,4.094-32.98,11.66-46.7,5.849-11.11-5.082-35.27-7.134-13.7-0.8049,20.16-0.5822,40.52-4.526,60.4zm78.4-64.4c3.191,20.23-8.717,53.44,0.7136,65.01,6.976-13.4,4.699-47.58,4.127-65.01h-4.841zm27.3,1.399c1.743,19.48-8.368,50.17,0.0666,62.33,6.544-13.83,6.045-46.57,3.007-62.25h-3.1zm11.9,2.101c1.407,18.43-6.601,44.51-0.00038,58.2,3.525-12.79,6.149-45.65,1.979-58.2h-1.46-0.5189zm-165.2,17.5zm60.9-9.801c-13.17,26.18,45.64,19.25,24.57,0.5382-8.22-0.4-16.41-0.8-24.61-0.5zm36.4,22.4c19,7.479,36.72-5.685,23.81-21.02-14.27-1.122-28.9-5-23.81,15.25l-0.007,5.768zm35,1.4c18.03,5.886,20.66-5.115,18.9-21-20.9-3.378-19.29,1.5-18.9,21zm29.4,1.399c4.55-13.18-2.382-33.57-2.861-9.291-0.498,2.913-0.6206,7.829,2.861,9.291zm-111.3-14c-11.32-0.3624-41.28-2.102-14.1,1.148,4.708,0.1204,9.529,0.1303,14.1-1.148zm-50.4,34.3c21.42,9.352,15.08-52.09-0.06058-29.78-0.3104,9.898-2.34,19.98,0.06058,29.78zm23.8-29.4c11.19,2.48,37.58-0.9509,12.44-1.588-1.498,1.018-20.8-2.462-12.44,1.588zm35.7,35.7c19.42,5.345,33.05-2.691,28-24.68,5.889-14.74-37.58-16.8-28.45,2.604-0.4671,7.339-0.8656,14.79,0.4483,22.07zm-37.8-3.5c18.93,6.263,32.44,0.3936,27.7-21.65,4.861-13.25-36.92-15.68-28.26,2.532-0.3781,6.359-0.8136,12.84,0.5542,19.12zm74.9-24.5c-2.679,15.52-2.739,34.62,17.46,28.7,14.28-2.032,14-38.62-7.591-28.33-3.287-0.1826-6.576-0.3498-9.869-0.3685zm35.7,1.399c-7.264,14.52,5.104,38.23,16,19.67,3.747-16.21,3.144-22.13-16-19.67zm27.3,23.1c6.438-11.07-1.174-34.54-1.652-10.42l0.2626,5.622,1.39,4.8z"/>
</svg>
