<svg xmlns="http://www.w3.org/2000/svg" xmlns:xlink="http://www.w3.org/1999/xlink" width="100%" height="100%" viewBox="-250 -600 500 600" xmlns:html="http://www.w3.org/1999/xhtml">
<title>World Landmarks On Globe Demo</title>
<desc>by Marek Raida, marek.raida@gmail.com</desc>

<style>
 .ttx {fill:gold; stroke:gray; font-family:sans-serif; font-weight:bold; font-size:24px;}
</style>

<radialGradient id="rg" gradientUnits="userSpaceOnUse" cx="-304.2" cy="233" r="173.5" gradientTransform="matrix(1.3832745,1.4174669,-1.0678107,1.0420525,559.45152,104.56208)">
<stop stop-color="#577fff" offset="0"/>
<stop stop-color="#00196e" offset="1"/>
</radialGradient>

<rect x="-250" y="-600" width="500" height="100" fill="lightgray" stroke="none"/>

<g transform="scale(0.5) translate(0 -600)">
<animateTransform attributeName="transform" type="rotate" begin="0s" dur="30s" repeatCount="indefinite" from="1" to="360"/>

<text x="50" y="-350" transform="rotate(0)" class="ttx">Leaning Tower</text>
<text x="80" y="-320" transform="rotate(0)" class="ttx">of Pisa</text>
<path id="pisa" transform="rotate(0) scale(0.4) translate(-100 -1260)" fill-rule="evenodd" d="M113.8,3.419E-8c11.7,14.54,44,16.72,43,41.98-3.501,17.58-3.664,25.3,15.55,28.68,24.16,8.213,13.08,42.14,9.675,53.91-4.893,17.32-10.19,42.27,15.27,42.25,18.15,6.914,2.809,25.7,5.526,39.36-2.663,22.87,3.836,41.81-1.928,63.97-2.874,22.26,4.442,42.17-1.906,63.05-2.826,21.76,4.472,41.09-1.307,60.59-0.906,19.55-1.81,41.19,2.887,56.33-2.903,19.57-10.73,46.89-1.114,65.51-5.788,17.38-4.609,40.91-5.858,61.09,7.709,13.42-6.559,30.61,2.074,44.89-7.919,19.82-4.282,46.98-5.838,69.6-11.51,8.593-40.79,6.827-61.33,6.235-11.28-0.0882-19.58,7.553-11.94-2.631-7.658-19.79,11.46-55.52-4.891-64.81,0.2894,21.78-5.539,56.63-2.86,70-12.84-5.395-26.95,0.5546-40.31-0.7101-16.34-9.929-41.5-0.5684-58.3-10.05-24.43-1.5-0.842-38.2-7.437-54.9-2.831-20.4,3.24-25.7,3.428-46.8-1.678-18.3,8.369-43.1,5.099-65.2-5.126-19.89,8.341-42,4.21-65.75-4.454-19.38,5.186-31.05,4.215-52.35,2.017-19.95-2.382-33.95,3.271-50.62,7.073-21.79-3.61-44.2,6.274-63.7,3.666-22.94-3.97-46.76,5.239-67.24,8.087-20.21-7.575-48.17,6.67-62.39,33.81,0.2786,19.68-43.83,20.31-64.49-1.06-23.39,16.97-34.41,35.95-33.55,23.89,3.65,13.09-27.46,15.99-47.02,0.1-5.08,0.2-10.16,0.2-15.24zm-61.61,381.5c1.023,16.92,12.61-14.93,17.5,6.301,4.578-8.609,23.03-7.606,2.8-7.702,11.92-6.805,15.97,7.403,12.22,4.927-0.2794,8.053,19.78-8.982,16.6-4.761-25.12-0.5165,9.24-5.435,5.047,8.313,5.316-10.49,15.64-4.706,20.03,1.321,9.191-19.21,16.2,13.87,22.57-5.136,9.824,1.382,8.709,14.42,16.69,2.335,5.284,1.228,6.586,15.85,9.74,1.4,11.96-6.629,1.93,12.07,10.42,4.119,4.246-5.202,11.69,20.4,7.38-1.095-21.03-15.94-53.91-12.65-80.15-15.53-22.26-1.665-62.44-3.681-74,3.074,1.248,17.79-0.09505-5.79,13.15,2.436zm63.71-329c2.911-10.31,1.592-47.99-0.6037-39.82,0.0997,13.27-0.8691,26.59,0.6037,39.82zm19.6-29.4c13.14,14.13-6.649,5.015-5.822,6.133-8.827,2.436,19.97,7.669,6.521,15.57,13.52,8.603,5.098-0.4258,11.36-5,14.34,5.149-1.804-4.583-5.005-8.875,4.329-4.845-2.035-7.747-7.058-7.825zm-20.3,37.1c6.219-5.607,41.45,10.76,29.26-4.931-11.82-8.537-30.49-17.53-29.26,4.931zm-11.2,2.1zm13.3,4.2c21.41,5.727,8.572-12.53,0-1.98v1.46,0.5199zm-25.9-2.1zm39.9,2.8c14.95,5.113,15.11-7.136-0.001-4.9l0.001,4.9zm13.3,1.4c15.64,3.706,10.99-2.716,5.609-2.109-1.21-4.211-7.867-3.715-5.609,2.109zm-63.7-1.4zm76.3,4.2c17.9,10.19,4.419-11.6,0-1.98v1.46,0.5199zm-53.9-0.7zm14-1.4zm-43.4,1.4zm17.5,1.4zm39.2-2.1zm25.2,4.2zm11.2,0.7zm-97.3,3.5zm11.9-3.5zm104.3,16.1c-26.3-21.27-64-22.41-96-16.69-12.31,2.28-32.06,14.45-9.39,3.8,34.09-9.45,75.39-7.06,105.4,12.89zm-20.3-14.7zm-91,0.7zm100.8,2.1zm-61.6,1.4zm5.6,0zm5.6,0.7zm49-1.4zm-67.2,1.4zm23.1,0zm-27.3,0.7zm32.2,0zm-38.5,0.7zm47.6,0.7zm40.6,2.8zm-56.7,5.6c-2.088-13.02-26.8,4.627-8.714-6.7,13.76-0.6355,5.911,16.78,20.09,5.592,10.71,3.494,5.844,13.25,18.84,4.67,9.998-3.232-19.05,2.505,0.2939-3.214,9.679,5.703,3.773,18.36,13.59,5.251,8.242,4.717-2.554,23.11,9.099,4.9-25.1-22.9-64-23.89-95.28-15.39-10.15-2.3-25.34,20.69-16.76,15.49,0.64-13.38,12.09-2.59,13.19-12.5,8.682-1.382,18.66,15.48,13.53,2.371,9.484-8.343,16.14,7.684,23.91-3.98,2.866-0.224,6.881,0.4777,8.202,3.506zm-50.4-2.8zm84.7-0.7zm-89.6,3.5zm-4.2,2.8zm13.3-2.1zm28,4.2c-1.584,18.24-5.554,40.24-2.1,56.7,3.697-15.99,5.382-42.61,2.1-56.7zm-30.11,7.7c-2.731,12.26,2.322,30.88,4.2,8.4,18.26-19.02,18.12,18.66,21.99,12.92,8.543-17.22-18.25-22.28-19.97-18.92,10.97-9.883,26.36,13.91,21.09-8.003-9.08,2-18.3,3.3-27.31,5.6zm32.9,17.5c12.36,2.791,13.5-2.774,0.699-2.8,1.008-9.224,0.3845-29.41-0.468-8.518-0.3016,3.761-0.4857,7.547-0.231,11.32zm15.4-23.1c-0.2414,15.2-8.846,45.36,0.393,53.86,0.995-16.91,5.589-40.25-0.393-53.86zm42.7,1.4zm-52.5,0.7zm15.4,22.4c4.907-22.18,25.32-5.719,28,5.6,3.176-16.08-17.64-28.6-28.7-15.4,6.478-16.42,29.16,0.242,29.4,3.153,5.874-16.47-44.91-25.56-28.7,6.647zm-58.11-18.2c0.3628,14.39-5.797,41.86,0.3343,47.21,0.24-10.7,5.94-47.6-0.33-47.2zm88.9,2.8c2.191,12.64-8.618,47.86,1.61,48.39-1.855-12.99,6.504-44.1-1.61-48.39zm-98.7,2.8c0.275,9.409-5.864,49.63,0.2594,39.66,1.714-11.32,4.408-37.59-0.2594-39.66zm49,7.7c17.4,2.686-3.261-0.2075,2.041-8.4-5.108-1.478-0.3,6.532-2.041,8.4zm60.9-4.2c0.9029,11.53-4.285,47.11,0.2594,40.77-0.4465-8.457,5.515-43.16-0.2594-40.77zm-7,8.4zm-98,2.8zm18.9,0.7zm-5.6-0.7zm52.5,1.4zm9.101,7zm4.899-4.9zm-38.5,0zm57.4,0zm-38.5,1.4zm-61.6-1.4zm9.1-2.1zm4.9,5.6zm67.2-2.1zm7.701,6.3zm-56,0.7zm9.799,0zm56-2.8zm-35.7,4.2zm-63.7-1.4zm9.8,4.2zm4.9,0zm5.6-5.6c-1.562,16.51,26.44-1.938,3.056-0.6292l-3.056,0.6292zm79.1,4.2zm-99.4-1.4zm88.9,18.2c9.89-2.14-0.5838-35.47-0.6948-8.757l-0.2476,5.108,0.9423,3.649zm-7.699-17.5c-5.065,16.31,8.271,24.89,6.307,3.508,3.921-7.72-3.616-4.402-6.307-3.508zm-46.9,14c6.886-11.08-3.499-21.47-1.322-2.656l1.322,2.656zm8.4,0c21.84,9.899,10.25-29-0.00042-11.02,0.00042,3.675,0.00042,7.35,0.00042,11.02zm21.7,1.4c3.588-16.42-5.726-18.18-1.702-0.808l1.702,0.808zm9.101-7zm24.5,11.2c15.43,4.558,0.6655-34.94,0.7814-9.018l-0.212,4.688-0.5693,4.33zm-88.91-15.4c-3.494,16.01,9.289,8.626,1.763-0.6868l-1.76,0.7zm4.9,10.5zm7.7-0.7zm7,0zm35.7,2.1c-30.68-0.9122-64.29-5.752-92.69,8.556-10.67,9.221,22.29-8.594,30.21-4.49,45.35-2.149,93.07-2.301,135.3,16.23-19.67-16.88-48.22-18.09-72.8-20.3zm-64.4,30.8c5.853-17.57,14.73,7.818,19.87-6.169,11.12,1.241,9.512,12.28,17.93,0.1353,23.53,0.8569-21.08-1.927,5.034-2.451,9.601,8.458,1.461,11.99,15.09,3.116,9.609-2.348-17.4,1.716-0.1878-2.804,13.33,4.623,2.544,14.85,18.55,3.807,7.431,12.97,6.757,3.955,16.91,1.665,4.228,13.71,13.52-3.944,19.51,9.7,3.735-13.82,7.411-3.527,9.221,0.7,6.618-16.93,11.02,20.08,9.68,16.68,8.296-29.62-25.57-31.71-47.4-33.15-33.76-0.8276-68.48-8.099-101.7,0.3739,6.059,1.238,3.86,14.17,5.859,1.292,3.915-9.398,21,8.7,3.775-1.838-3.393,2.123,8.629,0.4463,7.867,8.945zm-14.7-6.3c-11.03-6.764-10.57,16.2-4.025-0.5625,1.399-0.1913,2.661,1.488,4.025,0.5625zm-10.5,9.1zm9.8,0.7zm13.3,0zm13.3,0zm16.8,0zm18.2,1.4c11.85,1.784,2.178-6.828,0-1.34v1.34zm16.8-1.4zm16.8,3.5zm-105,34.3c4.676-10.32,2.051-55.12-0.2831-22.4-0.608,7.419-1.662,15.08,0.2831,22.4zm10.5-34.3c-2.703,13.19-1.081,48.34,1.669,16.02-0.272-1.874,1.326-25.48-1.669-16.02zm13.3-2.1c-3.427,11.52-0.3252,51.68,2.1,19.6-1.05-4.426,5.221-19.24-2.1-19.6zm14,2.1c-3.739,13.29-0.1171,44.88,2.728,14.28,1.239-0.7974-1.157-23.9-2.728-14.28zm-43.4,35.7c3.129-10.42,1.997-53.77,0.4024-23.13-0.5286,7.69-1.048,15.43-0.4024,23.13zm59.5-35c-3.134,13.47,0.3184,43.32,3.305,13.81,1.307-1.808-0.8412-23-3.305-13.81zm18.2,0c-1.544,11.85-0.439,45.55,3.287,15.54-0.5441-2.864,2.263-24.85-3.287-15.54zm48.3,0.7zm-30.8-1.4c-4.162,12.51,1.459,48.09,2.101,16.1-2.033-3.794,5.904-18.39-2.101-16.1zm43.4,3.5zm-27.3,0c-2.498,9.251-0.5839,46.12,3.531,18.67-0.1992-3.847,3.445-28.91-3.531-18.67zm37.8,0.7zm-23.1,0.7c-1.614,9.521-0.6961,46.15,3.687,19-0.7483-4.174,4.157-30.02-3.687-19zm13.3,2.1c-1.891,9.668-1.095,46.81,2.684,18.41,1.256-1.245,0.5548-28.95-2.684-18.41zm10.5,0.7c-2.713,10.5-0.2248,49.72,3.129,20.02-0.6442-3.855,4.23-30.43-3.129-20.02zm8.399,1.4c-1.981,10.47-1.295,51.59,1.463,20.61,0.0457-2.274,2.622-29.13-1.463-20.61zm-95.2,21c23.23,10.98,9.429-38.36,2.111-9.987-0.642,3.339-0.9369,6.769-2.111,9.987zm18.2,0.7c22.48,11.25,5.525-39.8,0.6029-9.635-0.3376,3.203-0.364,6.425-0.6029,9.635zm-35-0.7c21.29,7.703,7.039-36.66,0.493-6.704l-0.3975,3.318-0.09547,3.386zm51.8,1.4c15.91,7.855,8.972-35.05,0.8455-9.654-0.4834,3.199-0.5192,6.439-0.8455,9.654zm-65.81-0.7c17.21,4.933,2.385-29.65,0.6285-4.621l-0.63,4.6zm85.4-14c-2.805,18.45,9.648,23.68,5.787,2.603-0.406-2.529-3.566-4.078-5.787-2.603zm46.2,9.1c0.9051-9.467-1.583-8.719-0.6509-0.348l0.6509,0.348zm-144.9,5.6zm142.8-9.1c-2.494,7.222-0.2926,34.77-0.3964,11.33l0.5259-5.575-0.1295-5.752zm-30.1,2.8zm4.9,13.3c-43.63-6.564-89.31-12.79-132.8-2.367-26.03,14.59,16.27-4.181,27.36-0.7281,45.43-1.62,93.1-1.196,135.5,17.1-5.914-10.51-19.56-11.59-30.1-14zm26.6,3.5zm-16.8,17.5c3.211,3.075,2.842,17.12,6.999,4.2,4.164,7.1,9.722,14.31,5.6-0.7-22.15-13.27-50.37-8.591-75.24-12.75-24.81-1.423-50.08-2.96-74.56,2.252,4.567,4.492,3.748,12.59,5.15,1.594,1.654-9.933,22.4,8.381,4.532-2.015-2.067-3.547,10.92,18.7,10.62,3.221,9.419-5.64,11.64,13.2,17.27-0.4143,11.74,2.174,9.507,12.61,18.21,0.2088,24.81,0.4785-20.11-0.259,2.502-3.053,11.8,4.238,5.227,15.18,16.49,4.12,21.78,1.828-21.67-2.503,4.523-2.343,7.926,9.406,0.9902,10.8,15.28,3.536,7.722,5.188,6.997,11.11,14.28,0.7393,7.729,1.455,7.904,14.46,14.4,2.082,8.983,12.82,7.56,4.015,13.96-0.6754zm-135.8-4.2c-10.4-5.844-9.851,13.89-3.965-0.2772l2.935-0.1626,1.03,0.4398zm-9.8,8.4zm9.8,0.7zm13.3,0.7zm14,0zm-42,0.7zm58.8,0zm18.9-0.7zm16.8,2.1zm-90.3,35.7c6.557-10.55,1.088-56.4,0.06033-22.5-0.4005,7.472-1.336,15.06-0.06033,22.5zm107.8-34.3zm-114.1,35c4.352-9.935,2.933-55.31,1.278-23.22-0.3669,7.743-0.654,15.49-1.278,23.22zm16.8-2.1c4.037-10.1,2.11-54.17-0.1561-21.4-0.4948,7.089-1.499,14.38,0.1561,21.4zm14-35c-3.704,10.86,0.7289,50.84,2.336,20.12-0.3529-5.383,4.566-18.61-2.336-20.12zm14,2.1c-1.224,9.328-2.027,45.42,2.737,18.9,1.548-1.305,0.4948-29.49-2.737-18.9zm16.8,0.7c-2.058,8.741-1.607,44.81,3.015,19.03-1.277-3.52,3.912-29.83-3.015-19.03zm18.9,0c-1.144,9.455-2.096,46.04,2.86,19.03,1.291-2.021,0.7586-28.6-2.86-19.03zm49-0.7zm-32.2,32.2c8.436-1.281,1.497-52.97-0.1492-19.64-0.4737,6.503-1.507,13.22,0.1492,19.64zm45.5-28zm-28-0.7c-2.702,9.547-0.3998,46.91,3.422,19-0.3202-3.5,3.612-29.83-3.422-19zm38.5,0.7zm-23.1,0c-2.507,10.08-0.5048,49.33,3.397,19.57,0.4109-2.614,2.194-30.57-3.397-19.57zm35.7,2.8zm-22.4-2.1c-2.344,10.43-1.081,50.83,2.47,20.74-0.5322-4.73,3.794-20-2.47-20.74zm9.801,35c10.04-2.836,2.133-57.47,0.0384-20.77-0.42,6.884-1.444,13.93-0.0384,20.77zm9.1-30.8c-0.7106,9.671-2.453,50.23,1.826,21.42-0.0704-3.087,2.28-28.72-1.826-21.42zm-97.3,21.7c24.05,11.6,10.17-39.72,2.343-10.29-0.6974,3.443-1.046,6.99-2.343,10.29zm18.9,1.4c22.88,8.4,5.24-39.99,0.424-10.86-0.3607,3.611-0.2885,7.243-0.424,10.86zm-24.51-19.6c-19.5-2.02-7.223,32.23-0.7961,13.38,0.1138-4.47,0.7922-8.904,0.7961-13.38zm105.7,25.9c2.344-10.31,0.8439-36.37,0.2786-12.67-0.3094,4.214-0.5398,8.447-0.2786,12.67zm-63.7-5.6c15.19,6.658,9.419-35.2,0.486-11.39-0.8202,3.733-0.8561,7.597-0.486,11.39zm-67.2-1.4c16.32,4.05,2.896-30.19,0.1063-5.494l-0.12,5.5zm86.8-13.3c-2.47,11.72,7.171,26.74,6.698,7.174,0.3976-3.975-1.111-10.98-6.698-7.174zm-100.8,14zm147.7-6.3c-2.222,4.155-0.6221,26.56,0.1386,3.572l-0.1-3.6zm-27.3,11.9zm11.2,2.8c-46.6-8.419-94.81-11.48-141.9-6.112-14.04,3.041-22.11,11.52-3.163,4.255,45.7-7.039,92.8-3.587,138.2,4.425,13.3,3.719,37.64,11.53,12.41-0.9764l-5.495-1.591zm-4.901,20.3c9.43-5.478,2.458,14.81,12.89,2.515,10.03,21.92,2.744-15.33-14.53-8.951-44.7-4-90.31-11.8-134.9-3.3,4.497,15.18,3.205-1.944,14.15,2.312,2.127,18.4,11.64-13.6,19.45,6.788,7.704-18.01,15.35,11.49,23.5-5.995,25.06,1.174-20.01-1.481,2.679-3.441,11.68,5.422,5.192,15.7,16.1,4.022,22.78,1.919-20.55-1.77,4.087-2.546,11.01,4.773-1.646,15.78,12.92,4.333,10.49-2.262,10.13,16.03,16.97,0.6998,9.43,0.0803,8.09,15.37,15.44,2.226,8.528-1.12,4.514,18.1,11.2,1.4zm-135.1-7.7c-12.32-3.469-10.82,14.95-2.59,0.1291l2.59-0.1zm-10.5,9.8zm10.5,0zm13.3,0zm14,0.7zm-40.6-0.7zm58.1,2.1c11.85,1.784,2.178-6.828,0-1.34v1.34zm18.9,0zm17.5,1.4zm-91.71,0.7c-0.9888,10.43-1.877,49.94,2.098,20.02,0.9-1.9,1.68-29.7-2.1-20zm9.1,32.9c7.607-7.824,1.567-53.78,1.097-21.65-0.4906,7.209-1.235,14.42-1.097,21.65zm14.7-0.701c9.257-6.684,0.7038-54.38-0.0715-20.88-0.5159,6.909-1.636,14.04,0.0715,20.88zm15.4,0c6.864-9.695,0.4512-53.32-0.4992-20.87-0.6647,6.894-1.978,14.16,0.4992,20.87zm70-32.9zm-115.5,35c4.662-9.617,2.403-55.04,0.8125-22.38-0.394,7.453-0.794,14.91-0.8125,22.38zm62.3-2.101c8.082-8.739,1.353-52.73-0.515-20.45-0.6342,6.751-1.915,13.88,0.515,20.45zm69.3-30.8zm-50.4,31.5c9.025-7.232,0.775-53.21-0.1007-20.47-0.5525,6.772-1.721,13.78,0.1007,20.47zm17.5,0.699c9.154-7.479,1.442-52.95-0.1443-20.51-0.4182,6.799-1.317,13.77,0.1443,20.51zm46.2-29.4zm-30.1,30.8c13.44-1.217,1.746-56.64,1.275-20.6-0.2819,6.875-0.8582,13.73-1.275,20.6zm41.3-30.1zm-23.8-2.1c-3.637,9.9-0.0994,52.46,3.38,21.93-2.227-5.282,6.036-24.02-3.38-21.93zm36.4,4.2zm-22.4-1.4c-3.569,9.617-0.2254,50.81,2.494,20.32-0.9032-5.15,3.631-18.97-2.494-20.32zm10.5,2.8c-3.834,12.46,1.686,47.64,2.801,17.5,0.00051-3.587,4.291-27.82-2.801-17.5zm8.4,1.4c-1.497,9.913-1.42,48.21,1.88,20.16,0.2572-2.332,2.16-28.51-1.88-20.16zm4.9,0.7c-2.767,12.75-2.904,48.24-0.8178,17.03,0.2019-5.68,0.1783-11.38,0.8178-17.03zm-92.4,0.7c-18.95,1.392-8.107,36.56,1.276,15.99,0.4635-5.314,1.421-11.06-1.276-15.99zm7,21.7c24.13,12.02,5.601-41.65,0.9275-10.62-0.3191,3.54-0.3023,7.113-0.9275,10.62zm-36.41-1.4c20.91,10.92,10.75-36.3,1.558-10.27-0.9576,3.34-1.363,6.808-1.558,10.27zm54.6,2.1c14.98,7.102,9.675-35.51,0.4816-11.36-0.8816,3.712-0.972,7.584-0.4816,11.36zm67.2,5.6c2.275-8.247,0.8791-33.68,0.231-11.32-0.3016,3.761-0.4857,7.548-0.231,11.32zm-136.5-7c18.06,7.051,4.095-31.14,0.77-5.005l-0.77,5.005zm88.9-13.3c-0.7616,9.524,7.071,26.92,7,8.74,0.8783-4.601-0.1312-14.19-7-8.74zm-102.2,13.3zm118.3,5.601c11.92,1.271-3.395-24.04-0.2301-4.303l0.2301,4.303zm-75.61-4.2c-23.02,0.8865-49.28-5.533-70,7,47.99-9.132,97.17-2.21,145.4,1.12,11.55,0.5864,51.83,12.15,22.11,1.448-31.72-8.549-64.97-7.86-97.51-9.568zm-50.4,19.6c-9.491-12.83-13.17,18.11-5.567-1.138l2.715-0.6808,2.853,1.819zm-11.2,8.4zm10.5,0.701zm14,0zm14,0zm-41.3-1.4zm65.1,0.699zm13.3,2.1zm18.2,0.701zm-93.81,37.8c5.733-10.73,1.639-58.33-0.2552-23.69-0.6585,7.842-1.771,15.94,0.2552,23.69zm10.5-0.7c5.079-10.77,1.624-57.39-0.06052-23.05-0.5074,7.647-1.555,15.46,0.06052,23.05zm14-0.699c7.887-7.024,2.828-60.37-0.07256-22.63-0.5191,7.499-1.59,15.19,0.07256,22.63zm14.7,0c9.299-8.139,0.5314-58.53,0.1502-22.41-0.5608,7.423-1.876,15.04-0.1502,22.41zm72.81-35.7zm-119,37.8c5.018-10.29,2.645-57.51,1.402-23.97-0.4028,7.994-0.8478,15.99-1.402,23.97zm64.4-36.4c-2.03,10.73-1.072,52.69,2.759,21.12,0.0013-2.541,3.176-32.35-2.759-21.12zm76.3,1.401zm-56.7-0.701c-1.974,10.94-1.406,51.02,2.543,21.34,1.166-2.093,1.463-31.05-2.543-21.34zm17.5,0.701c-1.199,10.13-2.266,51.33,3.263,22.06-0.0712-2.562,2.469-33.38-3.263-22.06zm46.9,2.099c12.54,2.652-1.02-8.206,0-0.5799v0.5799zm-29.4,34.3c11.38-9.236,0.5744-58.85-0.2135-22.33-0.5286,7.396-1.899,15.05,0.2135,22.33zm40.6-33.6zm-24.5,0c-2.578,11.58,0.016,54.62,3.77,21.43,0.199-3.456,3.566-32.58-3.77-21.43zm33.6,1.4zm-19.6,1.4c-2.324,9.944-1.058,51.56,3.076,21.28-1.034-3.434,4.282-32.51-3.076-21.28zm9.8,35.7c11.91-3.346,2.574-61.51,0.628-22.9-0.473,7.619-1.055,15.26-0.628,22.9zm10.5-33.6c-1.944,9.92-3.172,51.05,1.669,22.13-0.2477-2.601,2.245-30.19-1.669-22.13zm2.8,35.7c1.326-10.43,1.777-51.88,0.4036-21.81-0.5644,7.243-1.538,14.57-0.4036,21.81zm-104.3-9.8c17.48,8.096,18.37-20.82,8.427-24.18-8.319,4.614-6.13,16.37-8.427,24.18zm18.9,0.7c25.7,11,5.176-47.63,0.935-11.93-0.2605,3.978-0.195,7.992-0.935,11.93zm-37.1-1.399c22.98,9.818,10.39-42,1.506-11.9-0.8633,3.912-1.186,7.913-1.506,11.9zm55.3,2.1c16.68,7.597,9.316-41.31,0.8406-12.87-0.8128,4.236-1.025,8.571-0.8406,12.87zm69.3-0.701c2.532-12.95,0.1319-27.14-0.0834-5.158l0.0834,5.158zm-139.3-1.4c19.78,5.771,2.724-36.16,0.7505-5.725l-0.75,5.7zm91.01,4.2c17.37,5.305-1.42-41.58,0.8936-11.63-0.3276,3.876-0.9348,7.729-0.8936,11.63zm-105.7-3.5c13.16,4.125,6.271-23.93,0.9089-3.641l-0.9089,3.641zm119,4.901c17.38,5.084-1.912-30.44,2.484-3.078l-0.6642,1.902-1.82,1.176zm7,2.099c-48.93-5.319-98.93-11.76-147.8-3.599-6.32,6.592,25.18-2.922,34.77-0.7155,45.87,0.5114,92.18,2.185,137.3,10.81,27.61,6.273-19.98-9.579-24.25-6.496zm28,2.801c0.8977-8.918-1.592-7.821-0.6391-0.188l0.6391,0.188zm-15.4,16.1c-1.572-8.112,3.206,17.87,6.301,1.4,5.496,5.015,10.86,23.6,7.013,2.96-15.67-16.31-46.54-13.61-68.9-16.66-30.08-0.0366-60.66-4.524-90.43,0.8105-11.15,1.575-11.07,16.17-1.852,3.11-0.6407-0.1253,5.399-5.087,3.454,5.804,4.944-9.007,11.24-5.43,18.42,1.176,2.652-21.26,13.26,11.58,17.52-5.889,11.48-3.615,12.61,15.69,19.99,0.2045,25.65-2.017-21.17-0.7664,5.503-3.773,9.347,8.844,5.792,11.12,17.72,3.647,8.851,13.42,10.6,2.112,22.57,2.309,1.077,21.68,16.4-14.37,19.81,8.973,4.617-8.391,12.98-6.916,13.85,2.226,6.158,1.664-0.2256-11.32,9.041-6.298zm-160.3,0zm4.2,0zm10.5,2.799zm14,0c12.54,2.652-1.021-8.205,0-0.5799v0.5799zm14.7,0zm-44.8,0.701zm63,0zm19.6,0.699zm18.2,0.701zm-94.51-0.7c-2.507,10.07-3.236,58.3,1.434,28.22-3.139-6.536,6.446-28.69-1.434-28.22zm112.7,2.1zm-120.4,28c0.9188,38.16,4.899-54.67,1.447-18.63-0.4811,6.211-1.132,12.41-1.447,18.63zm18.2-28c-1.5,10.82-3.044,58.52,1.404,23.78,0.4963-1.789,1.874-32.79-1.404-23.78zm14-2.1c1.891,9.952-6.37,38.71,2.243,37.72-2.878-9.804,8.213-35.44-2.243-37.72zm15.4,2.1c-1.349,11.15-3.362,56.43,2.515,23.5,1.14-2.208,1.588-33.29-2.515-23.5zm18.2-1.399c-2.04,9.824-2.968,57.99,2.601,25.92-0.7222-7.06,3.873-22.66-2.601-25.92zm71.4,2.799zm-51.8-2.1c-1.885,10.86-2.294,58.08,2.863,25.79-2.694-6.324,6.245-26.96-2.863-25.79zm18.2,0.7c2.117,9.251-6.632,41.09,2.53,36.76-2.308-8.992,6.993-35.46-2.53-36.76zm47.6,4.201zm-29.4-2.801c-0.1163,7.505-5.092,48.21,2.682,35.25-1.669-8.169,7.805-34.9-2.682-35.25zm41.3,3.5zm-25.2-2.1c0.5941,8.883-5.176,50.37,2.875,35.34-3.016-9.403,8.157-34.53-2.875-35.34zm38.5,4.901zm-24.5-2.1c0.4832,7.139-4.381,47.56,2.48,34.42-2.218-8.007,7.612-34.34-2.48-34.42zm11.2,0.699c1.292,9.851-5.66,49.15,3.404,35.25-3.099-9.397,7.987-34.41-3.404-35.25zm9.099,3.5c-0.9966,11.85-2.887,58.39,2.023,23.54-0.3676-3.941,4.008-30.98-2.023-23.54zm-103.6,28.7c18.87,8.387,18.95-23.37,8.926-26.73-8.781,5.49-6.465,18.06-8.926,26.73zm19.6,0.701c26.34,11.25,6.074-51.78,1.138-14.13-0.3944,4.707-0.3043,9.46-1.138,14.13zm-37.81-1.4c17.93,9.56,16.87-30.72,5.314-22.51-5.464,6.052-4.36,15.02-5.314,22.51zm124.6,9.1c2.358-12.29,2.501-49.26,0.6772-18.05-0.281,6.014-0.4244,12.03-0.6772,18.05zm-67.9-7c14.37,8.934,12.02-41.45,1.566-18.48-1.645,6.006-1.755,12.3-1.566,18.48zm-71.4-2.1c18.4,6.676,4.634-37.02,0.3538-9.621-0.4494,3.185-0.4596,6.413-0.3538,9.621zm93.8-19.6c-5.107,13.01,5.731,38.38,5.949,11.78,0.2728-4.235,0.9911-12.98-5.949-11.78zm47.6,29.4c2.055-9.193,0.9902-35.16,0.2754-11.98-0.3178,3.98-0.5316,7.985-0.2754,11.98zm-156.1-9.8c13.87,3.822,4.957-27.68-0.03172-3.753l0.03172,3.753zm123.9,1.401c-5.656,15.26,13.12-8.382,0.6868-12.31-4.267,2.537-0.3297,8.642-0.6868,12.31zm7.7,7c-49.92-5.693-100.6-11.08-150.7-4.973-21.06,6.842,21.67-1.883,29.19-0.0823,50.6-1.05,101.3,3.933,150.9,13.46-7.976-7.073-19.47-6.889-29.4-8.401zm19.6,69.3c2.526,14.68,0.9968-24.2,3.096-31.28,5.523-32.42-37.92-27.28-58.83-30.65-34.96-1.941-70.64-7.342-105.3,0.3336,7.104,4.685,0.8762,13.43,9.975,1.226,9.381,1.813,8.738,15.72,14.84,0.5872,10.24,1.875,8.957,10.87,18.58,0.2865,8.922,7.477,9.127,9.701,18.9,0,10.36,7.323,11,6.877,22.45,1.628,12.55-0.1035-22.27,0.5901-2.347-3.171,16.08,2.972-0.1253,17.89,15.99,5.546,11.41-3.07,9.432,15.92,17.97,0.9968,10.07-1.871,8.39,16.55,16.6,1.477,7.532,3.411,8.057,14.33,11.94,1.224,9.374-3.61,3.875,16.19,11.96,2.798,10.71,10.96,3.786,30.79,4.141,49zm-158.2-57.4c-8.544-13.12-14.49,16.65-5.551-1.571l3.03-0.3222,2.52,1.893zm-11.9,7zm11.2,1.399zm14,0.701zm15.4,0zm17.5,1.4zm-60.9-2.101zm81.2,2.101zm18.9,1.399zm-96.6,0.701c1.687,12.67-7.04,34.14,1.4,42-2.068-10.76,5.075-40.71-1.4-42zm7,42c10.75-4.291,4.542-33.77,4.84-44.1-3.363,13.38,0.5089,30.18-4.84,44.1zm15.4-0.701c11.85-2.184,4.391-34.17,5.54-43.4-7.296,7.197-1.457,31.34-5.54,43.4zm15.4,0.701c11.59-2.328,4.838-34.66,4.84-44.1-5.128,9.574-0.8876,31.06-4.84,44.1zm77-41.3zm-121.8,30.8c-2.478,26.16,6.529-25.12,1.4-32.9-0.8536,10.95-0.6792,21.94-1.4,32.9zm62.3,11.2c14.32-0.4713,3.553-34.61,6.24-43.4-7.522,7.21-1.131,31.41-6.24,43.4zm24.5-43.4c1.836,13.14-8.546,40.75,0.8963,44.12-1.221-11.43,6.694-37.68-0.8963-44.12zm51.8,2.8zm-37.1,42c11.78-0.2678,4.834-33.9,5.54-43.4-7.209,7.215-1.184,31.34-5.54,43.4zm51.1-42zm-33.6,43.4c15.15,1.734,5.029-34.35,6.939-43.4-9.585,3.782,0.1101,33.35-6.939,43.4zm45.5-40.6zm-25.2-1.4c3.071,13.28-10.32,41.35,3.5,44.1-4.785-11.42,8.222-41.81-3.5-44.1zm38.5,4.199zm-23.8-1.4c-0.4244,10.5-6.607,53.6,2.308,37.53-3.361-9.42,6.897-34.83-2.308-37.53zm11.2,0c2.991,12.94-10.08,39.85,2.8,43.4-3.665-11.6,8.385-39.43-2.8-43.4zm5.6,44.1c10.34-1.021,4.59-32.49,4.201-42-3.057,13.81-0.006,28.38-4.201,42zm-93.81-39.2c-11.82,9.383-7.649,46.02,5.891,25.84-0.8718-7.512,6.749-26.47-5.891-25.84zm13.3,32.2c22.59,9.593,8.177-53.28-0.2718-20.22-0.7906,6.727-0.1476,13.5,0.2718,20.22zm-38.5-1.4c20.74,7.36,11.58-50.18,0.4459-18.65-1.429,6.11-1.139,12.46-0.4459,18.65zm58.1,2.799c11.14,3.764,9.435-28.26,5.563-29.57-10.15,4.329-8.109,21.03-5.563,29.57zm70,4.201c0.2586-13.84,2.013-47.09-0.6316-15.39-0.3171,5.115-0.6762,10.37,0.6316,15.39zm-143.5-7.7c18.22,3.353,3.466-42.32-0.5235-11.08-0.2873,3.697-0.03701,7.418,0.5235,11.08zm93.11-21.7c1.945,9.309-1.97,41.6,6.88,17.73,0.3468-4.06,1.896-25.44-6.88-17.73zm-107.8,21.7c10.71,4.406,7.664-29.2,0.03113-9.895l-0.9667,5.047,0.9356,4.848zm124.6-1.399c-6.958,17.96,13.86-6.358,0.7-13.3-3.818,3.577-0.9057,9.02-0.7,13.3zm-47.6,5.6c-34.62-1.734-69.77-7.545-104.1-1.102,20.42,4.197,65.46-0.6757,95.26,3.005,27.08,0.2657,79.19,8.176,90.23,6.201-26.8-5.181-54.15-6.56-81.34-8.105zm-46.21,27.3c9.674,10.78-13.08,20.05-16.1,4.9-8.41,9.401-7.406,57.42,4.074,26.71,14.3-9.054,20.11,19.75,4.852,3.657-5.305,1.132-13.35,14.13-11.6,10.37,17.32,3.883,30.86,2.241,26.28-19.03-0.2321-13.45-8.41-27.08,12.1-21.01,13.15-26.03,31.03,13.11,8.519,8.63-13.62-16.9,3.549,15.28,11.78-2.332-7.582,21.15-23.48-14.19-22.55,11.05-9.593,20.45,37.94,20.93,28.56-1.23-8.359-17.46,2.382-13.23,14.07-17.04,11.22-9.554,3.378-6.828-4.684-1.184,0.6228-24,36.83-0.4507,24.01,0.1381-8.818-10.39-10.68-4.318-1.612,3.362-4.649,9.931-11.49,11-18.2,4.9,7.185,17.68,24.48-8.259,30.23-5.112-4.214-21.85,31.04-5.091,14.55-2.222-8.868-2.401,18.15,18.88,11.96-2.77,1.07-21.11-39.09-14.78-56.64-19.16-34.52-0.5547-69.34-6.977-103.7-2.23-17.56,4.601,0.5492,41.29,7.5,14.87,6.228,3.501,19.93,16.9,29.63-0.1407,15.1-4.724-27.88,5.769-6.678-6.506,13.18-10.25,29.39,26.21,13.64,11.37zm-34.3,7zm21.7-1.399zm43.4-4.201zm29.4,7.701zm-95.21,2.8zm4.2-5.6zm-31.5,1.401zm22.4-0.7zm45.5,2.101zm37.8,2.1c23.08,4.549,8.469-9.216,0-0.5789v0.5789zm-86.11,19.6c19.24,9.536,17.39-27.78,5.25-19.6-6.614-8.159-5.102,15.49-5.25,19.6zm14.7-13.3zm123.9-2.799zm-145.6,3.5zm58.8,2.799c15.95,4.429,1.906-22.93-0.08113-5.519l0.08113,5.519zm70.7-7.7zm-136.5,4.9zm163.8-3.5c16.64,2.492,8.562-4.942,0-1.341v1.341zm-60.2,7.699zm20.3,0c-14.59-24.92-21.45,26.85,2.887,15.31,18.62,8.859,13.81-44.7-2.887-15.31zm30.8,1.4c-11.4-17.42-14.16,25.66,5.44,15.4,10.58-2.423,3.251-41.94-5.44-15.4zm-15.4,1.401c16,2.921,1.156-22.2-0.1514-5.449l0.1514,5.449zm10.5-10.5zm28,1.4zm-11.9,10.5zm-163.8,50.4c1.105-16.3,4.083-50.11,2.271-55.55-2.666,18.4-4.404,37.1-2.27,55.6zm175.7-48.3zm-185.5,51.1c17.49,3.2,2.105-32.5,9.108-44.9,4.528-12.8-8.617-23.2-5.342-4.2-0.602,16.4-1.002,32.9-3.766,49.1zm36.4-60.9c2.081,21.92-7.65,53.72-0.8515,69.18,9.839-13.93,3.294-47.65,7.152-69.18l-3.15,0.00087-3.15,0.00013zm-21.7,0.701c0.8914,20.92-7.144,47.32-0.8179,64.87,9.175-11.3,3.291-44.86,6.418-64.87h-5.6zm166.6,20.3c8.417-4.299-0.8662-32.96-0.6266-8.34l-0.2724,4.907,0.899,3.433zm-113.4,51.1c21.84,5.606,4.094-32.98,11.66-46.7,5.849-11.11-5.082-35.27-7.134-13.7-0.8049,20.16-0.5822,40.52-4.526,60.4zm78.4-64.4c3.191,20.23-8.717,53.44,0.7136,65.01,6.976-13.4,4.699-47.58,4.127-65.01h-4.841zm27.3,1.399c1.743,19.48-8.368,50.17,0.0666,62.33,6.544-13.83,6.045-46.57,3.007-62.25h-3.1zm11.9,2.101c1.407,18.43-6.601,44.51-0.00038,58.2,3.525-12.79,6.149-45.65,1.979-58.2h-1.46-0.5189zm-165.2,17.5zm60.9-9.801c-13.17,26.18,45.64,19.25,24.57,0.5382-8.22-0.4-16.41-0.8-24.61-0.5zm36.4,22.4c19,7.479,36.72-5.685,23.81-21.02-14.27-1.122-28.9-5-23.81,15.25l-0.007,5.768zm35,1.4c18.03,5.886,20.66-5.115,18.9-21-20.9-3.378-19.29,1.5-18.9,21zm29.4,1.399c4.55-13.18-2.382-33.57-2.861-9.291-0.498,2.913-0.6206,7.829,2.861,9.291zm-111.3-14c-11.32-0.3624-41.28-2.102-14.1,1.148,4.708,0.1204,9.529,0.1303,14.1-1.148zm-50.4,34.3c21.42,9.352,15.08-52.09-0.06058-29.78-0.3104,9.898-2.34,19.98,0.06058,29.78zm23.8-29.4c11.19,2.48,37.58-0.9509,12.44-1.588-1.498,1.018-20.8-2.462-12.44,1.588zm35.7,35.7c19.42,5.345,33.05-2.691,28-24.68,5.889-14.74-37.58-16.8-28.45,2.604-0.4671,7.339-0.8656,14.79,0.4483,22.07zm-37.8-3.5c18.93,6.263,32.44,0.3936,27.7-21.65,4.861-13.25-36.92-15.68-28.26,2.532-0.3781,6.359-0.8136,12.84,0.5542,19.12zm74.9-24.5c-2.679,15.52-2.739,34.62,17.46,28.7,14.28-2.032,14-38.62-7.591-28.33-3.287-0.1826-6.576-0.3498-9.869-0.3685zm35.7,1.399c-7.264,14.52,5.104,38.23,16,19.67,3.747-16.21,3.144-22.13-16-19.67zm27.3,23.1c6.438-11.07-1.174-34.54-1.652-10.42l0.2626,5.622,1.39,4.8z"/>

<text x="50" y="-350" transform="rotate(-50)" class="ttx">The Statue</text>
<text x="55" y="-320" transform="rotate(-50)" class="ttx">of Liberty</text>
<g id="liberty" transform="rotate(-50) translate(-510 -930)">
<polygon points="484.2,651.5,539.6,651,542.3,651.5,543.2,657.1,543.2,657.1,483.8,657.5" transform="translate(0,-5.22573e-6)"/><path d="m488.5,649.7,50.68-0.673-1.718-24.52s-0.747-0.654-3.663,1.812-0.336-1.794-0.336-1.794-1.159-5.177-1.309-5.55-1.047,0.299-1.047,0.673,0.076-1.943-0.148-2.168c-0.225-0.224-0.972-1.868-1.943,0.598-0.973,2.467-2.842,24.44-2.842,24.44s0.076,4.561-0.299,4.859c-0.373,0.299-4.484-3.514-4.484-4.187s4.933-23.17,4.635-23.99c-0.299-0.822-5.905,4.56-7.475,4.335s0.373,17.49,0.073,17.64c-0.298,0.149-3.139,2.766-3.886,3.14s1.495-16.44,1.495-17.72c0-1.271-4.859,6.203-5.232,8.521-0.374,2.316-0.972,0.616-1.646-0.3-0.346-0.47,1.271-6.577,1.122-6.802-0.15-0.225-2.691,0.897-2.99,1.346-0.3,0.448-2.691,12.86-4.56,14.28-1.869,1.419-0.3-7.774-0.897-8.074-0.599-0.299-3.364,2.393-3.364,2.393s0.524,9.194-0.073,9.867c-0.598,0.672-1.57,0.448-1.944,0.149-0.373-0.299,1.944-5.233,1.794-5.83-0.149-0.6-0.224-1.347-0.598-0.897-0.373,0.448,0.299-1.794-0.074-2.019-0.374-0.225-1.196,0.225-1.196,0.225s-2.766,6.876-3.364,7.475-4.261,1.048-4.709,2.767z"/><path d="m483.5,459.5c0.149-0.599,0.598-1.57,0.972-1.645,0.373-0.075-0.299-2.467-0.299-2.467s6.203-0.896,6.728,0.897c0.523,1.793-0.075,1.793-0.075,1.943,0,0.148,3.065,3.662,2.018,11.96-1.046,8.298,3.065,21.53,2.318,26.61-0.748,5.083-1.196,5.83-1.944,8.671-0.747,2.841-2.018-11.36-2.915-12.26-0.896-0.897-1.346-4.187-0.449-4.41,0.897-0.225,1.646-2.243,2.094-2.617,0.449-0.373-1.645-10.61-1.795-11.06,0,0-1.12,2.766-2.241,1.122-1.122-1.646,0.598-4.337,0.447-4.935-0.148-0.599-0.224-4.41,0.076-4.783,0.299-0.374,0.373-2.393,0.148-2.467-0.225-0.076-1.644,0.373-2.392,0.448-0.747,0.075-1.57-2.018-0.972-2.018s-0.673-1.795-0.747-2.243-0.972-0.745-0.972-0.745z"/><path d="m487.2,499.9c0.454,0.044,0.674,8.222,0.674,8.222s0.747,3.589,1.196,4.261c0.448,0.673-0.598,2.094-2.019,2.242-1.421,0.15-2.093-0.074-2.093-0.074-0.149-0.074-0.448,3.962-0.522,4.187-0.076,0.225-2.916-1.943-2.842-4.784s3.29-14.28,5.606-14.05z"/><path d="m532.3,549.4c-0.232-0.23,6.503-9.698,6.503-9.698l1.345,0.336,0.225-2.13,13.12,5.494-1.457,1.178,0.896,1.065-2.019,2.689s2.916,2.86,2.635,4.485c-0.279,1.626-8.576,10.15-9.362,10.31-0.783,0.169-5.046,8.13-5.046,8.13l-3.195-0.448s-1.682-10.2-3.026-11.38c-1.346-1.178-1.121-2.13-0.841-3.308s0.391-6.557,0.224-6.726z"/><path d="m520,526.4c-0.298,0.299-12.86,29.75-13.3,31.1-0.448,1.347-3.14,12.86-7.475,19.88-4.337,7.026-5.084,10.76-5.232,13.3-0.15,2.542,0.896,6.129,0.747,7.624s-4.336,6.578-4.484,9.419c-0.15,2.841,0.448,2.989,0.448,2.989s5.381-3.139,7.475-4.634c2.093-1.495,11.51-16.89,12.26-23.77,0.748-6.876,4.036-16.44,4.485-17.49,0.448-1.046,4.933-18.99,4.784-20.78-0.15-1.793,0.598-15.85,0.598-15.85l-0.3-1.794z"/><path d="m490.6,612.7s21.03-14.12,23.85-22.8l1.638-2.249c0.296-0.598-4.875,18.1-7.408,20.95-2.531,2.85-3.72,4.945-4.163,6.742-0.442,1.795-3.555,10.03-4.741,13.02-1.187,2.995-2.222,6.287-2.516,8.081-0.292,1.796-8.201,6.456-9.252,5.114s-0.607-2.988-0.607-2.988-2.245-0.89-0.16-3.438c2.084-2.548-0.091-2.831-0.067-3.465,0.036-0.961-0.14-13.88,3.43-18.97z"/><path d="m521.8,581.5s-0.448,36.22-1.346,38.35c-0.897,2.131-9.531,3.251-13.12,6.951-3.588,3.7-4.821,6.055-6.84,7.624-2.018,1.57-2.914,3.588-2.691,3.028,0.225-0.561,7.737-19.96,13.01-26.8,5.27-6.84,4.037-13.46,5.157-15.92,1.122-2.466,4.261-12,5.831-13.23z"/><path d="m524.2,561.2c0,0.336-0.56,49.33-0.56,50.23,0,0.897,13.9-7.399,15.02-8.969,1.121-1.57-5.719-32.18-6.391-36.78-0.673-4.597-2.354-13.56-3.028-14.35-0.673-0.785-1.008,6.391-2.242,6.727-1.234,0.337-2.803,3.14-2.803,3.14z"/><path d="m521.4,526.1s8.185,7.85,9.754,17.49c1.569,9.643,0.094,3.345-0.112,3.701-0.356,0.615-1.569-3.701-3.363-2.243-1.794,1.457-2.578,1.682-2.578,2.131,0,0.448-0.225-9.756-0.225-9.756l-3.476-11.32z"/><path d="m485.5,520.4s8.186-3.7,9.082-4.709-7.624,9.979-8.857,9.867c-1.234-0.112-2.354-0.449-2.018-0.897,0.336-0.449,0.448-2.467,0.783-2.579,0.337-0.112,1.01-1.682,1.01-1.682z"/><path d="m515.6,523.9c-0.112,0.336-9.53,10.54-13.34,13.01-3.812,2.466-8.521,8.856-9.754,11.32-1.234,2.467-4.934,8.298-5.495,9.979-0.56,1.682-0.896,3.588-0.672,5.045,0.225,1.458,0.813,2.528,1.233,2.916,0.486,0.448,2.316,0.747,2.878,0.523,0.561-0.225,1.495-0.748,1.495-0.748s3.699-19.51,4.709-19.73c1.008-0.225,0.897,3.252-0.337,5.831-1.232,2.578-1.009,3.026-1.12,3.476-0.112,0.448,0.223,0.896,0.223,0.896s14.69-22.31,15.47-24.22c0.786-1.905,4.71-8.297,4.71-8.297z"/><path d="m508.9,545.1c-0.335,0.337-19.96,30.27-20.18,33.52-0.224,3.252,0.672,3.477,1.233,3.925,0.561,0.447,2.467,0,2.803-0.225,0.337-0.224,1.682-4.036,1.682-4.036l14.46-33.19z"/><path d="m494.2,534.4c-0.449,1.009-6.615,5.157-6.279,6.055,0.337,0.897,0.562,1.794,1.009,1.794,0.448,0,0.673,0.111,0.785,0.561,0.112,0.448,0,0.561,0.225,1.232,0.225,0.674,0.897,2.243,0.897,2.243l3.363-11.88z"/><path d="m518.6,506.4c0.262-0.037,1.943,0.038,1.569-0.747-0.323-0.679-0.925-2.981-0.766-4.17l11.53-0.427s-8.232-1.626-11.04-2.153c-0.003-0.479-0.04-0.965-0.1-1.405l10.32-4.142s-8.858,1.458-11.14,1.799c-0.423-0.799-0.861-1.462-0.861-1.462-0.108-0.099-0.216-0.194-0.325-0.287l7.538-7.897s-7.705,5.358-9.502,6.564c-0.993-0.52-1.985-0.821-2.948-0.962l0.267-10.46c0,0.189-2.192,8.025-2.869,10.44-1.366,0.164-2.6,0.577-3.594,1.019l-7.291-7.495,5.089,8.714c-0.197,0.137-0.305,0.22-0.305,0.22-0.629,0.447-1.169,0.907-1.634,1.373l-8.756-0.141,0.148,1.196,6.786,1.467c-0.25,0.523-0.428,1.041-0.547,1.545l-2.875,0.352,0.024,0.08c-0.688-1.119-1.294-1.8-1.294-1.8s0.522,2.916,0.073,5.906c-0.448,2.989-8.146,12.11-8.146,12.11s-0.374,0.822,2.317,0.523c2.69-0.3,7.4-3.364,8.745-8.521,0.648-2.488-0.025-4.905-0.896-6.743l1.852,0.295c0.11,2.19,1.062,3.757,1.062,3.757,0-0.149,2.467-2.916,3.176-2.729,0.71,0.188,4.337-1.645,4.523-1.457,0.187,0.187,1.719,1.42,1.719,1.42s1.495,0.71,1.495,0.859,0.075,3.738-0.112,3.774c-0.188,0.038-0.747,0.188-0.747,0.188s-0.262,1.867-0.523,1.793c-0.262-0.075-0.336,0.448-0.486,0.598-0.149,0.15,1.309,1.234,1.309,1.234s0.485,1.493,0,1.531c-0.487,0.038-0.785,2.019-0.449,2.393,0.337,0.373,0.973,0.373,1.158,0.336,0.188-0.037,0.71,0.412,2.243-0.262,1.532-0.673,3.887-7.475,3.887-7.475s0.115-0.709,0.376-0.747zm1.72,13.46c0.037-0.112-1.309-5.157-1.121-5.27,0.187-0.112,0.672-0.448,1.009-1.233,0.336-0.785-0.71-2.505-0.71-2.579s-0.822-3.102-0.822-3.102c0,0.187-3.215,7.25-3.215,7.25s0.149,3.438,0.225,3.775,1.346,0.112,1.346,0.261c0,0.15,0.149,2.691,0.224,2.691s0.411,0.411,0.859,0.038c0.449-0.374,2.542-0.225,2.542-0.225s-0.374-1.494-0.337-1.606zm-32.4,12.86c-1.457,0.785-1.232,0.897-1.009,1.234,0.224,0.336,0.448,1.008,0.448,1.008s-0.561-0.56-0.896,1.122c-0.337,1.682-0.449,2.13-0.112,2.242s7.288-4.036,8.409-6.84c1.121-2.803,5.157-13.9,5.157-13.9-0.112,0.45-10.54,14.35-12,15.14zm7.961-13.34,3.812-9.307c-0.112,0.449-5.831,7.177-6.504,10.54-0.672,3.363-1.345,4.036-1.794,4.821-0.449,0.784,4.486-6.054,4.486-6.054zm14.58,1.345c-0.448-0.112-1.346-0.898-2.354-1.794-1.01-0.897-3.813-4.821-3.813-4.821-0.783-2.019-3.587-3.925-2.914-3.028,0.672,0.897-0.561,11.89-0.785,12.56-0.225,0.672-4.821,13.9-4.485,13.45,0.337-0.448,1.347-1.346,2.804-2.243,1.457-0.896,0.785-2.354,1.009-4.483,0.225-2.132,0.673-1.795,1.458-3.589,0.784-1.794,2.579-1.906,3.924-2.354,1.346-0.448,4.261-1.121,4.71-1.233,0.446-0.113,0.893-2.356,0.446-2.468z"/><path d="m482.6,454.3s5.326-2.522,9.279-0.084c0,0,2.522,0.589,4.345-2.243,0,0-0.281-1.541-4.429-2.242-4.149-0.7-7.457-0.028-7.457-0.028s-3.587,0.701-4.737,2.047c-1.148,1.345,2.999,2.55,2.999,2.55z"/><path d="m480.7,450s6.055-3.925,14.41-0.28c0,0,0.112-2.327,0.645-2.523s-7.597-3.336-15.28-0.225c0-0.001,1.094,1.374,0.224,3.028z"/><path d="m485.3,442.8c0.001,0.004,0.601,0.311,0.755,0.403,1.262,0.934,5.069-0.393,5.069-0.393s5.181-2.861,4.407-9.589c0,0,0.061,2.043-2.196,3.912-0.212-0.966-0.499-1.765-1.061-2.889-0.268-0.535-0.501-0.978-0.701-1.38,0.056-0.065,0.113-0.127,0.17-0.184,1.004-1.006,5.95-5.259,1.12-16.74,0,0,0.696,8.119-1.044,9.511s-9.395,4.64-9.163,11.13c0.233,6.495,1.24,5.282,2.652,6.224"/><rect height="11.44" width="68.28" y="661.7" x="478.3"/><rect height="12.11" width="79.04" y="676.2" x="474.9"/>
</g>

<text x="50" y="-350" transform="rotate(-100)" class="ttx">Sydney Opera</text>
<text x="100" y="-320" transform="rotate(-100)" class="ttx">House</text>
<g id="sydney" transform="rotate(-100) translate(-150 -790)">
<path d="m40.81,479.5s27.68,27.68,27.96,28.05c0.282,0.376,4.598-1.031,4.598-1.031l0.188-1.783,4.784,1.125,3.002-0.468,0.376-7.881-12.38-13.79c0.001-0.001-19.98-5.911-28.52-4.222z"/><path d="m66.8,468.1,15.86,23.74s5.254-14.92,5.817-15.1c0.564-0.188-13.04-9.664-21.67-8.632z"/><path d="m85,450.5c-0.297,0.005,15.01,25.52,15.01,25.52l5.254,0.751,5.441-9.947s-18.86-16.42-25.71-16.33z"/><path d="m172.3,487.5s30.87,26.08,30.68,30.49l1.877-0.469s2.157-27.86-3.003-36.12c0,0-15.86-7.13-29.55,6.099z"/><path d="m214.4,500.1,19.98,19.42s3.471-0.469,3.377-1.22c-0.095-0.75-0.095-0.75-0.095-0.75l9.007,0.281,3.847,5.255,3.19,0.656c0.094,0.656,0.188,0.28,0.188,0.28s5.442-22.7,4.316-23.92c0,0-20.92-1.406-27.4,5.349,0.001,0.001-11.63-6.098-16.42-5.348z"/><path d="m89.13,477.4,44.38,36.22s2.909,1.969,3.659-4.035c0,0,11.45,2.532,12.1,3.003l6.005,7.224s-6.849-12.67-10.41-16.98c-3.566-4.317-20.36-15.48-24.3-17.92-3.94-2.439-12.29-10.04-31.71-7.506"/><path d="m105.7,477,2.814,0.562s5.348-8.817,6.287-9.662c0.938-0.845,11.35,7.692,11.73,8.35,0.375,0.656,8.727,9.288,9.946,10.7,1.219,1.406,20.36,32.46,20.55,33.21,0.188,0.75-7.13-16.51-10.13-22.14-3.001-5.63-12.2-16.51-12.76-17.26-0.563-0.75-18.58-18.39-20.55-17.45-1.973,0.941-7.603,12.57-7.883,13.7z"/><path d="m139.1,473.3s19.52,17.45,21.7,21.14c2.19,3.689-13.01-26.02-15.26-26.4-2.251-0.376-6.505,4.628-6.442,5.254z"/><path d="m132.6,443.3s41.16,38.78,40.28,77.81l-0.125,2.502,1.376,0.501s1.125-15.64,0.625-20.27c-0.501-4.628-4.379-17.64-5.379-19.64-1-2.001-8.006-17.39-12.14-22.27-4.126-4.878-18.14-18.39-24.64-18.64z"/><path d="m131.2,443.7,3.251,2.503s-8.005,16.01-7.38,18.64l-3.252-1.125s3.503-15.51,7.381-20.02z"/><path d="m136.4,450.8,2.627,2.627s-6.381,13.14-6.568,13.98l-2.251-1.313s4.972-14.45,6.192-15.29z"/><path d="m85.38,506.1s3.565,4.504,4.785,5.066c1.22,0.563,28.43-2.064,29.18-2.44,0.75-0.374-9.946-4.598-11.45-5.254-1.5-0.656-8.538-1.22-9.758-2.908-1.219-1.688-1.313,0.094-1.313,0.094s-10.7,5.63-11.45,5.442z"/><path d="m90.26,480.9s5.348,3.097,6.099,4.129c0.75,1.032,0.75,5.16,0.75,5.16s-9.665,11.07-10.42,13.23c-0.75,2.159-3.753,2.347-3.753,2.347s0.657-16.89,7.319-24.86z"/><path d="m81.25,506.2c0.392,0.066,3.565,5.348,3.939,6.287,0.376,0.938-18.39-1.313-19.04-1.689-0.656-0.376,7.319-5.911,15.11-4.598z"/><path d="m42.97,483.1s24.02,24.77,24.11,25.24c0.094,0.469-3.566,1.219-3.566,1.219s0-4.033-1.032-4.691c-1.031-0.657-13.7-6.567-14.45-6.381-0.75,0.189-5.066-15.39-5.066-15.39z"/><path d="m47.38,499.6s12.48,4.41,13.04,5.442c0.563,1.032,0.938,2.628,0.938,2.628s-26.27,1.594-26.74-1.972c0,0,7.131-2.345,8.164-2.064,1.03,0.282,4.596-4.034,4.596-4.034z"/><path d="m174.9,522.8,0.093,1.219s27.4-1.969,28.05-2.908c0.656-0.938-3.706-7.599-3.706-7.599l-7.74,4.128s-10.27-5.208-11.31-4.645c-1.032,0.562-5.441,9.429-5.394,9.663"/><path d="m68.96,517.5s47.48,5.816,49.07,4.69l0.094,2.627s-47.57-2.908-49.35-4.69l0.189-2.627z"/><path d="m64.27,523.8s43.25,6.756,53.76,5.629l0.094,2.346s-53.57-3.564-54.04-5.817l0.187-2.158z"/><path d="m59.39,532c-0.151-0.303-2.721,2.438-2.721,2.438s36.87,8.009,61.36,7.698c0.094-0.002,0.188-0.002,0.281-0.005l0.094-3.472c0,0.001-57.7-4.032-59.02-6.659z"/><path d="m36.92,511.1,0.047,1.737-1.971,0s2.72,2.438,19.52,3.847l-0.094-2.582c0.001,0-17.03-0.75-17.5-3.002z"/><path d="m0.938,532s29.08,6.567,31.34,5.816c2.252-0.751,23.83,2.252,25.71,2.064,1.877-0.188,36.4,2.251,36.97,2.439,0.562,0.188,0,5.441,0,5.441s-94.58-4.126-94.95-10.32v-5.817l0.938,0.376z"/><path d="m101,543.8,0,6.006s-1.126,3.377,58.55,0l0.187-6.944s-38.28,5.629-58.73,0.938z"/><polygon points="272.7,544.8,273,538.7,187.3,541.9,187.3,541.9,187.5,547.8" transform="translate(0,-5.22573e-6)"/><polygon points="272.8,535,273,529,256.7,529.6,256.7,529.6,256.5,534.2" transform="translate(0,-5.22573e-6)"/><polygon points="183.9,539.9,183.9,532.2,181.1,532.2,181.1,532.2,180.9,539.3" transform="translate(0,-5.22573e-6)"/><polygon points="216.9,537.2,219.2,536.9,219,532.9,216.2,527.9,212.2,528.6,212.2,528.6,211.7,537.1" transform="translate(0,-5.22573e-6)"/><polygon points="225.4,537.4,222.6,537.6,222.4,531.2,222.4,531.2,225.2,531.2" transform="translate(0,-5.22573e-6)"/><polygon points="204.4,526.5,204.5,528.6,171.7,529.9,161.4,530.7,151.2,531,151.2,529.2,151.2,529.2,172.1,527.5" transform="translate(0,-5.22573e-6)"/><polygon points="246.4,528.6,225.4,528.8,225.2,526.2,225.2,526.2,246.2,526.2" transform="translate(0,-5.22573e-6)"/><path d="m34.34,517.2c0,0.751-0.751,5.255-0.751,5.255l-3.189,2.439-3.003-1.313-1.876,1.501-1.313-0.938-1.688,1.501-1.689-0.563-2.815,1.688-1.502,0.564-0.562,1.312s-7.506-0.75-11.26,0.188c0,0,44.47,5.066,49.16,3.565,4.69-1.502-4.879-2.439-4.879-2.439l-3.19-3.754-3.377,1.313-1.689-2.627-3.564,1.126-0.752-2.251-1.125-1.126,0.187-5.443h-1.129v0.002z"/>
</g>

<text x="50" y="-350" transform="rotate(-155)" class="ttx">Taj Mahal</text>
<g id="taj" transform="rotate(-175) scale(0.8) translate(-250 -650)">
<path d="m60.4,183.3,0-4.437s6.155-5.871,6.729-5.871c0.573,0,5.726,3.58,6.299,4.724,0.572,1.146,0.716,5.727,0.716,5.727l-13.74-0.143z"/><path d="m60.87,188.5s7.253-3.533,12.79,0.381l0.669,7.635s-7.636-2.098-14.13,0.763l0.669-8.779z"/><path d="m60.78,203.4c0.095-0.286,8.111-4.581,13.84-0.19l1.812,39.04h-17.08l1.431-38.84z"/><path d="m57.67,198.5s10.95-4.295,19.76,0.429l0.143,2.79s-10.31-3.936-18.97,0.573l-0.93-3.792z"/><polygon points="79.36,246.8,56.67,246.4,56.53,243,56.6,242.8,56.6,242.8,79.36,243" transform="translate(0,-5.22573e-6)"/><path d="m58.77,250c0.095-0.286,10.02-5.057,17.94,0.192l1.622,31.49,3.15,0.573-0.191,4.771-3.245,1.051s-7.54-5.344-19.37-0.095l-3.436-1.719,0.095-3.625,3.245,0.095,0.192-32.74z"/><ellipse d="m 245.75801,125.892 c 0,1.36469 -1.12153,2.471 -2.505,2.471 -1.38348,0 -2.505,-1.10631 -2.505,-2.471 0,-1.3647 1.12152,-2.471 2.505,-2.471 1.38347,0 2.505,1.1063 2.505,2.471 z" rx="2.505" transform="translate(0,-5.22573e-6)" ry="2.471" cy="125.9" cx="243.3"/><ellipse d="m 245.138,131.452 c 0,1.04713 -0.81708,1.896 -1.825,1.896 -1.00792,0 -1.825,-0.84887 -1.825,-1.896 0,-1.04714 0.81708,-1.896 1.825,-1.896 1.00792,0 1.825,0.84886 1.825,1.896 z" rx="1.825" transform="translate(0,-5.22573e-6)" ry="1.896" cy="131.5" cx="243.3"/><ellipse d="m 245.01899,117.708 c 0,0.92894 -0.76917,1.682 -1.718,1.682 -0.94882,0 -1.718,-0.75306 -1.718,-1.682 0,-0.92894 0.76918,-1.682 1.718,-1.682 0.94883,0 1.718,0.75306 1.718,1.682 z" rx="1.718" transform="translate(0,-5.22573e-6)" ry="1.682" cy="117.7" cx="243.3"/><ellipse d="m 244.67,110.837 c 0,0.91513 -0.63754,1.657 -1.424,1.657 -0.78645,0 -1.424,-0.74187 -1.424,-1.657 0,-0.91514 0.63755,-1.657 1.424,-1.657 0.78646,0 1.424,0.74186 1.424,1.657 z" rx="1.424" transform="translate(0,-5.22573e-6)" ry="1.657" cy="110.8" cx="243.2"/><rect height="29.7" width="1.288" y="108.4" x="242.6"/><path d="m223.4,150.5s17.82-12.02,19.9-16.11c0,0,17.68,13.17,20.54,14.1,2.863,0.931,0.429,1.002,0.429,1.002s-12.24-5.298-40.87,1.002z"/><path d="m198.9,205.2c-0.095-0.286-1.623-11.83-1.623-11.83s0.001-10.97,2.768-16.32c2.767-5.346,6.681-11.26,10.02-14.51,3.34-3.242,13.55-10.4,15.08-11.64,1.528-1.239,34.36-2.958,37.6-0.286,3.245,2.673,8.971,5.82,10.78,7.635,1.813,1.814,8.017,5.536,10.02,9.066,2.005,3.532,4.867,7.063,5.727,11.17,0.858,4.103,1.909,8.588,1.812,13.17-0.095,4.581,0,6.681-0.382,10.02-0.381,3.339-0.668,3.53-0.953,4.295-0.286,0.763-4.772-3.532-9.163-4.678-4.39-1.146-16.89-1.049-18.99-1.24-2.1-0.192-10.02-0.86-13.94-0.765-3.912,0.097-18.99,1.241-21.57,1.432-2.577,0.192-15.94,1.432-18.8,2.291-2.863,0.858-8.398,2.387-8.398,2.387v-0.193z"/><path d="m295.6,286.1,17.56,0-0.189-12.79s-4.581-3.627-7.444-4.2c-2.862-0.571-8.59,5.919-9.926,7.253-1.337,1.336-0.001,9.736-0.001,9.736z"/><path d="m329.7,286.5,11.31,0.144,0-18.61s-1.861-4.439-2.435-5.01c-0.572-0.574-9.449,17.18-8.875,23.48z"/><path d="m286.7,224.2c-0.1,0.19-0.215-6.44,0.716-7.945,0.932-1.501,9.949-10.24,12.53-12.02l0.286-9.806,0.645-0.144,0.572,9.95s9.948,4.938,12.38,9.377c2.432,4.437,2.289,9.09,2.361,10.45,0.07,1.36-28.2-2.29-29.49,0.142z"/><path d="m148.4,232.7c0-0.215,0.072-11.74,0.072-11.74s-0.86-0.142-1.003-0.429c-0.143-0.286,0.43-2.719,1.576-4.007,1.145-1.288,3.507,2.935,3.436,4.079-0.072,1.146-1.862,0.288-1.862,0.288l-0.143,11.95-2.076-0.143z"/><path d="m154.4,233.2h2.291l-0.286-4.581,0.93-0.07s-1.646-3.437-1.861-4.153c-0.215-0.715-2.577,3.581-2.433,4.08,0.143,0.503,1.359,0.429,1.359,0.429v4.295z"/><path d="m205.8,217.6s46.81-8.017,77.59-1.145v8.874l-77.3,2.146-0.286-9.875z"/><path d="m220.4,247.8,0.287,25.34,1.861,0.286s2.004-7.015,3.436-8.303,15.6-8.446,17.9-10.31c2.29-1.861,0.859-0.573,0.859-0.573s12.31,5.869,15.32,7.444c3.007,1.576,6.586,6.729,7.303,8.734,0.716,2.003,0.716,2.003,0.716,2.003l1.145-0.285v-24.91l-48.82,0.573z"/><path d="m238.8,286.2s8.016-2.434,10.02-4.583c2.005-2.146,4.582-0.429,6.012,0.144,1.433,0.573,12.6,6.729,12.6,6.729l1.574,0.573-0.287,33.93-40.23,0.571-0.287-24.91s1.002-4.866,3.436-7.3,6.729-5.013,7.16-5.154z"/><path d="m286.9,231.7-0.095,10.98,3.339-0.286s-0.762-10.31,0-10.88c0.764-0.57-3.244,0.193-3.244,0.193z"/><path d="m294.6,242.2,3.626,0.095-0.19-7.825s1.813-3.627,3.816-4.198c2.005-0.573,3.149,2.193,3.914,3.625,0.763,1.432,0.477,8.398,0.477,8.398l3.437,0.097,0.095-5.344,2.768,0.286s-2.768-7.063-3.913-7.542c-1.145-0.476-12.88-0.093-12.88-0.093s-2.004,1.62-2.958,1.62c-0.955,0,1.622,3.056,1.813,3.819,0.189,0.764-0.001,7.062-0.001,7.062z"/><path d="m316.6,233.7c-0.095-0.286,0,8.588,0,8.588l-3.436,0.097,0.19-4.678c0.001,0.001,3.341-3.721,3.246-4.007z"/><polygon points="319.7,229.6,320.1,242.8,322.3,242.8,322.2,231.8,322.2,229.3,323.8,229,321.3,226.1,321.3,226.1,318.5,229.2" transform="translate(0,-5.22573e-6)"/><path d="m286.3,244,35.5-0.571s20.52,2.291,21.38,3.244c0.86,0.956,1.241,2.291,1.241,2.291l-58.98-0.383-0.285-4.483,1.144-0.098z"/><path d="m416,177,0-4.437s6.156-5.871,6.729-5.871,5.727,3.581,6.299,4.725c0.573,1.146,0.716,5.727,0.716,5.727l-13.74-0.144z"/><path d="m416.5,182.2s7.254-3.534,12.79,0.379l0.668,7.636s-7.635-2.1-14.12,0.764l0.667-8.779z"/><path d="m416.4,197.1c0.095-0.288,8.112-4.581,13.84-0.19l1.813,39.04h-17.08l1.432-38.84z"/><path d="m413.3,192.2s10.95-4.295,19.76,0.43l0.143,2.792s-10.31-3.936-18.97,0.573l-0.931-3.795z"/><polygon points="435,240.5,412.3,240.1,412.1,236.7,412.2,236.5,412.2,236.5,435,236.7" transform="translate(0,-5.22573e-6)"/><path d="m414.4,243.7c0.096-0.286,10.02-5.059,17.94,0.19l1.622,31.5,3.149,0.573-0.19,4.771-3.246,1.049s-7.539-5.344-19.37-0.095l-3.437-1.717,0.097-3.626,3.244,0.095,0.192-32.74z"/><path d="m413.8,283.7s11.55-5.249,20.71,0.19l3.627,71.77s-14.89-16.13-18.04-17.28c-3.15-1.145-9.64-1.812-9.831-1.812-0.19,0,2.101-2.482,2.101-2.482l1.431-50.2v-0.192h-0.001z"/><path d="m373,221.7-0.143-1.216,2.435,0s-0.216-3.722-0.145-4.008c0.072-0.287,4.439-4.081,4.439-4.081l0.357-5.725,0.644,0.07,0.43,5.871s4.867,2.147,4.939,7.015c0.071,4.866,0,0.571,0,0.571l2.004,0.216,0.071,0.858c0.001,0-13.88,0.142-15.03,0.429z"/><path d="m375.1,222.7s7.588-1.576,10.56,0.035l0.215,7.623-10.95,0.108,0.177-7.766z"/><path d="m372.7,231.2s14.74-0.645,15.32,0.035l0.036,1.144-2.147,1.541,1.038,30.31-12.81,0.25,0.787-28.24,0.071-1.539-1.323-1.36-0.753-0.357-0.215-1.788z"/><path d="m371.9,265.3s17.68-0.536,18.11,0.037l-0.179,2.933-2.219,0.501,0.93,26.98-14.85-0.035,0.5-26.95-2.146-0.608-0.108-2.756"/><path d="m178.6,301.6c0.644,0.144,6.011-6.729,9.089-6.013,3.078,0.715,9.233,6.728,9.233,6.728s0.573,7.015,0,6.799c-0.572-0.213-6.656-3.866-6.871-3.362-0.215,0.499-2.291,1.503-4.366,1.933s-4.724,4.295-4.724,4.295v9.76l23.02-0.456-0.955-77.3-34.17,0.381-24.05,2.673,1.337,75.4,31.82-0.629,0.628-20.2zm-20.81-40.25c2.863-0.573,4.58,4.007,5.917,5.536,1.336,1.525,0,7.635,0,7.635l-3.626-3.437s-3.436-1.145-4.2-1.337-3.817-1.336-3.817-1.336,2.863-6.491,5.726-7.061zm6.632,48.27s-1.145-2.36-2.792-3.291c-1.646-0.932-3.436-0.288-5.296-1.076-1.861-0.785-3.508-3.075-3.508-3.075s2.291-3.938,5.01-5.369c0,0,4.868,2.075,6.084,5.154,1.218,3.078,0.502,7.657,0.502,7.657zm13.22-42.16c0.572-4.008,9.925-8.208,9.925-8.208,6.49,3.435,9.163,8.588,9.163,8.588s0.381,6.3-0.191,6.109c-0.573-0.192-2.672-3.819-6.872-3.246-4.199,0.571-9.353,7.254-9.353,7.254l-0.19,9.927-2.481-0.383c-0.001,0.001-0.574-16.03-0.001-20.04z"/><path d="m209.6,237.5,0.859,75.01,3.866,0.573,2.147-69.29,57.26-0.144,1.146,45.09,2.147,3.722s0.286,13.89-0.144,14.89c-0.43,1.002,1.862,4.295,1.862,4.295l1.146-0.142,0.143-74.44-70.43,0.43z"/><polygon points="219.3,322.4,219.6,318,207.6,317.7,207.6,317.7,207.4,322.1" transform="translate(0,-5.22573e-6)"/><polygon points="284.1,321.3,272.1,321.7,272.1,317.3,272.1,317.3,284.1,316.8" transform="translate(0,-5.22573e-6)"/><polygon points="292.2,321.6,288.3,321.7,288.3,317.7,288.3,317.7,292,317.5" transform="translate(0,-5.22573e-6)"/><polygon points="286.6,320.6,287.2,251.5,285,251.5,285,251.5,285.6,320.3" transform="translate(0,-5.22573e-6)"/><polygon points="346.1,231.6,346.1,249.4,326.1,245.1,326.1,245.1,335.5,231.2" transform="translate(0,-5.22573e-6)"/><polygon points="189.4,205.5,187.7,205.5,187.9,196,187.9,196,189.2,196.1" transform="translate(0,-5.22573e-6)"/><path d="m174.1,226.8,0.072-8.23s14.1-13.1,14.32-14.46c0.214-1.36,0.429,0.072,0.429,0.072s10.16,7.729,12.17,10.95c2.005,3.223,2.005,3.223,2.005,3.223l-0.144,8.301-28.85,0.142z"/><path d="m202.1,232.2-0.072-1.791,1.217,0-0.214-2.934-29.42,0.07s-2.577,0.573-3.436,1.647l3.936,3.506,0.072,10.6,28.99-0.072-0.071-10.95-1.003-0.068zm-9.807,10.09-7.874,0.072s-0.071-5.583,0-6.514c0.072-0.93,3.579-4.009,3.579-4.009,2.936,0.501,3.938,3.724,3.938,3.724s-1.146-0.861-2.291-1.075c-1.145-0.215-3.437,1.717-3.437,1.717l0.216,1.717,6.084,0.072-0.215,4.296z"/><path d="m144.1,233.7,2.434-4.794,1.754,4.295-0.072-0.538,8.375,0.359,0.214,3.149,4.367,4.188,0.178,2.504,1.611,1.109,0.071,1.432-7.659,1.647-10.38,0.752,0.322-13.1s-1.146-0.678-1.217-1.002z"/><path d="m169.3,227.7s-2.314,3.028-2.314,3.316c0,0.286,0.025,0.548,0.025,0.548l1.192,0.049-0.023,13.65,2.313,0.095,0.072-13.79s0.955-0.262,1.074-0.357c0.12-0.096-2.314-3.482-2.339-3.506z"/><polygon points="341.7,320.3,342.8,253.6,343.7,251.8,346.1,250.8,346.1,250.8,347.4,320.1" transform="translate(0,-5.22573e-6)"/><path d="m340.8,256.6,0.431-3.578-19.04-1.432,0.858,69.57,4.582,0-0.287-28.34,13.46,0.144-0.285-4.153-13.46-0.715-0.286-23.48s5.439-4.868,6.441-5.01c1.002-0.144,1.002-3.151,1.002-3.151l6.585,0.143z"/><path d="m339.4,300.5s-9.733,10.88-9.161,20.47h9.878l-0.717-20.47z"/><path d="m296,321.6,18.04-0.858-0.143-12.31s-6.586-3.007-8.303-3.437c-1.719-0.429-9.307,5.298-9.592,7.017-0.286,1.717,0.001,9.59,0.001,9.59z"/><path d="m293.6,292.6c-0.285,0.429,0.287,9.161,0.287,9.161s7.015-7.015,9.591-7.015c0,0,9.163,3.866,10.16,6.156l0.716-8.447-20.76,0.145z"/><path d="m293.9,265.6s7.873-6.585,10.02-6.871c2.147-0.288,8.876,4.724,9.448,6.154,0.573,1.434,0.716-8.732,0.716-8.732l-21.19-0.144,1.002,9.593z"/><rect height="17.46" width="2.004" y="217.8" x="340.4"/><rect height="8.112" width="1.432" y="227" x="334.1"/><path d="m334.9,227.4s-2.005-0.383-2.196-0.717c-0.19-0.332,2.244-2.434,2.387-3.005,0.143-0.573,2.005,2.671,2.101,2.91,0.094,0.239-2.292,0.812-2.292,0.812z"/><path d="m341.3,218.6s-2.004-0.383-2.195-0.717c-0.19-0.334,2.242-2.432,2.385-3.005,0.144-0.573,2.006,2.671,2.101,2.91s-2.291,0.812-2.291,0.812z"/><path d="m344.5,231.9s-2.005-0.383-2.196-0.715c-0.19-0.336,2.244-2.436,2.387-3.007,0.143-0.573,2.004,2.671,2.1,2.91,0.094,0.239-2.291,0.812-2.291,0.812z"/><path d="m57.43,317.2c4.817-3.844,8.977-8.507,14.42-9.002,4.083-0.369,6.415-1.342,7.867-2.176l-0.804-15.91c-9.162-5.441-20.71-0.192-20.71-0.192v0.192l-0.773,27.09z"/><path d="m371,334.4c0.09,0.361,0.072,0.033-0.026-0.675-0.021,0.271-0.017,0.504,0.026,0.675zm-20.61-1.529s-0.036-0.063-0.102-0.177c-3.017,6.067,0.102,0.177,0.102,0.177zm-111.5,23.29-0.092,0c-0.217,2.778,0.092,0,0.092,0zm148.9-56.12c-0.765-1.908-14.12-0.381-14.12-0.381l-0.383,22.14-253.4,2.669-0.19-22.52,2.194-1.432-0.094-2.578-2.673-0.285-0.954-25.39,2.672-1.908-0.477-2.958-2.863-0.381-1.336-29.11,2.481-2.102,0.191-2.767-2.292,0.288s0.095-0.67,0-1.336c-0.095-0.67,0.095-0.48,0-0.956s0.095-6.205,0.095-6.205l2.291-0.762-0.476-1.336-1.718-0.19-0.096-0.668c-0.667-2.863-5.726-7.156-5.726-7.156-4.962,3.242-5.631,8.301-5.631,8.301l-2.004,0.765,0.287,2.384,2.194,0.573,0.287,6.395-2.005,0.381,0.096,1.91,1.718,2.673-0.669,29.3-2.194-0.095-0.096,3.149,1.813,1.241-0.381,26.44-1.909,0.097,0.096,2.098,1.909,1.91-0.287,22.71,1.002,0.717,1.832,1.729c3.255,5.291,5.662,11.91,4.804,19.4,0.38-0.581,0.569-2.861,0.378-4.194-0.19-1.336,1.527-2.48,1.91-3.054,0.382-0.571-0.191-2.673-0.573-4.198-0.382-1.526-0.382-3.628-0.382-5.153,0-1.233,1.497-2.469,2.676-3.301l1.963-0.11c1.011,0.972,2.042,3.028,2.042,3.028l0.382,2.48,0.764,3.817-0.572,6.873,1.909-1.719,1.717-2.101s-0.572-4.58-0.764-5.534c-0.19-0.954,0.382-4.198,0.382-4.198s1.91-2.482,2.482-2.673c0.573-0.19,2.863-0.19,3.817,0,0.955,0.19,2.1,3.627,2.1,3.627l-0.191,6.298-0.19,7.827,5.536-0.381s0.19-2.675,0.19-4.01c0-1.337,0.191-4.581,0.573-6.109,0.381-1.525,3.245-3.244,4.009-3.054,0.763,0.192,2.862,2.673,3.436,2.292,0.572-0.383,2.481-2.482,4.2,0.19,1.717,2.671,0.572,5.344,0.572,5.344l3.245,0.192s0.382-2.102,2.862-4.392c2.482-2.291,4.391,0.573,4.391,0.573l1.528,6.681-2.483,10.5,3.628,5.152,7.062-0.19s-0.191-12.98,0.19-16.03c0.381-3.054,1.527-8.208,4.581-6.107,3.054,2.1,2.672,8.207,2.672,8.207l0.573,14.32,36.84-1.718,23.58,0.192c0.024-0.311,0.054-0.686,0.092-1.146,0.382-4.581,5.727-3.817,5.727-3.817,4.199,0,5.344,4.58,5.344,4.58l38.18-1.907v3.817l24.05-1.145s-1.146-4.963-0.382-16.42c0.765-11.45,7.254-3.054,7.254-3.054,1.145-7.635,5.344-3.817,5.344-3.817,1.527-6.107,14.89-0.383,14.89-0.383,4.246-10.97,10.13-1.601,10.97-0.177,0.147-0.295,0.304-0.611,0.482-0.967,3.817-7.637,7.635-2.291,8.017-4.2,0.383-1.908,8.018-2.29,9.544-2.29,1.165,0,2.33,6.22,2.646,8.488,0.167-2.16,2.274-7.131,4.988-8.488,3.055-1.527,4.582,8.017,4.582,8.017l3.436-1.907s1.527-7.256,2.672-8.4c1.146-1.144,2.291-1.907,2.291-1.907s-0.385-19.09-1.148-21z"/>
</g>

<text x="50" y="-350" transform="rotate(50)" class="ttx">The Pyramids</text>
<text x="80" y="-320" transform="rotate(50)" class="ttx">of Giza</text>
<g id="kahira" transform="rotate(50) scale(0.8) translate(-250 -366)">
<path d="m156.9,89.1s5.758,1.226,6.616-0.612c0.857-1.838-0.858-6.004-0.858-6.004s0.49-4.655,1.348-5.881c0.857-1.226,3.063-5.023,2.573-8.086s7.106-13.72,6.738-16.05l0.205-0.979,0.898,0.163,0.082,2.287s1.307,1.552,1.47,3.104c0.164,1.553,0.736,2.532,0.817,3.104,0.082,0.571-0.572,8.331-0.572,8.576,0,0.244,8.577,10.7,8.658,11.44,0.082,0.735,0.082,1.145,0.082,1.145s2.042,0.571,2.94,0.162c0.899-0.407,2.124-1.225,2.124-1.225l-0.164-0.653s-2.368-0.245-3.022-0.653c-0.654-0.409-6.126-8.821-6.126-8.821s-0.49-8.25,0.326-9.476c0.817-1.225,1.471-2.94,1.389-3.594-0.082-0.653,0.898-3.757,1.143-3.92s8.25-1.716,8.903-0.572c0,0-0.409,13.97-0.327,15.11,0.082,1.145,0.49,3.186,0.49,3.186s-0.49,16.17-0.817,17.15c-0.326,0.98,1.879-0.98,2.042-0.081,0.163,0.897,4.819-1.39,4.656-1.961-0.164-0.572-3.268-2.695-3.268-2.695l0.082-11.68s3.267-6.371,3.349-9.883c0.082-3.513,2.532-4.737,2.532-4.737l2.614-5.8,1.225-0.245s2.614-4.329,2.777-4.982,4.166-0.163,5.554-1.225c1.389-1.062,6.453-2.614,8.658-8.332,2.206-5.717,1.878-8.984,2.94-11.11,1.062-2.124,2.859-5.881,2.696-6.616-0.164-0.735,6.126-5.146,6.208-5.963s1.96-0.082,2.369-0.735,2.042-3.104,2.042-3.349-2.205-3.431-2.695-3.512c-0.49-0.082-6.616,2.042-6.861,2.532s-5.228,0.326-6.208,1.551c-0.98,1.226-2.042-1.143-2.042-1.143l-1.715,0.327,0.98,2.287,1.062,0.49-0.163,1.47s-1.389,3.921-2.124,8.985-3.839,10.37-7.27,10.94c-3.43,0.572-5.473-3.268-6.453-4.166s-0.571-2.288-0.571-2.288-3.757-5.717-3.921-5.717-0.245-1.144-0.245-1.144l-1.552-0.245-0.245,1.552s-7.27,1.551-9.066,3.349c-1.797,1.797-6.616,0.817-6.616,0.817l0.082-1.715-2.124-0.163-0.082,0.816,0.571,1.389-1.388,0.49s-4.411,5.881-6.453,9.475-5.146,8.086-5.146,8.086l-1.225,3.349-0.653,13.23s-0.245,5.554-0.898,6.779c-0.654,1.225-2.45,4.247-2.45,4.247s0.326,3.921,0.081,4.983-1.796,6.86-2.124,7.351c-0.325,0.491-3.756,4.656-3.878,6.086z"/><path d="m88.69,81.83,37.25-42.15,34.31,38.55-21.56,0.979s-26.47-2.287-32.67,0.98c-6.207,3.267-17.32,1.634-17.32,1.634z"/><path d="m214.1,60.03s23.52,1.961,27.2-0.245c3.676-2.205,31.37-59.79,31.37-59.79l-58.6,60.04z"/><polygon points="330.3,57.09,273.9,1.225,273.9,1.225,245.5,59.3" transform="translate(0,-5.22573e-6)"/><polygon points="344,19.11,342.8,18.87,317,40.92,317,40.92,329.8,53.17" transform="translate(0,-5.22573e-6)"/><path d="m346,19.6c-0.49,0.735-14.95,36.76-14.95,36.76s39.94-0.98,45.33-0.245c5.391,0.734,8.086-0.49,8.086-0.49l3.186-0.245-41.66-35.78z"/>
</g>

<text x="50" y="-350" transform="rotate(115)" class="ttx">Eiffel Tower</text>
<g id="eiffel" transform="rotate(115) translate(-320 -960)">
	<path d="M269.3,664.3s1.9,5.9,0.7,8.6c-1.2,2.6,99.1,1.4,99.1,1.4s-0.5-6.7,0.5-8.3c0.9-1.7,0.2-1.2,0.2-1.2l-100.5-0.5z"/>
	<path d="M280.3,654.3s18.5-51,18.5-52.6c0-1.7,2.4-1.5,2.4-1.5l-12.6,54.3-8.3-0.2z"/>
	<polygon points="295.5,596.7,299.6,594.3,342.2,595,346,596.4,346.5,594.3,342.4,592.9,300.3,592.4,295,593.6,295.5,596.7"/>
	<path d="M301.9,589.8l5.3,0.7,10.7-134.1-2.2,1.5s-4,51.6-4,53.8c0,2.1-9.3,77.4-9.8,78.1z"/>
	<path d="M321,438l3.6,0.2s-0.8-17.6-1-19.3c-0.2-1.6-1.2-0.9-1.2-0.9l-1.4,20z"/>
	<path d="M316.2,444.5c-0.5,0.5,5.3-10.7,12.6-1.6v2.2s-5.8-6.9-12.6-0.6z"/>
	<path d="M314.3,447.9l0.1,3.2,2.9-2.5h10.4l0.4,5.8s1.9-3.1,2.4-3.5c0.5-0.3,0.5-2.9,0.5-2.9l-2.3-2.3-11.9,0.2-2.5,2z"/>
	<path d="M321.7,456.4l1.9-0.4s-1.4,124.2,3.6,133.8h-12.9s11.2-131,7.4-133.4z"/>
	<path d="M298.1,654.5l3.1,0.3s9.5-42.9,9.3-42.4-2.4-0.2-2.4-0.2-9.3,41.9-10,42.3z"/>
	<path d="M329.8,613.1c0.7,0,2.4,0.5,2.4,0.5s13.5,37.4,14.3,39.7c0.7,2.4,0.7,1.7,0.7,1.7l-6.9,0.2-10.5-42.1z"/>
	<path d="M342.4,601.2c0,0.7,16.7,53.3,16.7,53.3l-3.6,0.7s-17.4-53.5-18.1-53.5,5-0.5,5-0.5z"/>
	<path d="M331.7,589.8h7.1s-11.1-127.6-11.1-128.6c0-0.9,3.5,127.9,4,128.6z"/>
	<path d="M297.5,597.4s1,1.1,0.9,1.7c-0.2,0.6,44.4,0.7,44.4,0.7s0.4-1.3,0.8-1.6c0.4-0.2-46.1-0.8-46.1-0.8z"/>
	<path d="M269.9,655.1c0.4,0,99.8,0.7,99.8,0.7s-1,1.6-1,2.5c0,1-95.9-0.2-96.3,0.5-0.3,0.7-2.5-3.7-2.5-3.7z"/>
	<path d="M269,675.2c-0.2,0.4-26.2,38.3-26.2,38.3s3,2.7,3.3,2.6c0.4-0.1,17.9-28.4,18.7-28.5s6.1-10,5.7-10.6c-0.3-0.6-1.5-1.8-1.5-1.8z"/>
	<path d="M273.1,738.8c0-0.5,6.6-21.1,18.2-29.3,11.7-8.2,21.1-9.6,22.2-9.7,1.1-0.2,11.1-0.2,15.6,0.8s18.9,9.2,20,10.6,7.5,10.5,9,12.7c1.6,2.3,4.4,11.1,5.1,15.9,0.8,4.7,1.1,7,1.1,7s-2-17.5-0.5-18.3c1.6-0.9,3.7-1.7,3.7-1.7s-8.2-15.6-22.8-27c-14.7-11.5-62.6-14.2-72.5,38.9l0.9,0.1z"/>
	<path d="M371.2,677.6s24.5,36.9,24.8,37.6c0.2,0.8-5.5,3.5-5.5,3.5l-20.6-40.7,1.3-0.4z"/>
	<path d="M270.5,688.3c-0.4,0.6-3,5-3,5l-2.5-3.9,5.5-1.1z"/>
	<path d="M257.5,701.4c0.3-0.1,4.4,0.1,4.4,0.1l2.8-4.9-7.2,4.8z"/>
	<path d="M255.8,703.7l4.4,0.4-3.3,4.5-1.3-4.6s0.3-0.5,0.2-0.3z"/>
	<polygon points="273.4,700.6,276.5,696.1,269.9,695.5,273.4,700.6"/>
	<polygon points="271.7,693.5,278.1,693.8,280.6,689.3,271.7,693.5"/>
	<polygon points="273.1,687.7,269.3,692.5,278.8,688.4,273.1,687.7"/>
	<polygon points="271.3,705,268,709.6,260,709.8,271.3,705"/>
	<polygon points="266.6,711.9,263.2,716.7,259.5,711.8,266.6,711.9"/>
	<polygon points="257.2,712.5,261,717.5,250.1,715.5,257.2,712.5"/>
	<polygon points="253.5,707.1,249,713.3,255.5,710.1,253.5,707.1"/>
	<polygon points="267.8,696.9,264.4,701.5,271.1,701.5,267.8,696.9"/>
	<path d="M302.5,604.6c0.4,0.3,1.6,2.1,1.6,2.1l0.5-3.8-2.1,1.7z"/>
	<path d="M300.4,601.6l1.7,2.1,2.4-2.2-4.1-0.8s-1.7,6.8-1.6,6.8c0.1,0.1,4.2,0.2,4.2,0.2l-1.3-2.5-2.1,0.9,0.8-4.5z"/>
	<polygon points="307,601.2,311,601.5,308.8,603.7,307,601.2"/>
	<polygon points="308.4,605.1,305.8,607.5,309.5,607.5,308.4,605.1"/>
	<polygon points="305.7,602.3,305.3,606.5,307.6,604.6,305.7,602.3"/>
	<path d="M311.3,602.8c0,0.1-0.4,3.7-0.4,3.7l-1.6-1.9,2-1.8z"/>
	<polygon points="313,602.5,312.3,606.7,315.2,604.7,313,602.5"/>
	<polygon points="314,601.4,319.2,601.5,316.5,604,314,601.4"/>
	<path d="M316.1,605.1c-0.2,0.1-2.9,2.4-2.9,2.4l5.6,0.2-2.7-2.7v0.1z"/>
	<polygon points="317.4,604.5,319.9,607.1,320.1,602,317.4,604.5"/>
	<polygon points="321.1,602.2,321,607.3,323.6,604.9,321.1,602.2"/>
	<polygon points="322,607.9,324.8,605.5,328,607.9,322,607.9"/>
	<polygon points="328.3,602.7,328.3,606.7,325.9,604.7,328.3,602.7"/>
	<polygon points="333,613.2,337.4,615.9,337.4,613.1,333,613.2"/>
	<polygon points="317.9,450,327.3,450,323,455.3,317.9,450"/>
	<path d="M330.7,451.9c-0.1,0.3-2.6,4.3-2.6,4.3l0.3,9.1,0.7-5.7,1.3-1.8,0.3-5.9z"/>
	<path d="M314.6,451.9s2.5,3.1,2.4,3.7c-0.1,0.5-1.7,1.5-1.7,1.5l-0.9-0.2,0.2-5z"/>
	<path d="M311.6,626.4c0.2,0,17.7,0.3,17.7,0.3l4,27.2,4.1-0.1-8-29.7-17.9,1.1,0.1,1.2z"/>
	<path d="M311,625.3c0,0.2-1.9,23.1-4.4,28.4l-2.3,0.1,6.1-28.5h0.6z"/>
	<polygon points="312.1,617.2,311.5,622.6,328.5,623,329.1,617.8,328.6,617.7,327.8,621.4,313.5,621.4,313,617.4,321.7,617.3,325.1,617.4,312.1,616.1,312.1,617.2"/>
	<path d="M332.2,614.8c0.5,0.2,5.5,3.1,5.5,3.1s-3.1,2.8-3.3,3c-0.1,0.2-2.2-6.1-2.2-6.1z"/>
	<polygon points="334.3,623,338.4,619.7,339.1,623.3,334.3,623.3,334.3,623"/>
	<polygon points="346.9,644.9,351.8,648.5,348.6,650,346.9,644.9"/>
	<path d="M335.8,624.8c0.3,0.1,3.7,0.1,3.7,0.1l1.1,3.4-4.8-3.5z"/>
	<path d="M303.1,617.7c0-0.1,4.9-2.9,4.9-2.9l-1.4,6.5-3.5-3.6z"/>
	<polygon points="303.6,612.6,303,615.9,307.5,612.8,303.6,612.6"/>
	<polygon points="302,613.1,297.8,612.4,301.1,615.9,302,613.1"/>
	<path d="M297.1,614.8c0.2,0.2,3.3,2.7,3.3,2.7l-4.7,3,1.4-5.7z"/>
	<polygon points="302.3,619.2,301.2,622.9,306.1,623.2,302.3,619.2"/>
	<polygon points="305.3,626.5,299.6,630.2,303.7,633.9,305.3,626.5"/>
	<polygon points="302.7,639.2,296,643,300.7,647.7,302.7,639.2"/>
	<path d="M294.9,645c-0.2,0.2-3.2,8.7-3.2,8.7l6.7-3.7-3.5-5z"/>
	<polygon points="298.5,631.9,296.1,640.4,301.3,637.6,302,634.9,298.5,631.9"/>
	<path d="M300.1,620.1c0,0.1-0.7,3.4-0.7,3.4l-4.5-0.7,5.2-2.7z"/>
	<path d="M290.8,688.3l-1.8-3c-0.2-0.5-0.8-0.8-1.4-0.8-0.9,0-1.6,0.7-1.6,1.5,0,0.3,0.1,0.6,0.3,0.8l0.2,0.2,1.9,2.7,2.4-1.4z"/>
	<path d="M294.5,686.7l-1.5-2.8c-0.2-0.5-0.7-0.8-1.3-0.9-0.8,0-1.4,0.6-1.5,1.3,0,0.3,0.1,0.6,0.2,0.8,0,0.1,0.1,0.1,0.1,0.2l1.7,2.5,2.3-1.1z"/>
	<path d="M295.7,686.5l2.9-0.9s-1.2-3.4-2.7-2.5c0,0-1.6,1.1-0.2,3.3s0,0.1,0,0.1z"/>
	<path d="M281.2,693.6c0,0.1,2.3-1.4,2.3-1.4s-2.3-0.3-2.3,1.4z"/>
	<path d="M284.5,691.6c0.3-0.3,2.5-1.6,2.5-1.6l-0.8-1.2s-2.8-1-2.6,1.5l0.9,1.3z"/>
	<path d="M299.6,685.2l3.1-0.5-0.2-0.8s-2-1.8-2.9,0.4v0.9z"/>
	<path d="M303.8,684.3l3-0.5s-1.5-1.5-3,0.5z"/>
	<path d="M295.2,623.9c0.6,0.2,3.3,0.7,3.3,0.7l-0.8,3.2-3.3-2.8,0.8-1.1z"/>
	<path d="M294.3,626.9c-0.3,0.9,2.8,3.1,2.8,3.1l-4,1.9s1.3-5.2,1.2-5z"/>
	<path d="M292.1,635.6c0.2,0,3.5,0.3,3.5,0.3l0.9-4-4.4,2.5v1l3,2-1.3,3.7-2.5-3.9,1.6,7.5-4.6,5.7,3.8-14.8z"/>
	<polygon points="331.1,608,335.1,607.8,332.7,605.7,331.1,608"/>
	<polygon points="268.8,685.7,283.4,686.1,290.3,675.6,282.1,683.4,268.8,685.7"/>
	<path d="M336.6,684.5l3,0.9s-0.1-3.3-3-0.9z"/>
	<path d="M358.2,690.4c0.2,0.4,2.3,4.4,2.3,4.4l7.4-0.3-6.3-1.1-3.4-3z"/>
	<path d="M362.1,696.9c0.4,0.6,2.9,4.6,2.9,4.6l3.6-4.3-3.6,1.8-2.9-2.1z"/>
	<path d="M367.1,705.6c0.3,0.4,3.1,4.9,3.1,4.9l4.1-0.1-3.6-1.3-3.6-3.5z"/>
	<path d="M340.7,686l16.7,9s-13.6-11.5-15.1-11.5c-1.4,0.1-1.7,2-1.7,2.3"/>
	<polygon points="336.8,627.8,341,630.6,338.4,633.6,336.8,627.8"/>
	<polygon points="341.7,632.6,339.1,636.3,342.9,637.8,341.7,632.6"/>
	<polygon points="342.4,643.5,346.1,647.7,344.2,649.4,342.4,643.5"/>
	<polygon points="339.7,605.6,338.1,607.7,340.8,607.9,339.7,605.6"/>
	<path d="M306.4,586.5c0.7,0.5,2.5,2.2,2.5,2.2l4.9-5.1-2.3-3.4-5.2,3.9,0.1,2.4z"/>
	<path d="M307.8,576.2c0.2,0.5,2.1,3.7,2.1,3.7l-3.3,2.2,1.2-5.9z"/>
	<path d="M307.6,571.4c0.3,0.5,3.4,4.9,3.4,4.9l4.1-4.2-3-4.4-4.5,3.7z"/>
	<polygon points="308.1,569.4,310.8,566.3,308.1,562.8,308.1,569.4"/>
	<polygon points="308.4,558.9,312.6,556,309.3,551.9,308.4,558.9"/>
	<polygon points="309.9,542.7,308.9,548.8,313.7,545.6,309.9,542.7"/>
	<polygon points="310.1,539.3,314.6,535.6,310.9,531.8,309.9,539.7,310.1,539.3"/>
	<polygon points="311.1,529.4,311.2,529.8,315.9,526.1,311.5,522.3,311.1,529.4"/>
	<polygon points="312.5,512.8,311.7,520.4,315.9,517.4,312.5,512.8"/>
	<polygon points="312.9,511.8,316.4,508.7,313,505.3,312.9,511.8"/>
	<polygon points="313.5,503.9,317,501.5,313.8,497.9,313.5,503.9"/>
	<polygon points="313.9,496.9,317.4,494.1,314.3,490.4,313.9,496.9"/>
	<polygon points="314.5,489.7,317.4,487.8,314.9,484.2,314.5,489.7"/>
	<polygon points="315.2,483.2,318,481,315.7,478.8,315.2,483.2"/>
	<path d="M315.6,477.5l2.5-1.9s-1.8-2.8-1.8-2.5c0,0.4-0.7,4.4-0.7,4.4z"/>
	<polygon points="315.9,471.7,318.7,470.3,316.3,467.5,315.9,471.7"/>
	<polygon points="316.7,467,318.9,465.3,316.7,462.8,316.7,467"/>
	<polygon points="317.2,461.9,318.8,460.9,317.7,458.9,317.2,461.9"/>
	<path d="M310.5,562.9c0.4,0.2,1.6,2.7,1.6,2.7l3.8-4.4-3.2-0.2-2-2.5-0.2,4.4z"/>
	<polygon points="311.2,551.9,313.4,554.5,316.2,552,313.8,551.8,311.8,548.6,311,548.8,311.2,551.9"/>
	<polygon points="311.9,542,314.4,544.4,316.8,541.7,314,541.4,313.1,538.1,311.9,538.8,311.9,542"/>
	<polygon points="312.9,531.8,315.7,534.7,317.4,533.7,315,532,316.8,527.4,312.8,530.4,312.9,531.8"/>
	<polygon points="316.3,525,313.4,522.9,313.5,521.2,317.1,518.2,315.9,521.3,316.3,525"/>
	<path d="M443.3,691.2c-2.7-1.4-6.2-2.8-10.9-4.3-13.6-4.5-10,10.5-10,10.5-16.6-6.6-25,11.9-25,11.9-14.1-3.7-23.6,14.5-23.6,14.5-25.1,2.7-15.5,27.5-15.5,27.5l4.1,0.3c0.2-7,3.6-15.1,17.3-16.5,0,0,9.5-18.3,23.6-14.5,0,0,8.4-18.6,25-12,0,0-3.6-15,10-10.5,1.8,0.6,3.5,1.2,5,1.8v-8.7z"/>
	<path d="M277,733.7c0.9-3.1-4.1-6.2-4.1-6.2-2.4-5.4-28.2-10.3-28.2-10.3-8.2-11.8-32.5-12-32.5-12-4.6-11.7-15.7-7.8-18.3-7.3v11.5c3.9-1,12.9-2.6,16.9,7.5,0,0,24.3,0.3,32.5,12.1,0,0,25.3,5.3,28.4,10.1l2.9,2.9h4.7c0-5.4-3.3-5.2-2.3-8.3z"/>
	<path d="M379.8,728.1c-61.8-102.5-122.2,0-121.3-1.1,61.9-74.3,100.7-23.4,114.3,1.1h7z"/>
</g>

<g id="globe" transform="scale(0.95)">
<circle r="260"  stroke="#000" stroke-width="3" fill="url(#rg)"/>
<g fill-opacity="0.6" fill-rule="evenodd" transform="translate(355,-292)" fill="#000">
<path d="m-256.5,54.19c9.415,6.749,3.125,12.95-1.043,18.94-15.62-8.897,0.9496,3.462-5.8,9.566-9.804,2.035-9.564-5.976-1.036-5.242-3.693-8.145-16.32-6.617-23.95-9.285-7.884-4.968-17.13-3.556-24.47,1.712-5.884,3.078-5.59,15.44-13.67,20.18-7.782,5.817-14.27,8.241-6.901,19.29,3.909,10.99,16.1-8.481,20.05,4.077,2.806,9.22,9.249,16.54,16.49,5.991-5.2-8.394,9.206-15.04-3.71-19.03-4.73-7.706,4.768-14.79,6.423-18.29,10.69,0.36-5.036,13.73,4.827,19.54,6.311,7.112,14.54-4.335,21.68,0.4657-2.939,2.168-15.52,4.156-9.388,11.37-12.12-3.953,2.716,17.65-11.57,15.22-7.907,3.365-16.34,3.459-23.66,1.313-5.283-6.52-2.04-22.31-12.27-8.855,5.489,9.487,3.437,13.9-8.751,13.69-1.849,7.603-12.19,10.1-17.41,16.95-5.87,5.715-14.31,7.701-22.88,6.652-4.225,6.923,10.88,7.576,12,15.95-1.407,8.896-0.5794,20.85-12.91,14.82-8.74-0.6896-17.7-4.414-26.09-0.3246,1.719,9.066,0.1876,17.56-4.5,25.5-1.739,12.7,4.792,11.8,11.82,18.26,5.678,6.332,15.32-3.415,23.1-3.261,8.509-1.93,14.26-8.845,13.07-17.75,3.696-8.774,20.09-5.077,14.75-17.75,7.271-6.831,16.84,4.134,23.64-5.768,9.071-5.56,15.17,8.182,21.32,13.15,7.897,4.683,18.23,8.172,21.54,17.87-2.895,6.908-24.08,1.653-16,9.005,11.77,7.174,11.49,1.679,16-3.255,8.769-6.504-4.508-20.21,9.17-13.76-3.704-6.429-12.2-11.15-19.42-12.74-3.381-6.143-15.26-11.88-12.39-18.54,6.558-1.008,12.3,7.508,19.71,10.77,8.53,4.339,16.33,8.126,16.15,18.32,5.711,6.083,11.15,13.2,15.49,19.64,7.846,4.812,12.09-12.48,4.796-13.43-6.041-8.421-0.7711-8.173,4.372-11.55,11.35-0.8283,7.439,17.37,17.89,19.83,9.258,8.39,9.574-1.657,18.84-0.3295,9.996-5.671,16.38-0.357,14.88,10.65-0.9409,7.041,5.119,22.03-6.695,20.64-9.017-0.5372-13.72,10.16-23.47,5.029-9.503,0.2497-17.33-3.763-25.99-5.849-12.37,1.089-3.171,14.92-12.82,16.45-8.93-1.049-16.78-3.042-22.5-10.62-8.558-1.592-21.62-0.2829-25.5-9.375,5.491-6.257,3.925-16.3-1.75-19.75-7.649,1.277-16.31,0.2619-24.15,3.131-8.314-3.311-16.46,0.2483-24.56,3.425-8.306,2.513-16.2,7.916-24.33,3.587-9.512-0.6378-12.54-7.473-17.61,3.541-6.654,7.368-15.88,13.55-20.94,21.65,0.7396,8.685-8.614,15.79-15.93,18.3-10.14,1.837-13.23,14.46-20.22,21.12-4.697,6.515-11.46,14.62-11.95,22.1,5.312,7.284-0.7512,17.18-0.3004,25.58-4.185,8.157-7.03,13.27-3.398,22.35-1.151,9.154,10.68,14.27,15.2,21.66,5.896,6.211,4.497,17.18,14.01,20.42,8.54,5.315,16.42,14.18,25.35,17.37,14.28-6.592,29.78,6.367,43.89-1.378,10.47-4.663,21.74-4.382,32.95-4.484,2.606,11.29,10.63,12.15,20.56,9.336,8.989-0.0539,14.9,9.404,7.194,16.41-5.463,7.996-3.122,17.81,6.007,21.69,7.058,3.063,13.67,13.45,10.39,20.07,7.099,8.163-3.99,13.54-9.124,19.86-9.221,7.231,5.477,14.02,4.156,22.01,8.499,11.9,28.34-3.213,40.2-5.234,18.14-7.62,38.93-18.33,51.87-30.66,0.9435-8.524,12.94-11.7,18.38-18.05,7.565-5.045,14.25-10.72,15.47-20.27,4.575-15.82,11.07-30.72,20.84-44.05,11-17.58,23.18-34.58,28.93-54.78,4.774-8.42,4.355-17.76,3.891-27.1-6.435,4.994-9.339,17.9-18.39,17.03-0.236-7.513-7.252-15.12-14-15.44-0.514-10.09-12.02-14.94-10.58-25.54-1.784-8.602-10.72-14.1-13.39-22.83-4.048-4.87-11.72-21.01-0.8741-14.87,5.577,8.027,12.16,15.72,18.36,22.83,0.4925,12.54,12.15,19.49,17.33,29.54,1.179,6.048,1.125,26.81,8.337,13.29,9.324-14.59,18.4-29.29,22.62-46.27,1.612-9.957,0.8695-20.35,1.593-30.47-7.716-3.884-12.16-19.77-11.25-2.459-3.83,14.71-4.389-1.08-11.29-4.67-7.43-1.836-11.05-21.67-1.873-12.26,5.186,12.97,12.99-0.069,18.35,6.161,6.13-4.084,10.12-13.95,13.31,1.45-7.89-53.98-35.01-108.5-76.79-145.8-23.56-21.8-50.89-39.25-79.67-53.31zm79.5,106.9c12.68,2.774,19.18,16.76,26.75,26.38,7.326,6.226,9.803,19.09-3.286,12.83-2.287-7.987-3.172-17.59-12.63-21.51-6.499-3.683-7.337-11.65-10.83-17.7zm-50.25,7.25c10.03-3.862,13.19,17.29,20.18,4.57,7.026-0.5531,16.32,5.217,22.32,10.18,4.945,10.88-11.27,8.334-18.01,7.441-9.94-5.031-12.52,12.13-23.24,6.309-9.553-5.187-2.013-15.8-2.021-24.02,0.2569-1.493,0.5137-2.986,0.7706-4.479z"/>
<path d="m-375.8,151.7c9.393-2.71,21.1-0.4432,27.93-8.662-5.928-6.472-7.117-15.17-13.08-21.74,4.121-9.431-7.531-15.93-12.55-6.541-0.9464,12.44,10.4,9.542,8.548,18.29-10.29,6.363-4.67,11.32-9.731,15.69-1.053,1.232-4.086,1.141-1.116,2.964z"/>
<path d="m-375.3,127.1c-0.7679,10.63-6.214,15.74-16.97,14.6-2.667-3.782,6.842-6.22,1.581-11.33,2.293-3.433,13.38-9.379,15.38-3.264z"/>
<path d="m-397.7,86.45c8.617,1.696,21.15-9.608,6.565-9.662-7.082-1.699-22.19,0.5331-11.81,9.275,1.1,1.001,3.746,0.05771,5.248,0.3869z"/>
<path d="m-311,195.2c-7.446,3.09-1.724,11.95-4.306,19.14,1.297,12.69,12.85-5.888,3.577-9.954,2.411-1.82,0.7639-6.018,0.7292-9.188z"/>
<path d="m-463.9,90.7c12.78-6.641,23.87-18.56,39.32-16.85,10.11-4.733,21.33-6.504,32.46-8.253,11.85-8.273,22.36-20.09,37.12-22.63-11.71-8.237-27.31-4.139-40.87-5.303-20.08,7.785-38.31,20.3-56.7,31.43-5.541,6.586-16.95,11.35-11.37,21.39l0.0438,0.2188z"/>
<path d="m-566.4,145.9c6.892-6.803,12.95-13.75,17.29-8.343,12.35-4.824,6.761-9.523,14.49-16.15,7.91-8.775,16.66-2.22,3.29,3.563-7.995,5.571,4.982,19.44,7.392,4.62,3.881-7.97,6.987-15.22,14.62-21.17,6.605-6.167,5.459-17.48,14.74-21.52,16.18-14.17,36.93-21.61,54.64-33.72,10.47-5.816,22.37-12.9,1.866-5.453-52.12,17.3-96.8,53.63-128.3,98.17z"/>
<path d="m-542,471.8c-1.202-8.05-12.42-17.69-4.336-24.26,4.073-6.601-5.19-16.04-8.779-22.46-7.002-10.81-16.47-19.52-25.4-28.47-8.187-15.22-17.06-30.18-19.4-47.62-4.135-18.86-11.84-36.88-12.1-56.44-2.698,66.14,27.46,130.1,70,179.3z"/>
</g>
</g>

</g>

<rect x="-250" y="-600" width="500" height="100" fill="lightgray" stroke="none"/>
<rect x="-1000" y="-600" width="750" height="600" fill="white" stroke="none" stroke-width="0"/>
<rect x="250" y="-600" width="750" height="600" fill="white" stroke="none" stroke-width="0"/>
<rect x="-250" y="-600" width="500" height="600" fill="none" stroke="gray" stroke-width="1"/>

</svg>