<svg xmlns="http://www.w3.org/2000/svg" xmlns:xlink="http://www.w3.org/1999/xlink"><title>Firefox Logo Simplified/Minified by Jon Hicks, Doug Schepers and Marek Raida</title><filter id="sh" x="-25%" y="-25%" width="150%" height="150%"><feGaussianBlur in="SourceAlpha" stdDeviation="1.5" result="blur"/><feOffset dx="1" dy="1" in="blur" result="shift"/><feMerge><feMergeNode in="shift"/><feMergeNode in="SourceGraphic"/></feMerge></filter><radialGradient id="a" cx="64" cy="7" r="104" gradientUnits="userSpaceOnUse"><stop offset="0" stop-color="#67C5D5"/><stop offset=".3" stop-color="#62B9CE"/><stop offset=".5" stop-color="#5392BA"/><stop offset=".7" stop-color="#3A5097"/><stop offset="1" stop-color="#596AAD"/></radialGradient><radialGradient id="b" cx="65" cy="19" r="57" gradientUnits="userSpaceOnUse"><stop offset="0" stop-color="#0F80BC"/><stop offset=".2" stop-color="#0B629B"/><stop offset=".8" stop-color="#031747"/><stop offset="1" stop-color="#00022F"/></radialGradient><linearGradient id="c" gradientUnits="userSpaceOnUse" x1="76" y1="16" x2="93" y2="18"><stop offset="0" stop-color="#0F80BC"/><stop offset=".3" stop-color="#0A5F9E"/><stop offset="1" stop-color="#00145A"/></linearGradient><linearGradient id="d" gradientUnits="userSpaceOnUse" x1="38" y1="19" x2="29" y2="33"><stop offset="0" stop-color="#0F80BC"/><stop offset=".3" stop-color="#0A5F9E"/><stop offset="1" stop-color="#00145A"/></linearGradient><linearGradient id="e" gradientUnits="userSpaceOnUse" x1="62" y1="34" x2="62" y2="12"><stop offset="0" stop-color="#000" stop-opacity="0"/><stop offset=".6" stop-color="#C4E0E3" stop-opacity=".2"/><stop offset="1" stop-color="#F2FAFC" stop-opacity=".5"/></linearGradient><linearGradient id="f" gradientUnits="userSpaceOnUse" x1="42" y1="37" x2="53" y2="38"><stop offset="0" stop-color="#941403"/><stop offset=".9" stop-color="#E85C0A"/></linearGradient><linearGradient id="g" gradientUnits="userSpaceOnUse" x1="49" y1="44" x2="52" y2="43"><stop offset="0" stop-color="#F2C8A9"/><stop offset="1" stop-color="#FFC"/></linearGradient><linearGradient id="h" gradientUnits="userSpaceOnUse" x1="51" y1="74" x2="79" y2="84"><stop offset="0" stop-color="#941403"/><stop offset="1" stop-color="#DF731B"/></linearGradient><linearGradient id="i" gradientUnits="userSpaceOnUse" x1="6" y1="87" x2="33" y2="87" gradientTransform="matrix(1,0,0,1,5,-1)"><stop offset="0" stop-color="#B00"/><stop offset="1" stop-color="#de5c01"/></linearGradient><linearGradient id="j" gradientUnits="userSpaceOnUse" x1="210" y1="-131" x2="224" y2="-86" gradientTransform="matrix(1,.1,-.1,1,-207,181)"><stop offset="0" stop-color="#de7210"/><stop offset="1" stop-color="#f6c08f"/></linearGradient><linearGradient id="k" gradientUnits="userSpaceOnUse" x1="12" y1="61" x2="12" y2="111" gradientTransform="matrix(1,0,0,1,3,-.6)"><stop offset="0" stop-color="#de7210"/><stop offset="1" stop-color="#f6c08f"/></linearGradient><linearGradient id="l" gradientUnits="userSpaceOnUse" x1="847" y1="-1065" x2="847" y2="-1008" gradientTransform="matrix(.9,.2,-.2,.9,-1076,855)"><stop offset="0" stop-color="#de7210"/><stop offset="1" stop-color="#f6c08f"/></linearGradient><linearGradient id="m" gradientUnits="userSpaceOnUse" x1="16" y1="36" x2="-3" y2="68" gradientTransform="matrix(1,0,0,1,-4,-5)"><stop offset="0" stop-color="#de7210"/><stop offset="1" stop-color="#f2c06e"/></linearGradient><linearGradient id="n" y2="480" gradientUnits="userSpaceOnUse" x2="-410" gradientTransform="matrix(1,.13,-.13,1,480,-330)" y1="430" x1="-410"><stop stop-color="#de7210" offset=".06"/><stop stop-color="#f2c06e" offset="1"/></linearGradient><linearGradient id="o" gradientUnits="userSpaceOnUse" x1="-414" y1="423" x2="-414" y2="470" gradientTransform="matrix(1,.3,-.3,1,555,-208)"><stop offset="0" stop-color="#de7210"/><stop offset="1" stop-color="#f2c06e"/></linearGradient><linearGradient id="p" y2="76" gradientUnits="userSpaceOnUse" x2=".5" gradientTransform="matrix(.8,-.6,.6,.8,-29,20)" y1="56" x1="14"><stop stop-color="#de7210" offset="0"/><stop stop-color="#f2c072" offset="1"/></linearGradient><linearGradient id="q" y2="69" gradientUnits="userSpaceOnUse" x2="8" gradientTransform="matrix(.8,-.6,.6,.8,-29,20)" y1="49" x1="21"><stop stop-color="#de7210" offset="0"/><stop stop-color="#f2c072" offset="1"/></linearGradient><linearGradient id="r" gradientUnits="userSpaceOnUse" x1="12" y1="38" x2="6" y2="49"><stop offset="0" stop-color="#de7210"/><stop offset="1" stop-color="#eed8a5"/></linearGradient><linearGradient id="s" gradientUnits="userSpaceOnUse" x1="12" y1="44" x2="6" y2="55"><stop offset="0" stop-color="#de7210"/><stop offset="1" stop-color="#eed8a5"/></linearGradient><linearGradient id="t" gradientUnits="userSpaceOnUse" x1="18" y1="40" x2="13" y2="54"><stop offset="0" stop-color="#de7210"/><stop offset="1" stop-color="#f2c072"/></linearGradient><linearGradient id="u" gradientUnits="userSpaceOnUse" x1="20" y1="33" x2="7" y2="53"><stop offset="0" stop-color="#de7210"/><stop offset="1" stop-color="#f2c072"/></linearGradient><linearGradient id="v" gradientUnits="userSpaceOnUse" x1="21" y1="37" x2="9" y2="55"><stop offset="0" stop-color="#de7210"/><stop offset="1" stop-color="#f2c072"/></linearGradient><linearGradient id="w" gradientUnits="userSpaceOnUse" x1="60" y1="34" x2="61" y2="36"><stop offset="0" stop-color="#8b8b89"/><stop offset="1" stop-color="#120500"/></linearGradient><linearGradient id="x" gradientUnits="userSpaceOnUse" x1="22" y1="28" x2="23" y2="23"><stop offset="0" stop-color="#de7210"/><stop offset="1" stop-color="#f6c08f"/></linearGradient><linearGradient id="y" gradientUnits="userSpaceOnUse" x1="23" y1="35" x2="34" y2="22" gradientTransform="matrix(1,0,0,1,1,-1)"><stop offset="0" stop-color="#de7210"/><stop offset="1" stop-color="#f6c08f"/></linearGradient><linearGradient id="z" gradientUnits="userSpaceOnUse" x1="15" y1="33" x2="10" y2="44"><stop offset="0" stop-color="#de7210"/><stop offset="1" stop-color="#eed8a5"/></linearGradient><linearGradient id="aa" gradientUnits="userSpaceOnUse" x1="16" y1="36" x2="27" y2="23" gradientTransform="matrix(1,0,0,1,4,-2)"><stop offset="0" stop-color="#de7210"/><stop offset="1" stop-color="#f6c08f"/></linearGradient><linearGradient id="bb" gradientUnits="userSpaceOnUse" x1="13" y1="23" x2="26" y2="24" gradientTransform="matrix(1,0,0,1,2,-2)"><stop offset="0" stop-color="#de7210"/><stop offset="1" stop-color="#f6c08f"/></linearGradient><linearGradient id="cc" gradientUnits="userSpaceOnUse" x1="7" y1="23" x2="25" y2="26"><stop offset="0" stop-color="#de7210"/><stop offset="1" stop-color="#f6c08f"/></linearGradient><linearGradient id="dd" gradientUnits="userSpaceOnUse" x1="16" y1="22" x2="28" y2="24" gradientTransform="matrix(1,0,0,1,2,-2)"><stop offset="0" stop-color="#de7210"/><stop offset="1" stop-color="#f6c08f"/></linearGradient><linearGradient id="ee" gradientUnits="userSpaceOnUse" x1="15" y1="27" x2="4" y2="26"><stop offset="0" stop-color="#de7210"/><stop offset="1" stop-color="#f6c08f"/></linearGradient><linearGradient id="ff" gradientUnits="userSpaceOnUse" x1="11" y1="37" x2="26" y2="20" gradientTransform="matrix(1,.1,-.1,1,4,-2)"><stop offset="0" stop-color="#de7210"/><stop offset="1" stop-color="#f6c08f"/></linearGradient><linearGradient id="gg" gradientUnits="userSpaceOnUse" x1="54" y1="93" x2="103" y2="100" gradientTransform="matrix(1,0,0,1,10,-6)"><stop offset="0" stop-color="#de7210"/><stop offset="1" stop-color="#f6c08f"/></linearGradient><linearGradient id="hh" gradientUnits="userSpaceOnUse" x1="39" y1="90" x2="95" y2="108" gradientTransform="matrix(1,.1,-.1,1,14,-6)"><stop offset="0" stop-color="#de7210"/><stop offset="1" stop-color="#f6c08f"/></linearGradient><linearGradient id="ii" gradientUnits="userSpaceOnUse" x1="-601" y1="629" x2="-575" y2="680" gradientTransform="matrix(1,-.2,.2,1,501,-644)"><stop offset="0" stop-color="#de7210"/><stop offset="1" stop-color="#f6c08f"/></linearGradient><linearGradient id="jj" gradientUnits="userSpaceOnUse" x1="18" y1="31" x2="13" y2="17"><stop offset="0" stop-color="#941403"/><stop offset=".5" stop-color="#E85C0A"/><stop offset="1" stop-color="#F9BD5F"/></linearGradient><linearGradient id="kk" gradientUnits="userSpaceOnUse" x1="42" y1="34" x2="55" y2="17"><stop offset=".2" stop-color="#de7210"/><stop offset=".8" stop-color="#F9BD5F"/><stop offset="1" stop-color="#FFFCCF"/></linearGradient><linearGradient id="ll" gradientUnits="userSpaceOnUse" x1="35" y1="57" x2="48" y2="84"><stop offset="0" stop-color="#941403"/><stop offset=".5" stop-color="#E35100"/><stop offset="1" stop-color="#DF731B"/></linearGradient><linearGradient id="mm" gradientUnits="userSpaceOnUse" x1="35" y1="48" x2="51" y2="64"><stop offset=".2" stop-color="#DF731B"/><stop offset=".8" stop-color="#F9BD5F"/><stop offset="1" stop-color="#FFFCCF"/></linearGradient><linearGradient id="nn" gradientUnits="userSpaceOnUse" x1="64" y1="56" x2="78" y2="48"><stop offset="0" stop-color="#DF731B"/><stop offset=".5" stop-color="#DF731B"/><stop offset=".7" stop-color="#EC8811"/><stop offset=".8" stop-color="#F4950B"/><stop offset="1" stop-color="#f79a09"/></linearGradient><linearGradient id="oo" gradientUnits="userSpaceOnUse" x1="55" y1="41" x2="58" y2="44"><stop offset="0" stop-color="#EEA272"/><stop offset=".2" stop-color="#EFA777"/><stop offset=".4" stop-color="#F2B585"/><stop offset=".6" stop-color="#F6CD9C"/><stop offset=".9" stop-color="#FCEEBB"/><stop offset="1" stop-color="#FFC"/></linearGradient><linearGradient id="pp" gradientUnits="userSpaceOnUse" x1="81" y1="68" x2="60" y2="72"><stop offset="0" stop-color="#FFFAEE"/><stop offset=".3" stop-color="#F3ED91"/><stop offset=".4" stop-color="#ECC267"/><stop offset=".6" stop-color="#E6A046"/><stop offset=".7" stop-color="#E2872E"/><stop offset=".9" stop-color="#E07820"/><stop offset="1" stop-color="#DF731B"/></linearGradient><linearGradient id="qq" gradientUnits="userSpaceOnUse" x1="88" y1="117" x2="117" y2="73"><stop offset="0" stop-color="#de5c01"/><stop offset=".7" stop-color="#fefd00"/><stop offset=".9" stop-color="#ffff76"/><stop offset="1" stop-color="#ffff92"/></linearGradient><linearGradient id="rr" gradientUnits="userSpaceOnUse" x1="105" y1="23" x2="86" y2="14"><stop offset="0" stop-color="#f79a09"/><stop offset=".7" stop-color="#fefd00"/><stop offset=".9" stop-color="#ffff76"/><stop offset="1" stop-color="#ffff92"/></linearGradient><linearGradient id="ss" gradientUnits="userSpaceOnUse" x1="118" y1="42" x2="91" y2="17"><stop offset="0" stop-color="#de5c01"/><stop offset=".7" stop-color="#fefd00"/><stop offset=".9" stop-color="#ffff76"/><stop offset="1" stop-color="#ffff92"/></linearGradient><linearGradient id="tt" gradientUnits="userSpaceOnUse" x1="1" y1="145" x2="-10" y2="134" gradientTransform="matrix(1,0,0,1,105,-105)"><stop offset="0" stop-color="#f79a09"/><stop offset=".7" stop-color="#fefd00"/><stop offset=".9" stop-color="#ffff76"/><stop offset="1" stop-color="#ffff92"/></linearGradient><linearGradient id="uu" gradientUnits="userSpaceOnUse" x1="113" y1="56" x2="120" y2="34"><stop offset="0" stop-color="#f79a09"/><stop offset=".7" stop-color="#fefd00"/><stop offset=".9" stop-color="#ffff76"/><stop offset="1" stop-color="#ffff92"/></linearGradient><linearGradient id="vv" gradientUnits="userSpaceOnUse" x1="-52" y1="213" x2="-52" y2="196" gradientTransform="matrix(1,0,0,1,152,-154)"><stop offset="0" stop-color="#f79a09"/><stop offset=".7" stop-color="#fefd00"/><stop offset=".9" stop-color="#ffff76"/><stop offset="1" stop-color="#ffff92"/></linearGradient><linearGradient id="ww" gradientUnits="userSpaceOnUse" x1="-173" y1="332" x2="-161" y2="310" gradientTransform="matrix(1,0,0,1,255,-268)"><stop offset="0" stop-color="#f79a09"/><stop offset=".7" stop-color="#fefd00"/><stop offset=".9" stop-color="#ffff76"/><stop offset="1" stop-color="#ffff92"/></linearGradient><linearGradient id="xx" gradientUnits="userSpaceOnUse" x1="99" y1="88" x2="101" y2="63" gradientTransform="matrix(1,0,0,1,-11,14)"><stop offset="0" stop-color="#de5c01"/><stop offset=".7" stop-color="#fefd00"/><stop offset=".9" stop-color="#ffff76"/><stop offset="1" stop-color="#ffff92"/></linearGradient><linearGradient id="yy" gradientUnits="userSpaceOnUse" x1="58" y1="114" x2="106" y2="85"><stop offset="0" stop-color="#B30000"/><stop offset=".2" stop-color="#C0290C"/><stop offset=".4" stop-color="#D36C08"/><stop offset=".6" stop-color="#E29E05"/><stop offset=".8" stop-color="#FEFD07"/><stop offset="1" stop-color="#FFFFC7"/></linearGradient><circle fill="url(#a)" cx="63.75" cy="59.37" r="58.8" stroke="#110070" stroke-width="1"/><path fill="url(#b)" d="m90.17,47.31c2.81,1.25,1.66-2.5-1.59-1.56,3.28-2.94-.65-6.91-3.95-8.57-2.09,.88-6.37-1.7-4.25,2.97,1.91,2.35-.89,6.07-2.51,2.2-1.44,2.67-4.44-4.83-7.64-1.09-.25,4.27,.48,9.38,5.32,11.73,6.47-1.61-3.11,4.81,.9,8.2,1.06,.33,4.85-1.24,1.84,2.02-.64,3.2,5.51,3.48,.38,3.77-1.89,1.2-9.82,1.02-7.41,5.17,3.05,2.22-5.24,2.58-2.44,6.23-1.57,1.81-1.27,4.56-3.94,5.2,3.56-.52,4.18,.93,8.64,1.63,1.8,1.26-4.96,1.05-.14,2.13,5.46-1.1,6.6,5.99,11.56,4.45,2.39-1.13,4.41-1.89,6.74-2.07-2.48-.7-6.27-3.67-1.04-1.68,1.37-1.57-6.86-3.09-3.92-6.26-.44-1.5,1.71-1.93,1.28-4.06,2.65-2.46,1.09-.98,2.27,.56,4.06-.16-3.1-6.45,1.91-3.95,2.59-1.64,4.81-6.78,3.07-10.33-2.76-2.01,4.75-.1,3.38-4.05,2.17-2.01,.62-5.78,2.37-7.95-1.68,1.82-5.64,3.57-1.77,.1-.53-1.92-5.53,4.36-6.46,.29-1.5-.35-.51-2.33-2.4-3.04l-.19-.78v-1.23z"/><g fill="#00145a"><path d="m55.4,89.4c-2.72-2.93-6.19-3.26-8.15,1.07,1.67-6.66-2.42,4.67-1.39-2.21-4.14-2.87,2.68-11,2.36-10.7,2.59,.68-.1-9.52,3.42-3.83,2.95-.11,4.82,2.29,6.18,2.87,3.2-1.55,4.67,7.23,4.49,9.62,.28,2.07,8.42,6.05,1.2,7.66-4.21,.87-6.4-2.92-7.18-3.86-2.29,2.57-2.82-1.43-.93-.64z"/><path d="m104,43.9c6.4-.19-.9,4.18-.8,1.05-.7,.56,1-2.21,.8-1.05z"/><path d="m99.2,46.5c.35,3.13,5.21,3.13,3.61-.76-1.5,1.4-1.9,.1-3.61,.76z"/><path d="m64.6,73c.38,3.2,5.29,3.01,3.63-.77-1.49,1.37-1.89,.1-3.63,.77z"/></g><path d="m60,23.5c.1,4.38,6.97-1.69,3.62,3.29,8.09,2.94,4.16-12.6,1.43-6.12-1.77,1.32-2.87,.51-5.05,2.83z" fill="#1775ad"/><path d="m65.1,1c-2.75,5.67,9.28,8.21,3.83,11.1,4.24,1.03-3.25,.98,2.19,2.92-4.32,2.33,6.29,4.59-1.43,4.11-2,4.95,6.64,4.76,9.04,1.34,.38-2.26,5.12,.87,7.02,1.93-1.58,3.22,1.37,5.13,2.69,5.09,.87,1.71,5.55,6.67,5.56,3.31,.56-5.92,6.64,2.78,8.74-4.17,2.7-2.54-5.45,.14-1.5-3.74,1.2-5.45-1.1-3.76-1.56-3.82,.76-1.41-4.73,3.11-5.97-.48-.32-1.91,6.63,.87,9.13-2.46-4.88-5.51-13.5-9.87-21-12.4-5.39-1.71-11-2.80-16.7-2.78z" fill="url(#c)"/><path d="m38.8,6.10c-7.2,3.32-13.4,8.58-18.6,14.5,2.22,3.23-2.13,11.4,5.34,6.32,2.69-1.31,3.56-5.93,4.48-2.81,2.07,1.09,3.22,1.73,5.41,1.94-5.93,4.12,5.53,5.01,4.75-.59-.65-4.35,3.15-4.97,7.09-5.63,1.56,4.72,4.78,.97,6.2,2.69,3.87-5.54,6.12-12.7,1.69-15.5-.32,5.34,3.68-6.90,8.38-5.94-4.96-.819-14.8,1.06-21,3.48-1.29,.476-2.56,.996-3.81,1.56z" fill="url(#d)"/><ellipse fill="url(#e)" cx="62.6" cy="23.3" rx="31" ry="20"/><g id="Fox" filter="url(#sh)"><path d="m125,43.1c-.5,3.05-.9,6.1-1.4,9.15-1.7-11.1-2.4-23.1-9.4-32.4-1.1-.29,2.7,8.62,1.2,9.01-3.6-8.44-11.1-15.2-20.2-16.9-5.7-1.46-11.7-2.74-17.6-1.76,5.88,1.48,12.6,2.06,17.3,6.13-3.4,.1-11.3,.81-11.5,1.99,12.8,2.46,24.4,12.5,26.6,25.7-1.2-3.63-7.2-9.04-4.7-2.13,.7,6.67,.6,13.7-1.5,20.1-.7-3.25-5.74-7.52-3.9-1.56,.1,7.63-.1,16.4-5.47,22.4-3.09,2.02,2.52-8.63,.27-8.36-5.34,9.1-14.9,17.4-26.1,16-8.2-.81-15.3-5.39-21.9-9.99,7.59,1.95,16,.32,22-4.88,2.43-2.76,11.8-1.2,6.77-6.67-4.46-4.23-11.2-3.26-16.2-.51-6.64,2.93-15-1.03-18-7.35-2.73-6.91,5.86-7.9,9.62-7.88-1.54-4.52-2.18-9.33,3.46-11.1,4.48,0,9.93-6.18,3.18-7.72-5.02,.66-10.3-.62-12.2-5.98,.36-5.12,4.77-9.83,8.19-12.1-5.94,.25-12.3,2.39-16.1,7.12-5.06-1.38-11.3,2.03-15.4-.83-3.21-2.61-5.35-7.81-6.05-10.7-5.73,5.77-6.30,14.4-5.95,22.1,.88,4.06-7.32,11.2-2.26,12.3,2.75-3.32-2.12,4.86-1.68,6.3-5.16,20,4.87,41.1,20.2,53.9,13.6,11.5,32.4,14.9,49.6,11.6,16.9-2.8,32.4-13.5,40.1-28.9,7.4-14,9.9-30.3,9.1-46z" fill="url(#nn)"/><path d="M45.5,27.6c0,0,2.21,6.04,7.17,6.02,9.46-.038,9.65,.093,9.71,1.24,.188,3.5-1.54,4.65-2.20,5.14-.663,.497-9.67,5.72-10,7.21-.4,1.6-10.4-14.1-10.4-14.1l5.7-5.4z" fill="url(#f)"/><path d="M50.5,34.1c0,0,3.07,3.92,.749,5.49-2.84,1.92,4.01,2.34,6.49,.942s4.01-3.44,4.09-3.74,.902-3.05-4.28-2.10c-3.2,.6-4.4,.8-7-.6z" fill="#de550d"/><path d="M60.1,40c.502-.378,1.62-1.14,2.04-3.01-.311,.126-.34-.23-.707-.076-6.96,7.26-7.22,2.20-11,3.22-3.46,.947-4.24,2.25-4.38,2.35,.051,.073,.104,.148,.155,.221,.997,.506,1.95,2.12,2.67,3.56,.702,.836,1.17,1.25,1.24,.945,.4-1.4,9.4-6.6,10-7.1z" fill="url(#g)"/><path d="M8.18,45.8c-1.42,3-10.5,18.4,4.32,44,14.6,25.1,39.7,33.3,65.4,27.7,7.34-1.59,15.8-7.33,21.2-11.5-3.46-8.74-1.41-8.41-3.27-7.26-20.7,12.8-37.2,.174-49.9-1.44-46.8-6-37.6-51.6-37.6-51.6l-.16,.1z" fill="#b30000"/><path d="M47.2,80.9c4.42,1.32,14.1,.183,18.2-2.90,2.79-2.07,4.90-3.64,6.67-4.29-3.13-2.13-3.18,.889-9.77,2.42-13.7,3.18-20.4-3.70-20.4-3.70,.972,5.44,4.37,8.10,5.90,9.04-.4-.3-.6-.5-.6-.5z" fill="url(#h)"/><path d="M32.3,106c0,0-11.4-12.9-14.6-27.3-4.70-4.44-8.04-8.2-10.3-10.9,1.34,10,6.6,26,24.9,38.2z" fill="url(#i)"/><path d="M22.8,94.1c0,0-7.89-11.2-4.93-20.8,2.66-8.57-.565-3.47-2.44-1.64-1.90,1.85-2.87-5.46-2.82-6.31,.003-.018,.001-.026-.001-.027-.2-.1-3.85,17.5,10.1,28.7z" fill="url(#j)"/><path d="M11.1,84.3c0,0-1.80-22.8,3.88-26,9.02-5.12,.753-3.92-1.86-2.50-2.64,1.43-2.4-8-2.03-8.90,.4-.9-9.30,8.9,0,37.4z" fill="url(#k)"/><path d="M50.6,17.2c0,0-7.14,7.26-7.09,7.28,.054,.026,.205,9.32,.438,11.9,.856,1.01,3.52,7.59,1.48,6.13-2.09-1.49-.582-1.52-.4-.765,.005,.025,.005,.037,0,.037-.1,.2-5.2-10.8,5.6-24.5z" fill="#A40000"/><path d="M16.6,11.6c0,0-7.59,5.82-6.14,21.8,5.88-5.28,14.2-9.22,14.2-9.22-1.4-.8-7.8-6-8.1-12.6z" fill="url(#jj)"/><path d="M35.3,29.1l11.4,14.2c-3.29-13.9-.761-22.3,7.34-26.8,1.3-.7-16.9,.2-18.7,12.6z" fill="url(#kk)"/><path d="M27.3,64.2c1.9-12.3,19-10.5,19-10.5-.761,.565-3.68,.903-4.52,3.24-2.76,7.72-.128,24.6,17.1,31.7,1.8,.8-34.5-6.3-31.6-24.4z" fill="url(#ll)"/><path d="M62.1,37.3c-.084-.015-.158-.013-.195,.037-.21,.281-1.02,1.24-2.95,2.81-3.58,2.92-5.09,2.18-7.76,2.77-1.22,.271-2.37,1.09-3.15,1.74,.315,.509,.609,1.06,.871,1.58,.702,.836,1.17,1.25,1.24,.945,.331-1.49,9.34-6.71,10-7.21,.5-.2,1.5-.9,2-2.6z" fill="url(#oo)"/><path d="M51.1,55.9c.1-2.59-.081-8.88-2.77-11.6-2.06-2.08-2.54-4.47-2.82-7.20-22.4,8.35-25.6,19.3-23.3,18.9,17.9-2.9,22.9-3.2,28.9-.1z" fill="url(#mm)"/><path d="M3.41,71.2c0,0,1.55-20.2,11.7-27.6,7.94-5.80,1.77-3.70-1.29-3.46-3.23,.256-4.95,2.22-4.33,1.50,.027-.03,.036-.047,.031-.055-.12,0-7.60,6.2-6.09,29.7z" fill="url(#l)"/><path d="M2.35,55.7c0,0,5.42-17.2,16.4-17,7.26,.097,1.50-6.13-.695-7.08-2.29-.981-2.84-.943-3.37-.469-.9,.7-8.06,.4-12.4,24.6z" fill="url(#m)"/><path d="M76.2,72.5c.823-.807,.249-3.90-4.92-5.78-4.69-1.70-12,2.63-14.2,3.49,0,0,8.30-1.56,11.4-1.04,4.2,.7,5.7,5.3,7.7,3.3z" fill="url(#pp)"/><path d="M10.3,66.8c0,0-.899-16.9,6.68-24.1,5.95-5.67,1.07-3.26-1.44-2.72-2.65,.562-3.86,2.38-3.43,1.71,.019-.028,.023-.043,.019-.049-.1-.2-5.65,5.9-1.9,25.1z" fill="url(#n)"/><path d="M4.51,61.5c0,0,3.20-16.6,12.3-21.8,7.14-4.07,1.82-2.90-.745-2.99-2.71-.093-4.32,1.38-3.74,.834,.025-.022,.033-.037,.03-.042-.1-.2-6.93,4.3-7.89,24z" fill="url(#o)"/><path d="M15.3,68.3c0,0-1.75-10.1,2.02-15,3.01-3.96,.367-2.02-1.03-1.45-1.46,.596-2.01,1.77-1.81,1.34,.2-.4-6.51,4.8,.8,15.2z" fill="url(#p)"/><path d="M17.3,58.8c0,0-1.75-10.1,2.02-15,3.01-3.96,.367-2.02-1.03-1.45-1.46,.596-2.01,1.77-1.81,1.34,.2-.5-6.51,4.7,.8,15.1z" fill="url(#q)"/><path d="M6.72,45c0,0,4.09-8.38,9.52-10,4.34-1.32,1.35-1.30,.014-1.62-1.40-.338-2.43,.234-2.05,.022,.4-.2-7.32,0-7.48,11.6z" fill="url(#r)"/><path d="M6.14,51.6c0,0,4.09-8.38,9.52-10,4.34-1.32,1.35-1.30,.014-1.62-1.40-.338-2.43,.234-2.05,.022,.4-.2-7.31,.1-7.46,11.6z" fill="url(#s)"/><path d="M9.11,49.8c0,0,7.21-14.8,16.8-17.7,7.65-2.32,2.38-2.29,.024-2.86-2.46-.597-4.29,.414-3.62,.039,.7-.3-12.9,.2-13.2,20.6z" fill="url(#t)"/><path d="M14,41.8c0,0,4.48-9.19,10.4-11,4.76-1.44,1.48-1.42,.015-1.78-1.53-.371-2.67,.257-2.25,.024,.4-.1-8,.1-8.2,12.8z" fill="url(#u)"/><path d="M15.5,45.1c0,0,4.09-8.38,9.52-10,4.34-1.32,1.35-1.30,.014-1.62-1.40-.338-2.43,.234-2.05,.022,.3-.2-7.4,0-7.5,11.6z" fill="url(#v)"/><path d="M62.3,34.9c-.047-.873-.176-1.16-4.36-1.23,.479,.217,1.30,.652,2.21,1.40,1.20,.984,1.40,2.08,1.52,3.22,.5-.8,.8-1.9,.7-3.4z" fill="url(#w)"/><path d="M37.8,23.2l-3.62,5.83c0,0-14.5-2.27-26.8,9.62-1.02,1,8-21,30.4-15.4z" fill="url(#x)"/><path d="M24.8,33.6c0,0,3.86-7.17,8.87-9.34-2.6,.1-8.4,2.1-8.9,9.3z" fill="url(#y)"/><path d="M9.92,40.6c0,0,4.09-8.38,9.52-10,4.34-1.32,1.35-1.30,.014-1.62-1.40-.338-2.43,.234-2.05,.022,.4-.2-7.3,.1-7.48,11.6z" fill="url(#z)"/><path d="M18.5,34.7c0,0,4.22-6.75,9.24-8.55-2.5-.1-8.3,1.5-9.2,8.5z" fill="url(#aa)"/><path d="M25.7,23.2c0,0-3.18,1.39-8.79-.942l5,2.51,3.8-1.6z" fill="url(#bb)"/><path d="M24.2,24.1c0,0-4.24,1.64-12.4-.802l6.98,2.78c.8-.8,5.4-2,5.4-2z" fill="url(#cc)"/><path d="M27.3,22.8c0,0-2.81,.856-8.01-1.15l5,2.51c.5-.4,3-1.3,3-1.3z" fill="url(#dd)"/><path d="M18.5,26c0,0-2.09,1.74-7.44,1.81l4.63,.151,2.8-2z" fill="url(#ee)"/><path d="M13.4,34.9c0,0,7.15-9.32,13-11.4-2.9-.2-11.9,3.1-13,11.4z" fill="url(#ff)"/><path d="M83.7,95.1c0,0-20.6,4.70-33.9-6.64-12.2-10.4-6.14-1.64-4.49,2.66,1.70,4.42-7.85,1.04-9.29,.332-1.4-.7,22.6,14.5,47.7,3.6z" fill="url(#gg)"/><path d="M43.6,104c0,0-11.7-9.07-17-21.5-4.44-1.54-10.3-5.07-10.5-5.67,1.9,9.9,11.8,21.1,27.5,27.2z" fill="url(#ii)"/></g><path d="M124,50.8c0,0,.771,17.3-23.2,41.3-2.67,2.67-17.2,16.2-16.6,20.3,.1,2,37.6-5,39.6-61.2z" fill="url(#qq)"/><path d="M77.6,10.1c28.9,2.22,34.5,23,34.5,21.7,0-20.2-27.3-21.7-34.4-21.7z" fill="url(#rr)"/><path d="M86.4,18c0,0,20.1,4.10,25.7,25.4,.75,2.82-2.42-17.3-1.44-15.4,1,1.9-8-9.4-24.6-10z" fill="url(#ss)"/><path d="M94.5,17.5c0,0,18.1,3.78,18.3,32.5,.127,20.3,3.14,7.64,6.13,3.06,2.58-3.95,.816-8.76,.754-8.75-.01,.003-1.30-3.74-.432-2.16,.039,.07-1.22-1.03-1.21-1.04-1-.1-2-20.7-24.5-23.7z" fill="url(#tt)"/><path d="M115,21.4c0,0,6.50,16.9-.389,25.4-2.25,2.75-2.50,16.8,.247,15.5,2.76-1.30,2.16,7.48,1.80,8.48-.008,.019-.01,.028-.006,.031,0,.1,13-21.7-2-49.4z" fill="url(#uu)"/><path d="M106,39.2c0,0,4.10,12-.193,20.6l3.24,7.24c2-5.8,5-18.2-3-27.8z" fill="url(#vv)"/><path d="m113,37.8c1.3,12.4-1,25.4-7.4,36.2,.8,4.11-2.4,10.2-.1,12.1-2.7,1.22-3.4,2.97-.6,.43,2.4-1.21,5.9-2.04,1.1-.9,10.6-9.22,14.7-24.6,10.7-38-.9-3.39-2.2-6.68-3.7-9.84zm-11.9,50.6z" fill="url(#ww)"/><path d="M100,58.1c0,0,8.06,22.9-17.7,44.4-1.52,1.27,10.5,.726,11.5,.25,3.09-1.40,6.73-10.8,6.30-9.64,0,1.8,12-15.8,0-34.3z" fill="url(#xx)"/><path d="M112,72.6c0,0-4.86,29.7-38.5,32.1-13.2,.938-32-2.14-30.4,2.88,.519,1.56,2.99,8.04,8.64,9.55,15.1,3,55.3,2,60.3-45.4z" fill="url(#yy)"/><path d="M70.4,106c0,0-24.5-4.82-32.3-21.4-6.64-14.2-4.88-3.78-5.18,.962-.314,4.88-7.19-1.78-8.11-2.94-.026-.028-.044-.047-.046-.042-.2,.3,12.6,20.3,45.6,23.3z" fill="url(#hh)"/></svg>