<svg xmlns="http://www.w3.org/2000/svg" xmlns:xlink="http://www.w3.org/1999/xlink">
 <title>Firefox KDE Icon Simplified by Marek Raida</title>
 <defs>
  <linearGradient id="linearGradient21068" y2="-68.041" xlink:href="#linearGradient6228" gradientUnits="userSpaceOnUse" x2="-484.68" y1="-106.21" x1="-484.68"/>
  <linearGradient id="linearGradient24100" y2="-53.15" gradientUnits="userSpaceOnUse" x2="-265.52" gradientTransform="translate(0,.8060632)" y1="-48.899" x1="-261.66">
   <stop id="stop12769" stop-color="#eda071" offset="0"/>
   <stop id="stop12771" stop-color="#eda071" stop-opacity="0" offset="1"/>
  </linearGradient>
  <linearGradient id="linearGradient24103" y2="-66.048" gradientUnits="userSpaceOnUse" x2="-317.53" gradientTransform="translate(0,.8060632)" y1="-73.432" x1="-313.64">
   <stop id="stop11790" stop-color="#eda071" offset="0"/>
   <stop id="stop11792" stop-color="#eda071" stop-opacity="0" offset="1"/>
  </linearGradient>
  <linearGradient id="linearGradient24106" y2="-54.151" gradientUnits="userSpaceOnUse" x2="-324.82" gradientTransform="translate(0,.8060632)" y1="-64.612" x1="-32.72">
   <stop id="stop11780" stop-color="#eda071" offset="0"/>
   <stop id="stop11782" stop-color="#eda071" stop-opacity="0" offset="1"/>
  </linearGradient>
  <linearGradient id="linearGradient24109" y2="-7.356" gradientUnits="userSpaceOnUse" x2="-323.79" gradientTransform="translate(0,.8060632)" y1="-75.484" x1="-321.48">
   <stop id="stop11770" stop-color="#eda071" offset="0"/>
   <stop id="stop11772" stop-color="#eda071" stop-opacity="0" offset="1"/>
  </linearGradient>
  <linearGradient id="linearGradient24112" y2="-84.99" xlink:href="#linearGradient6228" gradientUnits="userSpaceOnUse" x2="-308.71" gradientTransform="translate(0,.8060632)" y1="-96.788" x1="-294.36"/>
  <linearGradient id="linearGradient24116" y2="-85.561" gradientUnits="userSpaceOnUse" x2="-145.54" gradientTransform="translate(0,.8060632)" y1="-67.654" x1="-145.54">
   <stop id="stop10680" stop-color="#eec603" stop-opacity="0" offset="0"/>
   <stop id="stop10682" stop-color="#f7e382" stop-opacity=".8" offset=".5"/>
   <stop id="stop10684" stop-color="#fcfcfc" offset="1"/>
   <stop id="stop10686" stop-color="#eec603" stop-opacity="0" offset="1"/>
  </linearGradient>
  <linearGradient id="linearGradient24119" y2="-103.62" gradientUnits="userSpaceOnUse" x2="-18.25" gradientTransform="translate(0,.8060632)" y1="-89.365" x1="-159.99">
   <stop id="stop10708" stop-color="#eec603" stop-opacity="0" offset="0"/>
   <stop id="stop10710" stop-color="#f7e382" stop-opacity=".8" offset=".5"/>
   <stop id="stop10712" stop-color="#fcfcfc" offset="1"/>
   <stop id="stop10714" stop-color="#eec603" stop-opacity="0" offset="1"/>
  </linearGradient>
  <linearGradient id="linearGradient24122" y2="-114.58" gradientUnits="userSpaceOnUse" x2="-198.63" gradientTransform="translate(0,.8060632)" y1="-113.16" x1="-189.68">
   <stop id="stop10756" stop-color="#eec603" stop-opacity=".34" offset="0"/>
   <stop id="stop10758" stop-color="#f7e382" stop-opacity=".8" offset=".5"/>
   <stop id="stop10760" stop-color="#fcfcfc" offset="1"/>
   <stop id="stop10762" stop-color="#eec603" stop-opacity="0" offset="1"/>
  </linearGradient>
  <linearGradient id="linearGradient24125" y2="-62.981" gradientUnits="userSpaceOnUse" x2="-162.08" gradientTransform="translate(0,.8060632)" y1="-47.901" x1="-16.8">
   <stop id="stop10660" stop-color="#eec603" stop-opacity="0" offset="0"/>
   <stop id="stop10662" stop-color="#f7e382" stop-opacity=".8" offset=".5"/>
   <stop id="stop10664" stop-color="#fcfcfc" offset="1"/>
   <stop id="stop10666" stop-color="#eec603" stop-opacity="0" offset="1"/>
  </linearGradient>
  <linearGradient id="linearGradient24128" y2="2.4848" gradientUnits="userSpaceOnUse" x2="-161.24" gradientTransform="translate(0,.8060632)" y1="41.929" x1="-197.58">
   <stop id="stop9538" stop-color="#c80000" offset="0"/>
   <stop id="stop9542" stop-color="#fef20a" offset=".46"/>
   <stop id="stop9532" stop-color="#FFF" offset="1"/>
  </linearGradient>
  <linearGradient id="linearGradient24131" y2="-29.102" xlink:href="#linearGradient9621" gradientUnits="userSpaceOnUse" x2="-169.36" gradientTransform="translate(0,.8060632)" y1="11.661" x1="-176.48"/>
  <linearGradient id="linearGradient24134" y2="-37.999" xlink:href="#linearGradient9621" gradientUnits="userSpaceOnUse" x2="-136.36" gradientTransform="translate(0,.8060632)" y1="26.563" x1="-164.47"/>
  <linearGradient id="linearGradient24137" y2="26.249" gradientUnits="userSpaceOnUse" x2="-227.9" gradientTransform="translate(0,.8060632)" y1="22.712" x1="-189.74">
   <stop id="stop9520" stop-color="#FFF" offset="0"/>
   <stop id="stop9522" stop-color="#FFF" stop-opacity="0" offset="1"/>
  </linearGradient>
  <linearGradient id="linearGradient24141" y2="545.11" gradientUnits="userSpaceOnUse" x2="334.82" gradientTransform="matrix(1.0022485,0,0,1.0022485,-598.67231,-547.45206)" y1="488.39" x1="307.93">
   <stop id="stop6238" stop-color="#971603" offset="0"/>
   <stop id="stop6240" stop-color="#971603" stop-opacity="0" offset="1"/>
  </linearGradient>
  <linearGradient id="linearGradient6228">
   <stop id="stop6230" stop-color="#6977e6" offset="0"/>
   <stop id="stop6232" stop-color="#f2e68a" stop-opacity="0" offset="1"/>
  </linearGradient>
  <linearGradient id="linearGradient24144" y2="527.82" xlink:href="#linearGradient6228" gradientUnits="userSpaceOnUse" x2="365.33" gradientTransform="matrix(1.0022485,0,0,1.0022485,-598.67231,-547.45206)" y1="527.82" x1="375.83"/>
  <linearGradient id="linearGradient24147" y2="539.34" gradientUnits="userSpaceOnUse" x2="372.9" gradientTransform="matrix(1.0022485,0,0,1.0022485,-598.67231,-547.45206)" y1="539.34" x1="325.74">
   <stop id="stop6222" stop-color="#941403" offset="0"/>
   <stop id="stop6224" stop-color="#941403" stop-opacity="0" offset="1"/>
  </linearGradient>
  <linearGradient id="linearGradient24151" y2="-62.014" xlink:href="#linearGradient9621" gradientUnits="userSpaceOnUse" x2="-151.12" gradientTransform="translate(0,.8060632)" y1="-1.883" x1="-158.34"/>
  <linearGradient id="linearGradient24154" y2="-103.15" gradientUnits="userSpaceOnUse" x2="-192.51" gradientTransform="translate(0,.8060632)" y1="-87.716" x1="-166.59">
   <stop id="stop10736" stop-color="#eec603" stop-opacity="0" offset="0"/>
   <stop id="stop10738" stop-color="#f7e382" stop-opacity=".8" offset=".5"/>
   <stop id="stop10740" stop-color="#fcfcfc" offset="1"/>
   <stop id="stop10742" stop-color="#eec603" stop-opacity="0" offset="1"/>
  </linearGradient>
  <linearGradient id="linearGradient24160" y2="412.86" gradientUnits="userSpaceOnUse" x2="279.24" gradientTransform="matrix(1.0022485,0,0,1.0022485,-598.67231,-547.45206)" y1="447.67" x1="284.84">
   <stop id="stop6246" stop-color="#c33c07" offset="0"/>
   <stop id="stop6252" stop-color="#c33c07" stop-opacity=".5" offset=".5"/>
   <stop id="stop6248" stop-color="#c33c07" stop-opacity="0" offset="1"/>
  </linearGradient>
  <linearGradient id="linearGradient24163" y2="-104.85" gradientUnits="userSpaceOnUse" x2="-255.69" gradientTransform="translate(0,.8060632)" y1="-98.946" x1="-266.48">
   <stop id="stop14784" stop-color="#df731b" offset="0"/>
   <stop id="stop14786" stop-color="#df1f1b" offset="1"/>
  </linearGradient>
  <linearGradient id="linearGradient9621">
   <stop id="stop9623" stop-color="#eec603" offset="0"/>
   <stop id="stop10656" stop-color="#f7e382" stop-opacity=".8" offset=".5"/>
   <stop id="stop9629" stop-color="#fcfcfc" offset="1"/>
   <stop id="stop9625" stop-color="#eec603" stop-opacity="0" offset="1"/>
  </linearGradient>
  <linearGradient id="linearGradient24167" y2="-26.034" xlink:href="#linearGradient9621" gradientUnits="userSpaceOnUse" x2="-171.62" gradientTransform="translate(0,.8060632)" y1="18.263" x1="-175.78"/>
  <filter id="filter24095">
   <feGaussianBlur id="feGaussianBlur24097" stdDeviation=".9554"/>
  </filter>
  <linearGradient id="linearGradient23016" y2="-127.42" gradientUnits="userSpaceOnUse" x2="-388.78" y1="-31.283" x1="-388.78">
   <stop id="stop23012" stop-color="#0d1a53" offset="0"/>
   <stop id="stop23014" stop-color="#000" stop-opacity="0" offset="1"/>
  </linearGradient>
  <linearGradient id="linearGradient24303" y2="-104.35" xlink:href="#linearGradient19074" gradientUnits="userSpaceOnUse" x2="-486.51" y1="42.677" x1="-483.16"/>
  <linearGradient id="linearGradient19074">
   <stop id="stop19076" stop-color="#303581" stop-opacity=".7" offset="0"/>
   <stop id="stop19078" stop-color="#FFF" stop-opacity=".3" offset="1"/>
  </linearGradient>
  <linearGradient id="linearGradient24291" y2="-24.241" xlink:href="#linearGradient20083" gradientUnits="userSpaceOnUse" x2="-388.54" y1="-24.241" x1="-584.48"/>
  <linearGradient id="linearGradient20083">
   <stop id="stop20085" stop-color="#000" offset="0"/>
   <stop id="stop20087" stop-color="#000" stop-opacity="0" offset="1"/>
  </linearGradient>
 </defs>
 <g>
  <g transform="matrix(0.3104757,0,0,.3104757,105.43121,43.034961)">
   <g transform="translate(250.88365,-10.341051)">
    <path d="m-130.6-39.95c0,54.11-43.9,97.97-98,97.97s-98-43.86-98-97.97c0-54.1,43.9-97.95,98-97.95s98,43.85,98,97.95z" fill-rule="nonzero" transform="translate(-257.91698,15.704761)" fill="#66bed1"/>
    <path fill-rule="evenodd" fill="#06366a" d="M-487.18-77.934s1.67-2.666-0.33-3.665c-2-1-0.67,2.999-3.33,1.999-2.67-1-4.33-3.999-1-5.665s7-3.998,8.33-5.665c1.33-1.666,5,9.664,2.66,10.997-2.33,1.333-5.33,1.999-6.33,1.999z"/>
    <path fill-rule="evenodd" fill="#06366a" d="M-474.66-9.4336c0.82,0,7.39,.6154,9.85-0.6154,2.46-1.231,3.69,4.3077,2.87-1.846-0.82-6.154-1.64-5.744,0-6.974,1.64-1.231,3.49-1.026,1.44-2.872-2.06-1.846-1.24-0.821-3.29-0.615-2.05,.205-3.48-2.667-2.66-5.334,.82-2.666,6.97-6.359,4.71-7.589-2.25-1.231-2.25,1.025-4.51,0-2.25-1.026-10.25-6.769-9.23-9.026,1.03-2.256,2.26-2.871,.62-4.102s-2.47,.82-1.44-2.667,3.49-7.179,6.15-5.333c2.67,1.846,2.88,2.667,5.34,4.308s2.46,5.128,5.13,2.461c2.66-2.667,4.71-2.051,2.66-4.718-2.05-2.666-3.69-1.436-2.05-4.102,1.64-2.667,1.85-3.693,2.87-2.462,1.03,1.231-1.64,2.051,2.05,1.231,3.7-0.821,2.67-2.872,4.11-1.026,1.43,1.846-0.82,0,2.25,2.872,3.08,2.872,2.26,2.256,3.28,4.513,1.03,2.256,3.49,1.025,1.03,3.487-2.46,2.461-3.69,1.846-2.46,3.077,1.23,1.23,0,2.666,1.85,1.23,1.84-1.435,1.84-3.076,2.87-1.435,1.02,1.641,2.05,1.025,1.02,2.051-1.02,1.025-1.23-0.41-2.05,1.231s-0.82,2.256,1.23,5.128c2.05,2.871-0.61,3.692,3.69,4.307,4.31,.616,8.62-5.333,8.82-3.897,.21,1.436-3.69,3.692-2.87,4.513,.82,.82,5.95-4.923,6.16-3.487,.2,1.435-2.88,5.743-2.67,6.974,.2,1.231,0-0.205,.2,2.461,.21,2.667,2.06,2.257,0,3.282-2.05,1.026-1.84,1.231-2.05,2.462-0.2,1.231,.82,1.025-0.41,1.846-1.23,.82,1.64,.615-2.05,.82-3.69,.206-4.51-0.82-3.9,.616,.62,1.436,1.03,.41,1.44,2.461,.41,2.052,.21,6.154,0,7.5899-0.2,1.4359,.82-0.2051-1.02,3.6923-1.85,3.8974-1.85,4.5127-2.88,4.7179-1.02,.20512-4.3-0.61538-4.3-0.61538s-1.44-0.61538-1.03,.61538c0.41,1.2307,.82,.61537,1.64,2.0512,.82,1.4359,3.08,4.5127,1.44,4.7179-1.64,.2051-1.23,1.641-2.46,0-1.24-1.641-2.26-4.923-3.49-2.2564s-0.82-1.0256-1.64,3.4871c-0.82,4.5131-1.03,2.4611-1.03,5.9491,0,3.487,0,3.076,.21,4.512,.2,1.436-2.26,11.487-2.26,11.487l-10.87-0.82-1.03-6.769s0-1.436-3.28-1.641-1.02,.205-4.1,0-2.87-1.231-2.87-1.231l3.48-0.821-0.41-1.846s2.26-0.205-1.84-0.41-7.8,.205-7.59-0.82c0.2-1.026,1.23-1.641-1.23-1.436s-1.64-1.436-1.64-1.436,.61-0.41,1.64-1.436c1.02-1.026,1.43-2.2565,2.87-4.3077s0.61-2.8717,0-4.923c-0.62-2.0512-1.03-4.3076-0.41-5.7435,.61-1.4359,4.1-5.9486,4.1-5.5384z"/>
    <path fill-rule="nonzero" fill="#06366a" d="M-491.82-122.21c-34.72,1.76-64.67,21.63-80.63,50.345l-1.62,4.469,2.31,1s3.01-0.334,7.35-1c4.33-0.667,1.01-0.333,7.34,0s1.34,.989,8,.656,13.99-5.002,26.66-12c12.66-6.998,4-3.656,6-4.656s0.65-0.354,3.65-0.688c3-0.333,5-0.656,5-0.656s2.67-0.656,4-0.656c1.34,0,.65-0.002,2.31-5,1.67-4.998,.69-2.001,3.69-5s0.98-2.991,1.31-6.654c0.34-3.67-0.32-2.34-2.65-4-2.33-1.67,.01-2.67,.34-5,.34-2.33,.98-3.02,3.31-5.69,2.34-2.67,5-3.66,5-3.66l-1.15-1.81h-0.22z"/>
    <path d="M-483.54-122.21s3.87,10.34,7.38,9.41c1.36,2.37-1.94,10.03-1.94,10.03l2,2.34,3.65,3.658-1.65,1.344-3.35,.656,6,4s-0.99,1.344-2.65,1.344c-1.67,0-1.69-3.333-2.69,0-1,3.332-3.64,2.99-0.31,4.656s2.32,2,5.65,1c3.34-1,5.68-2,7.35-3,1.66-1-0.68-3.667,2.65-3,3.34,.666,9.68,1.667,10.35,4,.66,2.332-0.02-0.332,.31,3s-1.32,4.01,1.34,4.344c2.67,.333,4-1.666,4,1,0,2.665,4,3.656,4,3.656l2,3s-4,5.675,.66,.344c4.67-5.332,9.66-2.344,9.66-2.344l5-4s0.67-3.344,6-3.344-11.34,4.343,5.65,.344c2.06-0.484,3.91-0.89,5.6-1.25-17.18-24.148-45.04-40.158-76.66-41.188z" fill-rule="evenodd" fill="#06366a"/>
   </g>
   <g fill="url(#linearGradient24291)" transform="translate(250.87959,-9.9771263)">
    <path d="m-130.6-39.95c0,54.11-43.9,97.97-98,97.97s-98-43.86-98-97.97c0-54.1,43.9-97.95,98-97.95s98,43.85,98,97.95z" fill-rule="nonzero" transform="translate(-257.91698,15.704761)"/>
    <path fill-rule="evenodd" d="M-487.18-77.934s1.67-2.666-0.33-3.665c-2-1-0.67,2.999-3.33,1.999-2.67-1-4.33-3.999-1-5.665s7-3.998,8.33-5.665c1.33-1.666,5,9.664,2.66,10.997-2.33,1.333-5.33,1.999-6.33,1.999z"/>
    <path fill-rule="evenodd" d="M-474.66-9.4336c0.82,0,7.39,.6154,9.85-0.6154,2.46-1.231,3.69,4.3077,2.87-1.846-0.82-6.154-1.64-5.744,0-6.974,1.64-1.231,3.49-1.026,1.44-2.872-2.06-1.846-1.24-0.821-3.29-0.615-2.05,.205-3.48-2.667-2.66-5.334,.82-2.666,6.97-6.359,4.71-7.589-2.25-1.231-2.25,1.025-4.51,0-2.25-1.026-10.25-6.769-9.23-9.026,1.03-2.256,2.26-2.871,.62-4.102s-2.47,.82-1.44-2.667,3.49-7.179,6.15-5.333c2.67,1.846,2.88,2.667,5.34,4.308s2.46,5.128,5.13,2.461c2.66-2.667,4.71-2.051,2.66-4.718-2.05-2.666-3.69-1.436-2.05-4.102,1.64-2.667,1.85-3.693,2.87-2.462,1.03,1.231-1.64,2.051,2.05,1.231,3.7-0.821,2.67-2.872,4.11-1.026,1.43,1.846-0.82,0,2.25,2.872,3.08,2.872,2.26,2.256,3.28,4.513,1.03,2.256,3.49,1.025,1.03,3.487-2.46,2.461-3.69,1.846-2.46,3.077,1.23,1.23,0,2.666,1.85,1.23,1.84-1.435,1.84-3.076,2.87-1.435,1.02,1.641,2.05,1.025,1.02,2.051-1.02,1.025-1.23-0.41-2.05,1.231s-0.82,2.256,1.23,5.128c2.05,2.871-0.61,3.692,3.69,4.307,4.31,.616,8.62-5.333,8.82-3.897,.21,1.436-3.69,3.692-2.87,4.513,.82,.82,5.95-4.923,6.16-3.487,.2,1.435-2.88,5.743-2.67,6.974,.2,1.231,0-0.205,.2,2.461,.21,2.667,2.06,2.257,0,3.282-2.05,1.026-1.84,1.231-2.05,2.462-0.2,1.231,.82,1.025-0.41,1.846-1.23,.82,1.64,.615-2.05,.82-3.69,.206-4.51-0.82-3.9,.616,.62,1.436,1.03,.41,1.44,2.461,.41,2.052,.21,6.154,0,7.5899-0.2,1.4359,.82-0.2051-1.02,3.6923-1.85,3.8974-1.85,4.5127-2.88,4.7179-1.02,.20512-4.3-0.61538-4.3-0.61538s-1.44-0.61538-1.03,.61538c0.41,1.2307,.82,.61537,1.64,2.0512,.82,1.4359,3.08,4.5127,1.44,4.7179-1.64,.2051-1.23,1.641-2.46,0-1.24-1.641-2.26-4.923-3.49-2.2564s-0.82-1.0256-1.64,3.4871c-0.82,4.5131-1.03,2.4611-1.03,5.9491,0,3.487,0,3.076,.21,4.512,.2,1.436-2.26,11.487-2.26,11.487l-10.87-0.82-1.03-6.769s0-1.436-3.28-1.641-1.02,.205-4.1,0-2.87-1.231-2.87-1.231l3.48-0.821-0.41-1.846s2.26-0.205-1.84-0.41-7.8,.205-7.59-0.82c0.2-1.026,1.23-1.641-1.23-1.436s-1.64-1.436-1.64-1.436,.61-0.41,1.64-1.436c1.02-1.026,1.43-2.2565,2.87-4.3077s0.61-2.8717,0-4.923c-0.62-2.0512-1.03-4.3076-0.41-5.7435,.61-1.4359,4.1-5.9486,4.1-5.5384z"/>
    <path fill-rule="nonzero" d="M-491.82-122.21c-34.72,1.76-64.67,21.63-80.63,50.345l-1.62,4.469,2.31,1s3.01-0.334,7.35-1c4.33-0.667,1.01-0.333,7.34,0s1.34,.989,8,.656,13.99-5.002,26.66-12c12.66-6.998,4-3.656,6-4.656s0.65-0.354,3.65-0.688c3-0.333,5-0.656,5-0.656s2.67-0.656,4-0.656c1.34,0,.65-0.002,2.31-5,1.67-4.998,.69-2.001,3.69-5s0.98-2.991,1.31-6.654c0.34-3.67-0.32-2.34-2.65-4-2.33-1.67,.01-2.67,.34-5,.34-2.33,.98-3.02,3.31-5.69,2.34-2.67,5-3.66,5-3.66l-1.15-1.81h-0.22z"/>
    <path d="M-483.54-122.21s3.87,10.34,7.38,9.41c1.36,2.37-1.94,10.03-1.94,10.03l2,2.34,3.65,3.658-1.65,1.344-3.35,.656,6,4s-0.99,1.344-2.65,1.344c-1.67,0-1.69-3.333-2.69,0-1,3.332-3.64,2.99-0.31,4.656s2.32,2,5.65,1c3.34-1,5.68-2,7.35-3,1.66-1-0.68-3.667,2.65-3,3.34,.666,9.68,1.667,10.35,4,.66,2.332-0.02-0.332,.31,3s-1.32,4.01,1.34,4.344c2.67,.333,4-1.666,4,1,0,2.665,4,3.656,4,3.656l2,3s-4,5.675,.66,.344c4.67-5.332,9.66-2.344,9.66-2.344l5-4s0.67-3.344,6-3.344-11.34,4.343,5.65,.344c2.06-0.484,3.91-0.89,5.6-1.25-17.18-24.148-45.04-40.158-76.66-41.188z" fill-rule="evenodd"/>
   </g>
   <g opacity=".3" fill="url(#linearGradient24303)" transform="translate(250.40834,-10.919632)">
    <path d="m-130.6-39.95c0,54.11-43.9,97.97-98,97.97s-98-43.86-98-97.97c0-54.1,43.9-97.95,98-97.95s98,43.85,98,97.95z" fill-rule="nonzero" transform="translate(-257.91698,15.704761)"/>
    <path fill-rule="evenodd" d="M-487.18-77.934s1.67-2.666-0.33-3.665c-2-1-0.67,2.999-3.33,1.999-2.67-1-4.33-3.999-1-5.665s7-3.998,8.33-5.665c1.33-1.666,5,9.664,2.66,10.997-2.33,1.333-5.33,1.999-6.33,1.999z"/>
    <path fill-rule="evenodd" d="M-474.66-9.4336c0.82,0,7.39,.6154,9.85-0.6154,2.46-1.231,3.69,4.3077,2.87-1.846-0.82-6.154-1.64-5.744,0-6.974,1.64-1.231,3.49-1.026,1.44-2.872-2.06-1.846-1.24-0.821-3.29-0.615-2.05,.205-3.48-2.667-2.66-5.334,.82-2.666,6.97-6.359,4.71-7.589-2.25-1.231-2.25,1.025-4.51,0-2.25-1.026-10.25-6.769-9.23-9.026,1.03-2.256,2.26-2.871,.62-4.102s-2.47,.82-1.44-2.667,3.49-7.179,6.15-5.333c2.67,1.846,2.88,2.667,5.34,4.308s2.46,5.128,5.13,2.461c2.66-2.667,4.71-2.051,2.66-4.718-2.05-2.666-3.69-1.436-2.05-4.102,1.64-2.667,1.85-3.693,2.87-2.462,1.03,1.231-1.64,2.051,2.05,1.231,3.7-0.821,2.67-2.872,4.11-1.026,1.43,1.846-0.82,0,2.25,2.872,3.08,2.872,2.26,2.256,3.28,4.513,1.03,2.256,3.49,1.025,1.03,3.487-2.46,2.461-3.69,1.846-2.46,3.077,1.23,1.23,0,2.666,1.85,1.23,1.84-1.435,1.84-3.076,2.87-1.435,1.02,1.641,2.05,1.025,1.02,2.051-1.02,1.025-1.23-0.41-2.05,1.231s-0.82,2.256,1.23,5.128c2.05,2.871-0.61,3.692,3.69,4.307,4.31,.616,8.62-5.333,8.82-3.897,.21,1.436-3.69,3.692-2.87,4.513,.82,.82,5.95-4.923,6.16-3.487,.2,1.435-2.88,5.743-2.67,6.974,.2,1.231,0-0.205,.2,2.461,.21,2.667,2.06,2.257,0,3.282-2.05,1.026-1.84,1.231-2.05,2.462-0.2,1.231,.82,1.025-0.41,1.846-1.23,.82,1.64,.615-2.05,.82-3.69,.206-4.51-0.82-3.9,.616,.62,1.436,1.03,.41,1.44,2.461,.41,2.052,.21,6.154,0,7.5899-0.2,1.4359,.82-0.2051-1.02,3.6923-1.85,3.8974-1.85,4.5127-2.88,4.7179-1.02,.20512-4.3-0.61538-4.3-0.61538s-1.44-0.61538-1.03,.61538c0.41,1.2307,.82,.61537,1.64,2.0512,.82,1.4359,3.08,4.5127,1.44,4.7179-1.64,.2051-1.23,1.641-2.46,0-1.24-1.641-2.26-4.923-3.49-2.2564s-0.82-1.0256-1.64,3.4871c-0.82,4.5131-1.03,2.4611-1.03,5.9491,0,3.487,0,3.076,.21,4.512,.2,1.436-2.26,11.487-2.26,11.487l-10.87-0.82-1.03-6.769s0-1.436-3.28-1.641-1.02,.205-4.1,0-2.87-1.231-2.87-1.231l3.48-0.821-0.41-1.846s2.26-0.205-1.84-0.41-7.8,.205-7.59-0.82c0.2-1.026,1.23-1.641-1.23-1.436s-1.64-1.436-1.64-1.436,.61-0.41,1.64-1.436c1.02-1.026,1.43-2.2565,2.87-4.3077s0.61-2.8717,0-4.923c-0.62-2.0512-1.03-4.3076-0.41-5.7435,.61-1.4359,4.1-5.9486,4.1-5.5384z"/>
    <path fill-rule="nonzero" d="M-491.82-122.21c-34.72,1.76-64.67,21.63-80.63,50.345l-1.62,4.469,2.31,1s3.01-0.334,7.35-1c4.33-0.667,1.01-0.333,7.34,0s1.34,.989,8,.656,13.99-5.002,26.66-12c12.66-6.998,4-3.656,6-4.656s0.65-0.354,3.65-0.688c3-0.333,5-0.656,5-0.656s2.67-0.656,4-0.656c1.34,0,.65-0.002,2.31-5,1.67-4.998,.69-2.001,3.69-5s0.98-2.991,1.31-6.654c0.34-3.67-0.32-2.34-2.65-4-2.33-1.67,.01-2.67,.34-5,.34-2.33,.98-3.02,3.31-5.69,2.34-2.67,5-3.66,5-3.66l-1.15-1.81h-0.22z"/>
    <path d="M-483.54-122.21s3.87,10.34,7.38,9.41c1.36,2.37-1.94,10.03-1.94,10.03l2,2.34,3.65,3.658-1.65,1.344-3.35,.656,6,4s-0.99,1.344-2.65,1.344c-1.67,0-1.69-3.333-2.69,0-1,3.332-3.64,2.99-0.31,4.656s2.32,2,5.65,1c3.34-1,5.68-2,7.35-3,1.66-1-0.68-3.667,2.65-3,3.34,.666,9.68,1.667,10.35,4,.66,2.332-0.02-0.332,.31,3s-1.32,4.01,1.34,4.344c2.67,.333,4-1.666,4,1,0,2.665,4,3.656,4,3.656l2,3s-4,5.675,.66,.344c4.67-5.332,9.66-2.344,9.66-2.344l5-4s0.67-3.344,6-3.344-11.34,4.343,5.65,.344c2.06-0.484,3.91-0.89,5.6-1.25-17.18-24.148-45.04-40.158-76.66-41.188z" fill-rule="evenodd"/>
   </g>
   <path d="m-300.7-57.67c0,41.9-41.4,75.87-92.6,75.87-51.1,0-92.6-33.97-92.6-75.87,0-41.91,41.5-75.83,92.6-75.83,51.2,0,92.6,33.92,92.6,75.83z" fill-rule="nonzero" transform="translate(158.8122,39.585237)" fill="url(#linearGradient23016)"/>
   <g filter="url(#filter24095)" fill="#000" transform="translate(4.0515973e-3,.442144)">
    <path d="M-210.89,40.347s26.39-21.206,31.11-37.229c4.71-16.023,7.07-34.873,5.18-37.229-1.88-2.356,12.96,13.431,5.18,46.418-7.77,32.988-40.99,28.276-41.47,28.04z" fill-rule="evenodd"/>
    <path d="m-234-71.46c0,1.89-1.7,3.42-3.7,3.42-2.1,0-3.8-1.53-3.8-3.42,0-1.88,1.7-3.41,3.8-3.41,2,0,3.7,1.53,3.7,3.41z" fill-rule="nonzero" transform="matrix(0.862069,0,0,.862069,-36.618877,-13.040902)"/>
    <path d="M-252.59-106.81s-18.84,1-26.13,11.738c-7.29,10.741,11.85,5.513,11.85,5.513s1.82-8.435,14.28-17.251z" fill-rule="evenodd"/>
    <path d="M-323.6-79.749s-3.26-21.431,9.49-35.261c-0.27,9.22,11.7,20.136,11.7,20.136s-15.22,6.987-21.19,15.125z" fill-rule="evenodd"/>
    <path fill-rule="evenodd" d="M-266.4-88.171s5.67,9.446,8.26,9.919c2.6,.472,10.87-0.237,12.52,.236,1.65,.472,4.96,3.542,5.43,4.723,.48,1.181,.48,1.417,.48,1.417s0.23,1.417-0.71,2.361c-0.95,.945-17.95,10.627-18.19,12.517-0.23,1.889-8.5-3.543-9.44-12.281-0.95-8.737,1.41-18.42,1.65-18.892z"/>
    <path fill-rule="evenodd" d="M-265.46-62.666s4.73-5.904,7.56-5.904c2.84,0,3.78,1.417,6.85,1.417s10.86-6.612,10.86-6.612,1.66,2.125,.71,3.306c-0.94,1.18-18.42,12.044-19.13,13.697s-6.14-1.653-6.14-1.653l-0.71-4.251z"/>
    <path d="M-266.64-91.142c-10.08-5.573-21.99-6.791-33.28-5.648-8.69,3.435-17.95,8.2-23.67,15.787-6.51,11.917-12.81,24.642-13.58,38.418,.33-2.875,6.58-16.451,4.31-6.668-2.48,11.812-5.76,24.367-2.31,36.288,1.9-3.358,.28-17.141,2.54-6.563,5.68,20.536,13.56,41.863,30.61,55.712,19.53,17.413,45.75,27.311,72.01,25.513,16.87,.129,33.38-5.114,47.5-14.27,23.35-12.572,39.49-37.255,43.6-63.013,2.48-14.029,5.68-28.876,2.62-43.136-1.31-3.824,.33,16.285-2.68,5.596-2.37-15.504-3.85-31.729-11.1-45.876-7.03-9.888,2.08,12.16-0.92,10.42-9.18-19.448-32.06-26.908-52.05-28.278-7.1-0.4-23.37-0.87-23.9-0.52,13.84,1.72,28.63,2.01,41.15,8.75-0.22,2.85-16.15,2.42-17.26,4.46,12.01,3.7,24.75,8.682,31.95,19.636,4.48,5.637,9.86,11.786,9.72,19.434-2.36-4.789-9.69-9.687-6.48-0.651,.56,10.922,2.07,22.412-1.66,32.932-2.05-4.061-9.45-12.779-7.01-3.073-0.03,13.055,.22,28.373-9.54,38.338-0.44-4.4427,4.08-20.474-1.31-10.332-9.57,14.227-26.85,25.573-44.53,21.064-18.4-3.8087-37.94-15.639-42.52-35.052-1.44-7.901,.12-18.844,6.41-23.48,4.97-0.696,14.67,7.803,11.21-2.469-0.2-10.83-12.06-16.706-9.11-28.031-0.21-5.098-0.45-10.194-0.72-15.289z" fill-rule="evenodd"/>
    <path d="M-164.23-77.466s-7.54-17.672-30.63-25.684c10.36,1.89,25.68,6.362,35.58,17.672" fill-rule="evenodd"/>
    <path d="M-170.83-6.5427s17.44-21.913,15.55-62.912c6.84,13.666,8.48,26.861,7.78,34.873-0.71,8.011-8.25,39.585-14.38,44.062-6.12,4.4771-13.9-2.8275-13.9-2.8275l4.95-13.195z" fill-rule="evenodd"/>
    <path d="M-272.82-39.771s-1.64,7.606,3.09,11.307c4.72,3.7,9.25,9.457,17.06,8.84s16.65-6.168,21.59-6.168c4.93,0,10.48,2.056,10.48,2.056s2.11,2.589,.26,3c-1.85,.412-3.42,.043-3.42,.043s1.49,.767,3.54,1.795c2.06,1.028,1.68,5.236,1.68,5.236s-14.55,5.3929-17.1,8.7536c-4.52,5.962-30.6,4.9352-30.6,4.9352s-9.76-20.885-10.17-24.174,2.56-14.185,3.59-15.624z" fill-rule="evenodd"/>
    <path d="M-261.51-0.71017c7.54,.36096,15.33,.44715,22.59-1.9281,3.96-1.5361,7.06-4.6219,10.19-7.3977,.95-1.382,4.4-3.444,3.71-4.68-2.79,.024-5.01,2.208-7.53,3.187-3.91,2.1411-8.25,3.3164-12.68,3.5976-4.87,.3436-9.93,.7498-14.64-0.7966-4.23-1.797-8.29-3.978-12.33-6.168,3.23,4.802,6.27,9.8372,10.39,13.946l0.3,.23966v-0.00002z" fill-rule="evenodd"/>
    <path d="M-236.74-21.502s2.73-3.218,7.71-3.467c4.25-0.576,9.46,1.439,10.69,2.467,1.24,1.028,3.09,3.495,3.29,5.962,.21,2.467,.21,3.084-1.03,3.084-1.23,0-2.82,.26-3.64-0.973-0.82-1.234-3.76-4.207-8.21-5.648-9.01-1.293-9.43-1.425-8.81-1.425z" fill-rule="evenodd"/>
    <path d="M-268.26-45.84s-23.6-1.356-28.21,15.463c-4.62,16.818,17.69,29.992,26.31,33.366,16.4,6.4189,21.16,4.3404,21.16,4.3404s-15.19-7.3244-20.08-16.819c-4.88-9.4945-10.58-18.99,.82-36.35z" fill-rule="evenodd"/>
    <path fill-rule="evenodd" d="M-332.63-24.728c0.12-5.732,2.14-16.663,4.63-18.361-1.62,12.484-0.78,25.366,2.35,37.55,.52,3.0763,4.19,10.869,3.52,3.4716,.28-4.7892,.26-13.413,.74-15.834,3.11,16.203,8.29,32.633,19.39,45.242,4.05,5.053,8.45,10.013,14.05,13.389-9.5-13.147-22.13-26.063-23.17-43.137,2.19,9.3804,7.43,17.97,14.92,24.085,7.16,6.837,16.05,11.803,25.58,14.456-4.18-3.879-10.95-8.086-12.51-12.924,7.66-0.735,13.87,5.097,20.53,7.947,10.8,5.523,22.74,9.076,34.84,9.72-9.62-3.709-20.01-6.596-27.93-13.547,13.67,6.027,28.42,12.876,43.74,9.958,6.24-0.832,12.38-2.213,18.46-3.834-2.32,8.199-4.05,17.126-10.05,23.573-16.79,8.457-36.26,5.43-54.01,2.36-23.69-4.526-45.11-19.203-58.6-39.077-5.79-9.322-10.35-19.422-14.06-29.736-1.59-4.9365-2.17-10.156-2.42-15.302z"/>
    <path d="M-238.18,23.794s28.14-0.541,32.2-1.082c-7.3,4.872-20.84,8.12-31.39,6.766" fill-rule="evenodd"/>
    <path fill-rule="evenodd" d="M-137.84-43.536c-6.48,21.213-17.22,41.159-31.78,57.919-10.84,13.248-22.8,25.581-33.15,39.225-2.64,5.421,4.84,.907,7.1,.333,13.71-5.635,26.19-14.318,36.32-25.123,6.84-7.924,9.62-18.241,13.45-27.757,4.31-12.187,8.36-24.662,9.56-37.592,.14-2.403-0.11-4.964-1.5-7.005z"/>
    <path d="M-210.18,39.876s23.92-17.872,29.69-33.695c6.39-17.514,7.07-38.171,6.36-40.528-0.7-2.356,15.32,32.517,8.48,45.948-6.83,13.43-26.62,28.039-26.62,28.039l-17.91,.236z" fill-rule="evenodd"/>
    <path fill-rule="evenodd" d="M-210.53,37.12c14.18-5.039,30.2-9.64,38.93-22.977,6.41-8.1425,11.93-17.388,13.75-27.721-2.24,14.513-3.33,30.224-12.85,42.185-7.15,11.482-18.09,19.832-29.1,27.313-9,4.614-10.6-8.161-10.58-14.298-0.08-1.5-0.12-3.001-0.15-4.502z"/>
    <path fill-rule="evenodd" d="M-164.94-35.996s2.59-23.091-0.94-30.396c-3.54-7.304,11.31,15.316,7.54,26.155"/>
    <path d="M-169.65-98.673s-9.19-11.777-37.23-17.437c22.15,1.89,21.88,1.24,33.22,7.07,11.12,5.72,16.26,12.724,20.03,19.086" fill-rule="evenodd"/>
    <path d="M-156.69-66.627s-5.66-29.218-26.16-36.993c7.78,.23,20.74,3.769,31.11,21.677" fill-rule="evenodd"/>
    <path d="M-151.98-56.024s6.13-19.793,.47-39.585c-5.65-19.791,16.26,31.809,11.78,48.303" fill-rule="evenodd"/>
    <path fill-rule="nonzero" d="M-241.56-77.282c0.21,.076,.44,.12,.64,.165,.72,.453,.53,.149-1.33,.583,.08-0.074,.17-0.135,.25-0.206l1.7-0.398c-0.09,.074-0.18,.146-0.27,.21-1.57,.37-1.33,.718-2.02,.204-0.25-0.015-0.51-0.02-0.73-0.144l1.76-0.414z"/>
    <path opacity=".4" d="M-311.79-89.637s-4.92,6.769-5.13,9.435c-0.2,2.667,7.39-7.999,12.72-9.64s-3.49,5.128-4.1,9.435c-0.62,4.308,5.33-5.743,11.28-8,5.95-2.256-1.85,4.103-2.05,7.385-0.21,3.282,6.36-7.385,9.02-8,2.67-0.615,5.54,1.846,7.18,.41s4.31-6.769,4.31-6.769-19.69-2.872-23.59-0.41c-3.9,2.461-9.43,6.359-9.64,6.154z" fill-rule="evenodd"/>
    <path opacity=".4" d="M-322.05-76.92s-2.25,4.513-1.64,8.205c3.08-6.153,4.52-6.974,4.52-6.974" fill-rule="evenodd"/>
    <path opacity=".4" d="M-323.07-64.612s-2.26,4.718-1.64,10.461c2.66-6.769,5.33-9.23,5.33-9.23" fill-rule="evenodd"/>
    <path opacity=".4" d="M-315.69-73.432s-1.84,4.717-1.84,7.384c2.87-5.538,3.89-5.333,3.89-5.333" fill-rule="evenodd"/>
    <path opacity=".6" d="M-274.05-47.382s4.11-13.128,8.41-15.179c4.31-2.051,9.03,14.769,8.62,18.051s-7.59-3.077-17.03-2.872z" fill-rule="evenodd"/>
   </g>
   <path d="M-210.89,41.153s26.39-21.206,31.11-37.229c4.71-16.023,7.07-34.873,5.18-37.229-1.88-2.356,12.96,13.431,5.18,46.418-7.77,32.988-40.99,28.276-41.47,28.04z" fill-rule="evenodd" fill="url(#linearGradient24167)"/>
   <path d="m-234-71.46c0,1.89-1.7,3.42-3.7,3.42-2.1,0-3.8-1.53-3.8-3.42,0-1.88,1.7-3.41,3.8-3.41,2,0,3.7,1.53,3.7,3.41z" fill-rule="nonzero" transform="matrix(0.862069,0,0,.862069,-36.618877,-12.234839)" fill="#000"/>
   <path d="M-252.59-106s-18.84,.99-26.13,11.734c-7.29,10.742,11.85,5.513,11.85,5.513s1.82-8.435,14.28-17.247z" fill-rule="evenodd" fill="url(#linearGradient24163)"/>
   <path d="M-323.6-78.943s-3.26-21.427,9.49-35.267c-0.27,9.22,11.7,20.142,11.7,20.142s-15.22,6.987-21.19,15.125z" fill-rule="evenodd" fill="url(#linearGradient24160)"/>
   <path fill-rule="evenodd" fill="#ce4508" d="M-266.4-87.365s5.67,9.446,8.26,9.919c2.6,.472,10.87-0.237,12.52,.236,1.65,.472,4.96,3.542,5.43,4.723,.48,1.181,.48,1.417,.48,1.417s0.23,1.417-0.71,2.361c-0.95,.945-17.95,10.627-18.19,12.517-0.23,1.889-8.5-3.543-9.44-12.28-0.95-8.738,1.41-18.421,1.65-18.893z"/>
   <path fill-rule="evenodd" fill="#faecc1" d="M-265.46-61.86s4.73-5.904,7.56-5.904c2.84,0,3.78,1.417,6.85,1.417s10.86-6.612,10.86-6.612,1.66,2.125,.71,3.306c-0.94,1.181-18.42,12.044-19.13,13.697s-6.14-1.653-6.14-1.653l-0.71-4.251z"/>
   <path d="M-266.64-90.336c-10.08-5.573-21.99-6.791-33.28-5.648-8.69,3.435-17.95,8.201-23.67,15.787-6.51,11.917-12.81,24.643-13.58,38.418,.33-2.875,6.58-16.451,4.31-6.667-2.48,11.811-5.76,24.366-2.31,36.287,1.9-3.358,.28-17.141,2.54-6.562,5.68,20.535,13.56,41.862,30.61,55.711,19.53,17.413,45.75,27.311,72.01,25.513,16.87,.129,33.38-5.114,47.5-14.269,23.35-12.573,39.49-37.256,43.6-63.014,2.48-14.029,5.68-28.876,2.62-43.136-1.31-3.824,.33,16.285-2.68,5.596-2.37-15.504-3.85-31.729-11.1-45.876-7.03-9.884,2.08,12.16-0.92,10.42-9.18-19.454-32.06-26.914-52.05-28.274-7.1-0.41-23.37-0.88-23.9-0.52,13.84,1.72,28.63,2,41.15,8.75-0.22,2.84-16.15,2.42-17.26,4.45,12.01,3.703,24.75,8.688,31.95,19.642,4.48,5.637,9.86,11.787,9.72,19.434-2.36-4.789-9.69-9.687-6.48-0.651,.56,10.922,2.07,22.412-1.66,32.932-2.05-4.061-9.45-12.779-7.01-3.073-0.03,13.055,.22,28.373-9.54,38.338-0.44-4.4426,4.08-20.474-1.31-10.332-9.57,14.227-26.85,25.573-44.53,21.064-18.4-3.809-37.94-15.639-42.52-35.051-1.44-7.902,.12-18.845,6.41-23.481,4.97-0.696,14.67,7.803,11.21-2.469-0.2-10.83-12.06-16.706-9.11-28.031-0.21-5.098-0.45-10.194-0.72-15.289z" fill-rule="evenodd" fill="#df731b"/>
   <path d="M-164.23-76.66s-7.54-17.672-30.63-25.68c10.36,1.88,25.68,6.358,35.58,17.669" fill-rule="evenodd" fill="url(#linearGradient24154)"/>
   <path d="M-170.83-5.7366s17.44-21.913,15.55-62.912c6.84,13.666,8.48,26.862,7.78,34.873-0.71,8.011-8.25,39.585-14.38,44.062-6.12,4.477-13.9-2.8275-13.9-2.8275l4.95-13.195z" fill-rule="evenodd" fill="url(#linearGradient24151)"/>
   <path d="M-272.82-38.965s-1.64,7.606,3.09,11.307c4.72,3.7,9.25,9.457,17.06,8.84s16.65-6.168,21.59-6.168c4.93,0,10.48,2.056,10.48,2.056s2.11,2.589,.26,3.001c-1.85,.411-3.42,.042-3.42,.042s1.49,.767,3.54,1.795c2.06,1.028,1.68,5.236,1.68,5.236s-14.55,5.393-17.1,8.7536c-4.52,5.962-30.6,4.9353-30.6,4.9353s-9.76-20.885-10.17-24.174,2.56-14.185,3.59-15.624z" fill-rule="evenodd" fill="#df731b"/>
   <path d="M-261.51,.095898c7.54,.36095,15.33,.44714,22.59-1.9282,3.96-1.536,7.06-4.6218,10.19-7.3978,.95-1.3819,4.4-3.4439,3.71-4.6799-2.79,.024-5.01,2.208-7.53,3.187-3.91,2.1412-8.25,3.3165-12.68,3.5977-4.87,.3436-9.93,.7497-14.64-0.7966-4.23-1.7974-8.29-3.9781-12.33-6.1681,3.23,4.8018,6.27,9.8372,10.39,13.946l0.3,.23966v-0.000012z" fill-rule="evenodd" fill="url(#linearGradient24147)"/>
   <path d="M-236.74-20.696s2.73-3.218,7.71-3.467c4.25-0.576,9.46,1.439,10.69,2.467,1.24,1.028,3.09,3.495,3.29,5.962,.21,2.467,.21,3.084-1.03,3.084-1.23,0-2.82,.26-3.64-0.973-0.82-1.234-3.76-4.207-8.21-5.647-9.01-1.294-9.43-1.426-8.81-1.426z" fill-rule="evenodd" fill="url(#linearGradient24144)"/>
   <path d="M-268.26-45.034s-23.6-1.356-28.21,15.463c-4.62,16.818,17.69,29.992,26.31,33.366,16.4,6.4189,21.16,4.3404,21.16,4.3404s-15.19-7.3244-20.08-16.819c-4.88-9.4946-10.58-18.989,.82-36.351z" fill-rule="evenodd" fill="url(#linearGradient24141)"/>
   <path fill-rule="evenodd" fill="#c80000" d="M-332.63-23.922c0.12-5.731,2.14-16.663,4.63-18.361-1.62,12.484-0.78,25.366,2.35,37.55,.52,3.0763,4.19,10.869,3.52,3.4715,.28-4.7891,.26-13.413,.74-15.834,3.11,16.203,8.29,32.633,19.39,45.242,4.05,5.054,8.45,10.013,14.05,13.389-9.5-13.147-22.13-26.063-23.17-43.136,2.19,9.3803,7.43,17.97,14.92,24.084,7.16,6.837,16.05,11.803,25.58,14.456-4.18-3.879-10.95-8.086-12.51-12.924,7.66-0.735,13.87,5.097,20.53,7.947,10.8,5.523,22.74,9.076,34.84,9.72-9.62-3.709-20.01-6.596-27.93-13.547,13.67,6.027,28.42,12.877,43.74,9.958,6.24-0.831,12.38-2.213,18.46-3.834-2.32,8.199-4.05,17.126-10.05,23.573-16.79,8.457-36.26,5.43-54.01,2.36-23.69-4.526-45.11-19.203-58.6-39.077-5.79-9.322-10.35-19.422-14.06-29.735-1.59-4.9356-2.17-10.156-2.42-15.303z"/>
   <path d="M-238.18,24.601s28.14-0.542,32.2-1.083c-7.3,4.872-20.84,8.12-31.39,6.766" fill-rule="evenodd" fill="url(#linearGradient24137)"/>
   <path fill-rule="evenodd" fill="url(#linearGradient24134)" d="M-137.84-42.73c-6.48,21.213-17.22,41.16-31.78,57.92-10.84,13.247-22.8,25.58-33.15,39.224-2.64,5.421,4.84,.907,7.1,.333,13.71-5.635,26.19-14.318,36.32-25.123,6.84-7.924,9.62-18.241,13.45-27.757,4.31-12.187,8.36-24.662,9.56-37.592,.14-2.403-0.11-4.964-1.5-7.005z"/>
   <path d="M-210.18,40.682s23.92-17.872,29.69-33.695c6.39-17.514,7.07-38.171,6.36-40.528-0.7-2.356,15.32,32.517,8.48,45.948-6.83,13.43-26.62,28.039-26.62,28.039l-17.91,.236z" fill-rule="evenodd" fill="url(#linearGradient24131)"/>
   <path fill-rule="evenodd" fill="url(#linearGradient24128)" d="M-210.53,37.926c14.18-5.039,30.2-9.64,38.93-22.977,6.41-8.1424,11.93-17.388,13.75-27.721-2.24,14.513-3.33,30.224-12.85,42.185-7.15,11.482-18.09,19.832-29.1,27.313-9,4.615-10.6-8.161-10.58-14.298-0.08-1.5-0.12-3.001-0.15-4.502z"/>
   <path fill-rule="evenodd" fill="url(#linearGradient24125)" d="M-164.94-35.19s2.59-23.091-0.94-30.396c-3.54-7.304,11.31,15.316,7.54,26.155"/>
   <path d="M-169.65-97.867s-9.19-11.783-37.23-17.433c22.15,1.88,21.88,1.23,33.22,7.07,11.12,5.71,16.26,12.72,20.03,19.082" fill-rule="evenodd" fill="url(#linearGradient24122)"/>
   <path d="M-156.69-65.821s-5.66-29.218-26.16-36.989c7.78,.23,20.74,3.765,31.11,21.673" fill-rule="evenodd" fill="url(#linearGradient24119)"/>
   <path d="M-151.98-55.218s6.13-19.793,.47-39.585c-5.65-19.797,16.26,31.809,11.78,48.303" fill-rule="evenodd" fill="url(#linearGradient24116)"/>
   <path fill-rule="nonzero" fill="#FFF" d="M-241.56-76.476c0.21,.076,.44,.12,.64,.165,.72,.453,.53,.149-1.33,.583,.08-0.074,.17-0.135,.25-0.206l1.7-0.398c-0.09,.074-0.18,.146-0.27,.21-1.57,.371-1.33,.718-2.02,.204-0.25-0.015-0.51-0.019-0.73-0.144l1.76-0.414z"/>
   <path opacity=".4" d="M-311.79-88.831s-4.92,6.769-5.13,9.435c-0.2,2.667,7.39-7.999,12.72-9.64s-3.49,5.128-4.1,9.435c-0.62,4.308,5.33-5.743,11.28-8,5.95-2.256-1.85,4.103-2.05,7.385-0.21,3.282,6.36-7.385,9.02-8,2.67-0.615,5.54,1.846,7.18,.41s4.31-6.769,4.31-6.769-19.69-2.871-23.59-0.41c-3.9,2.462-9.43,6.359-9.64,6.154z" fill-rule="evenodd" fill="url(#linearGradient24112)"/>
   <path opacity=".4" d="M-322.05-76.114s-2.25,4.513-1.64,8.205c3.08-6.153,4.52-6.974,4.52-6.974" fill-rule="evenodd" fill="url(#linearGradient24109)"/>
   <path opacity=".4" d="M-323.07-63.806s-2.26,4.718-1.64,10.461c2.66-6.769,5.33-9.23,5.33-9.23" fill-rule="evenodd" fill="url(#linearGradient24106)"/>
   <path opacity=".4" d="M-315.69-72.626s-1.84,4.717-1.84,7.384c2.87-5.538,3.89-5.333,3.89-5.333" fill-rule="evenodd" fill="url(#linearGradient24103)"/>
   <path opacity=".6" d="M-274.05-46.576s4.11-13.128,8.41-15.179c4.31-2.051,9.03,14.769,8.62,18.051s-7.59-3.077-17.03-2.872z" fill-rule="evenodd" fill="url(#linearGradient24100)"/>
   <path d="m-435-77.7c0,15.74-22.2,28.51-49.7,28.51-27.4,0-49.7-12.77-49.7-28.51,0-15.75,22.3-28.5,49.7-28.5,27.5,0,49.7,12.75,49.7,28.5z" fill-rule="nonzero" transform="translate(247.40773,-23.562641)" fill="url(#linearGradient21068)"/>
  </g>
 </g>
<image xlink:href="http://www.google-analytics.com/__utm.gif?utmwv=4.7.1&amp;utmn=21830374&amp;utmhn=svg.kvalitne.cz&amp;utmcs=UTF-8&amp;utmsr=1920x1080&amp;utmsc=24-bit&amp;utmul=en-us&amp;utmje=1&amp;utmfl=10.0%20r45&amp;utmdt=SVG%C2%A0%E2%80%94%C2%A0It%27s%20in%20your%20hands...&amp;utmhid=1377849700&amp;utmr=-&amp;utmp=%2Findex2.htm&amp;utmac=UA-11950721-1&amp;utmcc=__utma%3D251371972.1884550355.1260220320.1272562824.1272576758.56%3B%2B__utmz%3D251371972.1263752798.41.3.utmcsr%3Dgoogle%7Cutmccn%3D(organic)%7Cutmcmd%3Dorganic%7Cutmctr%3Dsvg%2520smil%2520demo%3B" width="1" height="1"/>
</svg>