<svg xmlns="http://www.w3.org/2000/svg" style="fill:none;stroke:navy;stroke-width:2">
<path id="bratislavsky" d="m42,263,4-2,9-8,1,0-1-1-3-2-1-1,0-1,1-1,1-1,4,0,4,0,1,0,0-1,0-2-1-5,0-1,1,0,1,1,1,0,2,5,1,0,2,0,3-3,4-1,3-3-3-2,0-1,1-1,1-1,0-1-1,0-3-1-1-1,0-1,1-1,5-4,0-1-1-1-2-2-3-1-1-1,1-4,3-6-3-3-2-1-1,0-1-4-3-5,0-1,0-1-1,0-1-1-3-1-2-1-1-2-1-1,0-2,1-1,3-2,1-3,0-1-5-4,0-1,0-1,4-3,1-3,1,0,3-1,1-1,1-1,0-2,0-1,0-2-2-2,0-1-1,0-6,7-5,1-4,5-1,1-4,0-6,2-1,0,0-1-3-2-2-1-6,1-8,3-5,1-3,4-2,3-2,3-3,2-1,8-3,6,1,3,3,3,4,3-1,3,0,3,4,3,1,3-1,4,1,4,1,8,2,3,4,3,4,2,3,8-2,2,0,4-1,6,4,0,6,4z"/>
<path id="trnavsky" d="m95,317,1-2,1-7,1-2,1,0,2,2,1,0,2-1,1-2,1-4,1-1,1-2,6-3,1,0,1-2,2-3-1-2-1,0,1-1,2-1,1-2,0-1-1-1-1-1,2-15,0-1-2-2-1-2-1-1-4,1,0-4,1-1,0-1-1-2-1-1,0-1,0-1-3-3-1,0,1-1,2,0,3,1,1-1,1-1-2-4,1-1,1,0,2,1,2,1,1,0,1-1,2-2,0-3,0-1-2-2-1-1,0-1,2-6-2-3,0-2,6-11,12-15,0-1-1-1-3-3-2-1-1-2-1-1-2-1-2-1,0-1,0-1,1-3,0-3,0-1,3-1,1-2,1,0,1,0,4,2,1-1,2-3,1-2-2-1-2,0-2-1-3-2-4-2-3-1-2-2-1-1-1,1-1,1-5-1-3-3-1-4-1,0-1,0-5,2-5-1-1,1,0,1,0,1-1,1-1,1-1,1-1,0-2-1-2,0-3,2-1-1-3-10-1-1-1-2,0-2,1-2,1-1,1-1,0-1-3-5-2,0-1-1,0-3-1-1-1,0-4,2-1,1-1,0-1-1,0-1,2-1,3-2,2-2,0-2-4,1-3-4-12-8-5-1-12,7-2,5-11,10-2,4,0,5-4,2-2,8-4,6,0,8-1,5,5-1,8-3,6-1,2,1,3,2,0,1,1,0,6-2,4,0,1-1,4-5,5-1,6-7,1,0,0,1,2,2,0,2,0,1,0,2-1,1-1,1-3,1-1,0-1,3-4,3,0,1,0,1,5,4,0,1-1,3-3,2-1,1,0,2,1,1,1,2,2,1,3,1,1,1,1,0,0,1,0,1,3,5,1,4,1,0,2,1,3,3-3,6-1,4,1,1,3,1,2,2,1,1,0,1-5,4-1,1,0,1,1,1,3,1,1,0,0,1-1,1-1,1,0,1,3,2-3,3-4,1-3,3-2,0-1,0-2-5-1,0-1-1-1,0,0,1,1,5,0,2,0,1-1,0-4,0-4,0-1,1-1,1,0,1,1,1,3,2,1,1-1,0-9,8-4,2,1,5,9,1,4,6,4,3,3,6,1,5,2,4,5,1,4,3,1,4,1,4,5-1,4,3,2,3,3,3,2,3z"/>
<path id="nitransky" d="m257,269,0-1,2-2,4-3,1-1,0-3,0-1-1-2,0-1,0-1,2-3,0-1-2-1-2,1-1,1-1,0-5,0-1,0-5,5-3,0-1,0-2-1-4-3-3,0-2,1-1,0,0-1,0-2,1-1,2-1,1-1,0-11,1-1,2-1,1,0,0-1,1-5-1-1-1-2-1-4-5-7-3-6-1-1-2,0-2,2-2,1-2,4-1,4-1,2-1,0-1,0-3,0-1-1-3,0-2,1-1,2-1,1-1,1-1,0-1-1-1-1,1-1,5-4,1-1,0-1-1-5-3-6,0-3-1-2,0-1,1-2,0-5-1-2-1,0-1,0-3,2,0-1,2-5-1-2-1,0-2,0-3,1-6,5-1,0-1,2,0,1-1,0-2-2-1,0-2,1-1,0-2-4-1-4-1-2-1-1-1,0-3-1-1,0,0-1,0-1,0-2,0-1,0-1,3-3,1-1-1-1-9-7-3-6-1-2-10-3-2-2-1,0-1,1-1,1,0,2,2,4,0,5,0,2-1,2-2,1-1,1-1,0-1,2-2,3-1,1-4-2-1,0-1,0-1,2-3,1,0,1,0,3-1,3,0,1,0,1,2,1,2,1,1,1,1,2,2,1,3,3,1,1,0,1-12,15-6,11,0,2,2,3-2,6,0,1,1,1,2,2,0,1,0,3-2,2-1,1-1,0-2-1-2-1-1,0-1,1,2,4-1,1-1,1-3-1-2,0-1,1,1,0,3,3,0,1,0,1,1,1,1,2,0,1-1,1,0,4,4-1,1,1,1,2,2,2,0,1-2,15,1,1,1,1,0,1-1,2-2,1-1,1,1,0,1,2-2,3-1,2-1,0-6,3-1,2-1,1-1,4-1,2-2,1-1,0-2-2-1,0-1,2-1,7-1,2,1,0,6,1,5,3,5,0,2-2,4,2,4,0,2-1,8,1,5-1,6,1,4,2,9,1,4,2,5,1,14-1,4-2,4,0,5,2,3-2,3,0,7,1,4,0,4-2,3-2,3-3,3-2,12,0-3-3-1-4-3-2-2-3,0-3,2-7-3-6,8-2,1-4,0-4,4-2,5-1,3-1,8,1,3-2,1,0z"/>
<path id="trenciansky" d="m201,186,0-3,1-2,1-1,2-1,1,0,2,1,5,0,1,0,0-1,1-2,4-4,2-3,2-1,2,0,3,2,1,1,1-1,1-1,3-9,2-1,3-1,1-2,0-1,1-2,2-1,2-4,0-1-4-3-2-1-1-6-1-2-3-3-3-2,0-5,1-2,1-1-1-2,0-4,2-3-1-2-1-1-1,0-3,0-1,0-3-2-5,1,1-2,0-1-1,0-1,0-1,0,0,1-1,2,0,1-1,1-3,0-6-1-1,0,0-1,0-1,0-1,1,0,2,0,1,0,1-1,0-1,1-2,1,0,5-1,1-1,2-1,2-3,0-8-3-4,0-1,0-1,2-4,0-1,0-1-1-1-1-2-1-2-5-3-2-2-2-3-3-8-9-16-3,2-5,0-7,1-7,3-2,4-2,5,0,5-3,4-1,4-2,3,1,4-1,5-4,7-6,4-8,0-5-1-3,4-3,10-2,3-10,0-9,8-4,3-6,0-5,1-2,3-9,1-2-5-6-1-4,4-1,0,0,2-2,2-3,2-2,1,0,1,1,1,1,0,1-1,4-2,1,0,1,1,0,3,1,1,2,0,3,5,0,1-1,1-1,1-1,2,0,2,1,2,1,1,3,10,1,1,3-2,2,0,2,1,1,0,1-1,1-1,1-1,0-1,0-1,1-1,5,1,5-2,1,0,1,0,1,4,3,3,5,1,1-1,1-1,1,1,2,2,3,1,4,2,3,2,2,1,2,0,2,1,1,0,1-1,2-1,1-2,0-2,0-5-2-4,0-2,1-1,1-1,1,0,2,2,10,3,1,2,3,6,9,7,1,1-1,1-3,3,0,1,0,1,0,2,0,1,0,1,1,0,3,1,1,0,1,1,1,2,1,4,2,4,1,0,2-1,1,0,2,2,1,0,0-1,1-2,1,0,6-5,3-1,2,0,1,0z"/>
<path id="zilinsky" d="m245,149,2-1,2-2,1,0,1,0,1,1,1,2,1,2,1,0,1,1,2,0,8-2,0-2,1-2,0-1-3-4,0-1,3-3-2-2,0-1,1-1,5-5,1-1,2,1,2,1,6,0,10-3,2,1,2,1,0,1,0,1,0,1,0,2,1,0,1,1,4-1,2-1,2-3,1-2,6-2,1-1,1-1,5,0,5-1,15-1,2,1,4,4,1,0,2,0,1,1,4,3,1,1,1,0,6-3,2,0,2,2,1,0,15,0,1,0,1,0,1,1,1,0,1,1,2-1,4-2,0-1,0-1-3-2-1-1,0-2-5-6-1-3,5-1,1-1,1-3,0-5,2-7,0-1-7-1-1-1-2-3-1-1-1,0-2,2-1,0-1-1,0-7-2-5,0-1-4,1-5-2-5-2,4-7,3-4,0-3-2-3,2-9-1-4,0-4-4-1-5,2-6-1-3-3,1-5-2-3-5-1-3-7-2-10,1-5-4-2-3-3-2-1-1,2-6,1-3,7-3,4-5-2-6,2-3,4-1,5-2,4-1,4-4,3-6-1-5-1-4,1-6,1-3-3,2-3-2-4,0-4,0-1,0-5-5-3-6,1-6-1-5,3-6,0-13,0-5-4-5,5,1,3-4,3-4,4-3,4-4,0-1,4-2,5-4,3-1,0,9,16,3,8,2,3,2,2,5,3,1,2,1,2,1,1,0,1,0,1-2,4,0,1,0,1,3,4,0,8-2,3-2,1-1,1-5,1-1,0-1,2,0,1-1,1-1,0-2,0-1,0,0,1,0,1,0,1,1,0,6,1,3,0,1-1,0-1,1-2,0-1,1,0,1,0,1,0,0,1-1,2,5-1,3,2,1,0,3,0,1,0,1,1,1,2-2,3,0,4,1,2-1,1-1,2,0,5,3,2,3,3,1,2,1,6,2,1,4,3z"/>
<path id="banskobystricky" d="m438,214-1,0-2-1-3,1-1,0-1,2-1,0,0-2-1-1-1,0-2,1-2,0-1,0-1,0-2-3-1-2,0-3,1-3,6-13,0-1-4,0-1-1-1-1,0-2,0-4-2-7-1-2-2-2-2-2-3,0-2-1-2-2,0-2,1-2,2-4,0-6,0-1,1-1,4-2,1,0,0-3,0-2,1-1,1,0,1-1-9-6-1,0-1,0,0,1-1,0-13-1-3-1-2-1,0-1-1,0-1,0-1-1-1,0-1,0-15,0-1,0-2-2-2,0-6,3-1,0-1-1-4-3-1-1-2,0-1,0-4-4-2-1-15,1-5,1-5,0-1,1-1,1-6,2-1,2-2,3-2,1-4,1-1-1-1,0,0-2,0-1,0-1,0-1-2-1-2-1-10,3-6,0-2-1-2-1-1,1-5,5-1,1,0,1,2,2-3,3,0,1,3,4,0,1-1,2,0,2-8,2-2,0-1-1-1,0-1-2-1-2-1-1-1,0-1,0-2,2-2,1-2,4-2,1-1,2,0,1-1,2-3,1-2,1-3,9-1,1-1,1-1-1-3-2-2,0-2,1-2,3-4,4-1,2,0,1-1,0-5,0-2-1-1,0-2,1-1,1-1,2,0,3-2,4,0,1,3-2,1,0,1,0,1,2,0,5-1,2,0,1,1,2,0,3,3,6,1,5,0,1-1,1-5,4-1,1,1,1,1,1,1,0,1-1,1-1,1-2,2-1,3,0,1,1,3,0,1,0,1,0,1-2,1-4,2-4,2-1,2-2,2,0,1,1,3,6,5,7,1,4,1,2,1,1-1,5,0,1-1,0-2,1-1,1,0,11-1,1-2,1-1,1,0,2,0,1,1,0,2-1,3,0,4,3,2,1,1,0,3,0,5-5,1,0,5,0,1,0,1-1,2-1,2,1,0,1-2,3,0,1,0,1,1,2,0,1,0,3-1,1-4,3-2,2,0,1,0,4,3,2,3-1,3-1,3,2,5-1,3,1,4,2,4,0,2-3,4-2,9,0,5,0,4-1,4,2,3-3,2-12,2-3,3-3,8-3,4-2,4,0,3,8,4,0,2-2,7,5-2,4,0,2,4-2,2-2,5,2,3,3-1,4,2,0,2-3,13-5,2,2,6-6,3-2,0-4,3-3,4,3,3-2,2-4,5,1,2,3,3-2,2-2,2-4,4-2,1-4,3-3,2-11,7-6z"/>
<path id="kosicky" d="m669,152-7-1-9,1,0-1-1-4,0-2,1-2,0-2-1-1-2,0-3,0-1,1-1,2-3,3-2,0-1,1-1,1,0,5,0,1-1,1-3,0-3,0-11,0-2-1-1-1-2-3-3-3-11-4-2,0-1,0,0,1-1,2,0,1,2,3,0,1-1,7,1,1,1,2,0,2-1,0-4,1-5,3-2,1-2,0-2-1-1-1-2-2-2,0-3,0-2,0,0-1-2-1-4-2-1,0-1-1,0-4-2-3-1-1-1-6-1,0-1-1-3,2-1,0,0-1-1-1-1-1-1,1,0,1-2-1-1-1-1,1,0,2,0,2-1,3-1,1-1,0-5,0-1,1,0,2-1,0-2,1-2-1-1,0-1-2-1-1,0-2,0-1,2-2,0-1,0-1-2-1-3-1-1,0-1,2-1,0-1-1-1-1-1-2-1-1-4,1-1,1-1-1-2-1-1-1-3,1-3-3-1-1,0-2-2-2-1-3-2,0-2,0-1,0-2,0-2-1-2-1-2-1-3,0-1,0,0-4-1,1-1,0-1-1-1-1,0-1-2,0-1,0,0,1,0,4-1,1-3,0-1-1-1-2-1-1-1,0-2,1,0,1-1,1,0,1-4,2-2,1-1,0-1-1-1-4,0-1-2,0-4,0-2-3-1-1-4-1-1,0,0,2,0,1-1,2-1,0-1-1-1-3-1-1-2,0-14,7-1,1,0,1,0,1,3,1,0,1,1,0,0,1-1,1-5,3-1,3-1,1-2,1-1,1-1,0-1,1,0,2,0,3-1,0-4,2-1,1,0,1,0,6-2,4-1,2,0,2,2,2,2,1,3,0,2,2,2,2,1,2,2,7,0,4,0,2,1,1,1,1,4,0,0,1-6,13-1,3,0,3,1,2,2,3,1,0,1,0,2,0,2-1,1,0,1,1,0,2,1,0,1-2,1,0,3-1,2,1,1,0,4-4,0-4,1-3,7-2,5,0,4-1,3-1,11-1,0-1,6-1,3,0,2,4,9,2,1,0,3,4,14,2,0,3,1,2,1,0,4,0,1-4,8-1,4-2,3,2,4,2,3-2,0-4,3-2,9,0,0-3,3,0,3,3,4,1,1,3,1,4,5,4,3-2,3,3,0,3,1,4,3,7,1,5,6,9,7,1,4,2,3-2,2-3,3,2,3-3,5,0,3-2,13-1,2,3,6-3,1-3-1-4,1-5,0-15,1-5,4-6,4-3,3-3,2-3,3-2,6-1,2-2,0-5,2-4-2-3,1-4,3-3,1-3,0-9z"/>
<path id="presovsky" d="m541,40-3,2-3,7-4,1-2-3-4-2-8,0-1,3,2,3,2,3-7,3-4,3-2,5-4,1-5,0-2-5-3-1-2-3-5,2-1-4-2-2-2-4-2-3-3-2-8,1-4-2-2,3,0,1-2,3-4-1-6-3-3-3-11,2-2-2-4,2,0,4-1,5-3,1-4-3-14,7-2,3-1,5-3,4-1,5-2,3-1,4-7-7-3-4-5-1-4,2-3,4-2,0,0,1,2,5,0,7,1,1,1,0,2-2,1,0,1,1,2,3,1,1,7,1,0,1-2,7,0,5-1,3-1,1-5,1,1,3,5,6,0,2,1,1,3,2,0,1,0,1-4,2-2,1,2,1,3,1,13,1,1,0,0-1,1,0,1,0,9,6,2-1,1-1,1-3,5-3,1-1,0-1-1,0,0-1-3-1,0-1,0-1,1-1,14-7,2,0,1,1,1,3,1,1,1,0,1-2,0-1,0-2,1,0,4,1,1,1,2,3,4,0,2,0,0,1,1,4,1,1,1,0,2-1,4-2,0-1,1-1,0-1,2-1,1,0,1,1,1,2,1,1,3,0,1-1,0-4,0-1,1,0,2,0,0,1,1,1,1,1,1,0,1-1,0,4,1,0,3,0,2,1,2,1,2,1,2,0,1,0,2,0,2,0,1,3,2,2,0,2,1,1,3,3,3-1,1,1,2,1,1,1,1-1,4-1,1,1,1,2,1,1,1,1,1,0,1-2,1,0,3,1,2,1,0,1,0,1-2,2,0,1,0,2,1,1,1,2,1,0,2,1,2-1,1,0,0-2,1-1,5,0,1,0,1-1,1-3,0-2,0-2,1-1,1,1,2,1,0-1,1-1,1,1,1,1,0,1,1,0,3-2,1,1,1,0,1,6,1,1,2,3,0,4,1,1,1,0,4,2,2,1,0,1,2,0,3,0,2,0,2,2,1,1,2,1,2,0,2-1,5-3,4-1,1,0,0-2-1-2-1-1,1-7,0-1-2-3,0-1,1-2,0-1,1,0,2,0,11,4,3,3,2,3,1,1,2,1,11,0,3,0,3,0,1-1,0-1,0-5,1-1,1-1,2,0,3-3,1-2,1-1,3,0,2,0,1,1,0,2-1,2,0,2,1,4,0,1,9-1,7,1,1-1,3-2,1-9,3-3,4-6,4-2,3-2,1-3,2-11-5-2-2,3-3-3-3-1-5,0-2-3-1-3-3-2-4,2-8-2-3-2,0-4-3-1-4,0-5-4-6-2-3-2-2-3,0-4-1-3-1-4-2-3-3-6-1-1-5-1-7-4-2-3-4,2-1,3-3-1-1-4-3-2-2-3-4,0-7-6-4,1-4,0-3,2-4,0-2,1-4,1z"/>
</svg>