<svg id="svg2985" xmlns:rdf="http://www.w3.org/1999/02/22-rdf-syntax-ns#" xmlns="http://www.w3.org/2000/svg" height="100%" width="100%" version="1.1" xmlns:cc="http://creativecommons.org/ns#" xmlns:dc="http://purl.org/dc/elements/1.1/">
<metadata id="metadata3009">
<rdf:RDF>
<cc:Work rdf:about="">
<dc:format>image/svg+xml</dc:format>
<dc:type rdf:resource="http://purl.org/dc/dcmitype/StillImage"/>
<dc:title>Minified Country Map Of Czech Republic by Marek Raida</dc:title>
</cc:Work>
</rdf:RDF>
</metadata>
<title id="title2987">Minified Country Map Of Czech Republic by Marek Raida</title>
<style id="style2989" type="text/css">path {fill:#A4AEBD;stroke:navy;stroke-width:2;stroke-linejoin:round}
 path:hover{fill-opacity:0.5}</style>
<path id="Jihocesky" stroke-linejoin="round" d="m159,368,6,2,6,5-1,3,5,7,7,1,2,7,6,7,2,6,6,0,9,10,5,1,6,7-4,5,9,9,10,0,11,1,8,5,12-10,3-6,6,5,7,2,5-2,9,6,4-5-2-6,2-9,7-6,3-8,7,0,10,3,1-3-2-4,1-6,3-7-1-10-1-10,3-6,9,3,8,2,2,8,12-3,3-4,8,0,12,7,4,1,4,6" stroke="#000080" stroke-width="2" fill="#a4aebd"/>
<path id="Plzensky" stroke-linejoin="round" d="m32,229,6,7,7,5,0,8,5,6,0,8,8,5-1,9,1,7,7,3,6,6,4,7,8,3,3-2,7,1,9,7,1,7,8,8,0,4,7,5,1,6,5,3,7,0,6,7,6,9,1,9,11,8,4-7,0-4,2-6,5-2,1-3-2-4,1-10,5,1,1-2,6-3,3-6-3-6,4-2-3-4,3-3,0-4,3-3,5-7-4-5,1-8,0-5-2-5,3-4-3-6,0-6,1-4-3-3-3-4,1-5-4-4,6-4,5,0,5-6-2-4,2-5-2-6,5-4" stroke="#000080" stroke-width="2" fill="#a4aebd"/>
<path id="Ustecky" stroke-linejoin="round" d="m289,25-2,10,0,4-6,2-1,8-6-3-7-1,1,6-5,5,0,4-4,4-4,7,3,5,0,5,8,12,5,6-3,3,1,8-4,0-2,4-5,0,2,9-4,3-8-1-4,5-16,0-8-4-7,4,0,4-5,5-6,0-2,2,0,4-5-3-7,6-8,0-9,5-7,0-6,6-1,6-6,3-3,5-7-4-4,0-7-7,5-4-5-7,1-3-4-4,2-7-2-5,4-4-5-5-10,1,0-4-5-2-10,0-5-5" stroke="#000080" stroke-width="2" fill="#a4aebd"/>
<path id="Liberecky" stroke-linejoin="round" d="m399,96-9,2-5-4-6,3,0,5-5,3-3-5-11-3-7,4-8-5-5-2,0-4-7-3-3-4-6,0-4-4-4,7-7,8-2-3-6,1,0,5-8,6-9,3-2-7-11,0-5-6-8-12,0-5-3-5" stroke="#000080" stroke-width="2" fill="#a4aebd"/>
<path id="Kralovehradecky" stroke-linejoin="round" d="m509,163-8-4-4,0,0,5-10,3-5,6-2,7-9,0-7,2-4-5-8-4-4-4-4,0,0-7-4-3-7,0-7,3-3,3-4-1,0-6-4,0-5,7-10,0-5-3-10,9-9,2,2-7-8-4,4-7-2-5,1-5-1-6-3-3-6,3-9-1,0-5-4-5-7-1" stroke="#000080" stroke-width="2" fill="#a4aebd"/>
<path id="Jihlavsky" stroke-linejoin="round" d="m318,297,2,6-1,4,3,5,5,5,5-3,6,4,3,5,6,5,5-3,8,3,7-1,3,4-1,6,7,6,8,0,7-1,7,6,0,4-6,1-1,6-5,6,4,4,4,6,5-2,4,3,6-5,6,4,3-6,3-1,3-4,6,0,3-6,7-3,6,5,4-3,6,2,5-3,3-5,5,2,2-6,4-1,2-3-5-3-1-5,6-4-6-5,2-5,4-3-4-5,4-3,2-4,10-4-1-9-2-5,3-5-3-6,5-3" stroke="#000080" stroke-width="2" fill="#a4aebd"/>
<path id="Pardubicky" stroke-linejoin="round" d="m541,244-5,5,0,6-4,4-6-6-18,0-4,6-12,0-4,3-7-7-6,0-7-9-14-3-2-6-7,1,0-4-7,4,0,6-7-3-4-2,0-5-5-2-4-1-5-5-7-4-9,0-9-7-2-8,3-4,1-7-7-4,0-4-6-2-5-4" stroke="#000080" stroke-width="2" fill="#a4aebd"/>
<path id="Karlovarsky" stroke-linejoin="round" d="m137,169-4,9-5,1,0,9-8-6-8-1-15,10,0,5-4,4-6-3-3,2-6-4-8,3-5,5-5-4-5,4-7,0,1-5-5-3,0-6-14-10-11-5-4-8-4-4,2-8-7-11-3-3,2-6-2-7" stroke="#000080" stroke-width="2" fill="#a4aebd"/>
<path id="Ostravsky" stroke-linejoin="round" d="m574,208,4,4,5,0,0,5,6,0,4,4,7-2,6,9,5,0,4,2,5-4,5,5,5-3,8,4-2,8,8,0,2,8,6,2,6,5-1,5,5,0,3,5,6,0,5,5,8-4,8,2,6,4,5,0,6-2,0,5,7,4,1,6,6,3,5-2,9-11-1-7,6-3,5,3,8-2,7,2,9-4,1-6" stroke="#000080" stroke-width="2" fill="#a4aebd"/>
<path id="Olomoucky" stroke-linejoin="round" d="m665,265-4,5-4-2-7,5,0,7-5,5-6-7-8,3,2,7-6,2-5-2-4,5-3,5-4-4-7,0-2-5-4,4,2,8-3,3-3,4-9,1-6,6-4-6,0-4-3-3-7,0-1-6,0-5-6-3,0-5-4-4-2-5-6,0-3,4,4,4,4,5-5,6-3,3-7-6,3-3-4-6,0-7,5-5-6-2-5,0,3-8,4-4,0-6,5-5,0-8-6-2,0-5-4-8-5-9,6-3-2-3-1-7-3-6,0-6" stroke="#000080" stroke-width="2" fill="#a4aebd"/>
<path id="Brnensky" stroke-linejoin="round" d="m391,382,4,1,7,1,8,6,8,1,2-4,8,1,12,9,1,4,16,9,19-1,14,3,6-6,3-8,10-1,4,5,10,1,2,7,5-2,9,6,8-2,5,3,3,14,4-1,4-11,2-8,9-11,2-8,3-1,5-5,5,0,10,4,9,6,9-6,7,5,7-2,6-6" stroke="#000080" stroke-width="2" fill="#a4aebd"/>
<path id="Zlinsky" stroke-linejoin="round" d="m573,345,4,4,8-3,3,3,0,6,6,4,8,1,0,5,5,0,6,5,6-2,6,3,0,4,6,2,4,5,2,3,5,0,7-4,5-9,10,0,2-14,4-4,13-1,7-10,0-11,3-10,0-8,6-8,7-2,7-3,6-3,4-10" stroke="#000080" stroke-width="2" fill="#a4aebd"/>
<path id="Stredocesky" stroke-linejoin="round" d="m390,196-1,7-3,4,2,8-6,1-4,3,0,6-6,0-2,4-5,0-4,3-4-1-3,2,0,4-4,3,0,6,7,4,1,5-5,3-4-2-2,4-5,0-6,0-8-1-6,5,0,5-3,3-3-5-2-5-5,0-7-6-6,4,2,7-7,4-3,4-7-3-8-2-5,1-6-3-7,3-4,0-4-5-6,0-3,4-13,1-4-4-5,0-3,5-7,4-4-3-14,0-3-6,0-6,1-4-3-3-3-4,1-5-4-4,6-4,5,0,5-6-2-4,2-5-2-6,5-4-2-4,1-7-4-2-5-1-1-4-5,1-5-7-4,2-5-3-4-2-1-4-6-1-4,3-4-3" stroke="#000080" stroke-width="2" fill="#a4aebd"/>
<path id="Praha" stroke-linejoin="round" d="m296,177-5,0-3,2,2,2,0,6-3,3-4-3-5-1-3,3-4,1-3,4-4,0-3,2-1,2-5,1-3-3,2-6-5-2,1-3-4-2-3-5,3-3-4-5" stroke="#000080" stroke-width="2" fill="#a4aebd"/>
</svg>
