<!--
NOTICE:  [1999-2001] Adobe Systems Incorporated.  Adobe hereby grants you the rights to reproduce, modify and distribute this file and its contents, not including any fonts, audio files or raster images included or embedded in or linked to this file, (the "Software"), and to grant such rights to other parties subject to the following:  This notice shall be included in any copy of the Software or any portion thereof.  THE SOFTWARE IS PROVIDED TO YOU AS-IS, WITHOUT WARRANTIES OF ANY KIND, EXPRESS OR IMPLIED, INCLUDING BUT NOT LIMITED TO WARRANTIES OF MERCHANTABILITY, FITNESS FOR A PARTICULAR PURPOSE AND NON-INFRINGEMENT.  IN NO EVENT SHALL ADOBE BE LIABLE TO YOU OR ANY OTHER PARTY FOR ANY CLAIM, DAMAGES OR OTHER LIABILITY ARISING FROM, OUT OF OR IN CONNECTION WITH THE SOFTWARE.
Modified by  Marek Raida
-->
<!DOCTYPE svg PUBLIC "-//W3C//DTD SVG 20001102//EN" "http://www.w3.org/TR/2000/CR-SVG-20001102/DTD/svg-20001102.dtd" [
 <!ENTITY st0 "fill:none;">
 <!ENTITY st1 "font-family:impact;">
 <!ENTITY st2 "fill:#990000;">
 <!ENTITY st3 "fill:#9933FF;">
 <!ENTITY st4 "font-size:105px;fill:#FFFFFF;stroke:#6633FF;stroke-miterlimit:4;">
 <!ENTITY st5 "fill:#FF0000;">
 <!ENTITY st6 "fill:#FF33FF;">
 <!ENTITY st7 "fill:#660000;">
 <!ENTITY st8 "fill:#6633FF;">
 <!ENTITY st9 "fill:#CC0000;">
 <!ENTITY st10 "fill:#CC33FF;">
 <!ENTITY st11 "fill:#000000;">
 <!ENTITY st12 "font-size:18px;fill:#990000;">
 <!ENTITY st13 "font-size:41px;fill:#FFFFFF;fill-opacity:0.5;stroke:#CC0000;stroke-miterlimit:4;">
]>
<svg xml:space="preserve" width="3in" height="2in"  xmlns="http://www.w3.org/2000/svg" xmlns:xlink="http://www.w3.org/1999/xlink">

<title>100 percent.svg</title> 
<desc>historic SVG logo with graphics, text, and filter effects</desc>

<defs>

	<filter id="GroovyFilter" filterUnits="objectBoundingBox" x="-20%" y="-100%" width="140%" height="300%">

		<feTurbulence type="turbulence" baseFrequency="0.03" numOctaves="2" result="groovy"/>

		<feComposite in="groovy" in2="SourceAlpha" operator="in" result="CompSourceAlpha"/>

		<feMerge>

			<feMergeNode in="SourceGraphic"/>

			<feMergeNode in="CompSourceAlpha"/>

		</feMerge>

	</filter>

	<filter id="SpecFilter" filterUnits="objectBoundingBox" x="-25%" y="-25%" width="150%" height="150%">

		<!--Copyright 1999 Adobe Systems. You may copy, modify, and distribute this file, if you include this notice & do not charge for the distribution. This file is provided "AS-IS" without warranties of any kind, including any implied warranties.-->

		<feGaussianBlur in="SourceAlpha" stdDeviation="2" result="BlurAlpha"/>

		<feSpecularLighting in="BlurAlpha" surfaceScale="5" specularConstant="1" specularExponent="10" lightColor="white" result="SpecularLightingExample">

			<fePointLight x="-5000" y="-10000" z="20000"/>

		</feSpecularLighting>

		<feComposite in="SpecularLightingExample" in2="SourceAlpha" operator="in" result="SpecularOut"/>

		<feComposite in="SourceGraphic" in2="SpecularOut" operator="arithmetic" k1="0" k2="1" k3="1" k4="0" result="litPaint"/>

	</filter>

	<filter id="DropShadowFilter" filterUnits="objectBoundingBox" x="-50%" y="-50%" width="200%" height="200%">

		<!--Copyright 1999 Adobe Systems. You may copy, modify, and distribute this file, if you include this notice & do not charge for the distribution. This file is provided "AS-IS" without warranties of any kind, including any implied warranties.-->

		<feGaussianBlur in="SourceAlpha" stdDeviation="2" result="BlurAlpha"/>

		<feOffset in="BlurAlpha" dx="4" dy="4" result="OffsetBlurAlpha"/>

		<feMerge>

			<feMergeNode in="OffsetBlurAlpha"/>

			<feMergeNode in="SourceGraphic"/>

		</feMerge>

	</filter>

</defs>

<g id="frame">

	<path d="M400.5,200.5H0.5V0.5h400v200z" style="&st0;"/>

</g><!-- frame -->

<g id="waves_fill">

	<path d="M400.5,50.5c-0.119,0-0.232,0.005-0.351,0.005c-0.115,0-0.225-0.005-0.34-0.005h0.69z" style="&st5;"/>

	<path d="M116.631,150.5c-16.386,0-30.077-3.079-42.067-8.145c16.271-6.967,29.222-17.701,41.537-29.413c12.578,11.712,25.843,22.446,42.333,29.413c-11.833,5.065-25.416,8.145-41.802,8.145z" style="&st10;"/>

	<path d="M116.1,112.942c29.769-28.313,55.854-62.304,116.311-62.438c15.916,0.037,29.454,2.59,41.348,6.854c-50.843,17.859-70.435,65.776-115.326,84.997c-16.49-6.967-29.755-17.701-42.333-29.413z" style="&st6;"/>

	<path d="M316.631,50.5c-0.119,0-0.232,0.005-0.351,0.005c-0.115,0-0.225-0.005-0.34-0.005h0.69z" style="&st5;"/>

	<path d="M232.762,50.5c-0.119,0-0.232,0.005-0.351,0.005c-0.115,0-0.225-0.005-0.34-0.005h0.69z" style="&st5;"/>

	<path d="M273.759,57.358c12.137-4.264,26.052-6.816,42.521-6.854c15.916,0.037,29.454,2.59,41.348,6.854c-16.755,5.886-30.12,15.032-42.109,25.346c-12.055-10.313-25.339-19.46-41.76-25.346z" style="&st9;"/>

	<path d="M200.5,150.5c-16.386,0-30.077-3.079-42.067-8.145c44.892-19.221,64.483-67.138,115.326-84.997c16.421,5.886,29.705,15.032,41.76,25.346C281.539,111.937,258.565,150.5,200.5,150.5z" style="&st5;"/>

	<path d="M400.5,83.671c-12.354-10.703-25.943-20.244-42.872-26.313c12.137-4.264,26.052-6.816,42.521-6.854c0.119,0,0.232,0.007,0.351,0.007v33.159z" style="&st7;"/>

	<path d="M400.5,146.102c-36.77-10.913-57.762-40.106-84.981-63.397c11.989-10.313,25.354-19.46,42.109-25.346c16.929,6.068,30.519,15.609,42.872,26.313v62.431z" style="&st2;"/>

	<path d="M74.563,142.355C44.236,129.542,24.829,103.975,0.5,83.06V50.5c58.667,0,85.134,34.074,115.6,62.442c-12.314,11.712-25.265,22.446-41.537,29.413z" style="&st3;"/>

	<path d="M0.5,83.06c24.329,20.915,43.736,46.482,74.063,59.296c-11.833,5.065-25.416,8.145-41.802,8.145c-12.088,0-22.705-1.682-32.262-4.594V83.06z" style="&st8;"/>

</g><!-- waves_fill -->

<g id="SVG" style="filter:url(#GroovyFilter)">

	<g>

		<text x="100.482" y="130.402" style="&st1;&st4;">SVG</text>

	</g>

</g><!-- SVG -->

<g id="_x0031_00percent" style="filter:url(#DropShadowFilter)">

	<g style="&st1;&st13;">

		<text transform="matrix(1.3 0 0 1 30 101.218)">100%</text>

	</g>

</g><!-- _x0031_00percent -->

<g id="superiorvectorgraphics" style="filter:url(#SpecFilter)">

	<g>

		<text transform="matrix(1.354 0 0 1 30 170)" style="&st1;&st12;">Scalable Vector Graphics</text>

	</g>

</g><!-- superiorvectorgraphics -->

<image xlink:href="http://www.google-analytics.com/__utm.gif?utmwv=4.7.1&amp;utmn=21830374&amp;utmhn=svg.kvalitne.cz&amp;utmcs=UTF-8&amp;utmsr=1920x1080&amp;utmsc=24-bit&amp;utmul=en-us&amp;utmje=1&amp;utmfl=10.0%20r45&amp;utmdt=SVG%C2%A0%E2%80%94%C2%A0It%27s%20in%20your%20hands...&amp;utmhid=1377849700&amp;utmr=-&amp;utmp=%2Findex2.htm&amp;utmac=UA-11950721-1&amp;utmcc=__utma%3D251371972.1884550355.1260220320.1272562824.1272576758.56%3B%2B__utmz%3D251371972.1263752798.41.3.utmcsr%3Dgoogle%7Cutmccn%3D(organic)%7Cutmcmd%3Dorganic%7Cutmctr%3Dsvg%2520smil%2520demo%3B" width="1" height="1"/>

</svg>