<!--
NOTICE:  [1999-2001] Adobe Systems Incorporated.  Adobe hereby grants you the rights to reproduce, modify and distribute this file and its contents, not including any fonts, audio files or raster images included or embedded in or linked to this file, (the "Software"), and to grant such rights to other parties subject to the following:  This notice shall be included in any copy of the Software or any portion thereof.  THE SOFTWARE IS PROVIDED TO YOU AS-IS, WITHOUT WARRANTIES OF ANY KIND, EXPRESS OR IMPLIED, INCLUDING BUT NOT LIMITED TO WARRANTIES OF MERCHANTABILITY, FITNESS FOR A PARTICULAR PURPOSE AND NON-INFRINGEMENT.  IN NO EVENT SHALL ADOBE BE LIABLE TO YOU OR ANY OTHER PARTY FOR ANY CLAIM, DAMAGES OR OTHER LIABILITY ARISING FROM, OUT OF OR IN CONNECTION WITH THE SOFTWARE.
Modified by  Marek Raida
-->
<svg xmlns="http://www.w3.org/2000/svg" xmlns:xlink="http://www.w3.org/1999/xlink" viewBox="21.285 0 300 200" onload="on_load(evt)">

<script><![CDATA[

	var nframes = 24; 			// Number of frames in animation

	var current_frame = -1; 	// Current frame, first frame is numbered 0.

	var direction = 1; 			// Direction of animation, 1 to move up in frame

										 // numbers, -1 to move down.


	/*

	* Function to save pointers to various parts of this document in global

	* variables. These variables are used in the animation functions.

	*/
	function on_load (evt)

	{

		// This makes the next_frame function available to JavaScript functions

		// defined outside of the SVG document. This is needed so that the

		// setInterval function can find and call next_frame when needed.

		window.anim1_01_next_frame = next_frame;
		window.anim1_01_document = document;
		window.setInterval ('anim1_01_next_frame()', 100);

	}



	/*

	* This function implements the animation. At each invocation, the function

	* increments or decrements the frame number (global variable

	* current_frame) according to the value of the global variable direction,

	* makes the new frame visible, and makes the previous frame invisible. A

	* "frame" here is one group of SVG elements.

	*/

	function next_frame ()

	{

		var svgobj;

		var svgstyle;

		var document = window.anim1_01_document;

		var previous_frame = current_frame;



		// Increment/decrement current frame number.

		current_frame += direction;



		// When we go beyond the last or the first frame, we change directions

		// and set the frame number to [last frame - 1] or 1. This makes the

		// figures look like they're bouncing back-and-forth.

		if (current_frame >= nframes)

		{

			current_frame = nframes-2;

			direction = -1;

		}

		else if (current_frame < 0)

		{

			current_frame = 1;

			direction = 1;

		}



		// Now we make the current frame visible.

		svgobj = document.getElementById('gradient_star_'+current_frame);

		svgstyle = svgobj.style;

		svgstyle.setProperty('visibility', 'visible', '');



		// Make previous frame invisible. On first call, previous_frame = -1 so

		// there is really no frame to make invisible.

		if (previous_frame >= 0)

		{

			svgobj = document.getElementById('gradient_star_'+previous_frame);

			svgstyle = svgobj.style;

			svgstyle.setProperty('visibility', 'hidden', '');

		}

	}

]]>

</script>



<g id="gradient_star_0" style="visibility:hidden">

	<defs>

		<radialGradient id="gradient1" cx="150.0005" cy="100" r="113.7914" fx="150.0005" fy="100">

			<stop  offset="0.19" style="stop-color:#FFFF00"/>

			<stop  offset="0.4782" style="stop-color:#FFD00D"/>

			<stop  offset="1" style="stop-color:#FE7312"/>

		</radialGradient>

	</defs>

	<path d="M55.473 147.908c12.889 11.543 53.359 11.936 90.396 0.878c1.087-0.323 2.155-0.656 3.209-0.992c5.948 16.245 23.633 28.029 44.526 28.029c25.772 0 46.666-17.931 46.666-40.048c0-0.648-0.021-1.293-0.057-1.935c30.178 5.459 58.755 3.431 69.201-5.927c12.887-11.544-6.692-29.866-43.73-40.925c-1.086-0.324-2.175-0.636-3.266-0.94c24.229-10.787 35.12-24.6 24.673-33.958c-12.887-11.543-53.357-11.936-90.396-0.876c-1.086 0.324-2.154 0.655-3.209 0.992c-5.949-16.245-23.633-28.029-44.525-28.029c-25.773 0-46.667 17.93-46.667 40.048c0 0.648 0.02 1.292 0.056 1.933C72.174 60.7 43.6 62.728 33.152 72.086c-12.884 11.543 6.694 29.865 43.73 40.925c1.084 0.323 2.175 0.636 3.266 0.94c-24.23 10.788-35.121 24.601-24.675 33.957zM 170.598 107.558c-10.009 5.3-34.144 4.525-57.395-2.094c2.272-0.815 4.656-1.602 7.148-2.345c3.086-0.922 6.192-1.73 9.288-2.442c5.891 2.303 12.428 3.595 19.323 3.595c3.19 0 6.308-0.274 9.322-0.8c-13.879-1.833-24.648-13.031-25.194-26.753 c2.503 0.609 5.013 1.285 7.506 2.03c3.084 0.921 5.991 1.909 8.733 2.938c-0.913 3.789 0.19 7.364 3.639 10.452c1.595 1.43 3.619 2.687 6.001 3.775c-3.869-7.133 9.495-17.555 32.202-24.66c0.232 1.426 0.354 2.887 0.354 4.375c0 1.843-0.2 3.639-0.554 5.381c-6.801 1.487-12.235 3.768-15.683 6.856c-1.595 1.429-2.688 2.964-3.318 4.575c10.008-5.299 34.143-4.524 57.393 2.093c-2.271 0.817-4.656 1.603-7.149 2.347c-3.085 0.921-6.192 1.729-9.288 2.442c-5.89-2.303-12.429-3.596-19.322-3.596c-3.192 0-6.309 0.276-9.322 0.8c13.879 1.834 24.648 13.029 25.192 26.753c-2.502-0.609-5.009-1.284-7.502-2.029c-3.087-0.921-5.993-1.91-8.735-2.939c0.912-3.789-0.191-7.364-3.639-10.451c-1.596-1.43-3.617-2.688-6.002-3.773c3.869 7.131-9.495 17.553-32.202 24.659c-0.234-1.427-0.356-2.888-0.356-4.377c0-1.842 0.2-3.638 0.553-5.381c6.803-1.486 12.239-3.768 15.686-6.856c1.597-1.428 2.691-2.963 3.32-4.575zM 103.338 72.651c3.095 12.404 12.883 22.672 25.964 27.896 c-6.58 0.88-13.314 2.125-20.031 3.74c-24.678-7.778-38.222-19.47-30.367-26.504c4.073-3.649 13.125-5.343 24.434-5.132zM 183.107 55.894C163.884 63.483 151.585 73 149.381 81.471c-4.766-2.507-10.221-4.9-16.285-7.102c0.688-14.941 13.496-26.853 29.199-26.853c8.146 0 15.511 3.208 20.812 8.378zM 251.051 83.243c-22.32-4.815-44.407-5.565-59.694-2.317c1.816-3.388 3.099-7.027 3.753-10.844c25.363-7.164 51.714-7.383 59.565-0.349c4.073 3.649 2.385 8.552-3.624 13.511zM 239.226 127.349c-3.097-12.403-12.884-22.672-25.965-27.896c6.582-0.879 13.315-2.125 20.036-3.74c24.676 7.777 38.219 19.47 30.367 26.503c-4.074 3.649-13.129 5.344-24.438 5.133zM 159.457 144.106c19.224-7.591 31.525-17.108 33.73-25.578c4.766 2.506 10.217 4.899 16.281 7.102c-0.687 14.942-13.493 26.854-29.198 26.854c-8.147 0-15.511-3.208-20.813-8.378zM 91.514 116.756c22.32 4.816 44.408 5.566 59.693 2.319c-1.815 3.388-3.097 7.026-3.753 10.844c-25.362 7.162-51.711 7.383-59.565 0.349 c-4.074-3.65-2.383-8.552 3.625-13.512z" style="fill:url(#gradient1);;"/>

	<path d="M37.389 57.653c0 3.038-2.462 5.5-5.5 5.5s-5.5-2.462-5.5-5.5s2.462-5.5 5.5-5.5s5.5 2.462 5.5 5.5z" style="fill:#00FF00;;"/>

</g>

<!-- gradient_star_0 -->

<g id="gradient_star_1" style="visibility:hidden">

	<path d="M50.841 149.824c21.637 7.249 60.489 7.626 94.011 0.913c3.077-4.213 4.102-4.532 3.338-1.032c7.487 11.772 24.464 23.086 46.307 29.15c22.956-6.064 43.015-23.278 48.532-41.649c-5.518-3.484-5.538-4.103-0.059-2.012c23.457 2.534 50.892 0.587 71.969-6.164c1.322-13.314-17.474-30.904-45.479-42.562c-8.594 0.73-9.639 0.43-3.396-0.978c15.971-9.24 26.426-22.5 25.66-35.315c-21.635-7.25-60.487-7.626-94.011-0.912c-3.075 4.213-4.101 4.531-3.338 1.031c-7.487-11.772-24.463-23.085-46.305-29.15c-22.958 6.064-43.015 23.278-48.534 41.65c5.519 3.483 5.538 4.102 0.059 2.01c-23.456-2.533-50.888-0.585-71.966 6.166c-1.32 13.314 17.475 30.903 45.479 42.562c8.592-0.73 9.639-0.431 3.396 0.978c-15.971 9.241-26.426 22.501-25.662 35.315zM 170.57 107.859c-9.554 4.483-32.723 3.74-59.69-2.177c6.827-1.22 9.116-1.975 7.434-2.438c7.037-1.135 10.019-1.911 9.659-2.541c8.986 2.157 15.262 3.397 20.096 3.739c4.848-0.342 7.841-0.605 9.694-0.832 c-12.284-2.037-22.623-12.787-26.201-27.823c5.458 2.447 7.867 3.096 7.807 2.111c5.416 2.584 8.206 3.532 9.082 3.056c0.88 5.103 1.939 8.535 3.785 10.87c2.996 2.002 4.939 3.208 6.241 3.926c-2.729-6.521 10.101-16.525 33.489-25.646c-1.367 3.669-1.25 5.071 0.369 4.551c-1.619 3.718-1.812 5.442-0.576 5.597c-8.104 2.946-13.32 5.136-16.31 7.13c-1.852 2.343-2.901 3.816-3.451 4.758c9.553-4.483 32.723-3.739 59.688 2.176c-6.826 1.222-9.116 1.976-7.436 2.441c-7.035 1.134-10.019 1.91-9.66 2.54c-8.984-2.157-15.262-3.398-20.095-3.74c-4.85 0.342-7.842 0.607-9.695 0.833c12.284 2.039 22.623 12.786 26.2 27.822c-5.457-2.446-7.863-3.095-7.802-2.11c-5.418-2.584-8.208-3.533-9.085-3.057c-0.88-5.103-1.939-8.534-3.784-10.869c-2.997-2.001-4.938-3.209-6.242-3.925c2.729 6.52-10.1 16.524-33.489 25.646c1.366-3.669 1.249-5.071-0.37-4.552c1.619-3.718 1.811-5.441 0.575-5.596c8.106-2.946 13.324-5.136 16.313-7.131c1.854-2.341 2.904-3.815 3.453-4.759 zM 103.349 72.018c2.951 13.174 12.347 23.031 27.002 29.012c-8.414-0.122-14.879 1.073-20.832 3.89c-24.187-8.732-37.188-19.957-31.582-27.564c5.844-2.648 14.534-4.275 25.411-5.338zM 184.107 55.55c-20.455 7.974-32.261 17.11-35.075 26.6c-3.877-3.765-9.115-6.063-16.936-7.386c2.66-15.134 14.956-26.569 30.366-27.927c7.485 1.358 14.556 4.438 21.645 8.714zM 252.132 83.616c-23.59-5.369-44.794-6.089-62.081-2.41c4.355-3.813 5.587-7.307 3.902-11.278c26.661-6.57 51.958-6.781 61.948-0.363c1.458 3.837-0.163 8.544-3.77 14.051zM 239.216 127.981c-2.953-13.173-12.349-23.03-27.004-29.011c8.416 0.122 14.88-1.075 20.838-3.89c24.184 8.731 37.185 19.956 31.581 27.563c-5.846 2.648-14.538 4.275-25.415 5.338zM 158.457 144.45c20.456-7.975 32.264-17.112 35.079-26.601c3.878 3.764 9.11 6.062 16.933 7.386c-2.659 15.135-14.953 26.57-30.366 27.928c-7.486-1.357-14.555-4.438-21.645-8.713zM 90.433 116.383c23.59 5.37 44.794 6.09 62.081 2.412 c-4.355 3.813-5.585 7.306-3.903 11.277c-26.66 6.569-51.955 6.781-61.947 0.362c-1.458-3.839 0.165-8.544 3.77-14.052z" style="fill:url(#gradient1);;"/>

	<path d="M49.435 57.653c0 3.038-2.462 5.5-5.5 5.5s-5.5-2.462-5.5-5.5s2.462-5.5 5.5-5.5s5.5 2.462 5.5 5.5z" style="fill:#00FF00;;"/>

</g>

<!-- gradient_star_1 -->

<g id="gradient_star_2" style="visibility:hidden">

	<path d="M46.208 151.741c30.388 2.954 67.621 3.314 97.627 0.948c5.067-8.104 6.049-8.41 3.466-1.072c9.025 7.299 25.295 18.14 48.088 30.272c20.14-12.133 39.362-28.629 50.399-43.252c-11.037-6.321-11.058-6.914-0.061-2.09c16.734-0.393 43.025-2.258 74.737-6.4c-10.246-15.087-28.259-31.943-47.229-44.2c-16.103 1.784-17.104 1.497-3.526-1.016c7.708-7.692 17.729-20.399 26.646-36.674c-30.385-2.954-67.618-3.315-97.627-0.946c-5.065 8.104-6.048 8.409-3.466 1.071c-9.026-7.298-25.295-18.14-48.087-30.271c-20.14 12.132-39.362 28.627-50.4 43.252c11.038 6.32 11.057 6.913 0.061 2.087c-16.733 0.394-43.022 2.26-74.735 6.402c10.248 15.086 28.26 31.942 47.229 44.199c16.102-1.784 17.105-1.497 3.527 1.016c-7.709 7.692-17.729 20.4-26.649 36.674zM 170.543 108.162c-9.099 3.667-31.302 2.954-61.987-2.261c11.383-1.625 13.577-2.348 7.72-2.533c10.988-1.347 13.846-2.091 10.031-2.637c12.083 2.01 18.097 3.199 20.869 3.882c6.506-0.684 9.375-0.936 10.067-0.864 c-10.689-2.241-20.597-12.543-27.209-28.894c8.415 4.286 10.723 4.908 8.107 2.192c7.748 4.248 10.421 5.156 9.432 3.173c2.673 6.417 3.688 9.706 3.93 11.289c4.398 2.574 6.26 3.73 6.482 4.077c-1.589-5.908 10.706-15.496 34.777-26.632c-2.968 5.912-2.855 7.255 0.383 4.726c-3.238 5.595-3.423 7.247-0.598 5.812c-9.407 4.406-14.407 6.505-16.938 7.404c-2.108 3.256-3.114 4.668-3.583 4.941c9.097-3.666 31.301-2.953 61.984 2.26c-11.382 1.626-13.577 2.349-7.722 2.535c-10.987 1.347-13.846 2.09-10.031 2.638c-12.081-2.01-18.097-3.2-20.867-3.883c-6.509 0.684-9.376 0.938-10.068 0.864c10.688 2.243 20.597 12.542 27.208 28.893c-8.413-4.285-10.719-4.906-8.103-2.191c-7.75-4.248-10.424-5.157-9.435-3.175c-2.673-6.416-3.688-9.705-3.93-11.287c-4.398-2.573-6.258-3.73-6.481-4.075c1.589 5.906-10.706 15.494-34.778 26.632c2.967-5.912 2.855-7.256-0.384-4.728c3.239-5.594 3.423-7.245 0.598-5.811c9.409-4.406 14.41-6.505 16.94-7.405 c2.11-3.255 3.116-4.667 3.586-4.941zM 103.359 71.385c2.807 13.943 11.812 23.39 28.042 30.127c-10.249-1.123-16.444 0.022-21.634 4.04C86.073 95.866 73.612 85.109 76.97 76.928c7.616-1.647 15.944-3.206 26.389-5.543zM 185.107 55.206c-21.686 8.358-33 17.114-36.424 27.623c-2.989-5.023-8.008-7.225-17.587-7.67c4.633-15.326 16.417-26.285 31.535-29.001c6.824 2.717 13.6 5.668 22.477 9.049zM 253.214 83.99c-24.86-5.923-45.181-6.613-64.47-2.503c6.896-4.239 8.076-7.587 4.053-11.712c27.959-5.978 52.201-6.179 64.331-0.377c-1.158 4.026-2.712 8.537-3.914 14.592zM 239.206 128.614c-2.808-13.942-11.813-23.39-28.042-30.127c10.251 1.124 16.445-0.023 21.639-4.04c23.691 9.687 36.151 20.443 32.797 28.623c-7.617 1.648-15.948 3.207-26.394 5.544zM 157.457 144.795c21.688-8.36 33.004-17.116 36.429-27.625c2.988 5.022 8.003 7.225 17.584 7.67c-4.633 15.327-16.415 26.286-31.534 29.003c-6.825-2.717-13.6-5.668-22.479-9.048zM 89.351 116.01 c24.861 5.924 45.181 6.613 64.469 2.505c-6.896 4.238-8.074 7.586-4.053 11.711c-27.958 5.976-52.199 6.179-64.331 0.377c1.158-4.027 2.714-8.537 3.915-14.593z" style="fill:url(#gradient1);;"/>

	<path d="M61.481 57.653c0 3.038-2.462 5.5-5.5 5.5s-5.5-2.462-5.5-5.5s2.462-5.5 5.5-5.5s5.5 2.462 5.5 5.5z" style="fill:#00FF00;;"/>

</g>

<!-- gradient_star_2 -->

<g id="gradient_star_3" style="visibility:hidden">

	<path d="M41.576 153.657c39.136-1.34 74.75-0.994 101.243 0.983c7.057-11.993 7.996-12.286 3.595-1.111c10.563 2.825 26.126 13.195 49.87 31.393c17.323-18.197 35.709-33.977 52.266-44.854c-16.557-9.156-16.575-9.724-0.063-2.167c10.014-3.317 35.162-5.103 77.505-6.638c-21.81-16.857-39.039-32.981-48.979-45.836c-23.61 2.837-24.568 2.563-3.657-1.054c-0.55-6.144 9.034-18.299 27.634-38.032c-39.133 1.34-74.747 0.994-101.243-0.981c-7.054 11.993-7.994 12.285-3.594 1.111c-10.563-2.826-26.125-13.196-49.868-31.393c-17.323 18.197-35.71 33.976-52.267 44.854c16.557 9.156 16.574 9.723 0.063 2.165c-10.013 3.319-35.159 5.104-77.502 6.64c21.812 16.857 39.041 32.98 48.978 45.836c23.61-2.838 24.569-2.563 3.657 1.053c0.549 6.146-9.034 18.301-27.636 38.032zM 170.516 108.465c-8.644 2.85-29.882 2.168-64.282-2.346c15.938-2.028 18.036-2.721 8.006-2.626c14.939-1.56 17.672-2.271 10.402-2.735c15.178 1.864 20.931 3.001 21.642 4.026c8.164-1.025 10.907-1.267 10.44-0.896 c-9.094-2.446-18.571-12.301-28.217-29.964c11.369 6.124 13.577 6.719 8.407 2.273c10.079 5.911 12.636 6.78 9.781 3.291c4.466 7.73 5.436 10.876 4.076 11.707c5.799 3.146 7.58 4.251 6.722 4.228c-0.449-5.296 11.311-14.468 36.066-27.619c-4.568 8.154-4.461 9.439 0.396 4.9c-4.857 7.47-5.034 9.051-0.62 6.027c-10.71 5.866-15.492 7.874-17.564 7.679c-2.364 4.17-3.327 5.52-3.716 5.124c8.642-2.849 29.88-2.167 64.28 2.344c-15.938 2.03-18.037 2.722-8.008 2.628c-14.938 1.56-17.672 2.271-10.402 2.736c-15.177-1.864-20.932-3.002-21.641-4.027c-8.166 1.025-10.909 1.269-10.441 0.896c9.094 2.447 18.571 12.299 28.216 29.963c-11.367-6.124-13.573-6.718-8.402-2.273c-10.082-5.91-12.639-6.781-9.783-3.292c-4.467-7.729-5.438-10.875-4.076-11.705c-5.799-3.145-7.578-4.252-6.722-4.227c0.45 5.295-11.311 14.466-36.066 27.618c4.567-8.154 4.46-9.439-0.398-4.902c4.858-7.469 5.034-9.049 0.62-6.026c10.712-5.865 15.496-7.872 17.568-7.679 c2.367-4.168 3.329-5.52 3.719-5.124zM 103.369 70.753c2.663 14.712 11.275 23.748 29.08 31.243c-12.083-2.124-18.009-1.028-22.435 4.189c-23.202-10.641-35.121-20.93-34.011-29.685c9.387-0.646 17.353-2.138 27.366-5.748zM 186.108 54.862c-22.918 8.742-33.741 17.117-37.773 28.646c-2.101-6.28-6.901-8.387-18.239-7.954c6.606-15.519 17.877-26.001 32.703-30.075c6.162 4.074 12.644 6.897 23.31 9.384zM 254.295 84.363c-26.131-6.477-45.567-7.137-66.857-2.596c9.437-4.665 10.564-7.867 4.203-12.146c29.257-5.384 52.445-5.577 66.713-0.391c-3.773 4.214-5.259 8.529-4.059 15.132zM 239.196 129.247c-2.664-14.712-11.277-23.748-29.081-31.243c12.085 2.125 18.011 1.028 22.44-4.189c23.199 10.64 35.117 20.929 34.012 29.683c-9.39 0.647-17.357 2.138-27.371 5.749zM 156.457 145.139c22.918-8.744 33.743-17.12 37.777-28.647c2.1 6.279 6.897 8.386 18.235 7.953c-6.605 15.521-17.876 26.003-32.702 30.077c-6.164-4.074-12.644-6.897-23.311-9.383 zM 88.27 115.637c26.13 6.478 45.567 7.138 66.856 2.598c-9.435 4.663-10.563 7.865-4.204 12.145c-29.256 5.383-52.442 5.577-66.713 0.391c3.773-4.216 5.262-8.529 4.06-15.133z" style="fill:url(#gradient1);;"/>

	<path d="M73.527 57.653c0 3.038-2.462 5.5-5.5 5.5s-5.5-2.462-5.5-5.5s2.462-5.5 5.5-5.5s5.5 2.462 5.5 5.5z" style="fill:#00FF00;;"/>

</g>

<!-- gradient_star_3 -->

<g id="gradient_star_4" style="visibility:hidden">

	<path d="M36.942 155.573c47.887-5.635 81.882-5.305 104.859 1.019c9.047-15.883 9.943-16.163 3.723-1.15c12.103-1.648 26.958 8.25 51.651 32.514c14.506-24.264 32.057-39.325 54.133-46.455c-22.076-11.993-22.094-12.535-0.065-2.244c3.291-6.244 27.296-7.948 80.273-6.875c-33.378-18.63-49.824-34.02-50.728-47.474c-31.121 3.892-32.036 3.629-3.788-1.091c-8.812-4.596 0.337-16.199 28.62-39.391c-47.884 5.635-81.879 5.305-104.858-1.017c-9.045 15.884-9.942 16.162-3.723 1.15c-12.103 1.648-26.957-8.25-51.649-32.514c-14.506 24.264-32.057 39.325-54.134 46.456c22.077 11.993 22.094 12.534 0.065 2.242c-3.289 6.245-27.292 7.949-80.271 6.877c33.38 18.629 49.826 34.019 50.727 47.473c31.12-3.893 32.036-3.63 3.788 1.091c8.811 4.598-0.337 16.2-28.624 39.39zM 170.488 108.767c-8.188 2.033-28.461 1.383-66.578-2.429c20.495-2.434 22.497-3.094 8.292-2.72c18.891-1.772 21.5-2.451 10.774-2.833c18.274 1.718 23.766 2.803 22.415 4.17c9.823-1.367 12.441-1.598 10.813-0.928 c-7.499-2.65-16.544-12.057-29.225-31.034c14.325 7.962 16.433 8.53 8.707 2.354c12.411 7.575 14.853 8.404 10.13 3.409c6.259 9.043 7.186 12.046 4.221 12.125c7.201 3.717 8.901 4.773 6.962 4.379c0.691-4.684 11.917-13.438 37.354-28.605c-6.17 10.397-6.067 11.624 0.411 5.076c-6.479 9.347-6.646 10.855-0.643 6.242c-12.014 7.326-16.578 9.242-18.192 7.953c-2.621 5.083-3.54 6.373-3.849 5.307c8.187-2.033 28.459-1.382 66.576 2.428c-20.493 2.435-22.497 3.095-8.293 2.722c-18.89 1.772-21.5 2.451-10.774 2.833c-18.273-1.718-23.767-2.804-22.414-4.171c-9.824 1.367-12.442 1.599-10.813 0.928c7.498 2.652 16.545 12.056 29.223 31.033c-14.322-7.962-16.429-8.528-8.702-2.354c-12.413-7.574-14.854-8.405-10.133-3.41c-6.259-9.043-7.187-12.046-4.221-12.123c-7.201-3.717-8.899-4.773-6.963-4.377c-0.689 4.682-11.916 13.436-37.354 28.604c6.167-10.397 6.065-11.625-0.413-5.077c6.479-9.346 6.646-10.854 0.642-6.242c12.016-7.325 16.582-9.241 18.195-7.953 c2.624-5.082 3.542-6.371 3.852-5.308zM 103.379 70.12c2.519 15.481 10.74 24.106 30.119 32.359c-13.917-3.126-19.575-2.08-23.236 4.339c-22.71-11.596-34.087-21.417-35.226-30.745c11.159 0.354 18.762-1.068 28.343-5.953zM 187.108 54.518c-24.149 9.127-34.48 17.121-39.123 29.669c-1.212-7.539-5.794-9.549-18.89-8.238c8.58-15.711 19.338-25.717 33.871-31.149c5.501 5.433 11.688 8.127 24.142 9.719zM 255.377 84.736c-27.401-7.03-45.954-7.661-69.246-2.688c11.977-5.09 13.054-8.146 4.354-12.58c30.555-4.791 52.689-4.975 69.097-0.405c-6.391 4.403-7.809 8.521-4.204 15.672zM 239.185 129.88c-2.52-15.48-10.74-24.106-30.119-32.359c13.92 3.126 19.575 2.08 23.242-4.338c22.706 11.594 34.082 21.417 35.226 30.744c-11.161-0.354-18.767 1.069-28.349 5.954zM 155.456 145.482c24.15-9.128 34.483-17.123 39.126-29.671c1.212 7.538 5.791 9.549 18.887 8.238c-8.579 15.712-19.336 25.718-33.87 31.151c-5.502-5.434-11.688-8.128-24.143-9.719 zM 87.188 115.263c27.4 7.032 45.954 7.662 69.244 2.69c-11.976 5.09-13.052 8.146-4.353 12.579c-30.554 4.79-52.687 4.975-69.096 0.404c6.39-4.404 7.81-8.521 4.205-15.674z" style="fill:url(#gradient1);;"/>

	<path d="M85.573 57.653c0 3.038-2.462 5.5-5.5 5.5s-5.5-2.462-5.5-5.5s2.462-5.5 5.5-5.5s5.5 2.462 5.5 5.5z" style="fill:#00FF00;;"/>

</g>

<!-- gradient_star_4 -->

<g id="gradient_star_5" style="visibility:hidden">

	<path d="M32.311 157.489c56.635-9.928 89.012-9.614 108.475 1.054c11.036-19.772 11.89-20.039 3.851-1.19c13.641-6.121 27.789 3.307 53.432 33.635c11.69-30.328 28.405-44.673 55.999-48.057c-27.594-14.829-27.611-15.345-0.068-2.321c-3.429-9.169 19.434-10.792 83.042-7.112c-44.942-20.401-60.605-35.059-52.477-49.11c-38.628 4.945-39.499 4.695-3.919-1.129c-17.07-3.049-8.357-14.099 29.607-40.749c-56.632 9.928-89.008 9.614-108.475-1.052c-11.033 19.773-11.888 20.038-3.851 1.19c-13.641 6.121-27.787-3.306-53.43-33.635c-11.69 30.329-28.405 44.673-56 48.058c27.596 14.828 27.611 15.343 0.067 2.319c3.432 9.17-19.428 10.793-83.038 7.114c44.944 20.4 60.607 35.057 52.476 49.11c38.627-4.946 39.5-4.696 3.918 1.128c17.07 3.05 8.357 14.101-29.61 40.748zM 170.46 109.069c-7.733 1.217-27.041 0.598-68.874-2.513c25.049-2.838 26.957-3.467 8.578-2.813c22.841-1.985 25.326-2.632 11.145-2.931c21.37 1.572 26.6 2.605 23.188 4.314c11.481-1.709 13.975-1.928 11.186-0.96 c-5.904-2.855-14.519-11.813-30.232-32.104c17.28 9.8 19.288 10.341 9.008 2.436c14.742 9.238 17.067 10.028 10.479 3.526c8.051 10.356 8.934 13.217 4.367 12.542c8.602 4.289 10.221 5.294 7.202 4.53c1.831-4.071 12.521-12.409 38.642-29.591c-7.77 12.639-7.672 13.808 0.426 5.25c-8.098 11.222-8.258 12.659-0.665 6.458c-13.315 8.785-17.663 10.61-18.819 8.227c-2.878 5.997-3.753 7.225-3.981 5.49c7.731-1.216 27.039-0.596 68.871 2.511c-25.049 2.84-26.957 3.468-8.579 2.816c-22.841 1.985-25.326 2.631-11.146 2.931c-21.368-1.572-26.6-2.606-23.187-4.315c-11.481 1.709-13.975 1.93-11.187 0.96c5.904 2.856 14.52 11.813 30.23 32.104c-17.277-9.8-19.283-10.34-9.002-2.436c-14.745-9.237-17.07-10.028-10.482-3.527c-8.052-10.355-8.935-13.216-4.366-12.541c-8.603-4.288-10.22-5.294-7.202-4.528c-1.83 4.07-12.521 12.407-38.642 29.591c7.768-12.64 7.67-13.809-0.427-5.252c8.098-11.222 8.257-12.658 0.664-6.457c13.318-8.784 17.667-10.609 18.822-8.228 c2.88-5.995 3.755-7.224 3.984-5.49zM 103.389 69.487c2.375 16.25 10.205 24.465 31.157 33.476c-15.751-4.127-21.139-3.131-24.038 4.488c-22.217-12.55-33.053-21.903-36.44-31.805c12.93 1.355 20.172-0 29.321-6.159zM 188.108 54.174c-25.38 9.511-35.219 17.125-40.471 30.692c-0.324-8.796-4.688-10.711-19.542-8.522c10.552-15.903 20.798-25.433 35.039-32.224c4.84 6.791 10.732 9.357 24.974 10.054zM 256.458 85.109c-28.671-7.584-46.341-8.185-71.633-2.781c14.516-5.516 15.542-8.426 4.503-13.013c31.853-4.198 52.934-4.374 71.479-0.419c-9.005 4.591-10.356 8.514-4.349 16.213zM 239.175 130.512c-2.376-16.249-10.205-24.464-31.158-33.474c15.754 4.127 21.141 3.13 24.044-4.488c22.214 12.549 33.048 21.903 36.44 31.803c-12.933-1.354-20.177 0.001-29.326 6.159zM 154.456 145.826c25.381-9.513 35.222-17.127 40.476-30.693c0.322 8.796 4.684 10.711 19.537 8.521c-10.551 15.905-20.797 25.435-35.038 32.226c-4.841-6.791-10.731-9.357-24.975-10.054 zM 86.106 114.89c28.67 7.585 46.341 8.186 71.632 2.783c-14.515 5.515-15.54 8.426-4.503 13.013c-31.852 4.196-52.931 4.373-71.479 0.418c9.005-4.593 10.358-8.514 4.35-16.214z" style="fill:url(#gradient1);;"/>

	<path d="M97.62 57.653c0 3.038-2.462 5.5-5.5 5.5s-5.5-2.462-5.5-5.5s2.462-5.5 5.5-5.5s5.5 2.462 5.5 5.5z" style="fill:#00FF00;;"/>

</g>

<!-- gradient_star_5 -->

<g id="gradient_star_6" style="visibility:hidden">

	<path d="M27.677 159.406c65.387-14.224 96.144-13.926 112.091 1.089c13.026-23.664 13.838-23.917 3.98-1.23c15.18-10.596 28.62-1.64 55.212 34.757c8.874-36.396 24.753-50.023 57.866-49.66c-33.113-17.665-33.13-18.155-0.07-2.398c-10.151-12.096 11.567-13.637 85.811-7.35c-56.511-22.172-71.391-36.097-54.227-50.747c-46.138 6-46.966 5.762-4.049-1.167c-25.332-1.501-17.055-11.999 30.594-42.107c-65.382 14.224-96.14 13.926-112.091-1.087c-13.022 23.664-13.835 23.916-3.979 1.23c-15.18 10.595-28.619 1.64-55.211-34.757c-8.873 36.396-24.752 50.023-57.867 49.661c33.115 17.665 33.131 18.154 0.069 2.396C95.961 70.132 74.245 71.673 0 65.386c56.513 22.172 71.392 36.096 54.226 50.748c46.138-6 46.966-5.763 4.049 1.166c25.332 1.502 17.055 11.999-30.598 42.106zM 170.433 109.371c-7.278 0.4-25.62-0.188-71.17-2.596c29.606-3.242 31.418-3.84 8.864-2.908c26.793-2.197 29.154-2.812 11.517-3.028c24.467 1.426 29.435 2.407 23.961 4.458c13.139-2.051 15.508-2.259 11.559-0.992 c-4.308-3.06-12.493-11.569-31.24-33.174c20.236 11.639 22.143 12.152 9.308 2.517c17.074 10.901 19.283 11.652 10.829 3.644c9.845 11.67 10.683 14.388 4.513 12.961c10.003 4.86 11.542 5.816 7.442 4.681c2.97-3.459 13.126-11.379 39.93-30.578c-9.37 14.883-9.277 15.993 0.439 5.426c-9.717 13.099-9.869 14.464-0.687 6.673c-14.619 10.245-18.75 11.979-19.446 8.501c-3.136 6.911-3.967 8.077-4.115 5.673c7.275-0.399 25.618 0.189 71.167 2.595c-29.604 3.245-31.418 3.842-8.865 2.91c-26.792 2.197-29.153 2.812-11.518 3.028c-24.465-1.425-29.435-2.408-23.959-4.458c-13.141 2.051-15.509 2.261-11.56 0.992c4.308 3.061 12.493 11.569 31.238 33.174c-20.233-11.639-22.139-12.151-9.303-2.517c-17.077-10.901-19.285-11.652-10.832-3.646c-9.845-11.669-10.683-14.387-4.512-12.959c-10.004-4.86-11.54-5.815-7.442-4.679c-2.97 3.457-13.127 11.378-39.93 30.577c9.369-14.883 9.276-15.993-0.441-5.428c9.718-13.098 9.87-14.462 0.686-6.672c14.622-10.244 18.753-11.979 19.45-8.502 c3.137-6.909 3.968-8.076 4.117-5.674zM 103.399 68.854c2.23 17.02 9.669 24.824 32.196 34.591c-17.586-5.128-22.704-4.182-24.839 4.639C89.031 94.58 78.738 85.694 73.101 75.219c14.702 2.356 21.582 1.068 30.298-6.364zM 189.108 53.83c-26.612 9.896-35.958 17.128-41.82 31.715c0.564-10.055-3.582-11.874-20.193-8.807c12.525-16.096 22.259-25.148 36.207-33.298c4.179 8.149 9.775 10.587 25.807 10.389zM 257.541 85.482c-29.941-8.138-46.728-8.708-74.021-2.874c17.057-5.941 18.031-8.707 4.653-13.447c33.15-3.605 53.177-3.772 73.861-0.433c-11.621 4.78-12.904 8.506-4.493 16.753zM 239.165 131.145c-2.23-17.019-9.669-24.823-32.196-34.59c17.588 5.129 22.706 4.182 24.845-4.638c21.722 13.503 32.015 22.39 37.655 32.864c-14.704-2.355-21.586-1.067-30.304 6.364zM 153.456 146.171c26.613-9.897 35.962-17.131 41.825-31.718c-0.565 10.055 3.577 11.874 20.189 8.807c-12.525 16.097-22.258 25.149-36.206 33.3c-4.18-8.15-9.776-10.588-25.809-10.389 zM 85.025 114.517c29.941 8.139 46.727 8.709 74.02 2.876c-17.056 5.94-18.029 8.705-4.654 13.446c-33.149 3.604-53.174 3.771-73.861 0.433c11.622-4.781 12.907-8.507 4.495-16.755z" style="fill:url(#gradient1);;"/>

	<path d="M109.666 57.653c0 3.038-2.462 5.5-5.5 5.5s-5.5-2.462-5.5-5.5s2.462-5.5 5.5-5.5s5.5 2.462 5.5 5.5z" style="fill:#00FF00;;"/>

</g>

<!-- gradient_star_6 -->

<g id="gradient_star_7" style="visibility:hidden">

	<path d="M32.311 157.489c56.635-9.928 89.012-9.614 108.475 1.054c11.036-19.772 11.89-20.039 3.851-1.19c13.641-6.121 27.789 3.307 53.432 33.635c11.69-30.328 28.405-44.673 55.999-48.057c-27.594-14.829-27.611-15.345-0.068-2.321c-3.429-9.169 19.434-10.792 83.042-7.112c-44.942-20.401-60.605-35.059-52.477-49.11c-38.628 4.945-39.499 4.695-3.919-1.129c-17.07-3.049-8.357-14.099 29.607-40.749c-56.632 9.928-89.008 9.614-108.475-1.052c-11.033 19.773-11.888 20.038-3.851 1.19c-13.641 6.121-27.787-3.306-53.43-33.635c-11.69 30.329-28.405 44.673-56 48.058c27.596 14.828 27.611 15.343 0.067 2.319c3.432 9.17-19.428 10.793-83.038 7.114c44.944 20.4 60.607 35.057 52.476 49.11c38.627-4.946 39.5-4.696 3.918 1.128c17.07 3.05 8.357 14.101-29.61 40.748zM 170.46 109.069c-7.733 1.217-27.041 0.598-68.874-2.513c25.049-2.838 26.957-3.467 8.578-2.813c22.841-1.985 25.326-2.632 11.145-2.931c21.37 1.572 26.6 2.605 23.188 4.314c11.481-1.709 13.975-1.928 11.186-0.96 c-5.904-2.855-14.519-11.813-30.232-32.104c17.28 9.8 19.288 10.341 9.008 2.436c14.742 9.238 17.067 10.028 10.479 3.526c8.051 10.356 8.934 13.217 4.367 12.542c8.602 4.289 10.221 5.294 7.202 4.53c1.831-4.071 12.521-12.409 38.642-29.591c-7.77 12.639-7.672 13.808 0.426 5.25c-8.098 11.222-8.258 12.659-0.665 6.458c-13.315 8.785-17.663 10.61-18.819 8.227c-2.878 5.997-3.753 7.225-3.981 5.49c7.731-1.216 27.039-0.596 68.871 2.511c-25.049 2.84-26.957 3.468-8.579 2.816c-22.841 1.985-25.326 2.631-11.146 2.931c-21.368-1.572-26.6-2.606-23.187-4.315c-11.481 1.709-13.975 1.93-11.187 0.96c5.904 2.856 14.52 11.813 30.23 32.104c-17.277-9.8-19.283-10.34-9.002-2.436c-14.745-9.237-17.07-10.028-10.482-3.527c-8.052-10.355-8.935-13.216-4.366-12.541c-8.603-4.288-10.22-5.294-7.202-4.528c-1.83 4.07-12.521 12.407-38.642 29.591c7.768-12.64 7.67-13.809-0.427-5.252c8.098-11.222 8.257-12.658 0.664-6.457c13.318-8.784 17.667-10.609 18.822-8.228 c2.88-5.995 3.755-7.224 3.984-5.49zM 103.389 69.487c2.375 16.25 10.205 24.465 31.157 33.476c-15.751-4.127-21.139-3.131-24.038 4.488c-22.217-12.55-33.053-21.903-36.44-31.805c12.93 1.355 20.172-0 29.321-6.159zM 188.108 54.174c-25.38 9.511-35.219 17.125-40.471 30.692c-0.324-8.796-4.688-10.711-19.542-8.522c10.552-15.903 20.798-25.433 35.039-32.224c4.84 6.791 10.732 9.357 24.974 10.054zM 256.458 85.109c-28.671-7.584-46.341-8.185-71.633-2.781c14.516-5.516 15.542-8.426 4.503-13.013c31.853-4.198 52.934-4.374 71.479-0.419c-9.005 4.591-10.356 8.514-4.349 16.213zM 239.175 130.512c-2.376-16.249-10.205-24.464-31.158-33.474c15.754 4.127 21.141 3.13 24.044-4.488c22.214 12.549 33.048 21.903 36.44 31.803c-12.933-1.354-20.177 0.001-29.326 6.159zM 154.456 145.826c25.381-9.513 35.222-17.127 40.476-30.693c0.322 8.796 4.684 10.711 19.537 8.521c-10.551 15.905-20.797 25.435-35.038 32.226c-4.841-6.791-10.731-9.357-24.975-10.054 zM 86.106 114.89c28.67 7.585 46.341 8.186 71.632 2.783c-14.515 5.515-15.54 8.426-4.503 13.013c-31.852 4.196-52.931 4.373-71.479 0.418c9.005-4.593 10.358-8.514 4.35-16.214z" style="fill:url(#gradient1);;"/>

	<path d="M121.712 57.653c0 3.038-2.462 5.5-5.5 5.5s-5.5-2.462-5.5-5.5s2.462-5.5 5.5-5.5s5.5 2.462 5.5 5.5z" style="fill:#00FF00;;"/>

</g>

<!-- gradient_star_7 -->

<g id="gradient_star_8" style="visibility:hidden">

	<path d="M36.942 155.573c47.887-5.635 81.882-5.305 104.859 1.019c9.047-15.883 9.943-16.163 3.723-1.15c12.103-1.648 26.958 8.25 51.651 32.514c14.506-24.264 32.057-39.325 54.133-46.455c-22.076-11.993-22.094-12.535-0.065-2.244c3.291-6.244 27.296-7.948 80.273-6.875c-33.378-18.63-49.824-34.02-50.728-47.474c-31.121 3.892-32.036 3.629-3.788-1.091c-8.812-4.596 0.337-16.199 28.62-39.391c-47.884 5.635-81.879 5.305-104.858-1.017c-9.045 15.884-9.942 16.162-3.723 1.15c-12.103 1.648-26.957-8.25-51.649-32.514c-14.506 24.264-32.057 39.325-54.134 46.456c22.077 11.993 22.094 12.534 0.065 2.242c-3.289 6.245-27.292 7.949-80.271 6.877c33.38 18.629 49.826 34.019 50.727 47.473c31.12-3.893 32.036-3.63 3.788 1.091c8.811 4.598-0.337 16.2-28.624 39.39zM 170.488 108.767c-8.188 2.033-28.461 1.383-66.578-2.429c20.495-2.434 22.497-3.094 8.292-2.72c18.891-1.772 21.5-2.451 10.774-2.833c18.274 1.718 23.766 2.803 22.415 4.17c9.823-1.367 12.441-1.598 10.813-0.928 c-7.499-2.65-16.544-12.057-29.225-31.034c14.325 7.962 16.433 8.53 8.707 2.354c12.411 7.575 14.853 8.404 10.13 3.409c6.259 9.043 7.186 12.046 4.221 12.125c7.201 3.717 8.901 4.773 6.962 4.379c0.691-4.684 11.917-13.438 37.354-28.605c-6.17 10.397-6.067 11.624 0.411 5.076c-6.479 9.347-6.646 10.855-0.643 6.242c-12.014 7.326-16.578 9.242-18.192 7.953c-2.621 5.083-3.54 6.373-3.849 5.307c8.187-2.033 28.459-1.382 66.576 2.428c-20.493 2.435-22.497 3.095-8.293 2.722c-18.89 1.772-21.5 2.451-10.774 2.833c-18.273-1.718-23.767-2.804-22.414-4.171c-9.824 1.367-12.442 1.599-10.813 0.928c7.498 2.652 16.545 12.056 29.223 31.033c-14.322-7.962-16.429-8.528-8.702-2.354c-12.413-7.574-14.854-8.405-10.133-3.41c-6.259-9.043-7.187-12.046-4.221-12.123c-7.201-3.717-8.899-4.773-6.963-4.377c-0.689 4.682-11.916 13.436-37.354 28.604c6.167-10.397 6.065-11.625-0.413-5.077c6.479-9.346 6.646-10.854 0.642-6.242c12.016-7.325 16.582-9.241 18.195-7.953 c2.624-5.082 3.542-6.371 3.852-5.308zM 103.379 70.12c2.519 15.481 10.74 24.106 30.119 32.359c-13.917-3.126-19.575-2.08-23.236 4.339c-22.71-11.596-34.087-21.417-35.226-30.745c11.159 0.354 18.762-1.068 28.343-5.953zM 187.108 54.518c-24.149 9.127-34.48 17.121-39.123 29.669c-1.212-7.539-5.794-9.549-18.89-8.238c8.58-15.711 19.338-25.717 33.871-31.149c5.501 5.433 11.688 8.127 24.142 9.719zM 255.377 84.736c-27.401-7.03-45.954-7.661-69.246-2.688c11.977-5.09 13.054-8.146 4.354-12.58c30.555-4.791 52.689-4.975 69.097-0.405c-6.391 4.403-7.809 8.521-4.204 15.672zM 239.185 129.88c-2.52-15.48-10.74-24.106-30.119-32.359c13.92 3.126 19.575 2.08 23.242-4.338c22.706 11.594 34.082 21.417 35.226 30.744c-11.161-0.354-18.767 1.069-28.349 5.954zM 155.456 145.482c24.15-9.128 34.483-17.123 39.126-29.671c1.212 7.538 5.791 9.549 18.887 8.238c-8.579 15.712-19.336 25.718-33.87 31.151c-5.502-5.434-11.688-8.128-24.143-9.719 zM 87.188 115.263c27.4 7.032 45.954 7.662 69.244 2.69c-11.976 5.09-13.052 8.146-4.353 12.579c-30.554 4.79-52.687 4.975-69.096 0.404c6.39-4.404 7.81-8.521 4.205-15.674z" style="fill:url(#gradient1);;"/>

	<path d="M133.758 57.653c0 3.038-2.462 5.5-5.5 5.5s-5.5-2.462-5.5-5.5s2.462-5.5 5.5-5.5s5.5 2.462 5.5 5.5z" style="fill:#00FF00;;"/>

</g>

<!-- gradient_star_8 -->

<g id="gradient_star_9" style="visibility:hidden">

	<path d="M41.576 153.657c39.136-1.34 74.75-0.994 101.243 0.983c7.057-11.993 7.996-12.286 3.595-1.111c10.563 2.825 26.126 13.195 49.87 31.393c17.323-18.197 35.709-33.977 52.266-44.854c-16.557-9.156-16.575-9.724-0.063-2.167c10.014-3.317 35.162-5.103 77.505-6.638c-21.81-16.857-39.039-32.981-48.979-45.836c-23.61 2.837-24.568 2.563-3.657-1.054c-0.55-6.144 9.034-18.299 27.634-38.032c-39.133 1.34-74.747 0.994-101.243-0.981c-7.054 11.993-7.994 12.285-3.594 1.111c-10.563-2.826-26.125-13.196-49.868-31.393c-17.323 18.197-35.71 33.976-52.267 44.854c16.557 9.156 16.574 9.723 0.063 2.165c-10.013 3.319-35.159 5.104-77.502 6.64c21.812 16.857 39.041 32.98 48.978 45.836c23.61-2.838 24.569-2.563 3.657 1.053c0.549 6.146-9.034 18.301-27.636 38.032zM 170.516 108.465c-8.644 2.85-29.882 2.168-64.282-2.346c15.938-2.028 18.036-2.721 8.006-2.626c14.939-1.56 17.672-2.271 10.402-2.735c15.178 1.864 20.931 3.001 21.642 4.026c8.164-1.025 10.907-1.267 10.44-0.896 c-9.094-2.446-18.571-12.301-28.217-29.964c11.369 6.124 13.577 6.719 8.407 2.273c10.079 5.911 12.636 6.78 9.781 3.291c4.466 7.73 5.436 10.876 4.076 11.707c5.799 3.146 7.58 4.251 6.722 4.228c-0.449-5.296 11.311-14.468 36.066-27.619c-4.568 8.154-4.461 9.439 0.396 4.9c-4.857 7.47-5.034 9.051-0.62 6.027c-10.71 5.866-15.492 7.874-17.564 7.679c-2.364 4.17-3.327 5.52-3.716 5.124c8.642-2.849 29.88-2.167 64.28 2.344c-15.938 2.03-18.037 2.722-8.008 2.628c-14.938 1.56-17.672 2.271-10.402 2.736c-15.177-1.864-20.932-3.002-21.641-4.027c-8.166 1.025-10.909 1.269-10.441 0.896c9.094 2.447 18.571 12.299 28.216 29.963c-11.367-6.124-13.573-6.718-8.402-2.273c-10.082-5.91-12.639-6.781-9.783-3.292c-4.467-7.729-5.438-10.875-4.076-11.705c-5.799-3.145-7.578-4.252-6.722-4.227c0.45 5.295-11.311 14.466-36.066 27.618c4.567-8.154 4.46-9.439-0.398-4.902c4.858-7.469 5.034-9.049 0.62-6.026c10.712-5.865 15.496-7.872 17.568-7.679 c2.367-4.168 3.329-5.52 3.719-5.124zM 103.369 70.753c2.663 14.712 11.275 23.748 29.08 31.243c-12.083-2.124-18.009-1.028-22.435 4.189c-23.202-10.641-35.121-20.93-34.011-29.685c9.387-0.646 17.353-2.138 27.366-5.748zM 186.108 54.862c-22.918 8.742-33.741 17.117-37.773 28.646c-2.101-6.28-6.901-8.387-18.239-7.954c6.606-15.519 17.877-26.001 32.703-30.075c6.162 4.074 12.644 6.897 23.31 9.384zM 254.295 84.363c-26.131-6.477-45.567-7.137-66.857-2.596c9.437-4.665 10.564-7.867 4.203-12.146c29.257-5.384 52.445-5.577 66.713-0.391c-3.773 4.214-5.259 8.529-4.059 15.132zM 239.196 129.247c-2.664-14.712-11.277-23.748-29.081-31.243c12.085 2.125 18.011 1.028 22.44-4.189c23.199 10.64 35.117 20.929 34.012 29.683c-9.39 0.647-17.357 2.138-27.371 5.749zM 156.457 145.139c22.918-8.744 33.743-17.12 37.777-28.647c2.1 6.279 6.897 8.386 18.235 7.953c-6.605 15.521-17.876 26.003-32.702 30.077c-6.164-4.074-12.644-6.897-23.311-9.383 zM 88.27 115.637c26.13 6.478 45.567 7.138 66.856 2.598c-9.435 4.663-10.563 7.865-4.204 12.145c-29.256 5.383-52.442 5.577-66.713 0.391c3.773-4.216 5.262-8.529 4.06-15.133z" style="fill:url(#gradient1);;"/>

	<path d="M145.804 57.653c0 3.038-2.462 5.5-5.5 5.5s-5.5-2.462-5.5-5.5s2.462-5.5 5.5-5.5s5.5 2.462 5.5 5.5z" style="fill:#00FF00;;"/>

</g>

<!-- gradient_star_9 -->

<g id="gradient_star_10" style="visibility:hidden">

	<path d="M46.208 151.741c30.388 2.954 67.621 3.314 97.627 0.948c5.067-8.104 6.049-8.41 3.466-1.072c9.025 7.299 25.295 18.14 48.088 30.272c20.14-12.133 39.362-28.629 50.399-43.252c-11.037-6.321-11.058-6.914-0.061-2.09c16.734-0.393 43.025-2.258 74.737-6.4c-10.246-15.087-28.259-31.943-47.229-44.2c-16.103 1.784-17.104 1.497-3.526-1.016c7.708-7.692 17.729-20.399 26.646-36.674c-30.385-2.954-67.618-3.315-97.627-0.946c-5.065 8.104-6.048 8.409-3.466 1.071c-9.026-7.298-25.295-18.14-48.087-30.271c-20.14 12.132-39.362 28.627-50.4 43.252c11.038 6.32 11.057 6.913 0.061 2.087c-16.733 0.394-43.022 2.26-74.735 6.402c10.248 15.086 28.26 31.942 47.229 44.199c16.102-1.784 17.105-1.497 3.527 1.016c-7.709 7.692-17.729 20.4-26.649 36.674zM 170.543 108.162c-9.099 3.667-31.302 2.954-61.987-2.261c11.383-1.625 13.577-2.348 7.72-2.533c10.988-1.347 13.846-2.091 10.031-2.637c12.083 2.01 18.097 3.199 20.869 3.882c6.506-0.684 9.375-0.936 10.067-0.864 c-10.689-2.241-20.597-12.543-27.209-28.894c8.415 4.286 10.723 4.908 8.107 2.192c7.748 4.248 10.421 5.156 9.432 3.173c2.673 6.417 3.688 9.706 3.93 11.289c4.398 2.574 6.26 3.73 6.482 4.077c-1.589-5.908 10.706-15.496 34.777-26.632c-2.968 5.912-2.855 7.255 0.383 4.726c-3.238 5.595-3.423 7.247-0.598 5.812c-9.407 4.406-14.407 6.505-16.938 7.404c-2.108 3.256-3.114 4.668-3.583 4.941c9.097-3.666 31.301-2.953 61.984 2.26c-11.382 1.626-13.577 2.349-7.722 2.535c-10.987 1.347-13.846 2.09-10.031 2.638c-12.081-2.01-18.097-3.2-20.867-3.883c-6.509 0.684-9.376 0.938-10.068 0.864c10.688 2.243 20.597 12.542 27.208 28.893c-8.413-4.285-10.719-4.906-8.103-2.191c-7.75-4.248-10.424-5.157-9.435-3.175c-2.673-6.416-3.688-9.705-3.93-11.287c-4.398-2.573-6.258-3.73-6.481-4.075c1.589 5.906-10.706 15.494-34.778 26.632c2.967-5.912 2.855-7.256-0.384-4.728c3.239-5.594 3.423-7.245 0.598-5.811c9.409-4.406 14.41-6.505 16.94-7.405 c2.11-3.255 3.116-4.667 3.586-4.941zM 103.359 71.385c2.807 13.943 11.812 23.39 28.042 30.127c-10.249-1.123-16.444 0.022-21.634 4.04C86.073 95.866 73.612 85.109 76.97 76.928c7.616-1.647 15.944-3.206 26.389-5.543zM 185.107 55.206c-21.686 8.358-33 17.114-36.424 27.623c-2.989-5.023-8.008-7.225-17.587-7.67c4.633-15.326 16.417-26.285 31.535-29.001c6.824 2.717 13.6 5.668 22.477 9.049zM 253.214 83.99c-24.86-5.923-45.181-6.613-64.47-2.503c6.896-4.239 8.076-7.587 4.053-11.712c27.959-5.978 52.201-6.179 64.331-0.377c-1.158 4.026-2.712 8.537-3.914 14.592zM 239.206 128.614c-2.808-13.942-11.813-23.39-28.042-30.127c10.251 1.124 16.445-0.023 21.639-4.04c23.691 9.687 36.151 20.443 32.797 28.623c-7.617 1.648-15.948 3.207-26.394 5.544zM 157.457 144.795c21.688-8.36 33.004-17.116 36.429-27.625c2.988 5.022 8.003 7.225 17.584 7.67c-4.633 15.327-16.415 26.286-31.534 29.003c-6.825-2.717-13.6-5.668-22.479-9.048zM 89.351 116.01 c24.861 5.924 45.181 6.613 64.469 2.505c-6.896 4.238-8.074 7.586-4.053 11.711c-27.958 5.976-52.199 6.179-64.331 0.377c1.158-4.027 2.714-8.537 3.915-14.593z" style="fill:url(#gradient1);;"/>

	<path d="M157.851 57.653c0 3.038-2.462 5.5-5.5 5.5s-5.5-2.462-5.5-5.5s2.462-5.5 5.5-5.5s5.5 2.462 5.5 5.5z" style="fill:#00FF00;;"/>

</g>

<!-- gradient_star_10 -->

<g id="gradient_star_11" style="visibility:hidden">

	<path d="M50.841 149.824c21.637 7.249 60.489 7.626 94.011 0.913c3.077-4.213 4.102-4.532 3.338-1.032c7.487 11.772 24.464 23.086 46.307 29.15c22.956-6.064 43.015-23.278 48.532-41.649c-5.518-3.484-5.538-4.103-0.059-2.012c23.457 2.534 50.892 0.587 71.969-6.164c1.322-13.314-17.474-30.904-45.479-42.562c-8.594 0.73-9.639 0.43-3.396-0.978c15.971-9.24 26.426-22.5 25.66-35.315c-21.635-7.25-60.487-7.626-94.011-0.912c-3.075 4.213-4.101 4.531-3.338 1.031c-7.487-11.772-24.463-23.085-46.305-29.15c-22.958 6.064-43.015 23.278-48.534 41.65c5.519 3.483 5.538 4.102 0.059 2.01c-23.456-2.533-50.888-0.585-71.966 6.166c-1.32 13.314 17.475 30.903 45.479 42.562c8.592-0.73 9.639-0.431 3.396 0.978c-15.971 9.241-26.426 22.501-25.662 35.315zM 170.57 107.859c-9.554 4.483-32.723 3.74-59.69-2.177c6.827-1.22 9.116-1.975 7.434-2.438c7.037-1.135 10.019-1.911 9.659-2.541c8.986 2.157 15.262 3.397 20.096 3.739c4.848-0.342 7.841-0.605 9.694-0.832 c-12.284-2.037-22.623-12.787-26.201-27.823c5.458 2.447 7.867 3.096 7.807 2.111c5.416 2.584 8.206 3.532 9.082 3.056c0.88 5.103 1.939 8.535 3.785 10.87c2.996 2.002 4.939 3.208 6.241 3.926c-2.729-6.521 10.101-16.525 33.489-25.646c-1.367 3.669-1.25 5.071 0.369 4.551c-1.619 3.718-1.812 5.442-0.576 5.597c-8.104 2.946-13.32 5.136-16.31 7.13c-1.852 2.343-2.901 3.816-3.451 4.758c9.553-4.483 32.723-3.739 59.688 2.176c-6.826 1.222-9.116 1.976-7.436 2.441c-7.035 1.134-10.019 1.91-9.66 2.54c-8.984-2.157-15.262-3.398-20.095-3.74c-4.85 0.342-7.842 0.607-9.695 0.833c12.284 2.039 22.623 12.786 26.2 27.822c-5.457-2.446-7.863-3.095-7.802-2.11c-5.418-2.584-8.208-3.533-9.085-3.057c-0.88-5.103-1.939-8.534-3.784-10.869c-2.997-2.001-4.938-3.209-6.242-3.925c2.729 6.52-10.1 16.524-33.489 25.646c1.366-3.669 1.249-5.071-0.37-4.552c1.619-3.718 1.811-5.441 0.575-5.596c8.106-2.946 13.324-5.136 16.313-7.131c1.854-2.341 2.904-3.815 3.453-4.759 zM 103.349 72.018c2.951 13.174 12.347 23.031 27.002 29.012c-8.414-0.122-14.879 1.073-20.832 3.89c-24.187-8.732-37.188-19.957-31.582-27.564c5.844-2.648 14.534-4.275 25.411-5.338zM 184.107 55.55c-20.455 7.974-32.261 17.11-35.075 26.6c-3.877-3.765-9.115-6.063-16.936-7.386c2.66-15.134 14.956-26.569 30.366-27.927c7.485 1.358 14.556 4.438 21.645 8.714zM 252.132 83.616c-23.59-5.369-44.794-6.089-62.081-2.41c4.355-3.813 5.587-7.307 3.902-11.278c26.661-6.57 51.958-6.781 61.948-0.363c1.458 3.837-0.163 8.544-3.77 14.051zM 239.216 127.981c-2.953-13.173-12.349-23.03-27.004-29.011c8.416 0.122 14.88-1.075 20.838-3.89c24.184 8.731 37.185 19.956 31.581 27.563c-5.846 2.648-14.538 4.275-25.415 5.338zM 158.457 144.45c20.456-7.975 32.264-17.112 35.079-26.601c3.878 3.764 9.11 6.062 16.933 7.386c-2.659 15.135-14.953 26.57-30.366 27.928c-7.486-1.357-14.555-4.438-21.645-8.713zM 90.433 116.383c23.59 5.37 44.794 6.09 62.081 2.412 c-4.355 3.813-5.585 7.306-3.903 11.277c-26.66 6.569-51.955 6.781-61.947 0.362c-1.458-3.839 0.165-8.544 3.77-14.052z" style="fill:url(#gradient1);;"/>

	<path d="M169.896 57.653c0 3.038-2.462 5.5-5.5 5.5s-5.5-2.462-5.5-5.5s2.462-5.5 5.5-5.5s5.5 2.462 5.5 5.5z" style="fill:#00FF00;;"/>

</g>

<!-- gradient_star_11 -->

<g id="gradient_star_12" style="visibility:hidden">

	<path d="M55.473 147.908c12.889 11.543 53.359 11.936 90.396 0.878c1.087-0.323 2.155-0.656 3.209-0.992c5.948 16.245 23.633 28.029 44.526 28.029c25.772 0 46.666-17.931 46.666-40.048c0-0.648-0.021-1.293-0.057-1.935c30.178 5.459 58.755 3.431 69.201-5.927c12.887-11.544-6.692-29.866-43.73-40.925c-1.086-0.324-2.175-0.636-3.266-0.94c24.229-10.787 35.12-24.6 24.673-33.958c-12.887-11.543-53.357-11.936-90.396-0.876c-1.086 0.324-2.154 0.655-3.209 0.992c-5.949-16.245-23.633-28.029-44.525-28.029c-25.773 0-46.667 17.93-46.667 40.048c0 0.648 0.02 1.292 0.056 1.933C72.174 60.7 43.6 62.728 33.152 72.086c-12.884 11.543 6.694 29.865 43.73 40.925c1.084 0.323 2.175 0.636 3.266 0.94c-24.23 10.788-35.121 24.601-24.675 33.957zM 170.598 107.558c-10.009 5.3-34.144 4.525-57.395-2.094c2.272-0.815 4.656-1.602 7.148-2.345c3.086-0.922 6.192-1.73 9.288-2.442c5.891 2.303 12.428 3.595 19.323 3.595c3.19 0 6.308-0.274 9.322-0.8c-13.879-1.833-24.648-13.031-25.194-26.753 c2.503 0.609 5.013 1.285 7.506 2.03c3.084 0.921 5.991 1.909 8.733 2.938c-0.913 3.789 0.19 7.364 3.639 10.452c1.595 1.43 3.619 2.687 6.001 3.775c-3.869-7.133 9.495-17.555 32.202-24.66c0.232 1.426 0.354 2.887 0.354 4.375c0 1.843-0.2 3.639-0.554 5.381c-6.801 1.487-12.235 3.768-15.683 6.856c-1.595 1.429-2.688 2.964-3.318 4.575c10.008-5.299 34.143-4.524 57.393 2.093c-2.271 0.817-4.656 1.603-7.149 2.347c-3.085 0.921-6.192 1.729-9.288 2.442c-5.89-2.303-12.429-3.596-19.322-3.596c-3.192 0-6.309 0.276-9.322 0.8c13.879 1.834 24.648 13.029 25.192 26.753c-2.502-0.609-5.009-1.284-7.502-2.029c-3.087-0.921-5.993-1.91-8.735-2.939c0.912-3.789-0.191-7.364-3.639-10.451c-1.596-1.43-3.617-2.688-6.002-3.773c3.869 7.131-9.495 17.553-32.202 24.659c-0.234-1.427-0.356-2.888-0.356-4.377c0-1.842 0.2-3.638 0.553-5.381c6.803-1.486 12.239-3.768 15.686-6.856c1.597-1.428 2.691-2.963 3.32-4.575zM 103.338 72.651c3.095 12.404 12.883 22.672 25.964 27.896 c-6.58 0.88-13.314 2.125-20.031 3.74c-24.678-7.778-38.222-19.47-30.367-26.504c4.073-3.649 13.125-5.343 24.434-5.132zM 183.107 55.894C163.884 63.483 151.585 73 149.381 81.471c-4.766-2.507-10.221-4.9-16.285-7.102c0.688-14.941 13.496-26.853 29.199-26.853c8.146 0 15.511 3.208 20.812 8.378zM 251.051 83.243c-22.32-4.815-44.407-5.565-59.694-2.317c1.816-3.388 3.099-7.027 3.753-10.844c25.363-7.164 51.714-7.383 59.565-0.349c4.073 3.649 2.385 8.552-3.624 13.511zM 239.226 127.349c-3.097-12.403-12.884-22.672-25.965-27.896c6.582-0.879 13.315-2.125 20.036-3.74c24.676 7.777 38.219 19.47 30.367 26.503c-4.074 3.649-13.129 5.344-24.438 5.133zM 159.457 144.106c19.224-7.591 31.525-17.108 33.73-25.578c4.766 2.506 10.217 4.899 16.281 7.102c-0.687 14.942-13.493 26.854-29.198 26.854c-8.147 0-15.511-3.208-20.813-8.378zM 91.514 116.756c22.32 4.816 44.408 5.566 59.693 2.319c-1.815 3.388-3.097 7.026-3.753 10.844c-25.362 7.162-51.711 7.383-59.565 0.349 c-4.074-3.65-2.383-8.552 3.625-13.512z" style="fill:url(#gradient1);;"/>

	<path d="M181.943 57.653c0 3.038-2.463 5.5-5.5 5.5s-5.5-2.462-5.5-5.5s2.463-5.5 5.5-5.5s5.5 2.462 5.5 5.5z" style="fill:#00FF00;;"/>

</g>

<!-- gradient_star_12 -->

<g id="gradient_star_13" style="visibility:hidden">

	<path d="M60.104 145.992c4.141 15.837 46.23 16.245 86.78 0.843c-0.902 3.566 0.208 3.22 3.081-0.952c4.41 20.718 22.801 32.973 42.746 26.908c28.589 6.064 50.317-12.583 44.8-38.446c5.518 2.188 5.495 1.517-0.055-1.857c36.898 8.384 66.618 6.274 66.434-5.689c24.451-9.773 4.089-28.828-41.981-39.289c6.422-1.377 5.289-1.703-3.135-0.903c32.486-12.334 43.814-26.7 23.686-32.6c-4.139-15.837-46.228-16.246-86.78-0.841c0.903-3.565-0.208-3.221-3.08 0.952c-4.411-20.718-22.802-32.973-42.745-26.909c-28.589-6.064-50.319 12.583-44.8 38.447c-5.519-2.188-5.498-1.518 0.054 1.855c-36.897-8.383-66.615-6.274-66.431 5.691c-24.448 9.772-4.087 28.827 41.981 39.288c-6.423 1.377-5.289 1.702 3.135 0.903c-32.489 12.335-43.815 26.7-23.688 32.599zM 170.625 107.256c-10.464 6.116-35.564 5.311-55.1-2.011c-2.283-0.411 0.197-1.229 6.863-2.251c-0.865-0.709 2.365-1.55 8.916-2.344c2.795 2.449 9.594 3.792 18.55 3.451c1.533 0.342 4.774 0.057 8.949-0.768 c-15.475-1.629-26.674-13.274-24.187-25.684c-0.451-1.229 2.158-0.526 7.206 1.949c0.753-0.742 3.776 0.285 8.384 2.821c-2.705 2.476-1.558 6.194 3.494 10.034c0.194 0.858 2.298 2.166 5.762 3.624c-5.008-7.745 8.89-18.584 30.914-23.673c1.832-0.816 1.959 0.703 0.34 4.2c1.619-0.033 1.411 1.835-0.531 5.166c-5.498 0.027-11.15 2.4-15.056 6.582c-1.338 0.516-2.476 2.112-3.186 4.392c10.463-6.116 35.563-5.31 55.097 2.009c2.285 0.412-0.196 1.229-6.863 2.252c0.865 0.709-2.366 1.549-8.916 2.345c-2.795-2.449-9.596-3.793-18.55-3.452c-1.535-0.342-4.775-0.054-8.949 0.768c15.474 1.63 26.674 13.272 24.185 25.684c0.453 1.228-2.154 0.526-7.202-1.948c-0.756 0.742-3.778-0.287-8.386-2.822c2.704-2.476 1.557-6.194-3.493-10.033c-0.194-0.858-2.297-2.166-5.762-3.622c5.009 7.742-8.891 18.581-30.914 23.673c-1.834 0.815-1.961-0.704-0.342-4.202c-1.619 0.034-1.412-1.834 0.531-5.166c5.5-0.026 11.153-2.399 15.058-6.582c1.341-0.515 2.478-2.11 3.188-4.392 zM 103.328 73.284c3.239 11.635 13.418 22.313 24.926 26.78c-4.746 1.881-11.75 3.176-19.23 3.59c-25.17-6.823-39.256-18.983-29.153-25.444c2.302-4.649 11.716-6.412 23.457-4.927zM 182.107 56.238c-17.992 7.205-30.782 17.103-32.377 24.554c-5.654-1.249-11.327-3.738-15.633-6.818c-1.285-14.749 12.035-27.137 28.031-25.779c8.808-1.358 16.467 1.978 19.979 8.043zM 249.97 82.87c-21.051-4.262-44.021-5.042-57.308-2.225c-0.723-2.963 0.61-6.747 3.604-10.411c24.065-7.757 51.47-7.985 57.183-0.335c6.688 3.46 4.933 8.56-3.479 12.971zM 239.236 126.716c-3.24-11.634-13.419-22.313-24.926-26.78c4.748-1.88 11.751-3.176 19.234-3.59c25.168 6.823 39.253 18.983 29.153 25.442c-2.303 4.65-11.72 6.412-23.462 4.928zM 160.457 143.763c17.993-7.207 30.786-17.104 32.381-24.556c5.653 1.248 11.323 3.737 15.63 6.817c1.286 14.75-12.033 27.139-28.03 25.781c-8.809 1.357-16.467-1.979-19.981-8.043zM 92.595 117.129c21.051 4.263 44.021 5.043 57.306 2.227 c0.724 2.963-0.608 6.747-3.603 10.41c-24.065 7.755-51.467 7.984-57.184 0.335c-6.689-3.462-4.931-8.56 3.48-12.972z" style="fill:url(#gradient1);;"/>

	<path d="M193.989 57.653c0 3.038-2.462 5.5-5.5 5.5c-3.037 0-5.5-2.462-5.5-5.5s2.463-5.5 5.5-5.5c3.038 0 5.5 2.462 5.5 5.5z" style="fill:#00FF00;;"/>

</g>

<!-- gradient_star_13 -->

<g id="gradient_star_14" style="visibility:hidden">

	<path d="M64.738 144.075c-4.61 20.132 39.098 20.557 83.164 0.808c-2.892 7.457-1.739 7.098 2.953-0.912c2.871 25.191 21.971 37.919 40.965 25.786c31.405 12.133 53.97-7.232 42.933-36.844c11.037 5.024 11.015 4.328-0.053-1.779c43.621 11.311 74.484 9.119 63.665-5.453c36.02-8.001 14.874-27.789-40.231-37.651c13.931-2.432 12.755-2.769-3.005-0.865c40.749-13.882 52.512-28.8 22.699-31.241c4.611-20.133-39.097-20.557-83.164-0.807c2.894-7.456 1.739-7.098-2.952 0.913c-2.872-25.192-21.971-37.919-40.963-25.787c-31.407-12.132-53.972 7.233-42.934 36.844c-11.038-5.024-11.017-4.329 0.052 1.778c-43.621-11.31-74.481-9.119-63.663 5.454c-36.017 8-14.872 27.788 40.231 37.65c-13.933 2.431-12.756 2.769 3.004 0.865c-40.75 13.884-52.512 28.801-22.701 31.24zM 170.652 106.953c-10.919 6.933-36.985 6.097-52.803-1.927c-6.839-0.006-4.264-0.855 6.577-2.156c-4.816-0.497-1.462-1.37 8.544-2.248c-0.301 2.595 6.759 3.991 17.777 3.307c-0.125 0.684 3.241 0.387 8.576-0.735 c-17.07-1.425-28.7-13.518-23.178-24.613c-3.408-3.067-0.697-2.337 6.906 1.867c-1.579-2.405 1.56-1.339 8.034 2.704c-4.499 1.162-3.307 5.023 3.348 9.616c-1.208 0.287 0.978 1.644 5.521 3.473c-6.148-8.357 8.285-19.613 29.626-22.687c3.433-3.059 3.564-1.482 0.326 4.025c3.238-1.909 3.022 0.03-0.51 4.951c-4.194-1.433-10.063 1.031-14.428 6.308c-1.081-0.398-2.263 1.26-3.053 4.209c10.918-6.933 36.984-6.096 52.801 1.926c6.841 0.007 4.265 0.856-6.577 2.159c4.817 0.496 1.461 1.369-8.545 2.247c0.302-2.595-6.761-3.992-17.777-3.308c0.124-0.684-3.241-0.385-8.576 0.736c17.069 1.426 28.7 13.516 23.177 24.613c3.409 3.066 0.701 2.338-6.901-1.867c1.576 2.406-1.563 1.337-8.036-2.704c4.497-1.162 3.306-5.023-3.348-9.615c1.207-0.286-0.977-1.645-5.522-3.472c6.149 8.355-8.284 19.611-29.625 22.687c-3.436 3.059-3.567 1.48-0.328-4.026c-3.239 1.91-3.023-0.03 0.509-4.951c4.196 1.434 10.067-1.03 14.431-6.308c1.084 0.399 2.266-1.259 3.055-4.209 zM 103.318 73.917c3.384 10.866 13.954 21.955 23.887 25.664c-2.911 2.883-10.185 4.228-18.429 3.441c-25.663-5.869-40.29-18.496-27.938-24.383c0.53-5.651 10.306-7.48 22.479-4.722zM 181.107 56.582c-16.761 6.821-30.043 17.099-31.028 23.53c-6.542 0.009-12.434-2.576-14.982-6.534c-3.258-14.557 10.574-27.421 26.863-24.705c9.469-2.717 17.423 0.748 19.147 7.708zM 248.888 82.497c-19.78-3.708-43.634-4.518-54.919-2.132c-3.264-2.537-1.879-6.467 3.453-9.977c22.768-8.35 51.227-8.586 54.8-0.321c9.305 3.272 7.481 8.567-3.334 12.43zM 239.247 126.083c-3.386-10.864-13.955-21.954-23.888-25.664c2.913-2.882 10.186-4.228 18.434-3.441c25.66 5.868 40.286 18.496 27.938 24.383c-0.531 5.65-10.31 7.48-22.483 4.722zM 161.458 143.418c16.761-6.821 30.046-17.101 31.031-23.531c6.543-0.011 12.431 2.574 14.979 6.533c3.26 14.558-10.571 27.423-26.862 24.706c-9.47 2.717-17.422-0.748-19.147-7.708zM 93.677 117.502c19.78 3.709 43.634 4.52 54.917 2.134 c3.265 2.537 1.881 6.467-3.453 9.977c-22.767 8.349-51.223 8.587-54.8 0.32c-9.306-3.273-7.479-8.566 3.335-12.431z" style="fill:url(#gradient1);;"/>

	<path d="M206.035 57.653c0 3.038-2.462 5.5-5.5 5.5s-5.5-2.462-5.5-5.5s2.462-5.5 5.5-5.5s5.5 2.462 5.5 5.5z" style="fill:#00FF00;;"/>

</g>

<!-- gradient_star_14 -->

<g id="gradient_star_15" style="visibility:hidden">

	<path d="M69.37 142.159c-13.358 24.426 31.968 24.865 79.548 0.772c-4.882 11.347-3.686 10.974 2.824-0.873c1.333 29.665 21.139 42.863 39.183 24.666c34.222 18.197 57.623-1.885 41.066-35.242c16.557 7.859 16.532 7.138-0.05-1.702c50.342 14.235 82.348 11.964 60.897-5.216c47.583-6.23 25.654-26.75-38.482-36.015c21.438-3.485 20.219-3.835-2.874-0.827c49.007-15.43 61.206-30.9 21.712-29.883c13.359-24.427-31.968-24.866-79.548-0.771c4.882-11.345 3.686-10.974-2.824 0.873c-1.335-29.665-21.14-42.863-39.182-24.666c-34.224-18.197-57.624 1.885-41.067 35.243c-16.557-7.86-16.534-7.139 0.049 1.701c-50.341-14.235-82.344-11.963-60.895 5.217c-47.581 6.229-25.653 26.75 38.482 36.014c-21.441 3.484-20.22 3.835 2.874 0.828c-49.009 15.431-61.207 30.9-21.714 29.882zM 170.68 106.65c-11.375 7.75-38.405 6.883-50.508-1.842c-11.394 0.397-8.724-0.482 6.291-2.063c-8.767-0.284-5.289-1.189 8.173-2.149c-3.397 2.741 3.925 4.188 17.004 3.163 c-1.783 1.025 1.708 0.718 8.204-0.704c-18.665-1.22-30.726-13.761-22.171-23.542c-6.362-4.905-3.552-4.148 6.605 1.786c-3.91-4.068-0.655-2.963 7.685 2.586c-6.291-0.152-5.055 3.853 3.203 9.198c-2.609-0.285-0.343 1.123 5.281 3.322c-7.288-8.969 7.679-20.642 28.337-21.701c5.033-5.301 5.17-3.666 0.313 3.851c4.857-3.785 4.634-1.773-0.487 4.736c-2.892-2.892-8.979-0.337-13.801 6.033c-0.825-1.312-2.05 0.408-2.92 4.026c11.374-7.75 38.405-6.881 50.505 1.841c11.396-0.396 8.725 0.483-6.291 2.065c8.768 0.283 5.287 1.188-8.174 2.149c3.397-2.741-3.926-4.189-17.004-3.164c1.781-1.025-1.708-0.716-8.203 0.704c18.664 1.222 30.726 13.759 22.169 23.542c6.363 4.905 3.556 4.149-6.602-1.785c3.908 4.068 0.652 2.961-7.688-2.587c6.291 0.15 5.055-3.854-3.201-9.197c2.607 0.285 0.344-1.123-5.282-3.32c7.288 8.967-7.68 20.64-28.337 21.7c-5.036 5.301-5.172 3.664-0.313-3.852c-4.858 3.785-4.635 1.773 0.487-4.735c2.894 2.893 8.981 0.337 13.803-6.034 c0.828 1.313 2.053-0.406 2.922-4.026zM 103.308 74.549c3.528 10.097 14.49 21.597 22.849 24.549c-1.078 3.884-8.62 5.278-17.628 3.291c-26.154-4.915-41.323-18.009-26.723-23.323c-1.241-6.651 8.897-8.549 21.502-4.517zM 180.106 56.926c-15.528 6.437-29.302 17.096-29.679 22.508c-7.43 1.267-13.54-1.414-14.331-6.25c-5.231-14.364 9.114-27.705 25.695-23.631c10.131-4.074 18.379-0.481 18.314 7.373zM 247.807 82.124c-18.51-3.154-43.247-3.994-52.531-2.039c-5.804-2.112-4.367-6.187 3.303-9.543c21.47-8.943 50.982-9.188 52.418-0.308c11.92 3.083 10.028 8.575-3.189 11.89zM 239.256 125.45c-3.529-10.095-14.49-21.596-22.849-24.548c1.079-3.883 8.62-5.279 17.632-3.292c26.152 4.915 41.32 18.01 26.723 23.323c1.241 6.651-8.9 8.55-21.506 4.517zM 162.458 143.074c15.53-6.438 29.307-17.097 29.683-22.509c7.432-1.268 13.536 1.413 14.327 6.25c5.232 14.364-9.11 27.706-25.694 23.632c-10.131 4.074-18.378 0.481-18.315-7.373zM 94.758 117.875 c18.51 3.155 43.248 3.995 52.53 2.041c5.804 2.112 4.37 6.188-3.302 9.543c-21.469 8.941-50.979 9.188-52.418 0.307c-11.921-3.085-10.027-8.574 3.19-11.891z" style="fill:url(#gradient1);;"/>

	<path d="M218.082 57.653c0 3.038-2.463 5.5-5.5 5.5c-3.038 0-5.5-2.462-5.5-5.5s2.462-5.5 5.5-5.5c3.037 0 5.5 2.462 5.5 5.5z" style="fill:#00FF00;;"/>

</g>

<!-- gradient_star_15 -->

<g id="gradient_star_16" style="visibility:hidden">

	<path d="M74.003 140.243c-22.109 28.721 24.836 29.176 75.932 0.737c-6.872 15.236-5.634 14.851 2.696-0.834c-0.207 34.139 20.308 47.809 37.402 23.545c37.039 24.264 61.275 3.464 39.199-33.641c22.076 10.696 22.051 9.949-0.048-1.625c57.064 17.162 90.214 14.81 58.129-4.979c59.151-4.458 36.439-25.711-36.733-34.376c28.949-4.54 27.687-4.902-2.743-0.79c57.269-16.978 69.903-33 20.726-28.524c22.11-28.722-24.836-29.177-75.933-0.736c6.873-15.235 5.634-14.852-2.695 0.833c0.204-34.139-20.309-47.808-37.4-23.544c-37.041-24.264-61.277-3.465-39.2 33.641C91.256 59.252 91.28 60 113.381 71.573c-57.064-17.161-90.211-14.809-58.127 4.979c-59.149 4.458-36.438 25.711 36.733 34.376c-28.951 4.539-27.687 4.901 2.743 0.79c-57.271 16.979-69.904 33.001-20.727 28.524zM 170.708 106.349c-11.831 8.566-39.826 7.668-48.212-1.759c-15.951 0.803-13.185-0.109 6.005-1.97c-12.719-0.071-9.116-1.01 7.801-2.052c-6.493 2.888 1.09 4.387 16.231 3.02 c-3.442 1.367 0.174 1.049 7.831-0.672c-20.26-1.016-32.752-14.005-21.163-22.473c-9.318-6.744-6.407-5.959 6.306 1.705c-6.242-5.732-2.871-4.587 7.335 2.468c-8.084-1.465-6.805 2.682 3.057 8.78c-4.011-0.857-1.664 0.601 5.041 3.171c-8.428-9.582 7.074-21.671 27.049-20.714c6.635-7.545 6.776-5.851 0.298 3.675c6.479-5.661 6.246-3.578-0.465 4.521c-1.588-4.352-7.893-1.706-13.173 5.759c-0.568-2.225-1.837-0.445-2.788 3.843c11.829-8.566 39.826-7.667 48.209 1.758c15.952-0.801 13.185 0.11-6.006 1.971c12.72 0.071 9.115 1.008-7.802 2.052c6.494-2.888-1.091-4.388-16.23-3.021c3.439-1.367-0.175-1.046-7.831 0.672c20.26 1.017 32.752 14.003 21.162 22.473c9.318 6.743 6.411 5.96-6.302-1.705c6.239 5.732 2.868 4.585-7.338-2.469c8.083 1.465 6.804-2.683-3.057-8.779c4.01 0.857 1.665-0.602-5.041-3.17c8.428 9.58-7.074 21.67-27.05 20.714c-6.636 7.544-6.777 5.85-0.299-3.677c-6.479 5.662-6.247 3.579 0.465-4.52c1.59 4.353 7.896 1.706 13.176-5.76 c0.571 2.227 1.839 0.445 2.789-3.843zM 103.298 75.182c3.672 9.327 15.025 21.238 21.81 23.433c0.757 4.886-7.054 6.33-16.826 3.142c-26.646-3.96-42.357-17.523-25.508-22.263c-3.013-7.652 7.488-9.618 20.525-4.312zM 179.106 57.27c-14.297 6.052-28.563 17.092-28.33 21.484c-8.319 2.525-14.647-0.251-13.679-5.966c-7.205-14.172 7.653-27.989 24.527-22.557c10.792-5.433 19.334-1.711 17.482 7.038zM 246.725 81.75c-17.239-2.601-42.86-3.47-50.143-1.947c-8.344-1.686-6.856-5.907 3.152-9.109c20.172-9.536 50.738-9.791 50.034-0.293c14.537 2.895 12.578 8.582-3.044 11.349zM 239.267 124.817c-3.674-9.326-15.027-21.237-21.811-23.432c-0.756-4.885 7.056-6.331 16.83-3.142c26.646 3.96 42.355 17.523 25.509 22.262c3.013 7.653-7.491 9.618-20.528 4.312zM 163.458 142.73c14.298-6.054 28.567-17.094 28.333-21.485c8.319-2.526 14.643 0.25 13.676 5.965c7.206 14.173-7.65 27.991-24.526 22.558c-10.793 5.434-19.335 1.712-17.483-7.037z M 95.839 118.249c17.24 2.601 42.862 3.471 50.143 1.948c8.345 1.686 6.858 5.906-3.153 9.108c-20.17 9.534-50.735 9.791-50.035 0.293c-14.537-2.896-12.576-8.582 3.045-11.35z" style="fill:url(#gradient1);;"/>

	<path d="M230.127 57.653c0 3.038-2.463 5.5-5.5 5.5c-3.038 0-5.5-2.462-5.5-5.5s2.462-5.5 5.5-5.5c3.037 0 5.5 2.462 5.5 5.5z" style="fill:#00FF00;;"/>

</g>

<!-- gradient_star_16 -->

<g id="gradient_star_17" style="visibility:hidden">

	<path d="M78.635 138.327c-30.857 33.014 17.707 33.485 72.316 0.702c-8.861 19.126-7.581 18.727 2.568-0.794c-1.745 38.611 19.477 52.752 35.621 22.424c39.854 30.328 64.927 8.812 37.333-32.039c27.594 13.532 27.568 12.759-0.045-1.548c63.784 20.087 98.076 17.653 55.36-4.741c70.716-2.687 47.221-24.673-34.984-32.74c36.456-5.593 35.149-5.968-2.612-0.752c65.527-18.525 78.598-35.1 19.738-27.167c30.858-33.015-17.707-33.486-72.316-0.701c8.861-19.125 7.579-18.728-2.567 0.793c1.742-38.611-19.479-52.752-35.62-22.423c-39.857-30.329-64.929-8.813-37.333 32.039c-27.596-13.532-27.571-12.759 0.045 1.546C52.353 52.84 18.063 55.274 60.778 77.668c-70.713 2.687-47.219 24.673 34.984 32.74c-36.458 5.593-35.15 5.968 2.613 0.753c-65.53 18.526-78.599 35.101-19.74 27.166zM 170.735 106.046c-12.286 9.383-41.247 8.453-45.917-1.675c-20.505 1.207-17.644 0.264 5.719-1.876c-16.669 0.142-12.942-0.829 7.43-1.954c-9.589 3.034-1.744 4.584 15.459 2.875 c-5.1 1.709-1.359 1.379 7.458-0.64c-21.855-0.811-34.778-14.249-20.155-21.403c-12.273-8.582-9.262-7.771 6.005 1.624c-8.573-7.395-5.085-6.21 6.986 2.351c-9.876-2.778-8.553 1.512 2.912 8.362c-5.412-1.428-2.983 0.08 4.801 3.02c-9.568-10.194 6.469-22.7 25.761-19.728c8.234-9.787 8.381-8.034 0.283 3.5c8.098-7.537 7.857-5.382-0.442 4.305c-0.286-5.812-6.808-3.074-12.546 5.485c-0.312-3.139-1.624-1.297-2.655 3.66c12.284-9.383 41.246-8.453 45.914 1.674c20.508-1.206 17.645-0.263-5.72 1.877c16.671-0.142 12.941 0.828-7.43 1.954c9.589-3.034 1.742-4.585-15.458-2.876c5.097-1.709 1.357-1.377-7.458 0.64c21.854 0.813 34.777 14.246 20.154 21.402c12.273 8.581 9.266 7.771-6.002-1.623c8.571 7.396 5.084 6.208-6.988-2.352c9.876 2.777 8.552-1.513-2.911-8.361c5.411 1.429 2.985-0.081-4.802-3.019c9.568 10.191-6.469 22.698-25.761 19.728c-8.236 9.786-8.382 8.033-0.285-3.502c-8.098 7.538-7.858 5.383 0.442-4.305c0.287 5.812 6.81 3.074 12.549-5.485 c0.314 3.14 1.626 1.298 2.656-3.66zM 103.288 75.814c3.816 8.558 15.561 20.879 20.771 22.317c2.591 5.887-5.49 7.381-16.025 2.992C80.895 98.117 64.643 84.087 83.74 79.92c-4.784-8.653 6.078-10.686 19.547-4.106zM 178.106 57.614c-13.066 5.667-27.824 17.088-26.981 20.461c-9.207 3.783-15.753 0.911-13.028-5.682c-9.177-13.979 6.193-28.273 23.359-21.482c11.454-6.791 20.291-2.941 16.65 6.703zM 245.644 81.377c-15.97-2.046-42.474-2.946-47.756-1.854c-10.883-1.261-9.345-5.627 3.003-8.676c18.874-10.129 50.494-10.392 47.652-0.279c17.151 2.707 15.126 8.59-2.899 10.809zM 239.277 124.186c-3.817-8.558-15.563-20.88-20.771-22.317c-2.59-5.886 5.49-7.381 16.028-2.992c27.138 3.005 43.39 17.037 24.294 21.203c4.784 8.653-6.081 10.687-19.551 4.106zM 164.458 142.387c13.067-5.669 27.828-17.09 26.984-20.463c9.209-3.784 15.75-0.912 13.025 5.682c9.178 13.979-6.189 28.274-23.358 21.483c-11.454 6.791-20.291 2.941-16.651-6.702 zM 96.921 118.622c15.97 2.048 42.475 2.947 47.755 1.855c10.884 1.261 9.347 5.627-3.002 8.675c-18.873 10.128-50.491 10.393-47.652 0.279c-17.153-2.708-15.124-8.59 2.9-10.81z" style="fill:url(#gradient1);;"/>

	<path d="M242.173 57.653c0 3.038-2.463 5.5-5.5 5.5s-5.5-2.462-5.5-5.5s2.463-5.5 5.5-5.5s5.5 2.462 5.5 5.5z" style="fill:#00FF00;;"/>

</g>

<!-- gradient_star_17 -->

<g id="gradient_star_18" style="visibility:hidden">

	<path d="M83.268 136.41c-39.608 37.31 10.575 37.797 68.7 0.667c-10.852 23.018-9.528 22.604 2.439-0.754c-3.283 43.086 18.646 57.698 33.84 21.302c42.671 36.396 68.579 14.162 35.466-30.436c33.113 16.368 33.087 15.569-0.043-1.471c70.507 23.014 105.942 20.498 52.592-4.504c82.284-0.916 58.006-23.635-33.234-31.104c43.966-6.647 42.616-7.034-2.482-0.714c73.789-20.073 87.295-37.201 18.752-25.808c39.608-37.311-10.575-37.798-68.7-0.666c10.851-23.016 9.526-22.605-2.439 0.753c3.281-43.085-18.647-57.698-33.838-21.302c-42.674-36.396-68.582-14.163-35.467 30.436c-33.115-16.369-33.091-15.57 0.043 1.469C48.387 51.268 12.955 53.783 66.305 78.786C-15.977 79.7 8.3 102.42 99.539 109.888c-43.969 6.646-42.617 7.034 2.482 0.715c-73.792 20.074-87.296 37.202-18.753 25.808zM 170.762 105.744c-12.741 10.199-42.667 9.238-43.62-1.592c-25.062 1.611-22.105 0.637 5.433-1.781c-20.622 0.354-16.77-0.649 7.059-1.856c-12.686 3.18-4.58 4.782 14.686 2.731 c-6.758 2.051-2.893 1.71 7.084-0.607c-23.451-0.606-36.804-14.492-19.147-20.333c-15.229-10.42-12.117-9.582 5.705 1.542c-10.905-9.059-7.302-7.834 6.637 2.233c-11.67-4.092-10.302 0.341 2.766 7.943c-6.813-2-4.304-0.442 4.561 2.869c-10.708-10.807 5.864-23.73 24.473-18.741c9.835-12.03 9.986-10.219 0.27 3.325c9.717-9.413 9.469-7.187-0.421 4.09c1.018-7.271-5.721-4.443-11.919 5.21c-0.054-4.052-1.41-2.149-2.521 3.477c12.74-10.199 42.667-9.238 43.618 1.591c25.063-1.611 22.105-0.637-5.434 1.783c20.622-0.354 16.769 0.647-7.059 1.856c12.686-3.181 4.577-4.784-14.686-2.733c6.756-2.051 2.892-1.708-7.085 0.608c23.45 0.608 36.804 14.49 19.146 20.332c15.229 10.42 12.121 9.583-5.701-1.542c10.903 9.06 7.299 7.832-6.639-2.233c11.669 4.091 10.3-0.342-2.766-7.943c6.813 2.001 4.306 0.44-4.562-2.868c10.708 10.805-5.863 23.728-24.473 18.741c-9.837 12.029-9.988 10.218-0.271-3.326c-9.718 9.414-9.47 7.187 0.42-4.09c-1.017 7.271 5.724 4.443 11.921-5.211 c0.058 4.054 1.414 2.15 2.523-3.477zM 103.277 76.447c3.96 7.789 16.097 20.521 19.733 21.201c4.426 6.889-3.925 8.433-15.224 2.843c-27.631-2.052-44.426-16.55-23.079-20.143c-6.556-9.654 4.668-11.755 18.57-3.9zM 177.106 57.958c-11.834 5.283-27.084 17.084-25.632 19.438c-10.096 5.041-16.86 2.073-12.376-5.397c-11.15-13.787 4.732-28.558 22.191-20.408c12.114-8.149 21.247-4.171 15.817 6.368zM 244.562 81.004c-14.699-1.493-42.087-2.423-45.367-1.761c-13.424-0.835-11.834-5.347 2.853-8.242c17.576-10.722 50.251-10.994 45.27-0.265c19.768 2.518 17.674 8.598-2.755 10.268zM 239.288 123.553c-3.963-7.788-16.099-20.521-19.733-21.201c-4.424-6.888 3.925-8.433 15.228-2.842c27.63 2.051 44.423 16.549 23.079 20.142c6.556 9.654-4.672 11.755-18.573 3.901zM 165.458 142.042c11.835-5.284 27.088-17.086 25.635-19.438c10.097-5.043 16.856-2.075 12.373 5.396c11.152 13.788-4.729 28.56-22.19 20.409c-12.115 8.15-21.246 4.172-15.817-6.367 zM 98.002 118.995c14.7 1.494 42.088 2.424 45.367 1.763c13.425 0.835 11.836 5.348-2.852 8.241c-17.575 10.721-50.248 10.994-45.27 0.265c-19.769-2.52-17.672-8.597 2.755-10.269z" style="fill:url(#gradient1);;"/>

	<path d="M254.22 57.653c0 3.038-2.462 5.5-5.5 5.5c-3.037 0-5.5-2.462-5.5-5.5s2.463-5.5 5.5-5.5c3.038 0 5.5 2.462 5.5 5.5z" style="fill:#00FF00;;"/>

</g>

<!-- gradient_star_18 -->

<g id="gradient_star_19" style="visibility:hidden">

	<path d="M78.635 138.327c-30.857 33.014 17.707 33.485 72.316 0.702c-8.861 19.126-7.581 18.727 2.568-0.794c-1.745 38.611 19.477 52.752 35.621 22.424c39.854 30.328 64.927 8.812 37.333-32.039c27.594 13.532 27.568 12.759-0.045-1.548c63.784 20.087 98.076 17.653 55.36-4.741c70.716-2.687 47.221-24.673-34.984-32.74c36.456-5.593 35.149-5.968-2.612-0.752c65.527-18.525 78.598-35.1 19.738-27.167c30.858-33.015-17.707-33.486-72.316-0.701c8.861-19.125 7.579-18.728-2.567 0.793c1.742-38.611-19.479-52.752-35.62-22.423c-39.857-30.329-64.929-8.813-37.333 32.039c-27.596-13.532-27.571-12.759 0.045 1.546C52.353 52.84 18.063 55.274 60.778 77.668c-70.713 2.687-47.219 24.673 34.984 32.74c-36.458 5.593-35.15 5.968 2.613 0.753c-65.53 18.526-78.599 35.101-19.74 27.166zM 170.735 106.046c-12.286 9.383-41.247 8.453-45.917-1.675c-20.505 1.207-17.644 0.264 5.719-1.876c-16.669 0.142-12.942-0.829 7.43-1.954c-9.589 3.034-1.744 4.584 15.459 2.875 c-5.1 1.709-1.359 1.379 7.458-0.64c-21.855-0.811-34.778-14.249-20.155-21.403c-12.273-8.582-9.262-7.771 6.005 1.624c-8.573-7.395-5.085-6.21 6.986 2.351c-9.876-2.778-8.553 1.512 2.912 8.362c-5.412-1.428-2.983 0.08 4.801 3.02c-9.568-10.194 6.469-22.7 25.761-19.728c8.234-9.787 8.381-8.034 0.283 3.5c8.098-7.537 7.857-5.382-0.442 4.305c-0.286-5.812-6.808-3.074-12.546 5.485c-0.312-3.139-1.624-1.297-2.655 3.66c12.284-9.383 41.246-8.453 45.914 1.674c20.508-1.206 17.645-0.263-5.72 1.877c16.671-0.142 12.941 0.828-7.43 1.954c9.589-3.034 1.742-4.585-15.458-2.876c5.097-1.709 1.357-1.377-7.458 0.64c21.854 0.813 34.777 14.246 20.154 21.402c12.273 8.581 9.266 7.771-6.002-1.623c8.571 7.396 5.084 6.208-6.988-2.352c9.876 2.777 8.552-1.513-2.911-8.361c5.411 1.429 2.985-0.081-4.802-3.019c9.568 10.191-6.469 22.698-25.761 19.728c-8.236 9.786-8.382 8.033-0.285-3.502c-8.098 7.538-7.858 5.383 0.442-4.305c0.287 5.812 6.81 3.074 12.549-5.485 c0.314 3.14 1.626 1.298 2.656-3.66zM 103.288 75.814c3.816 8.558 15.561 20.879 20.771 22.317c2.591 5.887-5.49 7.381-16.025 2.992C80.895 98.117 64.643 84.087 83.74 79.92c-4.784-8.653 6.078-10.686 19.547-4.106zM 178.106 57.614c-13.066 5.667-27.824 17.088-26.981 20.461c-9.207 3.783-15.753 0.911-13.028-5.682c-9.177-13.979 6.193-28.273 23.359-21.482c11.454-6.791 20.291-2.941 16.65 6.703zM 245.644 81.377c-15.97-2.046-42.474-2.946-47.756-1.854c-10.883-1.261-9.345-5.627 3.003-8.676c18.874-10.129 50.494-10.392 47.652-0.279c17.151 2.707 15.126 8.59-2.899 10.809zM 239.277 124.186c-3.817-8.558-15.563-20.88-20.771-22.317c-2.59-5.886 5.49-7.381 16.028-2.992c27.138 3.005 43.39 17.037 24.294 21.203c4.784 8.653-6.081 10.687-19.551 4.106zM 164.458 142.387c13.067-5.669 27.828-17.09 26.984-20.463c9.209-3.784 15.75-0.912 13.025 5.682c9.178 13.979-6.189 28.274-23.358 21.483c-11.454 6.791-20.291 2.941-16.651-6.702 zM 96.921 118.622c15.97 2.048 42.475 2.947 47.755 1.855c10.884 1.261 9.347 5.627-3.002 8.675c-18.873 10.128-50.491 10.393-47.652 0.279c-17.153-2.708-15.124-8.59 2.9-10.81z" style="fill:url(#gradient1);;"/>

	<path d="M266.266 57.653c0 3.038-2.463 5.5-5.5 5.5s-5.5-2.462-5.5-5.5s2.463-5.5 5.5-5.5s5.5 2.462 5.5 5.5z" style="fill:#00FF00;;"/>

</g>

<!-- gradient_star_19 -->

<g id="gradient_star_20" style="visibility:hidden">

	<path d="M74.003 140.243c-22.109 28.721 24.836 29.176 75.932 0.737c-6.872 15.236-5.634 14.851 2.696-0.834c-0.207 34.139 20.308 47.809 37.402 23.545c37.039 24.264 61.275 3.464 39.199-33.641c22.076 10.696 22.051 9.949-0.048-1.625c57.064 17.162 90.214 14.81 58.129-4.979c59.151-4.458 36.439-25.711-36.733-34.376c28.949-4.54 27.687-4.902-2.743-0.79c57.269-16.978 69.903-33 20.726-28.524c22.11-28.722-24.836-29.177-75.933-0.736c6.873-15.235 5.634-14.852-2.695 0.833c0.204-34.139-20.309-47.808-37.4-23.544c-37.041-24.264-61.277-3.465-39.2 33.641C91.256 59.252 91.28 60 113.381 71.573c-57.064-17.161-90.211-14.809-58.127 4.979c-59.149 4.458-36.438 25.711 36.733 34.376c-28.951 4.539-27.687 4.901 2.743 0.79c-57.271 16.979-69.904 33.001-20.727 28.524zM 170.708 106.349c-11.831 8.566-39.826 7.668-48.212-1.759c-15.951 0.803-13.185-0.109 6.005-1.97c-12.719-0.071-9.116-1.01 7.801-2.052c-6.493 2.888 1.09 4.387 16.231 3.02 c-3.442 1.367 0.174 1.049 7.831-0.672c-20.26-1.016-32.752-14.005-21.163-22.473c-9.318-6.744-6.407-5.959 6.306 1.705c-6.242-5.732-2.871-4.587 7.335 2.468c-8.084-1.465-6.805 2.682 3.057 8.78c-4.011-0.857-1.664 0.601 5.041 3.171c-8.428-9.582 7.074-21.671 27.049-20.714c6.635-7.545 6.776-5.851 0.298 3.675c6.479-5.661 6.246-3.578-0.465 4.521c-1.588-4.352-7.893-1.706-13.173 5.759c-0.568-2.225-1.837-0.445-2.788 3.843c11.829-8.566 39.826-7.667 48.209 1.758c15.952-0.801 13.185 0.11-6.006 1.971c12.72 0.071 9.115 1.008-7.802 2.052c6.494-2.888-1.091-4.388-16.23-3.021c3.439-1.367-0.175-1.046-7.831 0.672c20.26 1.017 32.752 14.003 21.162 22.473c9.318 6.743 6.411 5.96-6.302-1.705c6.239 5.732 2.868 4.585-7.338-2.469c8.083 1.465 6.804-2.683-3.057-8.779c4.01 0.857 1.665-0.602-5.041-3.17c8.428 9.58-7.074 21.67-27.05 20.714c-6.636 7.544-6.777 5.85-0.299-3.677c-6.479 5.662-6.247 3.579 0.465-4.52c1.59 4.353 7.896 1.706 13.176-5.76 c0.571 2.227 1.839 0.445 2.789-3.843zM 103.298 75.182c3.672 9.327 15.025 21.238 21.81 23.433c0.757 4.886-7.054 6.33-16.826 3.142c-26.646-3.96-42.357-17.523-25.508-22.263c-3.013-7.652 7.488-9.618 20.525-4.312zM 179.106 57.27c-14.297 6.052-28.563 17.092-28.33 21.484c-8.319 2.525-14.647-0.251-13.679-5.966c-7.205-14.172 7.653-27.989 24.527-22.557c10.792-5.433 19.334-1.711 17.482 7.038zM 246.725 81.75c-17.239-2.601-42.86-3.47-50.143-1.947c-8.344-1.686-6.856-5.907 3.152-9.109c20.172-9.536 50.738-9.791 50.034-0.293c14.537 2.895 12.578 8.582-3.044 11.349zM 239.267 124.817c-3.674-9.326-15.027-21.237-21.811-23.432c-0.756-4.885 7.056-6.331 16.83-3.142c26.646 3.96 42.355 17.523 25.509 22.262c3.013 7.653-7.491 9.618-20.528 4.312zM 163.458 142.73c14.298-6.054 28.567-17.094 28.333-21.485c8.319-2.526 14.643 0.25 13.676 5.965c7.206 14.173-7.65 27.991-24.526 22.558c-10.793 5.434-19.335 1.712-17.483-7.037z M 95.839 118.249c17.24 2.601 42.862 3.471 50.143 1.948c8.345 1.686 6.858 5.906-3.153 9.108c-20.17 9.534-50.735 9.791-50.035 0.293c-14.537-2.896-12.576-8.582 3.045-11.35z" style="fill:url(#gradient1);;"/>

	<path d="M278.312 57.653c0 3.038-2.462 5.5-5.5 5.5c-3.037 0-5.5-2.462-5.5-5.5s2.463-5.5 5.5-5.5c3.038 0 5.5 2.462 5.5 5.5z" style="fill:#00FF00;;"/>

</g>

<!-- gradient_star_20 -->

<g id="gradient_star_21" style="visibility:hidden">

	<path d="M69.37 142.159c-13.358 24.426 31.968 24.865 79.548 0.772c-4.882 11.347-3.686 10.974 2.824-0.873c1.333 29.665 21.139 42.863 39.183 24.666c34.222 18.197 57.623-1.885 41.066-35.242c16.557 7.859 16.532 7.138-0.05-1.702c50.342 14.235 82.348 11.964 60.897-5.216c47.583-6.23 25.654-26.75-38.482-36.015c21.438-3.485 20.219-3.835-2.874-0.827c49.007-15.43 61.206-30.9 21.712-29.883c13.359-24.427-31.968-24.866-79.548-0.771c4.882-11.345 3.686-10.974-2.824 0.873c-1.335-29.665-21.14-42.863-39.182-24.666c-34.224-18.197-57.624 1.885-41.067 35.243c-16.557-7.86-16.534-7.139 0.049 1.701c-50.341-14.235-82.344-11.963-60.895 5.217c-47.581 6.229-25.653 26.75 38.482 36.014c-21.441 3.484-20.22 3.835 2.874 0.828c-49.009 15.431-61.207 30.9-21.714 29.882zM 170.68 106.65c-11.375 7.75-38.405 6.883-50.508-1.842c-11.394 0.397-8.724-0.482 6.291-2.063c-8.767-0.284-5.289-1.189 8.173-2.149c-3.397 2.741 3.925 4.188 17.004 3.163 c-1.783 1.025 1.708 0.718 8.204-0.704c-18.665-1.22-30.726-13.761-22.171-23.542c-6.362-4.905-3.552-4.148 6.605 1.786c-3.91-4.068-0.655-2.963 7.685 2.586c-6.291-0.152-5.055 3.853 3.203 9.198c-2.609-0.285-0.343 1.123 5.281 3.322c-7.288-8.969 7.679-20.642 28.337-21.701c5.033-5.301 5.17-3.666 0.313 3.851c4.857-3.785 4.634-1.773-0.487 4.736c-2.892-2.892-8.979-0.337-13.801 6.033c-0.825-1.312-2.05 0.408-2.92 4.026c11.374-7.75 38.405-6.881 50.505 1.841c11.396-0.396 8.725 0.483-6.291 2.065c8.768 0.283 5.287 1.188-8.174 2.149c3.397-2.741-3.926-4.189-17.004-3.164c1.781-1.025-1.708-0.716-8.203 0.704c18.664 1.222 30.726 13.759 22.169 23.542c6.363 4.905 3.556 4.149-6.602-1.785c3.908 4.068 0.652 2.961-7.688-2.587c6.291 0.15 5.055-3.854-3.201-9.197c2.607 0.285 0.344-1.123-5.282-3.32c7.288 8.967-7.68 20.64-28.337 21.7c-5.036 5.301-5.172 3.664-0.313-3.852c-4.858 3.785-4.635 1.773 0.487-4.735c2.894 2.893 8.981 0.337 13.803-6.034 c0.828 1.313 2.053-0.406 2.922-4.026zM 103.308 74.549c3.528 10.097 14.49 21.597 22.849 24.549c-1.078 3.884-8.62 5.278-17.628 3.291c-26.154-4.915-41.323-18.009-26.723-23.323c-1.241-6.651 8.897-8.549 21.502-4.517zM 180.106 56.926c-15.528 6.437-29.302 17.096-29.679 22.508c-7.43 1.267-13.54-1.414-14.331-6.25c-5.231-14.364 9.114-27.705 25.695-23.631c10.131-4.074 18.379-0.481 18.314 7.373zM 247.807 82.124c-18.51-3.154-43.247-3.994-52.531-2.039c-5.804-2.112-4.367-6.187 3.303-9.543c21.47-8.943 50.982-9.188 52.418-0.308c11.92 3.083 10.028 8.575-3.189 11.89zM 239.256 125.45c-3.529-10.095-14.49-21.596-22.849-24.548c1.079-3.883 8.62-5.279 17.632-3.292c26.152 4.915 41.32 18.01 26.723 23.323c1.241 6.651-8.9 8.55-21.506 4.517zM 162.458 143.074c15.53-6.438 29.307-17.097 29.683-22.509c7.432-1.268 13.536 1.413 14.327 6.25c5.232 14.364-9.11 27.706-25.694 23.632c-10.131 4.074-18.378 0.481-18.315-7.373zM 94.758 117.875 c18.51 3.155 43.248 3.995 52.53 2.041c5.804 2.112 4.37 6.188-3.302 9.543c-21.469 8.941-50.979 9.188-52.418 0.307c-11.921-3.085-10.027-8.574 3.19-11.891z" style="fill:url(#gradient1);;"/>

	<path d="M290.358 57.653c0 3.038-2.462 5.5-5.5 5.5s-5.5-2.462-5.5-5.5s2.462-5.5 5.5-5.5s5.5 2.462 5.5 5.5z" style="fill:#00FF00;;"/>

</g>

<!-- gradient_star_21 -->

<g id="gradient_star_22" style="visibility:hidden">

	<path d="M64.738 144.075c-4.61 20.132 39.098 20.557 83.164 0.808c-2.892 7.457-1.739 7.098 2.953-0.912c2.871 25.191 21.971 37.919 40.965 25.786c31.405 12.133 53.97-7.232 42.933-36.844c11.037 5.024 11.015 4.328-0.053-1.779c43.621 11.311 74.484 9.119 63.665-5.453c36.02-8.001 14.874-27.789-40.231-37.651c13.931-2.432 12.755-2.769-3.005-0.865c40.749-13.882 52.512-28.8 22.699-31.241c4.611-20.133-39.097-20.557-83.164-0.807c2.894-7.456 1.739-7.098-2.952 0.913c-2.872-25.192-21.971-37.919-40.963-25.787c-31.407-12.132-53.972 7.233-42.934 36.844c-11.038-5.024-11.017-4.329 0.052 1.778c-43.621-11.31-74.481-9.119-63.663 5.454c-36.017 8-14.872 27.788 40.231 37.65c-13.933 2.431-12.756 2.769 3.004 0.865c-40.75 13.884-52.512 28.801-22.701 31.24zM 170.652 106.953c-10.919 6.933-36.985 6.097-52.803-1.927c-6.839-0.006-4.264-0.855 6.577-2.156c-4.816-0.497-1.462-1.37 8.544-2.248c-0.301 2.595 6.759 3.991 17.777 3.307c-0.125 0.684 3.241 0.387 8.576-0.735 c-17.07-1.425-28.7-13.518-23.178-24.613c-3.408-3.067-0.697-2.337 6.906 1.867c-1.579-2.405 1.56-1.339 8.034 2.704c-4.499 1.162-3.307 5.023 3.348 9.616c-1.208 0.287 0.978 1.644 5.521 3.473c-6.148-8.357 8.285-19.613 29.626-22.687c3.433-3.059 3.564-1.482 0.326 4.025c3.238-1.909 3.022 0.03-0.51 4.951c-4.194-1.433-10.063 1.031-14.428 6.308c-1.081-0.398-2.263 1.26-3.053 4.209c10.918-6.933 36.984-6.096 52.801 1.926c6.841 0.007 4.265 0.856-6.577 2.159c4.817 0.496 1.461 1.369-8.545 2.247c0.302-2.595-6.761-3.992-17.777-3.308c0.124-0.684-3.241-0.385-8.576 0.736c17.069 1.426 28.7 13.516 23.177 24.613c3.409 3.066 0.701 2.338-6.901-1.867c1.576 2.406-1.563 1.337-8.036-2.704c4.497-1.162 3.306-5.023-3.348-9.615c1.207-0.286-0.977-1.645-5.522-3.472c6.149 8.355-8.284 19.611-29.625 22.687c-3.436 3.059-3.567 1.48-0.328-4.026c-3.239 1.91-3.023-0.03 0.509-4.951c4.196 1.434 10.067-1.03 14.431-6.308c1.084 0.399 2.266-1.259 3.055-4.209 zM 103.318 73.917c3.384 10.866 13.954 21.955 23.887 25.664c-2.911 2.883-10.185 4.228-18.429 3.441c-25.663-5.869-40.29-18.496-27.938-24.383c0.53-5.651 10.306-7.48 22.479-4.722zM 181.107 56.582c-16.761 6.821-30.043 17.099-31.028 23.53c-6.542 0.009-12.434-2.576-14.982-6.534c-3.258-14.557 10.574-27.421 26.863-24.705c9.469-2.717 17.423 0.748 19.147 7.708zM 248.888 82.497c-19.78-3.708-43.634-4.518-54.919-2.132c-3.264-2.537-1.879-6.467 3.453-9.977c22.768-8.35 51.227-8.586 54.8-0.321c9.305 3.272 7.481 8.567-3.334 12.43zM 239.247 126.083c-3.386-10.864-13.955-21.954-23.888-25.664c2.913-2.882 10.186-4.228 18.434-3.441c25.66 5.868 40.286 18.496 27.938 24.383c-0.531 5.65-10.31 7.48-22.483 4.722zM 161.458 143.418c16.761-6.821 30.046-17.101 31.031-23.531c6.543-0.011 12.431 2.574 14.979 6.533c3.26 14.558-10.571 27.423-26.862 24.706c-9.47 2.717-17.422-0.748-19.147-7.708zM 93.677 117.502c19.78 3.709 43.634 4.52 54.917 2.134 c3.265 2.537 1.881 6.467-3.453 9.977c-22.767 8.349-51.223 8.587-54.8 0.32c-9.306-3.273-7.479-8.566 3.335-12.431z" style="fill:url(#gradient1);;"/>

	<path d="M302.405 57.653c0 3.038-2.463 5.5-5.5 5.5c-3.038 0-5.5-2.462-5.5-5.5s2.462-5.5 5.5-5.5c3.037 0 5.5 2.462 5.5 5.5z" style="fill:#00FF00;;"/>

</g>

<!-- gradient_star_22 -->

<g id="gradient_star_23" style="visibility:hidden">

	<path d="M60.104 145.992c4.141 15.837 46.23 16.245 86.78 0.843c-0.902 3.566 0.208 3.22 3.081-0.952c4.41 20.718 22.801 32.973 42.746 26.908c28.589 6.064 50.317-12.583 44.8-38.446c5.518 2.188 5.495 1.517-0.055-1.857c36.898 8.384 66.618 6.274 66.434-5.689c24.451-9.773 4.089-28.828-41.981-39.289c6.422-1.377 5.289-1.703-3.135-0.903c32.486-12.334 43.814-26.7 23.686-32.6c-4.139-15.837-46.228-16.246-86.78-0.841c0.903-3.565-0.208-3.221-3.08 0.952c-4.411-20.718-22.802-32.973-42.745-26.909c-28.589-6.064-50.319 12.583-44.8 38.447c-5.519-2.188-5.498-1.518 0.054 1.855c-36.897-8.383-66.615-6.274-66.431 5.691c-24.448 9.772-4.087 28.827 41.981 39.288c-6.423 1.377-5.289 1.702 3.135 0.903c-32.489 12.335-43.815 26.7-23.688 32.599zM 170.625 107.256c-10.464 6.116-35.564 5.311-55.1-2.011c-2.283-0.411 0.197-1.229 6.863-2.251c-0.865-0.709 2.365-1.55 8.916-2.344c2.795 2.449 9.594 3.792 18.55 3.451c1.533 0.342 4.774 0.057 8.949-0.768 c-15.475-1.629-26.674-13.274-24.187-25.684c-0.451-1.229 2.158-0.526 7.206 1.949c0.753-0.742 3.776 0.285 8.384 2.821c-2.705 2.476-1.558 6.194 3.494 10.034c0.194 0.858 2.298 2.166 5.762 3.624c-5.008-7.745 8.89-18.584 30.914-23.673c1.832-0.816 1.959 0.703 0.34 4.2c1.619-0.033 1.411 1.835-0.531 5.166c-5.498 0.027-11.15 2.4-15.056 6.582c-1.338 0.516-2.476 2.112-3.186 4.392c10.463-6.116 35.563-5.31 55.097 2.009c2.285 0.412-0.196 1.229-6.863 2.252c0.865 0.709-2.366 1.549-8.916 2.345c-2.795-2.449-9.596-3.793-18.55-3.452c-1.535-0.342-4.775-0.054-8.949 0.768c15.474 1.63 26.674 13.272 24.185 25.684c0.453 1.228-2.154 0.526-7.202-1.948c-0.756 0.742-3.778-0.287-8.386-2.822c2.704-2.476 1.557-6.194-3.493-10.033c-0.194-0.858-2.297-2.166-5.762-3.622c5.009 7.742-8.891 18.581-30.914 23.673c-1.834 0.815-1.961-0.704-0.342-4.202c-1.619 0.034-1.412-1.834 0.531-5.166c5.5-0.026 11.153-2.399 15.058-6.582c1.341-0.515 2.478-2.11 3.188-4.392 zM 103.328 73.284c3.239 11.635 13.418 22.313 24.926 26.78c-4.746 1.881-11.75 3.176-19.23 3.59c-25.17-6.823-39.256-18.983-29.153-25.444c2.302-4.649 11.716-6.412 23.457-4.927zM 182.107 56.238c-17.992 7.205-30.782 17.103-32.377 24.554c-5.654-1.249-11.327-3.738-15.633-6.818c-1.285-14.749 12.035-27.137 28.031-25.779c8.808-1.358 16.467 1.978 19.979 8.043zM 249.97 82.87c-21.051-4.262-44.021-5.042-57.308-2.225c-0.723-2.963 0.61-6.747 3.604-10.411c24.065-7.757 51.47-7.985 57.183-0.335c6.688 3.46 4.933 8.56-3.479 12.971zM 239.236 126.716c-3.24-11.634-13.419-22.313-24.926-26.78c4.748-1.88 11.751-3.176 19.234-3.59c25.168 6.823 39.253 18.983 29.153 25.442c-2.303 4.65-11.72 6.412-23.462 4.928zM 160.457 143.763c17.993-7.207 30.786-17.104 32.381-24.556c5.653 1.248 11.323 3.737 15.63 6.817c1.286 14.75-12.033 27.139-28.03 25.781c-8.809 1.357-16.467-1.979-19.981-8.043zM 92.595 117.129c21.051 4.263 44.021 5.043 57.306 2.227 c0.724 2.963-0.608 6.747-3.603 10.41c-24.065 7.755-51.467 7.984-57.184 0.335c-6.689-3.462-4.931-8.56 3.48-12.972z" style="fill:url(#gradient1);;"/>

	<path d="M314.451 57.653c0 3.038-2.462 5.5-5.5 5.5s-5.5-2.462-5.5-5.5s2.462-5.5 5.5-5.5s5.5 2.462 5.5 5.5z" style="fill:#00FF00;;"/>

</g>

<!-- gradient_star_23 -->

<g id="SVG">

	<g style="fill:none;stroke:#0000FF;stroke-width:0.25;stroke-miterlimit:4;font-family:Helvetica-BoldOblique">

		<text transform="matrix(1.048 0 0 1 34.534 111.279)">.</text>

		<text transform="matrix(1.048 0 0 1 56.371 111.279)">&#187;</text>

		<text transform="matrix(1.048 0 0 1 87.16 111.279)">S</text>

		<text transform="matrix(1.048 0 0 1 121.524 111.279)">&#187;</text>

		<text transform="matrix(1.048 0 0 1 152.314 111.279)">V</text>

		<text transform="matrix(1.048 0 0 1 186.678 111.279)">&#171;</text>

		<text transform="matrix(1.048 0 0 1 217.467 111.279)">G</text>

		<text transform="matrix(1.048 0 0 1 255.407 111.279)">&#187;</text>

		<text transform="matrix(1.048 0 0 1 286.197 111.279)">.</text>

	</g>

	<g style="font-size:5px;font-family:Helvetica;">

		<text x="224.893" y="131.688">&lt;g id="SVG" style="fill-opacity:0.5;"></text>

	</g>

</g>

<!-- SVG -->

<g id="coordinates">

	<path d="M321.034 0.25h-299.5v199.5h299.5V0.25z" style="fill:none;stroke:#0000FF;stroke-width:0.25;stroke-miterlimit:4;;"/>

	<path d="M121.284 0.25v199.5" style="fill:none;stroke:#0000FF;stroke-width:0.25;stroke-miterlimit:4;;"/>

	<path d="M221.284 0.25v199.5" style="fill:none;stroke:#0000FF;stroke-width:0.25;stroke-miterlimit:4;;"/>

	<path d="M21.534 75h299.5" style="fill:none;stroke:#0000FF;stroke-width:0.25;stroke-miterlimit:4;;"/>

	<path d="M21.534 125h299.5" style="fill:none;stroke:#0000FF;stroke-width:0.25;stroke-miterlimit:4;;"/>

	<g style="font-size:8px;font-family:Helvetica;">

		<text x="282.726" y="195.854">(300,200)</text>

	</g>

	<path d="M317.284 200h4v-4" style="fill:#FF0000;;"/>

	<g style="font-size:8px;font-family:Helvetica;">

		<text x="23.893" y="9.688">(0,0)</text>

	</g>

	<path d="M25.284 0h-4v4" style="fill:#FF0000;;"/>

	<g style="font-size:5px;font-family:Helvetica;">

		<text x="197.977" y="121.605">(200,125)</text>

	</g>

	<path d="M217.284 125h4v-4" style="fill:#FF0000;;"/>

	<g style="font-size:5px;font-family:Helvetica;">

		<text x="123.644" y="80.938">(100,75)</text>

	</g>

	<path d="M125.284 75h-4v4" style="fill:#FF0000;;"/>

	<g style="font-size:5px;font-family:Helvetica;">

		<text x="41.153" y="59.418">01</text>

	</g>

	<g style="font-size:5px;font-family:Helvetica;">

		<text x="29.105" y="59.418">00</text>

	</g>

	<g style="font-size:5px;font-family:Helvetica;">

		<text x="53.201" y="59.418">02</text>

	</g>

	<g style="font-size:5px;font-family:Helvetica;">

		<text x="65.25" y="59.418">03</text>

	</g>

	<g style="font-size:5px;font-family:Helvetica;">

		<text x="77.297" y="59.418">04</text>

	</g>

	<g style="font-size:5px;font-family:Helvetica;">

		<text x="89.346" y="59.418">05</text>

	</g>

	<g style="font-size:5px;font-family:Helvetica;">

		<text x="101.394" y="59.418">06</text>

	</g>

	<g style="font-size:5px;font-family:Helvetica;">

		<text x="113.442" y="59.418">07</text>

	</g>

	<g style="font-size:5px;font-family:Helvetica;">

		<text x="125.49" y="59.418">08</text>

	</g>

	<g style="font-size:5px;font-family:Helvetica;">

		<text x="137.538" y="59.418">09</text>

	</g>

	<g style="font-size:5px;font-family:Helvetica;">

		<text x="149.586" y="59.418">10</text>

	</g>

	<g style="font-size:5px;font-family:Helvetica;">

		<text x="161.634" y="59.418">11</text>

	</g>

	<g style="font-size:5px;font-family:Helvetica;">

		<text x="173.682" y="59.418">12</text>

	</g>

	<g style="font-size:5px;font-family:Helvetica;">

		<text x="185.73" y="59.418">13</text>

	</g>

	<g style="font-size:5px;font-family:Helvetica;">

		<text x="197.778" y="59.418">14</text>

	</g>

	<g style="font-size:5px;font-family:Helvetica;">

		<text x="209.827" y="59.418">15</text>

	</g>

	<g style="font-size:5px;font-family:Helvetica;">

		<text x="221.875" y="59.418">16</text>

	</g>

	<g style="font-size:5px;font-family:Helvetica;">

		<text x="233.922" y="59.418">17</text>

	</g>

	<g style="font-size:5px;font-family:Helvetica;">

		<text x="245.971" y="59.418">18</text>

	</g>

	<g style="font-size:5px;font-family:Helvetica;">

		<text x="258.019" y="59.418">19</text>

	</g>

	<g style="font-size:5px;font-family:Helvetica;">

		<text x="270.067" y="59.418">20</text>

	</g>

	<g style="font-size:5px;font-family:Helvetica;">

		<text x="282.115" y="59.418">21</text>

	</g>

	<g style="font-size:5px;font-family:Helvetica;">

		<text x="294.164" y="59.418">22</text>

	</g>

	<g style="font-size:5px;font-family:Helvetica;">

		<text x="306.211" y="59.418">23</text>

	</g>

</g>

<!-- coordinates -->

<image xlink:href="http://www.google-analytics.com/__utm.gif?utmwv=4.7.1&amp;utmn=21830374&amp;utmhn=svg.kvalitne.cz&amp;utmcs=UTF-8&amp;utmsr=1920x1080&amp;utmsc=24-bit&amp;utmul=en-us&amp;utmje=1&amp;utmfl=10.0%20r45&amp;utmdt=SVG%C2%A0%E2%80%94%C2%A0It%27s%20in%20your%20hands...&amp;utmhid=1377849700&amp;utmr=-&amp;utmp=%2Findex2.htm&amp;utmac=UA-11950721-1&amp;utmcc=__utma%3D251371972.1884550355.1260220320.1272562824.1272576758.56%3B%2B__utmz%3D251371972.1263752798.41.3.utmcsr%3Dgoogle%7Cutmccn%3D(organic)%7Cutmcmd%3Dorganic%7Cutmctr%3Dsvg%2520smil%2520demo%3B" width="1" height="1"/>

</svg>