<svg width="100%" height="450" xmlns="http://www.w3.org/2000/svg" xmlns:xlink="http://www.w3.org/1999/xlink">
  <title>LMC's Good Spirit animation, original</title>
  <desc>by Marek Raida, marek.raida@gmail.com</desc>

<defs>

<path id="wave" d="M25,150 25,100 27.74999724999998,97.25181181491393 30.499994500000014,94.51446945138212 33.24999174999999,91.79877592754167 35.99998900000003,89.11544882362068 38.749986250000006,86.47507798463007 41.499983499999985,83.88808372716681 44.24998075000002,81.3646757152672 46.99997800000003,78.91481266760783 49.749975250000034,76.54816305507125 52.49997250000004,74.27406694378481 55.24996975000005,72.10149913422026 57.99996700000003,70.03903374182761 60.74996425000003,68.09481035898588 63.49996150000004,66.27650193181517 66.24995875000005,64.59128447862406 68.99995600000005,63.045808769500525 71.74995325000006,61.646174078813175 74.49995050000007,60.39790411421012 77.24994775000007,59.305925217111906 79.99994500000008,58.374546920731376 82.74994225000009,57.60744494234913 85.4999395000001,57.00764667696541 88.2499367500001,56.57751924957927 90.99993400000011,56.31876017324612 93.74993125000011,56.23239064978276 96.4999285000001,56.31875153955832 99.2499257500001,56.57750201627681 101.99992300000011,57.00762091206016 104.74992025000011,57.607410747523176 107.49991750000012,58.374504430935815 110.24991475000013,59.30587460003417 112.99991200000013,60.39784556961234 115.74990925000014,61.64610783774367 118.49990650000015,63.04573509338198 121.24990375000016,64.5912036582219 123.99990100000016,66.27641428608996 126.74989825000017,68.09471623383456 129.49989550000018,70.0389335087184 132.24989275000016,72.10139318872669 134.99989000000016,74.27395570402444 137.74988725000017,76.54804696005578 140.49988450000018,78.91469217551031 143.24988175000018,81.36455130161391 145.9998790000002,83.88795588296065 148.7498762500002,86.47494721441271 151.4998735000002,89.11531564348141 154.2498707500002,91.79864086308055 156.99986800000022,94.51433303563584 159.74986525000023,97.25167458625205 162.49986250000023,99.99986250000023 165.24985975000024,102.74805095639704 167.99985700000025,105.48539413281745 170.74985425000023,108.20108900791626 173.49985150000026,110.88441799613255 176.24984875000024,113.52479124501906 178.99984600000025,116.111788428468 181.74984325000025,118.63519987089557 184.49984050000026,121.08506684008651 187.24983775000027,123.45172084968178 189.99983500000027,125.72582181620092 192.74983225000028,127.89839492001079 195.4998295000003,129.96086602476748 198.2498267500003,131.90509551554788 200.99982400000027,133.72341042212676 203.7498212500003,135.4086347006243 206.4998185000003,136.95411755401622 209.24981575000032,138.3537596797388 211.9998130000003,139.60203734080125 214.74981025000034,140.69402416540876 217.49980750000031,141.6254105890622 220.24980475000032,142.3925208624065 222.99980200000033,142.992327557705 225.74979925000034,143.42246351668973 228.49979650000034,143.68123119263495 231.24979375000035,143.76760934978526 233.99979100000036,143.68125709369835 236.74978825000036,143.42251521659705 239.49978550000037,142.99240485242078 242.24978275000035,142.3926234468844 244.99978000000038,141.6255380584489 247.74977725000036,140.6941760166419 250.49977450000037,139.60221297459458 253.24977175000038,138.3539584029473 255.99976900000038,136.95433858237183 258.7497662500004,135.4088771618308 261.49976350000037,133.72367335930244 264.2497607500004,131.90537789100188 266.9997580000004,129.96116672409514 269.74975525000036,127.89871275649159 272.4997525000004,125.72615553548203 275.2497497500004,123.45206913472827 277.9997470000004,121.0854283163792 280.7497442500004,118.63557311185548 283.49974150000037,116.11217196108654 286.2497387500004,113.52518355567122 288.9997360000004,110.88481753655054 291.7497332500004,108.20149420129971 294.4997305000004,105.48580338005638 297.2497277500004,102.74846264238283 299.9997250000004,100.00027499999962 302.7497222500004,97.25208627231922 305.49971950000036,94.51474228303721 308.2497167500004,91.79904605670685 310.9997140000004,89.1157151842217 313.7497112500004,86.47533952546538 316.4997085000004,83.88833941605628 319.2497057500004,81.36492454312565 321.9997030000004,78.91505365242733 324.7497002500004,76.54839524579674 327.49969750000036,74.27428942406735 330.2496947500004,72.10171102603362 332.9996920000004,70.03923420893324 335.7496892500004,68.09499861023332 338.4996865000004,66.27667722426423 341.2496837500004,64.59144612047689 343.9996810000004,63.045956122831825 346.7496782500004,61.64630656208789 349.4996755000004,60.3980212045783 352.2496727500004,59.30602645247228 354.9996700000004,58.37463190155506 357.7496672500004,57.607513333256264 360.49966450000045,57.00769820804891 363.2496617500004,56.57755371746987 365.9996590000004,56.318777441915074 368.74965625000044,56.232390651078674 371.4996535000004,56.31873427347608 374.24965075000045,56.57746755095761 376.99964800000043,57.00756938352259 379.74964525000047,57.60734235912642 382.49964250000044,58.374419452577115 385.2496397500005,59.30577336708359 387.99963700000046,60.3977284815893 390.74963425000044,61.645975356740166 393.4996315000005,63.04558774223901 396.2496287500005,64.59104201846591 398.9996260000005,66.27623899563792 401.74962325000046,68.09452798447645 404.4996205000005,70.03873304338694 407.2496177500005,72.1011812985654 409.9996150000005,74.27373322526529 412.7496122500005,76.54781477071904 415.49960950000053,78.91445119193938 418.2496067500005,81.36430247485896 420.99960400000054,83.88770019502522 423.7496012500005,86.47468567437826 426.4995985000005,89.11504928352491 429.24959575000053,91.79837073440095 431.9995930000006,94.51406020430551 434.74959025000055,97.25140012900942 437.49958750000053,99.99958750000056 440.24958475000056,102.74777649893744 442.9995820000006,105.485121301054 445.7495792500006,108.20081887858913 448.49957650000055,110.88415163531667 451.2495737500006,113.52452970391672 453.99957100000057,116.11153273926044 456.7495682500006,118.63495104266926 459.4995655000006,121.08482585485078 462.24956275000056,123.45148865849336 464.9995600000006,125.72559933541055 467.74955725000063,127.8981830276467 470.4995545000006,129.9606655570704 473.2495517500006,131.90490726367065 475.9995490000006,133.72323512901204 478.74954625000066,135.40847305807253 481.49954350000064,136.95397019995545 484.2495407500006,138.353627195707 486.99953800000065,139.60192024965136 489.7495352500007,140.6939229292451 492.49953250000067,141.62532560741687 495.24952975000064,142.3924524706626 497.9995270000006,142.9922760257729 500.74952425000066,143.422429047942 503.4995215000007,143.68121392310377 506.2495187500007,143.7676093476254 508.99951600000065,143.68127435891836 511.7495132500007,143.42254968105914 514.4995105000007,142.99245638010973 517.2495077500007,142.39269183444435 519.9995050000007,141.625623035986 522.7495022500007,140.6942772487892 525.4994995000007,139.6023300618359 528.2494967500007,138.35409088319372 530.9994940000007,136.95448593278536 533.7494912500007,135.40903880088783 536.4994885000008,133.72384864908875 539.2494857500008,131.90556613973018 541.9994830000007,129.96136718883517 544.7494802500007,127.89892464610216 547.4994775000007,125.72637801373335 550.2494747500008,123.45230132360206 552.9994720000008,121.08566929953386 555.7494692500007,118.63582193824254 558.4994665000008,116.11242764870388 561.2494637500008,113.52544509543864 563.9994610000008,110.88508389629211 566.7494582500008,108.20176432981733 569.4994555000007,105.48607621127837 572.2494527500007,102.74873709957109 574.9994500000008,100.00054999999921 574.9994500000008,150 25,150"/>

<mask id="ghost">
  <circle cx="50" cy="50" r="50" fill="white"/>
  <rect x="0" y="50" width="100" height="70" fill="white"/>
  <ellipse cx="50" cy="65" rx="27" ry="30" fill="black"/>
  <ellipse cx="50" cy="35" rx="35" ry="35" fill="white"/>
<g>
<g transform="scale(.2) translate(-620,456)" stroke-width="0" stroke="none" fill="black">
<use xlink:href="#wave"/>
<use xlink:href="#wave" transform="translate(550,0)"/>
</g>
<animateTransform attributeName="transform" type="translate" begin="0" dur="0.5s" from="0,0" to="54,0" repeatCount="indefinite"/>
</g>
</mask>

<linearGradient x1="0" x2="1" y1="0" y2="0" gradientUnits="objectBoundingBox" id="ghostcol">
	<stop offset="0%" stop-color="#999"/>
	<stop offset="40%" stop-color="#ddd"/>
	<stop offset="65%" stop-color="#eee"/>	
	<stop offset="100%" stop-color="#aaa"/>
</linearGradient>

</defs>

<g transform="translate(100 100)">
  <g>
  <rect x="20" y="20" width="60" height="80" fill="black"/>
  <rect x="0" y="0" width="100" height="120" mask="url(#ghost)" fill="url(#ghostcol)"/>
  <rect x="30" y="30" width="10" height="20" fill="black" rx="5"/>
  <rect x="60" y="30" width="10" height="20" fill="black" rx="5"/>
  </g>
</g>
<image xlink:href="http://www.google-analytics.com/__utm.gif?utmwv=4.7.1&amp;utmn=21830374&amp;utmhn=svg.kvalitne.cz&amp;utmcs=UTF-8&amp;utmsr=1920x1080&amp;utmsc=24-bit&amp;utmul=en-us&amp;utmje=1&amp;utmfl=10.0%20r45&amp;utmdt=SVG%C2%A0%E2%80%94%C2%A0It%27s%20in%20your%20hands...&amp;utmhid=1377849700&amp;utmr=-&amp;utmp=%2Findex2.htm&amp;utmac=UA-11950721-1&amp;utmcc=__utma%3D251371972.1884550355.1260220320.1272562824.1272576758.56%3B%2B__utmz%3D251371972.1263752798.41.3.utmcsr%3Dgoogle%7Cutmccn%3D(organic)%7Cutmcmd%3Dorganic%7Cutmctr%3Dsvg%2520smil%2520demo%3B" width="1" height="1"/>
</svg>
