<svg xmlns="http://www.w3.org/2000/svg" xmlns:xlink="http://www.w3.org/1999/xlink">
<title>LMC's Good Spirit animation, version with shadow, by marek.raida@gmail.com</title>
<script type="text/ecmascript" xlink:href="../fakesmile/smil.user.js"/>
<defs>
<path id="wave" d="M25,150,86.06,56.65c23.32-3.799,43.85,12.21,59.94,27.24,22.72,20.35,41.85,47.06,71.5,57.74,22.76,7.673,45.14-6.379,61.33-21.28,25.2-21.94,46-51.18,78.2-63.3,10.46-1.856,21.33-1.361,31.06,3.353l5.2,89.65h-368.3z"/>
<filter id="ilf1" width="150%" height="150%">
  <feOffset result="offOut" in="SourceGraphic" dx="10" dy="18"/>
  <feColorMatrix result="matrixOut" in="offOut" type="matrix" values="0.2 0 0 0 0 0 0.2 0 0 0 0 0 0.2 0 0 0 0 0 1 0"/>
  <feGaussianBlur result="blurOut" in="matrixOut" stdDeviation="7"/>
</filter>
<mask id="ghost">
  <circle cx="50" cy="50" r="50" fill="white"/>
  <rect x="0" y="50" width="100" height="70" fill="white"/>
  <ellipse cx="50" cy="65" rx="27" ry="30" fill="black">
    <animate attributeName='ry' repeatCount='indefinite' begin='0s' values='34;25;34' dur='1s'/>
  </ellipse>
  <ellipse cx="50" cy="35" rx="35" ry="35" fill="white"/>
  <g>
    <g transform="scale(.2) translate(-620,456)" stroke-width="0" stroke="none" fill="black">
      <use xlink:href="#wave"/>
      <use xlink:href="#wave" transform="translate(274,0)"/>
      <use xlink:href="#wave" transform="translate(548,0)"/>
      <use xlink:href="#wave" transform="translate(822,0)"/>      
    </g>
    <animateTransform attributeName="transform" type="translate" begin="0" dur="0.5s" from="0,0" to="54,0" repeatCount="indefinite"/>
  </g>
</mask>
<linearGradient x1="0" x2="1" y1="0" y2="0" gradientUnits="objectBoundingBox" id="ghostcol">
	<stop offset="0%" stop-color="#999"/>
	<stop offset="40%" stop-color="#ddd"/>
	<stop offset="65%" stop-color="#eee"/>	
	<stop offset="100%" stop-color="#aaa"/>
</linearGradient>
</defs>
<g transform="translate(100 10)">
  <g>
    <g filter="url(#ilf1)">
      <rect x="0" y="0" width="100" height="100" fill="white" rx="50"/>
      <rect x="0" y="50" width="100" height="50" fill="white" rx="2"/>
    </g>
    <rect x="20" y="20" width="60" height="80" fill="black"/>
    <rect x="0" y="0" width="100" height="120" mask="url(#ghost)" fill="url(#ghostcol)"/>
    <rect x="30" y="30" width="10" height="20" fill="black" rx="5"/>
    <rect x="60" y="30" width="10" height="20" fill="black" rx="5"/>
  </g>
</g>
<image xlink:href="http://www.google-analytics.com/__utm.gif?utmwv=4.7.1&amp;utmn=21830374&amp;utmhn=svg.kvalitne.cz&amp;utmcs=UTF-8&amp;utmsr=1920x1080&amp;utmsc=24-bit&amp;utmul=en-us&amp;utmje=1&amp;utmfl=10.0%20r45&amp;utmdt=SVG%C2%A0%E2%80%94%C2%A0It%27s%20in%20your%20hands...&amp;utmhid=1377849700&amp;utmr=-&amp;utmp=%2Findex2.htm&amp;utmac=UA-11950721-1&amp;utmcc=__utma%3D251371972.1884550355.1260220320.1272562824.1272576758.56%3B%2B__utmz%3D251371972.1263752798.41.3.utmcsr%3Dgoogle%7Cutmccn%3D(organic)%7Cutmcmd%3Dorganic%7Cutmctr%3Dsvg%2520smil%2520demo%3B" width="1" height="1"/>
</svg>