<?xml version="1.0" encoding="UTF-8" standalone="no"?>
<!-- Created with Inkscape (http://www.inkscape.org/) -->

<svg
   xmlns:svg="http://www.w3.org/2000/svg"
   xmlns="http://www.w3.org/2000/svg"
   version="1.1"
   width="93pt"
   height="17pt"
   viewBox="0 1 91 15"
   id="svg7390"
   xml:space="preserve"><defs
   id="defs7414" />
	<style
   type="text/css"
   id="style7392" />
	<a
   target="_blank"
   id="a7394">
	<g
   id="ButtonPanel"
   style="fill-rule:nonzero;stroke:#666666;stroke-miterlimit:4">
		<path
   d="m 90.4,8.5 c 0,4 -3.3,7.2 -7.5,7.2 H 10.2 C 6,15.7 2.62,12.5 2.62,8.5 2.62,4.55 6,1.34 10.2,1.34 h 72.7 c 4.2,0 7.5,3.21 7.5,7.16 z"
   id="path7397"
   style="fill:#cccccc;stroke:#000000;stroke-width:0.5" />
		<path
   d="m 89.3,8.63 c 0,3.27 -2.6,5.87 -5.9,5.87 -3.2,0 -5.9,-2.6 -5.9,-5.87 0,-3.26 2.7,-5.9 5.9,-5.9 3.3,0 5.9,2.64 5.9,5.9 z"
   id="path7399"
   style="fill:#303030;stroke:#cccccc" />
		<path
   d="m 86.4,8.64 c 0,1.66 -1.3,2.96 -2.9,2.96 -1.7,0 -3,-1.3 -3,-2.96 0,-1.63 1.3,-2.95 3,-2.95 1.6,0 2.9,1.32 2.9,2.95 z"
   id="path7401"
   style="fill:#de600e;stroke:none" />
	</g>
	<g
   id="Txt"
   style="font-size:12px;letter-spacing:0.025em;fill:#000000;fill-rule:nonzero;stroke:none;font-family:Myriad-Bold,sans-serif">
		<g
   id="g7404"
   style="stroke:none">
			<g
   id="g7406">
				<text
   transform="translate(7.06,12.1)"
   id="text7408"><tspan
     x="0"
     y="0"
     id="tspan7410">Viewer Help</tspan></text>

			</g>
		</g>
	</g>
	</a>
</svg>