<svg xmlns="http://www.w3.org/2000/svg" xmlns:xlink="http://www.w3.org/1999/xlink" width="600" height="340">
<script type="text/ecmascript" xlink:href="smil.user.js"/>
<g transform="scale(.6) translate(50 0)">
<path fill="#ECC19C" stroke="#000000" stroke-width="0.5" d="M680.7,261.6c0-19.1,8.8-34.6,19.7-34.6c10.9,0,19.7,15.5,19.7,34.6  c0,19.1-8.8,34.6-19.7,34.6C689.6,296.2,680.7,280.7,680.7,261.6z"/>
<ellipse fill="#ECC19C" stroke="#000000" stroke-width="0.5" cx="20" cy="261.6" rx="19.7" ry="34.6"/>
<ellipse fill="#ECC19C" stroke="#000000" cx="357.7" cy="272.9" rx="339" ry="266.6"/>
<path stroke="#000000" d="M696.8,276.1c0-142-155.3-238.2-337.2-238.2l0,0c-75,0-77.4,58.9-132.9,88.1c-34.8,18.3-78.5-1.9-115,16.4  c-46.4,23.3-89.3,87-89.3,133.6h-7.3c0-152,152.5-275.6,344.4-275.6c191.9,0,344.4,123.7,344.4,275.6H696.8z">
  <animate attributeName="opacity" begin="0s" dur="6s" values="1; 0" repeatCount="indefinite" calcMode="discrete"/>
</path>
<ellipse fill="#FFFFFF" stroke="#000000" cx="264.1" cy="209.7" rx="41.8" ry="49.3">
  <animate attributeName="ry" begin="0s" dur="6s" values="49.3; 64" repeatCount="indefinite" calcMode="discrete"/>
</ellipse>
<ellipse fill="#FFFFFF" stroke="#000000" cx="438.8" cy="209.7" rx="41.8" ry="49.3">
  <animate attributeName="ry" begin="0s" dur="6s" values="49.3; 70" repeatCount="indefinite" calcMode="discrete"/>
</ellipse>
<path d="M346.5,314.8l-0.9-7.2c14.1-1.8,33.9-0.9,39.1-13.1c7.9-5.3-1.4-26.6-19.9-32.6c-11.9-8.5-9.3-32.1-9-34.8l4.7,0.6  c-0.9,5.8-5.5,22.1,8.5,28.3c11,7.9,29.4,29,22,42.1C384.5,309.6,352.8,314.1,346.5,314.8L346.5,314.8z"/>
<path d="M264.1,259c11.7,0,22.3-5.7,29.9-14.9c-4.6-28.6-16.2-49-29.9-49c-13.7,0-25.3,20.4-29.9,49  C241.8,253.3,252.4,259,264.1,259z"/>
<path d="M438.8,259c11.7,0,22.3-5.7,29.9-14.9c-4.6-28.6-16.2-49-29.9-49c-13.7,0-25.3,20.4-29.9,49  C416.5,253.3,427.1,259,438.8,259z"/>
<path d="M391.1,159.8c-0.3-1.7-0.3-2.5-0.3-2.5c3.3-2.1,81.7-56.7,116-50.5l-0.2,7.3c-0.3,0-0.6,0-0.9,0  C458,110.4,391.9,159.3,391.1,159.8L391.1,159.8z"/>
<path d="M318.5,153.3c-56.2-8.3-50-7.7-96.6-5.4c-1.3-1.3,0.8-7.2,0.8-7.2l95.9,10.4V153.3L318.5,153.3z"/>
<g transform="translate(350 400) scale(2)">
<path fill="none" stroke="#000000" stroke-width="3" d="m -85.493443,-10.559457 c 0,0 75.42,75.66 170.7,0">
  <animateTransform attributeName="transform" type="rotate" begin="0s" dur="6s" from="0" to="180" repeatCount="indefinite" calcMode="discrete"/>
</path>
</g>
</g>
</svg>