<svg
   xmlns:svg="http://www.w3.org/2000/svg"
   xmlns="http://www.w3.org/2000/svg"
   xmlns:xlink="http://www.w3.org/1999/xlink"
   width="230"
   height="290">

      <path
   d="m 82.001,102.083 c 0,0 -26.812,29.561 10.507,78.271 0,0 7.761,20.132 4.813,27.694 0,0 0,2.945 6.579,16.302 0,0 4.813,9.427 4.813,15.222 0,0 -11.393,-60.2 18.168,-63.048 0,0 14.339,8.542 8.642,33.487 0,0 9.527,27.694 4.714,32.507 0,0 3.831,-34.471 11.59,-36.434 0,0 -0.983,-23.963 16.203,-36.339 0,0 -22.979,26.91 -5.795,61.282 0,0 -1.864,-39.185 18.268,-62.264 0,0 27.694,-67.663 -41.247,-92.511 0,0 -16.203,0.983 -20.918,9.527 0,0 -22.883,0 -25.83,-59.416 0,0 -27.693,-29.563 -56.469,-6.581 0,0 22.981,21.998 -16.302,29.659 0,0 -7.563,23.962 33.489,21.999 10e-4,0.002 26.909,-5.793 28.775,30.643 z"
   id="path2924"
   style="fill:#fff7f3;fill-rule:evenodd;stroke:#fff7f3;stroke-width:0.21600001;stroke-miterlimit:2.41420007" />
     
      <path
   d="m 21.703,59.069 c 0,0 3.83,-7.76 11.588,-7.76 0,0 -1.965,-7.659 -19.15,-1.865 -10e-4,0 -5.992,1.178 7.562,9.625 z"
   id="path2926"
   style="fill:#fa8d94;fill-rule:evenodd;stroke:#fa8d94;stroke-width:0.21600001;stroke-miterlimit:2.41420007" />
     
      <path
   d="m 84.064,8.197 c 0,0 -15.418,-16.302 -44.783,2.947 0,0 31.427,-12.475 44.783,-2.947 z"
   id="path2928"
   style="fill-rule:evenodd;stroke:#000000;stroke-width:0.21600001;stroke-miterlimit:2.41420007" />
     
      <path
   d="m 27.201,25.875 c 0,0 6.482,12.275 -12.57,20.23 0,0 26.026,-7.267 12.57,-20.23 z"
   id="path2930"
   style="fill-rule:evenodd;stroke:#000000;stroke-width:0.21600001;stroke-miterlimit:2.41420007" />
     
      <path
   d="m 14.237,54.942 c 0,0 -2.063,27.009 22.786,18.463 0,0 22.98,11.394 39.184,2.848 0,0 -17.186,5.698 -38.006,-7.955 0,0.001 -18.464,12.67 -23.964,-13.356 z"
   id="path2932"
   style="fill-rule:evenodd;stroke:#000000;stroke-width:0.21600001;stroke-miterlimit:2.41420007" />
     
      <path
   d="m 64.521,79.004 c 0,0 14.533,22.098 13.355,30.642 0,0 0,2.846 4.812,7.561 0,0 13.454,9.625 17.286,15.32 0,0 -12.374,-18.07 -15.321,-18.07 0,0 -5.794,-5.793 -4.813,-8.643 0,0 -7.56,-21.113 -15.319,-26.81 z"
   id="path2934"
   style="fill-rule:evenodd;stroke:#000000;stroke-width:0.21600001;stroke-miterlimit:2.41420007" />
     
      <path
   d="m 74.833,101.102 c 0,0 -1.866,12.372 -7.563,20.132 0,0 -6.678,20.033 0,29.363 0,0 0,-20.819 4.715,-27.497 0,0 3.83,-10.608 2.848,-21.998 z"
   id="path2936"
   style="fill-rule:evenodd;stroke:#000000;stroke-width:0.21600001;stroke-miterlimit:2.41420007" />
     
      <path
   d="m 91.037,33.239 c 0,0 5.5,34.176 -9.428,35.158 0,-0.001 20.231,11.294 9.428,-35.158 z"
   id="path2938"
   style="fill-rule:evenodd;stroke:#000000;stroke-width:0.21600001;stroke-miterlimit:2.41420007" />
     
      <path
   d="m 95.456,28.917 c 0,0 7.464,50.676 24.65,62.07 0,-10e-4 -23.766,-51.658 -24.65,-62.07 z"
   id="path2940"
   style="fill-rule:evenodd;stroke:#000000;stroke-width:0.21600001;stroke-miterlimit:2.41420007" />
     
      <path
   d="m 79.252,167.685 c 0,0 11.194,19.445 10.507,34.079 0,0 -3.732,10.705 7.857,14.535 0,0 -7.17,-6.678 -4.124,-15.519 10e-4,0 -2.652,-18.462 -14.24,-33.095 z"
   id="path2942"
   style="fill-rule:evenodd;stroke:#000000;stroke-width:0.21600001;stroke-miterlimit:2.41420007" />
     
      <path
   d="m 87.993,150.009 c 0,0 21.605,46.059 40.854,32.604 -0.001,0 -23.766,26.713 -40.854,-32.604 z"
   id="path2944"
   style="fill-rule:evenodd;stroke:#000000;stroke-width:0.21600001;stroke-miterlimit:2.41420007" />
     
      <path
   d="m 94.278,215.61 c 0,0 10.312,32.312 4.812,43.998 0,0 -7.855,6.874 -7.268,13.65 l 8.447,-0.981 0.392,3.83 c 0,0 11.883,-0.982 14.929,-9.722 0,0 -6.09,4.91 -11.885,3.928 l -2.063,-3.831 -5.5,0.983 c 0,0 21.312,-11.882 -1.864,-51.855 z"
   id="path2946"
   style="fill-rule:evenodd;stroke:#000000;stroke-width:0.21600001;stroke-miterlimit:2.41420007" />
     
      <path
   d="m 124.917,154.428 c 0,0 12.571,21.113 7.76,43.997 0,0 -6.776,11.588 1.864,15.417 0,0 -2.848,-8.641 0.982,-15.417 0.001,0 5.698,-20.035 -10.606,-43.997 z"
   id="path2948"
   style="fill-rule:evenodd;stroke:#000000;stroke-width:0.21600001;stroke-miterlimit:2.41420007" />
     
      <path
   d="m 109.598,192.729 c 0,0 -3.831,6.678 1.964,13.357 0,0 -10.41,-3.832 -1.964,-13.357 z"
   id="path2950"
   style="fill-rule:evenodd;stroke:#000000;stroke-width:0.21600001;stroke-miterlimit:2.41420007" />
     
      <path
   d="m 160.763,121.333 c 0,0 6.777,30.542 -1.963,52.442 0,0 -9.429,17.187 -5.795,29.756 0,0 -5.598,-15.417 0.981,-30.738 0.001,-0.001 11.591,-17.284 6.777,-51.46 z"
   id="path2952"
   style="fill-rule:evenodd;stroke:#000000;stroke-width:0.21600001;stroke-miterlimit:2.41420007" />
     
      <path
   d="m 134.542,69.477 c 0,0 54.604,12.475 53.623,68.942 0,0 -12.473,-60.398 -53.623,-68.942 z"
   id="path2954"
   style="fill-rule:evenodd;stroke:#000000;stroke-width:0.21600001;stroke-miterlimit:2.41420007" />
     
      <path
   d="m 187.377,138.714 c 0,0 1.08,36.238 -18.855,51.854 0,-0.001 14.143,-6.776 18.855,-51.854 z"
   id="path2956"
   style="fill-rule:evenodd;stroke:#000000;stroke-width:0.21600001;stroke-miterlimit:2.41420007" />
     
      <path
   d="m 166.165,198.425 c 0,0 -7.758,17.185 2.849,40.264 0,0 3.732,3.832 4.714,11.394 0,0 2.848,-11.394 -1.768,-13.357 -0.001,-0.001 -11.588,-21.9 -5.795,-38.301 z"
   id="path2958"
   style="fill-rule:evenodd;stroke:#000000;stroke-width:0.21600001;stroke-miterlimit:2.41420007" />
     
      <path
   d="m 154.675,206.086 c 0,0 -10.214,27.498 -8.643,42.229 0,0 2.357,5.401 1.473,14.731 0,0 4.615,-13.258 1.18,-16.5 0,0 -1.866,-22.096 5.99,-40.46 z"
   id="path2960"
   style="fill-rule:evenodd;stroke:#000000;stroke-width:0.21600001;stroke-miterlimit:2.41420007" />
     
      <path
   d="m 113.625,211.879 c 0,0 -4.91,22.881 0.884,35.061 0,0 4.222,4.222 5.794,11.98 0,0 2.062,-10.998 -3.044,-13.551 -0.001,-0.001 -8.151,-17.973 -3.634,-33.49 z"
   id="path2962"
   style="fill-rule:evenodd;stroke:#000000;stroke-width:0.21600001;stroke-miterlimit:2.41420007" />
     
      <path
   d="m 135.524,228.181 c 0,0 0,30.542 -7.66,40.07 0,0 -8.544,7.756 -7.562,15.417 0,0 4.615,-10.606 10.41,-13.454 0,0 7.563,-5.695 4.812,-42.033 z"
   id="path2964"
   style="fill-rule:evenodd;stroke:#000000;stroke-width:0.21600001;stroke-miterlimit:2.41420007" />
     
      <path
   d="m 173.727,113.474 c 0,0 11.588,59.123 -10.508,68.649 0,0 30.64,-16.206 10.508,-68.649 z"
   id="path2966"
   style="fill-rule:evenodd;stroke:#000000;stroke-width:0.21600001;stroke-miterlimit:2.41420007" />
     
      <path
   d="m 117.357,76.254 c 0,0 14.337,-5.795 22.881,7.562 0,0 -10.507,-21.998 -22.881,-7.562 z"
   id="path2968"
   style="fill-rule:evenodd;stroke:#000000;stroke-width:0.21600001;stroke-miterlimit:2.41420007" />
     
      <path
   d="m 33.585,9.473 c 0,0 -26.812,-6.678 -33.489,0.982 0,0 5.696,-14.339 33.489,-0.982 z"
   id="path2970"
   style="fill-rule:evenodd;stroke:#000000;stroke-width:0.21600001;stroke-miterlimit:2.41420007" />
     
      <path
   d="m 84.653,12.224 c 0,0 30.347,-13.848 38.891,-9.429 -10e-4,0 -7.955,-10.313 -38.891,9.429 z"
   id="path2972"
   style="fill-rule:evenodd;stroke:#000000;stroke-width:0.21600001;stroke-miterlimit:2.41420007" />
     
      <path
   d="m 34.272,49.444 c 0,0 -9.722,-1.965 -11.588,6.678 0,0 6.678,-6.678 11.588,-6.678 z"
   id="path2974"
   style="fill-rule:evenodd;stroke:#000000;stroke-width:0.21600001;stroke-miterlimit:2.41420007" />
     
      <path
   d="m 22.684,56.122 c 0,0 -14.339,-0.883 -9.525,-7.661 0,-10e-4 6.578,8.643 9.525,7.661 z"
   id="path2976"
   style="fill-rule:evenodd;stroke:#000000;stroke-width:0.21600001;stroke-miterlimit:2.41420007" />
     
      <path
   d="m 51.459,38.149 c 0,0 2.357,-11.588 16.989,-6.482 0,0 1.18,2.161 4.813,1.375 0,0 -3.732,6.187 -16.205,3.24 0,0.001 -4.124,-5.499 -5.597,1.867 z"
   id="path2978"
   style="fill-rule:evenodd;stroke:#000000;stroke-width:0.21600001;stroke-miterlimit:2.41420007" />
     
      <path
   d="m 36.04,62.799 c 0,0 -9.526,6.678 -15.32,-1.963 -10e-4,0 8.642,5.793 15.32,1.963 z"
   id="path2980"
   style="fill-rule:evenodd;stroke:#000000;stroke-width:0.21600001;stroke-miterlimit:2.41420007" />
     
      <path
   d="m 166.165,79.004 c 0,0 10.41,-6.58 19.15,5.795 0,0 3.831,9.623 16.205,12.471 0,0 -11.49,2.848 -21.998,-13.455 0,0.001 -3.83,-5.794 -13.357,-4.811 z"
   id="path2982"
   style="fill-rule:evenodd;stroke:#000000;stroke-width:0.21600001;stroke-miterlimit:2.41420007" />
     
      <path
   d="m 86.715,16.839 c 0,0 22.883,-19.152 43.016,-4.813 0,0 4.419,10.803 -43.016,4.813 z"
   id="path2984"
   style="fill:#fa8d94;fill-rule:evenodd;stroke:#fa8d94;stroke-width:0.21600001;stroke-miterlimit:2.41420007" />
     
      <path
   d="m 30.344,18.803 c 0,0 1.965,-11.392 -18.169,-9.625 0,0 -15.321,8.643 18.169,9.625 z"
   id="path2986"
   style="fill:#fa8d94;fill-rule:evenodd;stroke:#fa8d94;stroke-width:0.21600001;stroke-miterlimit:2.41420007" />
     
      <path
   d="m 118.338,81.952 c 0,0 -0.981,53.619 -15.32,64.914 0,0 35.257,-31.427 15.32,-64.914 z"
   id="path2988"
   style="fill:#13007c;fill-rule:evenodd;stroke:#13007c;stroke-width:0.21600001;stroke-miterlimit:2.41420007" />
     
      <path
   d="m 97.322,143.133 c 0,0 -32.507,-7.563 -27.793,-41.05 0,0 8.642,27.695 27.793,41.05 z"
   id="path2990"
   style="fill:#13007c;fill-rule:evenodd;stroke:#13007c;stroke-width:0.21600001;stroke-miterlimit:2.41420007" />
     
      <path
   d="m 92.508,166.899 c 0,0 8.644,-37.121 16.206,-2.945 0,0 1.867,9.625 -16.206,2.945 z"
   id="path2992"
   style="fill:#ffcf00;fill-rule:evenodd;stroke:#ffcf00;stroke-width:0.21600001;stroke-miterlimit:2.41420007" />
     
      <path
   d="m 94.474,149.615 c 0,0 12.276,-6.481 11.293,19.15 0,0 5.795,-30.346 -11.293,-19.15 z"
   id="path2994"
   style="fill-rule:evenodd;stroke:#000000;stroke-width:0.21600001;stroke-miterlimit:2.41420007" />
     
      <path
   d="m 85.93,19.785 c 0,0 1.768,8.544 -4.812,9.526 0.001,0 0.883,-0.982 4.812,-9.526 z"
   id="path2996"
   style="fill-rule:evenodd;stroke:#000000;stroke-width:0.21600001;stroke-miterlimit:2.41420007" />
     
      <path
   d="m 27.496,20.766 c 0,0 5.599,-10.802 11.786,-9.623 -10e-4,10e-4 -17.579,-0.983 -11.786,9.623 z"
   id="path2998"
   style="fill-rule:evenodd;stroke:#000000;stroke-width:0.21600001;stroke-miterlimit:2.41420007" />
     
      <path
   d="m 147.014,275.026 c 0,0 1.866,9.525 -10.507,11.491 l -4.813,-3.732 -6.776,1.767 8.741,-6.579 2.849,3.83 c -0.001,-10e-4 7.561,1.865 10.506,-6.777 z"
   id="path3000"
   style="fill-rule:evenodd;stroke:#000000;stroke-width:0.21600001;stroke-miterlimit:2.41420007" />
     
      <path
   d="m 161.549,246.546 -2.848,8.544 4.811,-5.793 7.761,3.828 -9.724,-6.579 z"
   id="path3002"
   style="fill-rule:evenodd;stroke:#000000;stroke-width:0.21600001;stroke-miterlimit:2.41420007" />
</svg>