<!DOCTYPE svg [
 <!ENTITY durr "3s">
 <!ENTITY cr "m251,2c-7.657,12.42,0.2225,12.91,6.332,20.25,12.9,5.64-6.7,14.83-13.3,9.75-9.9,17.97-36.6,5.04-41.5,26.52-6-0.11-17,1.67-24.5-0.52-8.6,4.44-15.9,3.23-15.5,16.99-8.6,14.98-14.7-11.44-18.5,1.01-3.493,17.05-8.818-0.6017-13.98,9.956,2.146,14.37-12.04,9.479-20.87,10.93-4.967,5.032-7.363,22.91-18.98,12.03-9.838-10.46-17.65,9.888-24.92,3.391-17.18,0.1486-37.43,23.33-38.29,37.93-4.461,10.93-5.821-11.52-9.47-14.75-2.867-2.205-16-17.55-12.53-1.64-6.319,9.943,13.47,16.2,6.318,27.06,4.21,8.264,9.904,16.47,20.17,19.13,9.794,4.998,14.92,13.44,16.85,21.46-7.839,8.169-6.06,20.09-15,26.37,1.755,7.921,14.19,13.42,13.97,23.88,0.4139,10.98,13.13,13.73,9.739,25.11-0.7045,11.11,15.43,10.89,17.51,22.34,8.27,5.959,19.67-1.577,26.9,9.375,2.39,9.366,8.772,17.27,15.36,23.58,0.404,12.94,15.88,6.449,20.21,16.86,8.484,7.316,3.53,20.47,15.63,24.28,3.48-4.587,18.55-6.32,18.4,6.168,8.078,6.634,12.84,10.78,18.97,20.55,4.229,6.815,13.64,12.47,22,17,9.543,6.8-1.888,17.21,12.78,21,10.04-1.689,21.02,2.426,28.59,4.861,10.13-5.965,12.22-19.67,23.05-8.883,8.038-4.52,19.68,11.44,21.02-1.666-6.03-11.49,8.076-16.32,10.06-25.98,9.726-3.276,22.15,6.599,17.38-10.6,7.5-10.5-3.2-23.7,4.1-33.9,12.63-0.4012,16.74,11.73,24.18,11.71,9.441-5.293,19.05-8.711,28.58,0.5709,7.623,5.867,15.14,9.345,24.51,12.93,9.315,10.04,16.75-6.749,26,4,8.326,6.648,13.24,14.66,24.24,18.52,11.2-0.2,22.6-1.5,33.5,2.3,6.432-6.578,12.66-23,22.33-10.83,16.84,6.142,42.59,15.11,41.9,24.27,5.832,10.48,8.845-13.08,11.89-17.82,8.831-7.31,8.169-20.51,19.65-23.62,10.22-2.639,18.36,14.22,26.66,7.039,7.375-5.15,18.24,7.659,24.56-6.039,13.57,3.402,12.93-17.63,25.9-13,2.067-8.216,3.711-22.67,17.75-18.82,16.9-11.5,6.9-47.4,25.2-49.3,21.76-4.492,30.71-40.1,39.05-37.17,8.083-1.137,20.76,4.017,26.24-4.586,0.4624-8.827-4.289-21.45-9.072-27.24-10.33-1.211-19.63-6.173-20.46-17.85-6.129-8.204,1.745-19.52-8.152-22.04-6.523,8.073-19.51-12.33-25.2-1.928-18.92,0.1861-31.19-28.15-38.53-17.81-1.555,12.19-15.15,15.23-21.53,4.963-7.535-4.38-6.819-20.5-18.61-17.6-14.99-11.37,9.265-11.23,13.26-17.52-3.155-5.965-7.673-27.44-13.26-11.96-7.962,4.778-20.72,1.427-30.16,2.764-4.5-8.7-12.4-6.6-20.4-13.2-0.3989-9.436-13.64-6.204-22.3-11.81-8.202-5.641-26.68,0.1669-12.52,7.341-0.5421,12.64,15.03,12.81,12.82,25.59-6.641,1.946-23.21,3.771-25,12.44-2.247,11.94-13.81,16.01-22.53,6.692-4.454-9.546-4.561-19.06-14.3-25.3-6.145-6.417-11.63-13.48-17.76-17.15-10.19,5.603-18.03-16.04-3.946-18.31,10.12-3.783,15.2-12.44,17.23-19.7-5.339-6.45-19.38-18.87-24.39-8.299-7.8,1.38-16.7-6.06-24.3,5.5,4.8-16.38-12.3-8.25-17.6-14.18-5-9.12-33.8-20.95-48.1-16.54-7.464,6.053-6.076-14.51-15.65-17.02-0.8758-9.037,0.6955-20.95-10.73-18.65-5.449-1.09-16.81-9.217-23.22-0.442,5.856,3.264,2.443,22.56-3.188,23.33-13.36-7.121-16.51,12.19-28.01,4.993-17.5,2.23,1.9-23.33-15.2-14.56,8.1-7.23,1.2-20.69-8-22.3-8.3,5.495-13.5-0.004-21.3-2.625z">
 <!ENTITY sk "m366.9,67.18c-8.743-0.171-8.632,17.64-18,12-12.7,0.6393-7.894,17.31-17,22-7.04-5.132-21.74,4.152-23.15-4.277-0.9836-5.554,2.137-20.61-8.878-18.22-9.619-1.044-17.52,4.291-27.64,2.496-9.297-3.218-14.08-3.781-16.78,5.841-5.585,7.635-13.73,8.069-15.25,17.43-6.977,10.46-25.87,1.161-29.86,15.15-0.1377,8.248-7.284,14.7-6.686,22.55,0.8361,12.19-12.02,20.93-23.26,16.12-7.073,3.781-3.054,20.28-14.62,16.9-9.192-0.8016-12.7,14.04-22.86,11-7.925,4.056-15.37,7.118-21.03-0.5045-8.127,5.073-14,3.974-21.36-3.751-7.027-8.08-15.69-2.684-22.62,2.255-1.947,9.965-17.32,12.46-15,24-6.186,4.885-10.06,15.23-10,23.67-0.0697,10.58-13.29,14.76-12,25.33-9.442,8.653,7.511,11.86,4,19.53,7.001,5.311,3.587,14.85,5.952,23.08,2.895,6.538,17.09,10.08,11.05,18.39-4.139,10.21,5.999,14.71,14.99,12.67,4.088,3.652,13.56,4.506,18.24,12.25,8.269,3.551,3.36,18.33,13.77,18.08,5.69,7.962,7.436,10.08,15.85,14.28,3.805,9.173,12.86,8.397,20.15,12.72,8.312-1.142,15.39-0.6112,24.61-0.0485,8.881-2.645,17.03,3.249,25.76,3.735,9.375,4.857,20.23,0.6394,29.63-0.6861,7.434,1.13,16.64,1.343,24.74-0.3723,5.076-7.097,17.7-7.959,21.17-8.713-5.548-6.647-9.755-13.37-6.601-22.29-2.912-6.097,8.607-9.409,10.69-16.63,7.627-1.656,16.15-2.84,22.55-1.298,6.658-1.501,13.44-1.23,20.19,1.67,7.703,0.0333,14.97-7.43,24.86-4.372,11.34,3.287,12.41-5.697,14.25-15.28,3.966-5.254,17.3-13.42,21.23-6.85,0.7364,9.489,19.36,0.0419,12.92,13.66,8.011-6.438,16.22,1.67,15.85,4.189,6.475-7.845,16.82-2.637,21.57-10.15,3.839-10.36,9.298-4.714,14.95-11.32,7.817,2.59,11.8,0.3629,18.63-7.255,5.388-7.076,3.041-18.15,11.82-22.99,8.283-4.049,3.851-16.78,15.71-15.01,7.438-1.241,16.99-2.053,22.98-4.252,7.976-0.849,15.71,4.095,22.25,8.934,10.45-1.039,13.11,5.994,20.24,7.318,2.649-8.35,15.43-5.606,21.28-3.851,1.536-8.721,13.72-8.127,17.81-9.064,8.272,0.2312,7.029,17.56,15.92,11.92,5.311,6.552,4.984,17.08,9.702,24.55,2.572,7.369,15.85,12.44,20,4.894,5.915,2.178,13.7-5.105,21.95-4.035,6.862,2.329,16.91,2.303,13.65-8.916,1.977-11.12-2.704-25.95,9.699-32.5,2.704-9.492,17.75-5.701,16-16-1.047-8.112,5.585-13.99,5-23.14,3.961-7.252,5.174-15.34,10.7-22.42,6.763-5.575,12.93-10.78,12.22-21.01-5.985-1.811-11.27-1.276-18.77-4.71-2.15-11.22-13.19-1.427-19.7-8.426-0.8019-7.219-12.11-6.894-18.27-11.24-8.278-3.644-3.825-14.6-9.864-20.43-2.511-7.688-14.53-8.433-18.69-12.94-6.617,11.11-7.726-6.396-15.7-5.686-5.977-7.483-14.12-5.463-22-3-9.727,5.928-19.1-7.036-28.21-6.149-4.639,12.47-9.75,5.88-19.33,4.149-8.911,1.766,4.976,12.55-9.852,13.84-3.401,9.762-13.15,8.284-17.46,1.189-6.457-1.951-9.95-4.985-14.09-14.03-6.825-1.89-17.04-5.133-19,4-8.933-2.004-14.36-10.06-24-5-8.83-7.706-3.813,18.47-14,7-7.661,3.755-17.19,6.468-17.92,16.23-4.359,6.526-4.838,20.95-12.59,8.263-4.953-10.88-12.97-1.246-18.98,0.8814-11.36,1.596-14.71-6.79-5.75-14.05-2.588-7.327,1.076-15.2-0.7617-23.32-7.662,0.2399-20.41,2.669-17.85-9.277-8.49-2.234-10.78-12.72-10.85-21.23,2.743-5.07-5.661-6.232-8.301-9.496z">
]>
<svg xmlns="http://www.w3.org/2000/svg" xmlns:xlink="http://www.w3.org/1999/xlink" width="800" height="500">
<title>CR2SK Morphing, by marek.raida@gmail.com</title>
<script type="text/ecmascript" xlink:href="smil.user.js"/>

<mask id="republic">
  <rect x="0" y="0" width="800" height="500" fill="white"/>
  <path d="&cr;" fill="black">
    <animate id="beCzech" begin="2s;beSlovak.end+2s" dur="3s" attributeName="d" repeatCount="1" fill="freeze" from="&cr;" to="&sk;"/>
    <animate id="beSlovak" begin="beCzech.end+2s" dur="3s" attributeName="d" repeatCount="1" fill="freeze" from="&sk;" to="&cr;"/>
  </path>
</mask>

<g id="skFlag" transform="scale(1.55) translate(20 9)" opacity="0">
  <animate begin="beCzech.begin" dur="&durr;" attributeName="opacity" repeatCount="1" fill="freeze" from="0" to="1" attributeType="XML"/>
  <animate begin="beSlovak.begin" dur="&durr;" attributeName="opacity" repeatCount="1" fill="freeze" from="1" to="0" attributeType="XML"/>  
  <rect width="450" height="300" fill="#fff"/>
  <rect width="450" height="200" y="100" fill="#0038a8"/>
  <rect width="450" height="100" y="200" fill="#ce1126"/>
  <path d="M 77.80214,70.519375 C 71.75774,70.977285 73.463095,78.307065 72.713075,82.46923 C 70.581035,111.15021 67.63598,140.75688 76.39564,168.69063 C 83.30531,191.23482 99.81871,209.83941 119.82913,221.838 C 124.75435,224.57723 129.55176,228.01768 134.99952,229.50002 C 140.70281,227.90093 145.74124,224.31012 150.887,221.39337 C 170.58257,209.40799 186.77278,190.9538 193.6034,168.69063 C 202.49837,140.28969 199.33114,110.20194 197.17536,81.05622 C 196.86141,77.045825 197.46604,70.08556 191.54167,70.519375 C 153.62849,70.519375 115.71532,70.519375 77.80214,70.519375 z" fill="white"/>
  <g transform="matrix(0.5, 0, 0, 0.5, -4.95224e-05, 150)">
    <g>
      <path d="M 270.00013,-150.00033 L 270.00013,149.98108 C 131.27111,82.770984 146.4401,-28.549958 155.59324,-150.00033 L 270.00013,-150.00033 z M 270.00013,-150.00033 L 270.00013,149.98108 C 408.72916,82.770984 393.56016,-28.549958 384.40702,-150.00033 L 270.00013,-150.00033z " fill="rgb(206, 17, 38)"/>
      <g fill="white">
        <path d="M 286.19947,-67.713266 C 300.79888,-67.713266 315.67885,-65.05409 329.99774,-62.219101 C 325.75976,-76.125053 325.75976,-84.622415 329.99774,-98.528367 C 315.67885,-95.693378 300.79888,-93.034202 286.19947,-93.034202 L 253.80076,-93.034202 C 239.20135,-93.034202 224.32138,-95.693378 210.00249,-98.528367 C 214.24047,-84.622415 214.24047,-76.125053 210.00249,-62.219101 C 224.32138,-65.05409 239.20135,-67.713266 253.80076,-67.713266 L 286.19947,-67.713266 z"/>
        <path d="M 298.79901,-13.082153 C 313.39842,-13.082153 328.27839,-10.422978 342.59728,-7.5879882 C 338.35928,-21.49394 338.35928,-29.991302 342.59728,-43.897254 C 328.27839,-41.062265 313.39842,-38.403089 298.79901,-38.403089 L 241.20127,-38.403089 C 226.60186,-38.403089 211.7219,-41.062265 197.40301,-43.897254 C 201.64099,-29.991302 201.64099,-21.49394 197.40301,-7.5879882 C 211.7219,-10.422978 226.60186,-13.082153 241.20127,-13.082153 L 298.79901,-13.082153 z"/>
        <path d="M 251.75613,-138.50378 C 254.60434,-124.25132 257.27591,-109.44045 257.27591,-94.908773 L 257.27591,90.87762 L 282.71491,90.87762 L 282.71491,-94.908773 C 282.71491,-109.44043 285.38648,-124.25134 288.23469,-138.50378 C 274.2639,-134.28545 265.72692,-134.28546 251.75613,-138.50378 z"/>
        <g transform="matrix(1.91992, 0, 0, 1.91101, -89.9903, -1145.43)" fill="rgb(0, 56, 168)">
          <path d="M 157.5,623.34375 C 148.93543,623.34375 142,630.27919 142,638.84375 C 142,639.49669 142.10906,640.11818 142.1875,640.75 C 145.17278,645.1791 148.66482,649.42813 152.6875,653.53125 C 154.21295,654.03309 155.80728,654.375 157.5,654.375 C 166.06457,654.375 173.03125,647.40831 173.03125,638.84375 C 173.03125,630.27919 166.06457,623.34375 157.5,623.34375 z"/>
          <path d="M 187.5,614.1875 C 176.61185,614.1875 167.78125,623.04937 167.78125,633.9375 C 167.78125,644.82564 176.61186,653.65622 187.5,653.65625 C 198.38815,653.65625 207.21874,644.82564 207.21875,633.9375 C 207.21875,623.04936 198.38815,614.18747 187.5,614.1875 z"/>
          <path d="M 217.5,623.34375 C 208.93543,623.34375 202,630.27919 202,638.84375 C 202,647.40831 208.93544,654.375 217.5,654.375 C 219.19272,654.375 220.78705,654.03309 222.3125,653.53125 C 226.34603,649.41706 229.85303,645.16064 232.84375,640.71875 C 232.9197,640.09681 233.03125,639.48609 233.03125,638.84375 C 233.03125,630.27919 226.06458,623.34375 217.5,623.34375 z"/>
          <path d="M 144.625,644.125 C 154.09998,656.84337 167.7248,668.24983 187.5,677.875 C 207.27521,668.24983 220.90002,656.84337 230.375,644.125 L 144.625,644.125 z"/>
        </g>
      </g>
    </g>
  </g>
</g>

<g id="crFlag" transform="scale(8.6) translate(0 -3)" opacity="1">
  <animate begin="beSlovak.begin" dur="&durr;" attributeName="opacity" repeatCount="1" fill="freeze" from="0" to="1" attributeType="XML"/>
  <animate begin="beCzech.begin" dur="&durr;" attributeName="opacity" repeatCount="1" fill="freeze" from="1" to="0" attributeType="XML"/>  
	<path d="M0,0h90v60h-90z" fill="#d7141a"/>
	<path d="M0,0h90v30h-90z" fill="#fff"/>
	<path d="M45,30L0,0v60z" fill="#11457e"/>
</g>

<rect x="0" y="0" width="900" height="900" mask="url(#republic)" fill="#ddd"/>

</svg>