<svg xmlns="http://www.w3.org/2000/svg" xmlns:xlink="http://www.w3.org/1999/xlink" xmlns:java="http://xml.apache.org/xslt/java" height="250" width="500">
<path style="fill:lightSalmon;stroke:black;stroke-width:1; stroke-linejoin:bevel;" transform="translate(150,150)rotate(270)" d="M 100 0 A 100 100 0 0 1 -66.67326156141692 74.52970007160155 L 0 0 Z"/><text style="text-anchor:middle" transform="translate(150,150) " x="63.902229290179804" y="-28.574553220396748">37%</text><text style="font-size:12px; text-anchor:start" x="320" y="110">Information Technology (5712) </text><path style="stroke:black; stroke-width:1; fill:lightSalmon" d="M 290 100 L 290 110 L 300 110 L 300 100 Z"/><path style="fill:lightCyan;stroke:black;stroke-width:1;   stroke-linejoin:bevel;" transform="translate(150,150)rotate(401.81538461538463)" d="M 100 0 A 100 100 0 0 1 -44.0662421101993 89.7672897345425 L 0 0 Z"/><text style="text-anchor:middle" transform="translate(150,150) " x="-12.02114979768929" y="68.96007509814295">32%</text><text style="font-size:12px; text-anchor:start" x="320" y="130">NADCO (5033) </text><path style="stroke:black; stroke-width:1; fill:lightCyan" d="M 290 120 L 290 130 L 300 130 L 300 120 Z"/><path style="fill:mistyRose;stroke:black;stroke-width:1; stroke-linejoin:bevel;" transform="translate(150,150)rotate(517.9615384615385)" d="M 100 0 A 100 100 0 0 1 66.1915892603292 74.95781154217266 L 0 0 Z"/><text style="text-anchor:middle" transform="translate(150,150) " x="-69.94658455980472" y="-2.734101025581964">13%</text><text style="font-size:12px; text-anchor:start" x="320" y="150">Electronic Security (2104) </text><path style="stroke:black; stroke-width:1; fill:mistyRose" d="M 290 140 L 290 150 L 300 150 L 300 140 Z"/><path style="fill:gold;stroke:black;stroke-width:1; stroke-linejoin:bevel;" transform="translate(150,150)rotate(566.5153846153846)" d="M 100 0 A 100 100 0 0 1 79.75029372876705 60.3315062813401 L 0 0 Z"/><text style="text-anchor:middle" transform="translate(150,150) " x="-49.43763052489132" y="-49.55724657488885">10%</text><text style="font-size:12px; text-anchor:start" x="320" y="170">SATT (1608) </text><path style="stroke:black; stroke-width:1; fill:gold" d="M 290 160 L 290 170 L 300 170 L 300 160 Z"/><path style="fill:tan;stroke:black;stroke-width:1; stroke-linejoin:bevel;" transform="translate(150,150)rotate(603.623076923077)" d="M 100 0 A 100 100 0 0 1 89.58907725326782 44.42743788367737 L 0 0 Z"/><text style="text-anchor:middle" transform="translate(150,150) " x="-15.97083614889776" y="-68.15374085628068">7%</text><text style="font-size:12px; text-anchor:start" x="320" y="190">Other (1143) </text><path style="stroke:black; stroke-width:1; fill:tan" d="M 290 180 L 290 190 L 300 190 L 300 180 Z"/>
</svg>