<svg width="200" height="130" xmlns="http://www.w3.org/2000/svg" xmlns:xlink="http://www.w3.org/1999/xlink">
<title>Spirit, by marek.raida@gmail.com</title>
<script type="text/ecmascript" xlink:href="smil.user.js"/>
<defs>
<path id="wave" d="M25,150,86.06,56.65c23.32-3.799,43.85,12.21,59.94,27.24,22.72,20.35,41.85,47.06,71.5,57.74,22.76,7.673,45.14-6.379,61.33-21.28,25.2-21.94,46-51.18,78.2-63.3,10.46-1.856,21.33-1.361,31.06,3.353l5.2,89.65h-368.3z"/>
<mask id="ghost">
  <circle cx="50" cy="50" r="50" fill="white"/>
  <rect x="0" y="50" width="100" height="70" fill="white"/>
  <ellipse cx="50" cy="65" rx="27" ry="30" fill="black">
    <animate attributeName='ry' repeatCount='indefinite' begin='0s' values='34; 25; 34' dur='1s'/>
  </ellipse>
  <ellipse cx="50" cy="35" rx="35" ry="35" fill="white"/>
  <g>
    <g transform="scale(.2) translate(-620,456)" stroke-width="0" stroke="none" fill="black">
      <use xlink:href="#wave"/>
      <use xlink:href="#wave" transform="translate(274,0)"/>
      <use xlink:href="#wave" transform="translate(548,0)"/>
      <use xlink:href="#wave" transform="translate(822,0)"/>      
    </g>
    <animateTransform attributeName="transform" type="translate" begin="0" dur="0.5s" from="0,0" to="54,0" repeatCount="indefinite"/>
  </g>
</mask>
<linearGradient x1="0" x2="1" y1="0" y2="0" gradientUnits="objectBoundingBox" id="ghostcol">
	<stop offset="0%" stop-color="#999"/>
	<stop offset="40%" stop-color="#ddd"/>
	<stop offset="65%" stop-color="#eee"/>	
	<stop offset="100%" stop-color="#aaa"/>
</linearGradient>
</defs>
<g transform="translate(100 10)">
  <g>
    <rect x="20" y="20" width="60" height="80" fill="black"/>
    <rect x="0" y="0" width="100" height="120" mask="url(#ghost)" fill="url(#ghostcol)"/>
    <rect x="30" y="30" width="10" height="20" fill="black" rx="5"/>
    <rect x="60" y="30" width="10" height="20" fill="black" rx="5"/>
  </g>
</g>
</svg>