<svg
   xmlns:svg="http://www.w3.org/2000/svg"
   xmlns="http://www.w3.org/2000/svg"
   xmlns:xlink="http://www.w3.org/1999/xlink"
   version="1.0"
   width="410"
   height="354"
   id="svg2">
  <defs
     id="defs5" />
  <g
     transform="translate(2,-0.221704)"
     id="g2817">
    <g
       transform="matrix(0.965926,-0.258819,0.258819,0.965926,251.972,-0.97947)"
       id="g2787">
      <path
         d="M -51.25,46 69,46 m -275,0 121.5,0 m 16,-48 0,30.5"
         id="path2781"
         style="fill:none;stroke:#000000;stroke-width:16.875;stroke-linecap:butt;stroke-linejoin:miter;stroke-miterlimit:4;stroke-opacity:1" />
    </g>
    <path
       d="m 198,77 0,212"
       id="path2794"
       style="fill:none;stroke:#000000;stroke-width:16.875;stroke-linecap:butt;stroke-linejoin:miter;stroke-miterlimit:4;stroke-opacity:1;stroke-dasharray:none" />
    <path
       d="m 213,59 a 16,16 0 1 1 -32,0 16,16 0 1 1 32,0 z"
       transform="matrix(1.13483,0,0,1.13483,-25.5617,-7.70506)"
       id="path1891"
       style="fill:none;stroke:#000000;stroke-width:14.87010002;stroke-linecap:butt;stroke-linejoin:round;stroke-miterlimit:4;stroke-opacity:1;stroke-dasharray:none;stroke-dashoffset:0" />
    <g
       transform="translate(2.82843,-2.82843)"
       id="g2804">
      <path
         d="M 27,195 66.5,95 106,195"
         id="path2798"
         style="fill:none;stroke:#000000;stroke-width:11.875;stroke-linecap:butt;stroke-linejoin:bevel;stroke-miterlimit:4;stroke-opacity:1;stroke-dasharray:none" />
      <path
         d="M 122,188 A 57,57 0 1 1 8,188"
         transform="translate(1.5,2)"
         id="path2800"
         style="fill:#000000;fill-opacity:1;stroke:none" />
    </g>
    <use
       transform="translate(255.172,-64.1716)"
       id="use2808"
       x="0"
       y="0"
       width="400"
       height="350"
       xlink:href="#g2804" />
    <path
       d="m 360.77118,308.86649 c 0.86656,-1.11268 -2.82842,-11.66727 -12.37436,-11.66727 -9.54595,0 -17.67768,7.07107 -17.67768,18.03123 0,10.96015 8.83885,24.39518 24.74874,24.39518 15.90991,0 28.28428,-15.9099 28.28428,-29.34493 0,-13.43503 -7.70076,-35.00178 -33.58758,-35.00178 -20.70602,0 -38.75556,13.72108 -55.75556,13.72108 -17.00002,0 -175.81803,0 -192.81804,0 -16.99999,0 -35.049542,-13.72108 -55.755564,-13.72108 -25.886817,0 -33.587571,21.56675 -33.587571,35.00178 0,13.43503 12.374368,29.34493 28.28427,29.34493 15.909903,0 24.748738,-13.43503 24.748738,-24.39518 0,-10.96016 -8.131728,-18.03123 -17.67767,-18.03123 -9.545941,0 -13.240914,10.55459 -12.374369,11.66727"
       id="path2810"
       style="fill:none;stroke:#000000;stroke-width:16.875;stroke-linecap:round;stroke-linejoin:miter;stroke-miterlimit:4;stroke-opacity:1" />
  </g>
</svg>