<svg
   xmlns:svg="http://www.w3.org/2000/svg"
   xmlns="http://www.w3.org/2000/svg"
   xmlns:xlink="http://www.w3.org/1999/xlink"
   version="1.1"
   width="266"
   height="240"
   id="svg3784">
  <defs
     id="defs3786">
    <linearGradient
       x1="100.09005"
       y1="364.50668"
       x2="106.42678"
       y2="-126.7233"
       id="linearGradient3640"
       xlink:href="#linearGradient3634"
       gradientUnits="userSpaceOnUse" />
    <linearGradient
       id="linearGradient3634">
      <stop
         id="stop3636"
         style="stop-color:#ff0000;stop-opacity:1"
         offset="0" />
      <stop
         id="stop3642"
         style="stop-color:#c93c3c;stop-opacity:1"
         offset="0.5" />
      <stop
         id="stop3638"
         style="stop-color:#bc4949;stop-opacity:1"
         offset="1" />
    </linearGradient>
    <linearGradient
       x1="109.14501"
       y1="223.35675"
       x2="100.97306"
       y2="-149.16039"
       id="linearGradient3674"
       xlink:href="#linearGradient3668"
       gradientUnits="userSpaceOnUse" />
    <linearGradient
       id="linearGradient3668">
      <stop
         id="stop3670"
         style="stop-color:#ffffff;stop-opacity:1"
         offset="0" />
      <stop
         id="stop3672"
         style="stop-color:#cccccc;stop-opacity:1"
         offset="1" />
    </linearGradient>
    <linearGradient
       x1="104.46835"
       y1="-116.43893"
       x2="104.46835"
       y2="240.48927"
       id="linearGradient3715"
       xlink:href="#linearGradient3644"
       gradientUnits="userSpaceOnUse"
       gradientTransform="matrix(0.83488778,0,0,0.83488778,298.00591,324.76069)" />
    <linearGradient
       id="linearGradient3644">
      <stop
         id="stop3646"
         style="stop-color:#ffffff;stop-opacity:1"
         offset="0" />
      <stop
         id="stop3654"
         style="stop-color:#f9f9f9;stop-opacity:0"
         offset="1" />
    </linearGradient>
    <linearGradient
       x1="104.46835"
       y1="-116.43893"
       x2="104.46835"
       y2="240.48927"
       id="linearGradient3782"
       xlink:href="#linearGradient3644"
       gradientUnits="userSpaceOnUse"
       gradientTransform="matrix(0.83488778,0,0,0.83488778,298.00591,324.76069)" />
    <linearGradient
       x1="104.46835"
       y1="-116.43893"
       x2="104.46835"
       y2="240.48927"
       id="linearGradient3840"
       xlink:href="#linearGradient3644"
       gradientUnits="userSpaceOnUse"
       gradientTransform="matrix(0.1114007,0,0,0.1114007,20.253055,17.446283)" />
    <linearGradient
       x1="109.14501"
       y1="223.35675"
       x2="100.97306"
       y2="-149.16039"
       id="linearGradient3844"
       xlink:href="#linearGradient3668"
       gradientUnits="userSpaceOnUse"
       gradientTransform="matrix(0.07272715,0,0,0.07272715,24.422132,21.035103)" />
    <linearGradient
       x1="100.09005"
       y1="364.50668"
       x2="106.42678"
       y2="-126.7233"
       id="linearGradient3847"
       xlink:href="#linearGradient3634"
       gradientUnits="userSpaceOnUse"
       gradientTransform="matrix(0.1114007,0,0,0.1114007,20.322473,16.983151)" />
  </defs>
  <g transform="scale(4)"
     id="layer1">
    <g
       id="g3853">
      <path
         d="m 58.308963,57.797547 -52.6341369,10e-7 C 2.4815092,57.72596 0.99809495,56.433014 1.498785,53.722849 1.6767507,52.703674 2.2197257,51.802431 2.6605949,50.877724 11.410318,35.828088 20.160042,20.778452 28.909765,5.7288162 c 2.17383,-2.8360658 4.418213,-2.8675799 6.57092,0.00915 L 62.562651,52.645306 c 1.032776,1.848173 0.806496,5.37895 -4.253688,5.152241 z"
         id="path2830"
         style="fill:url(#linearGradient3847);fill-opacity:1;stroke:#000000;stroke-width:0.95203692;stroke-miterlimit:4;stroke-opacity:1;stroke-dasharray:none" />
      <path
         d="M 56.799564,52.827152 7.3259892,52.827151 32.110431,9.8700338 56.799564,52.827152 z"
         id="path2830-1"
         style="fill:url(#linearGradient3844);fill-opacity:1;stroke:#fff5f5;stroke-width:0.07272715;stroke-opacity:0.02555913" />
      <path
         d="m 35.642806,23.932985 c -1.32829,0 -2.405944,1.088715 -2.405944,2.430963 0,0.284106 0.04894,0.555505 0.137601,0.808931 -0.250377,0.104824 -0.527576,0.255749 -0.82144,0.467012 l -0.200148,-0.17513 c -0.0769,-0.06184 -0.153536,-0.121367 -0.229336,-0.179299 -1.964053,-1.501075 -3.573506,-1.709482 -5.403994,-1.409375 -2.74706,0.609485 -2.785738,3.417821 -3.515097,5.666688 -1.13401,1.48104 -0.626721,2.095336 0.170959,2.226645 0.317016,0.05979 0.543514,0.0287 0.704688,-0.07088 l 0.542067,0.300222 c -0.344549,0.72232 -0.643606,1.455745 -0.858968,2.201627 -0.738442,6.809416 -4.52935,7.276031 -6.880084,10.720422 0.629193,1.213395 1.259764,2.45764 2.335059,3.581814 l 1.138341,-0.0125 c -0.442818,-0.725009 -0.928449,-1.426873 -1.113323,-2.280852 2.677479,-3.215866 4.789597,-2.172663 8.030935,-9.648797 3.477521,2.850393 2.475882,7.941412 3.711076,11.91297 l 4.607571,0.02085 c -0.364927,-0.58369 -0.991331,-0.98412 -2.118232,-1.029937 -0.440823,-3.629477 -0.387382,-7.365295 -1.388526,-10.874703 l 2.998049,1.834689 c 0.0976,0.929638 1.105344,1.350166 1.672069,1.025758 l 2.364247,1.446896 c 0.225096,0.137851 0.340979,0.235398 0.32941,0.254355 -1.174601,1.924725 -1.83985,4.431907 -2.155759,7.334587 l 14.343933,0 -6.242113,-11.341715 c -2.345137,0.404836 -4.082255,1.49879 -5.345617,3.13565 -0.0117,0.01516 -0.215701,0.328347 -0.400296,0.212658 l -2.531037,-1.584505 c 0.01696,-0.09231 0.02368,-0.195212 0.01668,-0.308561 -0.330028,-1.280238 -0.926592,-3.03308 -1.767973,-4.549195 0.256973,-1.595701 0.66127,-3.141603 0.246015,-5.082923 -0.127575,-0.531168 -0.563631,-1.113637 -1.230075,-1.734616 l -0.216827,-0.187638 c 0.157281,-0.179869 0.282905,-0.352322 0.383616,-0.517049 0.327999,0.169436 0.698813,0.266864 1.092474,0.266864 1.328291,0 2.405945,-1.088715 2.405945,-2.430963 0,-1.342248 -1.077654,-2.430963 -2.405945,-2.430963 z m -8.497946,4.002958 c 0.494024,0.004 0.891882,0.181446 0.792252,0.562916 -0.993641,1.543536 -2.154603,3.217036 -3.056425,4.974509 l -0.479521,-0.32941 c 0.05552,-0.346764 -0.0077,-0.784764 -0.0959,-1.192548 0.635749,-1.284428 0.54566,-2.85143 1.930594,-3.844508 0.278898,-0.114324 0.612591,-0.173377 0.909005,-0.170959 z m 6.033625,5.433182 c 0.302246,0.03565 0.148354,2.096964 0.450333,3.023067 0.576511,1.010631 1.176651,2.020776 1.667899,3.031407 -0.04529,0.09313 -0.08208,0.18309 -0.112583,0.271034 l -3.727755,-2.335059 c -0.20126,-0.513372 -0.739018,-1.246416 -0.448715,-1.859517 0.329924,-0.696779 0.979119,-1.432519 2.104105,-2.110084 0.02447,-0.01655 0.04657,-0.02322 0.06672,-0.02085 z"
         id="rect3628"
         style="fill:#000000;fill-opacity:1;stroke:none" />
      <path
         d="M 12.14242,35.774315 29.197753,6.1681216 C 31.225561,3.5039648 32.90529,3.269182 35.077686,5.9866449 L 55.821633,42.433875 C 50.397861,39.192204 40.878976,28.000286 34.352338,34.97449 27.328585,42.479899 15.542676,34.723807 12.14242,35.774315 z"
         id="path2830-9"
         style="fill:url(#linearGradient3840);fill-opacity:1;stroke:none" />
    </g>
  </g>
</svg>