<svg width="200" height="220" xmlns="http://www.w3.org/2000/svg" xmlns:xlink="http://www.w3.org/1999/xlink">
<g transform="scale(0.2) translate(99 128)">
<rect height="25.3" width="25.3" y="886" x="240" fill="#FFF"/>
<rect height="25.3" width="25.3" y="882" x="351" fill="#FFF"/>
<rect height="18.7" width="93.7" y="863" x="182" fill="#FFDBBD"/>
<rect height="18.7" width="93.7" y="859" x="338" fill="#FFDBBD"/>
<polygon points="433,850,433,759,337,759,337,850" fill="#3F4B54"/>
<rect height="21.8" width="103" y="844" x="333" fill="#53626B"/>
<polygon points="278,850,278,759,181,759,181,850" fill="#3F4B54"/>
<rect height="21.8" width="103" y="844" x="178" fill="#53626B"/>
<path d="M84.5,732l-49.1-550h540l-49.1,550-222,62.2" fill="#E34F26"/>
<path d="M307,747l178-49,41.8-471h-220" fill="#EF652A"/>
<path d="M307,431h-89.6l-5.98-69.3h95.6v-66.9h-170l1.2,17.9,17,186h152v-67.9zm0,176h-1.2l-75.3-20.3-4.78-53.8h-66.9l8.37,106,139,38.2h1.2v-70.2z" fill="#EBEBEB"/>
<path d="M305,431v68.2h83.7l-8.37,87.3-75.3,20.3v70.5l139-38.2,1.2-12,15.5-178,2.39-17.9h-159zm0-136v66.9h164l1.2-14.3,3.59-34.7,1.2-17.9h-170z" fill="#FFF"/>
<path opacity="0.3" d="M1000,50.4c-13.6-10.4-25.1-62.1-6.99-74.1s53.1-16.7,78.4-8.93c30,7.8-40,106-70,83z" fill="#FFF"/>
<path d="M580,265c-2.78-4.63-142-13.9-173-10.2-46.4,4.72-63.7,24.2-102,24.2-38.5,0-46.4-19.4-101-22.6-30.9-1.75-170,5.56-173,10.2-2.78,4.64,0.929,37.1,3.72,39.3,2.79,2.16,17.7,0.773,17.7,12.1,0.006,29.7,11.2,65.9,17.7,77,6.52,11.1,11.5,23.5,45.6,33.7,31.1,9.31,66,7.11,89.3-4.02,18.4-8.8,46.5-31.5,60.5-65.9,11.1-27.3,14.1-54.5,40-54.5,26,0,29.8,25.6,40.9,53,13.9,34.3,42.1,57.1,60.5,65.9,23.2,11.1,58.2,13.3,89.3,4.02,34.1-10.2,39.1-22.6,45.6-33.7,6.52-11.1,17.7-47.3,17.7-77,0-11.3,14.9-9.9,17.7-12.1,0-2,4-35,1-39zm-330,79c-4.65,20.4-23.2,56.6-56.7,69.6s-71.6,6.49-94.9-6.49c-23.2-13-24.2-46.4-25.1-77.9-0.936-31.5,4.65-39,17.7-47.3,7.82-5.02,50.2-10.2,75.3-10.2s60.9,3.06,78.1,14.8c18,11,11,36,6,56zm287-16c-0.934,31.5-1.87,64.9-25.1,77.9-23.3,13-61.4,19.5-94.9,6.5s-52.1-49.2-56.7-69.6c-4.65-20.4-12.1-45.5,5.58-57.5,17.3-11.8,53-14.8,78.1-14.8s67.5,5.19,75.3,10.2c14,10,19,17,18,49z" fill="#111"/>
<path d="M97.8,926h182v-53.5h-95.4c-87.2,1-87.2,13-87.2,54z" fill="#231F20"/>
<path d="M97.1,915c-1.02,5.13,0.101,11.4,0.101,11.4h183v-11.4h-183z" fill="#FFF"/>
<path d="M262,896c0-5.44-4.41-9.84-9.83-9.84s-9.84,4.4-9.84,9.84c0,5.43,4.42,9.84,9.84,9.84,6,0,10-5,10-10z" fill="#FFF"/>
<path d="M188,872v12c0,1.42,1.15,2.58,2.57,2.58s2.57-1.16,2.57-2.58v-12h-6z" fill="#FFF"/>
<path d="M182,886c1.42,0,2.57-1.16,2.57-2.58v-12c-1.75,0-3.46,0.005-5.15,0.018v11.9c-1,2,0,3,2,3z" fill="#FFF"/>
<path d="M163,886c1.42,0,2.57-1.16,2.57-2.58v-11.7c-1.77,0.049-3.47,0.105-5.15,0.175v11.6c0,2,1,3,2,3z" fill="#FFF"/>
<path d="M172,886c1.42,0,2.57-1.16,2.57-2.58v-11.9c-1.75,0.024-3.47,0.049-5.15,0.084v11.8c0,2,1,3,2,3z" fill="#FFF"/>
<path d="M154,886c1.42,0,2.57-1.16,2.57-2.58v-11.4c-1.77,0.089-3.48,0.185-5.14,0.295v11.1c-1,2,1,3,2,3z" fill="#FFF"/>
<rect height="8.57" width="183" y="923" x="97.2" fill="#231F20"/>
<path d="M432,872h-95.4v53.5h182c-1-41-1-54-87-54z" fill="#231F20"/>
<path d="M336,915v11.4h183s1.12-6.28,0.102-11.4h-183z" fill="#FFF"/>
<path d="M364,906c5.42,0,9.84-4.41,9.84-9.84,0-5.44-4.42-9.84-9.84-9.84s-9.83,4.4-9.83,9.84c0,5,5,10,10,10z" fill="#FFF"/>
<path d="M423,872v12c0,1.42,1.15,2.58,2.57,2.58s2.58-1.15,2.58-2.58v-12h-6z" fill="#FFF"/>
<path d="M437,884v-11.9c-1.68-0.013-3.39-0.018-5.15-0.018v12c0,1.42,1.15,2.58,2.57,2.58,1-1,2-2,2-3z" fill="#FFF"/>
<path d="M456,884v-11.6c-1.68-0.069-3.38-0.126-5.15-0.175v11.7c0,1.42,1.15,2.58,2.57,2.58,1-1,2-2,2-3z" fill="#FFF"/>
<path d="M447,884v-11.8c-1.67-0.035-3.4-0.06-5.15-0.084v11.9c0,1.42,1.15,2.58,2.57,2.58s2-2,2-3z" fill="#FFF"/>
<path d="M465,884v-11.1c-1.67-0.11-3.37-0.206-5.15-0.295v11.4c0,1.42,1.15,2.58,2.57,2.58,1-1,2-2,2-3z" fill="#FFF"/>
<rect height="8.57" width="183" y="923" x="336" fill="#231F20"/>
<rect height="195" width="61" y="413" x="-19.9" fill="#FFDBBD"/>
<path d="M10.6,379l25,2.15,5.55,19h-61l5.55-19" fill="#EF652A"/>
<path d="M9.34,365c-19.2,0-34.8,13.8-34.8,30.9v36.9h69.5v-36.9c0.1-17-15.5-31-34.7-31z" fill="#E34F26"/>
<rect height="27.9" width="78.4" y="429" x="-29.8" fill="#EF652A"/>
<rect height="195" width="61" y="400" x="574" fill="#FFDBBD"/>
<path d="M605,379l25,2.15,5.54,19h-61l5.55-19" fill="#EF652A"/>
<path d="M604,365c-19.2,0-34.8,13.8-34.8,30.9v36.9h69.5v-36.9c-1-17-16-31-35-31z" fill="#E34F26"/>
<rect height="27.9" width="78.4" y="429" x="564" fill="#EF652A"/>
<path d="M580,657l-5.55-62.1h61l-5.54,62.1-25,7.02" fill="#FFDBBD"/>
<path d="M-14.3,670l-5.55-62.1h61l-5.6,62-25,7.02" fill="#FFDBBD"/>
<path d="M298-121l47.8,4.11c9.82,2.46,19.9,3.64,29.6,6.66,19.1,4.89,37.1,13.1,54,23,9.53,5.66,18.7,12,26.8,19.6,14.1,11.9,27.2,24.8,39.7,38.3,5.72,6.8,11.5,13.6,17.1,20.4,9.55,12.9,19.9,25.6,25.2,41,2.22,5.96,3.23,12.3,4.14,18.5,11.7,2.78,21.5,11,27.3,21.4,2.56,4.8,3.67,10.2,5.76,15.2,7.86,19.7,15.7,39.5,23.6,59.2,3.64,8.33,4.53,17.4,4.76,26.4,0.377,5.34-2.55,10.6-7.06,13.4-11.5,6.11-24,10.2-36.7,12.8-21.5,3.03-42.1,11.1-63.8,13.3-53.9,11.3-108,20-163,25.3-69.8,7.58-140,13.2-210,16.2-7.25,0.451-14.4-1.1-21.7-0.756-10.1,0.575-20-1.69-30-2.09-14.8-0.787-29.4-3.5-43.9-6.4-5.91-1.74-11.7-3.85-17.8-4.9-4.88-1.18-10.5-1.16-14.4-4.7-4.2-4.6-4.91-11.1-5.86-17l2.96-34.4c1.79-5.9,2.34-12.1,3.66-18.1,3.96-21.8,11.3-42.9,19.4-63.5,0.658-1.51,1.37-3.31,3.12-3.82,4.99-1.74,10.4-1.75,15.6-1.58-2.62-4.34-5.11-8.92-5.58-14.1-2.22-14.1,3.69-27.7,9.32-40.3,8.26-20.1,19.6-38.8,33.3-55.7,9.1-14.4,21.9-26.7,35.2-38.4,5.32-5.78,12.3-9.62,18.1-14.9,45-34,101-52.4,157-53.6,5-1,11,0,16-1z"/>
<path d="M282-104c7.6,0.274,15.2-0.34,22.8,0.54,10.6,1.22,21.4,1.26,31.9,3.6,16.1,2.25,32.3,5.07,47.7,10.7,7.27,2.98,14,7.08,20.9,10.8,11.3,6.35,23.1,11.8,33.8,19,16.3,11,31.4,23.8,44.9,38.1,4.74,5.5,9.34,11.1,14.1,16.6,7.49,8.93,11.6,20,16.4,30.4,3.26,7.4,6.81,14.7,9.58,22.3-8.95-0.22-17.7,1.67-26.6,2.27-13.7,0.339-27.2,1.84-40.9,2.27,0.969-14.6-5.04-28.8-13.5-40.5-6.7-9.51-17.1-15.1-25.6-22.8-8.83-7.78-18.2-14.9-27.4-22.3-6.94-5.07-14.6-9.05-22.3-12.9-13.6-6.16-28.6-7.75-42.6-12.7-11.7-4.3-24.2-3.91-36.4-5.25-7.67-0.729-15.6-2.18-23.1,0.197-7.69,2.36-15.5,4.39-23.4,6-24,5.08-47.5,13-69.4,24.2-11.5,5.73-22.3,12.6-33.1,19.5-7.21,4.72-14.6,9.51-20.1,16.2-9.22,11.1-15,24.7-18.1,38.7-1.83,9.67-3.08,19.7-0.965,29.5,1.75,8.45,8.21,14.6,13,21.5-4.21,1.26-8.59,1.48-12.9,1.76-14.4,1.54-28.9,1.48-43.3,2.23-5.59,0.3-11.2,0.598-16.8,0.163,2.14-9.39,3.12-19,5.66-28.3,6.01-22.5,15.6-44.1,29.1-63.1,11.6-19.2,26.7-36.2,43.4-51.1,10.7-8.72,22.1-16.5,34-23.5,17.4-9.62,35.9-16.9,55-22.3,22-6.8,47-11.3,72-12.3z" fill="#417DA5"/>
<path d="M266-63.3c7.54-2.38,15.5-0.927,23.1-0.197,12.2,1.33,24.8,0.947,36.4,5.25,14,4.99,29,6.58,42.6,12.7,7.66,3.84,15.3,7.82,22.3,12.9,9.19,7.36,18.6,14.5,27.4,22.3,8.46,7.66,18.9,13.3,25.6,22.8,8.44,11.6,14.4,25.9,13.5,40.5-2.27,2.19-6.06,1.77-9.04,2.34-32.6,1.85-65.1,3.62-97.7,5.51-56.7,5.18-113,13.1-169,25-1.45,0.106-3.11,0.729-4.46-0.085-0.527-1.19-1.38-1.72-2.57-1.57-6.09,0.474-12,1.98-18,3.11-10.6,2.03-21.3,3.22-32,4.67-3.49,0.398-7.03,0.952-10.5,0.4-4.77-6.83-11.2-13-13-21.5-2.12-9.72-0.862-19.8,0.965-29.5,3.08-14,8.91-27.6,18.1-38.7,5.53-6.71,12.9-11.5,20.1-16.2,10.8-6.91,21.7-13.8,33.1-19.5,21.9-11.2,45.4-19.1,69.4-24.2,11-1.6,18-3.6,26-6z" fill="#488BB7"/>
<path d="M485,62.3c14-1.91,28.6-2.51,42.3,1.2,4.2,0.934,7.16,4.12,9.5,7.52,0.926-0.526,1.86-1.04,2.81-1.57,9.83,7.79,16.6,18.9,20.8,30.6,5.26,12.7,9.22,25.8,12.4,39.1,2.94,12.1,10.3,22.3,14.9,33.7-9.71,4.73-20.4,6.66-30.5,10.2-11,3.79-22.3,6.9-33.4,10.4-13.1,4.23-26.6,6.83-39.9,10.2-10.8,2.81-21.9,4.64-32.7,7.48-20.9,5.46-42.3,8.6-63.6,12.2-43.2,6.43-86.5,11.8-130,14.5-50.8,4.06-102,6.2-153,5.1-6.21,0.338-12.4-0.436-18.6-0.819-9.13-0.167-18.3,0.217-27.4-0.123-12.5-1.05-25-2.27-37.6-3.16-3.36-0.29-7.42-0.501-9.26-3.84-4.56-7.59-8.43-15.9-9.33-24.8-1.2-10.5,2.28-20.7,4.51-30.9,3.01-13.9,6.82-27.7,8.11-41.8,1.49-7.36,2.41-14.8,3.01-22.3,10.2-1.13,20.2-3.62,30.5-4.1,10.5-0.389,21.1-0.285,31.6-0.237,5.76-0.055,11.3-1.81,17.1-2.16,6.73-0.498,13.3-1.94,20.1-2.48-4.45,3.17-8.99,6.27-14,8.42-11.6,5.13-23,12.5-29.6,23.7-3.98,6.6-3.06,15.1,1.4,21.2,5.48,7.63,10.2,16.7,18.9,21,9.67,4.87,19.9,9.21,30.8,9.95,19.6,1.74,39.7,1.74,59-2.66,67.8-12.8,135-26.6,203-40.9,11.6-2.32,23-5.79,34.9-6.25,16.5-0.742,33.1-2.51,49.2-6.59,5.98-1.62,12.3-2.21,17.9-5.09,6.02-3.76,8.1-11.4,7.74-18.1,0.057-11.6-4.47-23.5-13.5-31-5.9-4.68-12.5-8.4-18.9-12.3,8,0.6,14-1.9,22-3.4z" fill="#417DA5"/>
<path d="M429,72.7c11.6-0.73,23-2.98,34.4-5.03,6.42,3.92,13,7.64,18.9,12.3,9.07,7.49,13.6,19.4,13.5,31,0.358,6.74-1.73,14.4-7.74,18.1-5.57,2.88-11.9,3.47-17.9,5.09-16.1,4.08-32.6,5.85-49.2,6.59-11.9,0.456-23.3,3.93-34.9,6.25-67.5,14.3-135,28.1-203,40.9-19.3,4.4-39.4,4.39-59,2.66-10.9-0.744-21.2-5.08-30.8-9.95-8.77-4.35-13.4-13.4-18.9-21-4.47-6.11-5.38-14.6-1.4-21.2,6.6-11.2,18-18.5,29.6-23.7,5.05-2.15,9.59-5.26,14-8.42,4.41-2.45,9.74-1.74,14.6-2.73,11.3-2.08,22-6.71,32.5-11.4,8.95,5.28,19.6,2.81,29.3,2.22,79-6.5,157-13.6,236-22.1z" fill="#488BB7"/>
<path d="M175,84.1c1.19-0.15,2.04,0.381,2.57,1.57-3,0.8-3,0.3-3-1.6z" fill="#FFF"/>
</g>
</svg>