<?xml version="1.0" standalone="no"?>
<!DOCTYPE svg PUBLIC "-//W3C//DTD SVG 20010904//EN"
 "http://www.w3.org/TR/2001/REC-SVG-20010904/DTD/svg10.dtd">
<svg version="1.0" xmlns="http://www.w3.org/2000/svg" width="468pt" height="576pt" viewBox="0 0 468 576">

<polygon points="185,138 194,140 209,149 230,163 251,173 260,163 269,161 283,160 305,150 318,163 328,173 335,189 333,244 330,248 319,253 309,263 277,248 263,233 248,223 233,209 226,197 212,178"
fill="cyan" stroke="none"/>

<polygon points="262,176 271,187 277,198 281,211 283,222 284,230 283,242 278,253 270,270 283,272 288,252 295,223 293,205 288,191 282,183 271,175"
fill="white" stroke="none"/>

<polygon points="201,212 214,201 227,201 235,212 244,221 252,227 263,232 270,240 277,247 276,257 269,270 257,284 244,300 245,318 266,337 271,374 243,381 198,386 184,387 179,378 199,369 183,353 169,353 157,353 142,351 138,354 132,353 124,351 120,350 113,339 112,335 125,316 128,310 136,309 139,309 143,306 146,305 153,308 165,319 182,311 194,287 186,271 179,269 171,267 166,260 166,249 177,241 193,233 195,213"
fill="#EBC952" stroke="none"/>

<polygon points="225,202 216,199 193,209 172,195 167,170 193,169 214,180"
fill="yellow" stroke="yellow"/>

<polygon points="210,439 204,383 188,389 180,378 199,370 199,367 184,352 164,355 152,350 148,351 142,352 137,354 130,353 125,350 120,351 115,368 100,381 83,392 69,400 57,408 51,413 59,421 72,423 89,439 125,452 183,459 198,458"
fill="lightgreen" stroke="none"/>

<polygon points="214,397 218,420 240,420 247,391"
fill="blue" stroke="none"/>

<polygon points="341,21 352,14 358,19 358,34 349,54 351,58 419,52 435,33 435,23 429,15 433,9 440,7 445,7 448,15 446,27 431,66 334,75 342,36"
fill="maroon" stroke="none"/>

<polygon points="150,511 150,537 35,499 24,476 24,472 27,467 34,466 40,466 45,468 68,480 79,481 90,485 105,494 115,502 148,514"
fill="red" stroke="none"/>

<polygon points="137,514 136,544 161,557 172,545 184,537 198,523 191,518 176,515 162,515 158,512"
fill="lightgreen" stroke="none"/>

<polygon points="129,540 132,514 154,512 153,531 136,537"
fill="red" stroke="none"/>

<g transform="translate(0,576) scale(0.182101,-0.182101)" fill="#000000" stroke="none">
<path d="M2400 3129 c-48 -17 -76 -93 -45 -119 21 -17 19 -37 -4 -43 -12 -3
-21 -17 -25 -41 -4 -20 -12 -39 -19 -41 -13 -5 -302 -35 -332 -35 -15 0 -16 3
-7 12 7 7 12 26 12 43 0 19 8 39 20 50 11 10 20 31 20 46 0 32 -44 89 -69 89
-57 0 -129 -99 -92 -127 14 -11 14 -13 -5 -19 -16 -4 -26 -24 -44 -87 -13 -45
-29 -93 -35 -107 -7 -14 -27 -79 -44 -145 -65 -246 -74 -269 -120 -294 -21
-10 -68 -22 -106 -26 -60 -7 -69 -11 -84 -36 -9 -16 -23 -29 -31 -29 -28 0
-124 51 -221 116 -53 35 -102 64 -110 64 -8 0 2 -10 21 -21 19 -12 52 -37 73
-56 47 -42 210 -123 248 -123 32 0 82 -53 111 -117 24 -54 51 -180 42 -195 -4
-7 -29 -9 -66 -5 -50 4 -67 12 -113 47 -77 59 -124 128 -227 331 -22 42 -48
75 -78 98 -25 18 -44 38 -43 42 2 5 -5 9 -15 9 -34 -1 -87 -36 -119 -78 -28
-37 -33 -53 -34 -100 -1 -31 -1 -62 0 -67 0 -6 -15 -17 -35 -24 -43 -15 -40
-24 3 -12 24 7 33 6 37 -5 4 -9 -11 -22 -44 -39 -27 -13 -51 -29 -54 -34 -3
-5 18 4 48 20 l54 29 21 -44 c12 -24 37 -60 57 -80 30 -31 37 -34 54 -24 14 9
24 9 42 0 21 -10 20 -10 -9 -5 -42 7 -44 -12 -3 -35 37 -21 38 -30 4 -42 -32
-13 -40 -8 -47 30 -5 24 -12 30 -31 30 -35 0 -42 -18 -17 -44 25 -27 27 -52 5
-60 -35 -13 -77 52 -52 81 11 14 11 16 -2 11 -25 -8 -24 -61 1 -93 17 -20 22
-39 20 -69 -3 -50 20 -76 77 -85 23 -4 37 -12 37 -21 0 -8 8 -27 19 -42 17
-26 17 -31 4 -60 -8 -18 -21 -47 -28 -65 -8 -22 -26 -39 -54 -53 -23 -11 -47
-20 -52 -20 -5 0 -26 18 -47 40 -39 43 -66 50 -91 24 -10 -9 -24 -13 -36 -9
-23 7 -50 -10 -50 -32 0 -7 -18 -36 -40 -64 -46 -58 -49 -76 -19 -108 12 -13
22 -34 22 -47 0 -25 -42 -87 -80 -117 -13 -10 -29 -24 -36 -30 -27 -26 -103
-75 -127 -82 -28 -8 -130 -82 -130 -94 0 -24 83 -76 108 -66 14 5 14 4 0 -12
-37 -43 -38 -83 -3 -158 23 -49 25 -51 97 -72 40 -12 91 -26 113 -31 38 -7 41
-11 63 -72 13 -35 28 -68 35 -72 7 -4 8 -8 4 -8 -18 0 -76 30 -142 74 -57 37
-78 46 -115 46 -28 0 -58 8 -80 22 -121 74 -191 87 -223 42 -11 -15 -16 -32
-12 -45 5 -14 0 -28 -15 -44 -29 -31 -36 -91 -16 -138 13 -32 26 -43 79 -67
35 -16 101 -41 145 -57 45 -15 82 -31 82 -36 0 -4 -22 -6 -48 -5 -40 2 -57 -4
-107 -36 l-60 -37 60 6 c33 4 98 13 145 21 l85 15 85 -40 c47 -21 105 -45 130
-52 l45 -13 -61 -6 c-33 -4 -65 -9 -70 -13 -5 -3 -29 -8 -53 -11 -23 -2 -45
-7 -49 -10 -3 -3 217 -6 489 -6 508 0 574 4 708 44 28 8 82 18 121 22 39 3 73
11 76 15 3 5 21 9 40 9 19 0 34 5 34 10 0 6 10 10 23 10 12 0 30 7 41 15 16
12 11 13 -40 8 -33 -3 -63 -9 -69 -14 -5 -5 -16 -9 -25 -8 -11 0 -9 3 5 10
103 48 227 135 273 191 38 47 39 61 11 89 -29 29 -91 22 -155 -17 -88 -54
-159 -93 -169 -94 -18 0 -35 60 -55 193 -11 71 -20 132 -20 137 0 4 12 11 27
15 43 10 53 24 53 72 0 36 -4 45 -22 52 -13 5 -29 6 -37 3 -11 -4 -13 1 -8 24
14 71 23 81 74 88 64 8 111 47 115 96 3 35 3 35 -37 35 -22 0 -50 -4 -62 -8
-19 -7 -23 -5 -23 12 0 12 6 21 14 21 16 0 29 52 14 61 -6 4 -4 20 6 43 9 21
29 83 46 139 16 55 36 105 43 109 6 5 33 6 59 3 34 -4 50 -1 62 10 19 19 19
21 6 46 -14 26 -35 24 -57 -5 -10 -13 -31 -26 -48 -29 -16 -2 -24 -2 -17 0 8
3 11 11 8 18 -2 7 2 21 9 32 8 10 15 27 15 38 0 25 57 216 155 520 40 127 98
309 129 405 30 96 78 249 107 339 40 127 49 165 39 171 -10 6 -6 14 14 32 36
30 45 93 18 124 -16 19 -55 45 -64 43 -2 0 -14 -5 -28 -10z m40 -38 c0 -15
-28 -33 -40 -26 -8 5 -8 11 1 21 13 15 39 19 39 5z m-500 -61 c0 -11 -4 -20
-9 -20 -14 0 -23 18 -16 30 10 17 25 11 25 -10z m171 -448 c-5 -9 -14 -35 -20
-57 -6 -22 -32 -107 -57 -190 -25 -82 -58 -197 -74 -255 -16 -58 -45 -154 -64
-215 -20 -60 -46 -143 -58 -182 -13 -40 -26 -73 -29 -73 -3 0 -11 10 -18 23
-10 19 -9 30 7 67 18 45 44 134 81 285 20 80 33 125 96 330 19 61 45 149 57
197 20 78 25 87 48 90 34 5 41 0 31 -20z m111 23 c5 -5 -49 -195 -90 -320 -27
-79 -74 -228 -107 -340 -15 -49 -31 -94 -36 -99 -5 -6 -9 -17 -9 -25 0 -9 -13
-59 -30 -111 -70 -223 -93 -304 -93 -316 0 -8 -7 -14 -14 -14 -35 0 14 251 82
415 6 17 27 77 44 135 18 58 39 121 46 140 15 40 55 170 85 280 12 41 27 98
35 125 8 28 17 64 20 80 11 51 14 55 38 55 13 0 26 -2 29 -5z m-229 -17 c-6
-7 -13 -29 -17 -48 -3 -19 -15 -64 -25 -100 -11 -36 -34 -112 -51 -170 -46
-155 -44 -152 -63 -108 -15 35 -14 41 8 100 13 35 38 110 56 168 47 152 56
170 80 170 16 0 19 -3 12 -12z m-110 -50 c-8 -29 -21 -69 -28 -88 -18 -49 -42
-129 -50 -170 -10 -49 -15 -53 -35 -35 -21 19 -19 34 38 195 54 155 52 150 73
150 17 0 17 -3 2 -52z m-176 -264 c109 -82 133 -128 117 -232 -5 -32 -8 -97
-9 -147 l0 -90 -35 -16 c-19 -10 -46 -29 -59 -43 -30 -32 -42 -32 -92 -4 -43
24 -43 23 -30 64 5 16 14 48 20 72 8 27 18 42 29 43 15 1 15 2 1 6 -12 3 -18
21 -22 62 -7 66 -20 101 -55 148 -25 34 -100 83 -126 83 -19 0 -21 21 -4 38
20 20 37 14 32 -10 l-5 -23 10 23 c7 15 19 22 38 22 15 1 51 9 78 20 65 24 57
25 112 -16z m-202 -97 c45 -30 72 -66 90 -118 34 -95 7 -273 -53 -347 -19 -24
-37 -41 -40 -38 -3 3 2 14 10 23 28 32 52 125 52 203 1 99 -34 206 -84 260
-41 45 -28 53 25 17z m-502 -14 c-7 -2 -21 -2 -30 0 -10 3 -4 5 12 5 17 0 24
-2 18 -5z m179 -63 c4 -25 -1 -35 -30 -56 -29 -23 -33 -24 -29 -8 4 11 9 32
13 48 6 26 5 28 -17 21 -16 -5 -21 -4 -14 3 6 6 24 12 40 15 17 2 31 5 31 6 1
0 4 -13 6 -29z m-104 13 c-10 -2 -26 -2 -35 0 -10 3 -2 5 17 5 19 0 27 -2 18
-5z m147 -23 c9 -16 11 -30 6 -30 -11 0 -31 32 -31 49 0 19 9 12 25 -19z
m-208 14 c-3 -3 -12 -4 -19 -1 -8 3 -5 6 6 6 11 1 17 -2 13 -5z m33 -28 c0 -3
-4 -8 -10 -11 -5 -3 -10 -1 -10 4 0 6 5 11 10 11 6 0 10 -2 10 -4z m185 -36
c17 -7 17 -9 3 -9 -10 -1 -18 -4 -18 -7 0 -10 54 -49 64 -46 11 4 46 -28 46
-42 0 -6 25 -22 56 -35 42 -18 54 -28 51 -41 -3 -12 7 -24 34 -39 58 -33 47
-55 -15 -31 -14 5 -26 7 -26 5 0 -3 18 -12 40 -21 36 -14 39 -19 34 -43 -7
-26 -31 -62 -80 -116 -14 -16 -60 -72 -101 -122 -42 -51 -78 -93 -81 -93 -3 0
-14 7 -24 17 -14 13 -18 13 -18 2 0 -8 7 -23 15 -33 22 -29 19 -32 -20 -28
-20 2 -35 0 -35 -6 0 -6 9 -8 19 -5 12 3 26 -3 37 -15 9 -11 23 -18 30 -15 7
2 19 -9 28 -26 12 -22 26 -32 50 -37 28 -5 37 -13 50 -45 25 -63 21 -82 -23
-102 -29 -13 -52 -16 -92 -11 -47 5 -62 2 -116 -24 -88 -42 -109 -46 -132 -23
-17 17 -24 18 -50 8 -17 -6 -31 -17 -31 -24 0 -10 -12 -7 -42 9 -35 18 -65 23
-165 28 -67 3 -125 8 -128 12 -4 4 -1 13 6 20 10 10 47 13 134 13 128 -1 195
-15 195 -42 0 -9 14 3 30 26 17 23 41 46 53 52 21 9 20 9 -3 4 -14 -4 -32 -6
-40 -5 -8 1 -62 3 -120 4 -58 1 -124 8 -147 15 -36 12 -40 16 -30 32 9 14 6
25 -16 56 -26 37 -36 83 -19 83 14 0 52 -77 46 -93 -9 -23 53 -53 78 -38 15 9
27 7 62 -14 49 -29 91 -32 143 -10 19 8 39 15 44 15 8 0 69 -61 69 -70 0 -3
-21 -13 -46 -24 l-46 -19 28 -17 c29 -20 54 -17 54 6 0 17 -17 18 -23 2 -2 -7
-8 -10 -12 -5 -11 9 24 36 48 37 9 0 17 -4 17 -10 0 -5 5 -10 11 -10 6 0 9 7
5 15 -3 8 -1 15 4 15 6 0 10 -4 10 -10 0 -5 5 -10 11 -10 6 0 9 7 6 15 -4 8 4
22 18 34 30 23 31 31 6 31 -32 0 -50 -11 -44 -26 8 -21 -21 -17 -41 5 -15 16
-15 22 -4 40 7 11 25 23 40 26 23 6 61 35 44 35 -8 0 -74 -35 -98 -52 -14 -10
-21 -10 -35 4 -22 23 -5 57 43 83 20 10 40 28 46 39 10 20 10 20 -8 4 -35 -30
-223 -120 -239 -114 -9 3 -22 20 -29 38 l-14 31 -7 -34 c-5 -19 -10 -28 -13
-21 -6 18 19 104 35 120 7 7 13 19 13 25 0 7 -4 6 -10 -3 -8 -13 -10 -12 -10
3 0 41 -19 12 -30 -49 -16 -83 -44 -120 -84 -110 -38 9 -31 41 9 41 20 0 31 6
33 18 2 11 -3 17 -16 17 -18 0 -19 3 -9 29 6 16 13 29 16 29 29 -3 33 3 15 23
l-19 21 -16 -39 -16 -38 -7 59 c-9 65 0 84 31 68 15 -9 23 -7 36 9 26 30 40
23 87 -39 8 -11 32 -31 53 -45 l39 -26 -39 -17 c-60 -26 -67 -30 -70 -41 -4
-12 46 -48 54 -39 3 3 -5 14 -18 25 -28 24 -13 28 19 5 12 -8 22 -11 22 -5 0
5 -5 13 -10 16 -22 14 4 26 46 21 28 -4 43 -2 39 4 -3 6 1 7 9 4 9 -3 16 -2
16 4 0 6 -6 12 -12 15 -7 3 10 15 37 27 28 12 68 31 90 41 l40 19 -54 -5 c-30
-4 -67 -9 -82 -12 -36 -7 -37 6 -9 77 27 68 65 126 96 147 14 9 53 20 86 25
41 5 75 18 105 38 25 17 48 28 52 25 3 -4 11 -21 18 -38 10 -27 12 -28 12 -9
1 12 -8 40 -19 61 -17 35 -49 61 -159 133 -16 11 -45 18 -78 18 -42 0 -53 4
-58 19 -9 28 9 65 40 81 15 8 31 25 36 37 9 24 29 28 64 13z m-265 -132 c0 -7
3 -24 6 -38 5 -23 4 -22 -12 5 -9 17 -22 33 -28 37 -6 5 -1 8 12 8 12 0 22 -6
22 -12z m120 -18 c0 -5 -4 -10 -10 -10 -5 0 -10 5 -10 10 0 6 5 10 10 10 6 0
10 -4 10 -10z m151 -49 c36 -36 36 -45 1 -80 -59 -59 -216 -96 -285 -67 -32
13 -37 20 -37 46 0 23 9 40 31 61 33 31 44 35 54 19 18 -29 95 0 95 36 0 10
14 14 56 14 48 0 59 -4 85 -29z m303 6 c-3 -8 -12 -18 -20 -21 -11 -4 -10 0 3
18 20 26 27 28 17 3z m-454 4 c0 -19 -29 -32 -56 -25 -26 7 -26 8 -9 20 21 16
65 19 65 5z m254 -80 c17 -19 18 -23 5 -35 -29 -28 -95 -56 -131 -56 -49 0
-48 14 2 40 25 13 47 34 57 55 18 37 31 36 67 -4z m193 7 c-3 -7 -5 -2 -5 12
0 14 2 19 5 13 2 -7 2 -19 0 -25z m219 -53 c-12 -37 -21 -44 -29 -21 -6 14 18
56 32 56 4 0 3 -16 -3 -35z m-592 -43 c3 -5 -7 -15 -22 -23 -14 -8 -36 -25
-47 -38 l-21 -23 -17 26 c-22 33 -15 46 26 46 18 0 39 5 47 10 19 12 27 12 34
2z m326 -97 c0 -17 -4 -18 -37 -9 -29 8 -20 24 13 24 15 0 24 -6 24 -15z m-21
-25 c11 0 11 -3 1 -15 -7 -9 -9 -26 -5 -45 8 -35 -7 -40 -43 -14 -37 25 -47
53 -25 70 10 8 27 12 38 9 11 -3 26 -5 34 -5z m-74 -71 c9 -17 14 -33 11 -37
-10 -10 -55 39 -49 54 8 22 21 16 38 -17z m715 -60 c0 -5 -4 -9 -10 -9 -5 0
-10 7 -10 16 0 8 5 12 10 9 6 -3 10 -10 10 -16z m-197 -36 c-7 -2 -19 -2 -25
0 -7 3 -2 5 12 5 14 0 19 -2 13 -5z m-1211 -46 c1 -15 6 -27 11 -27 4 0 3 -10
-4 -21 -11 -21 -11 -21 -30 7 -22 33 -25 70 -6 77 17 6 27 -5 29 -36z m1135
-9 c-3 -8 -6 -5 -6 6 -1 11 2 17 5 13 3 -3 4 -12 1 -19z m-428 -52 c-9 -9 -89
-14 -83 -5 3 5 24 9 46 9 23 0 39 -2 37 -4z m-399 -35 c0 -5 -13 -14 -30 -20
-37 -13 -39 -6 -2 13 33 18 32 18 32 7z m-155 -41 c3 -5 -3 -10 -14 -10 -11 0
-23 5 -26 10 -3 6 3 10 14 10 11 0 23 -4 26 -10z m-37 -213 c61 -36 92 -74 68
-83 -8 -3 -33 7 -56 21 -73 46 -117 57 -202 49 -76 -6 -148 0 -148 14 0 4 12
15 26 23 22 13 48 15 143 12 108 -5 120 -7 169 -36z m282 13 c0 -16 -7 -20
-37 -20 -21 0 -53 -9 -72 -21 -36 -22 -45 -21 -35 4 6 16 67 43 114 50 14 2
26 5 28 6 1 0 2 -8 2 -19z m-616 -64 c31 -8 85 -15 121 -15 106 0 234 -69 219
-119 -23 -70 -49 -79 -103 -33 -50 43 -135 63 -259 62 -81 0 -111 3 -133 16
-16 10 -29 23 -29 30 0 18 8 16 37 -7 21 -17 40 -20 112 -19 47 0 106 4 131 8
l45 7 -55 7 c-30 4 -80 14 -110 22 -30 8 -68 17 -85 20 l-30 7 25 13 c32 18
47 18 114 1z m639 -25 c6 -26 0 -31 -37 -31 -17 0 -47 -4 -65 -10 -19 -5 -37
-7 -40 -5 -11 11 30 38 76 51 63 17 60 17 66 -5z m749 -3 c-9 -9 -15 -9 -24 0
-9 9 -7 12 12 12 19 0 21 -3 12 -12z m-588 -7 c3 -4 0 -15 -7 -24 -15 -21 -43
-6 -34 17 7 17 32 22 41 7z m-164 -89 c0 -5 -21 -10 -47 -11 -27 -1 -56 -4
-65 -7 -26 -8 -22 5 5 16 28 11 107 13 107 2z m-10 -30 c0 -20 -106 -57 -115
-41 -4 5 2 9 13 9 10 0 27 9 37 20 18 20 65 28 65 12z m618 -249 l8 -60 -65
-6 c-47 -4 -88 -16 -141 -41 -98 -47 -106 -47 -108 7 -1 23 -5 68 -8 100 l-6
57 49 1 c26 1 93 4 148 8 55 3 103 4 107 1 4 -3 11 -33 16 -67z m-374 -4 c3
-34 6 -88 6 -120 l0 -57 -51 -7 c-27 -4 -53 -5 -56 -2 -5 6 24 208 34 233 3 8
18 14 33 14 26 0 27 -3 34 -61z m-1080 26 c71 -33 95 -52 84 -63 -17 -17 -26
-15 -83 13 -27 13 -67 25 -87 25 -44 0 -53 25 -15 40 25 10 56 6 101 -15z
m535 -39 c21 -12 34 -33 56 -91 15 -42 25 -78 22 -81 -9 -9 -135 17 -154 32
-10 8 -13 14 -8 13 23 -3 24 4 1 66 -13 35 -21 67 -18 70 11 10 74 5 101 -9z
m-280 -61 c40 -25 78 -45 84 -45 7 0 4 -7 -5 -14 -20 -15 -22 -24 -8 -46 8
-13 11 -12 25 5 16 20 16 19 5 -2 -6 -13 -8 -23 -5 -23 3 0 7 0 10 0 3 1 12
-6 20 -13 8 -8 51 -20 95 -28 71 -11 80 -15 64 -26 -25 -18 -41 -17 -130 13
-102 34 -291 135 -309 164 -10 16 34 60 60 60 11 0 54 -20 94 -45z m661 0 c-5
-22 -10 -56 -10 -76 0 -54 -13 -60 -118 -53 l-91 7 -25 59 c-14 33 -26 63 -26
68 0 5 18 3 40 -5 104 -37 182 -28 215 22 22 33 26 26 15 -22z m565 -133 c0
-29 -3 -52 -7 -52 -17 0 -37 13 -32 21 3 5 -16 9 -42 9 l-47 0 54 39 c30 22
59 38 64 37 6 -2 10 -26 10 -54z m-849 -5 c4 -4 -5 -7 -19 -7 -15 0 -27 4 -27
8 0 10 36 9 46 -1z m41 -43 c3 -8 1 -20 -6 -27 -15 -15 -65 3 -69 26 -3 14 4
17 33 17 23 0 38 -5 42 -16z m153 -10 c0 -8 -5 -14 -11 -14 -5 0 -7 5 -4 10 3
6 1 10 -5 10 -6 0 -8 5 -5 10 8 13 25 3 25 -16z m-47 -1 c-7 -2 -19 -2 -25 0
-7 3 -2 5 12 5 14 0 19 -2 13 -5z m-46 -9 c-3 -3 -12 -4 -19 -1 -8 3 -5 6 6 6
11 1 17 -2 13 -5z m43 -8 c0 -3 -4 -8 -10 -11 -5 -3 -10 -1 -10 4 0 6 5 11 10
11 6 0 10 -2 10 -4z m593 -17 c31 -6 57 -15 57 -19 0 -19 -233 -67 -369 -76
l-101 -7 0 30 c0 28 3 31 43 36 23 3 74 13 112 23 39 9 87 17 107 18 20 1 40
5 45 9 4 5 17 6 28 3 11 -3 46 -11 78 -17z m-658 -7 c-3 -3 -11 0 -18 7 -9 10
-8 11 6 5 10 -3 15 -9 12 -12z m-15 -23 c0 -7 16 -8 46 -3 33 5 45 3 40 -4 -4
-6 -14 -8 -23 -5 -9 4 -14 2 -11 -3 3 -5 -9 -9 -28 -10 -19 0 -31 2 -29 5 3 3
-5 11 -17 18 l-23 12 23 1 c12 0 22 -5 22 -11z m-27 -16 c-7 -2 -19 -2 -25 0
-7 3 -2 5 12 5 14 0 19 -2 13 -5z m195 -30 c-2 -10 -12 -17 -23 -17 -11 1 -33
2 -50 3 l-30 2 25 14 c37 21 82 20 78 -2z"/>
<path d="M1630 2263 c0 -15 -7 -41 -16 -58 -14 -28 -14 -29 1 -14 20 19 37 87
24 95 -5 3 -9 -7 -9 -23z"/>
<path d="M1624 2174 c-18 -14 -18 -15 4 -4 12 6 22 13 22 15 0 8 -5 6 -26 -11z"/>
<path d="M1683 2073 c15 -2 37 -2 50 0 12 2 0 4 -28 4 -27 0 -38 -2 -22 -4z"/>
<path d="M1143 1958 c-6 -22 -15 -33 -27 -32 -9 1 -15 -3 -13 -10 2 -6 21 -12
43 -13 21 -1 31 1 21 4 -14 4 -16 12 -11 44 8 47 0 51 -13 7z"/>
<path d="M1220 1956 c0 -14 -4 -28 -10 -31 -17 -11 -11 -23 16 -29 29 -8 64 1
64 14 0 5 -8 7 -17 4 -17 -5 -17 -5 0 6 9 6 17 16 17 22 0 6 -11 3 -25 -6 -34
-22 -38 -20 -30 14 4 19 3 30 -4 30 -6 0 -11 -11 -11 -24z"/>
<path d="M1335 1900 c-3 -5 -1 -10 4 -10 6 0 11 5 11 10 0 6 -2 10 -4 10 -3 0
-8 -4 -11 -10z"/>
<path d="M1238 1274 c-4 -3 2 -15 12 -27 11 -11 23 -17 27 -13 4 3 -2 16 -13
27 -11 11 -23 17 -26 13z"/>
<path d="M1264 1165 c36 -19 42 -19 26 0 -7 8 -22 15 -34 15 -18 0 -17 -2 8
-15z"/>
<path d="M769 797 c26 -28 31 -32 31 -19 0 4 -13 16 -28 26 l-27 19 24 -26z"/>
<path d="M2028 1433 c7 -3 16 -2 19 1 4 3 -2 6 -13 5 -11 0 -14 -3 -6 -6z"/>
<path d="M605 1199 c-61 -41 -171 -92 -284 -130 -170 -58 -203 -71 -198 -75 2
-2 38 7 81 21 42 14 81 25 86 25 6 0 29 8 53 19 23 10 69 29 102 42 66 26 172
82 195 105 21 21 -1 17 -35 -7z"/>
</g>

</svg>
