<?xml version="1.0" standalone="no"?>
<!DOCTYPE svg PUBLIC "-//W3C//DTD SVG 20010904//EN"
"http://www.w3.org/TR/2001/REC-SVG-20010904/DTD/svg10.dtd">
<svg width="469pt" height="530pt" viewBox="0 0 469 530" xmlns="http://www.w3.org/2000/svg">

  <path fill="#dbe9ee" stroke="none" d="M 54.18530 106.6773 L 37.25240 211.6613 L 8.466454 286.1661 L 74.50479 333.5783 L 120.2236 406.3898 L 123.6102 448.7220 L 162.5559 497.8275 L 231.9808 430.0958 L 306.4856 458.8818 L 338.6581 408.0831 L 362.3642 360.6709 L 423.3227 358.9776 L 433.4824 326.8051 L 404.6965 289.5527 L 435.1757 250.6070 L 414.8562 206.5815 L 426.7093 169.3291 L 401.3099 133.7700 L 370.8307 94.82428 L 328.4984 84.66455 L 294.6326 57.57190 L 304.7923 33.86581 L 281.0863 30.47925 L 230.2875 52.49200 L 196.4217 71.11823 L 128.6901 35.55911 L 94.82428 35.55911 L 52.49201 25.39935 L 33.86581 37.25241 L 54.18530 106.6773 z "/>
  <g transform="translate(0,530) scale(0.508696,-0.508696)" fill="#000000" stroke="none">
    <path d="M90 990 c0 -5 15 -10 33 -10 21 0 38 -7 47 -20 15 -21 50 -28 50 -10 0 6 9 10 20 10 11 0 20 -4 20 -9 0 -5 17 -16 39 -24 27 -11 41 -24 45 -42 7 -29 1 -45 -17 -45 -7 0 -36 -15 -64 -34 -34 -22 -55 -30 -61 -24 -6 6 -15 7 -21 4 -15 -9 -14 -39 1 -54 9 -9 8 -12 -5 -12 -21 0 -22 -26 -1 -38 14 -8 14 -12 -4 -43 -29 -51 -37 -159 -15 -197 23 -40 12 -50 -25 -23 -17 12 -35 21 -41 21 -19 0 -61 31 -61 46 0 8 -6 11 -15 8 -21 -8 -19 -27 6 -44 11 -8 31 -25 45 -37 13 -12 33 -24 44 -28 23 -7 27 -25 5 -25 -22 0 -19 -56 5 -80 11 -11 33 -20 49 -20 38 0 50 -17 49 -68 0 -31 5 -47 21 -61 11 -10 21 -23 21 -29 0 -6 11 -19 24 -29 13 -10 26 -29 30 -41 7 -21 26 -31 26 -13 0 5 18 36 41 70 31 47 48 63 76 70 33 9 38 8 74 -26 22 -21 42 -45 45 -55 6 -21 24 -24 24 -5 0 7 13 31 29 53 16 21 34 64 40 94 11 49 23 69 44 70 4 0 7 -6 7 -13 0 -8 11 -24 26 -37 28 -27 28 -27 66 45 11 22 29 48 39 58 21 20 25 37 8 37 -6 0 -8 8 -5 18 4 12 -1 26 -14 37 -11 10 -20 24 -20 31 0 19 44 46 64 38 27 -10 17 14 -36 88 -10 14 -10 24 0 51 16 44 15 66 -3 73 -15 6 -32 -8 -51 -41 -17 -30 -41 -29 -60 2 -52 84 -74 110 -126 144 -34 21 -77 40 -104 44 -26 3 -56 15 -67 26 -20 18 -20 19 -1 25 102 33 124 44 124 61 0 12 -4 12 -27 -1 -16 -8 -53 -19 -85 -26 -34 -7 -59 -17 -62 -27 -6 -14 -9 -13 -27 5 -11 12 -28 22 -38 22 -10 0 -25 7 -32 16 -10 12 -25 15 -57 11 -31 -3 -45 -1 -49 9 -6 16 -93 20 -93 4z m750 -440 c0 -5 -5 -10 -12 -10 -20 0 -58 -43 -58 -66 0 -13 15 -35 36 -54 l37 -32 -32 -28 c-30 -28 -31 -28 -41 -9 -6 10 -21 19 -34 19 -20 0 -23 4 -19 28 6 38 35 135 46 150 11 14 77 16 77 2z m-601 -204 c47 -45 139 -88 170 -81 17 3 32 2 36 -4 3 -6 1 -11 -6 -11 -15 0 -38 -30 -39 -50 0 -9 -9 -22 -20 -30 -11 -8 -20 -23 -20 -34 0 -23 -27 -56 -46 -56 -8 0 -23 20 -35 45 l-21 44 22 40 c26 46 22 66 -17 83 -41 17 -63 38 -63 60 0 24 9 23 39 -6z m409 -28 c-9 -14 -13 -37 -10 -60 2 -20 -2 -51 -9 -68 -13 -28 -29 -40 -29 -21 0 5 -13 14 -30 21 -16 7 -30 16 -30 21 0 5 -11 9 -25 9 -14 0 -25 4 -25 9 0 5 -3 16 -6 25 -5 12 0 16 19 16 13 0 36 9 50 20 14 11 32 20 40 20 8 0 25 9 38 19 30 24 36 19 17 -11z"/>
    <path d="M50 980 c-8 -5 -9 -13 -4 -21 4 -8 10 -30 11 -51 2 -21 10 -50 18 -65 12 -23 12 -30 1 -43 -25 -28 -41 -89 -28 -102 7 -7 12 -31 12 -55 0 -24 4 -43 10 -43 19 0 32 43 27 85 -6 42 9 86 37 109 7 6 16 21 19 34 4 17 1 22 -13 22 -29 0 -36 15 -38 80 -2 38 -29 64 -52 50z"/>
    <path d="M567 962 c-22 -24 -22 -25 16 -65 38 -42 90 -69 112 -61 13 5 15 2 10 -17 -5 -20 1 -29 37 -51 61 -41 83 -35 57 13 -8 16 -7 26 6 46 9 13 14 27 12 30 -3 3 -42 8 -86 12 -68 6 -84 10 -97 29 -8 12 -22 22 -31 22 -9 0 -13 6 -9 15 3 8 9 22 12 30 9 21 -19 19 -39 -3z"/>
  </g>
</svg>
