<?xml version="1.0" standalone="no"?>
<!DOCTYPE svg PUBLIC "-//W3C//DTD SVG 20010904//EN"
"http://www.w3.org/TR/2001/REC-SVG-20010904/DTD/svg10.dtd">
<svg width="397.6pt" height="68.4pt" viewBox="0 0 397.6 68.4" xmlns="http://www.w3.org/2000/svg">
  <g fill="black" stroke="#772813" stroke-linejoin="bevel" stroke-linecap="butt">
    <path d="M13.6,22.8c-0.7-0.9-8.9,1.5-10.3,2.5C8.3,22.5,8.2,20,3,17.9c-2.7-3.1-3.3-7-3-11c0,6.7,3.1,7.7,8.4,11.4c0.1-2.6,0.9-5,2.6-7.1c-1.8,4,0.7,9,2.7,11.5 M7.9,20c-1.3-2.1-3.2-3.6-5.5-4.4c1.8,1.5,3.7,2.9,5.5,4.4 M41.4,61c-2.2,4.8-4.2,3.8-5.5-1.6 C12.5,80.8,1.1,44.1,3.8,27.6c0,10.7-2.2,25,7.4,32.6c0.1-2.6,29.1-5.4,30.3,0.7 M4.4,21c-1.1,1.4,0-0.6,0,0 M5.7,34.5c-0.9,0.7-1.4,0,0,0 M7.2,32.2c-2.7,0.8-2.3-0.1,0,0 M6.2,37.9c-1.5-1.2-1.3-1.1,0,0 M14.1,40.2c0,1-7.9,0.3-9.2,0.1c0.3-0.1,9.2-1.9,9.2-0.1  M14.1,44.2c-3,0-6-0.2-9-0.4c-1-4.6,8.1-0.7,9,0.4 M13.6,29.2c-2.8,0-5.6-0.1-8.4-0.2c2.7-0.3,6.4,0.1,8.4,0.2 M42.6,26c-9.5,0.5-12.3-19.3-21.1-12.2c-8.4,6.9-1.7,20.3,0.6,27.9c2.1-4.6,0.6-10.1-2.5-13.9c2,2.1,3.2,4.6,3.7,7.6c1.7-4.2,1-8.1,0-11.4 c0.3,1.2,1.3,3.7,1.9,5.7c1.5-1.1,2.6-2.5,3.3-4.2c0.6,0.4,1.2,0.9,1.8,1.3c-2.4,1.1-4.1,2.8-5.2,5.2c1.1,0,4.2,0.4,5.2,0.4c-2.8,0.3,0.3,2-4,0.2c-3.9,1.4-4.5,12.2-5.6,15.5c0.9-4.1,1.9-10.4-2.3-13.4C18.1,40,17.6,47.1,19,52.3c3.7,13.6,15.6,0.5,16.4-7.2 c0,19.1-20.2,13.8-20.2-3.8C15.2,33.5,10.4,9,23.4,9C26.7,9,40.3,28.3,40,20.5c-0.3-6.1-0.9-26.7-7.1-13.9c-9.3-9.1-22.9-4-27.5,6.9C8.1-1.4,26.2,1.4,34.5,1.4c12.1,0,8.1,15.4,8.1,24.6 M14.3,47.9c-2.7,0.4-6,0.4-8.7,0c-0.1-0.7-0.1-1.4-0.2-2c4.3-1.1,7,0,8.9,2  M15.1,52.2c-2.8,0-5.6,0-8.4,0c-0.2-1-0.4-1.9-0.6-2.9c3.2-1,9-1.3,9,2.9 M13.6,31.2c0,3.2-7.5,5.4-0.3,6.8c-1.8,4-13.1-5.6,0.3-6.8 M17.3,56.5c-4.7,0-7.5,1.2-9.9-3.1c5.5-1,6.4-0.2,9.9,3.1 M10.3,38.3c-1.7-1.8-1.8-3.7-0.3-5.6c-2.9,2.4-2.8,4.3,0.3,5.6  M34.4,63.4c-4.4,6.3-22.1,6.8-25.2-2.3c7.3,7,18.1,5,25.2,2.3 M13.7,35.1c-1.4-0.3-2.3,0.6-2.8-0.7c1.2-0.3,2.7,0.6,2.8,0.7 M13.7,36.9c-1.4,0-3.9-0.5,0,0 M41.4,55.5c0,2.9-6.2,2-8.3,1.4c1.2-3,8.3-6.9,8.3-1.4 M41.4,52.3c-1.9,0-3.8,0-5.7,0 c0.8-6.8,5.1-0.6,5.7,0 M47,67c-3.5,0.2-8,0.3-10.6-0.9c9.1,2.7,10.4-1.3,10.4-9.1c0.1,3.3,0.2,6.6,0.2,9.9 M41.5,48.3c-1.6,0-3.2,0-4.8,0c-2.1-7.3,4.7-0.2,4.8,0 M44.9,28.6c-2.3-0.7-4.9,0.8-7-0.5c12.3,2.7,6.4-14.3,6.4-22.1c0.2,7.5,0.5,15.1,0.6,22.6  M44.5,63.8c-1.9,1.9-1.7-15.7-1.7-18.1c3.8,1,1.7,14.7,1.7,18.1"/>
    <path d="M93.3,36.5c0,19.6-14.6,35-34.9,24.4c-11.9-6.2-11.9-21.5-10.3-32.5c0,9.8-2.5,23.8,7.5,30c5.9-2.2,21.5-1,29.8-0.6c0,0.7-1,0.9-0.9,1.7c4.9-3.6,10.2-18.4,6.1-23.9c-2.9-3.8-9.5,2.1-5.4-3.6c-3.9-0.7-6.2-3.1-6.9-7c7,4.3,8.8-0.8,12.1,7.4 c0.9-8.7-1.6-19.9-8.7-26c-7.6-6.5-26-6.2-29.5,5.2c0.7-0.5,1.4-1,2.1-1.5C55,23.7,80.4-5.6,80.4,24.4C80.9,18.6,77.7,13,71,13c-13.7,0-5.4,16.5-4.3,22.8c4.1-5.4,8.8-5.6,9.8-0.4c-5.8-9.1-9,4.7-13,10.3c2.3-6.3,4.4-13.2-0.6-18.9c0,8-5.6,30.5,7.5,30.5 c12.3,0,10.4-18.1,10.1-26c0.7,8-3.3,40.3-18.1,23.3C54.3,45.3,62,31,57.7,22.2c-0.1,2,0.4,4.1-1.1,5.9c-3.7-6.8-5.5-0.1-10.7-2c5.8-5.4-0.8-5.1-0.8-11.4c3.2,2.5,17.1-16.6,29.6-13.2c14.5,3.9,18.6,22.1,18.6,35 M50.6,19.6c-1.1-0.5-2.2-1.1-3.3-1.6 c1,1.1,2.1,1.7,3.3,1.6 M51.4,22.2c0.8-0.9-4.3,3.6-3.4,3.2c1.6-0.1,3.4-1.3,3.4-3.2 M57.5,38.2c-2.7,0-5.4-0.2-8.1-0.4c0-0.3,0-0.6-0.3-0.8c3.6-1.2,6.8,0.6,8.4,1.1 M57.5,32.4c-2.7,0-5.4,0-8.1,0c2.4-0.8,6.1-0.1,8.1,0 M57.5,35.4c-3.2-0.1-6.1,0.4-8.1-1.1 c3-0.6,6.8,0.7,8.1,1.1 M57.5,40.9c-3.7-0.1-6.6,0.9-8.1-1.5c3.6-0.9,6.7,0.9,8.1,1.5 M57.5,44.1c-3.2-0.1-7.6,1.6-8.1-1.9c4.5-1.2,6.6,1.1,8.1,1.9 M57.7,47.9c-2.6,0.1-5.2-0.1-7.8-0.2c0.4-0.8-0.6-1.6-0.2-2.4c4.8-0.6,6-0.3,8,2.6 M57.5,29.1 c-2.6,0-6,0.2-7.8-0.3c2.6,0.1,5.2,0.2,7.8,0.3 M58.6,51.4c-3.4,1.1-7.3,1-8.5-2.4c1.9,0.3,8.5-1.6,8.5,2.4 M53.2,15.6c0-1.2-0.7-2.3-0.3-3.5c-2,2,0.3,6.2,0.3,3.5 M61.4,56.3c-4.2-1.1-7.9,2.4-9.6-3.4c5-1.4,6.8,0.2,9.6,3.4 M95.6,33.7 c0,10.6,0.2,25.5-10.8,31.3c-8.9,4.7-28.1,3.8-32.7-7.1c34.5,31.5,58.6-29.2,33.3-51.4c8,6,10.2,17.8,10.2,27.2 M54.2,19.6c0-3,0,3.8,0,0 M56,24.4c-1-1.5-1.3-2,0,0 M58.4,18.1c-1,0.8-2,1.6-3,2.4c1.3-0.4,2.3-1.2,3-2.4 M59,21.2c-0.5-0.8-0.4-0.7,0,0 M88.1,53.6 c0,4.8-7.1,2.5-9.3,3.1c0-4.8,6.5-4.5,9.3-3.1 M89.2,49.7c0,3.3-6.1,2.6-8.1,2.1c-1.3-4,7-2.1,8.1-2.1 M89.4,48.2c-2.5,0-4.9,0-7.4,0c-1.6-5.6,6.2-2,7.4,0 M89.7,38.7c-1.3-0.1-7.7,0.4-7.7-0.8c0-3.4,8.9,1.3,7.7,0.8 M89.4,44.5c-2.5-0.2-4.9-0.1-7.4-0.2 c2.8-3.3,5.3-1,7.4,0.2 M89.7,41.4c-3.6-0.1-6.1,1-7.5-1.5c3.6-0.9,6.2,1,7.5,1.5"/>
    <path d="M166.1,20.4c-2.3,9.3-4.6,18.6-6.9,27.9c-3.3-8.7-15.5-29.9-12.1-39.9c-1.1,3.1,14.1-5.8,6.8-5.9c-6.5-0.1-13.1-0.1-19.6-0.2c-8.9-0.1-11.2,5.5-0.9,5.5c10.9,14.3,14.1,39.3,19.4,56.1c-4.3-9.9-7.2-20.4-10.6-30.6c-6.3,8.9-3.3,24.9-11.4,30.6 c5-19.1,18.6-46.1-5.4-56.1c-2.6,1.9-6.1,5-5,9.6c-0.9,0.1-1.8,0.2-2.6,0.3c-6.2-10.5,15.4-15.5-2-15.3c-2.7,0-20.5-1.2-20.9,1.2c-0.2,1.3,0,2.6,0,4c10.2,1.2,11.4,6.7,13.6,16.1c-3.5-11.1-8.1-8.3-12.7-14.2c-3.1-3.9-2.7-8.2,2.4-8.2c9.1,0,21.6,0,28.7,0 c6.8,0,30.2-4.7,30.8,4.6c0.7,9.8-2,2.5-6.3,6.2c-3.1,2.7,7.5,26.2,8.7,29.5c2.3-6.9,3.5-14.8,6-21.1 M135.8,19c-2.6,9.9-5.2,19.8-7.7,29.7c-3.6-9.1-6.2-18.6-9.1-27.9c-0.1-0.1,6.9,5.9,7,5.9c5.8-4.3-8.7-8.2-12.4-5.9c-8.3,4.9-7.6,18.7-3.4,25.8 c-0.6-4.7-1.7-10.3,1.1-14.7c3.4,1.4,1.6-0.3,4.4,0.4c-0.9,0.6-2.4-1.1-2.8-1.1c2.7,0,5.4-0.1,8,0.3c0.1,1.8-1.3,2-4.4,0.8c2.1,0.9,3.1,2.1,2.9,3.9c-12.9-6-6.2,15.9-2.5,20c-9.6-7.3-7.5-34.9-18-36.2c0.2,1.3-0.2,2.4-1.1,3.2c-3.8-0.9-1.3-3.7,0.8-3.7 c5.7,0,7.1,6.6,8.4,10.7c1.8-6.4,6.9-11.8,13.9-11.8c9.3,0,11.8,14,4.1,11.2c1,4.3,1.9,8.5,3.9,12.6c4.2-5.5,5-17.3,7-23.1 M111,30.7c-0.5-0.9-1-1.8-1.3-2.8c1,0.7,1.4,1.6,1.3,2.8 M119.4,28.2c-2.2,0.9-5.4,0.4-7.7,0.4c2.6,0,5.1-0.7,7.7-0.4 M121.4,63.8 c-3.7-8.2-5.2-17.1-8.2-25.5c3.2,8.4,5.8,16.9,8.2,25.5 M123.6,40.2c-2.2,0.1-8,1.3-8.4-1.3c3.9-0.3,6.2,0.5,8.4,1.3 M124.9,43.8c-4,0.1-6.8,1-8.8-1.9c5,0,5.9-0.8,8.8,1.9 M126.1,47.7c-3.8,0.5-7.9,1.7-9-2.2c4.2-0.8,6.6,0.1,9,2.2 M127.3,51.9 c-2.2,0.3-9,1.4-9-1.8c0-2.6,8.3-1,9,1.8 M131.8,53.6c-1.7,3.9-13.7,5.2-11.9-0.4c3.9,0.1,8-0.2,11.9,0.4 M121.7,34.6c-2.2,0.4-1.6-0.5,0,0 M122.5,37.3c-3.1-1.1-2-0.7,0,0 M130.6,57.8c-1,9-9.3,8.1-9.7,0c3.2-0.4,6.4,0,9.7,0 M128.1,25c0-2.3-3.8-7.2-6.6-5.8 c1.3,0.6,10.7,8.5,3.3,8.5c1.7,0.8,2.8-0.1,3.3-2.7 M142.5,39.2c-2.4,14-3.4,34.6-20.8,26.9c18.3-0.2,15.8-9.7,20.8-26.9 M133,49.1c-1.9,1.5-0.2,4.2-4.2,3.1c0.6-3.9,2.7-1.8,4.2-3.1 M134.2,45.5c0,5.5-3,0.9-4.6,2.5c-0.1-0.3-0.2-0.6-0.1-1 c0-2.7,3.7-0.9,4.7-1.5 M135.1,42.5c0,2.3-4.3,2.4-4.3,0.3c0-0.9,4.3-2.1,4.3-0.3 M135.9,39.3c0,1.8-3.5,1.2-4.5,0.9c0.5-1.6,4.5-2.2,4.5-0.9 M136.7,36.6c0,1.5-3.8,0.9-4.6,0.7c0.2-0.7,4.6-2.7,4.6-0.7 M137.4,34.1c-0.4,1.2-3.6,0.8-4.4,0.5 c0.9-0.6,2.8-0.3,4.4-0.5 M137.9,31.6c-1.4,0.1-2.8,0.2-4.1,0.3c1.3-0.9,2.7-0.9,4.1-0.3 M138.7,28.6c-1.4,0-2.8,0-4.1,0c1.4-0.8,2.8-0.8,4.1,0 M150.8,28.6c-2.8,0-5.5,0-8.3-0.1c2.5-0.8,6.1-0.2,8.3,0.1 M152,31.9c-2.9,0-6.5,0.1-8.3-0.7 c2.7-0.4,6.6,0.6,8.3,0.7 M153,34.6c-3,0.1-6.2,0.4-8.7-0.4c3.7-0.5,5.9,0.3,8.7,0.4 M153.8,37.3c-2.9,0-6,0.6-8.8-0.4c2.4-1.2,6.9,0,8.8,0.4 M154.9,40.1c-1.5,0.1-9,1.8-9-1.2c1.3,0.4,9-1.3,9,1.2 M156.1,44c-2,0.1-9.2,1.5-9.2-1.7c0-1.8,8.4-1.2,9.2,1.7  M157.4,47.9c-4.4,0.2-7.3,1.2-9.2-2.5c5-1.4,6.9,0.3,9.2,2.5 M158.8,52.1c-3.1,0.5-9.6,1.6-9.6-2.9c5.4,1.3,4.7-1.2,9.6,2.9 M164.6,53.6c-1,6.2-12.8,5.1-13.8,0c4.6,0,9.2,0,13.8,0 M163.4,57.8c-0.5,7.7-11.1,10.4-11.1,0c3.4,0,7.8-0.8,11.1,0 M190.9,12.2 c-9.4-0.9-10.5,7.6-12,15c0.4-4.2,1.7-12.3,5.3-15.8c-14,7.1-2.1,68.7-31,55c19.4-0.4,16.4-7.6,21.6-25.9c-3.1,16.5,1.2,2.8,1.2-0.2c0-7.1-6.1-6.3-6.8-11.8c1.1-0.5,2.3-0.8,3.5-0.9c-5.7-3-0.4-7.8-8.9-9.5c3.7,2.3,6.4,0.1,10.4,4.2c2.2-4.4,2.9-9.4,4.6-14.1 c2.2-0.9,6.6,0.2,6.6-2.4c0.2-5.3-3.3-3.7-7.9-3.7c-3.4,0-16.1-2.1-16.3,1.8c-0.3,7,8,0.7,5.5,12.7c-2.2-7.1-6.8-5-6.8-15.6c6.4-0.8,13-1,19.4-1c10.5,0,4.8,6.3,10.1,11.2c0.1-2.2,0.2-4.4,0.4-6.6c0.9,2.4,1.2,4.9,0.9,7.4 M165.7,49.2c-0.4,3.3-2.7,3.9-5.9,2.9 c-1.7-4.1,4.4-2.3,5.9-2.9 M166.9,46.2c0,2.7-4.6,2.3-6.2,1.8c-1.6-3.3,6.2-3.2,6.2-1.8 M167.7,43.1c0,2-6.1,1.7-6.1-0.2c0-4,7,0.3,6.1,0.2 M168.6,39.6c0,1.9-5.3,1-6.3,0.8c2-2.5,4.3-0.9,6.3-0.8 M169.3,36.2c-0.8,2.6-4.5,0.7-6.2,1.1c1.7-2.1,3.4-0.7,6.2-1.1  M173.9,35.2c-1.9,7.7-3.4,26-10.4,29c2.7-10.4,5.5-20.8,8.3-31.2c0.7,0.7,1.4,1.5,2.1,2.2 M169.9,34.6c-0.9,0-6,0.8-6.4-0.1c1.4-2.1,5.3,0,6.4,0.1 M170.5,31.9c-2,0-4,0.1-6.1,0.1c0.9-0.8,4.1-1.5,6.1-0.1 M168.4,28.6c-1.1,0-2.2,0-3.3,0c0.5-1.8,3.4,0,3.3,0  M177.5,36.5c0.4-5.1-1.3-10.1-5-13.7c2.7,4.2,4.3,8.8,5,13.7"/>
    <path d="M243.2,47.9c0,21.8-32.8,16.1-46.6,16c-10.2-0.1,3-5.7,8.2-5.9c9.7-0.5,20.2-0.4,30.1-0.4c-0.5,0.7-1,1.4-1.5,2.1c13.4-2.9,6.9-23.7-1.8-28.1c7.7-4.4,8.7-13.8,4-20.8c-6.2-9.3-17.2-8.8-27-8.8c-5.5,0-17.9-2.6-19.1,3.2c-1.2,5.6,8.2,1.4,9.8,8.7 C181.7,1.9,189.8,0.2,210,0.2c11.4,0,27.2,2.8,30.6,15.8c1.9,7.4-1.4,12.1-5.8,17.6c5.1,3.3,8.4,8.2,8.4,14.3 M201,46.2c0,12.4-10,8.2-9.3,17.8c-2.4-9,2.9-4.1,7.3-8.2c3.9-3.6,1.6-15,1.3-19.5c0.5,3.3,0.8,6.6,0.7,9.9 M245.6,49.3c0,24.1-38.4,19.9-53.3,17.2 c15.3-0.2,68.3,3.9,49.5-27.5c2.6,2.9,3.9,6.3,3.9,10.2 M199,49.9c-4.6-6.4-5.9-17.7-1-25.2c-4,7.8-3.3,17.6,1,25.2 M211,34.5c0,6.9-15.7-9.1-12.1,12.1C190.6,34.9,211,25.2,211,34.5 M216.4,17.9c-1.2,2.5-5.6,0.6-6.8,0.1c-0.4,1.8-0.8,3.5-1.2,5.3 c-5.3-3.3-3.3-8.5-10.2,1.2c1.6-2.6,3.7-4.9,6.2-6.7c-1.7-1.8-3.6-2.3-5.5-1.5c1.7-3.4,9.9-3.8,4.6-9.1c3.5,0,8.2,8.7,10,0.2c2.6,4.8-4.5,8,2.9,10.5 M199.8,18.3c-0.3,2.8,0-0.9,0,0 M200.4,29.5c0,4.4-0.6-5.2-0.5-4.8c0.2,1.6,0.4,3.2,0.5,4.8 M210.8,56.8 c-3.1,0.4-6.6-0.2-9.8-0.3c-0.7-1.4,8.5-6.9,9.8,0.3 M206.7,15.8c-2-0.6-1.9-2.2-5.3-1.1c1.9,0,3.4,1.6,5.3,1.1 M210.6,28.6c-2.9,0.4-5.8,0.4-8.7-0.1c2.9,0,5.8-0.4,8.7,0.1 M205.4,37c0,1.5-2.9-0.1-3.5,0.5c1.6-1.9,2.4-0.5,3.5-0.5 M206.1,34.9 c-1.4,0-2.8,0-4.1,0c1.4-1.3,3.2-0.1,4.1,0 M209.8,40.4c-3.2,0.3-6,0.7-7.7-1.1c2-0.5,7.5-1.1,7.7,1.1 M210.3,43.5c0,1.1-7.2,0.6-8.3,0.4c0-0.6,0-1.2,0-1.8c1.9-0.5,8.3-1.3,8.3,1.3 M210.3,47.2c0,2.1-6.5,1.4-8,1.1c0-0.8,0-1.6,0-2.4c3.3-0.8,6.5,0.8,8,1.3  M210.4,51.8c-2.7,0.4-5.4,0.3-8.1,0.3c0-0.9,0-1.8,0-2.6c3.5-1.1,7.5-1.1,8.1,2.4 M209.3,34.5c-1.6-1-2.7-6.1-6.3-2.8c2.1-0.5,5.1,0.2,6.3,2.8 M208.1,12.9c-0.3-1.8-1.3-3.2-2.7-4.3c0.1,0.6,1.2,5.8,2.7,4.3 M208.1,18.4c0-2.4-1,0.5-1,1.4c0.5,2.2,0.8,1.7,1-1.4  M209.4,15.3c0-2.6,0,2.7,0,0 M214.3,18.1c-1.4-0.3-2.6-3.3-4.1-1.5c1.3,1.1,2.6,1.6,4.1,1.5 M213.3,10.4c0-3.3-2.9,4-2.9,3.4c1.5,1.5,2.9-4.5,2.9-3.4 M227.8,19.8c0,10.5-16.4,12-16.9,0.4c0.8-0.2,1.7-0.1,2.5,0.2c1.6,5.1,7.2,13.2,12.8,4 c5.9-9.7-8.7-11.4-10.8-15.5c7.4,0,12.5,2.9,12.5,10.9 M229.1,47.5c0,11.6-16.8,15.9-17.4,2.6c-0.3-6.2-3.1-13.2,4.5-13.5c8-0.4,12.9,1.9,12.9,10.9 M229.8,31.9c-5.8,0.1-13,0.4-18-0.3c6,0,12-0.6,18,0.3 M232.8,34.6c-6.5,0.1-14.8,0.9-20.3-0.4 c6.7,0,13.8-0.3,20.3,0.4 M228.6,47.8c0-5.7-3.4-8.8-9.1-8.8c-7.9,0-5.1,4.6-5,11.2c0.2,12.1,14.1,7.6,14.1-2.4 M233.5,28.6c-2.9,0.5-5.7,0.5-8.5-0.1c2.9,0,5.7-0.2,8.5,0.1 M235.8,37.6c-3.5,0.1-6.9,0.2-9.6-1.2c1.8-0.4,9.6-1.2,9.6,1.2 M238.3,53.4 c-1.8,4.3-6.6,4.7-10.9,3.3c0-5.9,7.8-2.5,10.9-3.3 M237.8,40.4c-0.9,0-9.1,1-9-1.1c2.9-1,7.1-0.7,9,1.1 M239,43.8c-1.3,0.1-10.6,1.5-9.1-1.6c2.8-0.7,8.2-1.2,9.1,1.6 M239.4,50.2c0,3-7.2,2.4-9.3,1.8c0.2-0.9,0.4-1.8,0.5-2.6c1.5-0.3,8.8-0.9,8.8,0.8 M239.5,48 c-3,0.2-6,0.1-9,0.1c0-0.7,0-1.5,0-2.2c3.2-0.9,8.6-1.3,9,2.1 M243.2,21.2C242.9,14.1,238,8,232.4,4.1c6.1,3.4,10.6,10,10.8,17.1 M243.2,22c0,4.3-1.8,7.9-5.5,10.8c3.7-3.5,5.5-7.1,5.5-10.8z"/>
    <path d="M292,36.5c0,19.6-14.6,35-34.9,24.4c-11.9-6.2-11.9-21.5-10.3-32.5c0,9.8-2.5,23.8,7.5,30c5.9-2.2,21.5-1,29.8-0.6c0,0.7-1,0.9-0.9,1.7c4.9-3.6,10.2-18.4,6.1-23.9c-2.9-3.8-9.5,2.1-5.4-3.6c-3.9-0.7-6.2-3.1-6.9-7c7,4.3,8.8-0.8,12.1,7.4 c0.9-8.7-1.6-19.9-8.7-26c-7.6-6.5-26-6.2-29.5,5.2c0.7-0.5,1.4-1,2.1-1.5c0.8,13.7,26.2-15.7,26.2,14.3c0.4-5.8-2.7-11.4-9.4-11.4c-13.7,0-5.4,16.5-4.3,22.8c4.1-5.4,8.8-5.6,9.8-0.4c-5.8-9.1-9,4.7-13,10.3c2.3-6.3,4.4-13.2-0.6-18.9c0,8-5.6,30.5,7.5,30.5 c12.3,0,10.4-18.1,10.1-26c0.7,8-3.3,40.3-18.1,23.3c-8.1-9.3-0.4-23.6-4.7-32.4c-0.1,2,0.4,4.1-1.1,5.9c-3.7-6.8-5.5-0.1-10.7-2c5.8-5.4-0.8-5.1-0.8-11.4c3.2,2.5,17.1-16.6,29.6-13.2c14.5,3.9,18.6,22.1,18.6,35 M249.3,19.6c-1.1-0.5-2.2-1.1-3.3-1.6 c1,1.1,2.1,1.7,3.3,1.6 M250.1,22.2c0.8-0.9-4.3,3.6-3.4,3.2c1.6-0.1,3.4-1.3,3.4-3.2 M256.2,38.2c-2.7,0-5.4-0.2-8.1-0.4c0-0.3,0-0.6-0.3-0.8c3.6-1.2,6.8,0.6,8.4,1.1 M256.2,32.4c-2.7,0-5.4,0-8.1,0c2.4-0.8,6.1-0.1,8.1,0 M256.2,35.4c-3.2-0.1-6.1,0.4-8.1-1.1 c3-0.6,6.8,0.7,8.1,1.1 M256.2,40.9c-3.7-0.1-6.6,0.9-8.1-1.5c3.6-0.9,6.7,0.9,8.1,1.5 M256.2,44.1c-3.2-0.1-7.6,1.6-8.1-1.9c4.5-1.2,6.6,1.1,8.1,1.9 M256.4,47.9c-2.6,0.1-5.2-0.1-7.8-0.2c0.4-0.8-0.6-1.6-0.2-2.4c4.8-0.6,6-0.3,8,2.6 M256.2,29.1 c-2.6,0-6,0.2-7.8-0.3c2.6,0.1,5.2,0.2,7.8,0.3 M257.3,51.4c-3.4,1.1-7.3,1-8.5-2.4c1.9,0.3,8.5-1.6,8.5,2.4 M251.9,15.6c0-1.2-0.7-2.3-0.3-3.5c-2,2,0.3,6.2,0.3,3.5 M260.1,56.3c-4.2-1.1-7.9,2.4-9.6-3.4c5-1.4,6.8,0.2,9.6,3.4 M294.3,33.7 c0,10.6,0.2,25.5-10.8,31.3c-8.9,4.7-28.1,3.8-32.7-7.1c34.5,31.5,58.6-29.2,33.3-51.4c8,6,10.2,17.8,10.2,27.2 M252.9,19.6c0-3,0,3.8,0,0 M254.7,24.4c-1-1.5-1.3-2,0,0 M257.1,18.1c-1,0.8-2,1.6-3,2.4c1.3-0.4,2.3-1.2,3-2.4 M257.7,21.2c-0.5-0.8-0.4-0.7,0,0  M286.8,53.6c0,4.8-7.1,2.5-9.3,3.1c0-4.8,6.5-4.5,9.3-3.1 M287.9,49.7c0,3.3-6.1,2.6-8.1,2.1c-1.3-4,7-2.1,8.1-2.1 M288.1,48.2c-2.5,0-4.9,0-7.4,0c-1.6-5.6,6.2-2,7.4,0 M288.4,38.7c-1.3-0.1-7.7,0.4-7.7-0.8c0-3.4,8.9,1.3,7.7,0.8 M288.1,44.5 c-2.5-0.2-4.9-0.1-7.4-0.2c2.8-3.3,5.3-1,7.4,0.2 M288.4,41.4c-3.6-0.1-6.1,1-7.5-1.5c3.6-0.9,6.2,1,7.5,1.5"/>
    <path d="M328.2,18.9c-5,0-6.7,3.2-6.3,7.7c-10-12-11.3,17.9-4.8,25.7c-5.9-4.5-4.9-13-8.4-18.8c4.3,6.3,3.4-7,9.1-11.4c-2-0.5-4.1-0.8-6.2-0.9c0.5-4.9,6.9-3.3,0.8-8.4c3.6,2.2,8.5,4.1,7.9-1.6c-1.5,0.1-1.7,2.3-1.7,2.3c-11.5-3.6,8.6-3.9,4-11.7 c-2.6-2.4-18.2,0-21.8,0c-6.2,0-8-1.3-7.6,4.9c0,0.3,8,3.4,8.9,4.3c4.6,4.8,6.6,12.2,9.2,18.1c-4.5-7.7-4.9-16.8-14.8-18.5c-8.4-1.5-5.1-9.9,2.5-9.9c7.7,0,15.4,0,23.2,0c6.2,0,3.9,9.4,0.1,10.6c-0.7,4.6,1.3,7.1,6.1,7.6 M307.9,32.5c-3.9-5.1-12.9-1.7-10.3-12.8 c1.8,5.6,6.7,8.1,10.3,12.8 M302.4,28.3c-1.5-1.1-2.7-2.1-3.5-3c0.4,1.5,1.5,2.5,3.5,3z M318.5,47.3c0,12.3-9,7.2-8.4,16.5c-1.3-2.7-2.6-7.7,2.9-6.7c9.3,1.7,5.1-16.5,2.2-20.5c2.6,3.1,3.7,6.7,3.3,10.8 M343.2,65.7c0,4.8-30.1,1.3-32.6,0.6 c7.6,0,33.9,5,31.4-5.8c1.4,1.1,1.1,3,1.1,5.2 M336.7,64.3c-2.6,0-31.8,0.5-25.2-5.4c7.8-1.3,25.2-4.8,25.2,5.4 M329.5,35.1c0,4-6.4,5-6.4,0.8c3.5,2.3,5.9-5.6-0.5-5.6c-7.4,0-10.4,7.8-9.3,13.8c-2.6-12.3,16.3-19.6,16.3-9 M314,34c-0.5-0.1-0.9-0.8-1-2l1,2z  M326.6,18.1c-5.7-4.6-1.6,0.7-4.9-5.4c-0.8,1.2-1.5,2.5-2.3,3.7c-1.4-1.2-2.5-2.6-4.6-2.6c0.4,1.5,1.1,2.9,2.2,4c-0.7,0.2-7.1,2.3-1.9,2.7c0.2,0,4.5,2.9,6.8,3.5c0-5.8-1.2-1.6,4.8-6 M316,31.6c-3.8,0.5-1.1-0.1,0,0 M323.1,28.5c-2.9,0-5.9,0-8.8,0 c2.7-1.2,6.5-0.1,8.8,0 M325.8,34.9c-3-0.1-6-0.2-9-0.4c3-1,7.3,0,9,0.4 M321.9,37.2c-1.1,0-4.7,1.1-4.8-1.1c1,0.3,4.3,1,4.8,1.1 M329.5,38.7c-2.2,1.8-6.7,2.4-10.8,1.6c-0.2-0.5-0.4-1.1-0.6-1.6c3.4-0.7,8.1-0.1,11.4,0 M320.8,19c-0.9,1.5-1.7,1.4-2.6-0.4 c0-1.7,2.6-1.4,2.6,0.4 M320.4,18.8c-1-3.6-0.9,3.3,0,0 M328.5,41.8c-1.8,2.1-4.5,3.1-8.7,1.9c-0.1-0.6-0.2-1.3-0.4-1.9c3,0,6.1-0.2,9.1,0 M328.7,56.7c-2.8,0.7-6.3,0-9.2,0c2.7-3.6,7.3-6.5,9.2,0 M328.1,47.9c-2.8,0.1-5.6-0.2-8.4-0.3c-0.1-0.8,0-1.6,0.4-2.4 c4.8-1.1,6.4,0.2,7.9,2.6 M328.2,51.8c-3.8,0.3-8.2,1.7-8.4-2.6c5.2-0.8,6.5-0.4,8.4,2.6 M324.4,31.9c-1.3,0-2.7,0.1-4,0.1c-0.5,1.7,4-2.2,4-0.1 M358,7.9c-2,3.4,3.9,3.7-4.3,3.4c-6.9-0.2-8.3,7.6-10.8,12.9c-4.9,10.8-9.3,19.5-8.4,31.4 c-3.4-11.9,5.9-39.2,16.1-45.3c-8.1,4.8-12.9,18.5-16.7,27.7c-1.8,4.4-2,6.7-1.8,11.5c0.4,12.1,7.9,3.6,7.9,14.6c-0.6,0.1-1.3,0.1-1.9,0.2c0-10.1-13.4-6.5-8.1-22.8c2.8-8.6,6.9-17,10.7-25.3c1.8-3.8,11.9-10.6,11.9-10c0.3-9.2-24-4.4-24-1.4 c-1.5,4.5,6.3,1.3,6.8,4.3c0.9,5.9-5.8,15.5-8.2,20.8c-6.2-0.9-3.9-5-4-8.4c1.4,2.1,2.7,4.2,4,6.3c4.6-8,9.2-12.7,2.4-17.4c-4.6-3.2-2.6-9.6,2.4-9.6c10,0,25.2-4.8,24.6,9c0.1-1.7,0.2-3.5,0.3-5.2c0.3,1.1,0.6,2.2,0.9,3.3 M328.5,35.3c0-6.4,0,6,0,0 M334,28.5 c-1.6,0-3.2,0-4.8,0c3.5-0.6,2.8-0.1,4.8,0 M332.7,31.9c-1.6-0.2-2.7,0.4-3.4-0.6c1.1-0.2,3.4,0.6,3.4,0.6 M330.6,36.6c0,1.8,0,0,0,0 M331.8,34.3c0,0.6-2.7,0.7,0,0"/>
    <path d="M354.8,52.1c0,3.4,0,6.8-0.1,10.2c0-6.5-1-12.9-0.3-19.4c0.3,3,0.4,6.1,0.4,9.2 M394.7,47.9c0,18.9-21.3,17.1-32.7,10.7c-4.4,10.4-7.2-1.6-6.1-2.1c10.7,1.1,20.9-1.2,31.4,0c-0.7,1.1-2,2.8-3,3.8c18.6-3.6,1.6-25.4-5.2-30.2c-22.1-15.6-2.7-30,3-13.7 c8.2,23.4,7.1-29.5,0.9-9.2c-14.1-11-34.2,1.5-24.6,18.3c-11.6-15.6,8.7-30.2,23.1-21.5c6.8-12.4,18.1,19.9,5.9,21.1c-4.8,0.5-6-7.6-6.8-10.1c-3.7-8.2-15.4-1.1-9.7,6.6c7.7,10.5,23.9,10.2,23.9,26.3 M361.2,46.8c-1.8,0-3.5,0-5.3,0c1.4-5.8,3.3-5.5,5.3,0  M362.6,50.8c-2.2-0.1-4.5-0.2-6.7-0.3c-0.2-0.9,0-1.7,0.5-2.4c3,1.8,3.6,0.1,6.2,2.6 M366.5,55.5c-20.7,4.3-3.5-10.6,0,0 M381,33.3c-4.5-3.4-15.7-8.9-16,1.2c-4.1-1.3-1.8-6.6-8.9-5.6c6.8-5.7,1.7-3.7,6.5-8.4c2.3,7.4,14.1,7.2,18.4,12.8 M364,65.5 c-2.9,1-5.9,0.7-7.9-0.9c2.7-0.5,6.4,0.6,7.9,0.9 M369.9,27.5c-3.2-1.3-6.3-1.2-9.5,0.4c3.2-0.1,6.3-0.1,9.5-0.4 M380.3,49.2c0,14.9-17.3,3.7-18.3-6c6.3,1,4.3,20.9,16.1,10.8c8.9-7.6-8-18.1-11.6-20.9c5.6,3.8,13.8,8.2,13.8,16.1 M397.6,48 c0,15.3-21.1,28-32.3,14.7c21.1,14.6,43.2-14.7,22.5-30.8c6,3.5,9.8,9,9.8,16.1 M376,31.8c-3.2,0-6.4,0.2-9.1-0.7c3.1-0.4,6.5,0.3,9.1,0.7 M379.3,34.2c-3.2,0-6.5,0.2-9.3-0.6c3.1-0.4,6.7,0.3,9.3,0.6 M385.9,36.5c-3.9,0.8-9.3,0.4-12.5-0.9 c1.7-0.2,12.1-1.2,12.5,0.9 M387.9,39.8c-3.3,0.6-9.5,1.1-11.9-1.5c2.3,0,11.9-1.8,11.9,1.5 M389.6,43.4c-4.4,0.1-7.8,0.8-10.6-2.1c4.4-0.7,8-0.6,10.6,2.1 M389.9,52.3c-1.1,4.5-6.6,4.5-10.6,3.2c1.1-6,6.9-2.4,10.6-3.2 M390.6,47.2c-3.8,0.4-8.9,1.6-9.7-2.6 c5.6,1.1,6.2-1,9.7,2.6 M390.9,49c0,3.2-6.8,2.5-9.2,1.8c0-0.8,0-1.6,0-2.5c1.4-0.2,9.2-0.6,9.2,0.6 M393.9,26.7c-2.5,0.9-5.4,0-8,0c11.9,3,7.1-13.2,8-20.2c0,6.7,0,13.5,0,20.2"/>
  </g>
</svg>
