<?xml version="1.0" standalone="no"?>
<!DOCTYPE svg PUBLIC "-//W3C//DTD SVG 20010904//EN"
 "http://www.w3.org/TR/2001/REC-SVG-20010904/DTD/svg10.dtd">
<svg version="1.0" xmlns="http://www.w3.org/2000/svg" width="468pt" height="340pt" viewBox="0 0 468 340">

<polygon points="276,47 274,67 284,92 311,128 328,141 334,163 333,178 329,198 302,240 316,250 336,234 341,206 348,182 356,162 369,148 380,137 397,142 413,140 424,125 418,114 411,108 385,93 354,71 329,73 309,72" 
fill="white" stroke="none" />

<polygon points="210,197 213,232 289,237 295,205 264,181" 
fill="white" stroke="none" />

<polygon points="196,299 227,293 254,289 269,289 281,291 289,293 291,312 271,308 266,315 255,318 241,318 222,316 196,310" 
fill="white" stroke="none" />

<polygon points="290,305 322,300 333,291 359,293 372,297 383,301 392,309 395,313 394,317 389,317 383,323 369,321 365,322 360,329 352,332 333,331 319,330 301,325 291,319" 
fill="white" stroke="none" />

<g transform="translate(0,340) scale(0.213699,-0.213699)" fill="#000000" stroke="none">
<path d="M1963 1572 c-5 -4 -15 -24 -22 -44 -7 -20 -19 -42 -27 -49 -8 -7 -33
-39 -56 -71 -22 -32 -47 -58 -54 -58 -7 0 -33 -16 -59 -36 -40 -30 -84 -54
-101 -54 -2 0 -4 7 -4 16 0 28 54 71 98 79 48 8 57 25 13 25 -65 0 -131 -53
-131 -106 0 -17 -8 -19 -82 -19 -81 0 -84 1 -112 33 -16 18 -43 40 -59 49 -35
17 -134 119 -143 146 -3 9 -12 17 -20 17 -12 0 -13 -5 -4 -22 l11 -23 -17 23
c-9 12 -20 22 -25 22 -17 0 -9 -32 14 -52 12 -11 16 -17 10 -13 -8 4 -13 -1
-13 -12 0 -12 12 -23 34 -31 38 -14 71 -69 61 -102 -3 -11 7 -46 24 -84 25
-57 27 -67 14 -77 -26 -22 -43 -67 -43 -116 l1 -48 20 28 c23 31 39 35 39 10
0 -13 3 -14 12 -5 15 15 48 16 48 2 0 -5 8 -10 18 -10 12 0 8 -6 -13 -19 -32
-19 -73 -61 -61 -61 4 0 22 11 39 24 47 36 76 40 116 15 30 -18 33 -22 18 -30
-9 -6 -22 -19 -28 -31 -12 -21 -12 -21 16 1 16 12 32 18 37 13 13 -13 26 -101
21 -146 -8 -75 -12 -86 -34 -86 -29 0 -100 39 -122 66 -25 32 -113 89 -162
104 -22 7 -53 20 -70 30 -16 9 -52 23 -79 30 -43 12 -50 12 -61 -3 -7 -9 -14
-15 -16 -12 -8 8 -64 -11 -63 -21 1 -5 -16 -19 -37 -32 -42 -25 -53 -48 -18
-37 20 7 20 5 -5 -31 -16 -24 -26 -52 -26 -75 0 -23 -7 -42 -20 -54 -28 -26
-122 -31 -191 -12 -103 29 -251 49 -319 43 -115 -11 -181 -38 -243 -99 -21
-20 -43 -37 -48 -37 -5 0 -9 -7 -9 -15 0 -11 15 -7 63 15 52 25 75 30 137 30
112 0 179 -10 173 -26 -6 -16 64 -28 136 -23 28 2 51 0 51 -4 0 -14 142 18
192 43 13 7 35 23 49 36 l26 25 13 -43 c18 -61 29 -108 23 -108 -2 0 -14 12
-27 27 -24 27 -46 25 -46 -5 0 -9 11 -61 25 -115 14 -54 25 -126 25 -162 0
-40 5 -67 12 -72 49 -31 313 -62 351 -41 12 7 25 11 30 10 4 -1 7 5 7 14 0 12
7 15 25 11 16 -3 24 0 22 7 -2 6 -14 13 -28 14 -31 5 -93 59 -77 68 13 8 72 7
99 -1 16 -5 19 -17 19 -65 0 -51 3 -62 23 -74 50 -34 113 -48 217 -50 100 -2
106 -1 133 23 21 19 36 25 63 22 19 -1 42 3 51 11 9 7 18 11 21 8 3 -3 10 3
16 12 8 14 4 24 -22 51 -43 44 -137 76 -221 76 -80 -1 -91 10 -91 96 0 62 0
62 51 108 29 26 56 47 60 47 15 0 10 57 -8 101 -14 36 -15 49 -4 87 20 76 78
185 120 226 l40 39 44 -13 c25 -6 62 -9 84 -6 33 6 43 2 82 -29 24 -19 47 -33
50 -29 6 6 -27 37 -70 67 -21 15 -21 16 -3 41 11 14 23 26 27 26 13 0 90 -41
125 -67 17 -13 32 -20 32 -14 0 16 -62 63 -117 88 -78 36 -77 53 2 53 66 0 87
14 39 26 -14 4 -49 4 -77 1 -37 -4 -57 -2 -71 8 -11 8 -25 15 -32 15 -6 0 -31
20 -56 44 l-44 44 26 32 c25 31 27 32 68 21 23 -7 46 -19 51 -29 8 -13 13 -14
22 -5 15 15 -33 62 -73 70 -15 3 -28 7 -28 9 0 1 15 32 34 68 19 35 32 67 30
69 -3 2 2 10 11 17 8 7 15 18 15 24 0 7 16 20 35 29 19 9 35 21 35 26 0 19
-20 22 -36 7 -23 -24 -26 -19 -9 13 15 30 9 46 -12 33z m-562 -311 c27 -34 24
-44 -19 -72 l-38 -25 -22 50 c-24 56 -27 76 -12 76 15 0 12 21 -7 44 -10 11 4
4 31 -15 26 -19 57 -45 67 -58z m216 -103 c30 -27 140 -53 159 -37 12 10 18 9
31 -3 21 -22 7 -41 -27 -35 -14 3 -39 -1 -54 -9 -16 -8 -36 -14 -45 -14 -13
-1 -12 -3 4 -12 28 -16 54 -50 55 -70 0 -23 -40 -49 -89 -55 -45 -6 -120 19
-147 48 -16 18 -16 19 14 19 17 0 34 5 37 10 4 6 -8 10 -29 10 -25 0 -36 5
-36 14 0 26 20 28 57 6 19 -11 38 -19 40 -16 8 8 -8 27 -31 36 -19 8 -18 9 9
10 30 1 30 1 9 18 -48 40 -58 99 -22 132 l22 20 12 -27 c6 -16 20 -36 31 -45z
m297 -84 c8 -3 12 -12 9 -21 -4 -10 0 -14 12 -11 27 5 29 -18 3 -27 -22 -8
-22 -8 5 -12 31 -5 31 -6 16 -35 -9 -16 -17 -19 -41 -14 -26 5 -29 4 -18 -9
11 -13 6 -14 -36 -9 -67 8 -81 21 -53 50 12 13 20 33 19 51 -1 15 -2 31 -1 36
1 8 63 10 85 1z m-144 -119 c0 -3 -17 -21 -39 -40 -64 -58 -125 -190 -156
-337 -12 -55 -20 -75 -30 -72 -7 3 -16 -3 -19 -14 -4 -11 -16 -28 -28 -38 -21
-19 -21 -19 -11 1 35 69 64 164 85 280 9 48 8 72 -4 116 l-14 56 62 -5 c52 -4
68 -1 98 18 20 12 36 26 36 31 0 5 5 9 10 9 6 0 10 -2 10 -5z m-595 -340 c11
-7 45 -21 75 -30 66 -21 85 -37 76 -62 -7 -16 -11 -15 -37 15 -33 37 -39 39
-39 13 0 -25 -19 -31 -95 -31 -44 0 -68 5 -79 16 -16 15 -22 84 -9 97 9 9 84
-4 108 -18z m136 -240 c10 -39 19 -87 19 -108 0 -35 -2 -38 -22 -31 -13 5 -44
7 -70 6 -44 -1 -47 0 -56 31 -6 18 -13 49 -16 70 -4 32 -2 37 12 33 25 -7 47
13 61 57 12 35 14 37 33 25 13 -9 27 -39 39 -83z m143 -7 c10 -29 20 -83 22
-120 l3 -68 -34 0 c-41 0 -46 11 -47 117 -2 132 23 163 56 71z m-378 -14 c18
7 30 -17 39 -75 l7 -47 -39 -6 c-21 -4 -61 -10 -89 -12 l-51 -6 -12 72 c-7 39
-11 74 -8 76 3 3 15 0 27 -6 29 -15 89 -4 98 18 6 16 7 15 10 -1 2 -11 9 -16
18 -13z m79 -191 c41 -39 47 -48 31 -51 -11 -2 -33 10 -55 32 -40 39 -67 50
-34 14 44 -49 42 -51 -38 -44 -90 8 -109 14 -109 29 0 19 42 51 75 58 65 14
79 10 130 -38z m565 32 c37 -19 90 -73 90 -91 0 -9 -12 -14 -35 -14 -28 0 -43
9 -79 45 -25 25 -53 45 -63 44 -16 0 -16 -1 2 -12 31 -19 75 -64 75 -77 0 -7
-16 2 -36 20 -20 17 -52 39 -70 48 -31 14 -42 31 -29 44 13 12 117 7 145 -7z
m-501 -26 c17 -17 31 -36 31 -42 0 -6 -7 -2 -15 10 -8 12 -27 31 -41 42 -15
12 -22 21 -16 21 6 0 24 -14 41 -31z m-34 1 c3 -5 1 -10 -4 -10 -6 0 -11 5
-11 10 0 6 2 10 4 10 3 0 8 -4 11 -10z m655 -62 c0 -6 -1 -9 -3 -7 -2 2 -15
22 -31 44 l-28 40 31 -33 c17 -18 31 -37 31 -44z m-286 51 c40 -11 142 -100
129 -112 -3 -4 -21 -7 -40 -7 -26 0 -41 8 -64 35 -39 44 -60 46 -23 3 l27 -33
-39 -3 c-21 -1 -63 6 -93 16 -43 14 -55 23 -56 41 -1 15 3 20 13 16 8 -3 16 3
19 15 3 11 17 23 32 26 14 3 31 7 36 9 16 6 18 5 59 -6z"/>
<path d="M1570 1167 c0 -27 13 -36 26 -16 3 6 -1 18 -10 27 -15 15 -16 14 -16
-11z"/>
</g>

</svg>
