<?xml version="1.0" standalone="no"?>
<!DOCTYPE svg PUBLIC "-//W3C//DTD SVG 20010904//EN"
"http://www.w3.org/TR/2001/REC-SVG-20010904/DTD/svg10.dtd">
<svg width="468pt" height="468pt" viewBox="0 0 468 468" xmlns="http://www.w3.org/2000/svg">

  <path fill="#dbb213" stroke="none" d="M 305.7700 313.2460 L 276.6135 305.0223 L 262.4090 311.0032 L 247.4569 335.6741 L 263.1566 358.1022 L 299.7892 355.8594 L 319.2269 336.4217 L 319.9745 322.2172 L 309.5080 314.7412 L 305.7700 313.2460 z "/>
  <path fill="#dbb213" stroke="none" d="M 119.6166 210.0766 L 100.1789 225.0287 L 97.18851 228.0191 L 94.19810 242.2236 L 97.18851 248.9520 L 99.43132 257.1757 L 106.9074 264.6517 L 114.3834 267.6422 L 121.8594 269.8850 L 140.5495 246.7092 L 143.5399 236.2428 L 139.8019 231.0096 L 144.2876 222.0383 L 141.2971 218.3003 L 138.3067 216.8051 L 130.0831 222.0383 L 119.6166 210.0766 z "/>
  <path fill="#dbb213" stroke="none" d="M 189.1438 139.8019 L 194.3770 127.8402 L 204.8435 115.8785 L 225.7764 103.9169 L 231.7572 78.49835 L 245.9617 76.25555 L 263.9042 115.1310 L 272.1278 124.8498 L 266.8946 149.5207 L 232.5048 191.3865 L 213.0671 186.9009 L 219.7956 163.7252 L 228.7668 142.7923 L 236.2428 135.3163 L 231.7572 119.6166 L 199.6102 136.0638 L 192.8818 139.8019 L 189.1438 139.8019 z "/>
  <path fill="#6352b9" stroke="none" d="M 224.2812 93.45044 L 214.5623 73.26514 L 215.3099 55.32263 L 225.0288 48.59421 L 231.0096 48.59421 L 265.3994 71.02231 L 284.0895 62.79868 L 303.5272 62.05106 L 316.9841 96.44086 L 303.5272 139.0543 L 275.1183 134.5686 L 270.6326 122.6070 L 261.6614 110.6453 L 243.7189 71.76993 L 230.2620 77.00314 L 224.2812 93.45044 z "/>
  <g transform="translate(0,468) scale(0.183529,-0.183529)" fill="#000000" stroke="none">
    <path d="M1203 2273 c-21 -11 -33 -24 -33 -37 0 -20 0 -20 16 0 15 18 15 18 10 -6 -3 -14 -6 -41 -6 -60 0 -26 -3 -31 -10 -20 -24 37 -8 -41 20 -96 25 -50 27 -61 15 -74 -12 -13 -9 -15 25 -15 31 0 41 5 49 23 7 14 7 22 1 22 -6 0 -10 -4 -10 -10 0 -5 -10 -10 -21 -10 -17 0 -20 4 -15 23 3 12 6 28 6 35 0 6 4 12 8 12 5 0 7 -15 5 -32 -3 -25 -2 -30 6 -18 6 8 11 32 11 52 0 37 14 59 23 36 4 -10 8 -10 15 1 7 9 12 10 16 2 4 -6 11 -9 16 -6 4 3 2 -19 -4 -48 -8 -32 -17 -51 -25 -49 -8 2 -10 -4 -6 -16 4 -15 -1 -21 -22 -25 -31 -7 -98 -45 -91 -53 3 -2 19 3 36 12 41 20 92 35 92 26 0 -4 -31 -20 -68 -37 -37 -16 -102 -51 -144 -77 -80 -47 -89 -47 -63 1 15 30 111 121 126 121 5 0 9 5 9 11 0 7 -11 4 -27 -6 -93 -59 -179 -185 -127 -185 9 0 63 25 119 55 l104 56 10 -38 c9 -30 8 -39 -4 -46 -39 -21 -127 -249 -109 -279 4 -6 21 -8 39 -5 20 3 41 0 54 -9 18 -13 22 -12 38 13 10 15 24 32 31 36 7 5 23 23 34 40 11 18 18 25 15 16 -7 -20 -22 -132 -19 -141 1 -4 -10 -3 -24 2 -14 6 -29 10 -34 10 -12 0 -41 -56 -33 -64 4 -3 1 -6 -6 -6 -7 0 -9 -5 -5 -12 4 -7 3 -8 -4 -4 -14 8 -46 -50 -36 -66 4 -7 3 -8 -4 -4 -11 7 -17 -7 -12 -29 1 -5 -1 -7 -5 -3 -4 4 -34 -29 -66 -72 -88 -119 -88 -119 -147 -109 -27 4 -63 14 -79 22 -26 14 -30 13 -56 -9 -36 -31 -41 -30 -68 7 l-22 31 27 25 c21 19 26 33 24 56 -2 18 -8 31 -14 30 -9 -2 -9 7 -1 33 9 29 8 38 -6 51 -14 14 -21 15 -43 4 -23 -10 -30 -9 -47 6 -21 18 -21 18 -4 -9 21 -33 21 -38 2 -38 -8 0 -15 9 -15 19 0 11 -4 22 -9 26 -6 3 -9 -6 -8 -21 2 -24 -3 -28 -48 -42 -57 -17 -46 -29 12 -13 50 14 94 15 73 1 -8 -5 -14 -12 -12 -15 10 -22 -3 -36 -43 -46 -25 -6 -48 -15 -51 -20 -7 -12 3 -11 60 6 50 15 76 9 61 -15 -4 -6 -28 -21 -54 -32 -25 -11 -41 -22 -34 -25 7 -2 33 5 58 16 53 24 60 11 10 -21 -19 -13 -35 -29 -35 -36 0 -20 -52 -2 -73 25 -10 13 -22 21 -27 18 -5 -3 -11 1 -13 7 -3 8 -6 5 -6 -5 -1 -11 8 -21 18 -24 11 -3 22 -14 24 -25 4 -15 12 -19 26 -15 11 3 22 0 24 -7 2 -6 18 -11 36 -11 26 0 39 -8 59 -33 16 -21 20 -32 11 -30 -10 2 -15 -9 -16 -40 -2 -36 2 -44 20 -52 51 -20 214 -73 240 -77 36 -7 75 13 93 49 16 31 18 52 5 44 -5 -4 -1 11 9 31 10 21 16 41 14 44 -5 8 27 21 34 14 3 -3 0 -5 -7 -5 -8 0 -11 -8 -8 -20 3 -11 1 -18 -4 -14 -13 7 -11 -118 2 -153 5 -15 24 -42 41 -59 26 -28 28 -35 18 -54 -6 -12 -9 -28 -6 -36 3 -8 0 -14 -5 -14 -6 0 -9 -9 -6 -20 3 -11 2 -20 -3 -20 -9 0 -18 -42 -27 -119 l-6 -53 29 5 c46 9 180 19 299 22 123 3 213 11 287 25 28 6 53 8 57 5 12 -7 -8 113 -23 144 -10 18 -13 46 -11 78 4 39 0 55 -14 72 -10 11 -23 21 -28 21 -6 0 -16 7 -23 15 -7 9 -8 15 -2 15 6 0 34 30 62 66 29 36 58 63 65 60 6 -2 24 6 40 18 22 18 29 33 33 74 6 63 -5 78 -62 86 -52 8 -90 49 -181 196 -71 115 -98 146 -116 134 -8 -5 -31 -9 -52 -9 -37 0 -38 1 -35 35 3 30 6 35 25 32 29 -4 56 37 47 72 -3 14 -11 23 -17 19 -6 -4 -7 -1 -2 6 4 8 -1 25 -13 41 -18 23 -19 33 -11 64 5 19 14 38 20 41 5 4 7 9 5 13 -7 12 78 7 111 -7 45 -18 59 -10 67 42 4 24 22 75 40 113 30 62 32 72 19 91 -17 25 -53 122 -53 142 0 8 -7 22 -15 31 -13 14 -24 16 -72 8 -79 -12 -81 -21 -4 -16 l64 3 22 -72 c13 -40 30 -84 39 -98 20 -30 21 -41 3 -26 -9 7 -33 9 -63 5 -68 -8 -69 -15 -1 -13 32 1 60 0 63 -3 3 -3 -6 -30 -20 -59 -14 -30 -31 -74 -36 -97 -10 -39 -14 -43 -33 -37 -12 3 -43 9 -68 12 l-46 5 13 45 c25 81 28 163 9 227 -12 42 -23 60 -37 64 -20 5 -20 6 3 24 24 19 24 19 -12 2 l-37 -17 -62 39 c-151 95 -138 91 -187 67z m62 -3 c3 -5 2 -10 -4 -10 -5 0 -13 5 -16 10 -3 6 -2 10 4 10 5 0 13 -4 16 -10z m95 -61 c30 -20 67 -43 83 -50 19 -8 31 -25 40 -53 12 -42 16 -211 4 -222 -11 -11 -44 38 -78 116 -62 144 -101 225 -117 244 -20 23 -11 19 68 -35z m-163 -101 c-3 -8 -6 -5 -6 6 -1 11 2 17 5 13 3 -3 4 -12 1 -19z m320 -50 c-3 -7 -5 -2 -5 12 0 14 2 19 5 13 2 -7 2 -19 0 -25z m-135 -36 c3 -12 -2 -24 -15 -31 -17 -11 -19 -11 -13 4 3 9 6 26 6 36 0 24 16 17 22 -9z m23 -52 c8 -26 -1 -40 -26 -40 -10 0 -19 2 -19 4 0 2 -3 11 -6 20 -4 11 -1 16 10 16 9 0 16 5 16 10 0 18 18 11 25 -10z m46 -78 c22 -33 24 -41 15 -69 -6 -17 -36 -55 -67 -85 -39 -37 -68 -78 -93 -130 -20 -41 -36 -80 -36 -87 0 -7 -9 -6 -25 5 -14 9 -36 14 -49 12 -23 -5 -24 -3 -20 26 12 69 63 187 94 219 12 13 48 -1 75 -31 14 -15 25 -21 25 -14 0 12 -17 31 -58 64 -12 10 -22 28 -22 40 1 24 42 78 59 78 15 0 31 -67 31 -128 0 -37 3 -51 11 -46 14 8 6 123 -11 153 -8 16 -6 20 13 24 12 2 24 5 27 5 3 1 17 -16 31 -36z m15 -257 c7 -19 14 -42 14 -52 -1 -18 -20 18 -34 65 -12 35 4 25 20 -13z m-56 -24 c0 -6 -4 -13 -10 -16 -5 -3 -10 1 -10 9 0 9 5 16 10 16 6 0 10 -4 10 -9z m-636 -260 c10 -15 -12 -61 -29 -61 -8 0 -15 -4 -15 -10 0 -5 7 -10 15 -10 8 0 15 -2 15 -4 0 -2 3 -11 6 -20 4 -11 1 -16 -10 -16 -30 0 -49 93 -24 118 14 14 35 16 42 3z m757 -32 c34 -24 134 -153 149 -193 13 -34 13 -49 0 -41 -5 3 -10 -1 -10 -10 0 -10 -31 -50 -70 -89 -38 -40 -70 -77 -70 -82 0 -8 -25 -10 -65 -5 -6 0 -9 37 -8 91 2 49 -1 90 -6 90 -4 0 -8 7 -8 15 0 8 4 12 9 9 4 -3 8 32 8 78 0 88 14 158 31 158 6 0 24 -9 40 -21z m-821 -64 c0 -8 -4 -15 -10 -15 -5 0 -7 7 -4 15 4 8 8 15 10 15 2 0 4 -7 4 -15z m815 -386 c4 -6 -2 -20 -13 -32 -26 -28 -19 -74 15 -90 19 -9 29 -7 53 12 25 18 31 19 36 7 3 -8 1 -24 -6 -35 -9 -17 -8 -21 5 -21 8 0 15 4 15 9 0 7 93 61 106 61 2 0 4 -6 4 -13 0 -17 -117 -70 -137 -63 -10 4 -25 -2 -40 -15 -24 -23 -31 -49 -12 -49 5 0 7 5 3 12 -4 7 -3 8 4 4 6 -4 9 -13 5 -21 -6 -18 -6 -18 -38 -3 -19 9 -28 9 -37 0 -17 -17 -28 -15 -28 6 0 23 -19 42 -42 42 -11 0 -15 5 -12 15 4 8 1 22 -6 30 -11 13 -4 25 44 74 31 33 56 64 56 70 0 14 17 14 25 0z m136 -69 c-22 -19 -41 -26 -41 -15 0 5 51 34 60 34 3 0 -6 -9 -19 -19z m59 3 c0 -10 -58 -43 -73 -43 -7 0 6 12 28 25 45 28 45 28 45 18z m-10 -94 c-26 -22 -120 -72 -125 -67 -1 2 2 14 7 28 6 14 12 20 15 14 2 -8 22 -2 56 17 61 34 82 37 47 8z m-85 -139 c3 -5 1 -10 -4 -10 -6 0 -11 5 -11 10 0 6 2 10 4 10 3 0 8 -4 11 -10z m-260 -20 c3 -6 -1 -7 -9 -4 -18 7 -21 14 -7 14 6 0 13 -4 16 -10z"/>
    <path d="M1583 2182 c-18 -9 -33 -20 -33 -25 0 -9 56 19 65 33 8 12 7 12 -32 -8z"/>
    <path d="M620 2175 c-12 -15 -12 -23 9 -124 11 -54 8 -62 -28 -82 -34 -20 -36 -28 -51 -244 -6 -88 -14 -197 -19 -242 l-7 -82 28 -10 c37 -13 36 -35 -2 -51 -18 -8 -30 -20 -30 -31 0 -18 1 -18 18 -1 17 15 36 28 92 60 8 5 29 15 45 23 29 14 30 17 37 104 20 253 29 354 34 390 6 36 4 42 -26 66 l-32 27 11 63 c6 34 8 66 5 70 -3 5 -1 9 4 9 20 0 -2 41 -29 55 -35 19 -43 19 -59 0z"/>
    <path d="M1570 2000 c-9 -6 -10 -10 -3 -10 6 0 15 5 18 10 8 12 4 12 -15 0z"/>
    <path d="M504 1235 c-3 -8 4 -26 15 -41 14 -17 21 -21 21 -12 0 9 -7 21 -15 28 -9 7 -14 19 -11 27 3 7 3 13 0 13 -2 0 -7 -7 -10 -15z"/>
  </g>
</svg>
