<?xml version="1.0" standalone="no"?>
<!DOCTYPE svg PUBLIC "-//W3C//DTD SVG 20010904//EN"
 "http://www.w3.org/TR/2001/REC-SVG-20010904/DTD/svg10.dtd">
<svg xmlns="http://www.w3.org/2000/svg" width="275pt" height="648pt" viewBox="0 0 275 648">

<polygon points="131,44 209,47 215,58 219,64 218,68 204,84 203,98 198,112 187,121 164,114 159,113 150,105 139,93 135,65"
fill="#EBC952" stroke="none"/>

<polygon points="208,513 216,508 220,497 216,440 207,372 205,341 197,291 193,251 218,173 205,162 205,140 223,131 224,121 219,110 203,100 197,108 189,121 179,122 177,132 174,132 159,146 148,169 137,135 130,107 121,70 118,69 112,57 103,74 85,95 73,115 56,139 47,174 36,203 20,237 19,247 25,268 30,284 42,292 46,309 46,316 33,362 25,396 19,426 12,452 11,469 16,474 32,479 34,498 48,506 68,515 92,519 122,519 147,522 174,523 176,477 189,471"
fill="beige" stroke="none"/>

<polygon points="171,285 226,293 238,277 257,279 259,273 254,270 188,261 187,253 166,243 169,276"
fill="#145AE9" stroke="none"/>

<polygon points="227,164 210,166 203,158 199,143 208,140 211,145 218,143 228,143"
fill="#362614" stroke="none"/>

<polygon points="178,126 178,130 170,134 152,177 137,135 131,116 125,81 134,81 143,99 155,115 166,112 174,121"
fill="maroon" stroke="none"/>

<polygon points="122,537 128,569 134,581 151,600 162,613 167,622 168,629 164,634 154,632 125,607 99,595 94,580 94,551"
fill="#101B54" stroke="none"/>

<polygon points="155,544 149,568 179,588 233,601 239,597 240,584 206,572 185,560 166,552"
fill="#101B54" stroke="none"/>

<g transform="translate(0,648) scale(0.223448,-0.223448)" fill="black" stroke="none">
<path d="M609 2863 c-10 -2 -23 -27 -33 -64 -10 -32 -22 -59 -29 -60 -7 0 -53
0 -104 1 -74 1 -101 -2 -139 -19 -26 -12 -45 -23 -43 -26 3 -2 62 -5 131 -6
129 -2 146 -7 132 -42 -7 -19 22 -40 44 -35 10 3 19 0 20 -6 0 -6 3 -22 7 -36
l7 -25 -14 25 c-7 14 -23 26 -35 28 -13 2 -27 15 -35 32 -15 35 -24 31 -38
-20 -6 -23 -34 -66 -68 -105 -31 -36 -68 -85 -82 -109 -14 -24 -38 -63 -54
-86 -30 -45 -52 -103 -92 -238 -13 -45 -44 -126 -69 -178 -44 -94 -49 -127
-25 -159 4 -5 11 -26 14 -45 11 -55 27 -90 42 -90 8 0 14 -4 14 -10 0 -5 7
-10 15 -10 11 0 15 -11 15 -40 0 -22 4 -40 9 -40 5 0 -6 -44 -25 -97 -18 -54
-34 -109 -34 -124 0 -14 -4 -29 -9 -35 -4 -5 -14 -45 -21 -89 -7 -44 -20 -111
-30 -150 -10 -38 -23 -103 -30 -143 -12 -71 -11 -73 11 -93 13 -11 36 -23 51
-26 25 -5 28 -10 28 -47 0 -39 2 -42 48 -62 52 -23 132 -50 174 -59 34 -7 35
-11 48 -194 10 -144 21 -181 55 -181 10 0 52 -34 110 -89 32 -30 126 -91 140
-91 30 0 45 14 51 46 8 42 -25 94 -97 155 -26 22 -51 49 -54 60 -6 18 -12 20
-46 14 -37 -6 -53 5 -29 20 6 4 8 10 5 15 -3 4 3 7 12 6 9 0 18 4 20 10 2 7
-9 9 -29 8 -29 -3 -30 -2 -8 4 27 9 28 12 14 147 l-6 60 46 -3 46 -4 0 -94 c0
-94 14 -153 40 -169 7 -4 42 -15 79 -25 36 -9 104 -28 151 -42 121 -36 142
-40 162 -25 13 10 15 21 10 41 -7 25 -9 27 -21 12 -15 -18 -31 -21 -31 -6 0 5
12 16 28 24 20 11 23 16 12 19 -8 3 -38 13 -65 21 -28 9 -67 27 -87 41 -20 14
-41 25 -47 25 -5 0 -11 5 -13 12 -3 7 -18 13 -34 14 -16 1 -33 3 -37 3 -5 1
-5 6 -2 12 4 6 7 75 7 155 l1 144 38 0 c21 0 49 -4 63 -10 24 -9 26 -14 26
-70 0 -33 4 -60 8 -60 5 0 20 13 35 28 22 23 27 37 27 81 0 72 -28 396 -44
506 -7 50 -11 107 -8 128 2 21 0 37 -6 37 -5 0 -13 30 -16 68 -4 37 -10 82
-13 99 l-5 33 45 -6 c29 -4 47 -2 51 5 5 7 20 9 42 5 40 -7 64 8 57 36 -7 26
21 37 52 20 50 -27 61 22 16 72 -25 28 -31 30 -45 19 -16 -14 -36 -12 -175 11
l-63 10 4 57 c3 35 16 80 36 122 18 37 32 74 32 82 0 9 4 18 9 21 5 3 12 23
16 43 7 37 32 68 65 78 34 11 40 85 10 115 -22 22 -69 27 -88 8 -9 -9 -12 -9
-12 3 0 8 15 23 34 32 33 15 34 17 25 56 -9 41 -28 66 -65 87 -33 19 -29 60
10 109 41 50 45 77 14 99 -30 22 -14 25 122 28 l115 3 -60 28 c-53 25 -69 28
-137 25 -72 -3 -78 -2 -88 20 -5 13 -10 38 -10 56 0 44 -19 58 -74 55 -25 -2
-48 0 -52 4 -8 7 -148 8 -175 0z m215 -49 c3 -8 2 -12 -4 -9 -6 3 -10 10 -10
16 0 14 7 11 14 -7z m-27 -101 c3 -7 -3 -9 -16 -6 -12 3 -21 10 -21 15 0 13
32 6 37 -9z m131 -48 c5 -4 -59 -75 -67 -75 -3 0 -28 21 -54 45 l-48 44 83 -6
c46 -3 84 -7 86 -8z m-164 -46 c5 -5 7 -11 4 -14 -6 -7 -78 21 -78 29 0 8 63
-5 74 -15z m-250 -16 c4 -9 9 -66 12 -127 3 -60 7 -113 10 -118 12 -18 -14 -6
-44 21 -38 35 -41 74 -16 176 17 66 27 79 38 48z m182 3 c47 -9 94 -36 106
-61 16 -36 -22 -124 -54 -125 -4 0 -5 18 -3 40 2 22 -1 40 -6 40 -5 0 -17 7
-26 15 -10 9 -33 29 -52 45 -29 24 -32 31 -22 44 8 9 17 14 20 11 4 -2 21 -6
37 -9z m284 -1 c0 -9 -16 -31 -35 -49 -35 -34 -35 -34 -50 -14 -18 27 -9 41
22 35 19 -3 27 1 35 19 13 27 28 32 28 9z m-45 -5 c-3 -5 -11 -10 -16 -10 -6
0 -7 5 -4 10 3 6 11 10 16 10 6 0 7 -4 4 -10z m-120 -16 c14 -9 32 -14 40 -10
10 3 13 2 9 -5 -3 -6 4 -21 17 -35 12 -13 20 -26 17 -29 -9 -9 -78 28 -78 42
0 7 -9 18 -20 25 -11 7 -20 16 -20 20 0 12 8 10 35 -8z m-257 -85 c7 -44 32
-140 56 -212 69 -210 103 -358 131 -562 24 -185 25 -202 22 -655 -2 -256 -1
-451 3 -435 6 25 8 22 9 -22 1 -50 0 -53 -24 -53 -19 0 -23 4 -18 18 3 9 3 14
-1 10 -4 -3 -21 -2 -37 2 -16 5 -29 5 -29 0 0 -5 10 -11 23 -13 32 -6 -248 2
-311 9 -56 6 -138 31 -189 58 -30 15 -31 16 -29 89 1 63 3 72 14 58 11 -13 12
-3 7 69 -7 95 1 102 15 14 7 -47 9 -25 6 106 -1 91 -1 138 1 105 7 -109 22
-81 18 34 -2 61 1 111 5 111 5 0 11 -15 14 -32 2 -18 3 0 1 40 -2 64 -1 70 12
55 12 -16 13 -5 8 85 -4 56 -4 102 -1 102 15 0 86 -33 86 -40 0 -4 -9 -29 -21
-55 -11 -25 -19 -48 -17 -50 2 -3 17 25 32 60 21 49 33 65 48 65 15 0 18 3 10
13 -7 8 3 38 34 102 23 50 46 100 49 113 4 18 9 20 23 13 45 -26 45 -26 18
-69 -14 -23 -26 -45 -26 -48 0 -4 -20 -41 -44 -83 -25 -42 -59 -113 -76 -158
-18 -46 -35 -83 -40 -83 -13 0 -32 29 -26 39 4 5 2 12 -3 15 -9 6 -28 -32 -19
-38 54 -36 56 -36 70 -13 8 12 22 42 32 67 10 25 47 100 82 168 35 67 64 129
64 136 0 8 7 19 15 26 19 16 19 30 1 30 -7 0 -25 9 -38 20 l-25 19 -11 -24
c-15 -31 -17 -31 -72 5 -25 16 -51 30 -57 30 -16 0 -17 12 -1 28 13 13 -91
-25 -109 -40 -26 -22 -12 -25 27 -6 38 19 80 18 80 -3 0 -22 -108 -43 -147
-28 -16 6 -22 5 -18 -1 9 -15 -7 -12 -31 5 -12 8 -24 12 -27 9 -2 -3 -12 16
-21 42 l-16 47 39 77 c21 42 42 92 46 111 4 19 10 36 14 39 19 14 44 93 88
268 3 14 11 21 19 18 8 -3 14 -1 14 4 0 5 12 16 28 24 23 12 29 12 40 0 6 -7
12 -20 12 -29 0 -9 5 -13 10 -10 16 10 5 -151 -15 -229 -6 -20 -5 -27 3 -22 6
3 14 27 18 51 5 36 9 43 19 35 9 -8 14 -7 18 2 7 18 8 -42 1 -68 -4 -15 -12
-20 -24 -17 -13 4 -24 -8 -45 -51 -25 -52 -40 -73 -30 -43 2 6 6 48 9 92 3 44
13 107 21 140 23 94 16 108 -10 22 -23 -74 -31 -172 -26 -300 2 -56 23 -42 39
26 9 35 19 57 28 57 20 0 42 39 50 88 6 40 8 42 23 25 44 -49 124 -169 174
-263 70 -131 80 -145 71 -105 -4 17 -31 78 -60 138 -29 59 -52 107 -49 107 4
0 63 -89 83 -125 6 -11 12 -15 12 -9 0 21 -92 154 -102 147 -7 -3 -8 -1 -4 5
8 13 -61 154 -93 192 -20 24 -20 23 1 -15 33 -58 70 -143 52 -120 -26 35 -94
145 -94 154 0 5 21 18 48 30 43 20 37 22 -28 7 -15 -4 -9 2 15 14 22 11 52 19
68 17 27 -4 36 6 17 18 -6 4 -7 11 -4 17 4 6 2 8 -3 5 -6 -4 -17 1 -24 10 -12
14 -12 16 1 8 12 -7 13 -6 4 6 -6 8 -14 50 -18 94 -4 44 -9 95 -12 113 -3 17
-1 32 3 32 5 0 14 -36 21 -81z m-113 -1 c-4 -17 -14 -38 -21 -46 -8 -7 -14
-23 -15 -35 0 -12 -3 -16 -6 -9 -4 10 -8 9 -19 -5 -18 -24 -18 -38 1 -23 13
11 15 10 10 -6 -3 -10 2 -4 11 14 10 17 22 32 26 32 5 0 7 -4 3 -9 -3 -5 4
-16 15 -24 15 -11 19 -21 14 -43 -4 -24 -1 -32 22 -45 l27 -17 -30 -16 -31
-15 -24 47 c-14 28 -36 53 -55 63 l-30 15 18 35 c10 20 31 50 48 68 17 18 31
37 31 42 0 5 3 9 6 9 3 0 2 -14 -1 -32z m237 -15 c32 -34 39 -56 29 -91 -2 -5
-56 62 -73 89 -15 24 -15 39 2 39 3 0 22 -17 42 -37z m182 12 c10 -8 23 -12
27 -9 5 3 9 -4 9 -15 0 -27 -11 -32 -46 -21 -28 10 -28 10 5 5 34 -5 34 -5 16
15 -10 11 -26 20 -37 20 -10 0 -18 5 -18 10 0 14 22 12 44 -5z m-210 -83 c44
-60 46 -65 29 -78 -16 -12 -20 -10 -38 11 -37 45 -68 112 -61 130 8 21 6 22
70 -63z m310 -16 c26 -24 36 -41 35 -62 0 -16 -3 -24 -5 -17 -3 7 -16 10 -33
7 -22 -5 -29 -1 -39 20 -10 22 -9 26 4 26 15 0 15 2 0 25 -31 48 -12 48 38 1z
m-335 -51 c15 -24 31 -42 34 -39 9 9 47 -58 47 -83 0 -12 -5 -34 -11 -50 l-11
-28 -15 35 c-9 19 -22 47 -29 62 -8 14 -11 34 -7 45 3 10 2 15 -2 10 -8 -7
-23 21 -39 71 -11 35 2 26 33 -23z m148 5 c6 0 13 -9 16 -20 3 -11 2 -20 -2
-20 -12 0 -70 58 -64 64 4 3 14 -1 23 -9 9 -8 21 -15 27 -15z m77 18 c-7 -11
-71 -10 -78 1 -4 5 14 9 39 9 24 -1 42 -5 39 -10z m43 -52 c15 -44 9 -59 -18
-51 -28 9 -24 -19 6 -43 14 -11 25 -26 25 -34 0 -8 9 -23 20 -33 17 -16 18
-21 6 -49 -21 -50 -77 -247 -74 -257 2 -5 23 53 47 131 24 77 47 140 52 140 8
0 -7 -51 -69 -230 l-39 -115 -1 85 c-1 47 -7 112 -13 145 -5 33 -12 71 -14 85
-2 14 -8 38 -14 53 -6 16 -11 39 -11 53 0 13 -3 24 -8 24 -4 0 -8 18 -8 40 -1
33 2 40 18 40 15 0 18 5 12 23 -3 12 -3 19 1 15 4 -4 17 -1 29 7 28 20 37 15
53 -29z m-583 19 c-4 -8 -11 -15 -16 -15 -6 0 -5 6 2 15 7 8 14 15 16 15 2 0
1 -7 -2 -15z m419 -36 c-8 -29 -22 -34 -38 -13 -11 16 -11 22 2 36 20 22 43 7
36 -23z m247 11 c0 -5 -10 -10 -22 -9 -22 0 -22 1 -3 9 11 5 21 9 23 9 1 1 2
-3 2 -9z m-547 -72 c-2 -5 0 -15 7 -23 6 -8 7 -16 2 -19 -10 -6 -22 26 -22 59
0 16 2 17 9 5 6 -8 7 -18 4 -22z m507 2 c0 -5 -4 -10 -10 -10 -5 0 -10 5 -10
10 0 6 5 10 10 10 6 0 10 -4 10 -10z m40 -6 c0 -8 -5 -12 -10 -9 -6 4 -8 11
-5 16 9 14 15 11 15 -7z m36 -12 c0 -10 -6 -24 -13 -31 -10 -9 -13 -8 -13 7 0
10 5 23 12 30 15 15 14 15 14 -6z m-66 -43 c0 -11 -4 -17 -10 -14 -5 3 -10 13
-10 21 0 8 5 14 10 14 6 0 10 -9 10 -21z m-522 -161 c-3 -7 -12 -14 -21 -16
-12 -2 -15 1 -11 12 7 19 38 22 32 4z m402 -268 c10 -6 2 -7 -25 -3 -49 7 -58
13 -19 13 16 0 36 -5 44 -10z m-20 -30 c0 -12 -8 -12 -35 0 -18 8 -17 9 8 9
15 1 27 -3 27 -9z m-400 -35 l49 -25 -34 -72 c-18 -40 -40 -74 -49 -76 -22 -5
-20 21 4 60 25 41 25 48 1 48 -11 0 -23 5 -26 10 -11 18 -21 11 -44 -30 -12
-22 -25 -40 -27 -40 -3 0 -25 11 -50 25 -25 14 -52 25 -62 25 -11 0 -21 13
-28 35 -10 32 -10 34 5 21 23 -20 91 -47 91 -35 0 5 15 9 33 9 l32 1 -25 14
c-14 8 -20 15 -15 16 6 0 17 2 25 3 8 2 25 3 38 4 12 1 22 9 22 17 0 20 2 19
60 -10z m610 5 c36 -6 76 -13 89 -15 25 -4 37 -12 30 -20 -8 -8 -279 39 -279
49 0 9 54 5 160 -14z m-785 -20 c13 -6 15 -9 5 -9 -8 0 -22 4 -30 9 -18 12 -2
12 25 0z m642 -30 c26 -5 70 -11 96 -14 49 -4 65 -11 54 -22 -9 -9 -237 28
-231 38 7 10 22 10 81 -2z m303 -10 c0 -5 -5 -10 -11 -10 -5 0 -7 5 -4 10 3 6
8 10 11 10 2 0 4 -4 4 -10z m-815 -30 c9 -15 -22 -60 -41 -60 -11 0 -14 5 -9
18 4 9 10 25 12 35 6 19 28 23 38 7z m544 -290 c12 -135 26 -252 30 -261 5 -8
14 -104 21 -213 11 -173 11 -199 -2 -213 -14 -13 -16 -4 -26 79 -6 51 -14 185
-17 298 -4 113 -15 273 -26 355 -21 163 -24 224 -11 210 5 -6 19 -120 31 -255z
m-662 43 c-2 -21 -4 -4 -4 37 0 41 2 58 4 38 2 -21 2 -55 0 -75z m-42 48 c-1
-27 -8 -57 -13 -68 -10 -17 -30 -224 -49 -501 -6 -78 -7 -82 -26 -76 -39 12
-46 27 -31 63 8 18 14 62 14 97 0 35 4 64 9 64 5 0 11 41 13 92 2 61 7 93 16
96 6 2 12 20 12 40 0 21 5 54 11 75 5 20 12 50 14 67 3 27 26 100 31 100 2 0
1 -22 -1 -49z m22 -138 c-3 -10 -5 -4 -5 12 0 17 2 24 5 18 2 -7 2 -21 0 -30z
m-166 -460 c-12 -20 -14 -14 -5 12 4 9 9 14 11 11 3 -2 0 -13 -6 -23z m689
-443 c8 -16 8 -20 -3 -20 -18 0 -39 24 -30 33 11 12 22 8 33 -13z m-225 -49
c-3 -6 -11 -11 -17 -11 -6 0 -6 6 2 15 14 17 26 13 15 -4z m523 -25 c-2 -1
-14 -10 -27 -21 -23 -19 -24 -19 -17 -1 5 16 4 17 -9 6 -16 -13 -18 -10 -10
12 4 10 16 13 36 10 16 -2 29 -5 27 -6z m-561 -42 c-10 -10 -37 16 -37 34 0
13 4 12 22 -5 12 -13 19 -25 15 -29z m121 24 c19 -19 14 -29 -8 -16 -20 13
-27 28 -12 28 4 0 13 -5 20 -12z m113 -124 c11 -14 10 -18 -6 -30 -10 -8 -28
-14 -39 -13 -20 0 -20 1 2 12 16 7 22 17 19 29 -6 22 6 23 24 2z m19 -54 c-19
-12 -30 -12 -30 -1 0 10 31 20 40 14 2 -2 -2 -8 -10 -13z m10 -20 c0 -5 -5
-10 -11 -10 -5 0 -7 5 -4 10 3 6 8 10 11 10 2 0 4 -4 4 -10z"/>
<path d="M570 2229 c0 -24 5 -51 11 -59 7 -11 9 -1 6 37 -4 65 -17 82 -17 22z"/>
<path d="M421 2074 c0 -11 3 -14 6 -6 3 7 2 16 -1 19 -3 4 -6 -2 -5 -13z"/>
<path d="M330 1835 c0 -22 -4 -25 -39 -25 -61 0 -101 -11 -101 -27 0 -11 -4
-13 -12 -6 -7 6 -22 13 -33 17 -17 6 -17 4 4 -18 30 -32 82 -34 129 -6 18 11
38 20 45 20 22 0 34 20 29 46 -6 32 -22 31 -22 -1z m-60 -55 c-8 -5 -26 -9
-40 -9 -23 0 -23 1 -5 9 11 5 29 9 40 9 17 1 17 -1 5 -9z"/>
<path d="M620 1636 c0 -54 -47 -276 -61 -290 -12 -13 -12 -76 0 -76 11 0 33
62 55 155 9 39 19 81 23 95 10 40 6 141 -6 153 -8 8 -11 -2 -11 -37z"/>
<path d="M671 1316 c-1 -33 -28 -159 -63 -293 -6 -24 -15 -43 -19 -43 -5 0 -9
-11 -9 -25 0 -14 -4 -25 -9 -25 -5 0 -12 -11 -15 -25 -3 -13 -26 -46 -49 -73
-47 -53 -92 -120 -85 -128 6 -5 126 128 151 167 21 31 77 192 77 218 0 11 5
21 10 23 15 5 29 156 20 204 l-8 39 -1 -39z"/>
<path d="M456 1115 c-9 -21 -16 -41 -16 -45 0 -5 -12 -18 -26 -29 -15 -12 -21
-21 -13 -21 26 0 40 16 60 70 23 60 18 82 -5 25z"/>
<path d="M742 835 c0 -22 3 -60 7 -85 l8 -45 1 40 c0 22 -3 60 -7 85 l-8 45
-1 -40z"/>
<path d="M180 670 c0 -6 7 -10 15 -10 8 0 15 2 15 4 0 2 -7 6 -15 10 -8 3 -15
1 -15 -4z"/>
<path d="M338 613 c6 -2 18 -2 25 0 6 3 1 5 -13 5 -14 0 -19 -2 -12 -5z"/>
<path d="M413 599 c14 -8 22 -8 30 0 8 8 3 11 -18 11 -26 -1 -28 -2 -12 -11z"/>
<path d="M570 599 c0 -5 11 -9 25 -9 14 0 25 2 25 4 0 2 -11 6 -25 8 -14 3
-25 1 -25 -3z"/>
<path d="M650 2259 c0 -5 5 -7 10 -4 6 3 10 8 10 11 0 2 -4 4 -10 4 -5 0 -10
-5 -10 -11z"/>
</g>

</svg>
