<?xml version="1.0" standalone="no"?>
<!DOCTYPE svg PUBLIC "-//W3C//DTD SVG 20010904//EN"
 "http://www.w3.org/TR/2001/REC-SVG-20010904/DTD/svg10.dtd">
<svg xmlns="http://www.w3.org/2000/svg" width="352pt" height="648pt" viewBox="0 0 352 648">

<polygon points="104,62 144,56 168,13 194,11 221,71" 
fill="maroon" stroke="none"/>

<polygon points="148,138 140,86 203,69 225,125 185,140" 
fill="#EBC952" stroke="none"/>

<polygon points="148,138 189,138 217,126 249,289 134,290" 
fill="#DEF095" stroke="none"/>

<polygon points="17,290 25,192 49,116 133,82 150,177 134,287 136,343 103,353 77,261" 
fill="#8C6F21" stroke="none"/>

<polygon points="285,309 228,230 225,88 279,95 319,119 330,192 264,195"
fill="#8C6F21" stroke="none"/>

<polygon points="136,320 134,294 262,293 261,320"
fill="#0B66BB" stroke="none"/>

<polygon points="136,319 264,319 265,594 199,594 196,382 166,382 166,594 95,594 103,353 135,344"
fill="#4C4B4A" stroke="none"/>

<polygon points="15,351 21,351 29,336 41,328 51,328 58,337 67,343 73,340 75,336 69,317 69,285 52,289 29,294 15,304 11,334 13,346" 
fill="#EBC952" stroke="none"/>

<polygon points="18,297 69,281 58,258 25,285"
fill="#8C6F21" stroke="none"/>

<polygon points="326,189 266,188 266,237 285,253 298,236 309,217 313,217 322,226 333,227 334,206"
fill="#0B66BB" stroke="none"/>

<polygon points="284,248 292,238 300,237 307,217 312,217 331,238 324,260 305,263"
fill="#EBC952" stroke="none"/>

<polygon points="222,319 240,338 261,349 271,349 284,361 283,391 279,412 269,441 266,416 261,365 249,359 233,346 216,329 210,320 214,320"
fill="maroon" stroke="none"/>

<polygon points="101,595 97,630 104,638 150,637 177,600 194,602 201,633 208,639 252,639 267,601 267,592 235,592 193,592 151,590 117,592"
fill="#1B2137" stroke="none"/>

<g transform="translate(0,648) scale(0.325628,-0.325628)" fill="black" stroke="none">

<path d="M540 1961 c-30 -5 -37 -12 -59 -66 -14 -33 -29 -63 -34 -66 -5 -4
-37 -9 -71 -12 -33 -3 -70 -9 -81 -14 -18 -7 -17 -8 10 -14 17 -4 58 -7 93 -8
54 -1 62 -3 62 -20 0 -28 -18 -35 -47 -20 -22 12 -27 11 -38 -4 -7 -9 -36 -21
-64 -27 -47 -9 -144 -54 -179 -83 -7 -6 -11 -19 -9 -28 3 -10 -1 -26 -9 -37
-7 -11 -16 -46 -20 -78 -3 -33 -13 -64 -21 -70 -10 -8 -15 -44 -19 -120 -3
-60 -8 -143 -10 -184 -2 -41 -6 -101 -10 -133 -3 -32 -3 -64 0 -73 9 -22 42
-1 54 35 7 20 20 33 37 37 22 5 31 1 55 -27 26 -32 30 -33 45 -18 13 13 15 21
6 37 -16 30 -13 84 5 107 15 19 16 17 11 -24 -3 -25 -3 -66 0 -93 5 -43 8 -48
31 -48 l25 0 -8 -337 c-4 -186 -8 -339 -10 -341 -1 -2 -36 -5 -76 -8 -84 -6
-146 -30 -155 -59 -4 -11 -11 -23 -17 -26 -5 -4 32 -6 84 -6 52 1 97 6 101 12
5 6 12 5 20 -3 6 -6 23 -12 36 -12 22 0 23 -3 17 -42 -9 -66 -3 -69 116 -66
l104 3 15 43 c11 32 20 42 36 42 16 0 23 -8 28 -32 11 -54 20 -58 126 -58 107
0 127 9 116 54 -5 20 -1 25 20 30 17 5 24 12 20 21 -3 9 1 15 10 15 8 0 13 4
9 10 -3 5 26 10 71 12 43 2 79 8 80 13 5 17 -67 43 -137 50 l-66 6 -6 197 c-4
172 -3 204 13 252 10 30 23 87 29 125 10 65 9 71 -9 87 -20 16 -20 16 1 62 22
50 29 143 15 190 l-9 28 25 -16 c14 -9 31 -14 39 -12 8 2 26 7 41 10 44 10 72
67 73 149 0 38 -3 71 -7 74 -5 2 -8 14 -8 27 0 12 -4 26 -9 32 -15 14 -34 94
-35 148 l-2 50 -62 34 c-71 39 -148 62 -209 62 -35 0 -43 3 -43 19 0 19 39 31
109 31 59 0 24 13 -51 19 l-73 6 -7 42 c-6 38 -62 125 -77 122 -3 -1 -22 -4
-41 -8z m61 -28 c17 -20 17 -97 -1 -118 -11 -13 -8 -15 21 -16 19 -1 45 -5 59
-10 30 -10 -226 -1 -285 11 l-40 8 45 1 c57 2 63 6 85 65 10 26 25 54 32 62
20 19 68 18 84 -3z m-17 -199 c13 -33 6 -44 -25 -44 -17 0 -28 -4 -24 -10 10
-16 62 -12 69 6 3 9 4 20 0 25 -9 15 23 10 36 -6 10 -12 10 -19 2 -27 -7 -7
-12 -23 -12 -37 0 -63 -8 -71 -69 -72 -31 -1 -44 -4 -28 -6 26 -4 27 -7 29
-61 l2 -57 3 58 c4 51 6 57 26 57 13 0 33 7 45 16 13 9 26 13 29 10 6 -6 25
-169 25 -216 0 -14 -3 -44 -7 -67 -7 -40 -6 -45 29 -76 41 -38 44 -50 19 -76
-29 -30 -59 -41 -112 -41 l-51 0 -1 53 c0 28 -4 70 -8 92 -6 32 -7 24 -7 -40
0 -44 -3 -86 -7 -92 -5 -8 -29 -13 -59 -13 l-50 0 16 25 c23 34 20 52 -4 30
-28 -26 -36 -11 -21 38 7 23 15 57 18 75 3 22 10 32 18 28 21 -8 24 4 9 32
-16 31 -18 62 -4 62 11 0 60 -74 60 -90 0 -23 17 -7 36 33 14 28 18 50 13 67
l-7 25 -13 -32 c-7 -18 -17 -33 -22 -33 -4 0 -17 21 -28 46 -15 33 -20 62 -17
105 3 51 1 59 -16 61 -12 2 -23 14 -27 31 -6 23 -4 27 14 27 14 0 18 3 10 8
-7 5 -10 22 -6 49 5 40 7 42 33 36 15 -3 31 0 34 6 11 16 43 13 50 -5z m-162
-98 c9 -61 9 -113 0 -239 -7 -89 -13 -182 -13 -207 l-1 -45 -9 40 c-4 22 -6
51 -4 65 9 51 14 115 9 103 -11 -25 -24 -12 -24 23 l0 36 -26 -32 c-40 -47
-48 -18 -13 42 36 60 37 73 4 52 -14 -9 -28 -15 -30 -12 -3 2 -1 35 3 72 5 37
5 69 1 72 -13 7 -51 -55 -48 -79 5 -43 -10 -67 -42 -67 -34 0 -37 -10 -10 -34
29 -26 17 -42 -29 -39 -47 2 -51 -8 -12 -27 l27 -14 -35 -5 c-19 -3 -34 -10
-32 -16 2 -10 6 -12 45 -14 16 -1 18 -4 9 -10 -7 -4 -24 -6 -36 -4 -31 6 -43
-14 -14 -23 32 -10 49 -35 36 -52 -6 -7 -11 -21 -12 -32 -1 -16 -82 -80 -103
-80 -3 0 -2 24 2 53 3 28 9 79 11 112 3 38 12 70 24 87 25 34 25 49 3 41 -13
-4 -11 1 6 15 13 12 27 22 31 22 16 0 20 34 5 50 -30 33 -13 80 38 106 l32 17
-25 10 c-24 9 -22 11 35 38 68 33 84 34 140 15 22 -8 42 -13 44 -10 2 2 -3 14
-12 28 -9 13 -13 27 -10 30 13 13 23 -12 35 -88z m477 30 c36 -17 65 -35 65
-41 0 -11 -26 -25 -89 -51 -22 -9 -34 -18 -28 -21 7 -2 27 3 45 11 17 9 32 15
33 14 14 -18 24 -48 15 -48 -5 0 -10 -4 -10 -10 0 -5 6 -10 14 -10 8 0 18 -4
21 -10 4 -7 -3 -7 -20 0 -34 13 -82 13 -90 0 -11 -18 -31 -11 -45 15 -8 16
-22 25 -37 25 -28 0 -30 -21 -7 -76 l16 -39 -26 24 c-14 14 -28 22 -30 20 -3
-2 2 -32 10 -66 14 -63 35 -106 86 -177 20 -28 28 -51 28 -80 l-1 -41 -38 42
c-99 110 -132 280 -91 476 10 45 18 60 39 72 31 17 56 12 140 -29z m69 -210
l27 -15 -47 -1 c-37 0 -46 3 -42 15 5 11 -1 13 -32 8 -29 -5 -35 -3 -29 7 10
15 83 7 123 -14z m-11 -118 c-3 -7 -5 -2 -5 12 0 14 2 19 5 13 2 -7 2 -19 0
-25z m33 22 c0 -5 -2 -10 -4 -10 -3 0 -8 5 -11 10 -3 6 -1 10 4 10 6 0 11 -4
11 -10z m-115 -30 c-6 -9 -9 -9 -16 1 -10 17 0 34 13 21 6 -6 7 -16 3 -22z
m31 -2 c0 -18 -6 -38 -14 -44 -9 -7 -13 -18 -9 -28 5 -12 3 -16 -5 -14 -21 7
-20 46 1 67 11 11 18 27 15 36 -4 8 -2 15 3 15 5 0 9 -15 9 -32z m94 -15 c0
-13 -3 -13 -15 -3 -8 7 -12 16 -9 21 8 13 24 1 24 -18z m-66 -4 c-3 -5 -10 -7
-15 -3 -5 3 -7 10 -3 15 3 5 10 7 15 3 5 -3 7 -10 3 -15z m-674 -48 c0 -28 -4
-53 -10 -56 -6 -4 -10 15 -10 49 0 31 5 56 10 56 6 0 10 -22 10 -49z m715 -12
l0 -54 -35 0 c-31 0 -35 3 -38 29 -3 23 0 28 12 23 22 -8 52 3 36 13 -15 9 -3
53 13 47 7 -2 12 -25 12 -58z m-598 -74 c8 -27 19 -54 23 -60 5 -5 9 -47 9
-92 l1 -81 -32 -11 c-52 -18 -71 -15 -62 12 12 36 12 82 -2 147 -15 74 -8 135
20 177 l21 33 3 -38 c2 -20 10 -59 19 -87z m533 95 c0 -5 -4 -10 -10 -10 -5 0
-10 5 -10 10 0 6 5 10 10 10 6 0 10 -4 10 -10z m-740 -145 c10 -13 9 -15 -11
-16 -20 0 -18 -3 11 -13 33 -12 35 -16 36 -58 1 -25 7 -54 13 -65 5 -11 7 -23
4 -27 -14 -13 -34 -5 -45 19 -7 16 -19 25 -35 25 -27 0 -73 -41 -73 -65 0 -8
-6 -15 -13 -15 -8 0 -13 16 -15 46 -2 51 29 124 53 124 7 0 16 4 19 9 3 4 -7
6 -22 4 -24 -4 -23 -2 13 21 47 30 49 31 65 11z m508 -32 c-42 -2 -114 -2
-160 0 -46 1 -11 3 77 3 88 0 125 -2 83 -3z m92 -53 c-16 -37 -30 -39 -31 -2
-1 27 -1 27 -8 3 -8 -29 -31 -40 -31 -15 0 16 -1 16 -16 -2 -12 -15 -17 -16
-21 -5 -5 11 -7 11 -14 0 -8 -12 -11 -11 -20 1 -8 11 -12 12 -16 3 -9 -23 -23
-14 -24 15 -1 27 -1 27 -8 3 -7 -26 -31 -41 -31 -21 0 9 -4 9 -16 -1 -13 -10
-17 -10 -25 2 -6 10 -9 10 -9 2 0 -26 -20 -12 -21 15 l0 27 -10 -25 c-6 -13
-12 -26 -14 -28 -7 -8 -35 26 -35 42 0 13 25 16 178 18 97 2 179 2 181 1 2 -1
-2 -16 -9 -33z m-81 -94 c30 -30 66 -60 80 -66 l26 -10 -3 -259 c-3 -154 0
-279 6 -308 6 -26 8 -50 4 -53 -4 -3 -14 -18 -22 -35 -14 -27 -22 -31 -75 -37
-33 -3 -62 -4 -64 -2 -2 2 -8 43 -14 91 -10 84 -11 199 -5 418 l3 100 39 20
c22 11 42 27 44 35 4 12 2 13 -9 4 -8 -6 -27 -14 -44 -18 l-30 -7 40 36 c30
27 32 31 9 15 -68 -47 -144 -41 -194 17 -16 18 -32 33 -35 33 -11 0 -4 -38 15
-75 11 -22 20 -55 20 -75 0 -19 4 -51 9 -70 4 -20 3 -65 -3 -105 -14 -97 -43
-122 -118 -102 -16 4 -28 3 -28 -2 0 -18 52 -42 83 -39 37 3 40 -2 32 -57 -3
-22 1 -68 8 -102 11 -51 11 -66 0 -87 -12 -23 -20 -26 -68 -26 -29 0 -56 4
-59 8 -11 18 -37 269 -31 306 3 23 10 115 14 205 7 119 13 166 23 172 9 6 6 9
-11 9 -35 0 -18 13 42 30 49 15 52 18 55 53 l3 37 102 0 103 0 53 -54z m25 15
c22 -22 52 -45 67 -52 16 -6 29 -15 29 -20 0 -12 -2 -12 -42 5 -19 8 -51 35
-72 60 -46 56 -34 60 18 7z m76 4 c0 -19 -5 -35 -11 -35 -13 0 -79 52 -79 63
0 4 20 7 45 7 45 0 45 0 45 -35z m46 -74 c-3 -5 2 -8 12 -7 15 1 17 -8 15 -68
-3 -61 -20 -153 -27 -145 -2 2 -6 55 -10 117 -5 80 -4 112 4 112 6 0 9 -4 6
-9z m-252 -163 c3 -40 7 -162 10 -270 l5 -198 -36 0 -36 0 7 208 c8 265 15
332 31 332 9 0 15 -23 19 -72z m-116 -600 c-7 -19 -138 -20 -138 -1 0 10 18
13 71 13 52 0 70 -3 67 -12z m295 0 c3 -9 -10 -13 -45 -15 -27 0 -55 -7 -63
-13 -13 -10 -15 -8 -15 14 0 25 2 26 59 26 38 0 61 -4 64 -12z m-343 -43 c17
-9 30 -17 30 -19 0 -3 3 -11 6 -20 5 -14 -4 -16 -65 -16 -61 0 -71 2 -71 18 1
47 47 64 100 37z m316 3 c30 -11 50 -39 36 -52 -3 -3 -36 -6 -74 -6 -60 0 -68
2 -68 19 0 20 35 50 59 50 8 1 29 -4 47 -11z"/>
<path d="M558 1643 c6 -2 18 -2 25 0 6 3 1 5 -13 5 -14 0 -19 -2 -12 -5z"/>
<path d="M590 1440 c0 -5 5 -10 10 -10 6 0 10 5 10 10 0 6 -4 10 -10 10 -5 0
-10 -4 -10 -10z"/>
<path d="M605 1360 c3 -5 8 -10 11 -10 2 0 4 5 4 10 0 6 -5 10 -11 10 -5 0 -7
-4 -4 -10z"/>
<path d="M575 1300 c-3 -5 -1 -10 4 -10 6 0 11 5 11 10 0 6 -2 10 -4 10 -3 0
-8 -4 -11 -10z"/>
<path d="M590 1230 c0 -5 5 -10 10 -10 6 0 10 5 10 10 0 6 -4 10 -10 10 -5 0
-10 -4 -10 -10z"/>
<path d="M640 1231 c0 -12 40 -61 50 -61 5 0 -1 16 -13 35 -21 33 -37 44 -37
26z"/>
<path d="M600 1160 c0 -5 5 -10 11 -10 5 0 7 5 4 10 -3 6 -8 10 -11 10 -2 0
-4 -4 -4 -10z"/>
<path d="M60 995 c-6 -8 -10 -22 -7 -32 4 -14 5 -14 6 4 0 12 9 27 19 32 9 6
12 11 6 11 -6 0 -17 -7 -24 -15z"/>
<path d="M715 470 c-11 -4 -33 -5 -50 -2 l-30 5 19 -21 c28 -32 85 -25 100 13
6 16 -7 18 -39 5z"/>
</g>

</svg>
