<?xml version="1.0" standalone="no"?>
<!DOCTYPE svg PUBLIC "-//W3C//DTD SVG 20010904//EN"
 "http://www.w3.org/TR/2001/REC-SVG-20010904/DTD/svg10.dtd">
<svg xmlns="http://www.w3.org/2000/svg" width="340pt" height="648pt" viewBox="0 0 340 648">

<polygon points="132,58 204,60 193,18 173,8 149,16 135,45" 
fill="#4C3106" stroke="none"/>

<polygon points="135,69 131,115 168,162 209,140 207,68" 
fill="#C30E1F" stroke="none"/>

<polygon points="41,143 19,202 21,221 16,255 30,269 37,246 39,232 64,227 84,254 98,296 156,305 223,304 243,278 258,231 271,244 283,231 299,230 316,246 318,200 301,144 211,119 168,156 143,141 130,118" 
fill="navy" stroke="none"/>

<polygon points="273,246 281,231 298,228 314,243 317,269 306,282 294,285 267,268"
fill="#EBC952" stroke="none"/>

<polygon points="305,241 296,246 296,262 278,263 277,257 288,237 296,229"
fill="cyan" stroke="none"/>

<polygon points="33,252 39,245 38,233 64,224 76,248 75,264 58,281 44,285 31,272"
fill="#EBC952" stroke="none"/>

<polygon points="38,241 38,231 47,229 58,244 59,252 65,258 64,263 48,261 48,253 46,245 39,244"
fill="cyan" stroke="none"/>

<polygon points="92,298 81,358 152,347 257,368 251,300 172,304 95,298"
fill="#7C5C25" stroke="none"/>

<polygon points="85,356 157,346 176,352 232,361 258,361 260,439 282,618 261,620 237,622 216,628 201,611 202,544 186,390 155,388 119,630 93,620 81,621 65,631 59,632 58,624 85,367"
fill="#7F7F7F" stroke="none"/>

<polygon points="62,634 82,621 92,621 125,637 69,639"
fill="#0D1363" stroke="none"/>

<polygon points="206,637 238,620 279,624 279,639"
fill="#0D1363" stroke="none"/>


<g transform="translate(0,648) scale(0.308571,-0.308571)" fill="black" stroke="none">
<path d="M512 2069 c-27 -8 -37 -19 -54 -59 -14 -35 -26 -50 -39 -50 -11 0
-19 -4 -19 -9 0 -5 -7 -12 -16 -15 -8 -3 -12 -2 -9 4 4 6 -12 7 -42 3 -78 -10
-118 -26 -121 -48 -2 -18 6 -22 62 -33 36 -6 84 -12 106 -12 l41 0 -3 -62 -3
-63 -57 -15 c-32 -8 -58 -17 -58 -21 0 -4 21 -1 47 7 72 22 81 19 104 -31 11
-24 29 -47 39 -50 33 -10 70 -64 70 -100 0 -47 -17 -57 -65 -40 -22 8 -46 14
-53 15 -11 0 -101 37 -110 45 -2 1 7 20 19 41 19 36 16 34 -35 -21 -31 -33
-56 -54 -56 -47 0 6 -4 12 -10 12 -5 0 -10 -7 -10 -15 0 -21 -10 -19 -37 7
l-24 22 16 -37 c19 -46 19 -43 -7 -51 -22 -6 -22 -7 -5 -20 9 -7 17 -23 17
-35 0 -16 -6 -21 -28 -21 -34 0 -52 -16 -52 -46 0 -13 -4 -26 -10 -29 -5 -3
-10 -18 -11 -33 0 -15 -3 -21 -6 -14 -2 6 -11 12 -19 12 -18 0 -19 55 -1 90 9
17 20 24 35 22 31 -5 27 12 -9 43 l-32 26 24 25 c36 38 47 74 37 113 -11 39 2
60 22 36 18 -22 33 -19 20 4 -8 16 -6 21 13 26 12 4 41 14 65 22 72 27 40 25
-46 -2 l-80 -25 -22 -73 c-12 -39 -28 -86 -37 -104 -10 -22 -12 -37 -5 -50 6
-12 5 -35 -4 -68 -8 -28 -11 -69 -7 -93 5 -39 10 -45 49 -64 48 -22 70 -20
122 12 27 16 32 26 33 57 0 36 2 34 24 -30 18 -51 23 -82 19 -125 -6 -82 -17
-116 -40 -121 -42 -8 -47 -71 -9 -111 27 -28 27 -12 -5 -265 -5 -38 -14 -123
-20 -188 -5 -66 -12 -123 -16 -128 -3 -5 -24 -9 -47 -9 -39 0 -72 -15 -105
-46 -18 -18 -2 -25 75 -29 77 -5 76 -3 61 -100 -13 -87 -15 -86 129 -83 l126
3 13 38 c17 49 60 86 100 87 26 0 36 -7 58 -40 15 -23 31 -52 36 -65 9 -25 10
-25 150 -25 l141 0 -6 68 c-3 37 -8 78 -10 92 -3 24 -1 25 56 26 75 2 95 9 77
27 -33 33 -66 47 -105 47 -42 0 -43 1 -43 35 0 19 -4 67 -9 107 -6 40 -15 120
-21 178 -6 58 -16 129 -21 158 -10 49 -9 56 10 76 28 30 27 71 -3 101 -25 25
-36 50 -43 95 -7 47 -3 225 6 260 l8 35 7 -30 c4 -16 9 -40 12 -53 5 -23 51
-58 92 -68 13 -4 40 2 66 14 39 19 44 25 50 64 4 29 1 59 -9 88 -12 35 -13 50
-4 72 8 19 8 32 1 41 -5 6 -22 51 -37 99 l-27 87 -92 30 c-50 16 -109 32 -131
35 -77 13 -75 11 -75 82 l0 64 40 0 c22 0 70 6 106 12 56 11 64 15 62 33 -3
23 -41 36 -155 55 l-72 12 -17 44 c-23 61 -73 83 -142 63z m82 -69 c13 -4 26
-14 28 -22 4 -10 -9 -12 -59 -10 -38 2 -70 -1 -76 -7 -8 -8 10 -12 64 -13 72
-2 73 -2 14 -5 -85 -6 -106 1 -101 33 5 27 16 45 16 27 0 -18 58 8 63 29 6 22
-2 23 -31 2 -13 -9 -26 -14 -29 -11 -10 11 8 27 40 35 30 8 33 6 40 -20 4 -16
18 -33 31 -38z m11 50 c13 -6 15 -9 5 -9 -8 0 -22 4 -30 9 -18 12 -2 12 25 0z
m25 -208 c0 -11 -9 -27 -21 -38 -34 -30 -47 -65 -54 -141 -9 -84 -14 -83 -80
1 -37 47 -40 56 -40 115 0 54 3 64 18 67 11 1 21 5 25 8 3 3 38 6 79 6 64 0
73 -2 73 -18z m-1 -168 c-37 -39 -41 -28 -12 29 26 50 28 51 31 23 2 -19 -4
-36 -19 -52z m146 11 c28 -3 85 -18 128 -32 59 -19 75 -28 67 -38 -7 -8 -6
-25 5 -55 19 -55 19 -70 -2 -86 -17 -12 -16 -14 7 -39 14 -14 25 -38 26 -53 1
-15 5 -36 10 -46 6 -15 4 -17 -7 -11 -8 5 -20 17 -27 27 -21 28 -74 21 -82
-11 -3 -14 -11 -26 -18 -29 -8 -2 -7 7 3 32 9 20 12 36 7 36 -17 0 -11 92 8
130 15 29 16 38 6 34 -8 -3 -20 -19 -27 -36 l-12 -30 -13 24 c-9 14 -13 17
-14 8 0 -9 -17 -24 -37 -35 -21 -11 -51 -32 -68 -46 -20 -18 -48 -29 -83 -34
-59 -8 -60 -16 -3 -35 23 -7 41 -17 41 -22 0 -21 -31 -65 -64 -91 -20 -15 -36
-37 -36 -47 0 -11 -5 -20 -11 -20 -6 0 -9 -6 -6 -13 3 -7 -1 -21 -9 -31 -11
-16 -12 7 -9 150 7 231 11 282 25 298 6 8 41 18 78 22 64 7 112 26 112 45 0 5
-7 9 -15 9 -21 0 -65 22 -65 32 0 5 8 7 18 4 9 -3 40 -8 67 -11z m-272 -265
c21 0 27 -5 27 -22 -1 -78 -36 -88 -118 -33 -28 20 -52 38 -52 41 0 12 48 23
80 19 19 -3 47 -5 63 -5z m317 -45 c-22 -58 -41 -85 -60 -85 -14 0 -20 7 -20
23 0 27 14 47 50 71 34 22 41 20 30 -9z m-496 -30 c3 -9 22 -23 42 -31 l37
-15 -39 -39 c-21 -22 -43 -39 -48 -40 -5 0 -6 15 -3 34 3 19 2 50 -3 70 -8 35
2 51 14 21z m-174 -16 c0 -11 -4 -17 -10 -14 -5 3 -10 13 -10 21 0 8 5 14 10
14 6 0 10 -9 10 -21z m70 -37 c17 -21 17 -62 0 -62 -5 0 -6 9 -3 20 3 12 0 22
-9 25 -9 4 -15 20 -15 43 0 20 2 28 4 17 3 -11 13 -30 23 -43z m698 23 c-1
-20 -7 -36 -16 -40 -9 -3 -12 -13 -9 -25 3 -11 2 -20 -3 -20 -17 0 -17 41 1
64 10 13 19 31 19 40 0 9 2 16 5 16 2 0 4 -16 3 -35z m62 21 c0 -8 -4 -18 -10
-21 -5 -3 -10 3 -10 14 0 12 5 21 10 21 6 0 10 -6 10 -14z m-806 -53 c-10 -40
-14 -41 -14 -5 0 18 5 32 10 32 6 0 8 -11 4 -27z m776 -5 c0 -36 -4 -35 -14 5
-4 16 -2 27 4 27 5 0 10 -14 10 -32z m-800 -9 c0 -10 -6 -19 -12 -20 -7 0 -3
-4 10 -9 12 -5 29 -7 37 -4 10 4 15 0 15 -15 0 -24 -39 -47 -63 -38 -20 8 -33
83 -17 102 15 18 30 10 30 -16z m382 -15 c-2 -41 -19 -64 -67 -93 -29 -17 -34
-17 -61 -3 -38 19 -37 18 -25 40 6 10 35 32 66 47 30 16 60 35 67 42 15 19 21
9 20 -33z m463 -24 c-8 -46 -25 -58 -61 -42 -27 13 -36 59 -9 48 8 -3 25 -1
37 4 13 5 17 9 11 9 -14 1 -18 33 -6 45 4 3 13 0 21 -8 10 -10 12 -25 7 -56z
m-790 30 c3 -5 -1 -10 -9 -10 -9 0 -16 5 -16 10 0 6 4 10 9 10 6 0 13 -4 16
-10z m725 0 c0 -5 -7 -10 -16 -10 -8 0 -12 5 -9 10 3 6 10 10 16 10 5 0 9 -4
9 -10z m-161 -57 c-5 -50 -62 -93 -122 -93 -27 0 -29 2 -22 27 14 58 55 90
118 92 25 1 28 -2 26 -26z m-239 -68 c0 -18 -5 -25 -20 -25 -24 0 -26 13 -4
34 21 21 24 20 24 -9z m25 -29 c77 -1 166 2 198 7 34 4 57 3 57 -2 0 -14 -117
-25 -255 -25 -138 0 -255 11 -255 25 0 5 24 6 57 2 32 -3 121 -7 198 -7z m75
-32 l105 5 -80 -16 c-44 -9 -106 -16 -137 -16 -61 0 -178 21 -178 32 0 4 42 3
93 -1 50 -5 139 -7 197 -4z m-195 -38 c145 -41 269 -66 324 -66 44 0 51 -3 51
-20 0 -27 -43 -26 -185 4 -97 21 -314 82 -324 91 -8 9 12 25 27 21 10 -3 58
-16 107 -30z m348 15 c4 -16 -6 -20 -73 -35 -68 -14 -83 -15 -131 -2 l-54 14
50 7 c28 4 77 13 110 21 82 17 92 17 98 -5z m-5 -43 c7 -7 12 -16 12 -20 0
-10 -65 -10 -100 -1 -22 6 -20 8 20 18 25 7 47 13 51 14 3 0 10 -4 17 -11z
m-359 -15 c28 -9 50 -17 49 -18 -2 -2 -42 -6 -90 -10 l-88 -7 0 26 c0 24 4 26
39 26 21 0 62 -7 90 -17z m101 -40 c0 -15 2 -16 10 -3 12 20 27 4 33 -35 l4
-30 2 34 c1 24 5 32 15 28 8 -3 60 -11 115 -18 l101 -13 0 -45 c0 -26 7 -65
15 -89 13 -38 13 -47 0 -78 -14 -34 -13 -41 9 -104 27 -78 21 -93 -36 -104
-21 -4 -38 -12 -38 -17 0 -6 18 -32 40 -58 53 -62 62 -96 46 -165 -13 -53 -12
-55 12 -79 19 -19 23 -31 18 -53 -6 -27 -10 -29 -56 -30 -27 0 -55 -6 -63 -13
-11 -9 -21 -9 -40 0 -23 10 -24 14 -14 36 8 18 8 36 -1 69 -7 24 -12 66 -12
92 0 26 -4 64 -9 85 -6 23 -5 50 1 71 9 27 6 47 -15 112 -33 102 -26 174 19
212 l29 24 -36 -5 c-35 -5 -37 -4 -42 26 -3 18 -1 36 4 42 5 5 9 14 9 21 0 9
-11 8 -41 -2 -37 -13 -46 -13 -94 5 l-53 20 -4 -36 c-3 -23 0 -37 9 -40 14 -6
18 -33 4 -33 -5 0 -28 7 -51 15 -59 21 -60 19 -7 -16 82 -54 71 -59 -23 -11
l-45 23 37 -34 c20 -18 46 -53 56 -78 16 -38 18 -50 7 -84 -18 -62 -31 -81
-78 -110 l-44 -28 39 -35 c39 -35 39 -35 33 -96 -17 -179 -13 -166 -48 -166
-18 0 -43 -9 -57 -20 l-25 -20 25 0 c39 0 100 -20 100 -32 0 -5 -7 -7 -16 -4
-9 3 -32 9 -53 12 -31 5 -43 1 -69 -21 -17 -14 -35 -24 -40 -21 -12 7 12 163
33 214 14 35 17 61 12 132 -4 67 -2 91 8 100 8 7 16 48 20 110 4 62 11 100 18
100 6 0 22 -12 35 -27 18 -21 22 -23 16 -8 -4 11 -8 56 -9 100 -1 54 -7 91
-19 114 -25 48 -9 60 95 70 46 5 90 9 97 10 6 0 12 -7 12 -16z m77 -228 c6
-49 17 -137 23 -195 6 -58 13 -122 16 -142 l4 -37 -91 -3 -91 -3 5 95 c3 52
10 118 16 145 6 28 15 80 20 116 16 101 26 121 59 117 26 -3 27 -6 39 -93z
m-257 -667 l43 -23 -78 -3 c-43 -2 -80 -1 -83 2 -8 8 41 45 60 46 9 0 35 -10
58 -22z m464 13 c3 -4 19 -11 36 -15 55 -10 22 -26 -56 -26 -78 0 -92 10 -46
34 31 17 58 20 66 7z"/>
<path d="M460 1753 c0 -12 9 -31 20 -44 l19 -24 1 26 c0 14 -9 34 -20 44 -19
18 -20 17 -20 -2z"/>
<path d="M585 1550 c4 -6 11 -8 16 -5 14 9 11 15 -7 15 -8 0 -12 -5 -9 -10z"/>
<path d="M585 1450 c4 -6 11 -8 16 -5 14 9 11 15 -7 15 -8 0 -12 -5 -9 -10z"/>
<path d="M565 1360 c4 -6 11 -8 16 -5 14 9 11 15 -7 15 -8 0 -12 -5 -9 -10z"/>
<path d="M575 1260 c3 -5 8 -10 11 -10 2 0 4 5 4 10 0 6 -5 10 -11 10 -5 0 -7
-4 -4 -10z"/>
</g>

</svg>
