<?xml version="1.0" standalone="no"?>
<!DOCTYPE svg PUBLIC "-//W3C//DTD SVG 20010904//EN"
"http://www.w3.org/TR/2001/REC-SVG-20010904/DTD/svg10.dtd">
<svg width="468pt" height="185pt" viewBox="0 0 468 185" xmlns="http://www.w3.org/2000/svg" xmlns:xlink="http://www.w3.org/1999/xlink">

<defs>
    <mask id="platz" maskUnits="userSpaceOnUse">
      <rect width="100%" height="99%" fill="#ffffff" stroke="none"/>
      <g transform="translate(0,185) scale(0.060000,-0.060000)" fill="#000000" stroke="none">
          <path d="M2420 605 c0 -23 3 -25 50 -25 47 0 50 2 50 25 0 23 -3 25 -50 25 -47 0 -50 -2 -50 -25z"/>
          <path d="M2550 599 c0 -18 9 -32 27 -44 26 -17 26 -19 8 -26 -34 -13 -65 -10 -65 6 0 12 -9 13 -47 8 -27 -3 -50 -9 -53 -13 -3 -5 -35 -11 -72 -15 -56 -6 -68 -11 -68 -25 0 -13 -15 -21 -62 -33 -34 -9 -67 -12 -73 -8 -5 5 -29 11 -52 14 -38 4 -43 3 -43 -14 0 -10 5 -19 10 -19 6 0 10 -3 10 -7 -1 -24 -27 -37 -117 -58 -84 -20 -122 -23 -246 -22 -146 2 -147 2 -147 25 0 17 -4 22 -17 19 -10 -3 -40 -8 -68 -12 -79 -10 -85 -13 -85 -46 0 -29 -1 -29 -57 -29 -32 -1 -87 -7 -123 -15 -36 -8 -109 -14 -162 -15 -98 0 -98 0 -98 -25 0 -14 -2 -25 -3 -25 -2 0 -69 -13 -148 -29 -164 -33 -209 -32 -209 5 0 13 -6 24 -12 24 -7 0 -56 5 -107 10 -66 7 -105 7 -127 0 -29 -10 -32 -15 -38 -64 -7 -49 -10 -54 -37 -60 -16 -3 -40 -1 -54 4 -23 9 -25 13 -19 51 6 37 5 41 -12 36 -10 -3 -38 -11 -61 -16 -24 -6 -61 -16 -83 -21 l-40 -11 0 -74 0 -75 3900 0 3900 0 0 75 c0 43 -4 75 -10 75 -5 0 -10 -22 -10 -49 0 -48 -1 -49 -36 -55 -19 -4 -41 -3 -47 2 -7 5 -24 12 -39 16 -26 6 -28 10 -28 61 0 48 -3 55 -22 60 -13 3 -113 21 -222 40 -110 19 -202 39 -206 45 -9 14 -281 -16 -291 -32 -4 -7 -38 -14 -75 -16 l-67 -5 6 47 7 47 -78 -5 c-235 -17 -286 -16 -371 3 -47 11 -88 18 -92 15 -4 -2 -19 0 -33 6 -18 7 -26 17 -26 34 0 28 -5 31 -115 46 -44 6 -90 14 -102 17 -18 4 -23 1 -23 -16 0 -18 -6 -21 -40 -21 -40 0 -40 0 -40 40 l0 40 -75 0 c-68 0 -75 -2 -75 -20 0 -16 -7 -20 -35 -20 -23 0 -35 5 -35 14 0 11 -18 14 -83 12 -85 -1 -137 14 -137 39 0 7 -17 15 -37 19 -59 9 -73 7 -73 -10 0 -26 -25 -9 -28 19 -2 15 -9 27 -16 27 -8 0 -28 3 -45 6 -29 6 -31 4 -31 -21 0 -17 -5 -25 -12 -23 -8 3 -14 27 -16 60 l-3 56 -1294 -1 -1295 0 0 -28z"/>
          <path d="M5170 611 c0 -14 10 -20 41 -25 49 -8 50 -7 42 22 -4 18 -13 22 -44 22 -31 0 -39 -4 -39 -19z"/>
      </g>
    </mask>

    <mask id="skyX" maskUnits="userSpaceOnUse">
      <rect x="0" y="0" width="100%" height="100%" fill="#ffffff" stroke="none"/>
      <g transform="translate(0,185) scale(0.060000,-0.060000)" fill="#000000" stroke="none">
          <path d="M626 2969 c57 -66 88 -110 89 -125 0 -19 29 -49 122 -127 68 -56 194 -164 282 -239 l160 -138 146 0 147 0 40 -31 c61 -49 95 -127 107 -249 6 -56 11 -106 11 -110 0 -5 83 -84 185 -175 102 -92 182 -172 178 -178 -3 -5 -1 -7 5 -3 6 3 13 2 17 -4 4 -6 -6 -10 -24 -10 -16 0 -33 5 -36 10 -13 22 -24 7 -35 -47 -6 -32 -14 -66 -16 -75 -5 -16 2 -18 56 -18 54 0 66 -4 105 -33 l44 -34 270 -7 c149 -4 393 -4 542 0 l272 7 -6 -34 c-3 -19 -11 -79 -17 -134 -6 -55 -13 -112 -16 -126 -4 -23 2 -31 48 -60 51 -32 52 -34 26 -37 -27 -3 -28 -5 -28 -67 0 -35 -3 -70 -6 -79 -5 -14 14 -16 173 -16 l180 0 -5 30 c-2 18 -10 30 -19 30 -15 0 -14 4 12 80 l12 35 106 9 107 8 0 59 0 59 36 0 37 0 -7 92 c-3 50 -6 108 -6 129 0 32 -3 38 -24 41 -21 3 -13 15 86 131 l109 127 237 0 238 0 39 40 39 40 41 -40 41 -40 251 0 252 0 109 -128 c99 -115 107 -127 86 -130 -22 -3 -24 -8 -24 -55 0 -29 -3 -76 -7 -105 l-6 -54 91 46 c51 25 98 46 107 46 11 0 15 -11 15 -45 l0 -45 40 0 c22 0 40 2 40 4 0 2 -9 46 -20 99 -10 52 -24 151 -30 221 l-11 126 81 103 c74 93 81 105 76 137 -8 52 13 107 53 141 38 31 75 33 97 4 9 -12 18 -7 50 26 36 37 39 38 44 19 4 -18 20 -6 109 85 l104 106 176 -11 c97 -6 283 -14 414 -17 198 -5 237 -3 237 8 0 8 -4 61 -10 119 -5 58 -14 193 -20 300 -7 133 -14 196 -22 199 -7 2 37 50 97 107 l110 103 -3338 1 -3338 0 87 -101z"/>
      </g>
    </mask>

</defs>

  <rect x="0" y="0" width="100%" height="141" fill="#000000" stroke="none" mask="url(#skyX)"/>
  <rect x="0" y="139" width="100%" height="99%" fill="#000000" stroke="none" mask="url(#platz)"/>
  
<g transform="translate(0,185) scale(0.060000,-0.060000)" fill="none" stroke="black">
  <path d="M2 2559 l3 -511 210 -94 c115 -51 211 -91 213 -89 2 1 27 131 57 286 53 282 54 286 138 499 l84 215 -89 103 -89 102 -265 0 -264 0 2 -511z m488 177 c0 -2 -7 -23 -15 -47 -9 -24 -16 -46 -17 -49 0 -3 -2 -9 -4 -15 -62 -180 -87 -256 -109 -327 -25 -86 -27 -87 -48 -74 -12 7 -61 39 -109 69 l-87 56 90 270 90 270 105 -75 c57 -42 104 -77 104 -78z"
     fill="#a58726"/>
  <path d="M7180 2990 c-52 -44 -100 -77 -106 -75 -13 4 -57 -38 -50 -46 3 -3 10 -95 16 -204 6 -110 15 -249 21 -310 5 -60 12 -141 15 -180 13 -180 34 -398 38 -403 3 -2 157 56 343 131 l338 135 3 221 c1 122 0 221 -3 221 -3 0 -32 -13 -65 -30 l-59 -30 -10 53 c-6 28 -27 140 -46 247 -20 107 -39 204 -41 216 -4 17 7 30 63 69 37 26 72 52 78 57 5 4 -92 8 -215 7 l-225 -1 -95 -78z m-110 -83 c0 -2 -10 -12 -22 -23 l-23 -19 19 23 c18 21 26 27 26 19z m451 -268 c27 -145 49 -265 49 -266 0 -1 -63 -47 -140 -102 -102 -73 -140 -96 -140 -83 -1 37 -28 548 -30 557 -4 18 0 38 6 33 3 -4 49 25 102 62 53 38 98 67 100 65 2 -1 25 -121 53 -266z"
     fill="#8b6818"/>
  <path d="M695 2810 c-9 -15 -1 -23 21 -18 15 3 16 4 1 16 -11 9 -17 10 -22 2z"
     fill="#8b6818"/>
  <path d="M671 2750 l-10 -30 82 0 81 0 -34 30 c-25 20 -46 29 -72 30 -31 0 -37 -4 -47 -30z"
     fill="#8b6818"/>
  <path d="M646 2688 c-3 -13 -6 -26 -6 -30 0 -5 60 -8 133 -8 l132 1 -35 29 c-33 29 -39 30 -126 30 -87 0 -92 -1 -98 -22z"
     fill="#8b6818"/>
  <path d="M620 2614 c-6 -14 -10 -27 -10 -30 0 -2 84 -4 187 -4 l187 0 -29 30 -29 30 -148 0 -148 0 -10 -26z"
     fill="#8b6818"/>
  <path d="M592 2545 c-7 -14 -12 -28 -12 -30 0 -3 109 -5 243 -5 l242 1 -35 29 -34 30 -197 0 -196 0 -11 -25z"
     fill="#8b6818"/>
  <path d="M561 2470 l-10 -30 297 0 297 1 -33 29 -32 30 -254 0 -254 0 -11 -30z"
     fill="#8b6818"/>
  <path d="M547 2423 c-4 -3 -7 -17 -7 -30 l0 -23 345 0 346 0 -34 30 -35 30 -304 0 c-168 0 -308 -3 -311 -7z"
     fill="#8b6818"/>
  <path d="M526 2329 c-12 -63 -31 -59 275 -59 252 0 281 2 275 16 -3 9 -6 29 -6 45 l0 29 -269 0 -268 0 -7 -31z"
     fill="#8b6818"/>
  <path d="M1084 2185 c-1 -90 -4 -229 -8 -309 l-8 -146 59 1 c32 0 76 3 98 7 l40 7 -49 29 -48 28 7 137 c4 75 9 138 10 140 2 2 41 -23 85 -54 l82 -58 -7 -117 c-7 -112 -6 -119 13 -129 12 -6 23 -11 26 -11 3 0 6 54 6 120 l0 121 76 -52 76 -51 -5 -117 c-6 -118 6 -117 18 1 l6 57 75 -46 76 -45 -7 -52 c-3 -28 -8 -67 -11 -87 -3 -21 -1 -40 4 -43 6 -4 13 35 17 99 l7 104 59 -45 59 -45 0 -89 c0 -60 -4 -90 -12 -92 -8 -3 -6 -7 4 -11 14 -5 17 7 23 78 l7 83 52 -33 c56 -36 55 -34 42 -144 -6 -49 -4 -62 6 -59 7 3 22 52 35 118 22 109 22 115 6 131 -10 9 -214 173 -453 364 -239 192 -442 354 -450 361 -13 11 -15 -7 -16 -151z"
     fill="#a58726"/>
  <path d="M1290 2326 c0 -6 161 -128 164 -125 2 2 11 26 21 53 14 36 27 52 49 62 28 12 18 13 -101 14 -73 0 -133 -2 -133 -4z"
     fill="#903e00"/>
  <path d="M1539 2312 c-31 -12 -40 -23 -59 -70 l-21 -57 39 -35 c21 -19 81 -71 131 -114 l93 -79 -6 44 c-3 24 -8 71 -12 104 -8 74 -51 163 -96 196 -31 24 -35 25 -69 11z m121 -143 c11 -36 20 -85 20 -108 l0 -42 -93 78 -93 78 13 35 c8 19 28 48 46 63 l32 28 28 -33 c15 -18 36 -63 47 -99z"
     fill="#a58726"/>
  <path d="M1585 2206 c-7 -67 -2 -116 10 -105 6 7 9 169 2 175 -3 3 -8 -28 -12 -70z"
     fill="#656565"/>
  <path d="M510 2245 c0 -13 38 -15 285 -15 247 0 285 2 285 15 0 13 -38 15 -285 15 -247 0 -285 -2 -285 -15z"
     fill="#8b6818"/>
  <path d="M6230 2236 c0 -9 3 -16 8 -16 4 0 108 -7 232 -15 124 -8 307 -15 408 -15 155 0 182 2 182 15 0 13 -25 15 -167 15 -93 0 -229 4 -303 9 -323 23 -360 23 -360 7z"
     fill="#656565"/>
  <path d="M6123 2138 c-51 -52 -93 -98 -93 -103 0 -5 44 33 98 85 l97 95 -99 -101 -99 -102 7 -55 7 -55 -150 -126 -151 -127 0 35 c0 19 -4 37 -8 40 -4 2 -29 -22 -54 -53 l-46 -58 9 -112 c9 -105 50 -335 62 -347 4 -4 601 268 614 280 4 4 -88 761 -95 779 -6 14 -23 1 -99 -75z m71 -498 c14 -85 22 -158 18 -161 -8 -7 -132 -49 -132 -45 0 2 -9 70 -20 151 -11 81 -20 150 -20 152 0 4 124 61 127 59 1 -1 14 -72 27 -156z m-230 -100 c14 -91 22 -167 18 -171 -4 -3 -28 -13 -54 -22 l-47 -15 -5 26 c-3 15 -12 72 -21 127 -8 55 -18 112 -21 127 -5 24 0 31 48 62 29 18 54 33 55 32 1 -1 14 -76 27 -166z m-189 -105 c8 -66 12 -122 7 -126 -4 -4 -23 -14 -44 -22 l-36 -15 -6 71 c-4 40 -9 97 -12 128 -6 55 -5 56 28 77 18 12 36 18 41 13 4 -4 14 -61 22 -126z"
     fill="#656565"/>
  <path d="M507 2213 c-4 -3 -7 -17 -7 -30 l0 -23 290 0 290 0 0 30 0 30 -283 0 c-156 0 -287 -3 -290 -7z"
     fill="#8b6818"/>
  <path d="M6240 2185 l0 -25 415 0 c270 0 415 3 415 10 0 6 -68 10 -183 10 -163 0 -367 9 -574 25 -73 6 -73 6 -73 -20z"
     fill="#979797"/>
  <path d="M488 2120 c-4 -30 -4 -30 43 -30 27 0 49 5 51 12 3 9 44 9 174 0 231 -17 314 -16 314 2 0 8 3 21 6 30 6 14 -24 16 -289 16 l-295 0 -4 -30z"
     fill="#8b6818"/>
  <path d="M6244 2134 c3 -9 6 -22 6 -30 0 -12 63 -14 410 -14 l410 0 0 30 0 30 -416 0 c-375 0 -416 -2 -410 -16z"
     fill="#979797"/>
  <path d="M585 1937 c-4 -92 -5 -173 -2 -181 4 -10 29 -16 84 -20 43 -4 99 -9 126 -12 l47 -6 0 186 0 186 -33 0 c-19 0 -75 3 -124 6 l-91 7 -7 -166z m168 118 l57 -6 0 -145 0 -144 -105 0 -104 0 2 156 2 155 45 -5 c25 -3 71 -8 103 -11z"
     fill="#754f0d"/>
  <path d="M476 2058 c-10 -37 -8 -38 49 -38 54 0 55 0 55 30 0 29 -1 30 -49 30 -42 0 -49 -3 -55 -22z"
     fill="#8b6818"/>
  <path d="M850 2050 l0 -30 110 0 110 0 0 30 0 30 -110 0 -110 0 0 -30z"
     fill="#8b6818"/>
  <path d="M6254 2058 c3 -13 6 -26 6 -30 0 -5 185 -8 410 -8 435 0 421 -1 404 44 -5 14 -52 16 -416 16 l-410 0 6 -22z"
     fill="#979797"/>
  <path d="M1187 1972 c-12 -173 -14 -163 47 -200 85 -51 92 -47 99 51 12 149 16 137 -67 195 l-73 51 -6 -97z m129 -34 c3 -5 3 -49 -1 -98 l-7 -89 -49 31 c-27 16 -52 34 -55 39 -3 6 -3 52 1 104 l7 93 49 -35 c27 -19 52 -39 55 -45z"
     fill="#8b6818"/>
  <path d="M5970 2035 c-28 -29 -37 -33 -45 -22 -50 69 -158 -33 -139 -132 5 -24 1 -38 -21 -67 -25 -32 -26 -40 -20 -90 l7 -55 51 43 c29 24 91 77 140 117 l87 73 -6 67 c-11 104 -14 108 -54 66z"
     fill="#979797"/>
  <path d="M2 1979 l3 -61 360 -149 c198 -82 369 -151 380 -154 23 -6 36 -16 -172 132 -142 101 -196 129 -531 274 l-43 19 3 -61z"
     fill="#903e00"/>
  <path d="M7460 1894 c-184 -73 -346 -140 -360 -148 -14 -9 -105 -61 -202 -118 -97 -56 -174 -106 -171 -111 3 -4 13 -1 22 7 10 9 20 13 23 10 6 -6 1006 362 1021 376 4 4 7 32 5 63 l-3 55 -335 -134z"
     fill="#903e00"/>
  <path d="M466 1994 c-15 -38 -8 -44 54 -44 60 0 60 0 60 30 0 30 -1 30 -54 30 -40 0 -55 -4 -60 -16z"
     fill="#8b6818"/>
  <path d="M850 1980 l0 -30 110 0 110 0 0 30 0 30 -110 0 -110 0 0 -30z"
     fill="#8b6818"/>
  <path d="M6262 1983 l3 -28 408 -3 407 -2 0 30 0 30 -411 0 -410 0 3 -27z"
     fill="#979797"/>
  <path d="M448 1910 l-5 -30 64 0 63 0 0 30 c0 30 0 30 -59 30 -58 0 -59 -1 -63 -30z"
     fill="#8b6818"/>
  <path d="M850 1910 l0 -30 110 0 110 0 0 30 0 30 -110 0 -110 0 0 -30z"
     fill="#8b6818"/>
  <path d="M6270 1910 l0 -30 105 0 c87 0 105 3 105 15 0 12 18 15 100 15 82 0 100 -3 100 -15 0 -12 16 -15 85 -15 69 0 85 3 85 15 0 12 19 15 114 15 101 0 115 -2 119 -17 3 -10 5 -3 6 15 l1 32 -410 0 -410 0 0 -30z"
     fill="#979797"/>
  <path d="M1401 1809 l2 -124 11 97 11 97 48 -36 c45 -34 48 -38 43 -72 -15 -103 -17 -141 -8 -141 8 0 22 112 22 185 0 33 1 32 -102 99 l-28 18 1 -123z"
     fill="#8b6818"/>
  <path d="M3 1154 l2 -755 75 6 c41 3 105 8 142 11 l67 6 5 61 c3 34 8 103 11 152 3 50 31 317 61 595 31 277 52 506 48 508 -5 2 -76 31 -159 66 -144 61 -150 62 -156 42 -3 -12 -23 -160 -45 -331 -21 -170 -40 -301 -42 -290 -1 11 15 159 37 330 23 170 37 313 33 317 -4 4 -24 14 -44 22 l-37 16 2 -756z"
     fill="#a58726"/>
  <path d="M7740 1878 c-30 -11 -56 -22 -57 -23 -2 -1 8 -85 22 -187 13 -102 36 -318 50 -479 42 -488 42 -488 44 134 0 317 0 577 -1 576 -2 0 -28 -9 -58 -21z"
     fill="#8b6818"/>
  <path d="M440 1861 c0 -19 59 -51 94 -51 33 0 36 2 36 30 l0 30 -65 0 c-36 0 -65 -4 -65 -9z"
     fill="#8b6818"/>
  <path d="M850 1840 l0 -30 104 0 104 0 4 30 5 30 -109 0 -108 0 0 -30z"
     fill="#8b6818"/>
  <path d="M6280 1840 l0 -30 100 0 100 0 0 30 0 30 -100 0 -100 0 0 -30z"
     fill="#979797"/>
  <path d="M6680 1840 l0 -30 85 0 85 0 0 30 0 30 -85 0 -85 0 0 -30z"
     fill="#979797"/>
  <path d="M7080 1840 c0 -16 4 -30 8 -30 5 0 7 14 4 30 -2 17 -6 30 -8 30 -2 0 -4 -13 -4 -30z"
     fill="#979797"/>
  <path d="M7645 1841 c-3 -6 8 -144 25 -308 16 -164 34 -374 40 -468 19 -321 18 -315 47 -315 l25 0 -7 83 c-35 445 -75 837 -100 985 -6 31 -18 41 -30 23z"
     fill="#8b6818"/>
  <path d="M7587 1823 c-15 -4 -17 -12 -12 -46 34 -245 85 -781 85 -893 l0 -134 31 0 30 0 -6 78 c-3 42 -10 151 -15 242 -9 145 -49 580 -66 713 -6 46 -10 50 -47 40z"
     fill="#a58726"/>
  <path d="M7350 1732 c-113 -41 -206 -76 -208 -77 -1 -1 10 -208 25 -460 l28 -458 89 7 c49 3 151 6 228 6 l138 0 0 138 c0 94 -14 257 -44 525 -24 213 -45 389 -47 391 -2 2 -96 -30 -209 -72z m230 -255 c0 -2 11 -134 25 -292 14 -159 24 -290 22 -291 -5 -5 -280 -45 -283 -41 -2 2 -10 124 -19 271 -8 147 -17 271 -20 276 -3 5 7 13 22 16 15 4 75 20 133 35 113 29 120 31 120 26z"
     fill="#8b6818"/>
  <path d="M7505 1452 c-33 -8 -61 -16 -63 -17 -3 -3 47 -548 51 -552 4 -3 118 15 123 20 4 4 -44 558 -48 562 -2 1 -30 -5 -63 -13z"
     fill="#a58726"/>
  <path d="M7365 1418 c-22 -6 -41 -12 -43 -13 -3 -3 27 -537 31 -541 4 -4 118 14 124 19 3 4 -28 366 -42 495 -7 56 -7 56 -70 40z"
     fill="#a58726"/>
  <path d="M520 1796 c0 -2 11 -11 25 -20 24 -16 25 -16 25 4 0 15 -7 20 -25 20 -14 0 -25 -2 -25 -4z"
     fill="#8b6818"/>
  <path d="M850 1770 l0 -30 105 0 105 0 0 30 0 30 -105 0 -105 0 0 -30z"
     fill="#8b6818"/>
  <path d="M6290 1770 l0 -30 95 0 95 0 0 30 0 30 -95 0 -95 0 0 -30z"
     fill="#979797"/>
  <path d="M6680 1770 l0 -30 91 0 c90 0 91 0 85 23 -3 12 -6 25 -6 30 0 4 -38 7 -85 7 l-85 0 0 -30z"
     fill="#979797"/>
  <path d="M7080 1775 c0 -14 5 -25 10 -25 6 0 10 11 10 25 0 14 -4 25 -10 25 -5 0 -10 -11 -10 -25z"
     fill="#979797"/>
  <path d="M1567 1743 c-3 -15 -8 -53 -11 -83 l-6 -55 62 -37 c73 -42 71 -43 82 62 5 56 4 67 -11 76 -10 6 -39 23 -65 38 l-46 27 -5 -28z"
     fill="#8b6818"/>
  <path d="M5675 1700 c-26 -34 -45 -63 -43 -66 3 -2 26 23 53 56 26 34 45 63 43 66 -3 2 -26 -23 -53 -56z"
     fill="#656565"/>
  <path d="M430 1700 l0 -30 73 0 72 1 -68 29 c-38 17 -71 30 -73 30 -2 0 -4 -13 -4 -30z"
     fill="#8b6818"/>
  <path d="M620 1727 c0 -2 17 -16 38 -31 38 -26 40 -26 220 -26 l182 0 0 30 0 30 -105 0 c-67 0 -105 -4 -105 -11 0 -10 -72 -7 -187 7 -24 3 -43 3 -43 1z"
     fill="#8b6818"/>
  <path d="M1138 1723 c-118 -6 -76 -23 57 -23 104 0 125 2 125 15 0 16 -15 16 -182 8z"
     fill="#8b6818"/>
  <path d="M1330 1712 c0 -12 98 -74 338 -211 l337 -194 -1 -91 0 -91 3 88 c3 64 7 87 16 84 7 -2 11 -8 11 -13 -11 -66 -14 -173 -5 -178 8 -5 11 20 11 83 0 50 3 91 8 91 4 0 6 -39 4 -86 -2 -55 1 -91 8 -98 8 -8 10 15 9 90 l-1 101 -172 102 -171 103 9 79 10 79 30 -20 c30 -19 31 -21 31 -100 0 -49 4 -79 10 -77 6 2 10 42 10 91 l0 88 -47 34 -46 35 -7 -101 c-4 -55 -9 -100 -11 -100 -1 0 -89 52 -193 115 -144 86 -191 110 -191 97z"
     fill="#a58726"/>
  <path d="M4603 1688 c-39 -39 -43 -48 -41 -88 1 -42 2 -42 5 -9 3 26 15 47 44 75 l41 39 29 -35 c19 -23 29 -45 29 -67 0 -32 -1 -33 -37 -31 -37 1 -37 1 -5 5 27 4 32 8 32 31 0 15 -11 41 -24 57 l-24 30 -36 -34 c-24 -23 -36 -44 -36 -62 0 -26 3 -28 65 -34 36 -4 68 -6 70 -4 2 2 6 20 10 40 6 32 2 40 -37 83 l-43 47 -42 -43z m59 -45 c10 -9 18 -24 18 -35 0 -14 -8 -18 -40 -18 -45 0 -53 19 -23 52 20 22 22 22 45 1z"
     fill="#9b720c"/>
  <path d="M6298 1700 l4 -30 94 0 94 0 0 30 0 30 -98 0 -99 0 5 -30z"
     fill="#979797"/>
  <path d="M6688 1700 l4 -30 84 0 84 0 0 30 0 30 -88 0 -89 0 5 -30z"
     fill="#979797"/>
  <path d="M1070 1550 l0 -140 35 0 35 0 0 140 0 140 -35 0 -35 0 0 -140z"
     fill="#a58726"/>
  <path d="M1150 1550 c0 -133 1 -140 20 -140 19 0 20 7 20 140 0 133 -1 140 -20 140 -19 0 -20 -7 -20 -140z"
     fill="#8b6818"/>
  <path d="M1204 1550 c0 -80 2 -112 3 -72 2 39 2 105 0 145 -1 39 -3 7 -3 -73z"
     fill="#a58726"/>
  <path d="M1220 1550 l0 -140 30 0 30 0 0 140 0 140 -30 0 -30 0 0 -140z"
     fill="#a58726"/>
  <path d="M1290 1550 c0 -118 2 -140 15 -140 13 0 15 22 15 140 0 118 -2 140 -15 140 -13 0 -15 -22 -15 -140z"
     fill="#8b6818"/>
  <path d="M1330 1541 c0 -120 2 -141 15 -141 13 0 15 20 13 137 -2 98 -6 138 -15 141 -10 3 -13 -29 -13 -137z"
     fill="#a58726"/>
  <path d="M743 1639 c21 -17 25 -24 16 -35 -16 -20 -56 -485 -74 -863 -8 -184 -14 -336 -12 -337 1 -1 14 0 28 3 l27 5 7 301 c6 264 39 722 61 845 6 28 4 32 -17 32 -12 0 -19 3 -16 6 4 4 72 6 152 5 l145 -2 0 30 0 31 -172 0 -173 -1 28 -20z"
     fill="#8b6818"/>
  <path d="M1370 1526 c0 -79 4 -137 10 -141 6 -4 10 41 10 129 0 79 -4 137 -10 141 -6 4 -10 -41 -10 -129z"
     fill="#a58726"/>
  <path d="M6304 1644 c3 -9 6 -22 6 -30 0 -11 19 -14 90 -14 l90 0 0 30 0 30 -96 0 c-84 0 -95 -2 -90 -16z"
     fill="#979797"/>
  <path d="M6690 1630 l0 -30 69 0 c85 0 101 6 101 36 0 23 -2 24 -85 24 l-85 0 0 -30z"
     fill="#979797"/>
  <path d="M3992 1533 l-100 -118 384 -8 c211 -4 557 -4 768 0 l384 8 -100 118 -99 117 -244 0 -243 0 -7 -50 -7 -50 -89 0 -89 0 0 50 0 50 -229 0 -230 0 -99 -117z"
     fill="#a64800"/>
  <path d="M7103 1640 c-31 -13 -30 -40 2 -40 20 0 25 5 25 25 0 14 -1 25 -2 24 -2 0 -13 -4 -25 -9z"
     fill="#979797"/>
  <path d="M1404 1505 c0 -77 2 -107 3 -67 2 40 2 103 0 140 -2 37 -3 4 -3 -73z"
     fill="#a58726"/>
  <path d="M1422 1498 c2 -94 7 -133 16 -136 9 -3 12 27 12 126 0 107 -3 131 -15 136 -14 5 -15 -11 -13 -126z"
     fill="#a58726"/>
  <path d="M695 1578 c-25 -187 -95 -1045 -95 -1170 0 -5 13 -8 29 -8 l29 0 6 103 c3 56 11 208 17 337 8 206 38 594 55 717 4 35 2 44 -15 52 -18 10 -20 7 -26 -31z"
     fill="#a58726"/>
  <path d="M1464 1480 c0 -74 1 -105 3 -67 2 37 2 97 0 135 -2 37 -3 6 -3 -68z"
     fill="#a58726"/>
  <path d="M1480 1472 c0 -106 3 -131 15 -136 13 -5 15 12 15 118 0 98 -3 126 -15 136 -13 11 -15 -3 -15 -118z"
     fill="#a58726"/>
  <path d="M417 1583 c-4 -3 -7 -17 -7 -30 0 -23 0 -23 134 -23 l134 0 4 30 5 30 -132 0 c-72 0 -135 -3 -138 -7z"
     fill="#8b6818"/>
  <path d="M810 1564 c-6 -14 -10 -27 -10 -30 0 -2 59 -4 130 -4 l130 0 0 30 0 30 -120 0 c-120 0 -121 0 -130 -26z"
     fill="#8b6818"/>
  <path d="M6310 1576 c0 -46 2 -46 206 -46 l195 0 52 30 52 30 -62 0 c-61 0 -63 -1 -63 -25 0 -25 0 -25 -100 -25 -100 0 -100 0 -100 25 0 25 -1 25 -90 25 -71 0 -90 -3 -90 -14z"
     fill="#979797"/>
  <path d="M7090 1576 c0 -11 -24 -15 -115 -18 -74 -2 -118 -7 -127 -15 -10 -10 18 -13 140 -13 159 0 163 1 146 44 -8 20 -44 21 -44 2z"
     fill="#979797"/>
  <path d="M1865 1514 c-4 -36 -4 -68 -1 -71 3 -4 6 7 6 23 0 16 3 39 6 51 6 21 8 22 35 7 32 -16 31 -15 13 -116 -3 -16 -1 -28 5 -28 11 0 20 40 24 107 2 40 0 44 -39 68 l-42 25 -7 -66z"
     fill="#8b6818"/>
  <path d="M1524 1445 c0 -71 1 -99 3 -62 2 37 2 96 0 130 -2 34 -3 4 -3 -68z"
     fill="#a58726"/>
  <path d="M1540 1436 c0 -106 2 -126 15 -126 13 0 15 18 13 122 -2 86 -7 123 -15 126 -10 3 -13 -26 -13 -122z"
     fill="#8b6818"/>
  <path d="M1584 1420 c0 -69 1 -97 3 -62 2 34 2 90 0 125 -2 34 -3 6 -3 -63z"
     fill="#8b6818"/>
  <path d="M6806 1525 c-9 -9 -16 -17 -16 -18 0 -1 11 -166 25 -367 14 -201 25 -373 25 -382 0 -12 8 -18 21 -18 18 0 20 4 15 38 -13 88 -17 154 -31 446 -8 170 -17 311 -19 313 -2 2 -11 -3 -20 -12z"
     fill="#8b6818"/>
  <path d="M1602 1408 c2 -86 7 -123 16 -126 9 -3 12 25 12 116 0 98 -3 121 -15 126 -14 5 -15 -10 -13 -116z"
     fill="#8b6818"/>
  <path d="M6764 1523 c5 -8 1 -13 -9 -13 -15 0 -16 -11 -11 -92 21 -301 46 -861 41 -908 -14 -143 -15 -190 -2 -190 9 0 9 -2 -1 -8 -7 -5 -15 -25 -19 -45 -5 -36 -5 -37 25 -37 l30 0 7 93 c7 98 11 346 7 412 -43 639 -54 781 -64 790 -8 7 -9 6 -4 -2z"
     fill="#a58726"/>
  <path d="M406 1498 c-3 -13 -6 -26 -6 -30 0 -5 60 -8 134 -8 113 0 135 2 140 16 16 43 12 44 -128 44 -130 0 -134 -1 -140 -22z"
     fill="#8b6818"/>
  <path d="M798 1490 l-5 -30 134 0 133 0 0 30 0 30 -129 0 -129 0 -4 -30z"
     fill="#8b6818"/>
  <path d="M6322 1493 l3 -28 204 -3 203 -2 -6 22 c-3 13 -6 26 -6 31 0 4 -90 7 -201 7 l-200 0 3 -27z"
     fill="#979797"/>
  <path d="M6840 1490 l0 -30 150 0 150 0 0 30 0 30 -150 0 -150 0 0 -30z"
     fill="#979797"/>
  <path d="M1644 1385 c0 -66 1 -92 3 -57 2 34 2 88 0 120 -2 31 -3 3 -3 -63z"
     fill="#8b6818"/>
  <path d="M1660 1377 c0 -94 3 -116 15 -121 14 -5 15 10 13 111 -2 82 -7 118 -15 121 -10 3 -13 -24 -13 -111z"
     fill="#8b6818"/>
  <path d="M1704 1360 c0 -63 1 -89 3 -57 2 31 2 83 0 115 -2 31 -3 5 -3 -58z"
     fill="#8b6818"/>
  <path d="M1722 1348 c2 -78 7 -113 16 -116 9 -3 12 23 12 106 0 89 -3 111 -15 116 -14 5 -15 -9 -13 -106z"
     fill="#8b6818"/>
  <path d="M398 1420 l-5 -30 139 0 138 0 0 30 0 30 -134 0 -134 0 -4 -30z"
     fill="#8b6818"/>
  <path d="M790 1420 l0 -30 123 0 c127 0 147 6 147 42 0 16 -12 18 -135 18 l-135 0 0 -30z"
     fill="#8b6818"/>
  <path d="M6333 1438 c2 -7 -2 -21 -11 -30 -14 -17 -4 -18 203 -18 l217 0 -6 23 c-3 12 -6 25 -6 30 0 4 -90 7 -201 7 -156 0 -200 -3 -196 -12z"
     fill="#979797"/>
  <path d="M6848 1420 l4 -30 147 0 148 0 -5 30 -4 30 -147 0 -148 0 5 -30z"
     fill="#979797"/>
  <path d="M1994 1413 c-3 -16 -8 -36 -11 -45 -3 -13 10 -26 47 -49 l52 -32 -5 -131 c-3 -72 -12 -210 -21 -306 -18 -199 -20 -300 -7 -300 5 0 12 90 16 200 l7 200 98 0 c71 0 112 -5 155 -20 32 -11 60 -18 62 -16 2 2 -10 9 -27 15 -30 10 -31 13 -25 49 6 39 6 39 -42 60 -26 11 -83 23 -125 27 -47 5 -78 12 -78 19 0 33 21 296 25 324 l6 32 -60 0 c-58 0 -61 -1 -67 -27z"
     fill="#b86818"/>
  <path d="M1764 1325 c0 -60 1 -84 3 -52 2 32 2 81 0 110 -2 29 -3 3 -3 -58z"
     fill="#b86818"/>
  <path d="M2127 1413 c-3 -10 -8 -58 -11 -108 -4 -49 -9 -120 -12 -156 l-6 -67 74 -7 c54 -5 104 -20 189 -56 65 -27 121 -49 126 -49 5 0 15 30 23 68 7 37 15 72 17 78 2 6 -69 67 -159 135 -258 197 -236 182 -241 162z m98 -186 c-3 -29 -8 -69 -11 -89 l-5 -36 -37 13 c-41 14 -41 12 -28 137 l8 68 40 -21 40 -20 -7 -52z m101 -4 c27 -17 26 -9 8 -133 l-6 -40 -30 21 c-25 18 -29 27 -25 53 3 17 9 50 12 74 4 23 9 42 11 42 3 0 16 -7 30 -17z m99 -108 c-15 -98 -15 -98 -36 -79 -13 12 -18 26 -15 43 3 14 7 43 11 63 5 35 7 37 26 25 16 -10 19 -19 14 -52z m52 7 c10 -6 9 -20 -2 -61 -16 -63 -19 -66 -34 -48 -8 11 -9 27 0 66 11 52 15 57 36 43z"
     fill="#a58726"/>
  <path d="M6013 1282 c-171 -81 -324 -158 -340 -172 l-28 -25 23 27 c36 41 26 62 -31 66 l-47 3 0 45 c0 24 -4 44 -10 44 -6 0 -10 -36 -10 -89 l0 -90 43 -3 c38 -3 75 8 212 62 11 4 22 8 25 9 3 1 90 35 194 75 l190 74 49 61 c27 33 47 61 45 60 -1 0 -143 -66 -315 -147z"
     fill="#903e00"/>
  <path d="M1780 1317 c0 -85 3 -106 15 -111 14 -5 15 9 13 101 -2 74 -7 108 -15 111 -10 3 -13 -22 -13 -101z"
     fill="#a58726"/>
  <path d="M1057 1394 c-19 -20 4 -24 133 -24 l139 0 337 -139 c185 -76 330 -141 322 -144 -7 -2 -2 -5 12 -5 14 0 36 -3 50 -7 55 -17 3 12 -108 59 l-117 51 1 105 0 105 -3 -102 c-2 -57 -5 -103 -7 -103 -3 0 -114 47 -248 104 l-243 104 -131 1 c-71 1 -133 -2 -137 -5z"
     fill="#8b6818"/>
  <path d="M3935 1271 c4 -69 9 -128 11 -130 2 -3 303 -5 667 -5 l664 -1 50 24 50 23 7 61 c3 33 6 81 6 107 l0 46 -731 0 -731 0 7 -125z m505 45 c0 -24 3 -58 6 -75 l7 -31 -77 0 -76 0 0 75 0 75 70 0 70 0 0 -44z m296 4 c-3 -22 -9 -58 -12 -79 -5 -37 -7 -39 -51 -46 -24 -3 -46 -5 -48 -3 -1 2 -6 40 -10 86 l-7 82 67 0 67 0 -6 -40z m-611 -12 c3 -24 8 -55 11 -70 6 -28 5 -28 -45 -28 -55 0 -54 -2 -76 108 l-7 32 55 0 55 0 7 -42z m1180 10 c-22 -110 -21 -108 -76 -108 -50 0 -51 0 -45 28 3 15 8 46 11 70 l7 42 55 0 55 0 -7 -32z m-289 -5 c-4 -16 -12 -45 -17 -65 l-10 -38 -60 0 -60 0 7 53 c8 62 9 64 54 70 90 10 93 9 86 -20z"
     fill="#9b720c"/>
  <path d="M1842 1288 c2 -70 7 -103 16 -106 9 -3 12 21 12 96 0 81 -3 101 -15 106 -14 5 -15 -8 -13 -96z"
     fill="#a58726"/>
  <path d="M390 1350 l0 -30 135 0 135 0 0 30 0 30 -135 0 -135 0 0 -30z"
     fill="#8b6818"/>
  <path d="M787 1373 c-4 -3 -7 -17 -7 -30 0 -23 1 -23 119 -23 l119 0 4 30 5 30 -117 0 c-64 0 -120 -3 -123 -7z"
     fill="#8b6818"/>
  <path d="M6288 1363 c-37 -44 -41 -43 211 -43 l241 0 0 30 0 30 -218 0 c-196 0 -220 -2 -234 -17z"
     fill="#979797"/>
  <path d="M6850 1350 l0 -30 150 0 150 0 0 30 0 30 -150 0 -150 0 0 -30z"
     fill="#979797"/>
  <path d="M1884 1270 c0 -58 1 -81 3 -52 2 28 2 76 0 105 -2 28 -3 5 -3 -53z"
     fill="#8b6818"/>
  <path d="M2230 1365 c0 -8 92 -65 104 -65 9 0 16 -6 16 -13 0 -7 23 -31 52 -52 85 -65 80 -65 76 1 l-3 59 52 3 51 3 6 -38 c3 -21 8 -61 11 -90 l7 -52 -33 -3 c-28 -3 -34 -8 -40 -34 l-6 -31 221 -6 c122 -3 241 -2 266 3 25 5 86 9 137 10 l91 0 6 28 c3 15 10 72 16 127 6 55 13 111 16 125 l5 26 -526 0 c-289 0 -525 -1 -525 -1z m590 -150 l0 -95 -55 0 -55 0 0 89 0 90 28 4 c15 2 39 5 55 6 l27 1 0 -95z m160 -10 c0 -92 -1 -95 -22 -95 -65 1 -68 5 -68 101 l0 89 45 0 45 0 0 -95z m203 50 c-1 -22 -5 -59 -8 -82 l-6 -43 -50 0 -51 0 6 38 c3 20 8 59 11 85 l6 48 47 -3 47 -3 -2 -40z"
     fill="#9b720c"/>
  <path d="M1030 959 l0 -399 125 0 125 0 0 114 0 114 -37 6 c-21 3 -62 8 -92 12 l-54 6 6 127 c4 69 7 147 7 173 l0 47 85 -29 85 -29 0 94 0 93 -80 22 c-45 11 -101 27 -125 35 l-45 13 0 -399z"
     fill="#8b520a"/>
  <path d="M1290 960 c0 -220 4 -400 8 -400 8 0 22 456 22 702 0 80 -3 98 -15 98 -13 0 -15 -51 -15 -400z"
     fill="#9b720c"/>
  <path d="M1325 962 c-4 -224 -4 -397 1 -399 5 -2 8 -59 6 -128 l-3 -125 27 0 26 0 -6 252 c-3 139 -9 373 -12 520 -5 201 -9 268 -19 272 -10 3 -14 -79 -20 -392z"
     fill="#a58726"/>
  <path d="M1900 1257 c0 -76 3 -96 15 -101 14 -5 15 7 13 91 -2 66 -7 98 -15 101 -10 3 -13 -20 -13 -91z"
     fill="#a58726"/>
  <path d="M1944 1235 c0 -55 1 -76 3 -47 2 29 2 74 0 100 -2 26 -3 2 -3 -53z"
     fill="#a58726"/>
  <path d="M1965 1228 c0 -73 3 -98 12 -98 10 0 13 24 12 93 -1 58 -4 83 -9 67 -7 -25 -7 -25 -11 5 -2 17 -4 -14 -4 -67z"
     fill="#8b6818"/>
  <path d="M380 1280 l0 -30 134 0 c113 0 135 2 140 16 16 43 13 44 -134 44 l-140 0 0 -30z"
     fill="#8b6818"/>
  <path d="M778 1280 l-5 -30 124 0 123 0 0 30 0 30 -119 0 -119 0 -4 -30z"
     fill="#8b6818"/>
  <path d="M6438 1303 l202 -3 0 -25 c0 -23 3 -25 50 -25 49 0 50 1 50 30 l0 30 -252 -2 -253 -3 203 -2z"
     fill="#979797"/>
  <path d="M6850 1280 l0 -30 150 0 150 0 0 30 0 30 -150 0 -150 0 0 -30z"
     fill="#979797"/>
  <path d="M6196 1282 c-5 -9 -29 -933 -24 -937 2 -1 13 -6 26 -9 l22 -7 0 480 c0 439 -3 506 -24 473z"
     fill="#656565"/>
  <path d="M6230 1265 c0 -16 6 -25 15 -25 9 0 15 9 15 25 0 16 -6 25 -15 25 -9 0 -15 -9 -15 -25z"
     fill="#656565"/>
  <path d="M6617 1284 c-3 -3 -81 -25 -174 -48 l-168 -42 -3 -73 -3 -73 28 6 c15 3 71 12 123 21 52 9 107 18 123 21 l27 6 0 -175 0 -175 -82 -6 c-46 -4 -113 -9 -150 -12 l-68 -6 0 -114 0 -115 73 5 c39 3 120 9 180 12 l107 6 0 384 c0 211 -1 384 -3 384 -2 0 -6 -3 -10 -6z"
     fill="#808080"/>
  <path d="M1370 1177 c0 -93 4 -101 61 -112 63 -12 62 -9 54 -159 l-7 -137 -32 6 c-17 4 -39 9 -48 11 -16 5 -18 -5 -18 -110 l0 -116 34 0 c18 0 47 3 64 6 l30 6 7 260 8 260 23 -5 c23 -4 24 -2 24 52 l0 57 -87 28 c-49 16 -94 31 -100 33 -10 4 -13 -16 -13 -80z"
     fill="#8b520a"/>
  <path d="M5414 1193 l-132 -67 -7 -79 c-3 -43 -5 -80 -3 -82 2 -1 67 27 146 63 l142 66 0 83 c0 46 -3 83 -7 82 -5 0 -67 -30 -139 -66z m96 -13 l0 -50 -100 -50 -100 -50 0 50 0 50 98 49 c53 28 98 50 100 50 1 1 2 -21 2 -49z"
     fill="#a58726"/>
  <path d="M5403 1167 c-82 -41 -83 -42 -83 -79 0 -21 2 -38 5 -38 3 0 43 19 90 42 84 42 85 43 85 80 0 21 -3 38 -7 37 -5 0 -45 -19 -90 -42z"
     fill="#979797"/>
  <path d="M1590 1244 c0 -5 -9 -103 -20 -219 -21 -227 -26 -455 -10 -455 6 0 10 44 10 113 0 62 7 214 16 336 8 123 13 226 10 229 -3 3 -6 1 -6 -4z"
     fill="#8b6818"/>
  <path d="M376 1224 c-16 -43 -13 -44 134 -44 l140 0 0 30 0 30 -134 0 c-113 0 -135 -2 -140 -16z"
     fill="#8b6818"/>
  <path d="M770 1210 l0 -30 125 0 125 0 0 30 0 30 -125 0 -125 0 0 -30z"
     fill="#8b6818"/>
  <path d="M1610 1232 c0 -5 -6 -105 -14 -223 -8 -118 -18 -314 -21 -437 -6 -194 -5 -222 8 -222 12 0 16 27 22 158 3 86 13 282 21 435 8 153 12 283 8 288 -7 11 -24 12 -24 1z"
     fill="#a58726"/>
  <path d="M6640 1211 c0 -31 0 -31 56 -31 54 0 55 0 52 28 -3 25 -7 27 -55 30 l-53 3 0 -30z"
     fill="#979797"/>
  <path d="M6858 1210 l4 -30 149 0 149 0 0 30 0 30 -153 0 -154 0 5 -30z"
     fill="#979797"/>
  <path d="M6230 865 c0 -318 2 -365 15 -365 13 0 15 47 15 365 0 318 -2 365 -15 365 -13 0 -15 -47 -15 -365z"
     fill="#333333"/>
  <path d="M370 1156 c0 -8 -3 -21 -6 -30 -5 -14 10 -16 135 -16 l141 0 0 30 0 30 -135 0 c-110 0 -135 -3 -135 -14z"
     fill="#8b6818"/>
  <path d="M767 1163 c-4 -3 -7 -17 -7 -30 0 -23 0 -23 130 -23 l130 0 0 30 0 30 -123 0 c-68 0 -127 -3 -130 -7z"
     fill="#8b6818"/>
  <path d="M6050 1130 l-125 -36 -3 -68 -3 -67 46 6 45 7 0 -136 0 -136 -40 0 -40 0 0 -89 c0 -97 2 -101 73 -101 l27 0 0 224 0 224 43 7 c102 15 95 10 102 78 4 34 5 76 3 92 l-3 31 -125 -36z"
     fill="#808080"/>
  <path d="M6640 1140 c0 -30 1 -30 55 -30 54 0 55 0 55 30 0 30 -1 30 -55 30 -54 0 -55 0 -55 -30z"
     fill="#979797"/>
  <path d="M6860 1140 l0 -30 150 0 150 0 0 30 0 30 -150 0 -150 0 0 -30z"
     fill="#979797"/>
  <path d="M1646 1143 c-14 -35 -6 -82 15 -94 21 -11 22 -15 15 -163 -3 -83 -9 -187 -12 -231 l-6 -80 53 3 c30 2 61 6 69 9 8 3 23 5 33 4 15 -2 17 7 17 68 0 78 8 71 -103 86 l-49 7 6 71 c18 203 17 196 35 187 15 -9 114 -31 117 -27 1 1 4 26 6 56 l3 54 -97 32 c-81 28 -97 31 -102 18z"
     fill="#8b520a"/>
  <path d="M5867 1153 c-3 -5 -8 -155 -12 -335 -6 -296 -5 -328 9 -328 14 0 16 36 16 335 0 184 -2 335 -4 335 -3 0 -7 -3 -9 -7z"
     fill="#888888"/>
  <path d="M5890 835 c0 -273 2 -315 15 -315 12 0 15 16 15 83 0 196 -14 547 -22 547 -4 0 -8 -142 -8 -315z"
     fill="#555555"/>
  <path d="M1856 1072 c-12 -130 -20 -535 -9 -529 6 4 13 96 17 224 4 120 9 250 12 290 6 91 -11 105 -20 15z"
     fill="#8b6818"/>
  <path d="M1890 1110 c0 -11 7 -20 15 -20 8 0 15 6 15 14 0 8 -7 16 -15 20 -10 4 -15 -1 -15 -14z"
     fill="#8b6818"/>
  <path d="M3872 1071 l2 -56 3 54 4 54 232 -9 c271 -9 1040 -7 1111 4 27 4 -267 8 -652 8 l-702 1 2 -56z"
     fill="#a58726"/>
  <path d="M3890 1065 c0 -33 4 -45 15 -45 11 0 15 12 15 45 0 33 -4 45 -15 45 -11 0 -15 -12 -15 -45z"
     fill="#8b6818"/>
  <path d="M3933 1065 c0 -27 2 -38 4 -22 2 15 2 37 0 50 -2 12 -4 0 -4 -28z"
     fill="#a58726"/>
  <path d="M3950 1065 c0 -33 4 -45 15 -45 11 0 15 12 15 45 0 33 -4 45 -15 45 -11 0 -15 -12 -15 -45z"
     fill="#8b6818"/>
  <path d="M3993 1065 c0 -27 2 -38 4 -22 2 15 2 37 0 50 -2 12 -4 0 -4 -28z"
     fill="#a58726"/>
  <path d="M4010 1065 c0 -33 4 -45 15 -45 11 0 15 12 15 45 0 33 -4 45 -15 45 -11 0 -15 -12 -15 -45z"
     fill="#8b6818"/>
  <path d="M4053 1065 c0 -27 2 -38 4 -22 2 15 2 37 0 50 -2 12 -4 0 -4 -28z"
     fill="#a58726"/>
  <path d="M4070 1065 c0 -33 4 -45 15 -45 11 0 15 12 15 45 0 33 -4 45 -15 45 -11 0 -15 -12 -15 -45z"
     fill="#8b6818"/>
  <path d="M4113 1065 c0 -27 2 -38 4 -22 2 15 2 37 0 50 -2 12 -4 0 -4 -28z"
     fill="#a58726"/>
  <path d="M5203 1065 c0 -27 2 -38 4 -22 2 15 2 37 0 50 -2 12 -4 0 -4 -28z"
     fill="#a58726"/>
  <path d="M5220 1065 c0 -33 4 -45 15 -45 11 0 15 12 15 45 0 33 -4 45 -15 45 -11 0 -15 -12 -15 -45z"
     fill="#8b6818"/>
  <path d="M5263 1075 c0 -22 2 -30 4 -17 2 12 2 30 0 40 -3 9 -5 -1 -4 -23z"
     fill="#a58726"/>
  <path d="M360 1070 l0 -30 134 0 c130 0 134 1 140 23 3 12 6 25 6 30 0 4 -63 7 -140 7 l-140 0 0 -30z"
     fill="#8b6818"/>
  <path d="M760 1086 c0 -8 -3 -21 -6 -30 -5 -14 10 -16 130 -16 l136 0 0 30 0 30 -130 0 c-106 0 -130 -3 -130 -14z"
     fill="#8b6818"/>
  <path d="M4130 1060 c0 -29 4 -40 15 -40 11 0 15 11 15 40 0 29 -4 40 -15 40 -11 0 -15 -11 -15 -40z"
     fill="#8b6818"/>
  <path d="M4173 1060 c0 -25 2 -35 4 -22 2 12 2 32 0 45 -2 12 -4 2 -4 -23z"
     fill="#a58726"/>
  <path d="M4190 1060 c0 -29 4 -40 15 -40 11 0 15 11 15 40 0 29 -4 40 -15 40 -11 0 -15 -11 -15 -40z"
     fill="#8b6818"/>
  <path d="M4233 1060 c0 -25 2 -35 4 -22 2 12 2 32 0 45 -2 12 -4 2 -4 -23z"
     fill="#a58726"/>
  <path d="M4250 1060 c0 -29 4 -40 15 -40 11 0 15 11 15 40 0 29 -4 40 -15 40 -11 0 -15 -11 -15 -40z"
     fill="#8b6818"/>
  <path d="M4293 1060 c0 -25 2 -35 4 -22 2 12 2 32 0 45 -2 12 -4 2 -4 -23z"
     fill="#a58726"/>
  <path d="M4310 1060 c0 -29 4 -40 15 -40 11 0 15 11 15 40 0 29 -4 40 -15 40 -11 0 -15 -11 -15 -40z"
     fill="#8b6818"/>
  <path d="M4353 1060 c0 -25 2 -35 4 -22 2 12 2 32 0 45 -2 12 -4 2 -4 -23z"
     fill="#a58726"/>
  <path d="M4370 1060 c0 -29 4 -40 15 -40 11 0 15 11 15 40 0 29 -4 40 -15 40 -11 0 -15 -11 -15 -40z"
     fill="#8b6818"/>
  <path d="M4413 1055 c0 -27 2 -38 4 -22 2 15 2 37 0 50 -2 12 -4 0 -4 -28z"
     fill="#a58726"/>
  <path d="M4430 1055 c0 -33 4 -45 15 -45 11 0 15 12 15 45 0 33 -4 45 -15 45 -11 0 -15 -12 -15 -45z"
     fill="#8b6818"/>
  <path d="M4473 1055 c0 -27 2 -38 4 -22 2 15 2 37 0 50 -2 12 -4 0 -4 -28z"
     fill="#a58726"/>
  <path d="M4490 1054 c0 -37 3 -44 20 -44 17 0 20 7 20 39 0 30 -4 40 -20 44 -18 5 -20 0 -20 -39z"
     fill="#8b6818"/>
  <path d="M4723 1055 c0 -27 2 -38 4 -22 2 15 2 37 0 50 -2 12 -4 0 -4 -28z"
     fill="#a58726"/>
  <path d="M4740 1055 c0 -33 4 -45 15 -45 11 0 15 12 15 45 0 33 -4 45 -15 45 -11 0 -15 -12 -15 -45z"
     fill="#8b6818"/>
  <path d="M4783 1055 c0 -27 2 -38 4 -22 2 15 2 37 0 50 -2 12 -4 0 -4 -28z"
     fill="#a58726"/>
  <path d="M4800 1055 c0 -33 4 -45 15 -45 11 0 15 12 15 45 0 33 -4 45 -15 45 -11 0 -15 -12 -15 -45z"
     fill="#8b6818"/>
  <path d="M4843 1055 c0 -27 2 -38 4 -22 2 15 2 37 0 50 -2 12 -4 0 -4 -28z"
     fill="#a58726"/>
  <path d="M4860 1055 c0 -33 4 -45 15 -45 11 0 15 12 15 45 0 33 -4 45 -15 45 -11 0 -15 -12 -15 -45z"
     fill="#8b6818"/>
  <path d="M4903 1055 c0 -27 2 -38 4 -22 2 15 2 37 0 50 -2 12 -4 0 -4 -28z"
     fill="#a58726"/>
  <path d="M4920 1060 c0 -29 4 -40 15 -40 11 0 15 11 15 40 0 29 -4 40 -15 40 -11 0 -15 -11 -15 -40z"
     fill="#8b6818"/>
  <path d="M4963 1060 c0 -25 2 -35 4 -22 2 12 2 32 0 45 -2 12 -4 2 -4 -23z"
     fill="#a58726"/>
  <path d="M4980 1060 c0 -29 4 -40 15 -40 11 0 15 11 15 40 0 29 -4 40 -15 40 -11 0 -15 -11 -15 -40z"
     fill="#8b6818"/>
  <path d="M5023 1060 c0 -25 2 -35 4 -22 2 12 2 32 0 45 -2 12 -4 2 -4 -23z"
     fill="#a58726"/>
  <path d="M5040 1060 c0 -29 4 -40 15 -40 11 0 15 11 15 40 0 29 -4 40 -15 40 -11 0 -15 -11 -15 -40z"
     fill="#8b6818"/>
  <path d="M5083 1060 c0 -25 2 -35 4 -22 2 12 2 32 0 45 -2 12 -4 2 -4 -23z"
     fill="#a58726"/>
  <path d="M5100 1060 c0 -29 4 -40 15 -40 11 0 15 11 15 40 0 29 -4 40 -15 40 -11 0 -15 -11 -15 -40z"
     fill="#8b6818"/>
  <path d="M5143 1060 c0 -25 2 -35 4 -22 2 12 2 32 0 45 -2 12 -4 2 -4 -23z"
     fill="#a58726"/>
  <path d="M5160 1060 c0 -29 4 -40 15 -40 11 0 15 11 15 40 0 29 -4 40 -15 40 -11 0 -15 -11 -15 -40z"
     fill="#8b6818"/>
  <path d="M6640 1070 c0 -30 1 -30 55 -30 54 0 55 0 55 30 0 30 -1 30 -55 30 -54 0 -55 0 -55 -30z"
     fill="#979797"/>
  <path d="M6860 1070 l0 -30 155 0 c162 0 166 1 149 44 -5 14 -28 16 -155 16 l-149 0 0 -30z"
     fill="#979797"/>
  <path d="M4543 1050 c0 -25 2 -35 4 -22 2 12 2 32 0 45 -2 12 -4 2 -4 -23z"
     fill="#a58726"/>
  <path d="M4560 1050 c0 -29 4 -40 15 -40 11 0 15 11 15 40 0 29 -4 40 -15 40 -11 0 -15 -11 -15 -40z"
     fill="#8b6818"/>
  <path d="M4603 1050 c0 -25 2 -35 4 -22 2 12 2 32 0 45 -2 12 -4 2 -4 -23z"
     fill="#a58726"/>
  <path d="M4620 1050 c0 -29 4 -40 15 -40 11 0 15 11 15 40 0 29 -4 40 -15 40 -11 0 -15 -11 -15 -40z"
     fill="#8b6818"/>
  <path d="M4663 1050 c0 -25 2 -35 4 -22 2 12 2 32 0 45 -2 12 -4 2 -4 -23z"
     fill="#a58726"/>
  <path d="M4680 1050 c0 -29 4 -40 15 -40 11 0 15 11 15 40 0 29 -4 40 -15 40 -11 0 -15 -11 -15 -40z"
     fill="#8b6818"/>
  <path d="M1887 1043 c-3 -21 -8 -135 -10 -253 -3 -118 -3 -192 -1 -165 11 149 35 413 40 433 3 14 0 22 -10 22 -8 0 -16 -15 -19 -37z"
     fill="#a58726"/>
  <path d="M1926 1059 c-9 -43 -36 -356 -36 -418 l0 -61 39 0 39 0 7 118 c4 64 13 173 20 242 7 69 12 126 10 128 -1 2 -19 5 -38 9 -32 5 -37 3 -41 -18z"
     fill="#Bd6918"/>
  <path d="M5546 1069 c2 -4 -4 -7 -13 -7 -21 2 -260 -107 -294 -133 -19 -16 -11 -14 46 7 39 14 84 31 100 37 17 6 44 20 60 32 46 34 85 58 85 52 0 -3 -22 -19 -50 -37 -27 -18 -50 -34 -50 -36 0 -2 43 -4 95 -4 l95 0 0 50 0 51 -39 -3 c-22 -1 -38 -5 -35 -9z"
     fill="#903e00"/>
  <path d="M5733 1073 l-43 -4 0 -263 0 -263 46 -7 c26 -3 59 -6 74 -6 l27 0 6 188 c4 103 7 226 7 275 l0 87 -37 -2 c-21 -1 -57 -3 -80 -5z"
     fill="#8b6818"/>
  <path d="M2016 1039 c-21 -133 -42 -459 -29 -459 5 0 16 109 25 242 15 226 17 297 4 217z"
     fill="#8b6818"/>
  <path d="M5630 795 c0 -177 4 -275 10 -275 6 0 10 98 10 275 0 177 -4 275 -10 275 -6 0 -10 -98 -10 -275z"
     fill="#949494"/>
  <path d="M5660 805 c0 -170 4 -265 10 -265 6 0 10 95 10 265 0 170 -4 265 -10 265 -6 0 -10 -95 -10 -265z"
     fill="#515151"/>
  <path d="M2036 1008 c-27 -254 -29 -568 -4 -568 7 0 8 38 4 108 -5 68 -2 178 8 302 19 230 18 210 7 210 -5 0 -12 -24 -15 -52z"
     fill="#a58726"/>
  <path d="M3010 1040 c-19 -4 -137 -5 -261 -2 l-227 5 -7 -22 c-4 -12 -5 -24 -3 -26 8 -7 491 -8 646 0 l172 8 -37 23 c-34 21 -50 23 -143 22 -58 0 -121 -4 -140 -8z"
     fill="#b79211"/>
  <path d="M350 1000 l0 -30 140 0 140 0 0 30 0 30 -140 0 -140 0 0 -30z"
     fill="#8b6818"/>
  <path d="M750 1000 l0 -30 135 0 135 0 0 30 0 30 -135 0 -135 0 0 -30z"
     fill="#8b6818"/>
  <path d="M6640 1000 c0 -30 0 -30 60 -30 60 0 60 0 60 30 0 30 0 30 -60 30 -60 0 -60 0 -60 -30z"
     fill="#979797"/>
  <path d="M6864 1014 c3 -9 6 -22 6 -30 0 -11 27 -14 150 -14 l150 0 0 30 0 30 -156 0 c-138 0 -155 -2 -150 -16z"
     fill="#979797"/>
  <path d="M2345 980 c-4 -17 -5 -33 -3 -34 8 -6 112 -46 119 -46 5 0 9 15 9 33 0 31 -4 34 -52 53 -29 10 -56 20 -59 22 -4 2 -10 -11 -14 -28z"
     fill="#8f87b2"/>
  <path d="M3709 1003 l-55 -4 -16 -49 -16 -50 119 0 119 0 0 55 0 55 -47 -2 c-27 -1 -73 -3 -104 -5z"
     fill="#a64800"/>
  <path d="M3870 970 l0 -40 228 0 c125 0 264 -3 310 -7 l82 -6 0 40 0 40 -61 7 c-34 3 -174 6 -310 6 l-249 0 0 -40z"
     fill="#a58726"/>
  <path d="M4863 1003 c-41 -3 -53 -8 -57 -24 -4 -10 -9 -28 -12 -39 -5 -20 -3 -20 213 -14 120 4 226 11 236 16 10 5 17 20 17 38 l0 30 -172 -2 c-95 -1 -196 -3 -225 -5z"
     fill="#a58726"/>
  <path d="M4500 960 l0 -40 139 0 c131 0 140 1 145 20 3 11 9 29 12 40 5 19 1 20 -145 20 l-151 0 0 -40z"
     fill="#96964e"/>
  <path d="M3090 984 c-8 -1 -54 -6 -102 -9 -80 -6 -88 -9 -88 -27 0 -22 2 -22 188 1 l63 7 -5 -35 c-3 -20 -8 -62 -12 -93 l-6 -58 -58 0 c-85 0 -150 -11 -150 -25 0 -7 20 -15 46 -19 54 -7 214 -8 214 -1 0 10 31 221 35 243 5 21 3 22 -52 21 -32 -1 -65 -3 -73 -5z"
     fill="#9b720c"/>
  <path d="M3225 968 c-4 -22 -35 -233 -35 -243 0 -3 5 -5 10 -5 6 0 10 25 10 55 0 47 3 55 19 55 23 0 31 26 31 103 0 44 -3 57 -15 57 -8 0 -17 -10 -20 -22z"
     fill="#9b720c"/>
  <path d="M3265 859 c-6 -116 -4 -152 9 -138 10 10 18 269 8 269 -6 0 -13 -53 -17 -131z"
     fill="#b7954b"/>
  <path d="M2510 965 c0 -8 5 -15 10 -15 6 0 10 7 10 15 0 8 -4 15 -10 15 -5 0 -10 -7 -10 -15z"
     fill="#9b720c"/>
  <path d="M2540 961 c0 -16 10 -20 60 -26 67 -8 65 -4 54 -102 l-7 -53 -43 0 c-43 0 -44 -1 -44 -31 0 -28 3 -31 23 -25 12 3 44 6 71 6 l48 0 -7 97 -7 96 53 -6 c30 -4 62 -7 73 -7 17 0 18 -6 11 -90 l-7 -90 27 0 27 0 -7 118 c-4 64 -9 120 -12 125 -2 4 -74 7 -159 7 -145 0 -154 -1 -154 -19z"
     fill="#9b720c"/>
  <path d="M2874 878 c3 -50 6 -104 6 -120 0 -19 5 -28 16 -28 14 0 15 9 10 60 -3 33 -9 87 -12 120 -3 33 -11 60 -16 60 -8 0 -9 -30 -4 -92z"
     fill="#b7954b"/>
  <path d="M5412 733 c-1 -152 2 -244 8 -248 11 -7 12 177 0 370 -6 104 -7 88 -8 -122z"
     fill="#a58726"/>
  <path d="M5435 758 c4 -117 9 -215 11 -217 14 -15 16 32 9 219 -4 128 -11 210 -17 210 -7 0 -8 -73 -3 -212z"
     fill="#99700b"/>
  <path d="M6130 965 c-8 -2 -32 -6 -52 -10 l-38 -6 0 -218 0 -219 56 -7 c31 -4 59 -4 62 0 4 4 9 110 11 236 3 241 5 233 -39 224z"
     fill="#713831"/>
  <path d="M347 953 c-4 -3 -7 -17 -7 -30 l0 -23 140 0 140 0 0 30 0 30 -133 0 c-74 0 -137 -3 -140 -7z"
     fill="#8b6818"/>
  <path d="M750 930 l0 -30 135 0 135 0 0 30 0 30 -135 0 -135 0 0 -30z"
     fill="#8b6818"/>
  <path d="M2480 915 c0 -36 4 -44 23 -49 35 -9 37 -8 37 32 0 33 -4 39 -30 49 l-30 11 0 -43z"
     fill="#8b6818"/>
  <path d="M6640 930 c0 -30 0 -30 60 -30 60 0 60 0 60 30 0 30 0 30 -60 30 -60 0 -60 0 -60 -30z"
     fill="#979797"/>
  <path d="M6870 930 l0 -30 153 0 154 0 -5 30 -4 30 -149 0 -149 0 0 -30z"
     fill="#979797"/>
  <path d="M5575 938 c-124 -31 -115 -26 -115 -63 0 -24 5 -35 15 -35 13 0 15 -22 15 -140 l0 -140 65 0 65 0 0 195 c0 107 -1 195 -2 194 -2 -1 -21 -6 -43 -11z m25 -149 l0 -101 -32 7 c-71 14 -68 10 -68 95 0 79 0 80 28 86 15 3 32 7 37 9 33 11 35 5 35 -96z"
     fill="#8b6818"/>
  <path d="M2251 843 c1 -54 5 -159 8 -233 7 -129 8 -125 9 98 1 149 -2 232 -8 232 -6 0 -10 -38 -9 -97z"
     fill="#927821"/>
  <path d="M2076 792 c-8 -180 -8 -222 3 -222 5 0 12 54 16 121 l7 120 42 -6 c22 -4 42 -8 44 -10 1 -1 -4 -51 -13 -110 -8 -60 -15 -110 -15 -112 0 -2 20 -3 45 -3 l45 0 0 39 c0 36 -3 40 -30 46 -30 7 -31 8 -25 53 15 117 17 123 31 118 10 -4 14 4 14 28 0 33 0 34 -79 53 l-78 20 -7 -135z"
     fill="#b86044"/>
  <path d="M3870 881 c0 -21 3 -66 6 -100 l7 -61 88 0 c88 0 89 0 89 25 0 20 -5 25 -24 25 -20 0 -24 6 -30 46 -9 70 -8 74 19 74 16 0 25 6 25 15 0 12 -17 15 -90 15 l-90 0 0 -39z"
     fill="#9b7238"/>
  <path d="M4061 878 c1 -24 5 -70 9 -103 7 -56 7 -53 9 43 0 62 -3 102 -9 102 -5 0 -10 -19 -9 -42z"
     fill="#a58726"/>
  <path d="M4090 905 c0 -8 7 -15 15 -15 12 0 15 -13 15 -60 0 -47 -3 -60 -15 -60 -9 0 -15 -9 -15 -25 l0 -25 154 0 155 0 6 58 c3 31 8 73 11 93 5 34 3 37 -27 43 -17 3 -92 6 -165 6 -112 0 -134 -2 -134 -15z m240 -75 l0 -60 -55 0 c-40 0 -55 4 -55 14 0 7 -3 34 -6 60 l-7 46 62 0 61 0 0 -60z"
     fill="#9b7238"/>
  <path d="M2410 900 c8 -5 20 -10 25 -10 6 0 3 5 -5 10 -8 5 -19 10 -25 10 -5 0 -3 -5 5 -10z"
     fill="#927821"/>
  <path d="M4426 873 c-14 -102 -17 -153 -8 -153 6 0 13 24 17 53 3 28 9 71 12 95 3 26 1 42 -5 42 -6 0 -13 -17 -16 -37z"
     fill="#a58726"/>
  <path d="M4455 858 c-3 -29 -9 -72 -12 -95 l-5 -43 51 0 51 0 0 95 0 95 -39 0 -39 0 -7 -52z"
     fill="#9b7238"/>
  <path d="M4673 843 c4 -38 7 -80 7 -95 l0 -28 101 0 101 0 -7 53 c-3 28 -9 71 -12 95 l-5 42 -96 0 -95 0 6 -67z m177 32 c0 -2 -5 -27 -11 -55 l-11 -50 -49 0 c-40 0 -49 3 -49 18 0 9 -3 34 -6 55 l-7 37 67 0 c36 0 66 -2 66 -5z"
     fill="#9b7238"/>
  <path d="M5251 885 c0 -16 -3 -59 -5 -95 -3 -53 -2 -57 4 -20 6 37 7 27 10 -55 1 -55 6 -127 10 -160 7 -58 7 -58 9 -15 1 25 4 56 6 70 5 22 4 22 -4 5 -7 -14 -10 8 -11 80 -2 102 -16 244 -19 190z"
     fill="#a58726"/>
  <path d="M5345 891 l-40 -6 -3 -151 -3 -151 32 -7 c17 -3 35 -6 40 -6 5 0 9 32 9 70 l0 70 -35 0 -35 0 0 70 0 70 30 0 c27 0 30 -3 31 -32 2 -31 2 -31 6 -5 2 15 9 27 14 27 5 0 9 14 9 30 0 17 -3 29 -7 29 -5 -1 -26 -5 -48 -8z"
     fill="#8b6818"/>
  <path d="M336 868 c-3 -13 -6 -26 -6 -31 0 -4 64 -6 143 -5 l142 3 3 28 3 27 -139 0 c-136 0 -140 -1 -146 -22z"
     fill="#8b6818"/>
  <path d="M750 860 l0 -30 135 0 135 0 0 30 0 30 -135 0 -135 0 0 -30z"
     fill="#8b6818"/>
  <path d="M3655 770 c0 -77 3 -119 10 -117 5 2 10 18 9 35 -2 155 -5 202 -11 202 -5 0 -8 -54 -8 -120z m12 -97 c-3 -10 -5 -4 -5 12 0 17 2 24 5 18 2 -7 2 -21 0 -30z"
     fill="#a58726"/>
  <path d="M3687 883 c-4 -3 -7 -17 -7 -30 0 -22 3 -23 75 -23 l75 0 0 30 0 30 -68 0 c-38 0 -72 -3 -75 -7z"
     fill="#a64800"/>
  <path d="M3845 813 c7 -78 10 -91 21 -81 9 10 -8 158 -19 158 -6 0 -7 -29 -2 -77z"
     fill="#a58726"/>
  <path d="M6640 860 l0 -30 66 0 c56 0 65 2 60 16 -3 9 -6 22 -6 30 0 10 -15 14 -60 14 -60 0 -60 0 -60 -30z"
     fill="#979797"/>
  <path d="M6874 874 c3 -9 6 -22 6 -30 0 -11 27 -14 150 -14 l150 0 0 30 0 30 -156 0 c-138 0 -155 -2 -150 -16z"
     fill="#979797"/>
  <path d="M2280 845 c0 -36 -1 -35 98 -51 l44 -6 -6 -47 c-16 -110 -10 -104 -77 -96 l-59 7 0 -42 0 -43 62 7 c34 3 63 7 64 9 6 6 34 250 29 255 -2 2 -38 12 -79 22 l-76 17 0 -32z"
     fill="#b86044"/>
  <path d="M5160 799 l0 -79 35 0 c31 0 35 3 35 25 0 16 -6 25 -15 25 -11 0 -15 12 -15 49 0 40 -3 50 -20 54 -19 5 -20 0 -20 -74z"
     fill="#9b7238"/>
  <path d="M5277 763 c3 -65 7 -120 9 -122 2 -2 4 50 4 117 0 72 -4 122 -10 122 -6 0 -7 -45 -3 -117z"
     fill="#99700b"/>
  <path d="M5143 800 c0 -41 3 -122 7 -180 l7 -105 1 92 2 92 43 4 c41 4 41 4 -5 3 l-47 -1 -4 85 -3 85 -1 -75z"
     fill="#a58726"/>
  <path d="M2534 690 c0 -91 2 -128 3 -82 2 45 2 119 0 165 -1 45 -3 8 -3 -83z"
     fill="#927821"/>
  <path d="M4568 816 c-10 -7 -18 -25 -18 -40 0 -21 5 -26 25 -26 23 0 25 4 25 40 0 43 -5 47 -32 26z"
     fill="#c6b22f"/>
  <path d="M4610 790 c0 -38 2 -40 30 -40 18 0 30 5 30 13 0 27 -26 67 -42 67 -14 0 -18 -9 -18 -40z"
     fill="#c6b22f"/>
  <path d="M5394 700 c0 -74 1 -105 3 -67 2 37 2 97 0 135 -2 37 -3 6 -3 -68z"
     fill="#ffffff"/>
  <path d="M5467 698 c3 -73 7 -135 9 -137 2 -2 4 57 4 132 0 78 -4 137 -9 137 -6 0 -7 -54 -4 -132z"
     fill="#3d36aa"/>
  <path d="M328 790 l-5 -30 144 0 143 0 0 30 0 30 -139 0 -139 0 -4 -30z"
     fill="#8b6818"/>
  <path d="M750 790 l0 -30 135 0 135 0 0 30 0 30 -135 0 -135 0 0 -30z"
     fill="#8b6818"/>
  <path d="M3220 770 c0 -38 4 -50 15 -50 11 0 15 12 15 50 0 38 -4 50 -15 50 -11 0 -15 -12 -15 -50z"
     fill="#dc8111"/>
  <path d="M3292 764 l3 -56 -345 7 c-229 4 -355 3 -375 -4 -23 -8 -11 -9 53 -5 46 4 209 3 362 -1 l280 -8 0 -33 0 -34 65 0 c40 0 65 4 65 11 0 6 -9 13 -20 16 -11 3 -20 9 -20 14 0 4 -12 9 -27 11 -28 3 -28 3 -25 71 3 47 0 67 -8 67 -8 0 -11 -18 -8 -56z"
     fill="#9b720c"/>
  <path d="M3320 755 c0 -58 2 -65 20 -65 18 0 20 7 20 65 0 58 -2 65 -20 65 -18 0 -20 -7 -20 -65z"
     fill="#dc8111"/>
  <path d="M3370 746 c0 -70 7 -86 36 -86 2 0 4 36 4 80 0 73 -2 80 -20 80 -18 0 -20 -7 -20 -74z"
     fill="#dc8111"/>
  <path d="M3420 735 c0 -84 0 -85 25 -85 25 0 25 1 25 85 0 84 0 85 -25 85 -25 0 -25 -1 -25 -85z"
     fill="#dc8111"/>
  <path d="M3480 735 c0 -84 0 -85 25 -85 25 0 25 1 25 85 0 84 0 85 -25 85 -25 0 -25 -1 -25 -85z"
     fill="#dc8111"/>
  <path d="M3540 735 c0 -78 2 -85 20 -85 18 0 20 7 20 85 0 78 -2 85 -20 85 -18 0 -20 -7 -20 -85z"
     fill="#dc8111"/>
  <path d="M3590 735 c0 -84 0 -85 25 -85 25 0 25 1 25 85 0 84 0 85 -25 85 -25 0 -25 -1 -25 -85z"
     fill="#dc8111"/>
  <path d="M3683 770 c0 -30 2 -43 4 -27 2 15 2 39 0 55 -2 15 -4 2 -4 -28z"
     fill="#dc8111"/>
  <path d="M3700 786 c0 -18 -2 -55 -5 -82 -2 -27 -2 -41 1 -31 3 9 11 17 19 17 16 0 25 31 25 88 0 35 -3 42 -20 42 -16 0 -20 -7 -20 -34z"
     fill="#dc8111"/>
  <path d="M3750 770 c0 -43 3 -50 20 -50 17 0 20 7 20 50 0 43 -3 50 -20 50 -17 0 -20 -7 -20 -50z"
     fill="#dc8111"/>
  <path d="M3800 771 c0 -45 3 -51 21 -51 18 0 20 5 17 47 -2 36 -7 49 -20 51 -15 3 -18 -4 -18 -47z"
     fill="#dc8111"/>
  <path d="M6640 790 l0 -30 65 0 65 0 0 30 0 30 -65 0 -65 0 0 -30z"
     fill="#979797"/>
  <path d="M6880 806 c0 -44 6 -46 156 -46 l144 0 0 30 0 30 -150 0 c-123 0 -150 -3 -150 -14z"
     fill="#979797"/>
  <path d="M6455 783 c-182 -14 -185 -15 -185 -30 0 -12 13 -14 78 -9 205 17 212 18 212 32 0 14 -12 15 -105 7z"
     fill="#15422f"/>
  <path d="M2440 750 c0 -28 2 -30 40 -30 38 0 40 2 40 30 0 28 -2 30 -40 30 -38 0 -40 -2 -40 -30z"
     fill="#9b720c"/>
  <path d="M320 720 l0 -30 145 0 145 0 0 30 0 30 -145 0 -145 0 0 -30z"
     fill="#8b6818"/>
  <path d="M750 736 c0 -8 -3 -21 -6 -30 -5 -14 10 -16 135 -16 l141 0 0 30 0 30 -135 0 c-110 0 -135 -3 -135 -14z"
     fill="#8b6818"/>
  <path d="M6640 720 l0 -30 65 0 65 0 0 30 0 30 -65 0 -65 0 0 -30z"
     fill="#979797"/>
  <path d="M6963 743 c43 -2 110 -2 150 0 40 1 5 3 -78 3 -82 0 -115 -2 -72 -3z"
     fill="#808080"/>
  <path d="M5948 733 c-31 -8 -19 -23 17 -23 24 0 35 5 35 15 0 15 -17 17 -52 8z"
     fill="#15422f"/>
  <path d="M7078 733 c-131 -2 -238 -7 -238 -12 0 -5 107 -11 238 -15 130 -3 346 -9 480 -12 l242 -6 0 26 0 26 -242 -2 c-134 -2 -350 -4 -480 -5z"
     fill="#a58726"/>
  <path d="M2453 703 c15 -2 37 -2 50 0 12 2 0 4 -28 4 -27 0 -38 -2 -22 -4z"
     fill="#9b720c"/>
  <path d="M3750 695 c0 -8 -9 -15 -20 -15 -11 0 -20 -7 -20 -15 0 -8 -7 -15 -15 -15 -8 0 -15 -4 -15 -10 0 -5 20 -10 45 -10 45 0 45 0 45 35 l0 35 683 3 682 2 -692 3 c-610 2 -693 0 -693 -13z"
     fill="#65656e"/>
  <path d="M2820 665 c0 -19 5 -35 10 -35 6 0 10 16 10 35 0 19 -4 35 -10 35 -5 0 -10 -16 -10 -35z"
     fill="#b7954b"/>
  <path d="M6938 693 c29 -2 74 -2 100 0 26 2 2 3 -53 3 -55 0 -76 -1 -47 -3z"
     fill="#949494"/>
  <path d="M2580 660 c0 -16 5 -30 10 -30 6 0 10 14 10 30 0 17 -4 30 -10 30 -5 0 -10 -13 -10 -30z"
     fill="#b7954b"/>
  <path d="M3040 660 c0 -16 5 -30 10 -30 6 0 10 14 10 30 0 17 -4 30 -10 30 -5 0 -10 -13 -10 -30z"
     fill="#b7954b"/>
  <path d="M3240 660 c0 -16 5 -30 10 -30 6 0 10 14 10 30 0 17 -4 30 -10 30 -5 0 -10 -13 -10 -30z"
     fill="#b7954b"/>
  <path d="M3950 660 c0 -16 5 -30 10 -30 6 0 10 14 10 30 0 17 -4 30 -10 30 -5 0 -10 -13 -10 -30z"
     fill="#a58726"/>
  <path d="M4150 660 c0 -16 5 -30 10 -30 6 0 10 14 10 30 0 17 -4 30 -10 30 -5 0 -10 -13 -10 -30z"
     fill="#a58726"/>
  <path d="M4340 660 c0 -16 5 -30 10 -30 6 0 10 14 10 30 0 17 -4 30 -10 30 -5 0 -10 -13 -10 -30z"
     fill="#a58726"/>
  <path d="M4960 660 c0 -16 5 -30 10 -30 6 0 10 14 10 30 0 17 -4 30 -10 30 -5 0 -10 -13 -10 -30z"
     fill="#a58726"/>
  <path d="M7190 581 l0 -109 128 -6 c70 -4 170 -9 223 -12 l96 -6 6 62 c4 35 7 86 7 115 l0 52 -67 6 c-38 4 -141 7 -230 7 l-163 0 0 -109z"
     fill="#8b6818"/>
  <path d="M316 658 c-3 -13 -6 -26 -6 -30 0 -5 65 -8 145 -8 119 0 145 3 145 14 0 8 3 21 6 30 5 14 -11 16 -139 16 -142 0 -145 0 -151 -22z"
     fill="#8b6818"/>
  <path d="M740 650 l0 -30 140 0 140 0 0 30 0 30 -140 0 -140 0 0 -30z"
     fill="#8b6818"/>
  <path d="M6640 650 l0 -30 70 0 c72 0 79 5 64 44 -5 12 -21 16 -70 16 l-64 0 0 -30z"
     fill="#979797"/>
  <path d="M6890 650 l0 -30 145 0 145 0 0 30 0 30 -145 0 -145 0 0 -30z"
     fill="#979797"/>
  <path d="M7657 568 c-11 -190 -12 -188 21 -188 l29 0 6 107 c4 58 7 126 7 150 0 41 -2 43 -28 43 l-29 0 -6 -112z"
     fill="#a58726"/>
  <path d="M7730 637 c0 -24 -3 -91 -6 -149 -7 -104 -7 -105 17 -111 13 -3 24 -5 25 -4 1 1 5 71 9 155 l7 152 -26 0 c-24 0 -26 -3 -26 -43z"
     fill="#8b6818"/>
  <path d="M7787 566 c-4 -66 -5 -121 -2 -124 13 -13 15 13 13 124 l-3 119 -8 -119z"
     fill="#8b6818"/>
  <path d="M310 580 l0 -30 145 0 145 0 0 30 0 30 -145 0 -145 0 0 -30z"
     fill="#8b6818"/>
  <path d="M740 580 l0 -30 140 0 140 0 0 30 0 30 -140 0 -140 0 0 -30z"
     fill="#8b6818"/>
  <path d="M6640 580 l0 -30 70 0 70 0 0 30 0 30 -70 0 -70 0 0 -30z"
     fill="#979797"/>
  <path d="M6894 588 c3 -13 6 -26 6 -30 0 -5 63 -8 140 -8 l140 0 0 30 0 30 -146 0 -146 0 6 -22z"
     fill="#979797"/>
  <path d="M1755 573 c-16 -1 -54 -6 -82 -9 -36 -4 -53 -10 -53 -20 0 -15 60 -18 158 -7 42 4 52 9 52 24 0 19 -7 21 -75 12z"
     fill="#a58726"/>
  <path d="M5190 570 c14 -4 36 -8 50 -8 l25 0 -25 8 c-14 4 -36 8 -50 8 l-25 0 25 -8z"
     fill="#8b4b18"/>
  <path d="M1870 558 c0 -4 7 -8 15 -8 8 0 15 -7 15 -15 0 -18 -3 -18 59 -4 37 8 48 14 44 25 -4 11 -21 14 -69 13 -35 -1 -64 -6 -64 -11z"
     fill="#a58726"/>
  <path d="M2381 558 c14 -5 -2 -6 -41 -4 -40 2 -57 1 -45 -4 19 -8 19 -9 1 -9 -11 -1 -17 -3 -15 -6 5 -5 228 21 234 27 2 2 -33 3 -78 3 -51 0 -72 -2 -56 -7z"
     fill="#927821"/>
  <path d="M5320 560 c25 -8 87 -13 79 -6 -2 2 -26 6 -54 9 -34 4 -42 3 -25 -3z"
     fill="#8b4b18"/>
  <path d="M1433 553 c-42 -4 -43 -5 -43 -39 0 -36 0 -36 38 -30 20 3 58 8 85 11 44 6 47 8 47 36 0 28 -2 29 -42 27 -24 -1 -62 -3 -85 -5z"
     fill="#a58726"/>
  <path d="M2110 551 c-53 -6 -55 -7 -58 -38 -3 -35 -5 -34 77 -47 30 -6 40 -1 75 31 l41 38 -35 -39 c-33 -37 -34 -39 -10 -33 14 4 31 7 38 7 9 0 12 11 10 33 -3 30 -6 32 -48 36 l-45 5 50 6 50 7 -45 0 c-25 0 -70 -3 -100 -6z"
     fill="#8b4b18"/>
  <path d="M2550 545 c0 -16 16 -20 24 -6 3 5 -1 11 -9 15 -9 3 -15 0 -15 -9z"
     fill="#8b4b18"/>
  <path d="M1040 525 l0 -25 120 0 120 0 0 25 0 25 -120 0 -120 0 0 -25z"
     fill="#a58726"/>
  <path d="M1291 430 c-1 -101 1 -120 14 -120 13 0 15 19 15 120 0 97 -3 120 -14 120 -11 0 -14 -24 -15 -120z"
     fill="#a58726"/>
  <path d="M5528 541 c55 -5 66 -10 78 -31 l13 -25 1 33 0 32 -77 -2 -78 -1 63 -6z"
     fill="#8b4b18"/>
  <path d="M310 510 l0 -31 143 3 142 3 3 28 3 27 -145 0 -146 0 0 -30z"
     fill="#8b4b18"/>
  <path d="M740 511 l0 -28 243 -7 c133 -4 249 -5 257 -1 13 4 15 -2 12 -34 -3 -28 -9 -41 -23 -44 -12 -3 -19 -14 -19 -30 0 -19 -7 -28 -30 -36 -19 -6 -30 -17 -30 -29 0 -18 4 -19 43 -11 96 21 87 10 87 104 0 101 4 99 -152 93 l-104 -3 4 28 4 27 -146 0 -146 0 0 -29z"
     fill="#8b6818"/>
  <path d="M1783 528 c-51 -6 -93 -14 -93 -19 0 -5 15 -9 33 -9 37 1 155 25 164 34 4 3 2 5 -3 5 -5 -1 -51 -6 -101 -11z"
     fill="#a48625"/>
  <path d="M6640 510 l0 -30 64 0 c58 0 64 2 70 23 3 12 6 25 6 30 0 4 -31 7 -70 7 l-70 0 0 -30z"
     fill="#979797"/>
  <path d="M6900 510 l0 -30 140 0 140 0 0 30 0 30 -140 0 -140 0 0 -30z"
     fill="#979797"/>
  <path d="M5447 523 c-10 -10 -8 -53 2 -53 5 0 17 -3 27 -7 15 -6 15 -2 -5 28 l-23 34 29 -34 c28 -32 31 -33 81 -26 29 4 52 8 52 10 0 2 -5 16 -12 30 -10 23 -16 25 -78 25 -37 0 -70 -3 -73 -7z"
     fill="#646496"/>
  <path d="M5660 522 c0 -10 168 -28 177 -18 11 11 -1 14 -89 21 -57 5 -88 4 -88 -3z"
     fill="#949494"/>
  <path d="M1865 515 c-5 -2 -36 -9 -67 -15 -41 -8 -58 -16 -58 -27 0 -10 5 -13 18 -8 31 12 123 26 145 23 12 -2 -8 -7 -45 -12 -51 -6 -68 -11 -68 -23 0 -11 6 -14 23 -9 12 3 43 6 69 6 31 0 52 6 64 17 16 17 15 18 -19 26 -21 5 -37 13 -37 18 0 9 -7 10 -25 4z"
     fill="#a58726"/>
  <path d="M5630 475 c0 -19 5 -35 10 -35 6 0 10 16 10 35 0 19 -4 35 -10 35 -5 0 -10 -16 -10 -35z"
     fill="#949494"/>
  <path d="M5890 501 c0 -6 1 -11 3 -11 1 0 58 -7 127 -15 152 -18 140 -18 140 -1 0 14 -20 18 -192 31 -53 5 -78 3 -78 -4z"
     fill="#949494"/>
  <path d="M6386 499 c-82 -5 -152 -11 -154 -14 -15 -15 24 -17 202 -10 156 6 196 10 196 21 0 16 -11 16 -244 3z"
     fill="#646496"/>
  <path d="M5660 476 c0 -14 5 -28 10 -31 6 -4 10 7 10 24 0 17 -4 31 -10 31 -5 0 -10 -11 -10 -24z"
     fill="#515151"/>
  <path d="M5690 491 c0 -7 29 -11 77 -11 42 0 74 2 72 4 -11 10 -149 16 -149 7z"
     fill="#8b6818"/>
  <path d="M5850 440 c0 -29 4 -40 15 -40 11 0 15 11 15 40 0 29 -4 40 -15 40 -11 0 -15 -11 -15 -40z"
     fill="#949494"/>
  <path d="M5890 440 c0 -22 5 -40 10 -40 6 0 10 18 10 40 0 22 -4 40 -10 40 -5 0 -10 -18 -10 -40z"
     fill="#515151"/>
  <path d="M300 440 l0 -30 145 0 145 0 0 30 0 30 -145 0 -145 0 0 -30z"
     fill="#8b6818"/>
  <path d="M740 440 l0 -30 99 0 c116 0 131 4 131 36 0 24 0 24 -115 24 l-115 0 0 -30z"
     fill="#8b6818"/>
  <path d="M6335 461 l-100 -6 0 -59 0 -60 78 -17 c63 -14 77 -14 77 -3 0 7 -11 16 -25 20 -14 3 -25 13 -25 21 0 8 -13 20 -30 26 -18 7 -30 19 -30 30 0 9 -10 22 -22 27 -13 5 -17 9 -10 9 7 1 21 -3 31 -9 20 -10 345 10 357 23 8 8 -141 6 -301 -2z"
     fill="#646496"/>
  <path d="M6678 463 c6 -2 12 -13 12 -23 0 -17 26 -30 63 -30 12 0 17 8 17 30 0 30 -1 30 -52 29 -29 0 -47 -3 -40 -6z"
     fill="#979797"/>
  <path d="M980 436 c0 -21 5 -24 68 -29 85 -9 156 -9 176 -1 9 3 16 17 16 30 l0 24 -130 0 c-130 0 -130 0 -130 -24z"
     fill="#a58726"/>
  <path d="M6920 454 c38 -6 657 -64 691 -64 24 0 29 4 29 24 0 22 -5 24 -72 29 -84 8 -686 18 -648 11z"
     fill="#8b4e05"/>
  <path d="M1895 443 c-22 -2 -56 -6 -75 -9 -34 -6 -34 -6 -10 -16 36 -13 180 1 180 18 0 14 -8 15 -95 7z"
     fill="#a58726"/>
  <path d="M6475 435 c-82 -7 -158 -14 -167 -14 -27 -1 -22 -20 7 -27 14 -3 25 -10 25 -14 0 -5 7 -16 16 -24 17 -18 84 -20 270 -10 l111 7 -5 24 -5 25 -101 -6 c-55 -4 -141 -8 -191 -10 -75 -4 -81 -3 -35 4 30 4 87 8 126 9 39 1 92 4 116 7 38 5 45 9 41 25 -6 22 4 22 -208 4z"
     fill="#646496"/>
  <path d="M6840 427 c0 -30 -46 -22 480 -87 223 -27 422 -53 443 -56 l37 -6 0 40 0 41 -52 6 c-29 3 -222 21 -428 40 -206 19 -399 37 -427 40 -51 6 -53 6 -53 -18z"
     fill="#a58726"/>
  <path d="M7780 400 c0 -16 5 -30 10 -30 6 0 10 14 10 30 0 17 -4 30 -10 30 -5 0 -10 -13 -10 -30z"
     fill="#8b6818"/>
  <path d="M1980 413 c-111 -11 -120 -13 -120 -37 l0 -23 90 21 c49 12 95 27 102 34 13 13 8 13 -72 5z"
     fill="#a58726"/>
  <path d="M740 370 c0 -28 1 -29 27 -19 16 6 29 6 31 1 1 -5 19 -5 42 2 28 7 40 16 40 28 0 16 -9 18 -70 18 l-70 0 0 -30z"
     fill="#8b6818"/>
  <path d="M923 393 c-20 -2 -33 -10 -33 -19 0 -12 27 -14 155 -14 131 0 155 2 155 15 0 10 -10 15 -33 15 -19 0 -74 2 -123 4 -49 2 -104 2 -121 -1z"
     fill="#a58726"/>
  <path d="M6740 380 c0 -11 4 -20 9 -20 5 0 11 9 14 20 3 13 0 20 -9 20 -8 0 -14 -9 -14 -20z"
     fill="#979797"/>
  <path d="M6835 315 c-4 -42 -5 -78 -2 -81 14 -15 47 9 48 34 6 108 5 117 -18 120 -20 3 -22 -2 -28 -73z"
     fill="#8b6818"/>
  <path d="M6900 366 c0 -13 11 -16 64 -16 36 0 68 5 71 10 3 6 -4 10 -18 10 -13 0 -45 3 -71 6 -38 6 -46 4 -46 -10z"
     fill="#808080"/>
  <path d="M613 353 c-9 -3 -13 -31 -13 -89 0 -75 2 -84 19 -84 15 0 19 11 25 61 12 117 8 128 -31 112z"
     fill="#a58726"/>
  <path d="M823 340 c-13 -5 -23 -11 -23 -13 0 -8 353 5 374 13 13 5 -48 9 -154 9 -96 0 -185 -4 -197 -9z"
     fill="#a58726"/>
  <path d="M6498 333 c-79 -3 -98 -7 -98 -19 0 -12 16 -14 108 -9 189 10 252 16 252 26 0 9 -44 9 -262 2z"
     fill="#646496"/>
  <path d="M7011 319 c-57 -4 -109 -13 -114 -18 -14 -14 -13 -14 146 3 70 7 131 16 134 20 7 7 -23 6 -166 -5z"
     fill="#848484"/>
  <path d="M917 313 c-30 -3 -37 -8 -33 -19 3 -9 6 -20 6 -25 0 -5 11 -4 26 1 14 6 70 10 125 10 92 0 99 1 99 20 0 19 -6 20 -92 18 -51 -1 -110 -3 -131 -5z"
     fill="#a58726"/>
  <path d="M7646 191 c-4 -55 -5 -104 -2 -109 3 -6 17 -12 30 -14 24 -5 24 -4 31 99 4 57 6 106 4 108 -2 2 -16 6 -30 10 l-26 6 -7 -100z"
     fill="#a58726"/>
  <path d="M7715 169 c-4 -61 -5 -113 -2 -115 3 -3 16 -2 30 1 24 6 25 11 32 107 8 105 4 117 -36 118 -14 0 -18 -18 -24 -111z"
     fill="#8b6818"/>
  <path d="M 4922.000 913 C 4901.000 909 4899.000 904 4904.000 872 C 4907.000 852 4912.000 809 4915.000 778 L 4921.000 720 L 5026.000 720 L 5130.000 720 L 5130.000 794 C 5130.000 865 5131.000 870 5160.000 890 C 5176.000 902 5195.000 908 5201.000 904 C 5209.000 900 5210.000 901 5206.000 908 C 5199.000 920 4976.000 923 4922.000 913 z M 5110.000 876 C 5110.000 869 5107.000 842 5104.000 816 L 5097.000 770 L 5044.000 770 L 4990.000 770 L 4990.000 830 L 4990.000 890 L 5050.000 890 C 5094.000 890 5110.000 886 5110.000 876 z "
     fill="#9b720c"/>
  <path d="M 310 510 L 310 479 L 453 482 L 595 485 L 598 513 L 601 540 L 456 540 L 310 540 L 310 510 z "
     fill="#8b6818"/>
  <path d="M 185 404 C 163 402 112.0000 398 73.00000 394 C 3.000000 389 0 387 0 363 C 0 339 2.000000 338 48.00000 344 C 165 359 543 391 563 388 C 575 386 470 374 330 362 C -3.000000 331 0 332 0 308 C 0 291 5 289 38.00000 294 C 58.00000 297 190 313 330 330 C 470 347 603 363 624 366 L 663 372 L 656 281 C 652 230 652 186 654 181 C 657 176 713 183 777 196 C 945 230 940 228 940 250 C 940 267 936 268 914 260 C 900 254 887 250 885 250 C 884 250 879 266 876 286 C 869 321 868 321 829 315 C 794 309 790 310 790 329 C 790 347 787 348 764 340 C 729 326 730 326 730 363 L 730 395 L 542 397 C 439 399 326 402 290 404 C 254 406 207 406 185 404 z "
     fill="#8b6818"/>
  <path d="M 283 312 C 273 306 237 121.0000 244 113.0000 C 245 112.0000 256 113.0000 267 116.0000 C 284 121.0000 290 132 294 164 C 314 321 313 331 283 312 z "
     fill="#8b6818"/>
  <path d="M 226 288 C 215 238 201 126.0000 205 122.0000 C 207 119.0000 215 120.0000 223 123.0000 C 232 126.0000 240 152 244 192 C 248 226 254 267 257 283 C 261 303 259 310 246 310 C 238 310 228 300 226 288 z "
     fill="#a58726"/>
</g>

</svg>
