<?xml version="1.0" standalone="no"?>
<!DOCTYPE svg PUBLIC "-//W3C//DTD SVG 20010904//EN"
"http://www.w3.org/TR/2001/REC-SVG-20010904/DTD/svg10.dtd">
<svg width="468pt" height="367pt" viewBox="0 0 468 367" xmlns="http://www.w3.org/2000/svg">
  <path stroke="none" fill="#d9361d" d="M 116.3443 330.8931 L 113.9372 302.0077 L 152.4512 307.6243 L 151.6488 342.1264 L 137.2060 345.3359 L 116.3443 330.8931 z "/>
  <path stroke="none" fill="#f0bf1d" d="M 113.9372 299.6005 L 113.9372 305.2172 L 148.4393 308.4267 L 167.6963 281.1459 L 122.7633 261.8889 L 114.7396 287.5649 L 113.9372 299.6005 z "/>
  <path stroke="none" fill="#f0bf93" d="M 165.2892 238.6201 L 173.3129 263.4937 L 184.5461 263.4937 L 204.6055 237.0153 L 211.8269 246.6438 L 207.8150 266.7032 L 198.9889 280.3436 L 188.5580 286.7626 L 175.7200 287.5649 L 123.5657 261.0866 L 145.2298 233.8058 L 165.2892 238.6201 z "/>
  <path stroke="none" fill="#6c75b2" d="M 181.3366 208.9322 L 211.8269 217.7583 L 225.4672 236.2130 L 225.4672 254.6676 C 225.4672 254.6676 243.9219 258.6794 244.7242 258.6794 C 245.5266 258.6794 259.1670 270.7151 259.1670 270.7151 L 263.1788 282.7507 L 273.6097 288.3673 L 302.4952 272.3198 L 293.6691 241.0272 L 274.4121 212.9441 L 235.8981 190.4776 L 194.9770 196.8966 L 181.3366 208.9322 z "/>
  <g transform="translate(0,367) scale(0.307895,-0.307895)" fill="#000000" stroke="none">
    <path d="M1446 1155 c-8 -9 -32 -36 -52 -60 -39 -48 -60 -58 -49 -25 10 30 -16 25 -50 -10 -35 -37 -47 -38 -39 -5 7 30 3 30 -64 5 -61 -23 -73 -25 -69 -7 1 9 -22 12 -93 12 -80 0 -102 -4 -140 -23 -92 -48 -150 -160 -150 -290 0 -46 -26 -146 -39 -150 -5 -2 -30 -17 -55 -33 l-46 -31 -56 29 c-32 15 -75 48 -98 72 -105 111 -104 111 -153 111 -62 0 -102 -42 -121 -126 -19 -83 -66 -177 -107 -213 -19 -17 -35 -35 -35 -41 0 -12 42 -4 82 16 34 18 38 17 38 -1 0 -22 14 -19 50 12 26 21 33 24 40 12 7 -11 15 -8 40 16 17 17 39 45 47 63 11 23 21 32 32 28 9 -3 37 -12 64 -22 l47 -17 -35 -34 c-63 -61 -61 -112 4 -111 32 0 41 4 41 18 0 21 35 54 49 45 15 -9 14 -41 -4 -75 -8 -16 -15 -33 -14 -37 5 -29 -5 -55 -34 -86 -25 -28 -36 -33 -49 -26 -21 12 -32 -3 -23 -31 4 -11 2 -20 -4 -20 -14 0 -26 129 -12 143 20 20 12 31 -9 12 -17 -15 -20 -31 -20 -91 0 -68 2 -75 31 -103 33 -34 69 -39 116 -19 40 18 46 31 18 46 -32 16 -33 51 -3 103 20 37 24 39 70 39 41 0 50 4 70 30 12 17 28 30 35 30 8 0 23 9 35 20 38 36 77 19 103 -44 8 -20 22 -36 30 -36 17 0 35 -39 35 -76 0 -57 50 -112 91 -99 22 7 21 30 -2 30 -23 0 -59 56 -59 91 0 48 17 51 30 5 15 -58 94 -114 114 -82 3 5 -4 12 -17 16 -19 6 -19 8 -4 12 28 7 20 23 -13 23 -23 0 -33 7 -45 30 -32 62 -12 66 53 10 48 -43 69 -47 64 -12 -3 17 2 22 20 22 74 1 50 60 -34 85 -28 8 -59 15 -69 15 -21 0 -37 19 -66 83 -34 74 -68 114 -124 148 l-48 30 35 46 c31 41 84 134 84 148 0 3 -7 5 -15 5 -20 0 -19 10 5 40 11 14 20 41 20 63 0 45 10 47 83 13 114 -51 241 -60 322 -22 61 29 120 88 111 111 -3 10 -11 13 -18 9 -7 -4 -1 6 13 22 15 16 31 44 38 63 21 65 9 108 -23 76z m-633 -616 c42 -22 98 -84 122 -138 30 -65 32 -82 5 -53 -25 27 -32 27 -55 2 -16 -18 -19 -18 -41 -3 -14 9 -39 19 -57 22 -27 6 -33 12 -40 49 -8 44 -56 92 -90 92 -10 0 -17 4 -17 9 0 18 19 22 40 9 16 -11 24 -10 47 4 33 20 56 22 86 7z m-119 -75 c20 -21 26 -37 26 -69 0 -47 -24 -80 -40 -56 -5 10 -13 3 -25 -24 -21 -44 -57 -64 -79 -46 -13 11 -8 20 34 61 28 27 50 56 50 64 0 9 5 16 11 16 5 0 7 5 4 10 -11 17 -24 11 -31 -15 -7 -28 -14 -31 -32 -13 -13 13 -17 80 -5 91 15 16 62 5 87 -19z m-114 -9 c0 -8 -4 -15 -9 -15 -5 0 -14 7 -21 15 -10 13 -9 15 9 15 12 0 21 -6 21 -15z m25 -93 c0 -20 -19 -18 -23 2 -3 12 1 17 10 14 7 -3 13 -10 13 -16z m322 -42 c8 -11 9 -21 3 -25 -8 -5 -30 24 -30 39 0 13 16 5 27 -14z m-47 -40 c0 -5 -2 -10 -4 -10 -3 0 -8 5 -11 10 -3 6 -1 10 4 10 6 0 11 -4 11 -10z m-405 -190 c4 -6 -5 -10 -19 -10 -14 0 -26 5 -26 10 0 6 9 10 19 10 11 0 23 -4 26 -10z"/>
    <path d="M680 381 c0 -25 6 -27 13 -6 4 8 2 17 -3 20 -6 4 -10 -3 -10 -14z"/>
  </g>
</svg>
