<!DOCTYPE svg PUBLIC "-//W3C//DTD SVG 20010904//EN"
"http://www.w3.org/TR/2001/REC-SVG-20010904/DTD/svg10.dtd">
<svg version="1.0" width="468pt" height="399pt" viewBox="0 0 468 399" xmlns="http://www.w3.org/2000/svg">
  <path fill="#76D1DC" stroke="none" d="M 238.2100 248.5063 L 253.6893 187.4489 L 256.2692 162.5100 L 253.6893 131.5513 L 247.6696 99.73260 L 235.6301 75.65363 L 210.6911 48.99475 L 251.9694 61.89420 L 288.0879 69.63388 L 319.9065 73.93369 L 353.4451 73.93369 L 380.9640 68.77393 C 380.9640 68.77393 401.6031 58.45435 402.4630 58.45435 C 403.3230 58.45435 417.0824 63.61414 417.0824 63.61414 L 431.7018 79.95346 L 439.4415 99.73260 L 438.5815 129.8314 L 434.2817 151.3304 L 426.5420 173.6895 L 419.6623 207.2281 L 238.2100 248.5063 z "/>
  <path fill="#4BB9C6" stroke="none" d="M 168.5529 214.9678 L 143.6140 150.4705 L 134.1543 106.6123 L 135.0143 82.53333 L 145.3339 61.03424 L 161.6732 44.69495 L 172.8527 38.67520 L 193.4919 43.83496 L 214.9909 54.15454 L 230.4703 71.35382 L 244.2297 92.85291 L 252.8293 130.6913 L 255.4092 153.0504 L 253.6893 184.0091 L 222.7306 202.0683 L 168.5529 214.9678 z "/>
  <g transform="translate(0,399) scale(0.331915,-0.331915)" fill="#000000" stroke="none">
    <path d="M473 1065 c-53 -43 -73 -84 -73 -156 0 -63 31 -195 64 -273 15 -36 15 -40 -1 -51 -10 -7 -38 -15 -63 -18 -39 -4 -52 -12 -97 -61 -29 -31 -68 -81 -87 -110 -45 -70 -79 -96 -127 -96 -29 0 -39 -4 -39 -16 0 -14 10 -16 62 -12 60 4 63 6 110 59 l49 54 77 -40 77 -40 -28 -52 c-31 -57 -76 -91 -132 -100 -39 -6 -42 -26 -5 -31 76 -12 148 39 195 137 29 61 45 77 45 43 0 -28 52 -72 84 -72 32 0 86 51 86 80 0 27 11 30 51 13 l37 -14 -5 -58 c-10 -104 31 -171 105 -171 82 0 151 100 157 227 1 41 4 75 6 77 2 2 16 6 30 10 l27 6 3 -79 c4 -67 8 -83 28 -105 39 -41 84 -36 136 17 54 54 72 111 56 180 -6 27 -11 79 -11 117 0 38 -5 70 -10 72 -6 2 2 38 20 91 22 65 30 105 30 158 0 77 -8 98 -53 147 -36 37 -55 39 -117 11 -96 -45 -332 -22 -533 52 -96 35 -113 36 -154 4z m96 4 c34 -12 42 -29 12 -29 -10 0 -35 -13 -56 -30 -21 -16 -33 -30 -28 -30 5 0 18 9 28 20 25 28 94 46 118 31 10 -7 22 -9 27 -6 5 3 36 -2 69 -11 56 -16 61 -20 79 -63 59 -138 57 -277 -5 -433 -12 -30 -21 -38 -40 -38 -22 0 -24 3 -19 28 44 216 22 402 -56 486 -26 27 -28 28 -17 6 7 -13 18 -30 25 -37 7 -7 22 -39 34 -70 26 -69 33 -229 10 -243 -7 -5 -54 -18 -104 -30 -50 -11 -98 -23 -106 -25 -18 -6 -35 54 -52 190 -9 68 -9 102 0 135 14 55 8 66 -7 13 -15 -52 -14 -92 5 -198 9 -49 18 -106 21 -125 l4 -35 -15 25 c-28 46 -38 74 -62 169 -33 131 -32 187 5 238 31 42 67 73 87 73 6 0 25 -5 43 -11z m678 -64 c17 -9 39 -33 52 -61 20 -39 23 -57 18 -118 -2 -41 -14 -92 -27 -121 -12 -27 -22 -64 -23 -81 -2 -29 -5 -32 -42 -37 -76 -10 -190 -38 -193 -48 -2 -5 -11 -9 -19 -9 -8 0 -13 6 -10 13 67 151 80 233 52 319 -9 29 -26 65 -37 80 l-19 28 38 0 c42 0 130 21 159 38 11 6 19 12 20 12 0 0 14 -7 31 -15z m-332 -28 l80 -12 29 -58 c49 -99 45 -200 -13 -324 l-29 -60 -63 -12 c-35 -7 -75 -15 -88 -18 -20 -5 -22 -3 -13 13 65 123 72 292 18 425 -14 36 -19 59 -12 58 6 0 47 -6 91 -12z m-413 -507 c3 -39 -1 -51 -28 -87 -18 -23 -34 -48 -36 -55 -4 -10 -25 -3 -82 24 -42 21 -76 41 -76 46 0 12 81 88 110 103 30 15 93 28 101 20 4 -3 9 -26 11 -51z m740 -42 c-18 -19 -22 -20 -22 -6 0 9 8 21 17 27 27 15 29 3 5 -21z m-32 8 c0 -3 -4 -8 -10 -11 -5 -3 -10 -1 -10 4 0 6 5 11 10 11 6 0 10 -2 10 -4z m58 -47 c-31 -20 -39 -8 -16 24 23 31 23 32 26 8 2 -13 -2 -28 -10 -32z m-88 19 c0 -12 -1 -19 -3 -17 -1 2 -9 12 -16 22 -12 14 -11 17 3 17 10 0 16 -8 16 -22z m-34 -15 c-3 -8 -2 -11 3 -8 5 3 13 0 16 -6 5 -7 0 -10 -11 -7 -11 2 -20 13 -22 27 -3 15 0 21 8 16 6 -4 9 -14 6 -22z m-586 -8 c0 -2 -10 -10 -22 -16 -21 -11 -22 -11 -9 4 13 16 31 23 31 12z m-2 -45 c-19 -31 -24 -36 -30 -22 -4 11 2 24 20 39 15 13 28 23 30 23 1 0 -8 -18 -20 -40z m393 23 c-5 -10 -16 -27 -24 -37 -13 -18 -14 -17 -9 12 2 17 11 33 21 35 9 3 17 5 19 6 1 0 -2 -7 -7 -16z m39 -16 c0 -27 -5 -35 -30 -44 -16 -6 -30 -9 -30 -7 0 6 52 84 56 84 2 0 4 -15 4 -33z m285 13 c-3 -5 -11 -10 -16 -10 -6 0 -7 5 -4 10 3 6 11 10 16 10 6 0 7 -4 4 -10z m-693 -47 c-5 -56 -8 -61 -24 -45 -9 9 -7 21 7 52 10 22 19 40 20 40 2 0 0 -21 -3 -47z m44 -40 c-7 -17 -36 -17 -36 0 0 6 3 30 7 52 l6 39 14 -39 c7 -22 11 -45 9 -52z m23 78 c8 -5 11 -16 6 -31 -8 -24 -19 -18 -30 18 -7 23 1 28 24 13z m254 -11 c-3 -11 -7 -20 -9 -20 -2 0 -4 9 -4 20 0 11 4 20 9 20 5 0 7 -9 4 -20z m264 10 c22 0 14 -6 -19 -14 -22 -5 -28 -3 -28 10 0 11 5 14 16 10 9 -3 23 -6 31 -6z m-290 -15 c9 -25 -2 -27 -22 -5 -17 18 -17 20 -1 20 9 0 19 -7 23 -15z m-30 -17 c31 -29 29 -35 -7 -30 -24 3 -30 9 -30 28 0 30 7 30 37 2z m423 -3 c0 -8 -2 -15 -4 -15 -2 0 -9 7 -16 15 -10 12 -10 15 4 15 9 0 16 -7 16 -15z m-122 -20 c-26 -30 -28 -30 -28 -6 0 17 12 25 42 30 5 0 -2 -10 -14 -24z m106 -29 c-5 -14 -9 -15 -15 -4 -5 7 -9 22 -9 33 0 17 2 18 15 4 9 -9 13 -23 9 -33z m-71 -3 c-3 -21 -7 -39 -8 -41 -5 -6 -35 11 -35 21 0 9 39 57 46 57 2 0 0 -17 -3 -37z m-193 12 c0 -10 -10 -15 -27 -15 -27 1 -27 1 -9 15 25 19 36 19 36 0z m-137 -5 c18 0 19 -2 7 -10 -8 -5 -23 -7 -34 -4 -12 4 -16 2 -12 -5 4 -6 2 -11 -3 -11 -6 0 -11 9 -11 21 0 15 4 19 16 15 9 -3 25 -6 37 -6z m365 -17 c-2 -14 -8 -28 -14 -30 -7 -2 -9 8 -6 27 5 37 25 40 20 3z m-379 -52 c-16 -22 -25 -27 -31 -19 -14 22 -9 34 20 44 36 14 38 11 11 -25z m141 32 c0 -5 -4 -14 -9 -22 -7 -11 -11 -9 -20 8 -10 18 -9 21 9 21 11 0 20 -3 20 -7z m-107 -50 c-3 -21 -9 -46 -12 -56 -7 -17 -8 -17 -24 1 -16 18 -16 20 10 55 16 20 29 36 30 37 1 0 -1 -17 -4 -37z m77 -18 c-13 -16 -15 -16 -21 2 -4 10 -8 27 -8 38 -1 19 0 19 21 -2 18 -19 19 -24 8 -38z m-48 -42 c-22 -18 -25 -11 -16 44 l8 48 12 -40 c10 -34 9 -42 -4 -52z" />
  </g>
</svg>
