<?xml version="1.0" standalone="no"?>
<!DOCTYPE svg PUBLIC "-//W3C//DTD SVG 20010904//EN"
 "http://www.w3.org/TR/2001/REC-SVG-20010904/DTD/svg10.dtd">
<svg version="1.0" xmlns="http://www.w3.org/2000/svg" width="468pt" height="281pt" viewBox="0 0 468 281">

<rect x="0" y="0" width="100%" height="100%" fill="black" stroke="none"/>

<g transform="translate(0,281) scale(0.117000,-0.117000)" fill="white" stroke="none">
<path d="M0 1200 l0 -1200 2000 0 2000 0 0 1200 0 1200 -2000 0 -2000 0 0
-1200z m2217 461 c201 -74 437 -97 533 -52 62 28 81 26 117 -11 45 -49 53 -70
53 -147 0 -53 -8 -93 -30 -158 -18 -53 -26 -89 -20 -91 5 -2 10 -34 10 -72 0
-38 5 -90 11 -117 16 -69 -2 -126 -56 -180 -52 -53 -97 -58 -136 -17 -20 22
-24 38 -28 105 l-3 79 -27 -6 c-14 -4 -28 -8 -30 -10 -2 -2 -5 -36 -6 -77 -6
-127 -75 -227 -157 -227 -74 0 -115 67 -105 171 l5 58 -37 14 c-40 17 -51 14
-51 -13 0 -29 -54 -80 -86 -80 -32 0 -84 44 -84 72 0 34 -16 18 -45 -43 -47
-98 -119 -149 -195 -137 -37 5 -34 25 5 31 56 9 101 43 132 100 l28 52 -77 40
-77 40 -49 -54 c-47 -53 -50 -55 -110 -59 -52 -4 -62 -2 -62 12 0 12 10 16 39
16 48 0 82 26 127 96 19 29 58 79 87 110 45 49 58 57 97 61 25 3 53 11 63 18
16 11 16 15 1 51 -33 78 -64 210 -64 273 0 72 20 113 73 156 41 32 58 31 154
-4z"/>
<path d="M2040 1120 c-19 -3 -46 -12 -60 -19 -29 -15 -110 -91 -110 -103 0 -5
34 -25 76 -46 57 -27 78 -34 82 -24 2 7 18 32 36 55 27 36 31 48 28 87 -2 25
-7 48 -11 51 -3 3 -22 3 -41 -1z"/>
<path d="M2827 1049 c-9 -6 -17 -18 -17 -27 0 -14 4 -13 22 6 24 24 22 36 -5
21z"/>
<path d="M2780 1029 c0 -5 5 -7 10 -4 6 3 10 8 10 11 0 2 -4 4 -10 4 -5 0 -10
-5 -10 -11z"/>
<path d="M2842 1013 c-16 -22 -19 -33 -10 -33 25 0 40 17 36 41 -3 24 -3 23
-26 -8z"/>
<path d="M2751 1013 c7 -10 15 -20 16 -22 2 -2 3 5 3 17 0 14 -6 22 -16 22
-14 0 -15 -3 -3 -17z"/>
<path d="M2722 999 c2 -14 11 -25 22 -27 11 -3 16 0 11 7 -3 6 -11 9 -16 6 -5
-3 -6 0 -3 8 3 8 0 18 -6 22 -8 5 -11 -1 -8 -16z"/>
<path d="M2119 973 c-13 -15 -12 -15 9 -4 23 12 28 21 13 21 -5 0 -15 -7 -22
-17z"/>
<path d="M2138 957 c-18 -15 -24 -28 -20 -39 6 -14 11 -9 30 22 12 22 21 40
20 40 -2 0 -15 -10 -30 -23z"/>
<path d="M2529 973 c-10 -2 -19 -18 -21 -35 -5 -29 -4 -30 9 -12 16 21 35 55
31 53 -2 -1 -10 -3 -19 -6z"/>
<path d="M2546 940 c-14 -22 -26 -42 -26 -44 0 -2 14 1 30 7 25 9 30 17 30 44
0 18 -2 33 -4 33 -2 0 -15 -18 -30 -40z"/>
<path d="M2845 960 c-3 -5 -2 -10 4 -10 5 0 13 5 16 10 3 6 2 10 -4 10 -5 0
-13 -4 -16 -10z"/>
<path d="M2155 920 c-14 -31 -16 -43 -7 -52 6 -6 13 -10 16 -7 4 4 15 99 11
99 -1 0 -10 -18 -20 -40z"/>
<path d="M2187 925 c-10 -58 -9 -65 8 -65 23 0 27 21 12 65 l-14 39 -6 -39z"/>
<path d="M2215 938 c11 -36 22 -42 30 -18 5 15 2 26 -6 31 -23 15 -31 10 -24
-13z"/>
<path d="M2480 940 c0 -11 2 -20 4 -20 2 0 6 9 9 20 3 11 1 20 -4 20 -5 0 -9
-9 -9 -20z"/>
<path d="M2710 946 c0 -13 6 -15 28 -10 33 8 41 14 19 14 -8 0 -22 3 -31 6
-11 4 -16 1 -16 -10z"/>
<path d="M2445 930 c20 -22 31 -20 22 5 -4 8 -14 15 -23 15 -16 0 -16 -2 1
-20z"/>
<path d="M2400 916 c0 -19 6 -25 30 -28 36 -5 38 1 7 30 -30 28 -37 28 -37 -2z"/>
<path d="M2840 915 c7 -8 14 -15 16 -15 2 0 4 7 4 15 0 8 -7 15 -16 15 -14 0
-14 -3 -4 -15z"/>
<path d="M2728 913 c-10 -2 -18 -13 -18 -24 0 -24 2 -24 28 6 22 25 21 26 -10
18z"/>
<path d="M2820 895 c0 -11 4 -26 9 -33 6 -11 10 -10 15 4 4 10 0 24 -9 33 -13
14 -15 13 -15 -4z"/>
<path d="M2752 877 c-26 -28 -28 -43 -6 -51 9 -4 18 -5 19 -4 4 5 14 78 11 78
-1 0 -12 -10 -24 -23z"/>
<path d="M2544 875 c-18 -14 -18 -14 9 -15 17 0 27 5 27 15 0 19 -11 19 -36 0z"/>
<path d="M2390 861 c0 -12 5 -21 11 -21 5 0 7 5 3 11 -4 7 0 9 12 5 11 -3 26
-1 34 4 12 8 11 10 -7 10 -12 0 -28 3 -37 6 -12 4 -16 0 -16 -15z"/>
<path d="M2788 850 c-3 -19 -1 -29 6 -27 14 4 21 57 8 57 -5 0 -12 -14 -14
-30z"/>
<path d="M2418 826 c-29 -10 -34 -22 -20 -44 6 -8 15 -3 31 19 27 36 25 39
-11 25z"/>
<path d="M2541 819 c9 -17 13 -19 20 -8 14 22 11 29 -11 29 -18 0 -19 -3 -9
-21z"/>
<path d="M2437 783 c-26 -35 -26 -37 -10 -55 16 -18 17 -18 24 -1 6 18 19 93
16 93 -1 -1 -14 -17 -30 -37z"/>
<path d="M2511 805 c0 -11 4 -28 8 -38 6 -18 8 -18 21 -2 11 14 10 19 -8 38
-21 21 -22 21 -21 2z"/>
<path d="M2476 767 c-9 -55 -6 -62 16 -44 13 10 14 18 4 52 l-12 40 -8 -48z"/>
</g>
</svg>
